<svg width="63" height="36" viewBox="0 0 63 36" fill="none" xmlns="http://www.w3.org/2000/svg">
<path d="M23.0547 17.8203C23.0547 23.7422 22.1172 28.1641 20.2422 31.0859C18.3828 34.0078 15.5312 35.4688 11.6875 35.4688C8 35.4688 5.19531 33.9766 3.27344 30.9922C1.35156 27.9922 0.390625 23.6016 0.390625 17.8203C0.390625 11.8516 1.32031 7.42188 3.17969 4.53125C5.03906 1.64062 7.875 0.195312 11.6875 0.195312C15.4062 0.195312 18.2266 1.70312 20.1484 4.71875C22.0859 7.73438 23.0547 12.1016 23.0547 17.8203ZM4.32812 17.8203C4.32812 22.8047 4.91406 26.4375 6.08594 28.7188C7.25781 30.9844 9.125 32.1172 11.6875 32.1172C14.2812 32.1172 16.1562 30.9688 17.3125 28.6719C18.4844 26.3594 19.0703 22.7422 19.0703 17.8203C19.0703 12.8984 18.4844 9.29688 17.3125 7.01562C16.1562 4.71875 14.2812 3.57031 11.6875 3.57031C9.125 3.57031 7.25781 4.70312 6.08594 6.96875C4.91406 9.21875 4.32812 12.8359 4.32812 17.8203ZM50.3359 35H27.8125V31.6484L36.8359 22.5781C39.5859 19.7969 41.3984 17.8125 42.2734 16.625C43.1484 15.4375 43.8047 14.2812 44.2422 13.1562C44.6797 12.0312 44.8984 10.8203 44.8984 9.52344C44.8984 7.69531 44.3438 6.25 43.2344 5.1875C42.125 4.10938 40.5859 3.57031 38.6172 3.57031C37.1953 3.57031 35.8438 3.80469 34.5625 4.27344C33.2969 4.74219 31.8828 5.59375 30.3203 6.82812L28.2578 4.17969C31.4141 1.55469 34.8516 0.242188 38.5703 0.242188C41.7891 0.242188 44.3125 1.07031 46.1406 2.72656C47.9688 4.36719 48.8828 6.57812 48.8828 9.35938C48.8828 11.5312 48.2734 13.6797 47.0547 15.8047C45.8359 17.9297 43.5547 20.6172 40.2109 23.8672L32.7109 31.2031V31.3906H50.3359V35ZM56.5 32.5156C56.5 31.4688 56.7344 30.6797 57.2031 30.1484C57.6875 29.6016 58.375 29.3281 59.2656 29.3281C60.1719 29.3281 60.875 29.6016 61.375 30.1484C61.8906 30.6797 62.1484 31.4688 62.1484 32.5156C62.1484 33.5312 61.8906 34.3125 61.375 34.8594C60.8594 35.4062 60.1562 35.6797 59.2656 35.6797C58.4688 35.6797 57.8047 35.4375 57.2734 34.9531C56.7578 34.4531 56.5 33.6406 56.5 32.5156Z" fill="#188BFA"/>
</svg>
