<svg width="63" height="36" viewBox="0 0 63 36" fill="none" xmlns="http://www.w3.org/2000/svg">
<path d="M23.0547 17.8203C23.0547 23.7422 22.1172 28.1641 20.2422 31.0859C18.3828 34.0078 15.5312 35.4688 11.6875 35.4688C8 35.4688 5.19531 33.9766 3.27344 30.9922C1.35156 27.9922 0.390625 23.6016 0.390625 17.8203C0.390625 11.8516 1.32031 7.42188 3.17969 4.53125C5.03906 1.64062 7.875 0.195312 11.6875 0.195312C15.4062 0.195312 18.2266 1.70312 20.1484 4.71875C22.0859 7.73438 23.0547 12.1016 23.0547 17.8203ZM4.32812 17.8203C4.32812 22.8047 4.91406 26.4375 6.08594 28.7188C7.25781 30.9844 9.125 32.1172 11.6875 32.1172C14.2812 32.1172 16.1562 30.9688 17.3125 28.6719C18.4844 26.3594 19.0703 22.7422 19.0703 17.8203C19.0703 12.8984 18.4844 9.29688 17.3125 7.01562C16.1562 4.71875 14.2812 3.57031 11.6875 3.57031C9.125 3.57031 7.25781 4.70312 6.08594 6.96875C4.91406 9.21875 4.32812 12.8359 4.32812 17.8203ZM49.0469 8.79688C49.0469 10.9844 48.4297 12.7734 47.1953 14.1641C45.9766 15.5547 44.2422 16.4844 41.9922 16.9531V17.1406C44.7422 17.4844 46.7812 18.3594 48.1094 19.7656C49.4375 21.1719 50.1016 23.0156 50.1016 25.2969C50.1016 28.5625 48.9688 31.0781 46.7031 32.8438C44.4375 34.5938 41.2188 35.4688 37.0469 35.4688C35.2344 35.4688 33.5703 35.3281 32.0547 35.0469C30.5547 34.7812 29.0938 34.3047 27.6719 33.6172V29.9141C29.1562 30.6484 30.7344 31.2109 32.4062 31.6016C34.0938 31.9766 35.6875 32.1641 37.1875 32.1641C43.1094 32.1641 46.0703 29.8438 46.0703 25.2031C46.0703 21.0469 42.8047 18.9688 36.2734 18.9688H32.8984V15.6172H36.3203C38.9922 15.6172 41.1094 15.0312 42.6719 13.8594C44.2344 12.6719 45.0156 11.0312 45.0156 8.9375C45.0156 7.26562 44.4375 5.95312 43.2812 5C42.1406 4.04688 40.5859 3.57031 38.6172 3.57031C37.1172 3.57031 35.7031 3.77344 34.375 4.17969C33.0469 4.58594 31.5312 5.33594 29.8281 6.42969L27.8594 3.80469C29.2656 2.69531 30.8828 1.82812 32.7109 1.20312C34.5547 0.5625 36.4922 0.242188 38.5234 0.242188C41.8516 0.242188 44.4375 1.00781 46.2812 2.53906C48.125 4.05469 49.0469 6.14062 49.0469 8.79688ZM56.5 32.5156C56.5 31.4688 56.7344 30.6797 57.2031 30.1484C57.6875 29.6016 58.375 29.3281 59.2656 29.3281C60.1719 29.3281 60.875 29.6016 61.375 30.1484C61.8906 30.6797 62.1484 31.4688 62.1484 32.5156C62.1484 33.5312 61.8906 34.3125 61.375 34.8594C60.8594 35.4062 60.1562 35.6797 59.2656 35.6797C58.4688 35.6797 57.8047 35.4375 57.2734 34.9531C56.7578 34.4531 56.5 33.6406 56.5 32.5156Z" fill="#188BFA"/>
</svg>
