<svg width="63" height="36" viewBox="0 0 63 36" fill="none" xmlns="http://www.w3.org/2000/svg">
<path d="M23.0547 17.8203C23.0547 23.7422 22.1172 28.1641 20.2422 31.0859C18.3828 34.0078 15.5312 35.4688 11.6875 35.4688C8 35.4688 5.19531 33.9766 3.27344 30.9922C1.35156 27.9922 0.390625 23.6016 0.390625 17.8203C0.390625 11.8516 1.32031 7.42188 3.17969 4.53125C5.03906 1.64062 7.875 0.195312 11.6875 0.195312C15.4062 0.195312 18.2266 1.70312 20.1484 4.71875C22.0859 7.73438 23.0547 12.1016 23.0547 17.8203ZM4.32812 17.8203C4.32812 22.8047 4.91406 26.4375 6.08594 28.7188C7.25781 30.9844 9.125 32.1172 11.6875 32.1172C14.2812 32.1172 16.1562 30.9688 17.3125 28.6719C18.4844 26.3594 19.0703 22.7422 19.0703 17.8203C19.0703 12.8984 18.4844 9.29688 17.3125 7.01562C16.1562 4.71875 14.2812 3.57031 11.6875 3.57031C9.125 3.57031 7.25781 4.70312 6.08594 6.96875C4.91406 9.21875 4.32812 12.8359 4.32812 17.8203ZM51.9531 27.125H46.8672V35H43.1406V27.125H26.4766V23.7266L42.7422 0.546875H46.8672V23.5859H51.9531V27.125ZM43.1406 23.5859V12.1953C43.1406 9.96094 43.2188 7.4375 43.375 4.625H43.1875C42.4375 6.125 41.7344 7.36719 41.0781 8.35156L30.3672 23.5859H43.1406ZM56.5 32.5156C56.5 31.4688 56.7344 30.6797 57.2031 30.1484C57.6875 29.6016 58.375 29.3281 59.2656 29.3281C60.1719 29.3281 60.875 29.6016 61.375 30.1484C61.8906 30.6797 62.1484 31.4688 62.1484 32.5156C62.1484 33.5312 61.8906 34.3125 61.375 34.8594C60.8594 35.4062 60.1562 35.6797 59.2656 35.6797C58.4688 35.6797 57.8047 35.4375 57.2734 34.9531C56.7578 34.4531 56.5 33.6406 56.5 32.5156Z" fill="#188BFA"/>
</svg>
