<svg width="63" height="36" viewBox="0 0 63 36" fill="none" xmlns="http://www.w3.org/2000/svg">
<path d="M23.0547 17.8203C23.0547 23.7422 22.1172 28.1641 20.2422 31.0859C18.3828 34.0078 15.5312 35.4688 11.6875 35.4688C8 35.4688 5.19531 33.9766 3.27344 30.9922C1.35156 27.9922 0.390625 23.6016 0.390625 17.8203C0.390625 11.8516 1.32031 7.42188 3.17969 4.53125C5.03906 1.64062 7.875 0.195312 11.6875 0.195312C15.4062 0.195312 18.2266 1.70312 20.1484 4.71875C22.0859 7.73438 23.0547 12.1016 23.0547 17.8203ZM4.32812 17.8203C4.32812 22.8047 4.91406 26.4375 6.08594 28.7188C7.25781 30.9844 9.125 32.1172 11.6875 32.1172C14.2812 32.1172 16.1562 30.9688 17.3125 28.6719C18.4844 26.3594 19.0703 22.7422 19.0703 17.8203C19.0703 12.8984 18.4844 9.29688 17.3125 7.01562C16.1562 4.71875 14.2812 3.57031 11.6875 3.57031C9.125 3.57031 7.25781 4.70312 6.08594 6.96875C4.91406 9.21875 4.32812 12.8359 4.32812 17.8203ZM38.5234 14.0703C42.1328 14.0703 44.9688 14.9688 47.0312 16.7656C49.1094 18.5469 50.1484 20.9922 50.1484 24.1016C50.1484 27.6484 49.0156 30.4297 46.75 32.4453C44.5 34.4609 41.3906 35.4688 37.4219 35.4688C33.5625 35.4688 30.6172 34.8516 28.5859 33.6172V29.8672C29.6797 30.5703 31.0391 31.125 32.6641 31.5312C34.2891 31.9219 35.8906 32.1172 37.4688 32.1172C40.2188 32.1172 42.3516 31.4688 43.8672 30.1719C45.3984 28.875 46.1641 27 46.1641 24.5469C46.1641 19.7656 43.2344 17.375 37.375 17.375C35.8906 17.375 33.9062 17.6016 31.4219 18.0547L29.4062 16.7656L30.6953 0.734375H47.7344V4.32031H34.0234L33.1562 14.6094C34.9531 14.25 36.7422 14.0703 38.5234 14.0703ZM56.5 32.5156C56.5 31.4688 56.7344 30.6797 57.2031 30.1484C57.6875 29.6016 58.375 29.3281 59.2656 29.3281C60.1719 29.3281 60.875 29.6016 61.375 30.1484C61.8906 30.6797 62.1484 31.4688 62.1484 32.5156C62.1484 33.5312 61.8906 34.3125 61.375 34.8594C60.8594 35.4062 60.1562 35.6797 59.2656 35.6797C58.4688 35.6797 57.8047 35.4375 57.2734 34.9531C56.7578 34.4531 56.5 33.6406 56.5 32.5156Z" fill="#188BFA"/>
</svg>
