<svg width="179" height="32" viewBox="0 0 179 32" fill="none" xmlns="http://www.w3.org/2000/svg">
<path d="M1.31396 0.719727H3.85938C5.00618 0.719727 5.84831 0.914388 6.38574 1.30371C6.92318 1.69303 7.19189 2.28125 7.19189 3.06836C7.19189 3.60579 7.02686 4.05436 6.69678 4.41406C6.37093 4.76953 5.89274 4.99805 5.26221 5.09961V5.1377C6.00277 5.24772 6.54655 5.48258 6.89355 5.84229C7.24479 6.19775 7.42041 6.69499 7.42041 7.33398C7.42041 8.1888 7.13688 8.84684 6.56982 9.30811C6.00277 9.76937 5.19873 10 4.15771 10H1.31396V0.719727ZM1.96143 4.85205H4.00537C4.87712 4.85205 5.50977 4.70817 5.90332 4.42041C6.30111 4.12842 6.5 3.6735 6.5 3.05566C6.5 2.43783 6.27572 1.98926 5.82715 1.70996C5.38281 1.43066 4.71842 1.29102 3.83398 1.29102H1.96143V4.85205ZM1.96143 5.42334V9.42871H4.14502C5.86312 9.42871 6.72217 8.73047 6.72217 7.33398C6.72217 6.06022 5.81657 5.42334 4.00537 5.42334H1.96143ZM9.93408 6.00732H12.1304C13.7511 6.00732 14.5615 6.64421 14.5615 7.91797C14.5615 8.57389 14.3351 9.08594 13.8823 9.4541C13.4295 9.81803 12.7799 10 11.9336 10H9.30566V3.1001H9.93408V6.00732ZM9.93408 6.604V9.40332H12.0352C12.6318 9.40332 13.091 9.27848 13.4126 9.02881C13.7342 8.77913 13.895 8.40462 13.895 7.90527C13.895 7.44824 13.7533 7.11816 13.4697 6.91504C13.1862 6.70768 12.6953 6.604 11.9971 6.604H9.93408ZM16.3896 10H15.7676V3.1001H16.3896V10ZM21.4678 10.127C20.4818 10.127 19.7095 9.81592 19.1509 9.19385C18.5923 8.57178 18.313 7.70426 18.313 6.59131C18.313 5.44873 18.6029 4.56006 19.1826 3.92529C19.7624 3.2863 20.5558 2.9668 21.563 2.9668C22.1597 2.9668 22.731 3.07048 23.2769 3.27783L23.1055 3.83643C22.5088 3.63753 21.9904 3.53809 21.5503 3.53809C20.7039 3.53809 20.0628 3.80046 19.627 4.3252C19.1911 4.8457 18.9731 5.59684 18.9731 6.57861C18.9731 7.5096 19.1911 8.23958 19.627 8.76855C20.0628 9.29329 20.6722 9.55566 21.4551 9.55566C22.0814 9.55566 22.6632 9.44352 23.2007 9.21924V9.80322C22.7606 10.019 22.1829 10.127 21.4678 10.127ZM29.2754 3.646H26.9775V10H26.3555V3.646H24.0005V3.1001H29.2754V3.646ZM33.6489 10.127C32.5868 10.127 31.8123 9.72917 31.3257 8.93359H31.2812L31.3003 9.4668C31.3172 9.77995 31.3257 10.1227 31.3257 10.4951V13.123H30.6973V3.1001H31.2305L31.3511 4.08398H31.3892C31.8631 3.33919 32.6206 2.9668 33.6616 2.9668C34.5926 2.9668 35.3014 3.2736 35.7881 3.88721C36.279 4.49658 36.5244 5.38525 36.5244 6.55322C36.5244 7.68734 36.2663 8.56755 35.75 9.19385C35.238 9.81592 34.5376 10.127 33.6489 10.127ZM33.6362 9.56836C34.3429 9.56836 34.8888 9.30599 35.2739 8.78125C35.6632 8.25651 35.8579 7.5223 35.8579 6.57861C35.8579 4.5516 35.1258 3.53809 33.6616 3.53809C32.8576 3.53809 32.2673 3.76025 31.8906 4.20459C31.514 4.64469 31.3257 5.3641 31.3257 6.36279V6.56592C31.3257 7.64502 31.5055 8.4152 31.8652 8.87646C32.2292 9.33773 32.8195 9.56836 33.6362 9.56836ZM42.6309 10L42.4722 8.9082H42.4214C42.0744 9.35254 41.7168 9.66781 41.3486 9.854C40.9847 10.036 40.5531 10.127 40.0537 10.127C39.3766 10.127 38.8498 9.95345 38.4731 9.60645C38.0965 9.25944 37.9082 8.77913 37.9082 8.16553C37.9082 7.49268 38.1875 6.97005 38.7461 6.59766C39.3089 6.22526 40.1214 6.02848 41.1836 6.00732L42.4976 5.96924V5.51221C42.4976 4.85628 42.3643 4.36117 42.0977 4.02686C41.8311 3.69255 41.4015 3.52539 40.8091 3.52539C40.1701 3.52539 39.5078 3.70312 38.8223 4.05859L38.5874 3.5127C39.3449 3.15723 40.0939 2.97949 40.8345 2.97949C41.592 2.97949 42.1569 3.17627 42.5293 3.56982C42.9059 3.96338 43.0942 4.57699 43.0942 5.41064V10H42.6309ZM40.0918 9.55566C40.8281 9.55566 41.4079 9.34619 41.8311 8.92725C42.2585 8.50407 42.4722 7.91797 42.4722 7.16895V6.48975L41.2661 6.54053C40.297 6.58708 39.6051 6.73942 39.1904 6.99756C38.7799 7.25146 38.5747 7.64925 38.5747 8.19092C38.5747 8.62256 38.7059 8.95898 38.9683 9.2002C39.2349 9.43717 39.6094 9.55566 40.0918 9.55566ZM45.9316 3.1001V8.08936L45.8936 9.39062L49.9878 3.1001H50.8257V10H50.2227V5.04248L50.248 3.70947L46.1538 10H45.335V3.1001H45.9316ZM58.4365 4.76318C58.4365 5.19906 58.3286 5.54183 58.1128 5.7915C57.897 6.03695 57.5457 6.20833 57.0591 6.30566V6.3501C57.6134 6.41357 58.0133 6.57438 58.2588 6.83252C58.5085 7.08643 58.6333 7.45247 58.6333 7.93066C58.6333 8.59505 58.4132 9.1071 57.9731 9.4668C57.5373 9.82227 56.8983 10 56.0562 10H53.1426V3.1001H56.0688C56.856 3.1001 57.4463 3.24186 57.8398 3.52539C58.2376 3.80892 58.4365 4.22152 58.4365 4.76318ZM57.9668 7.91797C57.9668 7.07161 57.3172 6.64844 56.0181 6.64844H53.771V9.40332H56.1069C57.3468 9.40332 57.9668 8.9082 57.9668 7.91797ZM57.77 4.81396C57.77 4.41195 57.6261 4.1263 57.3384 3.95703C57.0506 3.78353 56.619 3.69678 56.0435 3.69678H53.771V6.05811H55.9673C56.6105 6.05811 57.0718 5.95866 57.3511 5.75977C57.6304 5.56087 57.77 5.24561 57.77 4.81396ZM64.6953 10L64.5366 8.9082H64.4858C64.1388 9.35254 63.7812 9.66781 63.4131 9.854C63.0492 10.036 62.6175 10.127 62.1182 10.127C61.4411 10.127 60.9142 9.95345 60.5376 9.60645C60.161 9.25944 59.9727 8.77913 59.9727 8.16553C59.9727 7.49268 60.252 6.97005 60.8105 6.59766C61.3734 6.22526 62.1859 6.02848 63.248 6.00732L64.562 5.96924V5.51221C64.562 4.85628 64.4287 4.36117 64.1621 4.02686C63.8955 3.69255 63.466 3.52539 62.8735 3.52539C62.2345 3.52539 61.5723 3.70312 60.8867 4.05859L60.6519 3.5127C61.4093 3.15723 62.1584 2.97949 62.8989 2.97949C63.6564 2.97949 64.2214 3.17627 64.5938 3.56982C64.9704 3.96338 65.1587 4.57699 65.1587 5.41064V10H64.6953ZM62.1562 9.55566C62.8926 9.55566 63.4723 9.34619 63.8955 8.92725C64.3229 8.50407 64.5366 7.91797 64.5366 7.16895V6.48975L63.3306 6.54053C62.3615 6.58708 61.6696 6.73942 61.2549 6.99756C60.8444 7.25146 60.6392 7.64925 60.6392 8.19092C60.6392 8.62256 60.7703 8.95898 61.0327 9.2002C61.2993 9.43717 61.6738 9.55566 62.1562 9.55566ZM70.186 10.127C69.1831 10.127 68.4002 9.81803 67.8374 9.2002C67.2788 8.58236 66.9995 7.71696 66.9995 6.604C66.9995 5.50374 67.2703 4.62354 67.812 3.96338C68.3537 3.29899 69.0837 2.9668 70.002 2.9668C70.8145 2.9668 71.4556 3.25033 71.9253 3.81738C72.395 4.38444 72.6299 5.15462 72.6299 6.12793V6.63574H67.6597C67.6681 7.58366 67.8882 8.30729 68.3198 8.80664C68.7557 9.30599 69.3778 9.55566 70.186 9.55566C70.5796 9.55566 70.9245 9.52816 71.2207 9.47314C71.5212 9.41813 71.8999 9.29964 72.3569 9.11768V9.68896C71.9676 9.85824 71.6079 9.97249 71.2778 10.0317C70.9478 10.0952 70.5838 10.127 70.186 10.127ZM70.002 3.52539C69.3376 3.52539 68.8044 3.74544 68.4023 4.18555C68.0003 4.62142 67.7655 5.25195 67.6978 6.07715H71.9634C71.9634 5.27734 71.7899 4.65316 71.4429 4.20459C71.0959 3.75179 70.6156 3.52539 70.002 3.52539ZM77.7461 9.32715L78.1396 8.21631L80.1265 3.1001H80.9961V10H80.3994V3.86182C80.3063 4.12842 80.2069 4.40137 80.1011 4.68066C79.9995 4.95996 79.3097 6.73307 78.0317 10H77.4731L75.5625 5.15039C75.4821 4.95573 75.4059 4.75049 75.334 4.53467C75.2663 4.31885 75.1901 4.0861 75.1055 3.83643V10H74.5342V3.1001H75.3657L77.3589 8.17822C77.5155 8.5887 77.6445 8.97168 77.7461 9.32715ZM91.9775 4.76318C91.9775 5.19906 91.8696 5.54183 91.6538 5.7915C91.438 6.03695 91.0868 6.20833 90.6001 6.30566V6.3501C91.1545 6.41357 91.5544 6.57438 91.7998 6.83252C92.0495 7.08643 92.1743 7.45247 92.1743 7.93066C92.1743 8.59505 91.9543 9.1071 91.5142 9.4668C91.0783 9.82227 90.4393 10 89.5972 10H86.6836V3.1001H89.6099C90.397 3.1001 90.9873 3.24186 91.3809 3.52539C91.7786 3.80892 91.9775 4.22152 91.9775 4.76318ZM91.5078 7.91797C91.5078 7.07161 90.8582 6.64844 89.5591 6.64844H87.312V9.40332H89.6479C90.8879 9.40332 91.5078 8.9082 91.5078 7.91797ZM91.311 4.81396C91.311 4.41195 91.1672 4.1263 90.8794 3.95703C90.5916 3.78353 90.16 3.69678 89.5845 3.69678H87.312V6.05811H89.5083C90.1515 6.05811 90.6128 5.95866 90.8921 5.75977C91.1714 5.56087 91.311 5.24561 91.311 4.81396ZM94.6753 6.00732H96.8716C98.4924 6.00732 99.3027 6.64421 99.3027 7.91797C99.3027 8.57389 99.0763 9.08594 98.6235 9.4541C98.1707 9.81803 97.5212 10 96.6748 10H94.0469V3.1001H94.6753V6.00732ZM94.6753 6.604V9.40332H96.7764C97.373 9.40332 97.8322 9.27848 98.1538 9.02881C98.4754 8.77913 98.6362 8.40462 98.6362 7.90527C98.6362 7.44824 98.4945 7.11816 98.2109 6.91504C97.9274 6.70768 97.4365 6.604 96.7383 6.604H94.6753ZM101.131 10H100.509V3.1001H101.131V10ZM109.084 12.3423H108.462V10H103.181V12.3423H102.559V9.40332H103.016C103.592 8.59505 104.036 7.65771 104.349 6.59131C104.662 5.5249 104.827 4.36117 104.844 3.1001H108.164V9.40332H109.084V12.3423ZM107.536 9.40332V3.68408H105.39C105.289 5.97347 104.734 7.87988 103.727 9.40332H107.536ZM114.74 10L114.582 8.9082H114.531C114.184 9.35254 113.826 9.66781 113.458 9.854C113.094 10.036 112.662 10.127 112.163 10.127C111.486 10.127 110.959 9.95345 110.583 9.60645C110.206 9.25944 110.018 8.77913 110.018 8.16553C110.018 7.49268 110.297 6.97005 110.855 6.59766C111.418 6.22526 112.231 6.02848 113.293 6.00732L114.607 5.96924V5.51221C114.607 4.85628 114.474 4.36117 114.207 4.02686C113.94 3.69255 113.511 3.52539 112.918 3.52539C112.279 3.52539 111.617 3.70312 110.932 4.05859L110.697 3.5127C111.454 3.15723 112.203 2.97949 112.944 2.97949C113.701 2.97949 114.266 3.17627 114.639 3.56982C115.015 3.96338 115.204 4.57699 115.204 5.41064V10H114.74ZM112.201 9.55566C112.938 9.55566 113.517 9.34619 113.94 8.92725C114.368 8.50407 114.582 7.91797 114.582 7.16895V6.48975L113.375 6.54053C112.406 6.58708 111.715 6.73942 111.3 6.99756C110.889 7.25146 110.684 7.64925 110.684 8.19092C110.684 8.62256 110.815 8.95898 111.078 9.2002C111.344 9.43717 111.719 9.55566 112.201 9.55566ZM125.912 6.54053C125.912 7.66618 125.658 8.54639 125.15 9.18115C124.647 9.81169 123.955 10.127 123.075 10.127C122.245 10.127 121.577 9.81592 121.069 9.19385C120.565 8.57178 120.307 7.73177 120.294 6.67383H118.073V10H117.444V3.1001H118.073V6.12793H120.307C120.366 5.13346 120.641 4.35905 121.132 3.80469C121.627 3.24609 122.288 2.9668 123.113 2.9668C123.976 2.9668 124.657 3.2863 125.157 3.92529C125.66 4.56006 125.912 5.4318 125.912 6.54053ZM120.955 6.54053C120.955 7.48844 121.141 8.229 121.513 8.76221C121.89 9.29118 122.419 9.55566 123.1 9.55566C123.781 9.55566 124.308 9.28906 124.681 8.75586C125.057 8.22266 125.246 7.48421 125.246 6.54053C125.246 5.59261 125.057 4.85628 124.681 4.33154C124.304 3.80257 123.773 3.53809 123.087 3.53809C122.406 3.53809 121.879 3.80046 121.507 4.3252C121.139 4.8457 120.955 5.58415 120.955 6.54053ZM132.514 9.40332H135.954V3.1001H136.583V9.40332H137.503V12.3423H136.881V10H127.816V3.1001H128.445V9.40332H131.885V3.1001H132.514V9.40332ZM139.572 3.1001V8.08936L139.534 9.39062L143.628 3.1001H144.466V10H143.863V5.04248L143.889 3.70947L139.794 10H138.976V3.1001H139.572ZM149.57 10.127C148.567 10.127 147.784 9.81803 147.221 9.2002C146.663 8.58236 146.383 7.71696 146.383 6.604C146.383 5.50374 146.654 4.62354 147.196 3.96338C147.737 3.29899 148.467 2.9668 149.386 2.9668C150.198 2.9668 150.839 3.25033 151.309 3.81738C151.779 4.38444 152.014 5.15462 152.014 6.12793V6.63574H147.043C147.052 7.58366 147.272 8.30729 147.704 8.80664C148.139 9.30599 148.762 9.55566 149.57 9.55566C149.963 9.55566 150.308 9.52816 150.604 9.47314C150.905 9.41813 151.284 9.29964 151.741 9.11768V9.68896C151.351 9.85824 150.992 9.97249 150.662 10.0317C150.332 10.0952 149.968 10.127 149.57 10.127ZM149.386 3.52539C148.721 3.52539 148.188 3.74544 147.786 4.18555C147.384 4.62142 147.149 5.25195 147.082 6.07715H151.347C151.347 5.27734 151.174 4.65316 150.827 4.20459C150.48 3.75179 149.999 3.52539 149.386 3.52539ZM156.673 10.127C155.687 10.127 154.915 9.81592 154.356 9.19385C153.797 8.57178 153.518 7.70426 153.518 6.59131C153.518 5.44873 153.808 4.56006 154.388 3.92529C154.967 3.2863 155.761 2.9668 156.768 2.9668C157.365 2.9668 157.936 3.07048 158.482 3.27783L158.311 3.83643C157.714 3.63753 157.195 3.53809 156.755 3.53809C155.909 3.53809 155.268 3.80046 154.832 4.3252C154.396 4.8457 154.178 5.59684 154.178 6.57861C154.178 7.5096 154.396 8.23958 154.832 8.76855C155.268 9.29329 155.877 9.55566 156.66 9.55566C157.286 9.55566 157.868 9.44352 158.406 9.21924V9.80322C157.966 10.019 157.388 10.127 156.673 10.127ZM159.999 10H159.206L161.288 7.02295C160.653 6.90446 160.194 6.68441 159.91 6.36279C159.631 6.04118 159.491 5.62858 159.491 5.125C159.491 4.4987 159.701 4.0057 160.12 3.646C160.543 3.28206 161.11 3.1001 161.821 3.1001H164.665V10H164.042V7.09912H161.935L159.999 10ZM160.151 5.09961C160.151 5.57357 160.304 5.92692 160.608 6.15967C160.917 6.38818 161.381 6.50244 161.999 6.50244H164.042V3.69678H161.808C161.283 3.69678 160.875 3.81738 160.583 4.05859C160.295 4.29557 160.151 4.64258 160.151 5.09961ZM3.91016 28.127C2.92415 28.127 2.15186 27.8159 1.59326 27.1938C1.03467 26.5718 0.755371 25.7043 0.755371 24.5913C0.755371 23.4487 1.04525 22.5601 1.625 21.9253C2.20475 21.2863 2.99821 20.9668 4.00537 20.9668C4.60205 20.9668 5.17334 21.0705 5.71924 21.2778L5.54785 21.8364C4.95117 21.6375 4.43278 21.5381 3.99268 21.5381C3.14632 21.5381 2.50521 21.8005 2.06934 22.3252C1.63346 22.8457 1.41553 23.5968 1.41553 24.5786C1.41553 25.5096 1.63346 26.2396 2.06934 26.7686C2.50521 27.2933 3.11458 27.5557 3.89746 27.5557C4.52376 27.5557 5.10563 27.4435 5.64307 27.2192V27.8032C5.20296 28.019 4.62533 28.127 3.91016 28.127ZM7.93457 21.1001V26.0894L7.89648 27.3906L11.9907 21.1001H12.8286V28H12.2256V23.0425L12.251 21.7095L8.15674 28H7.33789V21.1001H7.93457ZM17.9004 28.127C16.9144 28.127 16.1421 27.8159 15.5835 27.1938C15.0249 26.5718 14.7456 25.7043 14.7456 24.5913C14.7456 23.4487 15.0355 22.5601 15.6152 21.9253C16.195 21.2863 16.9884 20.9668 17.9956 20.9668C18.5923 20.9668 19.1636 21.0705 19.7095 21.2778L19.5381 21.8364C18.9414 21.6375 18.423 21.5381 17.9829 21.5381C17.1366 21.5381 16.4954 21.8005 16.0596 22.3252C15.6237 22.8457 15.4058 23.5968 15.4058 24.5786C15.4058 25.5096 15.6237 26.2396 16.0596 26.7686C16.4954 27.2933 17.1048 27.5557 17.8877 27.5557C18.514 27.5557 19.0959 27.4435 19.6333 27.2192V27.8032C19.1932 28.019 18.6156 28.127 17.9004 28.127ZM25.708 21.646H23.4102V28H22.7881V21.646H20.4331V21.1001H25.708V21.646ZM29.9165 28.127C28.9136 28.127 28.1307 27.818 27.5679 27.2002C27.0093 26.5824 26.73 25.717 26.73 24.604C26.73 23.5037 27.0008 22.6235 27.5425 21.9634C28.0841 21.299 28.8141 20.9668 29.7324 20.9668C30.5449 20.9668 31.186 21.2503 31.6558 21.8174C32.1255 22.3844 32.3604 23.1546 32.3604 24.1279V24.6357H27.3901C27.3986 25.5837 27.6187 26.3073 28.0503 26.8066C28.4862 27.306 29.1082 27.5557 29.9165 27.5557C30.3101 27.5557 30.6549 27.5282 30.9512 27.4731C31.2516 27.4181 31.6304 27.2996 32.0874 27.1177V27.689C31.6981 27.8582 31.3384 27.9725 31.0083 28.0317C30.6782 28.0952 30.3143 28.127 29.9165 28.127ZM29.7324 21.5254C29.068 21.5254 28.5348 21.7454 28.1328 22.1855C27.7308 22.6214 27.4959 23.252 27.4282 24.0771H31.6938C31.6938 23.2773 31.5203 22.6532 31.1733 22.2046C30.8263 21.7518 30.346 21.5254 29.7324 21.5254ZM37.4766 27.3271L37.8701 26.2163L39.8569 21.1001H40.7266V28H40.1299V21.8618C40.0368 22.1284 39.9373 22.4014 39.8315 22.6807C39.73 22.96 39.0402 24.7331 37.7622 28H37.2036L35.293 23.1504C35.2126 22.9557 35.1364 22.7505 35.0645 22.5347C34.9967 22.3188 34.9206 22.0861 34.8359 21.8364V28H34.2646V21.1001H35.0962L37.0894 26.1782C37.2459 26.5887 37.375 26.9717 37.4766 27.3271ZM43.6655 24.0073H45.8618C47.4826 24.0073 48.293 24.6442 48.293 25.918C48.293 26.5739 48.0666 27.0859 47.6138 27.4541C47.161 27.818 46.5114 28 45.665 28H43.0371V21.1001H43.6655V24.0073ZM43.6655 24.604V27.4033H45.7666C46.3633 27.4033 46.8224 27.2785 47.144 27.0288C47.4657 26.7791 47.6265 26.4046 47.6265 25.9053C47.6265 25.4482 47.4847 25.1182 47.2012 24.915C46.9176 24.7077 46.4268 24.604 45.7285 24.604H43.6655ZM50.1211 28H49.499V21.1001H50.1211V28ZM56.4497 28H55.8213V21.1001H61.3247V28H60.6963V21.6968H56.4497V28ZM66.5933 28.127C65.5311 28.127 64.7567 27.7292 64.27 26.9336H64.2256L64.2446 27.4668C64.2616 27.7799 64.27 28.1227 64.27 28.4951V31.123H63.6416V21.1001H64.1748L64.2954 22.084H64.3335C64.8075 21.3392 65.5649 20.9668 66.606 20.9668C67.5369 20.9668 68.2458 21.2736 68.7324 21.8872C69.2233 22.4966 69.4688 23.3853 69.4688 24.5532C69.4688 25.6873 69.2106 26.5675 68.6943 27.1938C68.1823 27.8159 67.4819 28.127 66.5933 28.127ZM66.5806 27.5684C67.2873 27.5684 67.8332 27.306 68.2183 26.7812C68.6076 26.2565 68.8022 25.5223 68.8022 24.5786C68.8022 22.5516 68.0701 21.5381 66.606 21.5381C65.8019 21.5381 65.2116 21.7603 64.835 22.2046C64.4583 22.6447 64.27 23.3641 64.27 24.3628V24.5659C64.27 25.645 64.4499 26.4152 64.8096 26.8765C65.1735 27.3377 65.7638 27.5684 66.5806 27.5684ZM77.0923 24.5405C77.0923 25.6662 76.8193 26.5464 76.2734 27.1812C75.7275 27.8117 74.9743 28.127 74.0137 28.127C73.4085 28.127 72.8753 27.981 72.4141 27.689C71.9528 27.397 71.5994 26.978 71.354 26.4321C71.1086 25.8862 70.9858 25.2557 70.9858 24.5405C70.9858 23.4149 71.2588 22.5389 71.8047 21.9126C72.3506 21.2821 73.0996 20.9668 74.0518 20.9668C74.9997 20.9668 75.7424 21.2863 76.2798 21.9253C76.8215 22.5601 77.0923 23.4318 77.0923 24.5405ZM71.646 24.5405C71.646 25.4884 71.8534 26.229 72.2681 26.7622C72.687 27.2912 73.2773 27.5557 74.0391 27.5557C74.8008 27.5557 75.389 27.2912 75.8037 26.7622C76.2227 26.229 76.4321 25.4884 76.4321 24.5405C76.4321 23.5884 76.2205 22.8499 75.7974 22.3252C75.3784 21.8005 74.7881 21.5381 74.0264 21.5381C73.2646 21.5381 72.6764 21.8005 72.2617 22.3252C71.8512 22.8457 71.646 23.5841 71.646 24.5405ZM84.6333 30.3423H84.0112V28H78.73V30.3423H78.1079V27.4033H78.5649C79.1405 26.5951 79.5848 25.6577 79.8979 24.5913C80.2111 23.5249 80.3761 22.3612 80.3931 21.1001H83.7129V27.4033H84.6333V30.3423ZM83.0845 27.4033V21.6841H80.939C80.8374 23.9735 80.283 25.8799 79.2759 27.4033H83.0845ZM90.2891 28L90.1304 26.9082H90.0796C89.7326 27.3525 89.375 27.6678 89.0068 27.854C88.6429 28.036 88.2113 28.127 87.7119 28.127C87.0348 28.127 86.508 27.9535 86.1313 27.6064C85.7547 27.2594 85.5664 26.7791 85.5664 26.1655C85.5664 25.4927 85.8457 24.9701 86.4043 24.5977C86.9671 24.2253 87.7796 24.0285 88.8418 24.0073L90.1558 23.9692V23.5122C90.1558 22.8563 90.0225 22.3612 89.7559 22.0269C89.4893 21.6925 89.0597 21.5254 88.4673 21.5254C87.8283 21.5254 87.166 21.7031 86.4805 22.0586L86.2456 21.5127C87.0031 21.1572 87.7521 20.9795 88.4927 20.9795C89.2502 20.9795 89.8151 21.1763 90.1875 21.5698C90.5641 21.9634 90.7524 22.577 90.7524 23.4106V28H90.2891ZM87.75 27.5557C88.4863 27.5557 89.0661 27.3462 89.4893 26.9272C89.9167 26.5041 90.1304 25.918 90.1304 25.1689V24.4897L88.9243 24.5405C87.9552 24.5871 87.2633 24.7394 86.8486 24.9976C86.4382 25.2515 86.2329 25.6493 86.2329 26.1909C86.2329 26.6226 86.3641 26.959 86.6265 27.2002C86.8931 27.4372 87.2676 27.5557 87.75 27.5557ZM95.8433 21.1001H96.478V24.4517L99.4424 21.1001H100.21L97.2207 24.4517L100.445 28H99.6392L96.478 24.5024V28H95.8433V24.5024L92.6821 28H91.876L95.0879 24.4771L92.1108 21.1001H92.8789L95.8433 24.4517V21.1001ZM110.31 22.7632C110.31 23.1991 110.202 23.5418 109.986 23.7915C109.77 24.0369 109.419 24.2083 108.932 24.3057V24.3501C109.486 24.4136 109.886 24.5744 110.132 24.8325C110.382 25.0864 110.506 25.4525 110.506 25.9307C110.506 26.5951 110.286 27.1071 109.846 27.4668C109.41 27.8223 108.771 28 107.929 28H105.016V21.1001H107.942C108.729 21.1001 109.319 21.2419 109.713 21.5254C110.111 21.8089 110.31 22.2215 110.31 22.7632ZM109.84 25.918C109.84 25.0716 109.19 24.6484 107.891 24.6484H105.644V27.4033H107.98C109.22 27.4033 109.84 26.9082 109.84 25.918ZM109.643 22.814C109.643 22.4119 109.499 22.1263 109.211 21.957C108.924 21.7835 108.492 21.6968 107.917 21.6968H105.644V24.0581H107.84C108.484 24.0581 108.945 23.9587 109.224 23.7598C109.503 23.5609 109.643 23.2456 109.643 22.814ZM116.353 21.1001V26.0894L116.314 27.3906L120.409 21.1001H121.247V28H120.644V23.0425L120.669 21.7095L116.575 28H115.756V21.1001H116.353ZM124.192 21.1001V24.1279H128.572V21.1001H129.194V28H128.572V24.6738H124.192V28H123.563V21.1001H124.192ZM135.891 21.646H133.593V28H132.971V21.646H130.616V21.1001H135.891V21.646ZM140.099 28.127C139.096 28.127 138.313 27.818 137.75 27.2002C137.192 26.5824 136.913 25.717 136.913 24.604C136.913 23.5037 137.183 22.6235 137.725 21.9634C138.267 21.299 138.997 20.9668 139.915 20.9668C140.728 20.9668 141.369 21.2503 141.838 21.8174C142.308 22.3844 142.543 23.1546 142.543 24.1279V24.6357H137.573C137.581 25.5837 137.801 26.3073 138.233 26.8066C138.669 27.306 139.291 27.5557 140.099 27.5557C140.493 27.5557 140.838 27.5282 141.134 27.4731C141.434 27.4181 141.813 27.2996 142.27 27.1177V27.689C141.881 27.8582 141.521 27.9725 141.191 28.0317C140.861 28.0952 140.497 28.127 140.099 28.127ZM139.915 21.5254C139.251 21.5254 138.717 21.7454 138.315 22.1855C137.913 22.6214 137.679 23.252 137.611 24.0771H141.876C141.876 23.2773 141.703 22.6532 141.356 22.2046C141.009 21.7518 140.529 21.5254 139.915 21.5254ZM147.399 28.127C146.337 28.127 145.562 27.7292 145.076 26.9336H145.031L145.05 27.4668C145.067 27.7799 145.076 28.1227 145.076 28.4951V31.123H144.447V21.1001H144.98L145.101 22.084H145.139C145.613 21.3392 146.371 20.9668 147.412 20.9668C148.343 20.9668 149.051 21.2736 149.538 21.8872C150.029 22.4966 150.274 23.3853 150.274 24.5532C150.274 25.6873 150.016 26.5675 149.5 27.1938C148.988 27.8159 148.288 28.127 147.399 28.127ZM147.386 27.5684C148.093 27.5684 148.639 27.306 149.024 26.7812C149.413 26.2565 149.608 25.5223 149.608 24.5786C149.608 22.5516 148.876 21.5381 147.412 21.5381C146.608 21.5381 146.017 21.7603 145.641 22.2046C145.264 22.6447 145.076 23.3641 145.076 24.3628V24.5659C145.076 25.645 145.256 26.4152 145.615 26.8765C145.979 27.3377 146.569 27.5684 147.386 27.5684ZM152.82 21.1001V24.1279H157.2V21.1001H157.822V28H157.2V24.6738H152.82V28H152.191V21.1001H152.82ZM162.925 28.127C161.922 28.127 161.139 27.818 160.577 27.2002C160.018 26.5824 159.739 25.717 159.739 24.604C159.739 23.5037 160.01 22.6235 160.551 21.9634C161.093 21.299 161.823 20.9668 162.741 20.9668C163.554 20.9668 164.195 21.2503 164.665 21.8174C165.134 22.3844 165.369 23.1546 165.369 24.1279V24.6357H160.399C160.407 25.5837 160.627 26.3073 161.059 26.8066C161.495 27.306 162.117 27.5557 162.925 27.5557C163.319 27.5557 163.664 27.5282 163.96 27.4731C164.26 27.4181 164.639 27.2996 165.096 27.1177V27.689C164.707 27.8582 164.347 27.9725 164.017 28.0317C163.687 28.0952 163.323 28.127 162.925 28.127ZM162.741 21.5254C162.077 21.5254 161.544 21.7454 161.142 22.1855C160.74 22.6214 160.505 23.252 160.437 24.0771H164.703C164.703 23.2773 164.529 22.6532 164.182 22.2046C163.835 21.7518 163.355 21.5254 162.741 21.5254ZM171.653 21.646H169.355V28H168.733V21.646H166.378V21.1001H171.653V21.646ZM175.862 28.127C174.859 28.127 174.076 27.818 173.513 27.2002C172.955 26.5824 172.675 25.717 172.675 24.604C172.675 23.5037 172.946 22.6235 173.488 21.9634C174.029 21.299 174.759 20.9668 175.678 20.9668C176.49 20.9668 177.131 21.2503 177.601 21.8174C178.071 22.3844 178.306 23.1546 178.306 24.1279V24.6357H173.335C173.344 25.5837 173.564 26.3073 173.996 26.8066C174.431 27.306 175.054 27.5557 175.862 27.5557C176.255 27.5557 176.6 27.5282 176.896 27.4731C177.197 27.4181 177.576 27.2996 178.033 27.1177V27.689C177.643 27.8582 177.284 27.9725 176.954 28.0317C176.624 28.0952 176.26 28.127 175.862 28.127ZM175.678 21.5254C175.013 21.5254 174.48 21.7454 174.078 22.1855C173.676 22.6214 173.441 23.252 173.374 24.0771H177.639C177.639 23.2773 177.466 22.6532 177.119 22.2046C176.772 21.7518 176.291 21.5254 175.678 21.5254Z" fill="black"/>
</svg>
