<svg width="197" height="75" viewBox="0 0 197 75" fill="none" xmlns="http://www.w3.org/2000/svg">
<path fill-rule="evenodd" clip-rule="evenodd" d="M41.6191 24.1297L45.2839 68.7064L68.7805 6.58398L41.6191 24.1297Z" fill="#999999"/>
<path fill-rule="evenodd" clip-rule="evenodd" d="M39.558 21.3013L14 18.0029L67.9792 6L39.558 21.3013Z" fill="#999999"/>
<path fill-rule="evenodd" clip-rule="evenodd" d="M38.4736 24.423L44.1426 68.9996L33.5109 28.6582L14.7861 19.29L38.4736 24.423Z" fill="#999999"/>
<path d="M67.9795 48.4293L78.4394 26.5898H80.6535L91.2279 48.4293H88.3457L85.4445 42.5742H73.6484L70.8235 48.4293H67.9795ZM74.87 39.998H84.2801L79.5655 30.2395L74.87 39.998Z" fill="#999999"/>
<path d="M103.634 26.5888C105.119 26.5204 106.602 26.7543 107.998 27.277C109.394 27.7996 110.674 28.6006 111.765 29.6334C112.793 30.6601 113.599 31.8957 114.132 33.2604C114.664 34.6252 114.911 36.0889 114.857 37.5573C114.91 39.0028 114.667 40.4437 114.145 41.7879C113.622 43.1321 112.831 44.3501 111.822 45.3641C109.58 47.4141 106.638 48.4798 103.634 48.3306H94.4717V26.5888H103.634ZM103.634 29.1065H97.1248V45.93H103.634C104.763 45.994 105.893 45.8267 106.959 45.4379C108.024 45.0492 109.003 44.4468 109.837 43.6661C110.606 42.8622 111.205 41.9049 111.595 40.8538C111.986 39.8027 112.161 38.6805 112.108 37.5573C112.155 36.4314 111.974 35.3079 111.576 34.2568C111.179 33.2057 110.574 32.2497 109.799 31.4485C108.979 30.6515 108.011 30.0316 106.951 29.6258C105.892 29.2201 104.764 29.0368 103.634 29.0869V29.1065Z" fill="#999999"/>
<path d="M119.399 48.4281V26.5886H131.654C133.429 26.4869 135.177 27.0643 136.559 28.2085C137.159 28.7738 137.629 29.4675 137.936 30.2402C138.242 31.0128 138.379 31.8452 138.334 32.6779C138.369 34.1621 137.872 35.6079 136.937 36.7437C136.002 37.8794 134.693 38.6268 133.257 38.8453L138.601 48.4476H135.662L130.317 38.8843H122.053V48.4476L119.399 48.4281ZM122.053 36.3276H131.482C132.574 36.4066 133.658 36.081 134.536 35.4103C134.893 35.0721 135.171 34.6562 135.349 34.1934C135.527 33.7306 135.602 33.2326 135.566 32.7365C135.594 32.2411 135.516 31.7456 135.338 31.284C135.16 30.8224 134.886 30.4058 134.536 30.0626C133.716 29.3771 132.672 29.0353 131.615 29.1063H122.072L122.053 36.3276Z" fill="#999999"/>
<path d="M143.188 48.4293V26.5898H159.984V29.1075H145.86V35.5091H154.411V38.0268H145.86V45.8335H160.882V48.3512L143.188 48.4293Z" fill="#999999"/>
<path d="M162.157 48.4293L170.861 37.4413L162.272 26.5898H165.517L172.579 35.3334L179.565 26.5898H182.772L174.163 37.3242L183.001 48.4293H179.546L172.445 39.5101L165.268 48.5074L162.157 48.4293Z" fill="#999999"/>
</svg>
