<svg width="284" height="14" viewBox="0 0 284 14" fill="none" xmlns="http://www.w3.org/2000/svg">
<path d="M6.73486 10H0.634766V9.09229L3.07861 6.63574C3.8234 5.88249 4.31429 5.34505 4.55127 5.02344C4.78825 4.70182 4.96598 4.38867 5.08447 4.08398C5.20296 3.7793 5.26221 3.45133 5.26221 3.1001C5.26221 2.60498 5.11198 2.21354 4.81152 1.92578C4.51107 1.63379 4.09424 1.48779 3.56104 1.48779C3.17594 1.48779 2.8099 1.55127 2.46289 1.67822C2.12012 1.80518 1.73714 2.03581 1.31396 2.37012L0.755371 1.65283C1.61019 0.941895 2.54118 0.586426 3.54834 0.586426C4.42008 0.586426 5.10352 0.81071 5.59863 1.25928C6.09375 1.70361 6.34131 2.30241 6.34131 3.05566C6.34131 3.64388 6.17627 4.22575 5.84619 4.80127C5.51611 5.37679 4.89827 6.10465 3.99268 6.98486L1.96143 8.97168V9.02246H6.73486V10ZM14.1743 10H8.07422V9.09229L10.5181 6.63574C11.2629 5.88249 11.7537 5.34505 11.9907 5.02344C12.2277 4.70182 12.4054 4.38867 12.5239 4.08398C12.6424 3.7793 12.7017 3.45133 12.7017 3.1001C12.7017 2.60498 12.5514 2.21354 12.251 1.92578C11.9505 1.63379 11.5337 1.48779 11.0005 1.48779C10.6154 1.48779 10.2493 1.55127 9.90234 1.67822C9.55957 1.80518 9.1766 2.03581 8.75342 2.37012L8.19482 1.65283C9.04964 0.941895 9.98063 0.586426 10.9878 0.586426C11.8595 0.586426 12.543 0.81071 13.0381 1.25928C13.5332 1.70361 13.7808 2.30241 13.7808 3.05566C13.7808 3.64388 13.6157 4.22575 13.2856 4.80127C12.9556 5.37679 12.3377 6.10465 11.4321 6.98486L9.40088 8.97168V9.02246H14.1743V10ZM21.6646 5.34717C21.6646 6.95101 21.4106 8.1486 20.9028 8.93994C20.3993 9.73128 19.627 10.127 18.5859 10.127C17.5872 10.127 16.8276 9.72282 16.3071 8.91455C15.7866 8.10205 15.5264 6.91292 15.5264 5.34717C15.5264 3.73063 15.7782 2.53092 16.2817 1.74805C16.7853 0.965169 17.5534 0.57373 18.5859 0.57373C19.5931 0.57373 20.3569 0.982096 20.8774 1.79883C21.4022 2.61556 21.6646 3.79834 21.6646 5.34717ZM16.5928 5.34717C16.5928 6.6971 16.7515 7.68099 17.0688 8.29883C17.3862 8.91243 17.8919 9.21924 18.5859 9.21924C19.2884 9.21924 19.7962 8.9082 20.1094 8.28613C20.4268 7.65983 20.5854 6.68018 20.5854 5.34717C20.5854 4.01416 20.4268 3.03874 20.1094 2.4209C19.7962 1.79883 19.2884 1.48779 18.5859 1.48779C17.8919 1.48779 17.3862 1.7946 17.0688 2.4082C16.7515 3.01758 16.5928 3.99723 16.5928 5.34717ZM29.104 5.34717C29.104 6.95101 28.8501 8.1486 28.3423 8.93994C27.8387 9.73128 27.0664 10.127 26.0254 10.127C25.0267 10.127 24.2671 9.72282 23.7466 8.91455C23.2261 8.10205 22.9658 6.91292 22.9658 5.34717C22.9658 3.73063 23.2176 2.53092 23.7212 1.74805C24.2248 0.965169 24.9928 0.57373 26.0254 0.57373C27.0326 0.57373 27.7964 0.982096 28.3169 1.79883C28.8416 2.61556 29.104 3.79834 29.104 5.34717ZM24.0322 5.34717C24.0322 6.6971 24.1909 7.68099 24.5083 8.29883C24.8257 8.91243 25.3314 9.21924 26.0254 9.21924C26.7279 9.21924 27.2357 8.9082 27.5488 8.28613C27.8662 7.65983 28.0249 6.68018 28.0249 5.34717C28.0249 4.01416 27.8662 3.03874 27.5488 2.4209C27.2357 1.79883 26.7279 1.48779 26.0254 1.48779C25.3314 1.48779 24.8257 1.7946 24.5083 2.4082C24.1909 3.01758 24.0322 3.99723 24.0322 5.34717ZM34.2964 10H33.2681V3.38574C33.2681 2.83561 33.285 2.3151 33.3188 1.82422C33.23 1.91309 33.1305 2.00618 33.0205 2.10352C32.9105 2.20085 32.4069 2.61344 31.5098 3.34131L30.9512 2.61768L33.4077 0.719727H34.2964V10ZM43.583 2.90332C43.583 3.49577 43.4159 3.98031 43.0815 4.35693C42.7515 4.73356 42.2817 4.98535 41.6724 5.1123V5.16309C42.4172 5.25618 42.9694 5.49316 43.3291 5.87402C43.6888 6.25488 43.8687 6.75423 43.8687 7.37207C43.8687 8.25651 43.5618 8.93783 42.9482 9.41602C42.3346 9.88997 41.4629 10.127 40.333 10.127C39.8421 10.127 39.3914 10.0889 38.981 10.0127C38.5747 9.94076 38.179 9.81169 37.7939 9.62549V8.62256C38.196 8.82145 38.6234 8.9738 39.0762 9.07959C39.5332 9.18115 39.9648 9.23193 40.3711 9.23193C41.9749 9.23193 42.7769 8.60352 42.7769 7.34668C42.7769 6.22103 41.8924 5.6582 40.1235 5.6582H39.2095V4.75049H40.1362C40.8599 4.75049 41.4333 4.5918 41.8564 4.27441C42.2796 3.9528 42.4912 3.50846 42.4912 2.94141C42.4912 2.48861 42.3346 2.13314 42.0215 1.875C41.7126 1.61686 41.2915 1.48779 40.7583 1.48779C40.3521 1.48779 39.9691 1.54281 39.6094 1.65283C39.2497 1.76286 38.8392 1.96598 38.3779 2.26221L37.8447 1.55127C38.2256 1.25081 38.6636 1.01595 39.1587 0.84668C39.658 0.673177 40.1828 0.586426 40.7329 0.586426C41.6343 0.586426 42.3346 0.793783 42.834 1.2085C43.3333 1.61898 43.583 2.18392 43.583 2.90332ZM46.8584 8.48926L46.9536 8.63525C46.8436 9.05843 46.6849 9.54932 46.4775 10.1079C46.2702 10.6707 46.0544 11.1934 45.8301 11.6758H45.0366C45.1509 11.2357 45.2757 10.6919 45.4111 10.0444C45.5508 9.39697 45.6481 8.87858 45.7031 8.48926H46.8584ZM56.5068 3.94434H53.3711V10H52.3174V3.04297H56.5068V3.94434ZM57.7383 9.32715C57.7383 9.04362 57.8018 8.82992 57.9287 8.68604C58.0599 8.53792 58.2461 8.46387 58.4873 8.46387C58.7327 8.46387 58.9232 8.53792 59.0586 8.68604C59.1982 8.82992 59.2681 9.04362 59.2681 9.32715C59.2681 9.60221 59.1982 9.8138 59.0586 9.96191C58.9189 10.11 58.7285 10.1841 58.4873 10.1841C58.2715 10.1841 58.0916 10.1185 57.9478 9.9873C57.8081 9.85189 57.7383 9.63184 57.7383 9.32715ZM68.999 10L65.8506 1.77344H65.7998C65.859 2.42513 65.8887 3.19954 65.8887 4.09668V10H64.8921V0.719727H66.5171L69.4561 8.375H69.5068L72.4712 0.719727H74.0835V10H73.0044V4.02051C73.0044 3.33496 73.034 2.59017 73.0933 1.78613H73.0425L69.8687 10H68.999ZM77.4668 3.04297V7.45459L77.4224 8.60986L77.4033 8.97168L81.1675 3.04297H82.4814V10H81.4976V5.74707L81.5166 4.90918L81.5483 4.08398L77.7905 10H76.4766V3.04297H77.4668ZM85.7695 3.04297V5.95654H89.667V3.04297H90.7207V10H89.667V6.86426H85.7695V10H84.7158V3.04297H85.7695ZM95.7354 10.127C94.7282 10.127 93.9474 9.81803 93.3931 9.2002C92.8429 8.57812 92.5679 7.70003 92.5679 6.56592C92.5679 5.40218 92.8472 4.50293 93.4058 3.86816C93.9686 3.2334 94.7684 2.91602 95.8052 2.91602C96.1395 2.91602 96.4738 2.95199 96.8081 3.02393C97.1424 3.09587 97.4048 3.1805 97.5952 3.27783L97.2715 4.17285C97.0387 4.07975 96.7848 4.00358 96.5098 3.94434C96.2347 3.88086 95.9914 3.84912 95.7798 3.84912C94.3664 3.84912 93.6597 4.75049 93.6597 6.55322C93.6597 7.40804 93.8311 8.06396 94.1738 8.521C94.5208 8.97803 95.0329 9.20654 95.71 9.20654C96.2897 9.20654 96.8843 9.08171 97.4937 8.83203V9.76514C97.0282 10.0063 96.4421 10.127 95.7354 10.127ZM103.207 3.04297H104.362L101.359 6.40088L104.609 10H103.378L100.204 6.47705V10H99.1504V3.04297H100.204V6.42627L103.207 3.04297ZM107.009 8.48926L107.104 8.63525C106.994 9.05843 106.835 9.54932 106.628 10.1079C106.421 10.6707 106.205 11.1934 105.98 11.6758H105.187C105.301 11.2357 105.426 10.6919 105.562 10.0444C105.701 9.39697 105.799 8.87858 105.854 8.48926H107.009ZM111.363 3.04297H112.493L114.017 7.01025C114.351 7.91585 114.558 8.56966 114.639 8.97168H114.689C114.744 8.75586 114.859 8.3877 115.032 7.86719C115.21 7.34245 115.785 5.73438 116.759 3.04297H117.889L114.899 10.9648C114.603 11.7477 114.256 12.3021 113.858 12.6279C113.464 12.958 112.98 13.123 112.404 13.123C112.083 13.123 111.765 13.0871 111.452 13.0151V12.1709C111.685 12.2217 111.945 12.2471 112.233 12.2471C112.957 12.2471 113.473 11.8408 113.782 11.0283L114.169 10.0381L111.363 3.04297ZM124.205 10H123.138V3.94434H121.05C120.936 5.45085 120.777 6.64632 120.574 7.53076C120.371 8.4152 120.106 9.06266 119.78 9.47314C119.459 9.88363 119.048 10.0889 118.549 10.0889C118.32 10.0889 118.138 10.0635 118.003 10.0127V9.23193C118.096 9.25732 118.202 9.27002 118.32 9.27002C118.807 9.27002 119.194 8.75586 119.482 7.72754C119.77 6.69922 119.988 5.1377 120.136 3.04297H124.205V10ZM126.293 9.32715C126.293 9.04362 126.356 8.82992 126.483 8.68604C126.615 8.53792 126.801 8.46387 127.042 8.46387C127.287 8.46387 127.478 8.53792 127.613 8.68604C127.753 8.82992 127.823 9.04362 127.823 9.32715C127.823 9.60221 127.753 9.8138 127.613 9.96191C127.474 10.11 127.283 10.1841 127.042 10.1841C126.826 10.1841 126.646 10.1185 126.502 9.9873C126.363 9.85189 126.293 9.63184 126.293 9.32715ZM140.048 10H138.969V1.67822H135.954L135.757 3.20166C135.499 5.22868 135.271 6.71191 135.072 7.65137C134.877 8.58659 134.619 9.23828 134.297 9.60645C133.976 9.97461 133.548 10.1545 133.015 10.146C132.702 10.146 132.421 10.0931 132.171 9.9873V9.07959C132.399 9.18962 132.639 9.24463 132.888 9.24463C133.112 9.24463 133.307 9.15365 133.472 8.97168C133.641 8.78548 133.79 8.46598 133.917 8.01318C134.048 7.55615 134.211 6.69287 134.405 5.42334C134.604 4.14958 134.822 2.58171 135.059 0.719727H140.048V10ZM146.72 10L146.51 9.00977H146.459C146.112 9.44564 145.765 9.74186 145.418 9.89844C145.076 10.0508 144.646 10.127 144.13 10.127C143.44 10.127 142.898 9.94922 142.505 9.59375C142.116 9.23828 141.921 8.73258 141.921 8.07666C141.921 6.67171 143.044 5.93538 145.292 5.86768L146.472 5.82959V5.39795C146.472 4.85205 146.354 4.45003 146.117 4.19189C145.884 3.92952 145.509 3.79834 144.993 3.79834C144.413 3.79834 143.757 3.97607 143.025 4.33154L142.702 3.52539C143.044 3.33919 143.419 3.1932 143.825 3.0874C144.236 2.98161 144.646 2.92871 145.057 2.92871C145.886 2.92871 146.5 3.11279 146.897 3.48096C147.299 3.84912 147.5 4.43945 147.5 5.25195V10H146.72ZM144.339 9.25732C144.995 9.25732 145.509 9.07747 145.882 8.71777C146.258 8.35807 146.447 7.85449 146.447 7.20703V6.57861L145.393 6.62305C144.555 6.65267 143.95 6.78385 143.578 7.0166C143.209 7.24512 143.025 7.6027 143.025 8.08936C143.025 8.47021 143.14 8.76009 143.368 8.95898C143.601 9.15788 143.925 9.25732 144.339 9.25732ZM151.004 5.93115C152.32 5.93115 152.979 5.56722 152.979 4.83936C152.979 4.15381 152.445 3.81104 151.379 3.81104C151.053 3.81104 150.757 3.84066 150.49 3.8999C150.224 3.95915 149.875 4.07764 149.443 4.25537L149.068 3.39844C149.788 3.07682 150.573 2.91602 151.423 2.91602C152.223 2.91602 152.854 3.08105 153.315 3.41113C153.776 3.73698 154.007 4.18343 154.007 4.75049C154.007 5.52913 153.573 6.03906 152.706 6.28027V6.33105C153.239 6.48763 153.628 6.71191 153.874 7.00391C154.119 7.29167 154.242 7.65348 154.242 8.08936C154.242 8.73258 153.981 9.23405 153.461 9.59375C152.945 9.94922 152.229 10.127 151.315 10.127C150.312 10.127 149.538 9.97673 148.992 9.67627V8.71143C149.767 9.07536 150.549 9.25732 151.341 9.25732C151.95 9.25732 152.409 9.15365 152.718 8.94629C153.031 8.7347 153.188 8.43213 153.188 8.03857C153.188 7.23031 152.53 6.82617 151.214 6.82617H150.249V5.93115H151.004ZM161.967 6.51514C161.967 7.64925 161.681 8.53581 161.11 9.1748C160.539 9.80957 159.749 10.127 158.742 10.127C158.12 10.127 157.568 9.98096 157.085 9.68896C156.603 9.39697 156.231 8.97803 155.968 8.43213C155.706 7.88623 155.575 7.24723 155.575 6.51514C155.575 5.38102 155.858 4.4987 156.425 3.86816C156.992 3.2334 157.779 2.91602 158.787 2.91602C159.76 2.91602 160.532 3.23975 161.104 3.88721C161.679 4.53467 161.967 5.41064 161.967 6.51514ZM156.667 6.51514C156.667 7.40381 156.844 8.08089 157.2 8.54639C157.555 9.01188 158.078 9.24463 158.768 9.24463C159.457 9.24463 159.98 9.014 160.335 8.55273C160.695 8.08724 160.875 7.40804 160.875 6.51514C160.875 5.6307 160.695 4.95996 160.335 4.50293C159.98 4.04167 159.453 3.81104 158.755 3.81104C158.065 3.81104 157.545 4.03743 157.193 4.49023C156.842 4.94303 156.667 5.618 156.667 6.51514ZM170.619 10H169.59V3.38574C169.59 2.83561 169.607 2.3151 169.641 1.82422C169.552 1.91309 169.453 2.00618 169.343 2.10352C169.233 2.20085 168.729 2.61344 167.832 3.34131L167.273 2.61768L169.73 0.719727H170.619V10ZM174.262 6.03271C174.262 4.20882 174.616 2.84619 175.322 1.94482C176.033 1.03923 177.083 0.586426 178.471 0.586426C178.949 0.586426 179.326 0.626628 179.601 0.707031V1.61475C179.275 1.50895 178.902 1.45605 178.483 1.45605C177.489 1.45605 176.729 1.76709 176.205 2.38916C175.68 3.007 175.392 3.98031 175.341 5.30908H175.417C175.883 4.58122 176.619 4.21729 177.626 4.21729C178.46 4.21729 179.116 4.46908 179.594 4.97266C180.077 5.47624 180.318 6.15967 180.318 7.02295C180.318 7.98779 180.053 8.7474 179.524 9.30176C179 9.85189 178.289 10.127 177.392 10.127C176.431 10.127 175.669 9.76725 175.106 9.04785C174.544 8.32422 174.262 7.31917 174.262 6.03271ZM177.379 9.23193C177.98 9.23193 178.445 9.04362 178.775 8.66699C179.11 8.28613 179.277 7.73812 179.277 7.02295C179.277 6.40934 179.122 5.92692 178.813 5.57568C178.505 5.22445 178.043 5.04883 177.43 5.04883C177.049 5.04883 176.7 5.12712 176.382 5.28369C176.065 5.44027 175.811 5.65609 175.621 5.93115C175.434 6.20622 175.341 6.49186 175.341 6.78809C175.341 7.22396 175.426 7.63021 175.595 8.00684C175.764 8.38346 176.004 8.6818 176.312 8.90186C176.626 9.12191 176.981 9.23193 177.379 9.23193ZM183.181 8.48926L183.276 8.63525C183.166 9.05843 183.007 9.54932 182.8 10.1079C182.592 10.6707 182.377 11.1934 182.152 11.6758H181.359C181.473 11.2357 181.598 10.6919 181.733 10.0444C181.873 9.39697 181.97 8.87858 182.025 8.48926H183.181ZM193.908 2.90332C193.908 3.49577 193.741 3.98031 193.407 4.35693C193.077 4.73356 192.607 4.98535 191.998 5.1123V5.16309C192.742 5.25618 193.295 5.49316 193.654 5.87402C194.014 6.25488 194.194 6.75423 194.194 7.37207C194.194 8.25651 193.887 8.93783 193.273 9.41602C192.66 9.88997 191.788 10.127 190.658 10.127C190.167 10.127 189.717 10.0889 189.306 10.0127C188.9 9.94076 188.504 9.81169 188.119 9.62549V8.62256C188.521 8.82145 188.949 8.9738 189.401 9.07959C189.858 9.18115 190.29 9.23193 190.696 9.23193C192.3 9.23193 193.102 8.60352 193.102 7.34668C193.102 6.22103 192.218 5.6582 190.449 5.6582H189.535V4.75049H190.461C191.185 4.75049 191.758 4.5918 192.182 4.27441C192.605 3.9528 192.816 3.50846 192.816 2.94141C192.816 2.48861 192.66 2.13314 192.347 1.875C192.038 1.61686 191.617 1.48779 191.083 1.48779C190.677 1.48779 190.294 1.54281 189.935 1.65283C189.575 1.76286 189.164 1.96598 188.703 2.26221L188.17 1.55127C188.551 1.25081 188.989 1.01595 189.484 0.84668C189.983 0.673177 190.508 0.586426 191.058 0.586426C191.959 0.586426 192.66 0.793783 193.159 1.2085C193.659 1.61898 193.908 2.18392 193.908 2.90332ZM200.51 10.127C199.803 10.127 199.2 10.0063 198.701 9.76514V8.83203C198.955 8.92936 199.23 9.01611 199.526 9.09229C199.822 9.16846 200.163 9.20654 200.548 9.20654C201.284 9.20654 201.851 9.00977 202.249 8.61621C202.651 8.22266 202.873 7.63444 202.916 6.85156H199.393V5.95654H202.903C202.835 5.22868 202.621 4.69548 202.262 4.35693C201.906 4.01839 201.388 3.84912 200.707 3.84912C200.271 3.84912 199.733 3.96338 199.094 4.19189L198.796 3.30322C199.029 3.1932 199.319 3.10221 199.666 3.03027C200.013 2.9541 200.355 2.91602 200.694 2.91602C201.777 2.91602 202.6 3.22705 203.163 3.84912C203.726 4.46696 204.007 5.35986 204.007 6.52783C204.007 7.66618 203.701 8.55062 203.087 9.18115C202.478 9.81169 201.618 10.127 200.51 10.127ZM210.545 3.94434H208.286V10H207.232V3.94434H204.998V3.04297H210.545V3.94434ZM216.201 10L215.992 9.00977H215.941C215.594 9.44564 215.247 9.74186 214.9 9.89844C214.557 10.0508 214.128 10.127 213.611 10.127C212.922 10.127 212.38 9.94922 211.986 9.59375C211.597 9.23828 211.402 8.73258 211.402 8.07666C211.402 6.67171 212.526 5.93538 214.773 5.86768L215.954 5.82959V5.39795C215.954 4.85205 215.835 4.45003 215.598 4.19189C215.365 3.92952 214.991 3.79834 214.475 3.79834C213.895 3.79834 213.239 3.97607 212.507 4.33154L212.183 3.52539C212.526 3.33919 212.9 3.1932 213.307 3.0874C213.717 2.98161 214.128 2.92871 214.538 2.92871C215.368 2.92871 215.981 3.11279 216.379 3.48096C216.781 3.84912 216.982 4.43945 216.982 5.25195V10H216.201ZM213.821 9.25732C214.477 9.25732 214.991 9.07747 215.363 8.71777C215.74 8.35807 215.928 7.85449 215.928 7.20703V6.57861L214.875 6.62305C214.037 6.65267 213.431 6.78385 213.059 7.0166C212.691 7.24512 212.507 7.6027 212.507 8.08936C212.507 8.47021 212.621 8.76009 212.85 8.95898C213.082 9.15788 213.406 9.25732 213.821 9.25732ZM222.333 3.05566H223.304V6.42627L226.18 3.05566H227.335L224.428 6.42627L227.583 10H226.364L223.304 6.47705V10H222.333V6.47705L219.28 10H218.067L221.216 6.42627L218.315 3.05566H219.47L222.333 6.42627V3.05566ZM229.836 8.48926L229.931 8.63525C229.821 9.05843 229.662 9.54932 229.455 10.1079C229.248 10.6707 229.032 11.1934 228.808 11.6758H228.014C228.128 11.2357 228.253 10.6919 228.389 10.0444C228.528 9.39697 228.626 8.87858 228.681 8.48926H229.836ZM241.3 6.51514C241.3 7.64925 241.014 8.53581 240.443 9.1748C239.872 9.80957 239.082 10.127 238.075 10.127C237.453 10.127 236.901 9.98096 236.418 9.68896C235.936 9.39697 235.564 8.97803 235.301 8.43213C235.039 7.88623 234.908 7.24723 234.908 6.51514C234.908 5.38102 235.191 4.4987 235.758 3.86816C236.325 3.2334 237.112 2.91602 238.12 2.91602C239.093 2.91602 239.865 3.23975 240.437 3.88721C241.012 4.53467 241.3 5.41064 241.3 6.51514ZM236 6.51514C236 7.40381 236.177 8.08089 236.533 8.54639C236.888 9.01188 237.411 9.24463 238.101 9.24463C238.79 9.24463 239.313 9.014 239.668 8.55273C240.028 8.08724 240.208 7.40804 240.208 6.51514C240.208 5.6307 240.028 4.95996 239.668 4.50293C239.313 4.04167 238.786 3.81104 238.088 3.81104C237.398 3.81104 236.878 4.03743 236.526 4.49023C236.175 4.94303 236 5.618 236 6.51514ZM250.605 6.51514C250.605 7.56885 250.305 8.40885 249.704 9.03516C249.107 9.65723 248.272 10.0127 247.197 10.1016V13.123H246.156V10.1016C245.106 10.0212 244.277 9.66146 243.667 9.02246C243.058 8.38346 242.753 7.54769 242.753 6.51514C242.753 5.46143 243.056 4.62354 243.661 4.00146C244.271 3.37939 245.115 3.02604 246.194 2.94141V0.123047H247.197V2.94141C248.259 3.03874 249.093 3.40479 249.698 4.03955C250.303 4.67432 250.605 5.49951 250.605 6.51514ZM243.858 6.51514C243.858 7.32764 244.044 7.96452 244.417 8.42578C244.789 8.88704 245.381 9.15576 246.194 9.23193V3.82373C245.411 3.89567 244.825 4.15169 244.436 4.5918C244.05 5.02767 243.858 5.66878 243.858 6.51514ZM249.514 6.51514C249.514 4.89437 248.741 4.00146 247.197 3.83643V9.23193C248.001 9.15153 248.587 8.8807 248.955 8.41943C249.327 7.95817 249.514 7.3234 249.514 6.51514ZM253.437 3.04297V7.45459L253.392 8.60986L253.373 8.97168L257.137 3.04297H258.451V10H257.467V5.74707L257.486 4.90918L257.518 4.08398L253.76 10H252.446V3.04297H253.437ZM263.466 10.127C262.459 10.127 261.678 9.81803 261.124 9.2002C260.573 8.57812 260.298 7.70003 260.298 6.56592C260.298 5.40218 260.578 4.50293 261.136 3.86816C261.699 3.2334 262.499 2.91602 263.536 2.91602C263.87 2.91602 264.204 2.95199 264.539 3.02393C264.873 3.09587 265.135 3.1805 265.326 3.27783L265.002 4.17285C264.769 4.07975 264.515 4.00358 264.24 3.94434C263.965 3.88086 263.722 3.84912 263.51 3.84912C262.097 3.84912 261.39 4.75049 261.39 6.55322C261.39 7.40804 261.562 8.06396 261.904 8.521C262.251 8.97803 262.763 9.20654 263.44 9.20654C264.02 9.20654 264.615 9.08171 265.224 8.83203V9.76514C264.759 10.0063 264.173 10.127 263.466 10.127ZM276.313 7.86719H274.936V10H273.927V7.86719H269.414V6.94678L273.819 0.668945H274.936V6.90869H276.313V7.86719ZM273.927 6.90869V3.82373C273.927 3.21859 273.948 2.53516 273.99 1.77344H273.939C273.736 2.17969 273.546 2.51611 273.368 2.78271L270.467 6.90869H273.927ZM283.753 7.86719H282.375V10H281.366V7.86719H276.853V6.94678L281.258 0.668945H282.375V6.90869H283.753V7.86719ZM281.366 6.90869V3.82373C281.366 3.21859 281.387 2.53516 281.43 1.77344H281.379C281.176 2.17969 280.985 2.51611 280.808 2.78271L277.907 6.90869H281.366Z" fill="#666666"/>
</svg>
