<svg width="258" height="53" viewBox="0 0 258 53" fill="none" xmlns="http://www.w3.org/2000/svg">
<path d="M7.5791 11H6.88184V1.66211H1.1123V11H0.415039V1.00586H7.5791V11ZM16.3838 7.27441C16.3838 8.48665 16.0898 9.43457 15.502 10.1182C14.9141 10.7972 14.1029 11.1367 13.0684 11.1367C12.4167 11.1367 11.8424 10.9795 11.3457 10.665C10.849 10.3506 10.4684 9.89941 10.2041 9.31152C9.93978 8.72363 9.80762 8.0446 9.80762 7.27441C9.80762 6.06217 10.1016 5.11882 10.6895 4.44434C11.2773 3.7653 12.084 3.42578 13.1094 3.42578C14.1302 3.42578 14.93 3.76986 15.5088 4.45801C16.0921 5.1416 16.3838 6.0804 16.3838 7.27441ZM10.5186 7.27441C10.5186 8.29525 10.7419 9.09277 11.1885 9.66699C11.6396 10.2367 12.2754 10.5215 13.0957 10.5215C13.916 10.5215 14.5495 10.2367 14.9961 9.66699C15.4473 9.09277 15.6729 8.29525 15.6729 7.27441C15.6729 6.24902 15.445 5.45378 14.9893 4.88867C14.5381 4.32357 13.9023 4.04102 13.082 4.04102C12.2617 4.04102 11.6283 4.32357 11.1816 4.88867C10.7396 5.44922 10.5186 6.24447 10.5186 7.27441ZM21.4082 11.1367C20.3464 11.1367 19.5146 10.8018 18.9131 10.1318C18.3115 9.46191 18.0107 8.52767 18.0107 7.3291C18.0107 6.09863 18.3229 5.1416 18.9473 4.45801C19.5716 3.76986 20.4261 3.42578 21.5107 3.42578C22.1533 3.42578 22.7686 3.53743 23.3564 3.76074L23.1719 4.3623C22.5293 4.14811 21.971 4.04102 21.4971 4.04102C20.5856 4.04102 19.8952 4.32357 19.4258 4.88867C18.9564 5.44922 18.7217 6.25814 18.7217 7.31543C18.7217 8.31803 18.9564 9.10417 19.4258 9.67383C19.8952 10.2389 20.5514 10.5215 21.3945 10.5215C22.069 10.5215 22.6956 10.4007 23.2744 10.1592V10.7881C22.8005 11.0205 22.1784 11.1367 21.4082 11.1367ZM30.2402 11H29.5703V4.19824H26.9385C26.8018 5.99837 26.6331 7.3724 26.4326 8.32031C26.2367 9.26367 25.9814 9.95866 25.667 10.4053C25.3571 10.8473 24.9538 11.0684 24.457 11.0684C24.2793 11.0684 24.1243 11.0501 23.9922 11.0137V10.3984C24.0788 10.4258 24.2018 10.4395 24.3613 10.4395C24.8763 10.4395 25.291 9.89714 25.6055 8.8125C25.9245 7.72331 26.166 5.97559 26.3301 3.56934H30.2402V11ZM35.7295 11.1367C34.6494 11.1367 33.8063 10.804 33.2002 10.1387C32.5986 9.47331 32.2979 8.54134 32.2979 7.34277C32.2979 6.15788 32.5895 5.20996 33.1729 4.49902C33.7562 3.78353 34.5423 3.42578 35.5312 3.42578C36.4062 3.42578 37.0967 3.73112 37.6025 4.3418C38.1084 4.95247 38.3613 5.7819 38.3613 6.83008V7.37695H33.0088C33.0179 8.39779 33.2549 9.17708 33.7197 9.71484C34.1891 10.2526 34.859 10.5215 35.7295 10.5215C36.1533 10.5215 36.5247 10.4919 36.8438 10.4326C37.1673 10.3734 37.5752 10.2458 38.0674 10.0498V10.665C37.6481 10.8473 37.2607 10.9704 36.9053 11.0342C36.5498 11.1025 36.1579 11.1367 35.7295 11.1367ZM35.5312 4.02734C34.8158 4.02734 34.2415 4.26432 33.8086 4.73828C33.3757 5.20768 33.1227 5.88672 33.0498 6.77539H37.6436C37.6436 5.91406 37.4567 5.24186 37.083 4.75879C36.7093 4.27116 36.1921 4.02734 35.5312 4.02734ZM47.0156 11.1367C45.9538 11.1367 45.1221 10.8018 44.5205 10.1318C43.9189 9.46191 43.6182 8.52767 43.6182 7.3291C43.6182 6.09863 43.9303 5.1416 44.5547 4.45801C45.179 3.76986 46.0335 3.42578 47.1182 3.42578C47.7607 3.42578 48.376 3.53743 48.9639 3.76074L48.7793 4.3623C48.1367 4.14811 47.5785 4.04102 47.1045 4.04102C46.193 4.04102 45.5026 4.32357 45.0332 4.88867C44.5638 5.44922 44.3291 6.25814 44.3291 7.31543C44.3291 8.31803 44.5638 9.10417 45.0332 9.67383C45.5026 10.2389 46.1589 10.5215 47.002 10.5215C47.6764 10.5215 48.3031 10.4007 48.8818 10.1592V10.7881C48.4079 11.0205 47.7858 11.1367 47.0156 11.1367ZM56.8525 7.27441C56.8525 8.48665 56.5586 9.43457 55.9707 10.1182C55.3828 10.7972 54.5716 11.1367 53.5371 11.1367C52.8854 11.1367 52.3112 10.9795 51.8145 10.665C51.3177 10.3506 50.9372 9.89941 50.6729 9.31152C50.4085 8.72363 50.2764 8.0446 50.2764 7.27441C50.2764 6.06217 50.5703 5.11882 51.1582 4.44434C51.7461 3.7653 52.5527 3.42578 53.5781 3.42578C54.599 3.42578 55.3988 3.76986 55.9775 4.45801C56.5609 5.1416 56.8525 6.0804 56.8525 7.27441ZM50.9873 7.27441C50.9873 8.29525 51.2106 9.09277 51.6572 9.66699C52.1084 10.2367 52.7441 10.5215 53.5645 10.5215C54.3848 10.5215 55.0182 10.2367 55.4648 9.66699C55.916 9.09277 56.1416 8.29525 56.1416 7.27441C56.1416 6.24902 55.9137 5.45378 55.458 4.88867C55.0068 4.32357 54.3711 4.04102 53.5508 4.04102C52.7305 4.04102 52.097 4.32357 51.6504 4.88867C51.2083 5.44922 50.9873 6.24447 50.9873 7.27441ZM60.3115 6.77539C61.6559 6.77539 62.3281 6.31283 62.3281 5.3877C62.3281 4.94564 62.1732 4.6084 61.8633 4.37598C61.5534 4.14355 61.1113 4.02734 60.5371 4.02734C60.1725 4.02734 59.833 4.07064 59.5186 4.15723C59.2041 4.23926 58.8669 4.36003 58.5068 4.51953L58.2539 3.95898C59.0469 3.60352 59.8171 3.42578 60.5645 3.42578C61.3757 3.42578 61.9909 3.5944 62.4102 3.93164C62.8294 4.26888 63.0391 4.736 63.0391 5.33301C63.0391 6.19434 62.597 6.74349 61.7129 6.98047V7.02148C62.2643 7.1582 62.6654 7.38607 62.916 7.70508C63.1667 8.01953 63.292 8.42285 63.292 8.91504C63.292 9.60319 63.0391 10.1455 62.5332 10.542C62.0319 10.9385 61.3346 11.1367 60.4414 11.1367C59.9583 11.1367 59.5163 11.0911 59.1152 11C58.7188 10.9043 58.3906 10.779 58.1309 10.624V9.94727C58.6003 10.1706 59.0059 10.3232 59.3477 10.4053C59.6895 10.4827 60.054 10.5215 60.4414 10.5215C61.1159 10.5215 61.64 10.3802 62.0137 10.0977C62.3919 9.81055 62.5811 9.40267 62.5811 8.87402C62.5811 8.35905 62.401 7.97852 62.041 7.73242C61.681 7.48633 61.141 7.36328 60.4209 7.36328H59.3887V6.77539H60.3115ZM71.3037 13.5225H70.6338V11H64.9463V13.5225H64.2764V10.3574H64.7686C65.3883 9.48698 65.8669 8.47754 66.2041 7.3291C66.5413 6.18066 66.7191 4.92741 66.7373 3.56934H70.3125V10.3574H71.3037V13.5225ZM69.6357 10.3574V4.19824H67.3252C67.2158 6.66374 66.6188 8.7168 65.5342 10.3574H69.6357ZM77.3945 11L77.2236 9.82422H77.1689C76.7952 10.3027 76.4102 10.6423 76.0137 10.8428C75.6217 11.0387 75.1569 11.1367 74.6191 11.1367C73.89 11.1367 73.3226 10.9499 72.917 10.5762C72.5114 10.2025 72.3086 9.68522 72.3086 9.02441C72.3086 8.2998 72.6094 7.73698 73.2109 7.33594C73.8171 6.9349 74.6921 6.72298 75.8359 6.7002L77.251 6.65918V6.16699C77.251 5.46061 77.1074 4.92741 76.8203 4.56738C76.5332 4.20736 76.0706 4.02734 75.4326 4.02734C74.7445 4.02734 74.0312 4.21875 73.293 4.60156L73.04 4.01367C73.8558 3.63086 74.6624 3.43945 75.46 3.43945C76.2757 3.43945 76.8841 3.65137 77.2852 4.0752C77.6908 4.49902 77.8936 5.15983 77.8936 6.05762V11H77.3945ZM74.6602 10.5215C75.4531 10.5215 76.0775 10.2959 76.5332 9.84473C76.9935 9.389 77.2236 8.75781 77.2236 7.95117V7.21973L75.9248 7.27441C74.8812 7.32454 74.1361 7.48861 73.6895 7.7666C73.2474 8.04004 73.0264 8.46842 73.0264 9.05176C73.0264 9.5166 73.1676 9.87891 73.4502 10.1387C73.7373 10.3939 74.1406 10.5215 74.6602 10.5215ZM80.9834 3.56934V6.83008H85.7002V3.56934H86.3701V11H85.7002V7.41797H80.9834V11H80.3066V3.56934H80.9834ZM89.5078 3.56934V8.94238L89.4668 10.3438L93.876 3.56934H94.7783V11H94.1289V5.66113L94.1562 4.22559L89.7471 11H88.8652V3.56934H89.5078ZM97.1641 11H96.3096L98.5518 7.79395C97.8682 7.66634 97.3737 7.42936 97.0684 7.08301C96.7676 6.73665 96.6172 6.29232 96.6172 5.75C96.6172 5.07552 96.8428 4.5446 97.2939 4.15723C97.7497 3.7653 98.3604 3.56934 99.126 3.56934H102.188V11H101.519V7.87598H99.249L97.1641 11ZM97.3281 5.72266C97.3281 6.23307 97.4922 6.61361 97.8203 6.86426C98.153 7.11035 98.652 7.2334 99.3174 7.2334H101.519V4.21191H99.1123C98.5472 4.21191 98.1074 4.3418 97.793 4.60156C97.4831 4.85677 97.3281 5.23047 97.3281 5.72266ZM111.287 11.1367C110.225 11.1367 109.394 10.8018 108.792 10.1318C108.19 9.46191 107.89 8.52767 107.89 7.3291C107.89 6.09863 108.202 5.1416 108.826 4.45801C109.451 3.76986 110.305 3.42578 111.39 3.42578C112.032 3.42578 112.647 3.53743 113.235 3.76074L113.051 4.3623C112.408 4.14811 111.85 4.04102 111.376 4.04102C110.465 4.04102 109.774 4.32357 109.305 4.88867C108.835 5.44922 108.601 6.25814 108.601 7.31543C108.601 8.31803 108.835 9.10417 109.305 9.67383C109.774 10.2389 110.43 10.5215 111.273 10.5215C111.948 10.5215 112.575 10.4007 113.153 10.1592V10.7881C112.679 11.0205 112.057 11.1367 111.287 11.1367ZM119.49 11L119.319 9.82422H119.265C118.891 10.3027 118.506 10.6423 118.109 10.8428C117.717 11.0387 117.253 11.1367 116.715 11.1367C115.986 11.1367 115.418 10.9499 115.013 10.5762C114.607 10.2025 114.404 9.68522 114.404 9.02441C114.404 8.2998 114.705 7.73698 115.307 7.33594C115.913 6.9349 116.788 6.72298 117.932 6.7002L119.347 6.65918V6.16699C119.347 5.46061 119.203 4.92741 118.916 4.56738C118.629 4.20736 118.166 4.02734 117.528 4.02734C116.84 4.02734 116.127 4.21875 115.389 4.60156L115.136 4.01367C115.951 3.63086 116.758 3.43945 117.556 3.43945C118.371 3.43945 118.98 3.65137 119.381 4.0752C119.786 4.49902 119.989 5.15983 119.989 6.05762V11H119.49ZM116.756 10.5215C117.549 10.5215 118.173 10.2959 118.629 9.84473C119.089 9.389 119.319 8.75781 119.319 7.95117V7.21973L118.021 7.27441C116.977 7.32454 116.232 7.48861 115.785 7.7666C115.343 8.04004 115.122 8.46842 115.122 9.05176C115.122 9.5166 115.263 9.87891 115.546 10.1387C115.833 10.3939 116.236 10.5215 116.756 10.5215ZM123.045 3.56934V8.94238L123.004 10.3438L127.413 3.56934H128.315V11H127.666V5.66113L127.693 4.22559L123.284 11H122.402V3.56934H123.045ZM125.362 2.5166C124.683 2.5166 124.166 2.36621 123.811 2.06543C123.455 1.76009 123.248 1.27018 123.188 0.595703H123.79C123.858 1.09701 124.013 1.45247 124.255 1.66211C124.496 1.86719 124.87 1.96973 125.376 1.96973C125.877 1.96973 126.249 1.86263 126.49 1.64844C126.736 1.43424 126.887 1.08333 126.941 0.595703H127.543C127.447 1.8763 126.72 2.5166 125.362 2.5166ZM135.527 4.15723H133.053V11H132.383V4.15723H129.847V3.56934H135.527V4.15723ZM141.57 11L141.399 9.82422H141.345C140.971 10.3027 140.586 10.6423 140.189 10.8428C139.798 11.0387 139.333 11.1367 138.795 11.1367C138.066 11.1367 137.498 10.9499 137.093 10.5762C136.687 10.2025 136.484 9.68522 136.484 9.02441C136.484 8.2998 136.785 7.73698 137.387 7.33594C137.993 6.9349 138.868 6.72298 140.012 6.7002L141.427 6.65918V6.16699C141.427 5.46061 141.283 4.92741 140.996 4.56738C140.709 4.20736 140.246 4.02734 139.608 4.02734C138.92 4.02734 138.207 4.21875 137.469 4.60156L137.216 4.01367C138.032 3.63086 138.838 3.43945 139.636 3.43945C140.451 3.43945 141.06 3.65137 141.461 4.0752C141.867 4.49902 142.069 5.15983 142.069 6.05762V11H141.57ZM138.836 10.5215C139.629 10.5215 140.253 10.2959 140.709 9.84473C141.169 9.389 141.399 8.75781 141.399 7.95117V7.21973L140.101 7.27441C139.057 7.32454 138.312 7.48861 137.865 7.7666C137.423 8.04004 137.202 8.46842 137.202 9.05176C137.202 9.5166 137.343 9.87891 137.626 10.1387C137.913 10.3939 138.316 10.5215 138.836 10.5215ZM148.796 11H148.119V3.56934H154.046V11H153.369V4.21191H148.796V11ZM159.72 11.1367C158.576 11.1367 157.742 10.7083 157.218 9.85156H157.17L157.19 10.4258C157.209 10.763 157.218 11.1322 157.218 11.5332V14.3633H156.541V3.56934H157.115L157.245 4.62891H157.286C157.797 3.82682 158.612 3.42578 159.733 3.42578C160.736 3.42578 161.499 3.75618 162.023 4.41699C162.552 5.07324 162.816 6.03027 162.816 7.28809C162.816 8.50944 162.538 9.45736 161.982 10.1318C161.431 10.8018 160.677 11.1367 159.72 11.1367ZM159.706 10.5352C160.467 10.5352 161.055 10.2526 161.47 9.6875C161.889 9.1224 162.099 8.33171 162.099 7.31543C162.099 5.13249 161.31 4.04102 159.733 4.04102C158.868 4.04102 158.232 4.28027 157.826 4.75879C157.421 5.23275 157.218 6.00749 157.218 7.08301V7.30176C157.218 8.46387 157.411 9.29329 157.799 9.79004C158.191 10.2868 158.826 10.5352 159.706 10.5352ZM171.026 7.27441C171.026 8.48665 170.732 9.43457 170.145 10.1182C169.557 10.7972 168.745 11.1367 167.711 11.1367C167.059 11.1367 166.485 10.9795 165.988 10.665C165.492 10.3506 165.111 9.89941 164.847 9.31152C164.582 8.72363 164.45 8.0446 164.45 7.27441C164.45 6.06217 164.744 5.11882 165.332 4.44434C165.92 3.7653 166.727 3.42578 167.752 3.42578C168.773 3.42578 169.573 3.76986 170.151 4.45801C170.735 5.1416 171.026 6.0804 171.026 7.27441ZM165.161 7.27441C165.161 8.29525 165.384 9.09277 165.831 9.66699C166.282 10.2367 166.918 10.5215 167.738 10.5215C168.559 10.5215 169.192 10.2367 169.639 9.66699C170.09 9.09277 170.315 8.29525 170.315 7.27441C170.315 6.24902 170.088 5.45378 169.632 4.88867C169.181 4.32357 168.545 4.04102 167.725 4.04102C166.904 4.04102 166.271 4.32357 165.824 4.88867C165.382 5.44922 165.161 6.24447 165.161 7.27441ZM179.147 13.5225H178.478V11H172.79V13.5225H172.12V10.3574H172.612C173.232 9.48698 173.711 8.47754 174.048 7.3291C174.385 6.18066 174.563 4.92741 174.581 3.56934H178.156V10.3574H179.147V13.5225ZM177.479 10.3574V4.19824H175.169C175.06 6.66374 174.463 8.7168 173.378 10.3574H177.479ZM186.428 5.36035C186.428 5.82975 186.312 6.19889 186.079 6.46777C185.847 6.7321 185.468 6.91667 184.944 7.02148V7.06934C185.541 7.1377 185.972 7.31087 186.236 7.58887C186.505 7.8623 186.64 8.25651 186.64 8.77148C186.64 9.48698 186.403 10.0384 185.929 10.4258C185.459 10.8086 184.771 11 183.864 11H180.727V3.56934H183.878C184.726 3.56934 185.361 3.72201 185.785 4.02734C186.214 4.33268 186.428 4.77702 186.428 5.36035ZM185.922 8.75781C185.922 7.84635 185.222 7.39062 183.823 7.39062H181.403V10.3574H183.919C185.254 10.3574 185.922 9.82422 185.922 8.75781ZM185.71 5.41504C185.71 4.9821 185.555 4.67448 185.245 4.49219C184.935 4.30534 184.47 4.21191 183.851 4.21191H181.403V6.75488H183.769C184.461 6.75488 184.958 6.64779 185.259 6.43359C185.56 6.2194 185.71 5.87988 185.71 5.41504ZM189.299 3.56934V8.94238L189.258 10.3438L193.667 3.56934H194.569V11H193.92V5.66113L193.947 4.22559L189.538 11H188.656V3.56934H189.299ZM197.741 3.56934V6.83008H202.458V3.56934H203.128V11H202.458V7.41797H197.741V11H197.064V3.56934H197.741ZM208.624 11.1367C207.544 11.1367 206.701 10.804 206.095 10.1387C205.493 9.47331 205.192 8.54134 205.192 7.34277C205.192 6.15788 205.484 5.20996 206.067 4.49902C206.651 3.78353 207.437 3.42578 208.426 3.42578C209.301 3.42578 209.991 3.73112 210.497 4.3418C211.003 4.95247 211.256 5.7819 211.256 6.83008V7.37695H205.903C205.912 8.39779 206.149 9.17708 206.614 9.71484C207.084 10.2526 207.754 10.5215 208.624 10.5215C209.048 10.5215 209.419 10.4919 209.738 10.4326C210.062 10.3734 210.47 10.2458 210.962 10.0498V10.665C210.543 10.8473 210.155 10.9704 209.8 11.0342C209.444 11.1025 209.052 11.1367 208.624 11.1367ZM208.426 4.02734C207.71 4.02734 207.136 4.26432 206.703 4.73828C206.27 5.20768 206.017 5.88672 205.944 6.77539H210.538C210.538 5.91406 210.351 5.24186 209.978 4.75879C209.604 4.27116 209.087 4.02734 208.426 4.02734ZM216.766 10.2754L217.189 9.0791L219.329 3.56934H220.266V11H219.623V4.38965C219.523 4.67676 219.416 4.9707 219.302 5.27148C219.192 5.57227 218.45 7.48177 217.073 11H216.472L214.414 5.77734C214.327 5.56771 214.245 5.34668 214.168 5.11426C214.095 4.88184 214.013 4.63118 213.922 4.3623V11H213.307V3.56934H214.202L216.349 9.03809C216.517 9.48014 216.656 9.89258 216.766 10.2754ZM229.392 11.1367C228.312 11.1367 227.468 10.804 226.862 10.1387C226.261 9.47331 225.96 8.54134 225.96 7.34277C225.96 6.15788 226.252 5.20996 226.835 4.49902C227.418 3.78353 228.204 3.42578 229.193 3.42578C230.068 3.42578 230.759 3.73112 231.265 4.3418C231.771 4.95247 232.023 5.7819 232.023 6.83008V7.37695H226.671C226.68 8.39779 226.917 9.17708 227.382 9.71484C227.851 10.2526 228.521 10.5215 229.392 10.5215C229.815 10.5215 230.187 10.4919 230.506 10.4326C230.829 10.3734 231.237 10.2458 231.729 10.0498V10.665C231.31 10.8473 230.923 10.9704 230.567 11.0342C230.212 11.1025 229.82 11.1367 229.392 11.1367ZM229.193 4.02734C228.478 4.02734 227.904 4.26432 227.471 4.73828C227.038 5.20768 226.785 5.88672 226.712 6.77539H231.306C231.306 5.91406 231.119 5.24186 230.745 4.75879C230.371 4.27116 229.854 4.02734 229.193 4.02734ZM238.442 4.15723H234.751V11H234.074V3.56934H238.442V4.15723ZM246.112 7.27441C246.112 8.48665 245.818 9.43457 245.23 10.1182C244.643 10.7972 243.831 11.1367 242.797 11.1367C242.145 11.1367 241.571 10.9795 241.074 10.665C240.577 10.3506 240.197 9.89941 239.933 9.31152C239.668 8.72363 239.536 8.0446 239.536 7.27441C239.536 6.06217 239.83 5.11882 240.418 4.44434C241.006 3.7653 241.812 3.42578 242.838 3.42578C243.859 3.42578 244.659 3.76986 245.237 4.45801C245.821 5.1416 246.112 6.0804 246.112 7.27441ZM240.247 7.27441C240.247 8.29525 240.47 9.09277 240.917 9.66699C241.368 10.2367 242.004 10.5215 242.824 10.5215C243.645 10.5215 244.278 10.2367 244.725 9.66699C245.176 9.09277 245.401 8.29525 245.401 7.27441C245.401 6.24902 245.174 5.45378 244.718 4.88867C244.267 4.32357 243.631 4.04102 242.811 4.04102C241.99 4.04102 241.357 4.32357 240.91 4.88867C240.468 5.44922 240.247 6.24447 240.247 7.27441ZM257.508 5.36035C257.508 5.82975 257.392 6.19889 257.159 6.46777C256.927 6.7321 256.549 6.91667 256.024 7.02148V7.06934C256.621 7.1377 257.052 7.31087 257.316 7.58887C257.585 7.8623 257.72 8.25651 257.72 8.77148C257.72 9.48698 257.483 10.0384 257.009 10.4258C256.539 10.8086 255.851 11 254.944 11H251.807V3.56934H254.958C255.806 3.56934 256.441 3.72201 256.865 4.02734C257.294 4.33268 257.508 4.77702 257.508 5.36035ZM257.002 8.75781C257.002 7.84635 256.302 7.39062 254.903 7.39062H252.483V10.3574H254.999C256.334 10.3574 257.002 9.82422 257.002 8.75781ZM256.79 5.41504C256.79 4.9821 256.635 4.67448 256.325 4.49219C256.015 4.30534 255.55 4.21191 254.931 4.21191H252.483V6.75488H254.849C255.541 6.75488 256.038 6.64779 256.339 6.43359C256.64 6.2194 256.79 5.87988 256.79 5.41504ZM0.920898 30H0.244141V22.5693H6.1709V30H5.49414V23.2119H0.920898V30ZM14.8115 26.2744C14.8115 27.4867 14.5176 28.4346 13.9297 29.1182C13.3418 29.7972 12.5306 30.1367 11.4961 30.1367C10.8444 30.1367 10.2702 29.9795 9.77344 29.665C9.27669 29.3506 8.89616 28.8994 8.63184 28.3115C8.36751 27.7236 8.23535 27.0446 8.23535 26.2744C8.23535 25.0622 8.5293 24.1188 9.11719 23.4443C9.70508 22.7653 10.5117 22.4258 11.5371 22.4258C12.5579 22.4258 13.3577 22.7699 13.9365 23.458C14.5199 24.1416 14.8115 25.0804 14.8115 26.2744ZM8.94629 26.2744C8.94629 27.2952 9.1696 28.0928 9.61621 28.667C10.0674 29.2367 10.7031 29.5215 11.5234 29.5215C12.3438 29.5215 12.9772 29.2367 13.4238 28.667C13.875 28.0928 14.1006 27.2952 14.1006 26.2744C14.1006 25.249 13.8727 24.4538 13.417 23.8887C12.9658 23.3236 12.3301 23.041 11.5098 23.041C10.6895 23.041 10.056 23.3236 9.60938 23.8887C9.16732 24.4492 8.94629 25.2445 8.94629 26.2744ZM17.5117 22.5693V27.9424L17.4707 29.3438L21.8799 22.5693H22.7822V30H22.1328V24.6611L22.1602 23.2256L17.751 30H16.8691V22.5693H17.5117ZM28.2441 30.1367C27.1823 30.1367 26.3506 29.8018 25.749 29.1318C25.1475 28.4619 24.8467 27.5277 24.8467 26.3291C24.8467 25.0986 25.1589 24.1416 25.7832 23.458C26.4076 22.7699 27.262 22.4258 28.3467 22.4258C28.9893 22.4258 29.6045 22.5374 30.1924 22.7607L30.0078 23.3623C29.3652 23.1481 28.807 23.041 28.333 23.041C27.4215 23.041 26.7311 23.3236 26.2617 23.8887C25.7923 24.4492 25.5576 25.2581 25.5576 26.3154C25.5576 27.318 25.7923 28.1042 26.2617 28.6738C26.7311 29.2389 27.3874 29.5215 28.2305 29.5215C28.9049 29.5215 29.5316 29.4007 30.1104 29.1592V29.7881C29.6364 30.0205 29.0143 30.1367 28.2441 30.1367ZM35.9688 22.5693H36.8096L33.4805 26.165L37.0488 30H36.1396L32.626 26.2334V30H31.9355V22.5693H32.626V26.1787L35.9688 22.5693ZM44.5068 26.2744C44.5068 27.4867 44.2129 28.4346 43.625 29.1182C43.0371 29.7972 42.2259 30.1367 41.1914 30.1367C40.5397 30.1367 39.9655 29.9795 39.4688 29.665C38.972 29.3506 38.5915 28.8994 38.3271 28.3115C38.0628 27.7236 37.9307 27.0446 37.9307 26.2744C37.9307 25.0622 38.2246 24.1188 38.8125 23.4443C39.4004 22.7653 40.207 22.4258 41.2324 22.4258C42.2533 22.4258 43.0531 22.7699 43.6318 23.458C44.2152 24.1416 44.5068 25.0804 44.5068 26.2744ZM38.6416 26.2744C38.6416 27.2952 38.8649 28.0928 39.3115 28.667C39.7627 29.2367 40.3984 29.5215 41.2188 29.5215C42.0391 29.5215 42.6725 29.2367 43.1191 28.667C43.5703 28.0928 43.7959 27.2952 43.7959 26.2744C43.7959 25.249 43.568 24.4538 43.1123 23.8887C42.6611 23.3236 42.0254 23.041 41.2051 23.041C40.3848 23.041 39.7513 23.3236 39.3047 23.8887C38.8626 24.4492 38.6416 25.2445 38.6416 26.2744ZM52.2656 24.3604C52.2656 24.8298 52.1494 25.1989 51.917 25.4678C51.6846 25.7321 51.3063 25.9167 50.7822 26.0215V26.0693C51.3792 26.1377 51.8099 26.3109 52.0742 26.5889C52.3431 26.8623 52.4775 27.2565 52.4775 27.7715C52.4775 28.487 52.2406 29.0384 51.7666 29.4258C51.2972 29.8086 50.609 30 49.7021 30H46.5645V22.5693H49.7158C50.5635 22.5693 51.1992 22.722 51.623 23.0273C52.0514 23.3327 52.2656 23.777 52.2656 24.3604ZM51.7598 27.7578C51.7598 26.8464 51.0602 26.3906 49.6611 26.3906H47.2412V29.3574H49.7568C51.0921 29.3574 51.7598 28.8242 51.7598 27.7578ZM51.5479 24.415C51.5479 23.9821 51.3929 23.6745 51.083 23.4922C50.7731 23.3053 50.3083 23.2119 49.6885 23.2119H47.2412V25.7549H49.6064C50.2992 25.7549 50.7959 25.6478 51.0967 25.4336C51.3975 25.2194 51.5479 24.8799 51.5479 24.415ZM55.1367 22.5693V27.9424L55.0957 29.3438L59.5049 22.5693H60.4072V30H59.7578V24.6611L59.7852 23.2256L55.376 30H54.4941V22.5693H55.1367ZM66.9355 22.5693H67.7764L64.4473 26.165L68.0156 30H67.1064L63.5928 26.2334V30H62.9023V22.5693H63.5928V26.1787L66.9355 22.5693ZM73.8398 30L73.6689 28.8242H73.6143C73.2406 29.3027 72.8555 29.6423 72.459 29.8428C72.0671 30.0387 71.6022 30.1367 71.0645 30.1367C70.3353 30.1367 69.7679 29.9499 69.3623 29.5762C68.9567 29.2025 68.7539 28.6852 68.7539 28.0244C68.7539 27.2998 69.0547 26.737 69.6562 26.3359C70.2624 25.9349 71.1374 25.723 72.2812 25.7002L73.6963 25.6592V25.167C73.6963 24.4606 73.5527 23.9274 73.2656 23.5674C72.9785 23.2074 72.516 23.0273 71.8779 23.0273C71.1898 23.0273 70.4766 23.2188 69.7383 23.6016L69.4854 23.0137C70.3011 22.6309 71.1077 22.4395 71.9053 22.4395C72.721 22.4395 73.3294 22.6514 73.7305 23.0752C74.1361 23.499 74.3389 24.1598 74.3389 25.0576V30H73.8398ZM71.1055 29.5215C71.8984 29.5215 72.5228 29.2959 72.9785 28.8447C73.4388 28.389 73.6689 27.7578 73.6689 26.9512V26.2197L72.3701 26.2744C71.3265 26.3245 70.5814 26.4886 70.1348 26.7666C69.6927 27.04 69.4717 27.4684 69.4717 28.0518C69.4717 28.5166 69.613 28.8789 69.8955 29.1387C70.1826 29.3939 70.5859 29.5215 71.1055 29.5215ZM78.5771 26.1787L75.9863 22.5693H76.7656L78.9805 25.7002L81.1748 22.5693H81.9199L79.3701 26.1787L82.1045 30H81.3184L78.9805 26.6846L76.6289 30H75.8838L78.5771 26.1787ZM88.0039 22.5693V27.9424L87.9629 29.3438L92.3721 22.5693H93.2744V30H92.625V24.6611L92.6523 23.2256L88.2432 30H87.3613V22.5693H88.0039ZM102.585 30.1367C101.441 30.1367 100.607 29.7083 100.083 28.8516H100.035L100.056 29.4258C100.074 29.763 100.083 30.1322 100.083 30.5332V33.3633H99.4062V22.5693H99.9805L100.11 23.6289H100.151C100.662 22.8268 101.478 22.4258 102.599 22.4258C103.601 22.4258 104.365 22.7562 104.889 23.417C105.417 24.0732 105.682 25.0303 105.682 26.2881C105.682 27.5094 105.404 28.4574 104.848 29.1318C104.296 29.8018 103.542 30.1367 102.585 30.1367ZM102.571 29.5352C103.332 29.5352 103.92 29.2526 104.335 28.6875C104.754 28.1224 104.964 27.3317 104.964 26.3154C104.964 24.1325 104.175 23.041 102.599 23.041C101.733 23.041 101.097 23.2803 100.691 23.7588C100.286 24.2327 100.083 25.0075 100.083 26.083V26.3018C100.083 27.4639 100.277 28.2933 100.664 28.79C101.056 29.2868 101.692 29.5352 102.571 29.5352ZM112.258 30L112.087 28.8242H112.032C111.659 29.3027 111.273 29.6423 110.877 29.8428C110.485 30.0387 110.02 30.1367 109.482 30.1367C108.753 30.1367 108.186 29.9499 107.78 29.5762C107.375 29.2025 107.172 28.6852 107.172 28.0244C107.172 27.2998 107.473 26.737 108.074 26.3359C108.68 25.9349 109.555 25.723 110.699 25.7002L112.114 25.6592V25.167C112.114 24.4606 111.971 23.9274 111.684 23.5674C111.396 23.2074 110.934 23.0273 110.296 23.0273C109.608 23.0273 108.895 23.2188 108.156 23.6016L107.903 23.0137C108.719 22.6309 109.526 22.4395 110.323 22.4395C111.139 22.4395 111.747 22.6514 112.148 23.0752C112.554 23.499 112.757 24.1598 112.757 25.0576V30H112.258ZM109.523 29.5215C110.316 29.5215 110.941 29.2959 111.396 28.8447C111.857 28.389 112.087 27.7578 112.087 26.9512V26.2197L110.788 26.2744C109.744 26.3245 108.999 26.4886 108.553 26.7666C108.111 27.04 107.89 27.4684 107.89 28.0518C107.89 28.5166 108.031 28.8789 108.313 29.1387C108.601 29.3939 109.004 29.5215 109.523 29.5215ZM116.571 25.7754C117.916 25.7754 118.588 25.3128 118.588 24.3877C118.588 23.9456 118.433 23.6084 118.123 23.376C117.813 23.1436 117.371 23.0273 116.797 23.0273C116.432 23.0273 116.093 23.0706 115.778 23.1572C115.464 23.2393 115.127 23.36 114.767 23.5195L114.514 22.959C115.307 22.6035 116.077 22.4258 116.824 22.4258C117.635 22.4258 118.251 22.5944 118.67 22.9316C119.089 23.2689 119.299 23.736 119.299 24.333C119.299 25.1943 118.857 25.7435 117.973 25.9805V26.0215C118.524 26.1582 118.925 26.3861 119.176 26.7051C119.426 27.0195 119.552 27.4229 119.552 27.915C119.552 28.6032 119.299 29.1455 118.793 29.542C118.292 29.9385 117.594 30.1367 116.701 30.1367C116.218 30.1367 115.776 30.0911 115.375 30C114.979 29.9043 114.65 29.779 114.391 29.624V28.9473C114.86 29.1706 115.266 29.3232 115.607 29.4053C115.949 29.4827 116.314 29.5215 116.701 29.5215C117.376 29.5215 117.9 29.3802 118.273 29.0977C118.652 28.8105 118.841 28.4027 118.841 27.874C118.841 27.359 118.661 26.9785 118.301 26.7324C117.941 26.4863 117.401 26.3633 116.681 26.3633H115.648V25.7754H116.571ZM124.679 30.1367C123.535 30.1367 122.701 29.7083 122.177 28.8516H122.129L122.149 29.4258C122.168 29.763 122.177 30.1322 122.177 30.5332V33.3633H121.5V22.5693H122.074L122.204 23.6289H122.245C122.756 22.8268 123.571 22.4258 124.692 22.4258C125.695 22.4258 126.458 22.7562 126.982 23.417C127.511 24.0732 127.775 25.0303 127.775 26.2881C127.775 27.5094 127.497 28.4574 126.941 29.1318C126.39 29.8018 125.636 30.1367 124.679 30.1367ZM124.665 29.5352C125.426 29.5352 126.014 29.2526 126.429 28.6875C126.848 28.1224 127.058 27.3317 127.058 26.3154C127.058 24.1325 126.269 23.041 124.692 23.041C123.826 23.041 123.191 23.2803 122.785 23.7588C122.38 24.2327 122.177 25.0075 122.177 26.083V26.3018C122.177 27.4639 122.37 28.2933 122.758 28.79C123.15 29.2868 123.785 29.5352 124.665 29.5352ZM134.352 30L134.181 28.8242H134.126C133.752 29.3027 133.367 29.6423 132.971 29.8428C132.579 30.0387 132.114 30.1367 131.576 30.1367C130.847 30.1367 130.28 29.9499 129.874 29.5762C129.468 29.2025 129.266 28.6852 129.266 28.0244C129.266 27.2998 129.566 26.737 130.168 26.3359C130.774 25.9349 131.649 25.723 132.793 25.7002L134.208 25.6592V25.167C134.208 24.4606 134.064 23.9274 133.777 23.5674C133.49 23.2074 133.028 23.0273 132.39 23.0273C131.701 23.0273 130.988 23.2188 130.25 23.6016L129.997 23.0137C130.813 22.6309 131.619 22.4395 132.417 22.4395C133.233 22.4395 133.841 22.6514 134.242 23.0752C134.648 23.499 134.851 24.1598 134.851 25.0576V30H134.352ZM131.617 29.5215C132.41 29.5215 133.035 29.2959 133.49 28.8447C133.951 28.389 134.181 27.7578 134.181 26.9512V26.2197L132.882 26.2744C131.838 26.3245 131.093 26.4886 130.646 26.7666C130.204 27.04 129.983 27.4684 129.983 28.0518C129.983 28.5166 130.125 28.8789 130.407 29.1387C130.694 29.3939 131.098 29.5215 131.617 29.5215ZM136.86 25.5361C136.86 22.3096 137.77 20.4707 139.588 20.0195C140.226 19.86 140.837 19.7256 141.42 19.6162C142.008 19.5023 142.527 19.402 142.979 19.3154L143.102 19.9033L142.281 20.0605C140.928 20.3158 140.035 20.5117 139.602 20.6484C138.986 20.8262 138.503 21.2523 138.152 21.9268C137.806 22.6012 137.608 23.5241 137.558 24.6953H137.599C138.086 24.1165 138.56 23.7041 139.021 23.458C139.481 23.2074 139.955 23.082 140.442 23.082C141.354 23.082 142.051 23.376 142.534 23.9639C143.017 24.5518 143.259 25.388 143.259 26.4727C143.259 27.6257 142.981 28.5257 142.425 29.1729C141.869 29.8154 141.087 30.1367 140.08 30.1367C139.059 30.1367 138.266 29.738 137.701 28.9404C137.141 28.1429 136.86 27.0081 136.86 25.5361ZM140.135 29.5215C140.914 29.5215 141.509 29.2617 141.919 28.7422C142.334 28.2227 142.541 27.4753 142.541 26.5C142.541 25.5749 142.356 24.8776 141.987 24.4082C141.623 23.9342 141.085 23.6973 140.374 23.6973C139.845 23.6973 139.333 23.8636 138.836 24.1963C138.344 24.5244 137.913 24.9801 137.544 25.5635C137.544 26.3792 137.644 27.0947 137.845 27.71C138.05 28.3252 138.346 28.7809 138.733 29.0771C139.121 29.3734 139.588 29.5215 140.135 29.5215ZM151.448 26.2744C151.448 27.4867 151.154 28.4346 150.566 29.1182C149.979 29.7972 149.167 30.1367 148.133 30.1367C147.481 30.1367 146.907 29.9795 146.41 29.665C145.913 29.3506 145.533 28.8994 145.269 28.3115C145.004 27.7236 144.872 27.0446 144.872 26.2744C144.872 25.0622 145.166 24.1188 145.754 23.4443C146.342 22.7653 147.148 22.4258 148.174 22.4258C149.195 22.4258 149.994 22.7699 150.573 23.458C151.157 24.1416 151.448 25.0804 151.448 26.2744ZM145.583 26.2744C145.583 27.2952 145.806 28.0928 146.253 28.667C146.704 29.2367 147.34 29.5215 148.16 29.5215C148.98 29.5215 149.614 29.2367 150.061 28.667C150.512 28.0928 150.737 27.2952 150.737 26.2744C150.737 25.249 150.509 24.4538 150.054 23.8887C149.603 23.3236 148.967 23.041 148.146 23.041C147.326 23.041 146.693 23.3236 146.246 23.8887C145.804 24.4492 145.583 25.2445 145.583 26.2744ZM158.223 23.1572H155.748V30H155.078V23.1572H152.542V22.5693H158.223V23.1572ZM164.266 30L164.095 28.8242H164.04C163.666 29.3027 163.281 29.6423 162.885 29.8428C162.493 30.0387 162.028 30.1367 161.49 30.1367C160.761 30.1367 160.194 29.9499 159.788 29.5762C159.382 29.2025 159.18 28.6852 159.18 28.0244C159.18 27.2998 159.48 26.737 160.082 26.3359C160.688 25.9349 161.563 25.723 162.707 25.7002L164.122 25.6592V25.167C164.122 24.4606 163.979 23.9274 163.691 23.5674C163.404 23.2074 162.942 23.0273 162.304 23.0273C161.616 23.0273 160.902 23.2188 160.164 23.6016L159.911 23.0137C160.727 22.6309 161.534 22.4395 162.331 22.4395C163.147 22.4395 163.755 22.6514 164.156 23.0752C164.562 23.499 164.765 24.1598 164.765 25.0576V30H164.266ZM161.531 29.5215C162.324 29.5215 162.949 29.2959 163.404 28.8447C163.865 28.389 164.095 27.7578 164.095 26.9512V26.2197L162.796 26.2744C161.752 26.3245 161.007 26.4886 160.561 26.7666C160.118 27.04 159.897 27.4684 159.897 28.0518C159.897 28.5166 160.039 28.8789 160.321 29.1387C160.608 29.3939 161.012 29.5215 161.531 29.5215ZM170.179 30.1367C169.099 30.1367 168.256 29.804 167.649 29.1387C167.048 28.4733 166.747 27.5413 166.747 26.3428C166.747 25.1579 167.039 24.21 167.622 23.499C168.205 22.7835 168.992 22.4258 169.98 22.4258C170.855 22.4258 171.546 22.7311 172.052 23.3418C172.558 23.9525 172.811 24.7819 172.811 25.8301V26.377H167.458C167.467 27.3978 167.704 28.1771 168.169 28.7148C168.638 29.2526 169.308 29.5215 170.179 29.5215C170.603 29.5215 170.974 29.4919 171.293 29.4326C171.617 29.3734 172.024 29.2458 172.517 29.0498V29.665C172.097 29.8473 171.71 29.9704 171.354 30.0342C170.999 30.1025 170.607 30.1367 170.179 30.1367ZM169.98 23.0273C169.265 23.0273 168.691 23.2643 168.258 23.7383C167.825 24.2077 167.572 24.8867 167.499 25.7754H172.093C172.093 24.9141 171.906 24.2419 171.532 23.7588C171.159 23.2712 170.641 23.0273 169.98 23.0273ZM178.32 29.2754L178.744 28.0791L180.884 22.5693H181.82V30H181.178V23.3896C181.077 23.6768 180.97 23.9707 180.856 24.2715C180.747 24.5723 180.004 26.4818 178.628 30H178.026L175.969 24.7773C175.882 24.5677 175.8 24.3467 175.723 24.1143C175.65 23.8818 175.568 23.6312 175.477 23.3623V30H174.861V22.5693H175.757L177.903 28.0381C178.072 28.4801 178.211 28.8926 178.32 29.2754ZM192.313 23.1572H188.622V30H187.945V22.5693H192.313V23.1572ZM197.017 30.1367C195.873 30.1367 195.039 29.7083 194.515 28.8516H194.467L194.487 29.4258C194.506 29.763 194.515 30.1322 194.515 30.5332V33.3633H193.838V22.5693H194.412L194.542 23.6289H194.583C195.093 22.8268 195.909 22.4258 197.03 22.4258C198.033 22.4258 198.796 22.7562 199.32 23.417C199.849 24.0732 200.113 25.0303 200.113 26.2881C200.113 27.5094 199.835 28.4574 199.279 29.1318C198.728 29.8018 197.974 30.1367 197.017 30.1367ZM197.003 29.5352C197.764 29.5352 198.352 29.2526 198.767 28.6875C199.186 28.1224 199.396 27.3317 199.396 26.3154C199.396 24.1325 198.607 23.041 197.03 23.041C196.164 23.041 195.529 23.2803 195.123 23.7588C194.717 24.2327 194.515 25.0075 194.515 26.083V26.3018C194.515 27.4639 194.708 28.2933 195.096 28.79C195.488 29.2868 196.123 29.5352 197.003 29.5352ZM206.689 30L206.519 28.8242H206.464C206.09 29.3027 205.705 29.6423 205.309 29.8428C204.917 30.0387 204.452 30.1367 203.914 30.1367C203.185 30.1367 202.618 29.9499 202.212 29.5762C201.806 29.2025 201.604 28.6852 201.604 28.0244C201.604 27.2998 201.904 26.737 202.506 26.3359C203.112 25.9349 203.987 25.723 205.131 25.7002L206.546 25.6592V25.167C206.546 24.4606 206.402 23.9274 206.115 23.5674C205.828 23.2074 205.366 23.0273 204.728 23.0273C204.039 23.0273 203.326 23.2188 202.588 23.6016L202.335 23.0137C203.151 22.6309 203.957 22.4395 204.755 22.4395C205.571 22.4395 206.179 22.6514 206.58 23.0752C206.986 23.499 207.188 24.1598 207.188 25.0576V30H206.689ZM203.955 29.5215C204.748 29.5215 205.372 29.2959 205.828 28.8447C206.288 28.389 206.519 27.7578 206.519 26.9512V26.2197L205.22 26.2744C204.176 26.3245 203.431 26.4886 202.984 26.7666C202.542 27.04 202.321 27.4684 202.321 28.0518C202.321 28.5166 202.463 28.8789 202.745 29.1387C203.032 29.3939 203.436 29.5215 203.955 29.5215ZM213.061 29.2754L213.484 28.0791L215.624 22.5693H216.561V30H215.918V23.3896C215.818 23.6768 215.711 23.9707 215.597 24.2715C215.487 24.5723 214.744 26.4818 213.368 30H212.767L210.709 24.7773C210.622 24.5677 210.54 24.3467 210.463 24.1143C210.39 23.8818 210.308 23.6312 210.217 23.3623V30H209.602V22.5693H210.497L212.644 28.0381C212.812 28.4801 212.951 28.8926 213.061 29.2754ZM225.194 26.2744C225.194 27.4867 224.9 28.4346 224.312 29.1182C223.725 29.7972 222.913 30.1367 221.879 30.1367C221.227 30.1367 220.653 29.9795 220.156 29.665C219.66 29.3506 219.279 28.8994 219.015 28.3115C218.75 27.7236 218.618 27.0446 218.618 26.2744C218.618 25.0622 218.912 24.1188 219.5 23.4443C220.088 22.7653 220.895 22.4258 221.92 22.4258C222.941 22.4258 223.741 22.7699 224.319 23.458C224.903 24.1416 225.194 25.0804 225.194 26.2744ZM219.329 26.2744C219.329 27.2952 219.552 28.0928 219.999 28.667C220.45 29.2367 221.086 29.5215 221.906 29.5215C222.727 29.5215 223.36 29.2367 223.807 28.667C224.258 28.0928 224.483 27.2952 224.483 26.2744C224.483 25.249 224.256 24.4538 223.8 23.8887C223.349 23.3236 222.713 23.041 221.893 23.041C221.072 23.041 220.439 23.3236 219.992 23.8887C219.55 24.4492 219.329 25.2445 219.329 26.2744ZM231.969 23.1572H229.494V30H228.824V23.1572H226.288V22.5693H231.969V23.1572ZM234.177 22.5693V25.8301H238.894V22.5693H239.563V30H238.894V26.418H234.177V30H233.5V22.5693H234.177ZM240.814 22.5693H241.512L243.084 26.7393C243.562 28.0199 243.866 28.8835 243.993 29.3301H244.034C244.226 28.7422 244.538 27.8649 244.971 26.6982L246.543 22.5693H247.24L243.911 31.2031C243.642 31.9049 243.417 32.3789 243.234 32.625C243.052 32.8711 242.838 33.0557 242.592 33.1787C242.35 33.3018 242.056 33.3633 241.71 33.3633C241.45 33.3633 241.161 33.3154 240.842 33.2197V32.6318C241.106 32.7048 241.391 32.7412 241.696 32.7412C241.929 32.7412 242.134 32.6865 242.312 32.5771C242.489 32.4678 242.649 32.2969 242.79 32.0645C242.936 31.8366 243.102 31.472 243.289 30.9707C243.48 30.474 243.604 30.1504 243.658 30L240.814 22.5693ZM257.604 26.2744C257.604 27.4867 257.33 28.4346 256.783 29.1182C256.241 29.7972 255.496 30.1367 254.548 30.1367C253.655 30.1367 252.935 29.8018 252.388 29.1318C251.845 28.4619 251.567 27.5573 251.554 26.418H249.161V30H248.484V22.5693H249.161V25.8301H251.567C251.631 24.7591 251.927 23.9251 252.456 23.3281C252.989 22.7266 253.7 22.4258 254.589 22.4258C255.519 22.4258 256.252 22.7699 256.79 23.458C257.332 24.1416 257.604 25.0804 257.604 26.2744ZM252.265 26.2744C252.265 27.2952 252.465 28.0928 252.866 28.667C253.272 29.2367 253.841 29.5215 254.575 29.5215C255.309 29.5215 255.876 29.2344 256.277 28.6602C256.683 28.0859 256.886 27.2907 256.886 26.2744C256.886 25.2536 256.683 24.4606 256.277 23.8955C255.872 23.3258 255.3 23.041 254.562 23.041C253.828 23.041 253.26 23.3236 252.859 23.8887C252.463 24.4492 252.265 25.2445 252.265 26.2744ZM3.42285 49.1367C2.27897 49.1367 1.44499 48.7083 0.920898 47.8516H0.873047L0.893555 48.4258C0.911784 48.763 0.920898 49.1322 0.920898 49.5332V52.3633H0.244141V41.5693H0.818359L0.948242 42.6289H0.989258C1.49967 41.8268 2.31543 41.4258 3.43652 41.4258C4.43913 41.4258 5.20247 41.7562 5.72656 42.417C6.25521 43.0732 6.51953 44.0303 6.51953 45.2881C6.51953 46.5094 6.24154 47.4574 5.68555 48.1318C5.13411 48.8018 4.37988 49.1367 3.42285 49.1367ZM3.40918 48.5352C4.17025 48.5352 4.75814 48.2526 5.17285 47.6875C5.59212 47.1224 5.80176 46.3317 5.80176 45.3154C5.80176 43.1325 5.01335 42.041 3.43652 42.041C2.57064 42.041 1.9349 42.2803 1.5293 42.7588C1.1237 43.2327 0.920898 44.0075 0.920898 45.083V45.3018C0.920898 46.4639 1.11458 47.2933 1.50195 47.79C1.89388 48.2868 2.52962 48.5352 3.40918 48.5352ZM11.585 49.1367C10.5049 49.1367 9.66178 48.804 9.05566 48.1387C8.4541 47.4733 8.15332 46.5413 8.15332 45.3428C8.15332 44.1579 8.44499 43.21 9.02832 42.499C9.61165 41.7835 10.3978 41.4258 11.3867 41.4258C12.2617 41.4258 12.9521 41.7311 13.458 42.3418C13.9639 42.9525 14.2168 43.7819 14.2168 44.8301V45.377H8.86426C8.87337 46.3978 9.11035 47.1771 9.5752 47.7148C10.0446 48.2526 10.7145 48.5215 11.585 48.5215C12.0088 48.5215 12.3802 48.4919 12.6992 48.4326C13.0228 48.3734 13.4307 48.2458 13.9229 48.0498V48.665C13.5036 48.8473 13.1162 48.9704 12.7607 49.0342C12.4053 49.1025 12.0133 49.1367 11.585 49.1367ZM11.3867 42.0273C10.6712 42.0273 10.097 42.2643 9.66406 42.7383C9.23112 43.2077 8.97819 43.8867 8.90527 44.7754H13.499C13.499 43.9141 13.3122 43.2419 12.9385 42.7588C12.5648 42.2712 12.0475 42.0273 11.3867 42.0273ZM20.3008 41.5693H21.1416L17.8125 45.165L21.3809 49H20.4717L16.958 45.2334V49H16.2676V41.5693H16.958V45.1787L20.3008 41.5693ZM27.834 49H27.1641V42.1982H24.5322C24.3955 43.9984 24.2269 45.3724 24.0264 46.3203C23.8304 47.2637 23.5752 47.9587 23.2607 48.4053C22.9508 48.8473 22.5475 49.0684 22.0508 49.0684C21.873 49.0684 21.7181 49.0501 21.5859 49.0137V48.3984C21.6725 48.4258 21.7956 48.4395 21.9551 48.4395C22.4701 48.4395 22.8848 47.8971 23.1992 46.8125C23.5182 45.7233 23.7598 43.9756 23.9238 41.5693H27.834V49ZM34.834 49L34.6631 47.8242H34.6084C34.2347 48.3027 33.8496 48.6423 33.4531 48.8428C33.0612 49.0387 32.5964 49.1367 32.0586 49.1367C31.3294 49.1367 30.762 48.9499 30.3564 48.5762C29.9508 48.2025 29.748 47.6852 29.748 47.0244C29.748 46.2998 30.0488 45.737 30.6504 45.3359C31.2565 44.9349 32.1315 44.723 33.2754 44.7002L34.6904 44.6592V44.167C34.6904 43.4606 34.5469 42.9274 34.2598 42.5674C33.9727 42.2074 33.5101 42.0273 32.8721 42.0273C32.1839 42.0273 31.4707 42.2188 30.7324 42.6016L30.4795 42.0137C31.2952 41.6309 32.1019 41.4395 32.8994 41.4395C33.7152 41.4395 34.3236 41.6514 34.7246 42.0752C35.1302 42.499 35.333 43.1598 35.333 44.0576V49H34.834ZM32.0996 48.5215C32.8926 48.5215 33.5169 48.2959 33.9727 47.8447C34.4329 47.389 34.6631 46.7578 34.6631 45.9512V45.2197L33.3643 45.2744C32.3206 45.3245 31.5755 45.4886 31.1289 45.7666C30.6868 46.04 30.4658 46.4684 30.4658 47.0518C30.4658 47.5166 30.6071 47.8789 30.8896 48.1387C31.1768 48.3939 31.5801 48.5215 32.0996 48.5215ZM41.2051 48.2754L41.6289 47.0791L43.7686 41.5693H44.7051V49H44.0625V42.3896C43.9622 42.6768 43.8551 42.9707 43.7412 43.2715C43.6318 43.5723 42.889 45.4818 41.5127 49H40.9111L38.8535 43.7773C38.7669 43.5677 38.6849 43.3467 38.6074 43.1143C38.5345 42.8818 38.4525 42.6312 38.3613 42.3623V49H37.7461V41.5693H38.6416L40.7881 47.0381C40.9567 47.4801 41.0957 47.8926 41.2051 48.2754ZM47.8701 41.5693V44.8301H52.5869V41.5693H53.2568V49H52.5869V45.418H47.8701V49H47.1934V41.5693H47.8701ZM54.5078 41.5693H55.2051L56.7773 45.7393C57.2559 47.0199 57.5589 47.8835 57.6865 48.3301H57.7275C57.9189 47.7422 58.2311 46.8649 58.6641 45.6982L60.2363 41.5693H60.9336L57.6045 50.2031C57.3356 50.9049 57.11 51.3789 56.9277 51.625C56.7454 51.8711 56.5312 52.0557 56.2852 52.1787C56.0436 52.3018 55.7497 52.3633 55.4033 52.3633C55.1436 52.3633 54.8542 52.3154 54.5352 52.2197V51.6318C54.7995 51.7048 55.0843 51.7412 55.3896 51.7412C55.6221 51.7412 55.8271 51.6865 56.0049 51.5771C56.1826 51.4678 56.3421 51.2969 56.4834 51.0645C56.6292 50.8366 56.7956 50.472 56.9824 49.9707C57.1738 49.474 57.2969 49.1504 57.3516 49L54.5078 41.5693ZM71.2969 45.2744C71.2969 46.4867 71.0234 47.4346 70.4766 48.1182C69.9342 48.7972 69.1891 49.1367 68.2412 49.1367C67.348 49.1367 66.6279 48.8018 66.0811 48.1318C65.5387 47.4619 65.2607 46.5573 65.2471 45.418H62.8545V49H62.1777V41.5693H62.8545V44.8301H65.2607C65.3245 43.7591 65.6208 42.9251 66.1494 42.3281C66.6826 41.7266 67.3936 41.4258 68.2822 41.4258C69.2119 41.4258 69.9456 41.7699 70.4834 42.458C71.0257 43.1416 71.2969 44.0804 71.2969 45.2744ZM65.958 45.2744C65.958 46.2952 66.1585 47.0928 66.5596 47.667C66.9652 48.2367 67.5348 48.5215 68.2686 48.5215C69.0023 48.5215 69.5697 48.2344 69.9707 47.6602C70.3763 47.0859 70.5791 46.2907 70.5791 45.2744C70.5791 44.2536 70.3763 43.4606 69.9707 42.8955C69.5651 42.3258 68.9932 42.041 68.2549 42.041C67.5212 42.041 66.9538 42.3236 66.5527 42.8887C66.1562 43.4492 65.958 44.2445 65.958 45.2744ZM81.0176 41.5693H81.8584L78.5293 45.165L82.0977 49H81.1885L77.6748 45.2334V49H76.9844V41.5693H77.6748V45.1787L81.0176 41.5693ZM87.9219 49L87.751 47.8242H87.6963C87.3226 48.3027 86.9375 48.6423 86.541 48.8428C86.1491 49.0387 85.6842 49.1367 85.1465 49.1367C84.4173 49.1367 83.8499 48.9499 83.4443 48.5762C83.0387 48.2025 82.8359 47.6852 82.8359 47.0244C82.8359 46.2998 83.1367 45.737 83.7383 45.3359C84.3444 44.9349 85.2194 44.723 86.3633 44.7002L87.7783 44.6592V44.167C87.7783 43.4606 87.6348 42.9274 87.3477 42.5674C87.0605 42.2074 86.598 42.0273 85.96 42.0273C85.2718 42.0273 84.5586 42.2188 83.8203 42.6016L83.5674 42.0137C84.3831 41.6309 85.1898 41.4395 85.9873 41.4395C86.8031 41.4395 87.4115 41.6514 87.8125 42.0752C88.2181 42.499 88.4209 43.1598 88.4209 44.0576V49H87.9219ZM85.1875 48.5215C85.9805 48.5215 86.6048 48.2959 87.0605 47.8447C87.5208 47.389 87.751 46.7578 87.751 45.9512V45.2197L86.4521 45.2744C85.4085 45.3245 84.6634 45.4886 84.2168 45.7666C83.7747 46.04 83.5537 46.4684 83.5537 47.0518C83.5537 47.5166 83.695 47.8789 83.9775 48.1387C84.2646 48.3939 84.668 48.5215 85.1875 48.5215ZM94.293 48.2754L94.7168 47.0791L96.8564 41.5693H97.793V49H97.1504V42.3896C97.0501 42.6768 96.943 42.9707 96.8291 43.2715C96.7197 43.5723 95.9769 45.4818 94.6006 49H93.999L91.9414 43.7773C91.8548 43.5677 91.7728 43.3467 91.6953 43.1143C91.6224 42.8818 91.5404 42.6312 91.4492 42.3623V49H90.834V41.5693H91.7295L93.876 47.0381C94.0446 47.4801 94.1836 47.8926 94.293 48.2754ZM100.958 49H100.281V41.5693H106.208V49H105.531V42.2119H100.958V49ZM113.215 49L113.044 47.8242H112.989C112.616 48.3027 112.23 48.6423 111.834 48.8428C111.442 49.0387 110.977 49.1367 110.439 49.1367C109.71 49.1367 109.143 48.9499 108.737 48.5762C108.332 48.2025 108.129 47.6852 108.129 47.0244C108.129 46.2998 108.43 45.737 109.031 45.3359C109.637 44.9349 110.512 44.723 111.656 44.7002L113.071 44.6592V44.167C113.071 43.4606 112.928 42.9274 112.641 42.5674C112.354 42.2074 111.891 42.0273 111.253 42.0273C110.565 42.0273 109.852 42.2188 109.113 42.6016L108.86 42.0137C109.676 41.6309 110.483 41.4395 111.28 41.4395C112.096 41.4395 112.704 41.6514 113.105 42.0752C113.511 42.499 113.714 43.1598 113.714 44.0576V49H113.215ZM110.48 48.5215C111.273 48.5215 111.898 48.2959 112.354 47.8447C112.814 47.389 113.044 46.7578 113.044 45.9512V45.2197L111.745 45.2744C110.701 45.3245 109.956 45.4886 109.51 45.7666C109.068 46.04 108.847 46.4684 108.847 47.0518C108.847 47.5166 108.988 47.8789 109.271 48.1387C109.558 48.3939 109.961 48.5215 110.48 48.5215ZM116.804 41.5693V44.8301H121.521V41.5693H122.19V49H121.521V45.418H116.804V49H116.127V41.5693H116.804ZM125.328 41.5693V46.9424L125.287 48.3438L129.696 41.5693H130.599V49H129.949V43.6611L129.977 42.2256L125.567 49H124.686V41.5693H125.328ZM142.213 45.2744C142.213 46.4867 141.939 47.4346 141.393 48.1182C140.85 48.7972 140.105 49.1367 139.157 49.1367C138.264 49.1367 137.544 48.8018 136.997 48.1318C136.455 47.4619 136.177 46.5573 136.163 45.418H133.771V49H133.094V41.5693H133.771V44.8301H136.177C136.241 43.7591 136.537 42.9251 137.065 42.3281C137.599 41.7266 138.31 41.4258 139.198 41.4258C140.128 41.4258 140.862 41.7699 141.399 42.458C141.942 43.1416 142.213 44.0804 142.213 45.2744ZM136.874 45.2744C136.874 46.2952 137.075 47.0928 137.476 47.667C137.881 48.2367 138.451 48.5215 139.185 48.5215C139.918 48.5215 140.486 48.2344 140.887 47.6602C141.292 47.0859 141.495 46.2907 141.495 45.2744C141.495 44.2536 141.292 43.4606 140.887 42.8955C140.481 42.3258 139.909 42.041 139.171 42.041C138.437 42.041 137.87 42.3236 137.469 42.8887C137.072 43.4492 136.874 44.2445 136.874 45.2744ZM144.127 48.4668C144.127 48.0202 144.309 47.7969 144.674 47.7969C145.048 47.7969 145.234 48.0202 145.234 48.4668C145.234 48.9134 145.048 49.1367 144.674 49.1367C144.309 49.1367 144.127 48.9134 144.127 48.4668Z" fill="black"/>
</svg>
