<svg width="428" height="51" viewBox="0 0 428 51" fill="none" xmlns="http://www.w3.org/2000/svg">
<path d="M299.069 30H298.372V20.6621H292.603V30H291.905V20.0059H299.069V30ZM306.24 30L306.069 28.8242H306.015C305.641 29.3027 305.256 29.6423 304.859 29.8428C304.467 30.0387 304.003 30.1367 303.465 30.1367C302.736 30.1367 302.168 29.9499 301.763 29.5762C301.357 29.2025 301.154 28.6852 301.154 28.0244C301.154 27.2998 301.455 26.737 302.057 26.3359C302.663 25.9349 303.538 25.723 304.682 25.7002L306.097 25.6592V25.167C306.097 24.4606 305.953 23.9274 305.666 23.5674C305.379 23.2074 304.916 23.0273 304.278 23.0273C303.59 23.0273 302.877 23.2188 302.139 23.6016L301.886 23.0137C302.701 22.6309 303.508 22.4395 304.306 22.4395C305.121 22.4395 305.73 22.6514 306.131 23.0752C306.536 23.499 306.739 24.1598 306.739 25.0576V30H306.24ZM303.506 29.5215C304.299 29.5215 304.923 29.2959 305.379 28.8447C305.839 28.389 306.069 27.7578 306.069 26.9512V26.2197L304.771 26.2744C303.727 26.3245 302.982 26.4886 302.535 26.7666C302.093 27.04 301.872 27.4684 301.872 28.0518C301.872 28.5166 302.013 28.8789 302.296 29.1387C302.583 29.3939 302.986 29.5215 303.506 29.5215ZM312.331 30.1367C311.187 30.1367 310.353 29.7083 309.829 28.8516H309.781L309.802 29.4258C309.82 29.763 309.829 30.1322 309.829 30.5332V33.3633H309.152V22.5693H309.727L309.856 23.6289H309.897C310.408 22.8268 311.224 22.4258 312.345 22.4258C313.347 22.4258 314.111 22.7562 314.635 23.417C315.163 24.0732 315.428 25.0303 315.428 26.2881C315.428 27.5094 315.15 28.4574 314.594 29.1318C314.042 29.8018 313.288 30.1367 312.331 30.1367ZM312.317 29.5352C313.078 29.5352 313.666 29.2526 314.081 28.6875C314.5 28.1224 314.71 27.3317 314.71 26.3154C314.71 24.1325 313.922 23.041 312.345 23.041C311.479 23.041 310.843 23.2803 310.438 23.7588C310.032 24.2327 309.829 25.0075 309.829 26.083V26.3018C309.829 27.4639 310.023 28.2933 310.41 28.79C310.802 29.2868 311.438 29.5352 312.317 29.5352ZM322.209 23.1572H319.734V30H319.064V23.1572H316.528V22.5693H322.209V23.1572ZM324.417 22.5693V25.8301H329.134V22.5693H329.804V30H329.134V26.418H324.417V30H323.74V22.5693H324.417ZM335.3 30.1367C334.22 30.1367 333.377 29.804 332.771 29.1387C332.169 28.4733 331.868 27.5413 331.868 26.3428C331.868 25.1579 332.16 24.21 332.743 23.499C333.326 22.7835 334.113 22.4258 335.102 22.4258C335.977 22.4258 336.667 22.7311 337.173 23.3418C337.679 23.9525 337.932 24.7819 337.932 25.8301V26.377H332.579C332.588 27.3978 332.825 28.1771 333.29 28.7148C333.759 29.2526 334.429 29.5215 335.3 29.5215C335.724 29.5215 336.095 29.4919 336.414 29.4326C336.738 29.3734 337.146 29.2458 337.638 29.0498V29.665C337.218 29.8473 336.831 29.9704 336.476 30.0342C336.12 30.1025 335.728 30.1367 335.3 30.1367ZM335.102 23.0273C334.386 23.0273 333.812 23.2643 333.379 23.7383C332.946 24.2077 332.693 24.8867 332.62 25.7754H337.214C337.214 24.9141 337.027 24.2419 336.653 23.7588C336.28 23.2712 335.762 23.0273 335.102 23.0273ZM343.161 30.1367C342.017 30.1367 341.183 29.7083 340.659 28.8516H340.611L340.632 29.4258C340.65 29.763 340.659 30.1322 340.659 30.5332V33.3633H339.982V22.5693H340.557L340.687 23.6289H340.728C341.238 22.8268 342.054 22.4258 343.175 22.4258C344.177 22.4258 344.941 22.7562 345.465 23.417C345.993 24.0732 346.258 25.0303 346.258 26.2881C346.258 27.5094 345.98 28.4574 345.424 29.1318C344.872 29.8018 344.118 30.1367 343.161 30.1367ZM343.147 29.5352C343.909 29.5352 344.496 29.2526 344.911 28.6875C345.33 28.1224 345.54 27.3317 345.54 26.3154C345.54 24.1325 344.752 23.041 343.175 23.041C342.309 23.041 341.673 23.2803 341.268 23.7588C340.862 24.2327 340.659 25.0075 340.659 26.083V26.3018C340.659 27.4639 340.853 28.2933 341.24 28.79C341.632 29.2868 342.268 29.5352 343.147 29.5352ZM359.014 30H358.344V22.7197C358.344 22.0589 358.371 21.373 358.426 20.6621C358.357 20.7305 358.287 20.7965 358.214 20.8604C358.141 20.9242 357.437 21.4779 356.102 22.5215L355.712 22.0361L358.426 20.0059H359.014V30ZM368.03 20.4912C366.777 20.4912 365.79 20.8923 365.07 21.6943C364.35 22.4964 363.99 23.5947 363.99 24.9893C363.99 26.4157 364.33 27.5231 365.009 28.3115C365.688 29.0999 366.659 29.4941 367.921 29.4941C368.759 29.4941 369.53 29.387 370.231 29.1729V29.7881C369.571 30.0205 368.746 30.1367 367.757 30.1367C366.353 30.1367 365.248 29.6833 364.441 28.7764C363.635 27.8695 363.231 26.6025 363.231 24.9756C363.231 23.9593 363.423 23.0638 363.806 22.2891C364.193 21.5143 364.747 20.9173 365.467 20.498C366.191 20.0742 367.032 19.8623 367.989 19.8623C368.965 19.8623 369.837 20.0446 370.607 20.4092L370.327 21.0381C369.598 20.6735 368.832 20.4912 368.03 20.4912ZM378.797 24.415C379.945 24.415 380.807 24.6338 381.381 25.0713C381.955 25.5042 382.242 26.1901 382.242 27.1289C382.242 28.0495 381.957 28.7581 381.388 29.2549C380.823 29.7516 380.011 30 378.954 30H376.097V20.0059H381.709V20.6621H376.794V24.415H378.797ZM376.794 29.3848H378.838C379.736 29.3848 380.401 29.2048 380.834 28.8447C381.267 28.4801 381.483 27.9082 381.483 27.1289C381.483 26.377 381.265 25.8392 380.827 25.5156C380.39 25.1921 379.681 25.0303 378.701 25.0303H376.794V29.3848ZM384.908 22.5693V27.9424L384.867 29.3438L389.276 22.5693H390.179V30H389.529V24.6611L389.557 23.2256L385.147 30H384.266V22.5693H384.908ZM397.391 23.1572H394.916V30H394.246V23.1572H391.71V22.5693H397.391V23.1572ZM402.101 30.1367C400.957 30.1367 400.123 29.7083 399.599 28.8516H399.551L399.571 29.4258C399.59 29.763 399.599 30.1322 399.599 30.5332V33.3633H398.922V22.5693H399.496L399.626 23.6289H399.667C400.177 22.8268 400.993 22.4258 402.114 22.4258C403.117 22.4258 403.88 22.7562 404.404 23.417C404.933 24.0732 405.197 25.0303 405.197 26.2881C405.197 27.5094 404.919 28.4574 404.363 29.1318C403.812 29.8018 403.058 30.1367 402.101 30.1367ZM402.087 29.5352C402.848 29.5352 403.436 29.2526 403.851 28.6875C404.27 28.1224 404.479 27.3317 404.479 26.3154C404.479 24.1325 403.691 23.041 402.114 23.041C401.248 23.041 400.613 23.2803 400.207 23.7588C399.801 24.2327 399.599 25.0075 399.599 26.083V26.3018C399.599 27.4639 399.792 28.2933 400.18 28.79C400.572 29.2868 401.207 29.5352 402.087 29.5352ZM407.904 22.5693V27.9424L407.863 29.3438L412.272 22.5693H413.175V30H412.525V24.6611L412.553 23.2256L408.144 30H407.262V22.5693H407.904ZM419.703 22.5693H420.544L417.215 26.165L420.783 30H419.874L416.36 26.2334V30H415.67V22.5693H416.36V26.1787L419.703 22.5693ZM425.062 30.1367C424.001 30.1367 423.169 29.8018 422.567 29.1318C421.966 28.4619 421.665 27.5277 421.665 26.3291C421.665 25.0986 421.977 24.1416 422.602 23.458C423.226 22.7699 424.08 22.4258 425.165 22.4258C425.808 22.4258 426.423 22.5374 427.011 22.7607L426.826 23.3623C426.184 23.1481 425.625 23.041 425.151 23.041C424.24 23.041 423.549 23.3236 423.08 23.8887C422.611 24.4492 422.376 25.2581 422.376 26.3154C422.376 27.318 422.611 28.1042 423.08 28.6738C423.549 29.2389 424.206 29.5215 425.049 29.5215C425.723 29.5215 426.35 29.4007 426.929 29.1592V29.7881C426.455 30.0205 425.833 30.1367 425.062 30.1367Z" fill="black"/>
<path d="M62.7949 21.6H66.4004V39.5H72.4095V16.3H62.7949V21.6ZM76.4156 27.9C76.4156 35.3 81.4231 40.2 88.3336 40.2C90.3366 40.2 92.54 39.9 94.6432 38.5V31.9C93.4414 33.1 91.5385 34.4 89.1348 34.4C85.4292 34.4 83.2259 31.6 83.2259 28.1C83.2259 24.3 85.6295 21.4 89.1348 21.4C91.6386 21.4 93.4414 22.8 94.6432 24.2V17.5C92.6401 16.2 90.3366 15.6 88.2335 15.6C81.8237 15.6 76.4156 20.1 76.4156 27.9ZM122.786 25.3H119.381V21.8H129.997V16.2H112.871V39.4H122.786C124.488 39.4 131.9 39.5 131.9 32.2C131.9 25.3 124.488 25.3 122.786 25.3ZM122.085 34.8H119.281V30H122.085C124.188 30 125.39 30.6 125.39 32.4C125.39 34.2 124.188 34.8 122.085 34.8ZM141.514 30.2V16.3H135.205V39.5H141.614L150.628 25.6V39.5H156.938V16.3H150.528L141.514 30.2ZM159.542 21.8H164.649V39.4H171.159V21.8H176.267V16.2H159.542V21.8ZM188.786 16.3H178.971V39.5H185.481V31.8H188.786C195.396 31.8 197.299 27.2 197.299 24C197.199 20.8 195.396 16.3 188.786 16.3ZM187.284 26.7H185.381V21.4H187.284C190.088 21.4 190.488 22.9 190.488 24.1C190.488 25 190.188 26.7 187.284 26.7ZM206.212 30.2V16.3H199.903V39.5H206.312L215.326 25.6V39.5H221.636V16.3H215.226L206.212 30.2ZM246.573 16.3H238.962L231.951 26V16.3H225.441V39.5H231.951V29.5L238.661 39.5H246.774L237.66 27.5L246.573 16.3ZM258.491 21.4C260.995 21.4 262.798 22.8 264 24.2V17.5C261.997 16.2 259.693 15.6 257.59 15.6C251.281 15.6 245.772 20.1 245.772 27.9C245.772 35.3 250.78 40.2 257.69 40.2C259.693 40.2 261.897 39.9 264 38.5V31.9C262.798 33.1 260.895 34.4 258.491 34.4C254.786 34.4 252.582 31.6 252.582 28.1C252.582 24.2 254.886 21.4 258.491 21.4ZM103.657 24.2C101.554 24.2 99.8511 25.9 99.8511 28C99.8511 30.1 101.554 31.8 103.657 31.8C105.76 31.8 107.463 30.1 107.463 28C107.463 25.9 105.76 24.2 103.657 24.2Z" fill="black"/>
<path d="M25.5387 0C23.6358 0 21.7329 0.2 20.0303 0.6V25.5C20.0303 28.6 22.5341 31 25.5387 31C28.6434 31 31.047 28.5 31.047 25.5C31.047 22.6 28.7435 20.2 25.8391 20V15.6C31.1472 15.8 35.4537 20.2 35.4537 25.6C35.4537 31.1 30.9469 35.6 25.4385 35.6C19.9302 35.6 15.4234 31.1 15.4234 25.6V2C14.8225 2.3 14.2215 2.6 13.6206 2.9V25.5C13.6206 32 18.9287 37.3 25.4385 37.3C31.9484 37.3 37.2564 32 37.2564 25.5C37.2564 19.1 32.1487 13.9 25.739 13.7V9.3C34.5524 9.5 41.6631 16.7 41.6631 25.6C41.6631 34.6 34.352 41.9 25.3384 41.9C16.3247 41.9 9.01366 34.6 9.01366 25.6V5.8C3.60546 10.5 0 17.6 0 25.5C0 39.6 11.4173 51 25.5387 51C39.6601 51 51.0774 39.6 51.0774 25.5C51.0774 11.4 39.6601 0 25.5387 0Z" fill="#D70929"/>
</svg>
