<svg width="10" height="2647" viewBox="0 0 10 2647" fill="none" xmlns="http://www.w3.org/2000/svg">
<circle cx="5" cy="5" r="5" fill="#188BFA" fill-opacity="0.2"/>
<circle cx="5" cy="35" r="5" fill="#188BFA" fill-opacity="0.2"/>
<circle cx="5" cy="65" r="5" fill="#188BFA" fill-opacity="0.2"/>
<circle cx="5" cy="95" r="5" fill="#188BFA" fill-opacity="0.2"/>
<circle cx="5" cy="125" r="5" fill="#188BFA" fill-opacity="0.2"/>
<circle cx="5" cy="155" r="5" fill="#188BFA" fill-opacity="0.2"/>
<circle cx="5" cy="185" r="5" fill="#188BFA" fill-opacity="0.2"/>
<circle cx="5" cy="215" r="5" fill="#188BFA" fill-opacity="0.2"/>
<circle cx="5" cy="824" r="5" fill="#188BFA" fill-opacity="0.2"/>
<circle cx="5" cy="854" r="5" fill="#188BFA" fill-opacity="0.2"/>
<circle cx="5" cy="884" r="5" fill="#188BFA" fill-opacity="0.2"/>
<circle cx="5" cy="914" r="5" fill="#188BFA" fill-opacity="0.2"/>
<circle cx="5" cy="944" r="5" fill="#188BFA" fill-opacity="0.2"/>
<circle cx="5" cy="974" r="5" fill="#188BFA" fill-opacity="0.2"/>
<circle cx="5" cy="1004" r="5" fill="#188BFA" fill-opacity="0.2"/>
<circle cx="5" cy="1034" r="5" fill="#188BFA" fill-opacity="0.2"/>
<circle cx="5" cy="1643" r="5" fill="#188BFA" fill-opacity="0.2"/>
<circle cx="5" cy="1673" r="5" fill="#188BFA" fill-opacity="0.2"/>
<circle cx="5" cy="1703" r="5" fill="#188BFA" fill-opacity="0.2"/>
<circle cx="5" cy="1733" r="5" fill="#188BFA" fill-opacity="0.2"/>
<circle cx="5" cy="1763" r="5" fill="#188BFA" fill-opacity="0.2"/>
<circle cx="5" cy="1793" r="5" fill="#188BFA" fill-opacity="0.2"/>
<circle cx="5" cy="1823" r="5" fill="#188BFA" fill-opacity="0.2"/>
<circle cx="5" cy="1853" r="5" fill="#188BFA" fill-opacity="0.2"/>
<circle cx="5" cy="2462" r="5" fill="#188BFA" fill-opacity="0.2"/>
<circle cx="5" cy="2492" r="5" fill="#188BFA" fill-opacity="0.2"/>
<circle cx="5" cy="2522" r="5" fill="#188BFA" fill-opacity="0.2"/>
<circle cx="5" cy="2552" r="5" fill="#188BFA" fill-opacity="0.2"/>
<circle cx="5" cy="2582" r="5" fill="#188BFA" fill-opacity="0.2"/>
<circle cx="5" cy="2614" r="5" fill="#188BFA" fill-opacity="0.2"/>
<circle cx="5" cy="2642" r="5" fill="#188BFA" fill-opacity="0.2"/>
</svg>
