<svg width="79" height="12" viewBox="0 0 79 12" fill="none" xmlns="http://www.w3.org/2000/svg">
<path d="M9.07812 11H6.5L2.61816 5.57275V11H0.347656V0.291992H2.61816V5.47754L6.45605 0.291992H8.87305L4.96924 5.43359L9.07812 11ZM12.0298 6.89111C12.0298 7.70166 12.1616 8.31445 12.4253 8.72949C12.6938 9.14453 13.1284 9.35205 13.729 9.35205C14.3247 9.35205 14.752 9.14697 15.0107 8.73682C15.2744 8.32178 15.4062 7.70654 15.4062 6.89111C15.4062 6.08057 15.2744 5.47266 15.0107 5.06738C14.7471 4.66211 14.3149 4.45947 13.7144 4.45947C13.1187 4.45947 12.689 4.66211 12.4253 5.06738C12.1616 5.46777 12.0298 6.07568 12.0298 6.89111ZM17.6914 6.89111C17.6914 8.22412 17.3398 9.2666 16.6367 10.0186C15.9336 10.7705 14.9546 11.1465 13.6997 11.1465C12.9136 11.1465 12.2202 10.9756 11.6196 10.6338C11.019 10.2871 10.5576 9.7915 10.2354 9.14697C9.91309 8.50244 9.75195 7.75049 9.75195 6.89111C9.75195 5.55322 10.1011 4.51318 10.7993 3.771C11.4976 3.02881 12.479 2.65771 13.7437 2.65771C14.5298 2.65771 15.2231 2.82861 15.8237 3.17041C16.4243 3.51221 16.8857 4.00293 17.208 4.64258C17.5303 5.28223 17.6914 6.03174 17.6914 6.89111ZM29.8569 11H27.7695V4.54736L27.6523 5.00146C27.3887 6.03174 27.1519 6.81055 26.9419 7.33789L25.4917 11H23.9023L22.4302 7.30859C22.2202 6.77148 21.9956 6.01709 21.7563 5.04541L21.6172 4.54736V11H19.5371V2.81152H22.6133L24.0195 6.30518C24.166 6.68115 24.3003 7.11328 24.4224 7.60156C24.5493 8.08984 24.6348 8.50732 24.6787 8.854C24.8398 8.12158 24.9644 7.59668 25.0522 7.2793C25.145 6.95703 25.2451 6.66162 25.3525 6.39307C25.46 6.12451 25.9458 4.93066 26.8101 2.81152H29.8569V11ZM39.6494 2.81152V11H37.4082V4.48877H34.4419V11H32.208V2.81152H39.6494ZM47.1934 11L46.7612 9.88672H46.7026C46.3267 10.3604 45.9385 10.6899 45.5381 10.8755C45.1426 11.0562 44.625 11.1465 43.9854 11.1465C43.1992 11.1465 42.5791 10.9219 42.125 10.4727C41.6758 10.0234 41.4512 9.38379 41.4512 8.55371C41.4512 7.68457 41.7539 7.04492 42.3594 6.63477C42.9697 6.21973 43.8877 5.99023 45.1133 5.94629L46.5342 5.90234V5.54346C46.5342 4.71338 46.1094 4.29834 45.2598 4.29834C44.6055 4.29834 43.8364 4.49609 42.9526 4.8916L42.2129 3.38281C43.1553 2.88965 44.2002 2.64307 45.3477 2.64307C46.4463 2.64307 47.2886 2.88232 47.8745 3.36084C48.4604 3.83936 48.7534 4.56689 48.7534 5.54346V11H47.1934ZM46.5342 7.20605L45.6699 7.23535C45.0205 7.25488 44.5371 7.37207 44.2197 7.58691C43.9023 7.80176 43.7437 8.12891 43.7437 8.56836C43.7437 9.19824 44.105 9.51318 44.8276 9.51318C45.3452 9.51318 45.7578 9.36426 46.0654 9.06641C46.3779 8.76855 46.5342 8.37305 46.5342 7.87988V7.20605ZM53.2944 2.81152V5.96094H56.4146V2.81152H58.6484V11H56.4146V7.62354H53.2944V11H51.0605V2.81152H53.2944ZM63.1528 2.81152V6.04883C63.1528 6.39062 63.0967 7.22559 62.9844 8.55371L66.7637 2.81152H69.4517V11H67.291V7.7334C67.291 7.15234 67.3398 6.33203 67.4375 5.27246L63.6729 11H60.9922V2.81152H63.1528ZM73.0479 11H70.6309L72.8354 7.7627C72.3081 7.54297 71.9077 7.22559 71.6343 6.81055C71.3657 6.39551 71.2314 5.90723 71.2314 5.3457C71.2314 4.55469 71.5269 3.93457 72.1177 3.48535C72.7134 3.03613 73.5239 2.81152 74.5493 2.81152H78.3579V11H76.124V7.95312H74.8936L73.0479 11ZM73.4214 5.36035C73.4214 5.70215 73.5557 5.9707 73.8242 6.16602C74.0928 6.35645 74.4443 6.45166 74.8789 6.45166H76.124V4.38623H74.5933C74.2271 4.38623 73.939 4.47656 73.729 4.65723C73.5239 4.83301 73.4214 5.06738 73.4214 5.36035Z" fill="white"/>
</svg>
