<svg width="75" height="12" viewBox="0 0 75 12" fill="none" xmlns="http://www.w3.org/2000/svg">
<path d="M9.07812 11H6.5L2.61816 5.57275V11H0.347656V0.291992H2.61816V5.47754L6.45605 0.291992H8.87305L4.96924 5.43359L9.07812 11ZM12.0298 6.89111C12.0298 7.70166 12.1616 8.31445 12.4253 8.72949C12.6938 9.14453 13.1284 9.35205 13.729 9.35205C14.3247 9.35205 14.752 9.14697 15.0107 8.73682C15.2744 8.32178 15.4062 7.70654 15.4062 6.89111C15.4062 6.08057 15.2744 5.47266 15.0107 5.06738C14.7471 4.66211 14.3149 4.45947 13.7144 4.45947C13.1187 4.45947 12.689 4.66211 12.4253 5.06738C12.1616 5.46777 12.0298 6.07568 12.0298 6.89111ZM17.6914 6.89111C17.6914 8.22412 17.3398 9.2666 16.6367 10.0186C15.9336 10.7705 14.9546 11.1465 13.6997 11.1465C12.9136 11.1465 12.2202 10.9756 11.6196 10.6338C11.019 10.2871 10.5576 9.7915 10.2354 9.14697C9.91309 8.50244 9.75195 7.75049 9.75195 6.89111C9.75195 5.55322 10.1011 4.51318 10.7993 3.771C11.4976 3.02881 12.479 2.65771 13.7437 2.65771C14.5298 2.65771 15.2231 2.82861 15.8237 3.17041C16.4243 3.51221 16.8857 4.00293 17.208 4.64258C17.5303 5.28223 17.6914 6.03174 17.6914 6.89111ZM21.771 2.81152V5.96094H24.8911V2.81152H27.125V11H24.8911V7.62354H21.771V11H19.5371V2.81152H21.771ZM36.2437 2.81152V4.48877H33.563V11H31.3291V4.48877H28.6411V2.81152H36.2437ZM42.9746 11L42.5425 9.88672H42.4839C42.1079 10.3604 41.7197 10.6899 41.3193 10.8755C40.9238 11.0562 40.4062 11.1465 39.7666 11.1465C38.9805 11.1465 38.3604 10.9219 37.9062 10.4727C37.457 10.0234 37.2324 9.38379 37.2324 8.55371C37.2324 7.68457 37.5352 7.04492 38.1406 6.63477C38.751 6.21973 39.6689 5.99023 40.8945 5.94629L42.3154 5.90234V5.54346C42.3154 4.71338 41.8906 4.29834 41.041 4.29834C40.3867 4.29834 39.6177 4.49609 38.7339 4.8916L37.9941 3.38281C38.9365 2.88965 39.9814 2.64307 41.1289 2.64307C42.2275 2.64307 43.0698 2.88232 43.6558 3.36084C44.2417 3.83936 44.5347 4.56689 44.5347 5.54346V11H42.9746ZM42.3154 7.20605L41.4512 7.23535C40.8018 7.25488 40.3184 7.37207 40.001 7.58691C39.6836 7.80176 39.5249 8.12891 39.5249 8.56836C39.5249 9.19824 39.8862 9.51318 40.6089 9.51318C41.1265 9.51318 41.5391 9.36426 41.8467 9.06641C42.1592 8.76855 42.3154 8.37305 42.3154 7.87988V7.20605ZM52.2104 2.81152H54.6714L51.4268 6.7373L54.957 11H52.4229L49.0757 6.84717V11H46.8418V2.81152H49.0757V6.78857L52.2104 2.81152ZM62.9038 2.81152V4.48877H60.2231V11H57.9893V4.48877H55.3013V2.81152H62.9038ZM66.6685 5.97559H67.7451C68.9951 5.97559 69.9204 6.17578 70.521 6.57617C71.1216 6.97656 71.4219 7.58203 71.4219 8.39258C71.4219 9.25684 71.1216 9.90869 70.521 10.3481C69.9204 10.7827 69.022 11 67.8257 11H64.4346V2.81152H66.6685V5.97559ZM69.188 8.42188C69.188 8.10449 69.061 7.875 68.8071 7.7334C68.5532 7.5918 68.1748 7.521 67.6719 7.521H66.6685V9.45459H67.7012C68.6924 9.45459 69.188 9.11035 69.188 8.42188ZM74.8423 11H72.6084V2.81152H74.8423V11Z" fill="black"/>
</svg>
