<svg width="164" height="16" viewBox="0 0 164 16" fill="none" xmlns="http://www.w3.org/2000/svg">
<path d="M8.17725 12H6.66846L1.71729 6.57275V12H0.472168V1.29199H1.71729V6.47754L6.54395 1.29199H7.97217L3.2334 6.49219L8.17725 12ZM16.4023 7.979C16.4023 9.2876 16.0728 10.3105 15.4136 11.0479C14.7544 11.7803 13.8438 12.1465 12.6816 12.1465C11.9639 12.1465 11.3267 11.978 10.77 11.6411C10.2134 11.3042 9.78369 10.8208 9.48096 10.1909C9.17822 9.56104 9.02686 8.82373 9.02686 7.979C9.02686 6.67041 9.354 5.65234 10.0083 4.9248C10.6626 4.19238 11.5708 3.82617 12.7329 3.82617C13.856 3.82617 14.7471 4.19971 15.4062 4.94678C16.0703 5.69385 16.4023 6.70459 16.4023 7.979ZM10.2866 7.979C10.2866 9.00439 10.4917 9.78564 10.9019 10.3228C11.312 10.8599 11.915 11.1284 12.7109 11.1284C13.5068 11.1284 14.1099 10.8623 14.52 10.3301C14.9351 9.79297 15.1426 9.00928 15.1426 7.979C15.1426 6.9585 14.9351 6.18457 14.52 5.65723C14.1099 5.125 13.502 4.85889 12.6963 4.85889C11.9004 4.85889 11.2998 5.12012 10.8945 5.64258C10.4893 6.16504 10.2866 6.94385 10.2866 7.979ZM22.2764 12.1465C21.7539 12.1465 21.2754 12.0513 20.8408 11.8608C20.4111 11.6655 20.0498 11.3677 19.7568 10.9673H19.6689C19.7275 11.436 19.7568 11.8804 19.7568 12.3003V15.6035H18.541V3.97266H19.5298L19.6982 5.07129H19.7568C20.0693 4.63184 20.4331 4.31445 20.8481 4.11914C21.2632 3.92383 21.7393 3.82617 22.2764 3.82617C23.3408 3.82617 24.1611 4.18994 24.7373 4.91748C25.3184 5.64502 25.6089 6.66553 25.6089 7.979C25.6089 9.29736 25.3135 10.3228 24.7227 11.0552C24.1367 11.7827 23.3213 12.1465 22.2764 12.1465ZM22.1006 4.85889C21.2803 4.85889 20.687 5.08594 20.3208 5.54004C19.9546 5.99414 19.7666 6.7168 19.7568 7.70801V7.979C19.7568 9.10693 19.9448 9.91504 20.3208 10.4033C20.6968 10.8867 21.2998 11.1284 22.1299 11.1284C22.8232 11.1284 23.3652 10.8477 23.7559 10.2861C24.1514 9.72461 24.3491 8.95068 24.3491 7.96436C24.3491 6.96338 24.1514 6.19678 23.7559 5.66455C23.3652 5.12744 22.8135 4.85889 22.1006 4.85889ZM28.9561 12H27.7402V3.97266H34.4785V12H33.248V5.02734H28.9561V12ZM43.9854 7.979C43.9854 9.2876 43.6558 10.3105 42.9966 11.0479C42.3374 11.7803 41.4268 12.1465 40.2646 12.1465C39.5469 12.1465 38.9097 11.978 38.353 11.6411C37.7964 11.3042 37.3667 10.8208 37.064 10.1909C36.7612 9.56104 36.6099 8.82373 36.6099 7.979C36.6099 6.67041 36.937 5.65234 37.5913 4.9248C38.2456 4.19238 39.1538 3.82617 40.3159 3.82617C41.439 3.82617 42.3301 4.19971 42.9893 4.94678C43.6533 5.69385 43.9854 6.70459 43.9854 7.979ZM37.8696 7.979C37.8696 9.00439 38.0747 9.78564 38.4849 10.3228C38.895 10.8599 39.498 11.1284 40.2939 11.1284C41.0898 11.1284 41.6929 10.8623 42.103 10.3301C42.5181 9.79297 42.7256 9.00928 42.7256 7.979C42.7256 6.9585 42.5181 6.18457 42.103 5.65723C41.6929 5.125 41.085 4.85889 40.2793 4.85889C39.4834 4.85889 38.8828 5.12012 38.4775 5.64258C38.0723 6.16504 37.8696 6.94385 37.8696 7.979ZM49.8594 12.1465C49.3369 12.1465 48.8584 12.0513 48.4238 11.8608C47.9941 11.6655 47.6328 11.3677 47.3398 10.9673H47.252C47.3105 11.436 47.3398 11.8804 47.3398 12.3003V15.6035H46.124V3.97266H47.1128L47.2812 5.07129H47.3398C47.6523 4.63184 48.0161 4.31445 48.4312 4.11914C48.8462 3.92383 49.3223 3.82617 49.8594 3.82617C50.9238 3.82617 51.7441 4.18994 52.3203 4.91748C52.9014 5.64502 53.1919 6.66553 53.1919 7.979C53.1919 9.29736 52.8965 10.3228 52.3057 11.0552C51.7197 11.7827 50.9043 12.1465 49.8594 12.1465ZM49.6836 4.85889C48.8633 4.85889 48.27 5.08594 47.9038 5.54004C47.5376 5.99414 47.3496 6.7168 47.3398 7.70801V7.979C47.3398 9.10693 47.5278 9.91504 47.9038 10.4033C48.2798 10.8867 48.8828 11.1284 49.7129 11.1284C50.4062 11.1284 50.9482 10.8477 51.3389 10.2861C51.7344 9.72461 51.9321 8.95068 51.9321 7.96436C51.9321 6.96338 51.7344 6.19678 51.3389 5.66455C50.9482 5.12744 50.3965 4.85889 49.6836 4.85889ZM60.2598 12L60.0181 10.8574H59.9595C59.5591 11.3604 59.1587 11.7021 58.7583 11.8828C58.3628 12.0586 57.8672 12.1465 57.2715 12.1465C56.4756 12.1465 55.8506 11.9414 55.3965 11.5312C54.9473 11.1211 54.7227 10.5376 54.7227 9.78076C54.7227 8.15967 56.019 7.31006 58.6118 7.23193L59.9741 7.18799V6.68994C59.9741 6.06006 59.8374 5.59619 59.564 5.29834C59.2954 4.99561 58.8633 4.84424 58.2676 4.84424C57.5986 4.84424 56.8418 5.04932 55.9971 5.45947L55.6235 4.5293C56.019 4.31445 56.4512 4.146 56.9199 4.02393C57.3936 3.90186 57.8672 3.84082 58.3408 3.84082C59.2979 3.84082 60.0059 4.05322 60.4648 4.47803C60.9287 4.90283 61.1606 5.58398 61.1606 6.52148V12H60.2598ZM57.5132 11.1431C58.27 11.1431 58.8633 10.9355 59.293 10.5205C59.7275 10.1055 59.9448 9.52441 59.9448 8.77734V8.05225L58.729 8.10352C57.7622 8.1377 57.064 8.28906 56.6343 8.55762C56.2095 8.82129 55.9971 9.23389 55.9971 9.79541C55.9971 10.2349 56.1289 10.5693 56.3926 10.7988C56.6611 11.0283 57.0347 11.1431 57.5132 11.1431ZM69.0854 5.0127H66.478V12H65.2622V5.0127H62.6841V3.97266H69.0854V5.0127ZM71.8174 3.97266V9.06299L71.7661 10.396L71.7441 10.8135L76.0874 3.97266H77.6035V12H76.4683V7.09277L76.4902 6.12598L76.5269 5.17383L72.1909 12H70.6748V3.97266H71.8174ZM86.6929 5.98682C86.6929 6.50928 86.5415 6.90723 86.2388 7.18066C85.9409 7.44922 85.521 7.62988 84.979 7.72266V7.78857C85.6626 7.88135 86.1606 8.08154 86.4731 8.38916C86.7905 8.69678 86.9492 9.12158 86.9492 9.66357C86.9492 10.4106 86.6733 10.9868 86.1216 11.3921C85.5747 11.7974 84.7739 12 83.7192 12H80.1816V3.97266H83.7046C85.6968 3.97266 86.6929 4.64404 86.6929 5.98682ZM85.7334 9.58301C85.7334 9.14844 85.5674 8.8335 85.2354 8.63818C84.9082 8.43799 84.3638 8.33789 83.6021 8.33789H81.3975V10.9819H83.6313C85.0327 10.9819 85.7334 10.5156 85.7334 9.58301ZM85.5063 6.104C85.5063 5.71338 85.355 5.4375 85.0522 5.27637C84.7544 5.11035 84.3003 5.02734 83.6899 5.02734H81.3975V7.29053H83.4556C84.2075 7.29053 84.7373 7.19775 85.0449 7.01221C85.3525 6.82666 85.5063 6.52393 85.5063 6.104ZM89.9375 3.97266V7.33447H94.4346V3.97266H95.6504V12H94.4346V8.38184H89.9375V12H88.7217V3.97266H89.9375ZM99.4443 7.29053H101.634C102.655 7.29053 103.409 7.48096 103.897 7.86182C104.391 8.23779 104.637 8.80176 104.637 9.55371C104.637 10.3594 104.376 10.9697 103.854 11.3848C103.336 11.7949 102.572 12 101.561 12H98.2285V3.97266H99.4443V7.29053ZM107.201 12H105.985V3.97266H107.201V12ZM99.4443 8.33789V10.9819H101.502C102.792 10.9819 103.436 10.5303 103.436 9.62695C103.436 9.17773 103.287 8.85059 102.989 8.64551C102.691 8.44043 102.184 8.33789 101.466 8.33789H99.4443ZM113.177 12.1465C111.991 12.1465 111.053 11.7852 110.365 11.0625C109.681 10.3398 109.339 9.33643 109.339 8.05225C109.339 6.7583 109.657 5.73047 110.292 4.96875C110.931 4.20703 111.788 3.82617 112.862 3.82617C113.868 3.82617 114.664 4.1582 115.25 4.82227C115.836 5.48145 116.129 6.35303 116.129 7.43701V8.20605H110.599C110.624 9.14844 110.86 9.86377 111.31 10.3521C111.764 10.8403 112.401 11.0845 113.221 11.0845C114.085 11.0845 114.94 10.9038 115.785 10.5425V11.6265C115.355 11.812 114.947 11.9438 114.562 12.022C114.181 12.105 113.719 12.1465 113.177 12.1465ZM112.848 4.84424C112.203 4.84424 111.688 5.0542 111.302 5.47412C110.921 5.89404 110.697 6.4751 110.628 7.21729H114.825C114.825 6.45068 114.654 5.86475 114.312 5.45947C113.971 5.04932 113.482 4.84424 112.848 4.84424ZM125.313 12.1465C124.151 12.1465 123.25 11.79 122.611 11.0771C121.976 10.3594 121.659 9.34619 121.659 8.0376C121.659 6.69482 121.981 5.65723 122.625 4.9248C123.275 4.19238 124.198 3.82617 125.394 3.82617C125.78 3.82617 126.166 3.86768 126.551 3.95068C126.937 4.03369 127.24 4.13135 127.459 4.24365L127.086 5.27637C126.817 5.16895 126.524 5.08105 126.207 5.0127C125.89 4.93945 125.609 4.90283 125.365 4.90283C123.734 4.90283 122.918 5.94287 122.918 8.02295C122.918 9.00928 123.116 9.76611 123.512 10.2935C123.912 10.8208 124.503 11.0845 125.284 11.0845C125.953 11.0845 126.639 10.9404 127.342 10.6523V11.729C126.805 12.0073 126.129 12.1465 125.313 12.1465ZM134.19 12L133.949 10.8574H133.89C133.49 11.3604 133.089 11.7021 132.689 11.8828C132.293 12.0586 131.798 12.1465 131.202 12.1465C130.406 12.1465 129.781 11.9414 129.327 11.5312C128.878 11.1211 128.653 10.5376 128.653 9.78076C128.653 8.15967 129.95 7.31006 132.542 7.23193L133.905 7.18799V6.68994C133.905 6.06006 133.768 5.59619 133.495 5.29834C133.226 4.99561 132.794 4.84424 132.198 4.84424C131.529 4.84424 130.772 5.04932 129.928 5.45947L129.554 4.5293C129.95 4.31445 130.382 4.146 130.851 4.02393C131.324 3.90186 131.798 3.84082 132.271 3.84082C133.229 3.84082 133.937 4.05322 134.396 4.47803C134.859 4.90283 135.091 5.58398 135.091 6.52148V12H134.19ZM131.444 11.1431C132.201 11.1431 132.794 10.9355 133.224 10.5205C133.658 10.1055 133.875 9.52441 133.875 8.77734V8.05225L132.66 8.10352C131.693 8.1377 130.995 8.28906 130.565 8.55762C130.14 8.82129 129.928 9.23389 129.928 9.79541C129.928 10.2349 130.06 10.5693 130.323 10.7988C130.592 11.0283 130.965 11.1431 131.444 11.1431ZM138.746 3.97266V9.06299L138.695 10.396L138.673 10.8135L143.016 3.97266H144.532V12H143.397V7.09277L143.419 6.12598L143.456 5.17383L139.12 12H137.604V3.97266H138.746ZM141.039 2.91064C140.135 2.91064 139.476 2.7373 139.061 2.39062C138.646 2.03906 138.414 1.46289 138.365 0.662109H139.508C139.552 1.16992 139.684 1.52393 139.903 1.72412C140.128 1.92432 140.516 2.02441 141.068 2.02441C141.571 2.02441 141.942 1.91699 142.181 1.70215C142.425 1.4873 142.574 1.14062 142.628 0.662109H143.778C143.719 1.43359 143.473 2.00244 143.038 2.36865C142.604 2.72998 141.937 2.91064 141.039 2.91064ZM152.523 5.0127H149.916V12H148.7V5.0127H146.122V3.97266H152.523V5.0127ZM155.328 7.29053H157.518C158.539 7.29053 159.293 7.48096 159.781 7.86182C160.274 8.23779 160.521 8.80176 160.521 9.55371C160.521 10.3594 160.26 10.9697 159.737 11.3848C159.22 11.7949 158.456 12 157.445 12H154.112V3.97266H155.328V7.29053ZM163.084 12H161.869V3.97266H163.084V12ZM155.328 8.33789V10.9819H157.386C158.675 10.9819 159.32 10.5303 159.32 9.62695C159.32 9.17773 159.171 8.85059 158.873 8.64551C158.575 8.44043 158.067 8.33789 157.35 8.33789H155.328Z" fill="#188BFA"/>
</svg>
