<svg width="262" height="25" viewBox="0 0 262 25" fill="none" xmlns="http://www.w3.org/2000/svg">
<path d="M13.2842 19H10.8701L2.94824 10.3164V19H0.956055V1.86719H2.94824V10.1641L10.6709 1.86719H12.9561L5.37402 10.1875L13.2842 19ZM26.4443 12.5664C26.4443 14.6602 25.917 16.2969 24.8623 17.4766C23.8076 18.6484 22.3506 19.2344 20.4912 19.2344C19.3428 19.2344 18.3232 18.9648 17.4326 18.4258C16.542 17.8867 15.8545 17.1133 15.3701 16.1055C14.8857 15.0977 14.6436 13.918 14.6436 12.5664C14.6436 10.4727 15.167 8.84375 16.2139 7.67969C17.2607 6.50781 18.7139 5.92188 20.5732 5.92188C22.3701 5.92188 23.7959 6.51953 24.8506 7.71484C25.9131 8.91016 26.4443 10.5273 26.4443 12.5664ZM16.6592 12.5664C16.6592 14.207 16.9873 15.457 17.6436 16.3164C18.2998 17.1758 19.2646 17.6055 20.5381 17.6055C21.8115 17.6055 22.7764 17.1797 23.4326 16.3281C24.0967 15.4688 24.4287 14.2148 24.4287 12.5664C24.4287 10.9336 24.0967 9.69531 23.4326 8.85156C22.7764 8 21.8037 7.57422 20.5146 7.57422C19.2412 7.57422 18.2803 7.99219 17.6318 8.82812C16.9834 9.66406 16.6592 10.9102 16.6592 12.5664ZM35.8428 19.2344C35.0068 19.2344 34.2412 19.082 33.5459 18.7773C32.8584 18.4648 32.2803 17.9883 31.8115 17.3477H31.6709C31.7646 18.0977 31.8115 18.8086 31.8115 19.4805V24.7656H29.8662V6.15625H31.4482L31.7178 7.91406H31.8115C32.3115 7.21094 32.8936 6.70312 33.5576 6.39062C34.2217 6.07812 34.9834 5.92188 35.8428 5.92188C37.5459 5.92188 38.8584 6.50391 39.7803 7.66797C40.71 8.83203 41.1748 10.4648 41.1748 12.5664C41.1748 14.6758 40.7021 16.3164 39.7568 17.4883C38.8193 18.6523 37.5146 19.2344 35.8428 19.2344ZM35.5615 7.57422C34.249 7.57422 33.2998 7.9375 32.7139 8.66406C32.1279 9.39062 31.8271 10.5469 31.8115 12.1328V12.5664C31.8115 14.3711 32.1123 15.6641 32.7139 16.4453C33.3154 17.2188 34.2803 17.6055 35.6084 17.6055C36.7178 17.6055 37.585 17.1562 38.21 16.2578C38.8428 15.3594 39.1592 14.1211 39.1592 12.543C39.1592 10.9414 38.8428 9.71484 38.21 8.86328C37.585 8.00391 36.7021 7.57422 35.5615 7.57422ZM46.5303 19H44.585V6.15625H55.3662V19H53.3975V7.84375H46.5303V19ZM70.5771 12.5664C70.5771 14.6602 70.0498 16.2969 68.9951 17.4766C67.9404 18.6484 66.4834 19.2344 64.624 19.2344C63.4756 19.2344 62.4561 18.9648 61.5654 18.4258C60.6748 17.8867 59.9873 17.1133 59.5029 16.1055C59.0186 15.0977 58.7764 13.918 58.7764 12.5664C58.7764 10.4727 59.2998 8.84375 60.3467 7.67969C61.3936 6.50781 62.8467 5.92188 64.7061 5.92188C66.5029 5.92188 67.9287 6.51953 68.9834 7.71484C70.0459 8.91016 70.5771 10.5273 70.5771 12.5664ZM60.792 12.5664C60.792 14.207 61.1201 15.457 61.7764 16.3164C62.4326 17.1758 63.3975 17.6055 64.6709 17.6055C65.9443 17.6055 66.9092 17.1797 67.5654 16.3281C68.2295 15.4688 68.5615 14.2148 68.5615 12.5664C68.5615 10.9336 68.2295 9.69531 67.5654 8.85156C66.9092 8 65.9365 7.57422 64.6475 7.57422C63.374 7.57422 62.4131 7.99219 61.7646 8.82812C61.1162 9.66406 60.792 10.9102 60.792 12.5664ZM79.9756 19.2344C79.1396 19.2344 78.374 19.082 77.6787 18.7773C76.9912 18.4648 76.4131 17.9883 75.9443 17.3477H75.8037C75.8975 18.0977 75.9443 18.8086 75.9443 19.4805V24.7656H73.999V6.15625H75.5811L75.8506 7.91406H75.9443C76.4443 7.21094 77.0264 6.70312 77.6904 6.39062C78.3545 6.07812 79.1162 5.92188 79.9756 5.92188C81.6787 5.92188 82.9912 6.50391 83.9131 7.66797C84.8428 8.83203 85.3076 10.4648 85.3076 12.5664C85.3076 14.6758 84.835 16.3164 83.8896 17.4883C82.9521 18.6523 81.6475 19.2344 79.9756 19.2344ZM79.6943 7.57422C78.3818 7.57422 77.4326 7.9375 76.8467 8.66406C76.2607 9.39062 75.96 10.5469 75.9443 12.1328V12.5664C75.9443 14.3711 76.2451 15.6641 76.8467 16.4453C77.4482 17.2188 78.4131 17.6055 79.7412 17.6055C80.8506 17.6055 81.7178 17.1562 82.3428 16.2578C82.9756 15.3594 83.292 14.1211 83.292 12.543C83.292 10.9414 82.9756 9.71484 82.3428 8.86328C81.7178 8.00391 80.835 7.57422 79.6943 7.57422ZM96.6162 19L96.2295 17.1719H96.1357C95.4951 17.9766 94.8545 18.5234 94.2139 18.8125C93.5811 19.0938 92.7881 19.2344 91.835 19.2344C90.5615 19.2344 89.5615 18.9062 88.835 18.25C88.1162 17.5938 87.7568 16.6602 87.7568 15.4492C87.7568 12.8555 89.8311 11.4961 93.9795 11.3711L96.1592 11.3008V10.5039C96.1592 9.49609 95.9404 8.75391 95.5029 8.27734C95.0732 7.79297 94.3818 7.55078 93.4287 7.55078C92.3584 7.55078 91.1475 7.87891 89.7959 8.53516L89.1982 7.04688C89.8311 6.70312 90.5225 6.43359 91.2725 6.23828C92.0303 6.04297 92.7881 5.94531 93.5459 5.94531C95.0771 5.94531 96.21 6.28516 96.9443 6.96484C97.6865 7.64453 98.0576 8.73438 98.0576 10.2344V19H96.6162ZM92.2217 17.6289C93.4326 17.6289 94.3818 17.2969 95.0693 16.6328C95.7646 15.9688 96.1123 15.0391 96.1123 13.8438V12.6836L94.167 12.7656C92.6201 12.8203 91.5029 13.0625 90.8154 13.4922C90.1357 13.9141 89.7959 14.5742 89.7959 15.4727C89.7959 16.1758 90.0068 16.7109 90.4287 17.0781C90.8584 17.4453 91.4561 17.6289 92.2217 17.6289ZM110.737 7.82031H106.565V19H104.62V7.82031H100.495V6.15625H110.737V7.82031ZM115.108 6.15625V14.3008L115.026 16.4336L114.991 17.1016L121.94 6.15625H124.366V19H122.55V11.1484L122.585 9.60156L122.644 8.07812L115.706 19H113.28V6.15625H115.108ZM138.909 9.37891C138.909 10.2148 138.667 10.8516 138.183 11.2891C137.706 11.7188 137.034 12.0078 136.167 12.1562V12.2617C137.261 12.4102 138.058 12.7305 138.558 13.2227C139.065 13.7148 139.319 14.3945 139.319 15.2617C139.319 16.457 138.878 17.3789 137.995 18.0273C137.12 18.6758 135.839 19 134.151 19H128.491V6.15625H134.128C137.315 6.15625 138.909 7.23047 138.909 9.37891ZM137.374 15.1328C137.374 14.4375 137.108 13.9336 136.577 13.6211C136.054 13.3008 135.183 13.1406 133.964 13.1406H130.437V17.3711H134.011C136.253 17.3711 137.374 16.625 137.374 15.1328ZM137.011 9.56641C137.011 8.94141 136.769 8.5 136.284 8.24219C135.808 7.97656 135.081 7.84375 134.104 7.84375H130.437V11.4648H133.729C134.933 11.4648 135.78 11.3164 136.272 11.0195C136.765 10.7227 137.011 10.2383 137.011 9.56641ZM144.101 6.15625V11.5352H151.296V6.15625H153.241V19H151.296V13.2109H144.101V19H142.155V6.15625H144.101ZM159.312 11.4648H162.815C164.448 11.4648 165.655 11.7695 166.437 12.3789C167.226 12.9805 167.62 13.8828 167.62 15.0859C167.62 16.375 167.202 17.3516 166.366 18.0156C165.538 18.6719 164.315 19 162.698 19H157.366V6.15625H159.312V11.4648ZM171.722 19H169.776V6.15625H171.722V19ZM159.312 13.1406V17.3711H162.604C164.667 17.3711 165.698 16.6484 165.698 15.2031C165.698 14.4844 165.46 13.9609 164.983 13.6328C164.507 13.3047 163.694 13.1406 162.546 13.1406H159.312ZM181.284 19.2344C179.386 19.2344 177.886 18.6562 176.784 17.5C175.69 16.3438 175.144 14.7383 175.144 12.6836C175.144 10.6133 175.651 8.96875 176.667 7.75C177.69 6.53125 179.062 5.92188 180.78 5.92188C182.39 5.92188 183.663 6.45312 184.601 7.51562C185.538 8.57031 186.007 9.96484 186.007 11.6992V12.9297H177.159C177.198 14.4375 177.577 15.582 178.296 16.3633C179.022 17.1445 180.042 17.5352 181.354 17.5352C182.737 17.5352 184.104 17.2461 185.456 16.668V18.4023C184.769 18.6992 184.116 18.9102 183.499 19.0352C182.89 19.168 182.151 19.2344 181.284 19.2344ZM180.757 7.55078C179.726 7.55078 178.901 7.88672 178.284 8.55859C177.675 9.23047 177.315 10.1602 177.206 11.3477H183.921C183.921 10.1211 183.647 9.18359 183.101 8.53516C182.554 7.87891 181.772 7.55078 180.757 7.55078ZM200.702 19.2344C198.843 19.2344 197.401 18.6641 196.378 17.5234C195.362 16.375 194.854 14.7539 194.854 12.6602C194.854 10.5117 195.37 8.85156 196.401 7.67969C197.44 6.50781 198.917 5.92188 200.831 5.92188C201.448 5.92188 202.065 5.98828 202.683 6.12109C203.3 6.25391 203.784 6.41016 204.136 6.58984L203.538 8.24219C203.108 8.07031 202.64 7.92969 202.132 7.82031C201.624 7.70312 201.175 7.64453 200.784 7.64453C198.175 7.64453 196.87 9.30859 196.87 12.6367C196.87 14.2148 197.187 15.4258 197.819 16.2695C198.46 17.1133 199.405 17.5352 200.655 17.5352C201.726 17.5352 202.823 17.3047 203.948 16.8438V18.5664C203.089 19.0117 202.007 19.2344 200.702 19.2344ZM214.905 19L214.519 17.1719H214.425C213.784 17.9766 213.144 18.5234 212.503 18.8125C211.87 19.0938 211.077 19.2344 210.124 19.2344C208.851 19.2344 207.851 18.9062 207.124 18.25C206.405 17.5938 206.046 16.6602 206.046 15.4492C206.046 12.8555 208.12 11.4961 212.269 11.3711L214.448 11.3008V10.5039C214.448 9.49609 214.229 8.75391 213.792 8.27734C213.362 7.79297 212.671 7.55078 211.718 7.55078C210.647 7.55078 209.437 7.87891 208.085 8.53516L207.487 7.04688C208.12 6.70312 208.812 6.43359 209.562 6.23828C210.319 6.04297 211.077 5.94531 211.835 5.94531C213.366 5.94531 214.499 6.28516 215.233 6.96484C215.976 7.64453 216.347 8.73438 216.347 10.2344V19H214.905ZM210.511 17.6289C211.722 17.6289 212.671 17.2969 213.358 16.6328C214.054 15.9688 214.401 15.0391 214.401 13.8438V12.6836L212.456 12.7656C210.909 12.8203 209.792 13.0625 209.104 13.4922C208.425 13.9141 208.085 14.5742 208.085 15.4727C208.085 16.1758 208.296 16.7109 208.718 17.0781C209.147 17.4453 209.745 17.6289 210.511 17.6289ZM222.194 6.15625V14.3008L222.112 16.4336L222.077 17.1016L229.026 6.15625H231.452V19H229.636V11.1484L229.671 9.60156L229.729 8.07812L222.792 19H220.366V6.15625H222.194ZM225.862 4.45703C224.417 4.45703 223.362 4.17969 222.698 3.625C222.034 3.0625 221.663 2.14062 221.585 0.859375H223.413C223.483 1.67188 223.694 2.23828 224.046 2.55859C224.405 2.87891 225.026 3.03906 225.909 3.03906C226.714 3.03906 227.308 2.86719 227.69 2.52344C228.081 2.17969 228.319 1.625 228.405 0.859375H230.245C230.151 2.09375 229.757 3.00391 229.062 3.58984C228.366 4.16797 227.3 4.45703 225.862 4.45703ZM244.237 7.82031H240.065V19H238.12V7.82031H233.995V6.15625H244.237V7.82031ZM248.726 11.4648H252.229C253.862 11.4648 255.069 11.7695 255.851 12.3789C256.64 12.9805 257.034 13.8828 257.034 15.0859C257.034 16.375 256.616 17.3516 255.78 18.0156C254.952 18.6719 253.729 19 252.112 19H246.78V6.15625H248.726V11.4648ZM261.136 19H259.19V6.15625H261.136V19ZM248.726 13.1406V17.3711H252.019C254.081 17.3711 255.112 16.6484 255.112 15.2031C255.112 14.4844 254.874 13.9609 254.397 13.6328C253.921 13.3047 253.108 13.1406 251.96 13.1406H248.726Z" fill="#188BFA"/>
</svg>
