<svg width="288" height="53" viewBox="0 0 288 53" fill="none" xmlns="http://www.w3.org/2000/svg">
<path d="M8.6543 11H7.9502V6.08496H2.1123V11H1.41504V1.00586H2.1123V5.44238H7.9502V1.00586H8.6543V11ZM14.3213 11.1367C13.2412 11.1367 12.3981 10.804 11.792 10.1387C11.1904 9.47331 10.8896 8.54134 10.8896 7.34277C10.8896 6.15788 11.1813 5.20996 11.7646 4.49902C12.348 3.78353 13.1341 3.42578 14.123 3.42578C14.998 3.42578 15.6885 3.73112 16.1943 4.3418C16.7002 4.95247 16.9531 5.7819 16.9531 6.83008V7.37695H11.6006C11.6097 8.39779 11.8467 9.17708 12.3115 9.71484C12.7809 10.2526 13.4508 10.5215 14.3213 10.5215C14.7451 10.5215 15.1165 10.4919 15.4355 10.4326C15.7591 10.3734 16.167 10.2458 16.6592 10.0498V10.665C16.2399 10.8473 15.8525 10.9704 15.4971 11.0342C15.1416 11.1025 14.7497 11.1367 14.3213 11.1367ZM14.123 4.02734C13.4076 4.02734 12.8333 4.26432 12.4004 4.73828C11.9674 5.20768 11.7145 5.88672 11.6416 6.77539H16.2354C16.2354 5.91406 16.0485 5.24186 15.6748 4.75879C15.3011 4.27116 14.7839 4.02734 14.123 4.02734ZM23.2832 3.56934V8.94238L23.2422 10.3438L27.6514 3.56934H28.5537V11H27.9043V5.66113L27.9316 4.22559L23.5225 11H22.6406V3.56934H23.2832ZM34.0156 11.1367C32.9538 11.1367 32.1221 10.8018 31.5205 10.1318C30.9189 9.46191 30.6182 8.52767 30.6182 7.3291C30.6182 6.09863 30.9303 5.1416 31.5547 4.45801C32.179 3.76986 33.0335 3.42578 34.1182 3.42578C34.7607 3.42578 35.376 3.53743 35.9639 3.76074L35.7793 4.3623C35.1367 4.14811 34.5785 4.04102 34.1045 4.04102C33.193 4.04102 32.5026 4.32357 32.0332 4.88867C31.5638 5.44922 31.3291 6.25814 31.3291 7.31543C31.3291 8.31803 31.5638 9.10417 32.0332 9.67383C32.5026 10.2389 33.1589 10.5215 34.002 10.5215C34.6764 10.5215 35.3031 10.4007 35.8818 10.1592V10.7881C35.4079 11.0205 34.7858 11.1367 34.0156 11.1367ZM38.3838 11H37.707V3.56934H43.6338V11H42.957V4.21191H38.3838V11ZM52.2744 7.27441C52.2744 8.48665 51.9805 9.43457 51.3926 10.1182C50.8047 10.7972 49.9935 11.1367 48.959 11.1367C48.3073 11.1367 47.7331 10.9795 47.2363 10.665C46.7396 10.3506 46.359 9.89941 46.0947 9.31152C45.8304 8.72363 45.6982 8.0446 45.6982 7.27441C45.6982 6.06217 45.9922 5.11882 46.5801 4.44434C47.168 3.7653 47.9746 3.42578 49 3.42578C50.0208 3.42578 50.8206 3.76986 51.3994 4.45801C51.9827 5.1416 52.2744 6.0804 52.2744 7.27441ZM46.4092 7.27441C46.4092 8.29525 46.6325 9.09277 47.0791 9.66699C47.5303 10.2367 48.166 10.5215 48.9863 10.5215C49.8066 10.5215 50.4401 10.2367 50.8867 9.66699C51.3379 9.09277 51.5635 8.29525 51.5635 7.27441C51.5635 6.24902 51.3356 5.45378 50.8799 4.88867C50.4287 4.32357 49.793 4.04102 48.9727 4.04102C48.1523 4.04102 47.5189 4.32357 47.0723 4.88867C46.6302 5.44922 46.4092 6.24447 46.4092 7.27441ZM59.4727 11H58.8027V4.19824H56.1709C56.0342 5.99837 55.8656 7.3724 55.665 8.32031C55.4691 9.26367 55.2139 9.95866 54.8994 10.4053C54.5895 10.8473 54.1862 11.0684 53.6895 11.0684C53.5117 11.0684 53.3568 11.0501 53.2246 11.0137V10.3984C53.3112 10.4258 53.4342 10.4395 53.5938 10.4395C54.1087 10.4395 54.5234 9.89714 54.8379 8.8125C55.1569 7.72331 55.3984 5.97559 55.5625 3.56934H59.4727V11ZM62.6377 6.7002H65.2559C67.0013 6.7002 67.874 7.38607 67.874 8.75781C67.874 9.46419 67.6302 10.0156 67.1426 10.4121C66.6549 10.804 65.9554 11 65.0439 11H61.9609V3.56934H62.6377V6.7002ZM62.6377 7.34277V10.3574H65.1533C65.8005 10.3574 66.2949 10.2207 66.6367 9.94727C66.9831 9.67383 67.1562 9.27279 67.1562 8.74414C67.1562 8.25195 67.0036 7.89648 66.6982 7.67773C66.3929 7.45443 65.8643 7.34277 65.1123 7.34277H62.6377ZM71.333 6.77539C72.6774 6.77539 73.3496 6.31283 73.3496 5.3877C73.3496 4.94564 73.1947 4.6084 72.8848 4.37598C72.5749 4.14355 72.1328 4.02734 71.5586 4.02734C71.194 4.02734 70.8545 4.07064 70.54 4.15723C70.2256 4.23926 69.8883 4.36003 69.5283 4.51953L69.2754 3.95898C70.0684 3.60352 70.8385 3.42578 71.5859 3.42578C72.3971 3.42578 73.0124 3.5944 73.4316 3.93164C73.8509 4.26888 74.0605 4.736 74.0605 5.33301C74.0605 6.19434 73.6185 6.74349 72.7344 6.98047V7.02148C73.2858 7.1582 73.6868 7.38607 73.9375 7.70508C74.1882 8.01953 74.3135 8.42285 74.3135 8.91504C74.3135 9.60319 74.0605 10.1455 73.5547 10.542C73.0534 10.9385 72.3561 11.1367 71.4629 11.1367C70.9798 11.1367 70.5378 11.0911 70.1367 11C69.7402 10.9043 69.4121 10.779 69.1523 10.624V9.94727C69.6217 10.1706 70.0273 10.3232 70.3691 10.4053C70.7109 10.4827 71.0755 10.5215 71.4629 10.5215C72.1374 10.5215 72.6615 10.3802 73.0352 10.0977C73.4134 9.81055 73.6025 9.40267 73.6025 8.87402C73.6025 8.35905 73.4225 7.97852 73.0625 7.73242C72.7025 7.48633 72.1624 7.36328 71.4424 7.36328H70.4102V6.77539H71.333ZM75.0176 3.56934H75.7148L77.2871 7.73926C77.7656 9.01986 78.0687 9.88346 78.1963 10.3301H78.2373C78.4287 9.74219 78.7409 8.86491 79.1738 7.69824L80.7461 3.56934H81.4434L78.1143 12.2031C77.8454 12.9049 77.6198 13.3789 77.4375 13.625C77.2552 13.8711 77.041 14.0557 76.7949 14.1787C76.5534 14.3018 76.2594 14.3633 75.9131 14.3633C75.6533 14.3633 75.3639 14.3154 75.0449 14.2197V13.6318C75.3092 13.7048 75.5941 13.7412 75.8994 13.7412C76.1318 13.7412 76.3369 13.6865 76.5146 13.5771C76.6924 13.4678 76.8519 13.2969 76.9932 13.0645C77.139 12.8366 77.3053 12.472 77.4922 11.9707C77.6836 11.474 77.8066 11.1504 77.8613 11L75.0176 3.56934ZM85.6885 11.1367C84.6084 11.1367 83.7653 10.804 83.1592 10.1387C82.5576 9.47331 82.2568 8.54134 82.2568 7.34277C82.2568 6.15788 82.5485 5.20996 83.1318 4.49902C83.7152 3.78353 84.5013 3.42578 85.4902 3.42578C86.3652 3.42578 87.0557 3.73112 87.5615 4.3418C88.0674 4.95247 88.3203 5.7819 88.3203 6.83008V7.37695H82.9678C82.9769 8.39779 83.2139 9.17708 83.6787 9.71484C84.1481 10.2526 84.818 10.5215 85.6885 10.5215C86.1123 10.5215 86.4837 10.4919 86.8027 10.4326C87.1263 10.3734 87.5342 10.2458 88.0264 10.0498V10.665C87.6071 10.8473 87.2197 10.9704 86.8643 11.0342C86.5088 11.1025 86.1169 11.1367 85.6885 11.1367ZM85.4902 4.02734C84.7747 4.02734 84.2005 4.26432 83.7676 4.73828C83.3346 5.20768 83.0817 5.88672 83.0088 6.77539H87.6025C87.6025 5.91406 87.4157 5.24186 87.042 4.75879C86.6683 4.27116 86.151 4.02734 85.4902 4.02734ZM93.8301 10.2754L94.2539 9.0791L96.3936 3.56934H97.3301V11H96.6875V4.38965C96.5872 4.67676 96.4801 4.9707 96.3662 5.27148C96.2568 5.57227 95.514 7.48177 94.1377 11H93.5361L91.4785 5.77734C91.3919 5.56771 91.3099 5.34668 91.2324 5.11426C91.1595 4.88184 91.0775 4.63118 90.9863 4.3623V11H90.3711V3.56934H91.2666L93.4131 9.03809C93.5817 9.48014 93.7207 9.89258 93.8301 10.2754ZM107.823 4.15723H104.132V11H103.455V3.56934H107.823V4.15723ZM115.493 7.27441C115.493 8.48665 115.199 9.43457 114.611 10.1182C114.023 10.7972 113.212 11.1367 112.178 11.1367C111.526 11.1367 110.952 10.9795 110.455 10.665C109.958 10.3506 109.578 9.89941 109.313 9.31152C109.049 8.72363 108.917 8.0446 108.917 7.27441C108.917 6.06217 109.211 5.11882 109.799 4.44434C110.387 3.7653 111.193 3.42578 112.219 3.42578C113.24 3.42578 114.039 3.76986 114.618 4.45801C115.201 5.1416 115.493 6.0804 115.493 7.27441ZM109.628 7.27441C109.628 8.29525 109.851 9.09277 110.298 9.66699C110.749 10.2367 111.385 10.5215 112.205 10.5215C113.025 10.5215 113.659 10.2367 114.105 9.66699C114.557 9.09277 114.782 8.29525 114.782 7.27441C114.782 6.24902 114.554 5.45378 114.099 4.88867C113.647 4.32357 113.012 4.04102 112.191 4.04102C111.371 4.04102 110.738 4.32357 110.291 4.88867C109.849 5.44922 109.628 6.24447 109.628 7.27441ZM122.268 4.15723H119.793V11H119.123V4.15723H116.587V3.56934H122.268V4.15723ZM129.944 7.27441C129.944 8.48665 129.65 9.43457 129.062 10.1182C128.475 10.7972 127.663 11.1367 126.629 11.1367C125.977 11.1367 125.403 10.9795 124.906 10.665C124.41 10.3506 124.029 9.89941 123.765 9.31152C123.5 8.72363 123.368 8.0446 123.368 7.27441C123.368 6.06217 123.662 5.11882 124.25 4.44434C124.838 3.7653 125.645 3.42578 126.67 3.42578C127.691 3.42578 128.491 3.76986 129.069 4.45801C129.653 5.1416 129.944 6.0804 129.944 7.27441ZM124.079 7.27441C124.079 8.29525 124.302 9.09277 124.749 9.66699C125.2 10.2367 125.836 10.5215 126.656 10.5215C127.477 10.5215 128.11 10.2367 128.557 9.66699C129.008 9.09277 129.233 8.29525 129.233 7.27441C129.233 6.24902 129.006 5.45378 128.55 4.88867C128.099 4.32357 127.463 4.04102 126.643 4.04102C125.822 4.04102 125.189 4.32357 124.742 4.88867C124.3 5.44922 124.079 6.24447 124.079 7.27441ZM137.703 5.36035C137.703 5.82975 137.587 6.19889 137.354 6.46777C137.122 6.7321 136.744 6.91667 136.22 7.02148V7.06934C136.817 7.1377 137.247 7.31087 137.512 7.58887C137.781 7.8623 137.915 8.25651 137.915 8.77148C137.915 9.48698 137.678 10.0384 137.204 10.4258C136.735 10.8086 136.047 11 135.14 11H132.002V3.56934H135.153C136.001 3.56934 136.637 3.72201 137.061 4.02734C137.489 4.33268 137.703 4.77702 137.703 5.36035ZM137.197 8.75781C137.197 7.84635 136.498 7.39062 135.099 7.39062H132.679V10.3574H135.194C136.53 10.3574 137.197 9.82422 137.197 8.75781ZM136.985 5.41504C136.985 4.9821 136.83 4.67448 136.521 4.49219C136.211 4.30534 135.746 4.21191 135.126 4.21191H132.679V6.75488H135.044C135.737 6.75488 136.233 6.64779 136.534 6.43359C136.835 6.2194 136.985 5.87988 136.985 5.41504ZM140.608 6.7002H142.974C144.719 6.7002 145.592 7.38607 145.592 8.75781C145.592 9.46419 145.348 10.0156 144.86 10.4121C144.373 10.804 143.673 11 142.762 11H139.932V3.56934H140.608V6.7002ZM140.608 7.34277V10.3574H142.871C143.514 10.3574 144.008 10.223 144.354 9.9541C144.701 9.68522 144.874 9.2819 144.874 8.74414C144.874 8.25195 144.721 7.89648 144.416 7.67773C144.111 7.45443 143.582 7.34277 142.83 7.34277H140.608ZM147.561 11H146.891V3.56934H147.561V11ZM153.063 11.1367C151.983 11.1367 151.14 10.804 150.534 10.1387C149.933 9.47331 149.632 8.54134 149.632 7.34277C149.632 6.15788 149.924 5.20996 150.507 4.49902C151.09 3.78353 151.876 3.42578 152.865 3.42578C153.74 3.42578 154.431 3.73112 154.937 4.3418C155.442 4.95247 155.695 5.7819 155.695 6.83008V7.37695H150.343C150.352 8.39779 150.589 9.17708 151.054 9.71484C151.523 10.2526 152.193 10.5215 153.063 10.5215C153.487 10.5215 153.859 10.4919 154.178 10.4326C154.501 10.3734 154.909 10.2458 155.401 10.0498V10.665C154.982 10.8473 154.595 10.9704 154.239 11.0342C153.884 11.1025 153.492 11.1367 153.063 11.1367ZM152.865 4.02734C152.15 4.02734 151.576 4.26432 151.143 4.73828C150.71 5.20768 150.457 5.88672 150.384 6.77539H154.978C154.978 5.91406 154.791 5.24186 154.417 4.75879C154.043 4.27116 153.526 4.02734 152.865 4.02734ZM166.441 10.3574H170.146V3.56934H170.823V11H161.383V3.56934H162.06V10.3574H165.765V3.56934H166.441V10.3574ZM177.83 11L177.659 9.82422H177.604C177.231 10.3027 176.846 10.6423 176.449 10.8428C176.057 11.0387 175.592 11.1367 175.055 11.1367C174.326 11.1367 173.758 10.9499 173.353 10.5762C172.947 10.2025 172.744 9.68522 172.744 9.02441C172.744 8.2998 173.045 7.73698 173.646 7.33594C174.253 6.9349 175.128 6.72298 176.271 6.7002L177.687 6.65918V6.16699C177.687 5.46061 177.543 4.92741 177.256 4.56738C176.969 4.20736 176.506 4.02734 175.868 4.02734C175.18 4.02734 174.467 4.21875 173.729 4.60156L173.476 4.01367C174.291 3.63086 175.098 3.43945 175.896 3.43945C176.711 3.43945 177.32 3.65137 177.721 4.0752C178.126 4.49902 178.329 5.15983 178.329 6.05762V11H177.83ZM175.096 10.5215C175.889 10.5215 176.513 10.2959 176.969 9.84473C177.429 9.389 177.659 8.75781 177.659 7.95117V7.21973L176.36 7.27441C175.317 7.32454 174.572 7.48861 174.125 7.7666C173.683 8.04004 173.462 8.46842 173.462 9.05176C173.462 9.5166 173.603 9.87891 173.886 10.1387C174.173 10.3939 174.576 10.5215 175.096 10.5215ZM180.339 6.53613C180.339 3.30957 181.248 1.4707 183.066 1.01953C183.704 0.860026 184.315 0.725586 184.898 0.616211C185.486 0.502279 186.006 0.402018 186.457 0.31543L186.58 0.90332L185.76 1.06055C184.406 1.31576 183.513 1.51172 183.08 1.64844C182.465 1.82617 181.982 2.25228 181.631 2.92676C181.285 3.60124 181.086 4.52409 181.036 5.69531H181.077C181.565 5.11654 182.039 4.7041 182.499 4.45801C182.959 4.20736 183.433 4.08203 183.921 4.08203C184.832 4.08203 185.53 4.37598 186.013 4.96387C186.496 5.55176 186.737 6.38802 186.737 7.47266C186.737 8.62565 186.459 9.52572 185.903 10.1729C185.347 10.8154 184.566 11.1367 183.559 11.1367C182.538 11.1367 181.745 10.738 181.18 9.94043C180.619 9.1429 180.339 8.00814 180.339 6.53613ZM183.613 10.5215C184.393 10.5215 184.987 10.2617 185.397 9.74219C185.812 9.22266 186.02 8.47526 186.02 7.5C186.02 6.57487 185.835 5.8776 185.466 5.4082C185.101 4.93424 184.563 4.69727 183.853 4.69727C183.324 4.69727 182.811 4.86361 182.314 5.19629C181.822 5.52441 181.392 5.98014 181.022 6.56348C181.022 7.37923 181.123 8.09473 181.323 8.70996C181.528 9.3252 181.825 9.78092 182.212 10.0771C182.599 10.3734 183.066 10.5215 183.613 10.5215ZM193.922 11H193.252V4.19824H190.62C190.483 5.99837 190.315 7.3724 190.114 8.32031C189.918 9.26367 189.663 9.95866 189.349 10.4053C189.039 10.8473 188.635 11.0684 188.139 11.0684C187.961 11.0684 187.806 11.0501 187.674 11.0137V10.3984C187.76 10.4258 187.883 10.4395 188.043 10.4395C188.558 10.4395 188.973 9.89714 189.287 8.8125C189.606 7.72331 189.848 5.97559 190.012 3.56934H193.922V11ZM202.556 7.27441C202.556 8.48665 202.262 9.43457 201.674 10.1182C201.086 10.7972 200.275 11.1367 199.24 11.1367C198.589 11.1367 198.014 10.9795 197.518 10.665C197.021 10.3506 196.64 9.89941 196.376 9.31152C196.112 8.72363 195.979 8.0446 195.979 7.27441C195.979 6.06217 196.273 5.11882 196.861 4.44434C197.449 3.7653 198.256 3.42578 199.281 3.42578C200.302 3.42578 201.102 3.76986 201.681 4.45801C202.264 5.1416 202.556 6.0804 202.556 7.27441ZM196.69 7.27441C196.69 8.29525 196.914 9.09277 197.36 9.66699C197.812 10.2367 198.447 10.5215 199.268 10.5215C200.088 10.5215 200.721 10.2367 201.168 9.66699C201.619 9.09277 201.845 8.29525 201.845 7.27441C201.845 6.24902 201.617 5.45378 201.161 4.88867C200.71 4.32357 200.074 4.04102 199.254 4.04102C198.434 4.04102 197.8 4.32357 197.354 4.88867C196.911 5.44922 196.69 6.24447 196.69 7.27441ZM205.29 3.56934V6.83008H210.007V3.56934H210.677V11H210.007V7.41797H205.29V11H204.613V3.56934H205.29ZM213.849 6.7002H216.214C217.959 6.7002 218.832 7.38607 218.832 8.75781C218.832 9.46419 218.588 10.0156 218.101 10.4121C217.613 10.804 216.913 11 216.002 11H213.172V3.56934H213.849V6.7002ZM213.849 7.34277V10.3574H216.111C216.754 10.3574 217.248 10.223 217.595 9.9541C217.941 9.68522 218.114 9.2819 218.114 8.74414C218.114 8.25195 217.962 7.89648 217.656 7.67773C217.351 7.45443 216.822 7.34277 216.07 7.34277H213.849ZM220.801 11H220.131V3.56934H220.801V11ZM227.582 3.56934V8.94238L227.541 10.3438L231.95 3.56934H232.853V11H232.203V5.66113L232.23 4.22559L227.821 11H226.939V3.56934H227.582ZM2.64551 25.7754C3.98991 25.7754 4.66211 25.3128 4.66211 24.3877C4.66211 23.9456 4.50716 23.6084 4.19727 23.376C3.88737 23.1436 3.44531 23.0273 2.87109 23.0273C2.50651 23.0273 2.16699 23.0706 1.85254 23.1572C1.53809 23.2393 1.20085 23.36 0.84082 23.5195L0.587891 22.959C1.38086 22.6035 2.15104 22.4258 2.89844 22.4258C3.70964 22.4258 4.32487 22.5944 4.74414 22.9316C5.16341 23.2689 5.37305 23.736 5.37305 24.333C5.37305 25.1943 4.93099 25.7435 4.04688 25.9805V26.0215C4.59831 26.1582 4.99935 26.3861 5.25 26.7051C5.50065 27.0195 5.62598 27.4229 5.62598 27.915C5.62598 28.6032 5.37305 29.1455 4.86719 29.542C4.36589 29.9385 3.66862 30.1367 2.77539 30.1367C2.29232 30.1367 1.85026 30.0911 1.44922 30C1.05273 29.9043 0.724609 29.779 0.464844 29.624V28.9473C0.934245 29.1706 1.33984 29.3232 1.68164 29.4053C2.02344 29.4827 2.38802 29.5215 2.77539 29.5215C3.44987 29.5215 3.97396 29.3802 4.34766 29.0977C4.72591 28.8105 4.91504 28.4027 4.91504 27.874C4.91504 27.359 4.73503 26.9785 4.375 26.7324C4.01497 26.4863 3.47493 26.3633 2.75488 26.3633H1.72266V25.7754H2.64551ZM12.0859 30L11.915 28.8242H11.8604C11.4867 29.3027 11.1016 29.6423 10.7051 29.8428C10.3132 30.0387 9.84831 30.1367 9.31055 30.1367C8.58138 30.1367 8.014 29.9499 7.6084 29.5762C7.2028 29.2025 7 28.6852 7 28.0244C7 27.2998 7.30078 26.737 7.90234 26.3359C8.50846 25.9349 9.38346 25.723 10.5273 25.7002L11.9424 25.6592V25.167C11.9424 24.4606 11.7988 23.9274 11.5117 23.5674C11.2246 23.2074 10.762 23.0273 10.124 23.0273C9.43587 23.0273 8.72266 23.2188 7.98438 23.6016L7.73145 23.0137C8.5472 22.6309 9.35384 22.4395 10.1514 22.4395C10.9671 22.4395 11.5755 22.6514 11.9766 23.0752C12.3822 23.499 12.585 24.1598 12.585 25.0576V30H12.0859ZM9.35156 29.5215C10.1445 29.5215 10.7689 29.2959 11.2246 28.8447C11.6849 28.389 11.915 27.7578 11.915 26.9512V26.2197L10.6162 26.2744C9.57259 26.3245 8.82747 26.4886 8.38086 26.7666C7.9388 27.04 7.71777 27.4684 7.71777 28.0518C7.71777 28.5166 7.85905 28.8789 8.1416 29.1387C8.42871 29.3939 8.83203 29.5215 9.35156 29.5215ZM19.3662 23.1572H15.6748V30H14.998V22.5693H19.3662V23.1572ZM27.0361 26.2744C27.0361 27.4867 26.7422 28.4346 26.1543 29.1182C25.5664 29.7972 24.7552 30.1367 23.7207 30.1367C23.069 30.1367 22.4948 29.9795 21.998 29.665C21.5013 29.3506 21.1208 28.8994 20.8564 28.3115C20.5921 27.7236 20.46 27.0446 20.46 26.2744C20.46 25.0622 20.7539 24.1188 21.3418 23.4443C21.9297 22.7653 22.7363 22.4258 23.7617 22.4258C24.7826 22.4258 25.5824 22.7699 26.1611 23.458C26.7445 24.1416 27.0361 25.0804 27.0361 26.2744ZM21.1709 26.2744C21.1709 27.2952 21.3942 28.0928 21.8408 28.667C22.292 29.2367 22.9277 29.5215 23.748 29.5215C24.5684 29.5215 25.2018 29.2367 25.6484 28.667C26.0996 28.0928 26.3252 27.2952 26.3252 26.2744C26.3252 25.249 26.0973 24.4538 25.6416 23.8887C25.1904 23.3236 24.5547 23.041 23.7344 23.041C22.9141 23.041 22.2806 23.3236 21.834 23.8887C21.3919 24.4492 21.1709 25.2445 21.1709 26.2744ZM33.8105 23.1572H31.3359V30H30.666V23.1572H28.1299V22.5693H33.8105V23.1572ZM41.4873 26.2744C41.4873 27.4867 41.1934 28.4346 40.6055 29.1182C40.0176 29.7972 39.2064 30.1367 38.1719 30.1367C37.5202 30.1367 36.946 29.9795 36.4492 29.665C35.9525 29.3506 35.5719 28.8994 35.3076 28.3115C35.0433 27.7236 34.9111 27.0446 34.9111 26.2744C34.9111 25.0622 35.2051 24.1188 35.793 23.4443C36.3809 22.7653 37.1875 22.4258 38.2129 22.4258C39.2337 22.4258 40.0335 22.7699 40.6123 23.458C41.1956 24.1416 41.4873 25.0804 41.4873 26.2744ZM35.6221 26.2744C35.6221 27.2952 35.8454 28.0928 36.292 28.667C36.7432 29.2367 37.3789 29.5215 38.1992 29.5215C39.0195 29.5215 39.653 29.2367 40.0996 28.667C40.5508 28.0928 40.7764 27.2952 40.7764 26.2744C40.7764 25.249 40.5485 24.4538 40.0928 23.8887C39.6416 23.3236 39.0059 23.041 38.1855 23.041C37.3652 23.041 36.7318 23.3236 36.2852 23.8887C35.8431 24.4492 35.6221 25.2445 35.6221 26.2744ZM49.2461 24.3604C49.2461 24.8298 49.1299 25.1989 48.8975 25.4678C48.665 25.7321 48.2868 25.9167 47.7627 26.0215V26.0693C48.3597 26.1377 48.7904 26.3109 49.0547 26.5889C49.3236 26.8623 49.458 27.2565 49.458 27.7715C49.458 28.487 49.221 29.0384 48.7471 29.4258C48.2777 29.8086 47.5895 30 46.6826 30H43.5449V22.5693H46.6963C47.5439 22.5693 48.1797 22.722 48.6035 23.0273C49.0319 23.3327 49.2461 23.777 49.2461 24.3604ZM48.7402 27.7578C48.7402 26.8464 48.0407 26.3906 46.6416 26.3906H44.2217V29.3574H46.7373C48.0726 29.3574 48.7402 28.8242 48.7402 27.7578ZM48.5283 24.415C48.5283 23.9821 48.3734 23.6745 48.0635 23.4922C47.7536 23.3053 47.2887 23.2119 46.6689 23.2119H44.2217V25.7549H46.5869C47.2796 25.7549 47.7764 25.6478 48.0771 25.4336C48.3779 25.2194 48.5283 24.8799 48.5283 24.415ZM55.5078 22.5693H56.3486L53.0195 26.165L56.5879 30H55.6787L52.165 26.2334V30H51.4746V22.5693H52.165V26.1787L55.5078 22.5693ZM58.543 22.5693V27.9424L58.502 29.3438L62.9111 22.5693H63.8135V30H63.1641V24.6611L63.1914 23.2256L58.7822 30H57.9004V22.5693H58.543ZM69.2617 26.5V25.9395H82.1406V26.5H69.2617ZM93.2832 24.3604C93.2832 24.8298 93.167 25.1989 92.9346 25.4678C92.7021 25.7321 92.3239 25.9167 91.7998 26.0215V26.0693C92.3968 26.1377 92.8275 26.3109 93.0918 26.5889C93.3607 26.8623 93.4951 27.2565 93.4951 27.7715C93.4951 28.487 93.2581 29.0384 92.7842 29.4258C92.3148 29.8086 91.6266 30 90.7197 30H87.582V22.5693H90.7334C91.5811 22.5693 92.2168 22.722 92.6406 23.0273C93.069 23.3327 93.2832 23.777 93.2832 24.3604ZM92.7773 27.7578C92.7773 26.8464 92.0778 26.3906 90.6787 26.3906H88.2588V29.3574H90.7744C92.1097 29.3574 92.7773 28.8242 92.7773 27.7578ZM92.5654 24.415C92.5654 23.9821 92.4105 23.6745 92.1006 23.4922C91.7907 23.3053 91.3258 23.2119 90.7061 23.2119H88.2588V25.7549H90.624C91.3167 25.7549 91.8135 25.6478 92.1143 25.4336C92.415 25.2194 92.5654 24.8799 92.5654 24.415ZM98.4785 30.1367C97.4167 30.1367 96.585 29.8018 95.9834 29.1318C95.3818 28.4619 95.0811 27.5277 95.0811 26.3291C95.0811 25.0986 95.3932 24.1416 96.0176 23.458C96.6419 22.7699 97.4964 22.4258 98.5811 22.4258C99.2236 22.4258 99.8389 22.5374 100.427 22.7607L100.242 23.3623C99.5996 23.1481 99.0413 23.041 98.5674 23.041C97.6559 23.041 96.9655 23.3236 96.4961 23.8887C96.0267 24.4492 95.792 25.2581 95.792 26.3154C95.792 27.318 96.0267 28.1042 96.4961 28.6738C96.9655 29.2389 97.6217 29.5215 98.4648 29.5215C99.1393 29.5215 99.766 29.4007 100.345 29.1592V29.7881C99.8708 30.0205 99.2487 30.1367 98.4785 30.1367ZM105.171 30.1367C104.091 30.1367 103.248 29.804 102.642 29.1387C102.04 28.4733 101.739 27.5413 101.739 26.3428C101.739 25.1579 102.031 24.21 102.614 23.499C103.198 22.7835 103.984 22.4258 104.973 22.4258C105.848 22.4258 106.538 22.7311 107.044 23.3418C107.55 23.9525 107.803 24.7819 107.803 25.8301V26.377H102.45C102.459 27.3978 102.696 28.1771 103.161 28.7148C103.631 29.2526 104.3 29.5215 105.171 29.5215C105.595 29.5215 105.966 29.4919 106.285 29.4326C106.609 29.3734 107.017 29.2458 107.509 29.0498V29.665C107.09 29.8473 106.702 29.9704 106.347 30.0342C105.991 30.1025 105.599 30.1367 105.171 30.1367ZM104.973 23.0273C104.257 23.0273 103.683 23.2643 103.25 23.7383C102.817 24.2077 102.564 24.8867 102.491 25.7754H107.085C107.085 24.9141 106.898 24.2419 106.524 23.7588C106.151 23.2712 105.633 23.0273 104.973 23.0273ZM103.188 20.5049C103.188 20.2952 103.223 20.1449 103.291 20.0537C103.364 19.9626 103.473 19.917 103.619 19.917C103.911 19.917 104.057 20.113 104.057 20.5049C104.057 20.8968 103.911 21.0928 103.619 21.0928C103.332 21.0928 103.188 20.8968 103.188 20.5049ZM105.793 20.5049C105.793 20.2952 105.827 20.1449 105.896 20.0537C105.968 19.9626 106.078 19.917 106.224 19.917C106.515 19.917 106.661 20.113 106.661 20.5049C106.661 20.8968 106.515 21.0928 106.224 21.0928C105.937 21.0928 105.793 20.8968 105.793 20.5049ZM119.554 32.5225H118.884V30H113.196V32.5225H112.526V29.3574H113.019C113.638 28.487 114.117 27.4775 114.454 26.3291C114.791 25.1807 114.969 23.9274 114.987 22.5693H118.562V29.3574H119.554V32.5225ZM117.886 29.3574V23.1982H115.575C115.466 25.6637 114.869 27.7168 113.784 29.3574H117.886ZM124.134 30.1367C123.054 30.1367 122.211 29.804 121.604 29.1387C121.003 28.4733 120.702 27.5413 120.702 26.3428C120.702 25.1579 120.994 24.21 121.577 23.499C122.16 22.7835 122.947 22.4258 123.936 22.4258C124.811 22.4258 125.501 22.7311 126.007 23.3418C126.513 23.9525 126.766 24.7819 126.766 25.8301V26.377H121.413C121.422 27.3978 121.659 28.1771 122.124 28.7148C122.593 29.2526 123.263 29.5215 124.134 29.5215C124.558 29.5215 124.929 29.4919 125.248 29.4326C125.572 29.3734 125.979 29.2458 126.472 29.0498V29.665C126.052 29.8473 125.665 29.9704 125.31 30.0342C124.954 30.1025 124.562 30.1367 124.134 30.1367ZM123.936 23.0273C123.22 23.0273 122.646 23.2643 122.213 23.7383C121.78 24.2077 121.527 24.8867 121.454 25.7754H126.048C126.048 24.9141 125.861 24.2419 125.487 23.7588C125.114 23.2712 124.596 23.0273 123.936 23.0273ZM133.957 30H133.287V23.1982H130.655C130.519 24.9984 130.35 26.3724 130.149 27.3203C129.953 28.2637 129.698 28.9587 129.384 29.4053C129.074 29.8473 128.671 30.0684 128.174 30.0684C127.996 30.0684 127.841 30.0501 127.709 30.0137V29.3984C127.796 29.4258 127.919 29.4395 128.078 29.4395C128.593 29.4395 129.008 28.8971 129.322 27.8125C129.641 26.7233 129.883 24.9756 130.047 22.5693H133.957V30ZM140.957 30L140.786 28.8242H140.731C140.358 29.3027 139.973 29.6423 139.576 29.8428C139.184 30.0387 138.719 30.1367 138.182 30.1367C137.452 30.1367 136.885 29.9499 136.479 29.5762C136.074 29.2025 135.871 28.6852 135.871 28.0244C135.871 27.2998 136.172 26.737 136.773 26.3359C137.38 25.9349 138.255 25.723 139.398 25.7002L140.813 25.6592V25.167C140.813 24.4606 140.67 23.9274 140.383 23.5674C140.096 23.2074 139.633 23.0273 138.995 23.0273C138.307 23.0273 137.594 23.2188 136.855 23.6016L136.603 23.0137C137.418 22.6309 138.225 22.4395 139.022 22.4395C139.838 22.4395 140.447 22.6514 140.848 23.0752C141.253 23.499 141.456 24.1598 141.456 25.0576V30H140.957ZM138.223 29.5215C139.016 29.5215 139.64 29.2959 140.096 28.8447C140.556 28.389 140.786 27.7578 140.786 26.9512V26.2197L139.487 26.2744C138.444 26.3245 137.699 26.4886 137.252 26.7666C136.81 27.04 136.589 27.4684 136.589 28.0518C136.589 28.5166 136.73 28.8789 137.013 29.1387C137.3 29.3939 137.703 29.5215 138.223 29.5215ZM146.87 30.1367C145.79 30.1367 144.947 29.804 144.341 29.1387C143.739 28.4733 143.438 27.5413 143.438 26.3428C143.438 25.1579 143.73 24.21 144.313 23.499C144.897 22.7835 145.683 22.4258 146.672 22.4258C147.547 22.4258 148.237 22.7311 148.743 23.3418C149.249 23.9525 149.502 24.7819 149.502 25.8301V26.377H144.149C144.159 27.3978 144.396 28.1771 144.86 28.7148C145.33 29.2526 146 29.5215 146.87 29.5215C147.294 29.5215 147.665 29.4919 147.984 29.4326C148.308 29.3734 148.716 29.2458 149.208 29.0498V29.665C148.789 29.8473 148.401 29.9704 148.046 30.0342C147.69 30.1025 147.299 30.1367 146.87 30.1367ZM146.672 23.0273C145.956 23.0273 145.382 23.2643 144.949 23.7383C144.516 24.2077 144.263 24.8867 144.19 25.7754H148.784C148.784 24.9141 148.597 24.2419 148.224 23.7588C147.85 23.2712 147.333 23.0273 146.672 23.0273ZM156.27 23.1572H153.795V30H153.125V23.1572H150.589V22.5693H156.27V23.1572ZM160.768 30.1367C159.706 30.1367 158.874 29.8018 158.272 29.1318C157.671 28.4619 157.37 27.5277 157.37 26.3291C157.37 25.0986 157.682 24.1416 158.307 23.458C158.931 22.7699 159.785 22.4258 160.87 22.4258C161.513 22.4258 162.128 22.5374 162.716 22.7607L162.531 23.3623C161.889 23.1481 161.33 23.041 160.856 23.041C159.945 23.041 159.255 23.3236 158.785 23.8887C158.316 24.4492 158.081 25.2581 158.081 26.3154C158.081 27.318 158.316 28.1042 158.785 28.6738C159.255 29.2389 159.911 29.5215 160.754 29.5215C161.428 29.5215 162.055 29.4007 162.634 29.1592V29.7881C162.16 30.0205 161.538 30.1367 160.768 30.1367ZM164.35 30H163.495L165.737 26.7939C165.054 26.6663 164.559 26.4294 164.254 26.083C163.953 25.7367 163.803 25.2923 163.803 24.75C163.803 24.0755 164.028 23.5446 164.479 23.1572C164.935 22.7653 165.546 22.5693 166.312 22.5693H169.374V30H168.704V26.876H166.435L164.35 30ZM164.514 24.7227C164.514 25.2331 164.678 25.6136 165.006 25.8643C165.339 26.1104 165.838 26.2334 166.503 26.2334H168.704V23.2119H166.298C165.733 23.2119 165.293 23.3418 164.979 23.6016C164.669 23.8568 164.514 24.2305 164.514 24.7227ZM176.148 22.5693V27.9424L176.107 29.3438L180.517 22.5693H181.419V30H180.77V24.6611L180.797 23.2256L176.388 30H175.506V22.5693H176.148ZM184.591 22.5693V25.8301H189.308V22.5693H189.978V30H189.308V26.418H184.591V30H183.914V22.5693H184.591ZM198.536 32.5225H197.866V30H192.179V32.5225H191.509V29.3574H192.001C192.621 28.487 193.099 27.4775 193.437 26.3291C193.774 25.1807 193.951 23.9274 193.97 22.5693H197.545V29.3574H198.536V32.5225ZM196.868 29.3574V23.1982H194.558C194.448 25.6637 193.851 27.7168 192.767 29.3574H196.868ZM200.758 22.5693V27.9424L200.717 29.3438L205.126 22.5693H206.028V30H205.379V24.6611L205.406 23.2256L200.997 30H200.115V22.5693H200.758ZM214.225 24.3604C214.225 24.8298 214.108 25.1989 213.876 25.4678C213.644 25.7321 213.265 25.9167 212.741 26.0215V26.0693C213.338 26.1377 213.769 26.3109 214.033 26.5889C214.302 26.8623 214.437 27.2565 214.437 27.7715C214.437 28.487 214.2 29.0384 213.726 29.4258C213.256 29.8086 212.568 30 211.661 30H208.523V22.5693H211.675C212.522 22.5693 213.158 22.722 213.582 23.0273C214.01 23.3327 214.225 23.777 214.225 24.3604ZM213.719 27.7578C213.719 26.8464 213.019 26.3906 211.62 26.3906H209.2V29.3574H211.716C213.051 29.3574 213.719 28.8242 213.719 27.7578ZM213.507 24.415C213.507 23.9821 213.352 23.6745 213.042 23.4922C212.732 23.3053 212.267 23.2119 211.647 23.2119H209.2V25.7549H211.565C212.258 25.7549 212.755 25.6478 213.056 25.4336C213.356 25.2194 213.507 24.8799 213.507 24.415ZM217.096 22.5693V27.9424L217.055 29.3438L221.464 22.5693H222.366V30H221.717V24.6611L221.744 23.2256L217.335 30H216.453V22.5693H217.096ZM230.925 32.5225H230.255V30H224.567V32.5225H223.897V29.3574H224.39C225.009 28.487 225.488 27.4775 225.825 26.3291C226.162 25.1807 226.34 23.9274 226.358 22.5693H229.934V29.3574H230.925V32.5225ZM229.257 29.3574V23.1982H226.946C226.837 25.6637 226.24 27.7168 225.155 29.3574H229.257ZM231.26 22.5693H231.957L233.529 26.7393C234.008 28.0199 234.311 28.8835 234.438 29.3301H234.479C234.671 28.7422 234.983 27.8649 235.416 26.6982L236.988 22.5693H237.686L234.356 31.2031C234.088 31.9049 233.862 32.3789 233.68 32.625C233.497 32.8711 233.283 33.0557 233.037 33.1787C232.796 33.3018 232.502 33.3633 232.155 33.3633C231.896 33.3633 231.606 33.3154 231.287 33.2197V32.6318C231.551 32.7048 231.836 32.7412 232.142 32.7412C232.374 32.7412 232.579 32.6865 232.757 32.5771C232.935 32.4678 233.094 32.2969 233.235 32.0645C233.381 31.8366 233.548 31.472 233.734 30.9707C233.926 30.474 234.049 30.1504 234.104 30L231.26 22.5693ZM243.441 30L243.271 28.8242H243.216C242.842 29.3027 242.457 29.6423 242.061 29.8428C241.669 30.0387 241.204 30.1367 240.666 30.1367C239.937 30.1367 239.369 29.9499 238.964 29.5762C238.558 29.2025 238.355 28.6852 238.355 28.0244C238.355 27.2998 238.656 26.737 239.258 26.3359C239.864 25.9349 240.739 25.723 241.883 25.7002L243.298 25.6592V25.167C243.298 24.4606 243.154 23.9274 242.867 23.5674C242.58 23.2074 242.118 23.0273 241.479 23.0273C240.791 23.0273 240.078 23.2188 239.34 23.6016L239.087 23.0137C239.903 22.6309 240.709 22.4395 241.507 22.4395C242.323 22.4395 242.931 22.6514 243.332 23.0752C243.738 23.499 243.94 24.1598 243.94 25.0576V30H243.441ZM240.707 29.5215C241.5 29.5215 242.124 29.2959 242.58 28.8447C243.04 28.389 243.271 27.7578 243.271 26.9512V26.2197L241.972 26.2744C240.928 26.3245 240.183 26.4886 239.736 26.7666C239.294 27.04 239.073 27.4684 239.073 28.0518C239.073 28.5166 239.215 28.8789 239.497 29.1387C239.784 29.3939 240.188 29.5215 240.707 29.5215ZM251.494 30H250.824V23.1982H248.192C248.056 24.9984 247.887 26.3724 247.687 27.3203C247.491 28.2637 247.235 28.9587 246.921 29.4053C246.611 29.8473 246.208 30.0684 245.711 30.0684C245.533 30.0684 245.378 30.0501 245.246 30.0137V29.3984C245.333 29.4258 245.456 29.4395 245.615 29.4395C246.13 29.4395 246.545 28.8971 246.859 27.8125C247.178 26.7233 247.42 24.9756 247.584 22.5693H251.494V30ZM254.659 25.7002H257.277C259.023 25.7002 259.896 26.3861 259.896 27.7578C259.896 28.4642 259.652 29.0156 259.164 29.4121C258.676 29.804 257.977 30 257.065 30H253.982V22.5693H254.659V25.7002ZM254.659 26.3428V29.3574H257.175C257.822 29.3574 258.316 29.2207 258.658 28.9473C259.005 28.6738 259.178 28.2728 259.178 27.7441C259.178 27.252 259.025 26.8965 258.72 26.6777C258.414 26.4544 257.886 26.3428 257.134 26.3428H254.659ZM262.63 22.5693V25.8301H267.347V22.5693H268.017V30H267.347V26.418H262.63V30H261.953V22.5693H262.63ZM271.188 25.7002H273.554C275.299 25.7002 276.172 26.3861 276.172 27.7578C276.172 28.4642 275.928 29.0156 275.44 29.4121C274.953 29.804 274.253 30 273.342 30H270.512V22.5693H271.188V25.7002ZM271.188 26.3428V29.3574H273.451C274.094 29.3574 274.588 29.223 274.935 28.9541C275.281 28.6852 275.454 28.2819 275.454 27.7441C275.454 27.252 275.301 26.8965 274.996 26.6777C274.691 26.4544 274.162 26.3428 273.41 26.3428H271.188ZM278.141 30H277.471V22.5693H278.141V30ZM284.102 29.2754L284.525 28.0791L286.665 22.5693H287.602V30H286.959V23.3896C286.859 23.6768 286.752 23.9707 286.638 24.2715C286.528 24.5723 285.785 26.4818 284.409 30H283.808L281.75 24.7773C281.663 24.5677 281.581 24.3467 281.504 24.1143C281.431 23.8818 281.349 23.6312 281.258 23.3623V30H280.643V22.5693H281.538L283.685 28.0381C283.853 28.4801 283.992 28.8926 284.102 29.2754ZM7.38965 45.2744C7.38965 46.4867 7.0957 47.4346 6.50781 48.1182C5.91992 48.7972 5.10872 49.1367 4.07422 49.1367C3.42253 49.1367 2.84831 48.9795 2.35156 48.665C1.85482 48.3506 1.47428 47.8994 1.20996 47.3115C0.945638 46.7236 0.813477 46.0446 0.813477 45.2744C0.813477 44.0622 1.10742 43.1188 1.69531 42.4443C2.2832 41.7653 3.08984 41.4258 4.11523 41.4258C5.13607 41.4258 5.93587 41.7699 6.51465 42.458C7.09798 43.1416 7.38965 44.0804 7.38965 45.2744ZM1.52441 45.2744C1.52441 46.2952 1.74772 47.0928 2.19434 47.667C2.64551 48.2367 3.28125 48.5215 4.10156 48.5215C4.92188 48.5215 5.55534 48.2367 6.00195 47.667C6.45312 47.0928 6.67871 46.2952 6.67871 45.2744C6.67871 44.249 6.45085 43.4538 5.99512 42.8887C5.54395 42.3236 4.9082 42.041 4.08789 42.041C3.26758 42.041 2.63411 42.3236 2.1875 42.8887C1.74544 43.4492 1.52441 44.2445 1.52441 45.2744ZM9.04395 44.5361C9.04395 41.3096 9.95312 39.4707 11.7715 39.0195C12.4095 38.86 13.0202 38.7256 13.6035 38.6162C14.1914 38.5023 14.7109 38.402 15.1621 38.3154L15.2852 38.9033L14.4648 39.0605C13.1113 39.3158 12.2181 39.5117 11.7852 39.6484C11.1699 39.8262 10.6868 40.2523 10.3359 40.9268C9.98958 41.6012 9.79134 42.5241 9.74121 43.6953H9.78223C10.2699 43.1165 10.7438 42.7041 11.2041 42.458C11.6644 42.2074 12.1383 42.082 12.626 42.082C13.5374 42.082 14.2347 42.376 14.7178 42.9639C15.2008 43.5518 15.4424 44.388 15.4424 45.4727C15.4424 46.6257 15.1644 47.5257 14.6084 48.1729C14.0524 48.8154 13.2708 49.1367 12.2637 49.1367C11.2428 49.1367 10.4499 48.738 9.88477 47.9404C9.32422 47.1429 9.04395 46.0081 9.04395 44.5361ZM12.3184 48.5215C13.0977 48.5215 13.6924 48.2617 14.1025 47.7422C14.5173 47.2227 14.7246 46.4753 14.7246 45.5C14.7246 44.5749 14.54 43.8776 14.1709 43.4082C13.8063 42.9342 13.2686 42.6973 12.5576 42.6973C12.029 42.6973 11.5163 42.8636 11.0195 43.1963C10.5273 43.5244 10.0967 43.9801 9.72754 44.5635C9.72754 45.3792 9.8278 46.0947 10.0283 46.71C10.2334 47.3252 10.5296 47.7809 10.917 48.0771C11.3044 48.3734 11.7715 48.5215 12.3184 48.5215ZM20.665 49.1367C19.5212 49.1367 18.6872 48.7083 18.1631 47.8516H18.1152L18.1357 48.4258C18.154 48.763 18.1631 49.1322 18.1631 49.5332V52.3633H17.4863V41.5693H18.0605L18.1904 42.6289H18.2314C18.7419 41.8268 19.5576 41.4258 20.6787 41.4258C21.6813 41.4258 22.4447 41.7562 22.9688 42.417C23.4974 43.0732 23.7617 44.0303 23.7617 45.2881C23.7617 46.5094 23.4837 47.4574 22.9277 48.1318C22.3763 48.8018 21.6221 49.1367 20.665 49.1367ZM20.6514 48.5352C21.4124 48.5352 22.0003 48.2526 22.415 47.6875C22.8343 47.1224 23.0439 46.3317 23.0439 45.3154C23.0439 43.1325 22.2555 42.041 20.6787 42.041C19.8128 42.041 19.1771 42.2803 18.7715 42.7588C18.3659 43.2327 18.1631 44.0075 18.1631 45.083V45.3018C18.1631 46.4639 18.3568 47.2933 18.7441 47.79C19.1361 48.2868 19.7718 48.5352 20.6514 48.5352ZM30.3379 49L30.167 47.8242H30.1123C29.7386 48.3027 29.3535 48.6423 28.957 48.8428C28.5651 49.0387 28.1003 49.1367 27.5625 49.1367C26.8333 49.1367 26.266 48.9499 25.8604 48.5762C25.4548 48.2025 25.252 47.6852 25.252 47.0244C25.252 46.2998 25.5527 45.737 26.1543 45.3359C26.7604 44.9349 27.6354 44.723 28.7793 44.7002L30.1943 44.6592V44.167C30.1943 43.4606 30.0508 42.9274 29.7637 42.5674C29.4766 42.2074 29.014 42.0273 28.376 42.0273C27.6878 42.0273 26.9746 42.2188 26.2363 42.6016L25.9834 42.0137C26.7992 41.6309 27.6058 41.4395 28.4033 41.4395C29.2191 41.4395 29.8275 41.6514 30.2285 42.0752C30.6341 42.499 30.8369 43.1598 30.8369 44.0576V49H30.3379ZM27.6035 48.5215C28.3965 48.5215 29.0208 48.2959 29.4766 47.8447C29.9368 47.389 30.167 46.7578 30.167 45.9512V45.2197L28.8682 45.2744C27.8245 45.3245 27.0794 45.4886 26.6328 45.7666C26.1908 46.04 25.9697 46.4684 25.9697 47.0518C25.9697 47.5166 26.111 47.8789 26.3936 48.1387C26.6807 48.3939 27.084 48.5215 27.6035 48.5215ZM34.6514 44.7754C35.9958 44.7754 36.668 44.3128 36.668 43.3877C36.668 42.9456 36.513 42.6084 36.2031 42.376C35.8932 42.1436 35.4512 42.0273 34.877 42.0273C34.5124 42.0273 34.1729 42.0706 33.8584 42.1572C33.5439 42.2393 33.2067 42.36 32.8467 42.5195L32.5938 41.959C33.3867 41.6035 34.1569 41.4258 34.9043 41.4258C35.7155 41.4258 36.3307 41.5944 36.75 41.9316C37.1693 42.2689 37.3789 42.736 37.3789 43.333C37.3789 44.1943 36.9368 44.7435 36.0527 44.9805V45.0215C36.6042 45.1582 37.0052 45.3861 37.2559 45.7051C37.5065 46.0195 37.6318 46.4229 37.6318 46.915C37.6318 47.6032 37.3789 48.1455 36.873 48.542C36.3717 48.9385 35.6745 49.1367 34.7812 49.1367C34.2982 49.1367 33.8561 49.0911 33.4551 49C33.0586 48.9043 32.7305 48.779 32.4707 48.624V47.9473C32.9401 48.1706 33.3457 48.3232 33.6875 48.4053C34.0293 48.4827 34.3939 48.5215 34.7812 48.5215C35.4557 48.5215 35.9798 48.3802 36.3535 48.0977C36.7318 47.8105 36.9209 47.4027 36.9209 46.874C36.9209 46.359 36.7409 45.9785 36.3809 45.7324C36.0208 45.4863 35.4808 45.3633 34.7607 45.3633H33.7285V44.7754H34.6514ZM45.7256 45.2744C45.7256 46.4867 45.4316 47.4346 44.8438 48.1182C44.2559 48.7972 43.4447 49.1367 42.4102 49.1367C41.7585 49.1367 41.1842 48.9795 40.6875 48.665C40.1908 48.3506 39.8102 47.8994 39.5459 47.3115C39.2816 46.7236 39.1494 46.0446 39.1494 45.2744C39.1494 44.0622 39.4434 43.1188 40.0312 42.4443C40.6191 41.7653 41.4258 41.4258 42.4512 41.4258C43.472 41.4258 44.2718 41.7699 44.8506 42.458C45.4339 43.1416 45.7256 44.0804 45.7256 45.2744ZM39.8604 45.2744C39.8604 46.2952 40.0837 47.0928 40.5303 47.667C40.9814 48.2367 41.6172 48.5215 42.4375 48.5215C43.2578 48.5215 43.8913 48.2367 44.3379 47.667C44.7891 47.0928 45.0146 46.2952 45.0146 45.2744C45.0146 44.249 44.7868 43.4538 44.3311 42.8887C43.8799 42.3236 43.2441 42.041 42.4238 42.041C41.6035 42.041 40.9701 42.3236 40.5234 42.8887C40.0814 43.4492 39.8604 44.2445 39.8604 45.2744ZM51.2422 48.2754L51.666 47.0791L53.8057 41.5693H54.7422V49H54.0996V42.3896C53.9993 42.6768 53.8923 42.9707 53.7783 43.2715C53.6689 43.5723 52.9261 45.4818 51.5498 49H50.9482L48.8906 43.7773C48.804 43.5677 48.722 43.3467 48.6445 43.1143C48.5716 42.8818 48.4896 42.6312 48.3984 42.3623V49H47.7832V41.5693H48.6787L50.8252 47.0381C50.9938 47.4801 51.1328 47.8926 51.2422 48.2754ZM57.0938 48.4668C57.0938 48.0202 57.276 47.7969 57.6406 47.7969C58.0143 47.7969 58.2012 48.0202 58.2012 48.4668C58.2012 48.9134 58.0143 49.1367 57.6406 49.1367C57.276 49.1367 57.0938 48.9134 57.0938 48.4668Z" fill="black"/>
</svg>
