<svg width="197" height="75" viewBox="0 0 197 75" fill="none" xmlns="http://www.w3.org/2000/svg">
<path d="M53.0194 28.992H55.4674V45H53.0194V28.992Z" fill="#999999"/>
<path d="M61.6549 45H59.2069V27.912L70.8229 40.08V28.992H73.2709V45.984L61.6549 33.816V45Z" fill="#999999"/>
<path d="M84.992 28.992V31.296H78.608V35.112H84.8V37.416H78.608V42.696H84.992V45H76.16V28.992H84.992Z" fill="#999999"/>
<path d="M86.4292 45L91.4692 36.648L87.0532 28.992H89.7892L92.9092 34.416L96.1012 28.992H98.8372L94.2292 36.648L99.0532 45H96.3172L92.8132 38.88L89.1652 45H86.4292Z" fill="#999999"/>
<path d="M100.394 28.992H103.922C105.394 28.992 106.562 29.28 107.426 29.856C108.066 30.288 108.554 30.856 108.89 31.56C109.242 32.248 109.418 32.976 109.418 33.744C109.418 35.184 108.898 36.352 107.858 37.248C106.882 38.08 105.578 38.496 103.946 38.496H102.842V45H100.394V28.992ZM102.842 31.248V36.24H103.946C104.97 36.24 105.746 36.016 106.274 35.568C106.802 35.104 107.066 34.488 107.066 33.72C107.066 33.448 107.026 33.192 106.946 32.952C106.882 32.712 106.746 32.456 106.538 32.184C106.346 31.896 106.026 31.672 105.578 31.512C105.13 31.336 104.578 31.248 103.922 31.248H102.842Z" fill="#999999"/>
<path d="M119.992 28.992V31.296H113.608V35.112H119.8V37.416H113.608V42.696H119.992V45H111.16V28.992H119.992Z" fill="#999999"/>
<path d="M123.25 28.992H126.106C127.994 28.992 129.402 29.304 130.33 29.928C131.594 30.776 132.226 32.032 132.226 33.696C132.226 34.832 131.898 35.8 131.242 36.6C130.602 37.4 129.746 37.92 128.674 38.16L133.666 45H130.714L126.13 38.448H125.698V45H123.25V28.992ZM125.698 31.248V36.336H126.466C126.674 36.336 126.882 36.328 127.09 36.312C127.298 36.296 127.578 36.24 127.93 36.144C128.298 36.048 128.61 35.92 128.866 35.76C129.138 35.584 129.37 35.32 129.562 34.968C129.77 34.616 129.874 34.2 129.874 33.72C129.874 32.072 128.762 31.248 126.538 31.248H125.698Z" fill="#999999"/>
<path d="M143.139 31.296H139.467V45H137.019V31.296H133.347V28.992H143.139V31.296Z" fill="#999999"/>
<path d="M144.019 28.992H146.467V45H144.019V28.992Z" fill="#999999"/>
<path d="M159.671 28.992L151.799 42.696H159.479V45H147.815L155.687 31.296H149.111V28.992H159.671Z" fill="#999999"/>
<path d="M171.373 45L169.693 41.136H162.853L161.101 45H158.461L166.429 28.056L174.013 45H171.373ZM163.861 38.832H168.709L166.333 33.408L163.861 38.832Z" fill="#999999"/>
<path d="M136.138 51.996H137.35C138.23 51.996 138.87 52.136 139.27 52.416C139.886 52.832 140.194 53.436 140.194 54.228C140.194 54.852 139.97 55.34 139.522 55.692C139.962 55.828 140.302 56.068 140.542 56.412C140.79 56.748 140.914 57.128 140.914 57.552C140.914 58.376 140.646 59.004 140.11 59.436C139.814 59.684 139.506 59.84 139.186 59.904C138.874 59.968 138.47 60 137.974 60H136.138V51.996ZM137.362 53.148V55.44H137.734C138.606 55.44 139.042 55.048 139.042 54.264C139.042 53.52 138.622 53.148 137.782 53.148H137.362ZM137.362 56.448V58.848H138.106C138.714 58.848 139.134 58.732 139.366 58.5C139.598 58.26 139.714 57.98 139.714 57.66C139.714 56.852 139.186 56.448 138.13 56.448H137.362ZM145.911 51.996V53.148H142.719V55.056H145.815V56.208H142.719V58.848H145.911V60H141.495V51.996H145.911ZM146.535 51.996H147.759V58.848H150.111V60H146.535V51.996ZM155.841 60L155.001 58.068H151.581L150.705 60H149.385L153.369 51.528L157.161 60H155.841ZM152.085 56.916H154.509L153.321 54.204L152.085 56.916ZM157.212 51.996H158.64C159.584 51.996 160.288 52.152 160.752 52.464C161.384 52.888 161.7 53.516 161.7 54.348C161.7 54.916 161.536 55.4 161.208 55.8C160.888 56.2 160.46 56.46 159.924 56.58L162.42 60H160.944L158.652 56.724H158.436V60H157.212V51.996ZM158.436 53.124V55.668H158.82C158.924 55.668 159.028 55.664 159.132 55.656C159.236 55.648 159.376 55.62 159.552 55.572C159.736 55.524 159.892 55.46 160.02 55.38C160.156 55.292 160.272 55.16 160.368 54.984C160.472 54.808 160.524 54.6 160.524 54.36C160.524 53.536 159.968 53.124 158.856 53.124H158.436ZM162.663 51.996H163.887V56.82C163.887 57.444 163.971 57.904 164.139 58.2C164.275 58.424 164.475 58.62 164.739 58.788C165.003 58.948 165.299 59.028 165.627 59.028C165.955 59.028 166.251 58.948 166.515 58.788C166.779 58.62 166.979 58.424 167.115 58.2C167.283 57.904 167.367 57.444 167.367 56.82V51.996H168.591V57.144C168.591 57.984 168.343 58.676 167.847 59.22C167.271 59.844 166.531 60.156 165.627 60.156C164.723 60.156 163.983 59.844 163.407 59.22C162.911 58.676 162.663 57.984 162.663 57.144V51.996ZM173.994 53.196L173.01 53.772C172.93 53.58 172.81 53.412 172.65 53.268C172.41 53.076 172.122 52.98 171.786 52.98C171.426 52.98 171.146 53.072 170.946 53.256C170.754 53.44 170.658 53.668 170.658 53.94C170.658 54.356 170.946 54.68 171.522 54.912L172.326 55.236C173.582 55.748 174.21 56.532 174.21 57.588C174.21 58.348 173.966 58.968 173.478 59.448C172.998 59.92 172.382 60.156 171.63 60.156C170.854 60.156 170.226 59.888 169.746 59.352C169.354 58.912 169.13 58.392 169.074 57.792L170.286 57.528C170.286 57.912 170.398 58.252 170.622 58.548C170.878 58.868 171.226 59.028 171.666 59.028C172.042 59.028 172.354 58.904 172.602 58.656C172.858 58.408 172.986 58.084 172.986 57.684C172.986 57.316 172.878 57.032 172.662 56.832C172.454 56.632 172.178 56.46 171.834 56.316L171.066 55.992C169.978 55.536 169.434 54.86 169.434 53.964C169.434 53.388 169.642 52.892 170.058 52.476C170.482 52.06 171.054 51.852 171.774 51.852C172.422 51.852 172.958 52.032 173.382 52.392C173.63 52.616 173.834 52.884 173.994 53.196Z" fill="#999999"/>
<path d="M25 36.2707C25 32.0017 28.4607 28.541 32.7297 28.541H41V36.0005C41 40.4188 37.4183 44.0005 33 44.0005H32.7297C28.4607 44.0005 25 40.5398 25 36.2707Z" stroke="#999999" stroke-width="4"/>
<path d="M49 26H43V19.7297C43 16.5056 45.6863 13.8919 49 13.8919C52.3137 13.8919 54 15.5326 54 18.7568C54 19.4391 52.5 21.1892 51 21.6757L56.5 22.6486C57.5 22.1622 58.5 21.1892 59 19.2432C59 12.9189 54.5228 10 49 10C43.4772 10 39 14.3561 39 19.7297V30.5L49 30C54 29 57.271 27.4082 59 24.5C59 24.5 56 26 53 26C50 26 50.2267 26 49 26Z" fill="#999999"/>
</svg>
