<svg width="71" height="14" viewBox="0 0 71 14" fill="none" xmlns="http://www.w3.org/2000/svg">
<path d="M9.08936 11H7.84424V1.39795H4.36523L4.13818 3.15576C3.84033 5.49463 3.57666 7.20605 3.34717 8.29004C3.12256 9.36914 2.82471 10.1211 2.45361 10.5459C2.08252 10.9707 1.58936 11.1782 0.974121 11.1685C0.612793 11.1685 0.288086 11.1074 0 10.9854V9.93799C0.263672 10.0649 0.539551 10.1284 0.827637 10.1284C1.08643 10.1284 1.31104 10.0234 1.50146 9.81348C1.69678 9.59863 1.86768 9.22998 2.01416 8.70752C2.16553 8.18018 2.35352 7.18408 2.57812 5.71924C2.80762 4.24951 3.05908 2.44043 3.33252 0.291992H9.08936V11ZM15.2417 11.1465C14.0552 11.1465 13.1177 10.7852 12.4292 10.0625C11.7456 9.33984 11.4038 8.33643 11.4038 7.05225C11.4038 5.7583 11.7212 4.73047 12.356 3.96875C12.9956 3.20703 13.8525 2.82617 14.9268 2.82617C15.9326 2.82617 16.7285 3.1582 17.3145 3.82227C17.9004 4.48145 18.1934 5.35303 18.1934 6.43701V7.20605H12.6636C12.688 8.14844 12.9248 8.86377 13.374 9.35205C13.8281 9.84033 14.4653 10.0845 15.2856 10.0845C16.1499 10.0845 17.0044 9.90381 17.8491 9.54248V10.6265C17.4194 10.812 17.0117 10.9438 16.626 11.022C16.2451 11.105 15.7837 11.1465 15.2417 11.1465ZM14.9121 3.84424C14.2676 3.84424 13.7524 4.0542 13.3667 4.47412C12.9858 4.89404 12.7612 5.4751 12.6929 6.21729H16.8896C16.8896 5.45068 16.7188 4.86475 16.377 4.45947C16.0352 4.04932 15.5469 3.84424 14.9121 3.84424ZM21.4893 2.97266V6.33447H25.9863V2.97266H27.2021V11H25.9863V7.38184H21.4893V11H20.2734V2.97266H21.4893ZM36.7529 13.7759H35.5737V11H29.9634V13.7759H28.7915V9.95264H29.4214C30.0757 9.06396 30.5884 8.02148 30.9595 6.8252C31.3306 5.62891 31.5234 4.34473 31.5381 2.97266H35.603V9.95264H36.7529V13.7759ZM34.4312 9.95264V3.93213H32.6294C32.5659 5.01611 32.356 6.11475 31.9995 7.22803C31.6479 8.33643 31.2085 9.24463 30.6812 9.95264H34.4312ZM39.5068 2.97266V8.06299L39.4556 9.396L39.4336 9.81348L43.7769 2.97266H45.293V11H44.1577V6.09277L44.1797 5.12598L44.2163 4.17383L39.8804 11H38.3643V2.97266H39.5068ZM49.0869 2.97266V6.33447H53.584V2.97266H54.7998V11H53.584V7.38184H49.0869V11H47.8711V2.97266H49.0869ZM62.2119 4.0127H58.5938V11H57.3779V2.97266H62.2119V4.0127ZM64.9512 2.97266V8.06299L64.8999 9.396L64.8779 9.81348L69.2212 2.97266H70.7373V11H69.6021V6.09277L69.624 5.12598L69.6606 4.17383L65.3247 11H63.8086V2.97266H64.9512Z" fill="#188BFA"/>
</svg>
