<svg width="8" height="14" viewBox="0 0 8 14" fill="none" xmlns="http://www.w3.org/2000/svg">
<path d="M0.755859 6.77268C0.755859 5.12077 0.755859 3.46885 0.755859 1.81693C0.755859 0.990971 1.35664 0.401001 2.19772 0.401001C3.39927 0.401001 4.60082 0.401001 5.68222 0.401001C6.04268 0.401001 6.40315 0.518995 6.76361 0.636989C7.00392 0.754983 7.12408 0.872977 7.24423 0.990971C7.36439 1.10897 7.48454 1.34495 7.48454 1.46295C7.48454 1.58094 7.24423 1.46295 7.00392 1.46295C5.44191 1.46295 4.00005 1.46295 2.43803 1.46295C2.07757 1.46295 1.95741 1.58094 1.95741 1.93492C1.95741 3.11487 1.95741 4.4128 1.95741 5.59274C1.95741 5.82873 2.07757 5.82873 2.19772 5.82873C3.27912 5.82873 4.24035 5.82873 5.32175 5.82873C5.56206 5.82873 5.68222 5.94672 5.56206 6.06472C5.56206 6.30071 5.56206 6.4187 5.56206 6.65469C5.56206 6.89068 5.44191 7.00867 5.2016 7.00867C4.24036 7.00867 3.15896 7.00867 2.19772 7.00867C1.95741 7.00867 1.95741 7.12666 1.95741 7.24466C1.95741 8.66059 1.95741 9.95852 1.95741 11.3745C1.95741 11.8464 2.07756 11.9644 2.55818 11.9644C4.1202 11.9644 5.68222 11.9644 7.24423 11.9644C7.48454 11.9644 7.6047 11.9644 7.48454 12.2004C7.36439 12.5544 7.12408 12.6724 6.76361 12.7904C6.40315 12.9084 6.04268 13.0264 5.68222 13.0264C4.48067 13.0264 3.27912 13.0264 2.19772 13.0264C1.35664 13.0264 0.755859 12.4364 0.755859 11.6104C0.755859 10.0765 0.755859 8.4246 0.755859 6.77268Z" fill="#555559"/>
</svg>
