<svg width="10" height="14" viewBox="0 0 10 14" fill="none" xmlns="http://www.w3.org/2000/svg">
<path d="M5.42601 5.94691C6.14694 4.88496 6.86787 3.94101 7.5888 2.87906C8.18958 2.0531 8.79035 1.34514 9.27097 0.519182C9.39113 0.283194 9.51128 0.401188 9.63143 0.519182C9.9919 0.991159 10.1121 1.69912 9.75159 2.1711C8.67019 3.82302 7.46865 5.35694 6.2671 7.00886C6.14694 7.24484 6.02678 7.36284 6.02678 7.59883C6.02678 9.36874 6.02678 11.1387 6.02678 12.7906C6.02678 13.1446 6.02679 13.1445 5.66632 13.0266C5.06555 12.7906 4.70508 12.3186 4.70508 11.7286C4.70508 10.3127 4.70508 8.89676 4.70508 7.59883C4.70508 7.36284 4.70508 7.24484 4.58492 7.12685C3.38337 5.47493 2.30198 3.94101 1.10043 2.28909C0.739962 1.69912 0.739962 1.10915 1.10043 0.519182C1.22058 0.401188 1.34074 0.401188 1.4609 0.519182C2.66245 2.1711 3.74383 3.70502 4.94538 5.35694C5.06554 5.59293 5.1857 5.71092 5.42601 5.94691Z" fill="#555559"/>
</svg>
