<svg width="13" height="14" viewBox="0 0 13 14" fill="none" xmlns="http://www.w3.org/2000/svg">
<path d="M10.9028 2.17105C8.9803 0.0471523 5.97642 -0.424825 3.57332 0.87311C1.29038 2.17105 0.329139 4.17694 0.208984 6.06485C0.208984 7.95276 0.569449 9.1327 1.17022 10.3126C3.0927 13.3805 7.17797 14.2064 9.94154 11.9646C13.0656 9.72267 13.426 5.0029 10.9028 2.17105ZM9.10046 11.2566C7.17798 12.6725 4.53456 12.3185 2.97255 10.5486C0.929914 8.30674 1.05007 4.76692 3.33301 2.64302C5.37565 0.755116 8.49968 0.991104 10.302 3.23299C11.0229 4.17694 11.5036 5.47488 11.5036 7.24479C11.2632 8.54273 10.6625 10.1946 9.10046 11.2566Z" fill="#555559"/>
</svg>
