<svg width="8" height="14" viewBox="0 0 8 14" fill="none" xmlns="http://www.w3.org/2000/svg">
<path d="M7.46888 11.9644C7.46888 12.4364 7.22857 12.6724 6.8681 12.7904C6.50764 13.0264 6.14717 13.0264 5.78671 13.0264C4.58516 13.0264 3.38361 13.0264 2.18206 13.0264C1.46112 13.0264 0.860352 12.4364 0.860352 11.7284C0.860352 8.4246 0.860352 5.00277 0.860352 1.69894C0.860352 1.10896 1.34097 0.518995 1.94175 0.401001C2.0619 0.401001 2.18206 0.401001 2.18206 0.518996C2.18206 0.63699 2.18206 0.636989 2.18206 0.754983C2.18206 4.29481 2.18206 7.95262 2.18206 11.4924C2.18206 11.9644 2.30221 11.9644 2.66268 11.9644C4.22469 11.9644 5.66656 11.9644 7.22857 11.9644C7.34873 11.9644 7.34872 11.9644 7.46888 11.9644Z" fill="#555559"/>
</svg>
