<svg width="9" height="14" viewBox="0 0 9 14" fill="none" xmlns="http://www.w3.org/2000/svg">
<path d="M4.02304 13.2625C3.54242 13.2625 2.82148 13.1445 2.10055 12.9085C1.61993 12.6725 1.25947 12.4366 1.13932 11.8466C1.13932 11.4926 1.13932 11.4926 1.37963 11.6106C2.34087 11.8466 3.30211 12.2006 4.3835 12.2006C4.86412 12.2006 5.34474 12.0826 5.82536 11.8466C7.14707 11.2566 7.14707 9.48671 6.30598 8.66075C5.94552 8.30677 5.34474 7.95278 4.86412 7.5988C4.02304 7.00883 3.0618 6.53686 2.22071 5.94689C1.49978 5.35691 1.01916 4.76695 0.899005 3.82299C0.77885 2.64305 1.25947 1.6991 2.22071 0.991133C3.54242 0.165175 4.86412 0.0471806 6.30598 0.401163C6.54629 0.519157 6.7866 0.637151 7.02691 0.755145C7.26722 0.87314 7.38738 1.10913 7.50753 1.34512C7.62769 1.5811 7.62769 1.6991 7.50753 1.81709C7.38738 1.93509 7.26722 1.81709 7.14707 1.6991C6.06567 1.34511 4.86412 1.22712 3.66257 1.5811C3.30211 1.6991 2.94164 1.81709 2.58118 2.17108C1.9804 2.76105 1.9804 3.46901 2.34087 4.05898C2.58118 4.53096 3.0618 4.88494 3.54242 5.12093C4.3835 5.7109 5.34474 6.18287 6.18583 6.77284C6.54629 7.00883 6.90676 7.36281 7.26722 7.7168C8.82924 9.36871 8.10831 11.9646 6.06567 12.7905C5.70521 13.1445 4.98428 13.2625 4.02304 13.2625Z" fill="#555559"/>
</svg>
