<svg width="9" height="14" viewBox="0 0 9 14" fill="none" xmlns="http://www.w3.org/2000/svg">
<path d="M8.32172 7.7168C7.96126 7.12683 7.60079 6.77285 7.00002 6.41887C7.12017 6.41887 7.12017 6.30088 7.12017 6.30088C8.20157 5.35692 8.56203 3.94099 8.08141 2.64306C7.60079 1.34512 6.27908 0.519165 4.95738 0.519165C3.99614 0.519165 3.15506 0.519165 2.19382 0.519165C1.35273 0.519165 0.751953 1.10914 0.751953 1.93509C0.751953 5.23893 0.751953 8.54276 0.751953 11.8466C0.751953 12.6726 1.35273 13.2625 2.19382 13.2625C3.15506 13.2625 4.23645 13.2625 5.19769 13.2625C7.8411 13.1445 9.64343 10.0767 8.32172 7.7168ZM1.83335 3.823C1.83335 3.23303 1.83335 2.64306 1.83335 2.05309C1.83335 1.69911 1.95351 1.58111 2.31397 1.58111C3.15506 1.58111 3.99614 1.58111 4.71707 1.58111C5.67831 1.58111 6.51939 2.17108 6.87986 3.11503C7.12017 3.94099 6.87986 5.00294 6.03878 5.59291C5.67831 5.8289 5.31784 5.94689 4.95738 5.94689C3.99614 5.94689 3.0349 5.94689 2.07366 5.94689C1.9535 5.94689 1.83335 5.94689 1.83335 5.71091C1.83335 5.00294 1.83335 4.41297 1.83335 3.823ZM7.60079 9.60471C7.48064 10.9026 6.39924 11.9646 5.07753 11.9646C4.23645 11.9646 3.27521 11.9646 2.43413 11.9646C2.07366 11.9646 1.9535 11.8466 1.9535 11.4926C1.9535 10.7847 1.9535 10.0767 1.9535 9.36872C1.9535 8.66076 1.9535 7.95279 1.9535 7.24483C1.9535 7.12683 1.9535 7.00884 2.07366 7.00884C3.15505 7.00884 4.23645 6.89084 5.31785 7.00884C6.63955 7.24483 7.60079 8.30678 7.60079 9.60471Z" fill="#555559"/>
</svg>
