<svg width="12" height="13" viewBox="0 0 12 13" fill="none" xmlns="http://www.w3.org/2000/svg">
<path d="M5.60868 6.77268C5.60868 5.12077 5.60868 3.46885 5.60868 1.81693C5.60868 1.58094 5.60868 1.46295 5.24822 1.46295C3.92651 1.46295 2.60481 1.46295 1.16295 1.46295C0.922635 1.46295 0.922637 1.34495 1.04279 1.22696C1.2831 0.636989 1.88387 0.401001 2.48465 0.401001C2.6048 0.401001 2.84512 0.401001 2.96527 0.401001C5.12806 0.401001 7.29085 0.401001 9.45364 0.401001C9.93427 0.401001 10.2947 0.518995 10.6552 0.636989C10.8955 0.754983 11.1358 0.990971 11.256 1.22696C11.3761 1.46295 11.3761 1.46295 11.1358 1.46295C10.0544 1.46295 8.85287 1.46295 7.77147 1.46295C7.53116 1.46295 7.41101 1.46295 7.1707 1.46295C7.05054 1.46295 6.93039 1.46295 7.05054 1.58094C7.05054 1.69894 7.05054 1.69894 7.05054 1.81693C7.05054 5.47475 7.05054 9.13257 7.05054 12.6724C7.05054 13.0264 7.05054 13.0264 6.69008 12.9084C6.0893 12.6724 5.72883 12.2004 5.72883 11.4924C5.60868 10.0765 5.60868 8.4246 5.60868 6.77268Z" fill="#555559"/>
</svg>
