<svg width="13" height="16" viewBox="0 0 13 16" fill="none" xmlns="http://www.w3.org/2000/svg">
<path fill-rule="evenodd" clip-rule="evenodd" d="M11.903 9.96316H11.933L7.00299 16H6.00299L1.07001 9.96316H1.09998C0.384248 8.92902 0.000790172 7.70413 0 6.44961C0 4.73907 0.684822 3.09858 1.90381 1.88905C3.1228 0.67951 4.77609 0 6.5 0C8.22391 0 9.8772 0.67951 11.0962 1.88905C12.3152 3.09858 13 4.73907 13 6.44961C13.0001 7.70381 12.6177 8.92868 11.903 9.96316ZM6.50299 2.10853C5.68816 2.10865 4.88862 2.32829 4.18976 2.74403C3.49089 3.15976 2.91892 3.75598 2.53485 4.46906C2.15079 5.18213 1.96909 5.9853 2.00909 6.79284C2.0491 7.60038 2.30928 8.382 2.76196 9.05426H2.75L6.29199 13.4668H6.71399L10.292 9.05426H10.243C10.6956 8.38207 10.9559 7.60054 10.9959 6.79309C11.036 5.98563 10.8543 5.18253 10.4703 4.46949C10.0864 3.75645 9.51458 3.16022 8.81586 2.74441C8.11714 2.3286 7.31774 2.10882 6.50299 2.10853ZM6.50299 8.06202C6.20632 8.06202 5.91629 7.97472 5.66962 7.81118C5.42294 7.64763 5.23072 7.41518 5.11719 7.14322C5.00366 6.87125 4.97392 6.57199 5.0318 6.28328C5.08968 5.99456 5.23254 5.72936 5.44232 5.5212C5.6521 5.31305 5.91936 5.1713 6.21033 5.11387C6.5013 5.05644 6.80294 5.08592 7.07703 5.19857C7.35112 5.31122 7.58536 5.50199 7.75018 5.74675C7.91501 5.99151 8.00299 6.27927 8.00299 6.57364C8.00299 6.96838 7.84496 7.34696 7.56366 7.62608C7.28236 7.90521 6.90082 8.06202 6.50299 8.06202Z" fill="black"/>
</svg>
