<svg width="52" height="51" viewBox="0 0 52 51" fill="none" xmlns="http://www.w3.org/2000/svg">
<path d="M25.5387 0C23.6358 0 21.7329 0.2 20.0303 0.6V25.5C20.0303 28.6 22.5341 31 25.5387 31C28.6434 31 31.047 28.5 31.047 25.5C31.047 22.6 28.7435 20.2 25.8391 20V15.6C31.1472 15.8 35.4537 20.2 35.4537 25.6C35.4537 31.1 30.9469 35.6 25.4385 35.6C19.9302 35.6 15.4234 31.1 15.4234 25.6V2C14.8225 2.3 14.2215 2.6 13.6206 2.9V25.5C13.6206 32 18.9287 37.3 25.4385 37.3C31.9484 37.3 37.2564 32 37.2564 25.5C37.2564 19.1 32.1487 13.9 25.739 13.7V9.3C34.5524 9.5 41.6631 16.7 41.6631 25.6C41.6631 34.6 34.352 41.9 25.3384 41.9C16.3247 41.9 9.01366 34.6 9.01366 25.6V5.8C3.60546 10.5 0 17.6 0 25.5C0 39.6 11.4173 51 25.5387 51C39.6601 51 51.0774 39.6 51.0774 25.5C51.0774 11.4 39.6601 0 25.5387 0Z" fill="#D70929"/>
</svg>
