<svg width="43" height="40" viewBox="0 0 43 40" fill="none" xmlns="http://www.w3.org/2000/svg">
<path d="M42.8953 11.0914C42.8953 10.2655 42.655 9.43953 42.1744 8.61357C42.0543 8.37758 41.9341 8.14159 42.0543 7.9056C42.1744 7.31563 42.0543 6.72566 41.9341 6.13569C41.6938 4.83776 40.9729 3.89381 40.0116 2.94985C39.0504 2.12389 37.969 1.53392 36.7674 1.06195C35.686 0.707965 34.4845 0.353982 33.2829 0.235988C32.4419 0.117994 31.6008 0 30.7597 0H30.6395C29.3178 0 27.9961 0 26.7946 0H26.6744C25.8333 0 24.9922 0.117994 24.2713 0.117994C21.9884 0.353982 19.8256 0.825959 17.6628 1.53392C15.7403 2.12389 13.938 2.83186 12.2558 3.77581C10.4535 4.71976 8.65116 5.78171 7.32946 7.43363C6.36822 8.25959 5.76744 9.08555 5.40698 10.0295C4.56589 11.9174 4.68605 13.8053 5.28682 15.6932C5.76744 17.2271 6.48837 18.5251 7.32946 19.823C7.56977 20.295 7.93023 20.649 8.2907 21.1209C8.41085 21.2389 8.41085 21.3569 8.17054 21.3569H8.05039C5.8876 22.1829 3.84496 23.1268 2.04264 24.6608C0.96124 25.6047 0.120155 26.6667 0 28.0826C0 28.5546 0 29.0265 0 29.4985C0 30.0885 0.120155 30.5605 0.48062 31.0324C0.841085 31.5044 0.841085 32.0944 0.841085 32.6844C0.841085 33.7463 1.0814 34.6903 1.68217 35.6342C2.4031 36.8142 3.4845 37.6401 4.68605 38.2301C6.60853 39.174 8.65116 39.646 10.814 39.882C11.2946 39.882 11.7752 39.882 12.2558 40C13.6977 40 15.1395 40 16.5814 40C16.5814 40 16.5814 40 16.7016 40C17.1822 40 17.6628 39.882 18.1434 39.882C18.7442 39.882 19.4651 39.764 20.0659 39.646C21.3876 39.41 22.7093 39.174 24.031 38.8201C26.0736 38.2301 27.9961 37.5221 29.9186 36.6962C30.7597 36.3422 31.6008 35.8702 32.3217 35.3982C33.5233 34.6903 34.7248 33.8643 35.686 32.8024C36.407 31.9764 37.0078 31.1504 37.4884 30.2065C37.8488 29.3805 38.0891 28.5546 38.0891 27.6106C38.0891 27.0206 38.0891 26.4307 37.969 25.8407C37.8488 24.7788 37.4884 23.7168 37.0078 22.7729C36.2868 21.3569 35.4457 20.059 34.4845 18.7611C34.4845 18.7611 34.6047 18.7611 34.6047 18.6431C35.8062 18.2891 37.0078 17.8171 38.0891 17.2271C39.4109 16.5192 40.7326 15.6932 41.6938 14.5133C42.2946 13.4513 42.8953 12.3894 42.8953 11.0914ZM41.3333 8.61357C41.093 9.55752 40.6124 10.2655 40.0116 10.9735C39.6512 11.4454 39.1705 11.9174 38.8101 12.2714C37.8488 13.0973 36.8876 13.8053 35.8062 14.5133C34.845 15.1032 33.7636 15.6932 32.6822 16.1652C32.562 16.2832 32.3217 16.2832 32.2015 16.4012C32.0814 16.4012 32.0814 16.4012 31.9612 16.4012C31.2403 15.5752 30.3992 14.9852 29.5581 14.2773C28.3566 13.3333 27.0349 12.3894 25.7132 11.5634C25.2326 11.2094 24.6318 10.9735 24.1512 10.6195C23.7907 10.3835 23.9109 10.3835 23.5504 10.7375C23.4302 10.8555 23.4302 10.8555 23.5504 10.9735C24.3915 11.5634 25.1124 12.2714 25.8333 12.8614C26.314 13.3333 26.9147 13.8053 27.3953 14.2773C28.2364 15.1032 29.0775 16.0472 29.7985 16.9911C30.7597 18.1711 31.6008 19.351 32.3217 20.531C32.9225 21.4749 33.4031 22.4189 33.7636 23.4808C34.0039 24.1888 34.3643 24.7788 34.4845 25.4867C34.6047 26.0767 34.7248 26.7847 34.845 27.3746C34.845 28.3186 34.7248 29.1445 34.4845 30.0885C34.2442 30.9145 33.7636 31.5044 33.1628 32.2124C32.2015 33.2743 31 34.1003 29.6783 34.6903C28.2364 35.3982 26.7946 35.8702 25.3527 36.1062C24.5116 36.3422 23.5504 36.4602 22.7093 36.5782C22.3488 36.6962 21.8682 36.6962 21.5078 36.6962C20.6667 36.8142 19.7054 36.8142 18.8643 36.9322C18.0233 36.9322 17.062 36.9322 16.2209 36.9322C15.6202 36.9322 15.1395 36.9322 14.5388 36.8142C13.8178 36.6962 13.2171 36.6962 12.4961 36.5782C11.655 36.4602 10.814 36.2242 9.97287 36.1062C8.89147 35.8702 7.81008 35.5162 6.72868 35.0442C5.76744 34.5723 4.8062 34.1003 3.96512 33.5103C3.24419 33.0383 2.52326 32.4484 1.92248 31.8584C1.56202 31.5044 1.56202 31.0324 1.80233 30.6785C2.16279 29.8525 2.64341 29.1445 3.24419 28.4366C4.32558 27.1386 5.64729 26.1947 7.08915 25.2507C8.17054 24.5428 9.37209 23.9528 10.5736 23.3628C10.6938 23.3628 10.6938 23.3628 10.814 23.3628C12.1357 24.6608 13.5775 25.8407 15.1395 26.9027C16.3411 27.7286 17.6628 28.5546 18.8643 29.2625H18.9845C19.345 28.7906 19.2248 28.7906 18.8643 28.5546C18.5039 28.2006 18.0233 27.9646 17.6628 27.6106C16.9419 27.0206 16.2209 26.4307 15.6202 25.7227C14.6589 24.7788 13.8178 23.7168 12.9767 22.7729C11.8953 21.3569 10.9341 19.941 10.093 18.4071C9.25194 16.9911 8.65116 15.4572 8.17054 13.8053C7.93023 12.9794 7.81008 12.1534 7.93023 11.3274C7.93023 10.1475 8.53101 8.84956 9.49225 7.66962C10.3333 6.72566 11.2946 6.0177 12.376 5.42773C14.1783 4.48378 16.1008 3.89381 18.0233 3.53982C18.8643 3.30383 19.7054 3.18584 20.5465 3.18584C21.3876 3.06785 22.2287 2.94985 23.0698 2.94985C23.9109 2.94985 24.7519 2.83186 25.7132 2.83186C26.7946 2.83186 27.7558 2.94985 28.8372 2.94985C30.8798 3.18584 32.9225 3.53982 34.9651 4.24779C36.6473 4.83776 38.3295 5.66372 39.7713 6.72566C40.3721 7.19764 40.8527 7.66962 41.3333 8.25959C41.3333 8.37758 41.3333 8.49557 41.3333 8.61357Z" fill="#188BFA"/>
</svg>
