<svg width="197" height="75" viewBox="0 0 197 75" fill="none" xmlns="http://www.w3.org/2000/svg">
<path d="M10.6626 51.0302L18.695 36.9056L26.7276 51.0302H10.6626Z" stroke="#999999" stroke-width="1.94"/>
<path fill-rule="evenodd" clip-rule="evenodd" d="M24.2991 42.9521L18.6807 33.4764L13.0624 42.9521H12.7805L12.781 42.9513H2L13.307 24L18.6792 33.004L20.6463 29.6861L28.5121 42.9521H24.2991Z" fill="#999999"/>
<path d="M48.0747 42.0695C48.0747 43.3695 47.6032 44.3833 46.6602 45.1108C45.7171 45.8383 44.4372 46.2021 42.8206 46.2021C41.0692 46.2021 39.722 45.9764 38.7789 45.5251V43.868C39.3852 44.124 40.0453 44.3261 40.7593 44.4743C41.4733 44.6225 42.1806 44.6966 42.8812 44.6966C44.0263 44.6966 44.8886 44.481 45.4679 44.0499C46.0472 43.612 46.3368 43.0058 46.3368 42.2311C46.3368 41.7192 46.2324 41.3016 46.0236 40.9782C45.8215 40.6482 45.478 40.345 44.993 40.0689C44.5147 39.7927 43.7838 39.4794 42.8004 39.1292C41.4262 38.6374 40.4427 38.0548 39.8499 37.3811C39.2639 36.7075 38.9709 35.8285 38.9709 34.744C38.9709 33.6056 39.3986 32.6995 40.2541 32.0259C41.1096 31.3523 42.2413 31.0155 43.6491 31.0155C45.1176 31.0155 46.4682 31.285 47.7009 31.8239L47.1654 33.3193C45.9461 32.8073 44.7606 32.5514 43.6087 32.5514C42.6993 32.5514 41.9887 32.7467 41.4767 33.1374C40.9648 33.5281 40.7088 34.0703 40.7088 34.7642C40.7088 35.2761 40.8031 35.6971 40.9917 36.0272C41.1803 36.3505 41.4969 36.6503 41.9415 36.9265C42.3928 37.1959 43.0799 37.4957 44.0028 37.8257C45.5521 38.3781 46.6164 38.9709 47.1957 39.6041C47.7817 40.2373 48.0747 41.0591 48.0747 42.0695ZM55.6428 46H53.9251V32.7534H49.2468V31.2277H60.321V32.7534H55.6428V46ZM64.2717 39.8567V46H62.554V31.2277H66.6058C68.4178 31.2277 69.7549 31.5746 70.6171 32.2684C71.4861 32.9623 71.9206 34.0064 71.9206 35.4007C71.9206 37.3542 70.9304 38.6745 68.9499 39.3616L72.9613 46H70.9304L67.3535 39.8567H64.2717ZM64.2717 38.3815H66.626C67.8385 38.3815 68.7277 38.1423 69.2935 37.6641C69.8593 37.1791 70.1422 36.4549 70.1422 35.4917C70.1422 34.5149 69.8526 33.811 69.2733 33.3799C68.7007 32.9488 67.7779 32.7332 66.5047 32.7332H64.2717V38.3815ZM88.1681 38.5936C88.1681 40.958 87.5686 42.8172 86.3695 44.1711C85.1772 45.5251 83.5168 46.2021 81.3882 46.2021C79.2124 46.2021 77.5318 45.5386 76.3462 44.2116C75.1674 42.8778 74.578 40.9984 74.578 38.5734C74.578 36.1686 75.1707 34.3061 76.3563 32.9858C77.5419 31.6588 79.2259 30.9953 81.4084 30.9953C83.5303 30.9953 85.1873 31.6689 86.3796 33.0161C87.5719 34.3634 88.1681 36.2225 88.1681 38.5936ZM76.3967 38.5936C76.3967 40.5943 76.8211 42.1133 77.6698 43.1506C78.5253 44.1812 79.7648 44.6966 81.3882 44.6966C83.0251 44.6966 84.2611 44.1812 85.0964 43.1506C85.9317 42.12 86.3493 40.601 86.3493 38.5936C86.3493 36.6065 85.9317 35.101 85.0964 34.0771C84.2679 33.0465 83.0385 32.5311 81.4084 32.5311C79.7715 32.5311 78.5253 33.0498 77.6698 34.0872C76.8211 35.1178 76.3967 36.62 76.3967 38.5936ZM103.011 46H101.051L92.9777 33.6022H92.8968C93.0046 35.0572 93.0585 36.3909 93.0585 37.6034V46H91.4721V31.2277H93.4121L101.465 43.575H101.546C101.533 43.3931 101.502 42.8105 101.455 41.827C101.408 40.8368 101.391 40.1295 101.405 39.7051V31.2277H103.011V46ZM113.57 38.2602H118.592V45.4443C117.81 45.6935 117.015 45.8821 116.207 46.0101C115.399 46.1381 114.462 46.2021 113.398 46.2021C111.162 46.2021 109.421 45.5386 108.174 44.2116C106.928 42.8778 106.305 41.0119 106.305 38.6139C106.305 37.078 106.612 35.7342 107.225 34.5823C107.844 33.4237 108.733 32.5412 109.892 31.935C111.051 31.322 112.408 31.0155 113.964 31.0155C115.54 31.0155 117.009 31.3052 118.369 31.8845L117.703 33.4001C116.369 32.8343 115.086 32.5514 113.853 32.5514C112.054 32.5514 110.65 33.0869 109.639 34.1579C108.629 35.229 108.124 36.7143 108.124 38.6139C108.124 40.6077 108.609 42.12 109.579 43.1506C110.556 44.1812 111.987 44.6966 113.873 44.6966C114.897 44.6966 115.897 44.5787 116.874 44.3429V39.796H113.57V38.2602ZM128.686 46L123.674 32.905H123.593C123.688 33.9424 123.735 35.1751 123.735 36.6031V46H122.148V31.2277H124.735L129.413 43.4133H129.494L134.213 31.2277H136.779V46H135.062V36.4819C135.062 35.3906 135.109 34.2051 135.203 32.9252H135.122L130.07 46H128.686ZM140.841 46V31.2277H142.559V46H140.841ZM158.16 46H156.199L148.126 33.6022H148.045C148.153 35.0572 148.207 36.3909 148.207 37.6034V46H146.621V31.2277H148.561L156.614 43.575H156.695C156.681 43.3931 156.651 42.8105 156.604 41.827C156.556 40.8368 156.54 40.1295 156.553 39.7051V31.2277H158.16V46ZM170.456 46H162.222V31.2277H170.456V32.7534H163.939V37.5125H170.062V39.0281H163.939V44.4642H170.456V46ZM175.458 39.8567V46H173.74V31.2277H177.792C179.604 31.2277 180.941 31.5746 181.803 32.2684C182.672 32.9623 183.107 34.0064 183.107 35.4007C183.107 37.3542 182.117 38.6745 180.136 39.3616L184.148 46H182.117L178.54 39.8567H175.458ZM175.458 38.3815H177.812C179.025 38.3815 179.914 38.1423 180.48 37.6641C181.046 37.1791 181.328 36.4549 181.328 35.4917C181.328 34.5149 181.039 33.811 180.46 33.3799C179.887 32.9488 178.964 32.7332 177.691 32.7332H175.458V38.3815ZM194.868 42.0695C194.868 43.3695 194.397 44.3833 193.453 45.1108C192.51 45.8383 191.231 46.2021 189.614 46.2021C187.863 46.2021 186.515 45.9764 185.572 45.5251V43.868C186.178 44.124 186.839 44.3261 187.553 44.4743C188.267 44.6225 188.974 44.6966 189.675 44.6966C190.82 44.6966 191.682 44.481 192.261 44.0499C192.84 43.612 193.13 43.0058 193.13 42.2311C193.13 41.7192 193.026 41.3016 192.817 40.9782C192.615 40.6482 192.271 40.345 191.786 40.0689C191.308 39.7927 190.577 39.4794 189.594 39.1292C188.22 38.6374 187.236 38.0548 186.643 37.3811C186.057 36.7075 185.764 35.8285 185.764 34.744C185.764 33.6056 186.192 32.6995 187.047 32.0259C187.903 31.3523 189.035 31.0155 190.442 31.0155C191.911 31.0155 193.262 31.285 194.494 31.8239L193.959 33.3193C192.739 32.8073 191.554 32.5514 190.402 32.5514C189.493 32.5514 188.782 32.7467 188.27 33.1374C187.758 33.5281 187.502 34.0703 187.502 34.7642C187.502 35.2761 187.596 35.6971 187.785 36.0272C187.974 36.3505 188.29 36.6503 188.735 36.9265C189.186 37.1959 189.873 37.4957 190.796 37.8257C192.345 38.3781 193.41 38.9709 193.989 39.6041C194.575 40.2373 194.868 41.0591 194.868 42.0695Z" fill="#999999"/>
</svg>
