<svg width="130" height="14" viewBox="0 0 130 14" fill="none" xmlns="http://www.w3.org/2000/svg">
<path d="M3.24707 6.81641H0.601562V5.31934H3.24707V2.65332H4.74414V5.31934H7.38965V6.81641H4.74414V9.44824H3.24707V6.81641ZM15.1553 3.24121C15.1553 3.86556 14.9661 4.39648 14.5879 4.83398C14.2096 5.27148 13.6787 5.57227 12.9951 5.73633V5.77734C13.8018 5.8776 14.4124 6.1237 14.8271 6.51562C15.2419 6.90299 15.4492 7.42708 15.4492 8.08789C15.4492 9.04948 15.1006 9.79915 14.4033 10.3369C13.7061 10.8701 12.7103 11.1367 11.416 11.1367C10.3314 11.1367 9.36979 10.9567 8.53125 10.5967V8.79883C8.91862 8.99479 9.34473 9.1543 9.80957 9.27734C10.2744 9.40039 10.7347 9.46191 11.1904 9.46191C11.8877 9.46191 12.4027 9.34342 12.7354 9.10645C13.068 8.86947 13.2344 8.48893 13.2344 7.96484C13.2344 7.49544 13.043 7.16276 12.6602 6.9668C12.2773 6.77083 11.6667 6.67285 10.8281 6.67285H10.0693V5.05273H10.8418C11.6165 5.05273 12.1816 4.95247 12.5371 4.75195C12.8971 4.54688 13.0771 4.19824 13.0771 3.70605C13.0771 2.94954 12.6032 2.57129 11.6553 2.57129C11.3271 2.57129 10.9922 2.62598 10.6504 2.73535C10.3132 2.84473 9.93717 3.03385 9.52246 3.30273L8.54492 1.84668C9.45638 1.19043 10.5433 0.862305 11.8057 0.862305C12.8402 0.862305 13.6559 1.07194 14.2529 1.49121C14.8545 1.91048 15.1553 2.49382 15.1553 3.24121ZM17.5479 11L21.3008 2.79688H16.3721V1.01953H23.543V2.3457L19.7627 11H17.5479ZM28.1914 4.61523C29.1576 4.61523 29.9255 4.88639 30.4951 5.42871C31.0693 5.97103 31.3564 6.71387 31.3564 7.65723C31.3564 8.77376 31.0124 9.63281 30.3242 10.2344C29.6361 10.8359 28.6517 11.1367 27.3711 11.1367C26.2591 11.1367 25.3613 10.9567 24.6777 10.5967V8.77148C25.0378 8.96289 25.457 9.12012 25.9355 9.24316C26.4141 9.36165 26.8675 9.4209 27.2959 9.4209C28.5856 9.4209 29.2305 8.89225 29.2305 7.83496C29.2305 6.8278 28.5628 6.32422 27.2275 6.32422C26.986 6.32422 26.7194 6.34928 26.4277 6.39941C26.1361 6.44499 25.8991 6.49512 25.7168 6.5498L24.876 6.09863L25.252 1.00586H30.6729V2.79688H27.1045L26.9199 4.75879L27.1592 4.71094C27.4372 4.64714 27.7812 4.61523 28.1914 4.61523ZM36.1895 7.16504C36.1895 5.95736 36.3649 4.82715 36.7158 3.77441C37.0713 2.72168 37.5817 1.79883 38.2471 1.00586H39.9561C39.3135 1.88542 38.8281 2.85156 38.5 3.9043C38.1719 4.95703 38.0078 6.03939 38.0078 7.15137C38.0078 8.2679 38.1742 9.34798 38.5068 10.3916C38.8441 11.4307 39.3226 12.3717 39.9424 13.2148H38.2471C37.5771 12.4401 37.0667 11.5355 36.7158 10.501C36.3649 9.46647 36.1895 8.35449 36.1895 7.16504ZM48.1455 8.92871H46.9424V11H44.8779V8.92871H40.6123V7.45898L44.9941 1.00586H46.9424V7.28809H48.1455V8.92871ZM44.8779 7.28809V5.59277C44.8779 5.31022 44.8893 4.90007 44.9121 4.3623C44.9349 3.82454 44.9531 3.51237 44.9668 3.42578H44.9121C44.7435 3.79948 44.5407 4.16406 44.3037 4.51953L42.4717 7.28809H44.8779ZM56.1436 8.92871H54.9404V11H52.876V8.92871H48.6104V7.45898L52.9922 1.00586H54.9404V7.28809H56.1436V8.92871ZM52.876 7.28809V5.59277C52.876 5.31022 52.8874 4.90007 52.9102 4.3623C52.9329 3.82454 52.9512 3.51237 52.9648 3.42578H52.9102C52.7415 3.79948 52.5387 4.16406 52.3018 4.51953L50.4697 7.28809H52.876ZM60.5527 7.16504C60.5527 8.36361 60.375 9.48014 60.0195 10.5146C59.6686 11.5492 59.1605 12.4492 58.4951 13.2148H56.7998C57.415 12.3763 57.8913 11.4375 58.2285 10.3984C58.5658 9.35482 58.7344 8.27246 58.7344 7.15137C58.7344 6.03939 58.5703 4.95703 58.2422 3.9043C57.9141 2.85156 57.4287 1.88542 56.7861 1.00586H58.4951C59.165 1.80339 59.6755 2.73079 60.0264 3.78809C60.3773 4.84082 60.5527 5.96647 60.5527 7.16504ZM68.9473 4.61523C69.9134 4.61523 70.6813 4.88639 71.251 5.42871C71.8252 5.97103 72.1123 6.71387 72.1123 7.65723C72.1123 8.77376 71.7682 9.63281 71.0801 10.2344C70.3919 10.8359 69.4076 11.1367 68.127 11.1367C67.015 11.1367 66.1172 10.9567 65.4336 10.5967V8.77148C65.7936 8.96289 66.2129 9.12012 66.6914 9.24316C67.1699 9.36165 67.6234 9.4209 68.0518 9.4209C69.3415 9.4209 69.9863 8.89225 69.9863 7.83496C69.9863 6.8278 69.3187 6.32422 67.9834 6.32422C67.7419 6.32422 67.4753 6.34928 67.1836 6.39941C66.8919 6.44499 66.6549 6.49512 66.4727 6.5498L65.6318 6.09863L66.0078 1.00586H71.4287V2.79688H67.8604L67.6758 4.75879L67.915 4.71094C68.193 4.64714 68.5371 4.61523 68.9473 4.61523ZM76.9453 4.61523C77.9115 4.61523 78.6794 4.88639 79.249 5.42871C79.8232 5.97103 80.1104 6.71387 80.1104 7.65723C80.1104 8.77376 79.7663 9.63281 79.0781 10.2344C78.39 10.8359 77.4056 11.1367 76.125 11.1367C75.013 11.1367 74.1152 10.9567 73.4316 10.5967V8.77148C73.7917 8.96289 74.2109 9.12012 74.6895 9.24316C75.168 9.36165 75.6214 9.4209 76.0498 9.4209C77.3395 9.4209 77.9844 8.89225 77.9844 7.83496C77.9844 6.8278 77.3167 6.32422 75.9814 6.32422C75.7399 6.32422 75.4733 6.34928 75.1816 6.39941C74.89 6.44499 74.653 6.49512 74.4707 6.5498L73.6299 6.09863L74.0059 1.00586H79.4268V2.79688H75.8584L75.6738 4.75879L75.9131 4.71094C76.1911 4.64714 76.5352 4.61523 76.9453 4.61523ZM88.2383 6.00293C88.2383 7.74837 87.9512 9.04036 87.377 9.87891C86.8073 10.7174 85.9277 11.1367 84.7383 11.1367C83.5853 11.1367 82.7148 10.7038 82.127 9.83789C81.5436 8.97201 81.252 7.69368 81.252 6.00293C81.252 4.23926 81.5368 2.94043 82.1064 2.10645C82.6761 1.2679 83.5534 0.848633 84.7383 0.848633C85.8913 0.848633 86.7617 1.28613 87.3496 2.16113C87.9421 3.03613 88.2383 4.31673 88.2383 6.00293ZM83.3506 6.00293C83.3506 7.22884 83.4554 8.1084 83.665 8.6416C83.8792 9.17025 84.237 9.43457 84.7383 9.43457C85.2305 9.43457 85.5859 9.16569 85.8047 8.62793C86.0234 8.09017 86.1328 7.21517 86.1328 6.00293C86.1328 4.77702 86.0212 3.89746 85.7979 3.36426C85.5791 2.8265 85.2259 2.55762 84.7383 2.55762C84.2415 2.55762 83.8861 2.8265 83.6719 3.36426C83.4577 3.89746 83.3506 4.77702 83.3506 6.00293ZM89.1611 8.10156V6.39258H92.832V8.10156H89.1611ZM97.4531 4.61523C98.4193 4.61523 99.1872 4.88639 99.7568 5.42871C100.331 5.97103 100.618 6.71387 100.618 7.65723C100.618 8.77376 100.274 9.63281 99.5859 10.2344C98.8978 10.8359 97.9134 11.1367 96.6328 11.1367C95.5208 11.1367 94.623 10.9567 93.9395 10.5967V8.77148C94.2995 8.96289 94.7188 9.12012 95.1973 9.24316C95.6758 9.36165 96.1292 9.4209 96.5576 9.4209C97.8473 9.4209 98.4922 8.89225 98.4922 7.83496C98.4922 6.8278 97.8245 6.32422 96.4893 6.32422C96.2477 6.32422 95.9811 6.34928 95.6895 6.39941C95.3978 6.44499 95.1608 6.49512 94.9785 6.5498L94.1377 6.09863L94.5137 1.00586H99.9346V2.79688H96.3662L96.1816 4.75879L96.4209 4.71094C96.6989 4.64714 97.043 4.61523 97.4531 4.61523ZM105.451 4.61523C106.417 4.61523 107.185 4.88639 107.755 5.42871C108.329 5.97103 108.616 6.71387 108.616 7.65723C108.616 8.77376 108.272 9.63281 107.584 10.2344C106.896 10.8359 105.911 11.1367 104.631 11.1367C103.519 11.1367 102.621 10.9567 101.938 10.5967V8.77148C102.298 8.96289 102.717 9.12012 103.195 9.24316C103.674 9.36165 104.127 9.4209 104.556 9.4209C105.845 9.4209 106.49 8.89225 106.49 7.83496C106.49 6.8278 105.823 6.32422 104.487 6.32422C104.246 6.32422 103.979 6.34928 103.688 6.39941C103.396 6.44499 103.159 6.49512 102.977 6.5498L102.136 6.09863L102.512 1.00586H107.933V2.79688H104.364L104.18 4.75879L104.419 4.71094C104.697 4.64714 105.041 4.61523 105.451 4.61523ZM109.669 8.10156V6.39258H113.34V8.10156H109.669ZM117.961 4.61523C118.927 4.61523 119.695 4.88639 120.265 5.42871C120.839 5.97103 121.126 6.71387 121.126 7.65723C121.126 8.77376 120.782 9.63281 120.094 10.2344C119.406 10.8359 118.421 11.1367 117.141 11.1367C116.029 11.1367 115.131 10.9567 114.447 10.5967V8.77148C114.807 8.96289 115.227 9.12012 115.705 9.24316C116.184 9.36165 116.637 9.4209 117.065 9.4209C118.355 9.4209 119 8.89225 119 7.83496C119 6.8278 118.332 6.32422 116.997 6.32422C116.756 6.32422 116.489 6.34928 116.197 6.39941C115.906 6.44499 115.669 6.49512 115.486 6.5498L114.646 6.09863L115.021 1.00586H120.442V2.79688H116.874L116.689 4.75879L116.929 4.71094C117.207 4.64714 117.551 4.61523 117.961 4.61523ZM129.254 6.00293C129.254 7.74837 128.967 9.04036 128.393 9.87891C127.823 10.7174 126.943 11.1367 125.754 11.1367C124.601 11.1367 123.73 10.7038 123.143 9.83789C122.559 8.97201 122.268 7.69368 122.268 6.00293C122.268 4.23926 122.552 2.94043 123.122 2.10645C123.692 1.2679 124.569 0.848633 125.754 0.848633C126.907 0.848633 127.777 1.28613 128.365 2.16113C128.958 3.03613 129.254 4.31673 129.254 6.00293ZM124.366 6.00293C124.366 7.22884 124.471 8.1084 124.681 8.6416C124.895 9.17025 125.253 9.43457 125.754 9.43457C126.246 9.43457 126.602 9.16569 126.82 8.62793C127.039 8.09017 127.148 7.21517 127.148 6.00293C127.148 4.77702 127.037 3.89746 126.813 3.36426C126.595 2.8265 126.242 2.55762 125.754 2.55762C125.257 2.55762 124.902 2.8265 124.688 3.36426C124.473 3.89746 124.366 4.77702 124.366 6.00293Z" fill="black"/>
</svg>
