<svg width="9" height="12" viewBox="0 0 9 12" fill="none" xmlns="http://www.w3.org/2000/svg">
<path fill-rule="evenodd" clip-rule="evenodd" d="M6.53149 8.34284C7.20657 8.77312 7.90423 9.16686 8.62148 9.52236C8.69876 9.55315 8.7688 9.59969 8.82714 9.65901C8.88548 9.71833 8.93085 9.78914 8.96038 9.86694C8.98991 9.94475 9.00297 10.0278 8.99868 10.111C8.99439 10.1941 8.97285 10.2754 8.93548 10.3497L8.81649 10.7669C8.78649 10.9216 8.71876 11.0664 8.61932 11.1886C8.51988 11.3108 8.3918 11.4065 8.24648 11.4672C7.77984 11.7354 7.26806 11.9157 6.73647 11.9995C5.28847 12.0295 4.00848 10.8199 3.11248 9.80849C2.54061 9.16638 2.03255 8.47013 1.59548 7.72957C1.16367 6.98912 0.805614 6.20803 0.526481 5.39753C0.0844811 4.12697 -0.339516 2.43022 0.410484 1.20968C0.752073 0.797299 1.16665 0.451383 1.63348 0.189233C1.76139 0.0955831 1.9101 0.0343713 2.06686 0.0108478C2.22361 -0.0126756 2.38375 0.00218916 2.5335 0.0541714L2.9605 0.161217C3.0431 0.169991 3.12308 0.195201 3.19579 0.235362C3.26851 0.275523 3.33247 0.329824 3.3839 0.395074C3.43533 0.460323 3.47321 0.535204 3.49529 0.61531C3.51737 0.695416 3.5232 0.779128 3.51247 0.861528C3.50547 1.78894 3.49149 2.45423 3.52349 3.21657C3.53549 3.53271 3.4115 3.57773 3.1235 3.68878L2.65649 3.86886C2.58063 3.8803 2.50799 3.90741 2.44317 3.94846C2.37835 3.98952 2.32275 4.04361 2.27996 4.10731C2.23717 4.17101 2.20811 4.24293 2.1946 4.31848C2.18109 4.39403 2.18344 4.47157 2.2015 4.54616C2.54915 6.20107 3.42687 7.69737 4.7015 8.80804C4.75782 8.86104 4.82438 8.90195 4.89709 8.92826C4.9698 8.95457 5.04711 8.96573 5.12429 8.96104C5.20147 8.95636 5.27685 8.93593 5.34585 8.90102C5.41484 8.8661 5.47597 8.81744 5.52547 8.75802L5.9165 8.45089C5.94965 8.40292 5.99201 8.36204 6.04113 8.33063C6.09024 8.29922 6.14513 8.27791 6.20257 8.26795C6.26 8.25798 6.31884 8.25956 6.37566 8.27259C6.43248 8.28562 6.48614 8.30984 6.5335 8.34384L6.53149 8.34284Z" fill="#222222"/>
</svg>
