<svg width="197" height="75" viewBox="0 0 197 75" fill="none" xmlns="http://www.w3.org/2000/svg">
<path d="M20.1619 22.9205L20.4755 36.6857H16.4883V21.6234H22.9844L32.3925 33.6679L41.7783 21.6234H48.1624V36.6857H44.3095L44.5783 22.9205L33.8486 36.6857H30.8693L20.1619 22.9205ZM54.8153 21.597L63.8874 31.2855L72.6684 21.597H76.9245L63.3498 36.6592H59.0938L61.9386 33.615L50.5592 21.597H54.8153ZM76.8349 32.4767C76.8349 33.7738 77.8877 34.8592 79.9933 35.7327C82.0093 36.5533 84.4062 36.9769 87.1614 36.9769C89.8495 36.9769 92.1791 36.5533 94.1727 35.7327C96.2784 34.8592 97.3312 33.8003 97.3312 32.5561C97.3312 30.862 95.5616 29.5913 92.0447 28.7443C92.9855 28.506 93.5231 28.3207 93.7023 28.2678C95.6064 27.4736 96.5472 26.5471 96.5472 25.4353C96.5472 24.2176 95.6064 23.2117 93.7247 22.444C91.8431 21.6764 89.6031 21.2793 87.0046 21.2793C84.563 21.2793 82.3901 21.6764 80.5309 22.497C78.6717 23.2911 77.7309 24.297 77.7309 25.4618H82.1437C82.1437 24.7471 82.6366 24.1911 83.6222 23.7676C84.6078 23.3441 85.8622 23.1588 87.3854 23.1588C88.8414 23.1588 90.0287 23.3705 90.9247 23.7941C91.8207 24.2176 92.2911 24.7735 92.2911 25.4618C92.2911 25.9118 92.1343 26.3089 91.7983 26.6265C91.1263 27.3148 89.9391 27.7648 88.259 27.9236C87.6766 27.9766 86.1086 28.003 83.5774 28.003V29.5913H87.1614C88.8414 29.5913 90.2527 29.8825 91.3503 30.4384C92.4703 30.9943 93.0079 31.7091 93.0079 32.5297C93.0079 33.3768 92.4703 34.0121 91.3951 34.4621C90.3199 34.8856 88.8638 35.1239 87.0718 35.1239C85.3918 35.1239 84.003 34.8856 82.9053 34.4091C81.8301 33.9327 81.2925 33.2973 81.2925 32.5032H76.8349V32.4767ZM101.363 36.6592V21.597H105.53V27.6589H108.464C111.847 27.6589 114.512 28.003 116.483 28.6648C118.701 29.4325 119.799 30.5972 119.799 32.1591C119.799 33.7209 118.701 34.8856 116.483 35.6533C114.535 36.3151 111.869 36.6592 108.464 36.6592H101.363ZM105.53 29.5119V34.7797H108.464C110.704 34.7797 112.384 34.6209 113.459 34.2768C114.803 33.8797 115.475 33.165 115.475 32.1326C115.475 31.1002 114.826 30.3855 113.504 29.9884C112.451 29.6707 110.771 29.5119 108.464 29.5119H105.53ZM126.765 21.597V36.6592H122.599V21.597H126.765ZM136.509 21.597V36.6592H132.343V21.597H136.509ZM148.561 36.6592L136.957 29.0619L149.076 21.597H154.071L141.505 29.0619L153.802 36.6592H148.561ZM176.987 36.6592H181.512L169.169 21.597H165.003L152.66 36.6592H157.163L160.635 32.2385H173.492L176.987 36.6592ZM167.108 24.0853L172.059 30.359H162.046L167.108 24.0853Z" fill="#999999"/>
<path d="M4.5 41.7091V15.5H193.5V41.7091H4.5Z" stroke="#999999" stroke-miterlimit="22.9256"/>
<path d="M66.4414 57.7453H67.6181V51.8569C67.6181 51.7773 67.6181 51.7242 67.6412 51.6447C67.6642 51.5651 67.6873 51.5121 67.7565 51.4855C67.8257 51.4325 67.9411 51.406 68.0334 51.3794C68.1487 51.3529 68.241 51.3529 68.3564 51.3529H73.986V57.7453H75.1627V51.3529H79.2234C79.408 51.3529 79.5925 51.3529 79.8002 51.3794C80.0078 51.406 80.2385 51.4325 80.4462 51.4855C80.6538 51.5386 80.8384 51.6181 81.023 51.7242C81.1614 51.8038 81.2768 51.9099 81.346 52.0425C81.4152 52.1486 81.4614 52.2813 81.4844 52.3873C81.5075 52.4934 81.5306 52.6261 81.5075 52.7322V57.7718H82.6842V52.7587C82.6842 52.573 82.6611 52.3608 82.615 52.1752C82.5688 51.9895 82.4766 51.8038 82.3381 51.6182C82.1997 51.459 82.0151 51.2999 81.7613 51.1672C81.4383 51.0081 81.0691 50.902 80.6308 50.8224C80.1924 50.7694 79.731 50.7163 79.2464 50.7163H68.1026C67.9872 50.7163 67.8488 50.7163 67.6873 50.7429C67.5258 50.7694 67.3643 50.7959 67.2028 50.8489C67.0413 50.902 66.8798 50.9816 66.7644 51.1142C66.6491 51.2203 66.5798 51.3529 66.5568 51.4855C66.5106 51.6182 66.5106 51.7508 66.5106 51.9099V57.7453H66.4414ZM94.4971 56.6312V50.7429H93.3205V56.5517C93.3205 56.6047 93.3205 56.6843 93.2974 56.7639C93.2743 56.8434 93.2051 56.923 93.0897 57.0026C92.9974 57.0556 92.8821 57.0822 92.7436 57.1087C92.6052 57.1352 92.4668 57.1352 92.3053 57.1352H88.9829C88.6599 57.1352 88.3369 57.1352 88.06 57.1087C87.7601 57.0822 87.4832 57.0291 87.2525 56.9761C86.9987 56.8965 86.791 56.8169 86.6295 56.6843C86.5372 56.6312 86.468 56.5517 86.3988 56.4456C86.3296 56.3395 86.2604 56.2069 86.2142 56.0477C86.1681 55.8886 86.145 55.6764 86.145 55.4376V50.7429H84.9683V55.6499C84.9683 55.809 84.9914 55.9681 85.0145 56.1538C85.0376 56.3395 85.1298 56.5252 85.2913 56.7373C85.4298 56.923 85.6605 57.1087 85.9604 57.2944C86.2142 57.427 86.4911 57.5331 86.791 57.6126C87.091 57.6922 87.3909 57.7187 87.737 57.7453C88.0831 57.7718 88.4753 57.7718 88.8906 57.7718H92.1668C92.3976 57.7718 92.6052 57.7718 92.8359 57.7718C93.0436 57.7718 93.2743 57.7453 93.4589 57.7188C93.6665 57.6922 93.828 57.6392 93.9895 57.5596C94.1511 57.48 94.2664 57.3739 94.3587 57.2944C94.4279 57.1883 94.4971 57.0822 94.5202 56.9761C94.4741 56.8169 94.4971 56.7108 94.4971 56.6312ZM97.5657 57.7453H105.18V57.1352H97.5657C97.5196 57.1352 97.4734 57.1352 97.4273 57.1352C97.3811 57.1352 97.3581 57.1087 97.3581 57.0822C97.3581 57.0556 97.3811 57.0026 97.4273 56.9761C97.4734 56.9495 97.4965 56.923 97.5427 56.8965L104.764 51.8834C104.833 51.8303 104.88 51.7773 104.926 51.7242C104.972 51.6447 105.018 51.5916 105.041 51.512C105.064 51.4325 105.087 51.3794 105.087 51.3264C105.087 51.2468 105.041 51.1407 104.972 51.0611C104.903 50.9816 104.787 50.902 104.649 50.8489C104.51 50.7959 104.326 50.7694 104.095 50.7694H96.4121V51.3794H103.564C103.634 51.3794 103.703 51.3794 103.749 51.406C103.795 51.4325 103.818 51.459 103.841 51.512C103.841 51.5651 103.818 51.5916 103.772 51.6182C103.726 51.6447 103.68 51.6712 103.634 51.6977L96.689 56.4456C96.5967 56.4986 96.5044 56.5517 96.4352 56.6312C96.3429 56.7108 96.2737 56.7904 96.2045 56.87C96.1353 56.9495 96.1122 57.0556 96.1122 57.1617C96.1122 57.2944 96.1583 57.4005 96.2737 57.48C96.366 57.5596 96.5044 57.6127 96.6428 57.6657C96.8043 57.6922 96.9658 57.7453 97.1274 57.7453C97.2658 57.7453 97.4273 57.7453 97.5657 57.7453ZM108.11 57.7453V56.6047H106.748V57.7453H108.11ZM110.394 48.4883V56.6578C110.394 56.7374 110.394 56.8434 110.417 56.9495C110.44 57.0556 110.486 57.1617 110.578 57.2678C110.648 57.3739 110.786 57.4535 110.948 57.5596C111.086 57.6126 111.271 57.6657 111.455 57.6922C111.663 57.7187 111.87 57.7453 112.101 57.7453C112.332 57.7453 112.563 57.7453 112.793 57.7453H115.377C115.7 57.7453 116.047 57.7453 116.416 57.7188C116.785 57.6922 117.154 57.6392 117.523 57.5596C117.892 57.48 118.238 57.3739 118.561 57.2148C118.884 57.0556 119.184 56.87 119.461 56.6047C119.715 56.366 119.876 56.1008 119.992 55.8355C120.107 55.5703 120.176 55.305 120.199 55.0398C120.223 54.7745 120.246 54.5358 120.246 54.3236C120.246 54.0849 120.246 53.8197 120.199 53.5279C120.176 53.2361 120.107 52.9709 119.992 52.6791C119.876 52.3874 119.692 52.1221 119.438 51.8834C119.184 51.6182 118.884 51.4325 118.538 51.2733C118.192 51.1142 117.846 51.0081 117.477 50.9285C117.108 50.8489 116.739 50.7959 116.37 50.7694C116 50.7428 115.654 50.7163 115.331 50.7429H111.571V48.4883H110.394ZM111.571 51.3529H115.239C115.516 51.3529 115.816 51.3529 116.116 51.3794C116.416 51.406 116.739 51.4325 117.039 51.512C117.339 51.5916 117.615 51.6712 117.869 51.8038C118.123 51.9364 118.331 52.1221 118.515 52.3343C118.608 52.4669 118.677 52.5995 118.746 52.7852C118.815 52.9709 118.861 53.1566 118.884 53.3422C118.931 53.5544 118.954 53.7401 118.954 53.9523C118.977 54.138 118.977 54.3501 118.977 54.5093C118.977 54.8276 118.954 55.1459 118.884 55.4376C118.815 55.7294 118.677 55.9681 118.469 56.1803C118.261 56.3925 118.008 56.5782 117.731 56.7108C117.454 56.8435 117.154 56.923 116.831 56.9761C116.508 57.0291 116.208 57.0822 115.908 57.0822C115.608 57.1087 115.354 57.1087 115.124 57.1087H112.378C112.309 57.1087 112.217 57.1087 112.147 57.1087C112.055 57.1087 111.963 57.0822 111.894 57.0822C111.801 57.0556 111.732 57.0291 111.686 57.0026C111.617 56.9495 111.571 56.87 111.571 56.8169C111.571 56.7373 111.547 56.6578 111.547 56.5782V51.3529H111.571ZM132.451 50.7163H131.182L126.452 56.87L121.999 50.7163H120.73L125.806 57.6922L123.983 59.9998H125.252L132.451 50.7163Z" fill="#999999"/>
</svg>
