<svg width="65" height="12" viewBox="0 0 65 12" fill="none" xmlns="http://www.w3.org/2000/svg">
<path d="M9.12207 11H6.85889V6.37842H2.61816V11H0.347656V0.291992H2.61816V4.48877H6.85889V0.291992H9.12207V11ZM13.436 6.89111C13.436 7.70166 13.5679 8.31445 13.8315 8.72949C14.1001 9.14453 14.5347 9.35205 15.1353 9.35205C15.731 9.35205 16.1582 9.14697 16.417 8.73682C16.6807 8.32178 16.8125 7.70654 16.8125 6.89111C16.8125 6.08057 16.6807 5.47266 16.417 5.06738C16.1533 4.66211 15.7212 4.45947 15.1206 4.45947C14.5249 4.45947 14.0952 4.66211 13.8315 5.06738C13.5679 5.46777 13.436 6.07568 13.436 6.89111ZM19.0977 6.89111C19.0977 8.22412 18.7461 9.2666 18.043 10.0186C17.3398 10.7705 16.3608 11.1465 15.106 11.1465C14.3198 11.1465 13.6265 10.9756 13.0259 10.6338C12.4253 10.2871 11.9639 9.7915 11.6416 9.14697C11.3193 8.50244 11.1582 7.75049 11.1582 6.89111C11.1582 5.55322 11.5073 4.51318 12.2056 3.771C12.9038 3.02881 13.8853 2.65771 15.1499 2.65771C15.936 2.65771 16.6294 2.82861 17.23 3.17041C17.8306 3.51221 18.292 4.00293 18.6143 4.64258C18.9365 5.28223 19.0977 6.03174 19.0977 6.89111ZM28.502 4.95752C28.502 5.39697 28.3628 5.77295 28.0845 6.08545C27.811 6.39307 27.4058 6.59082 26.8687 6.67871V6.7373C27.4497 6.80566 27.9087 7.00586 28.2456 7.33789C28.5874 7.66504 28.7583 8.07031 28.7583 8.55371C28.7583 9.34961 28.4458 9.95752 27.8208 10.3774C27.1958 10.7925 26.3022 11 25.1401 11H20.9434V2.81152H25.1401C26.2632 2.81152 27.103 2.99463 27.6597 3.36084C28.2212 3.72217 28.502 4.25439 28.502 4.95752ZM26.4438 8.43652C26.4438 8.11426 26.3193 7.88232 26.0703 7.74072C25.8213 7.59424 25.4478 7.521 24.9497 7.521H23.1772V9.45459H24.9937C25.4673 9.45459 25.8262 9.3667 26.0703 9.19092C26.3193 9.01025 26.4438 8.75879 26.4438 8.43652ZM26.2388 5.1333C26.2388 4.63525 25.8433 4.38623 25.0522 4.38623H23.1772V6.00488H24.7959C25.2695 6.00488 25.6284 5.93652 25.8726 5.7998C26.1167 5.66309 26.2388 5.44092 26.2388 5.1333ZM32.3179 6.89111C32.3179 7.70166 32.4497 8.31445 32.7134 8.72949C32.9819 9.14453 33.4165 9.35205 34.0171 9.35205C34.6128 9.35205 35.04 9.14697 35.2988 8.73682C35.5625 8.32178 35.6943 7.70654 35.6943 6.89111C35.6943 6.08057 35.5625 5.47266 35.2988 5.06738C35.0352 4.66211 34.603 4.45947 34.0024 4.45947C33.4067 4.45947 32.9771 4.66211 32.7134 5.06738C32.4497 5.46777 32.3179 6.07568 32.3179 6.89111ZM37.9795 6.89111C37.9795 8.22412 37.6279 9.2666 36.9248 10.0186C36.2217 10.7705 35.2427 11.1465 33.9878 11.1465C33.2017 11.1465 32.5083 10.9756 31.9077 10.6338C31.3071 10.2871 30.8457 9.7915 30.5234 9.14697C30.2012 8.50244 30.04 7.75049 30.04 6.89111C30.04 5.55322 30.3892 4.51318 31.0874 3.771C31.7856 3.02881 32.7671 2.65771 34.0317 2.65771C34.8179 2.65771 35.5112 2.82861 36.1118 3.17041C36.7124 3.51221 37.1738 4.00293 37.4961 4.64258C37.8184 5.28223 37.9795 6.03174 37.9795 6.89111ZM43.1504 11.1465C40.6016 11.1465 39.3271 9.74756 39.3271 6.94971C39.3271 5.55811 39.6738 4.49609 40.3672 3.76367C41.0605 3.02637 42.0542 2.65771 43.3481 2.65771C44.2954 2.65771 45.145 2.84326 45.897 3.21436L45.2378 4.94287C44.8862 4.80127 44.5591 4.68652 44.2563 4.59863C43.9536 4.50586 43.6509 4.45947 43.3481 4.45947C42.186 4.45947 41.605 5.28467 41.605 6.93506C41.605 8.53662 42.186 9.3374 43.3481 9.3374C43.7778 9.3374 44.1758 9.28125 44.542 9.16895C44.9082 9.05176 45.2744 8.87109 45.6406 8.62695V10.5386C45.2793 10.7681 44.9131 10.9268 44.542 11.0146C44.1758 11.1025 43.7119 11.1465 43.1504 11.1465ZM54.3198 2.81152V4.48877H51.6392V11H49.4053V4.48877H46.7173V2.81152H54.3198ZM58.0112 2.81152V6.04883C58.0112 6.39062 57.9551 7.22559 57.8428 8.55371L61.6221 2.81152H64.3101V11H62.1494V7.7334C62.1494 7.15234 62.1982 6.33203 62.2959 5.27246L58.5312 11H55.8506V2.81152H58.0112Z" fill="black"/>
</svg>
