<svg width="137" height="15" viewBox="0 0 137 15" fill="none" xmlns="http://www.w3.org/2000/svg">
<path d="M8.06934 11H7.37207V1.66211H1.60254V11H0.905273V1.00586H8.06934V11ZM15.2402 11L15.0693 9.82422H15.0146C14.641 10.3027 14.2559 10.6423 13.8594 10.8428C13.4674 11.0387 13.0026 11.1367 12.4648 11.1367C11.7357 11.1367 11.1683 10.9499 10.7627 10.5762C10.3571 10.2025 10.1543 9.68522 10.1543 9.02441C10.1543 8.2998 10.4551 7.73698 11.0566 7.33594C11.6628 6.9349 12.5378 6.72298 13.6816 6.7002L15.0967 6.65918V6.16699C15.0967 5.46061 14.9531 4.92741 14.666 4.56738C14.3789 4.20736 13.9163 4.02734 13.2783 4.02734C12.5902 4.02734 11.877 4.21875 11.1387 4.60156L10.8857 4.01367C11.7015 3.63086 12.5081 3.43945 13.3057 3.43945C14.1214 3.43945 14.7298 3.65137 15.1309 4.0752C15.5365 4.49902 15.7393 5.15983 15.7393 6.05762V11H15.2402ZM12.5059 10.5215C13.2988 10.5215 13.9232 10.2959 14.3789 9.84473C14.8392 9.389 15.0693 8.75781 15.0693 7.95117V7.21973L13.7705 7.27441C12.7269 7.32454 11.9818 7.48861 11.5352 7.7666C11.0931 8.04004 10.8721 8.46842 10.8721 9.05176C10.8721 9.5166 11.0133 9.87891 11.2959 10.1387C11.583 10.3939 11.9863 10.5215 12.5059 10.5215ZM21.3311 11.1367C20.1872 11.1367 19.3532 10.7083 18.8291 9.85156H18.7812L18.8018 10.4258C18.82 10.763 18.8291 11.1322 18.8291 11.5332V14.3633H18.1523V3.56934H18.7266L18.8564 4.62891H18.8975C19.4079 3.82682 20.2236 3.42578 21.3447 3.42578C22.3473 3.42578 23.1107 3.75618 23.6348 4.41699C24.1634 5.07324 24.4277 6.03027 24.4277 7.28809C24.4277 8.50944 24.1497 9.45736 23.5938 10.1318C23.0423 10.8018 22.2881 11.1367 21.3311 11.1367ZM21.3174 10.5352C22.0785 10.5352 22.6663 10.2526 23.0811 9.6875C23.5003 9.1224 23.71 8.33171 23.71 7.31543C23.71 5.13249 22.9215 4.04102 21.3447 4.04102C20.4788 4.04102 19.8431 4.28027 19.4375 4.75879C19.0319 5.23275 18.8291 6.00749 18.8291 7.08301V7.30176C18.8291 8.46387 19.0228 9.29329 19.4102 9.79004C19.8021 10.2868 20.4378 10.5352 21.3174 10.5352ZM31.209 4.15723H28.7344V11H28.0645V4.15723H25.5283V3.56934H31.209V4.15723ZM33.417 3.56934V6.83008H38.1338V3.56934H38.8037V11H38.1338V7.41797H33.417V11H32.7402V3.56934H33.417ZM44.2998 11.1367C43.2197 11.1367 42.3766 10.804 41.7705 10.1387C41.1689 9.47331 40.8682 8.54134 40.8682 7.34277C40.8682 6.15788 41.1598 5.20996 41.7432 4.49902C42.3265 3.78353 43.1126 3.42578 44.1016 3.42578C44.9766 3.42578 45.667 3.73112 46.1729 4.3418C46.6787 4.95247 46.9316 5.7819 46.9316 6.83008V7.37695H41.5791C41.5882 8.39779 41.8252 9.17708 42.29 9.71484C42.7594 10.2526 43.4294 10.5215 44.2998 10.5215C44.7236 10.5215 45.0951 10.4919 45.4141 10.4326C45.7376 10.3734 46.1455 10.2458 46.6377 10.0498V10.665C46.2184 10.8473 45.8311 10.9704 45.4756 11.0342C45.1201 11.1025 44.7282 11.1367 44.2998 11.1367ZM44.1016 4.02734C43.3861 4.02734 42.8118 4.26432 42.3789 4.73828C41.946 5.20768 41.693 5.88672 41.6201 6.77539H46.2139C46.2139 5.91406 46.027 5.24186 45.6533 4.75879C45.2796 4.27116 44.7624 4.02734 44.1016 4.02734ZM52.1611 11.1367C51.0173 11.1367 50.1833 10.7083 49.6592 9.85156H49.6113L49.6318 10.4258C49.6501 10.763 49.6592 11.1322 49.6592 11.5332V14.3633H48.9824V3.56934H49.5566L49.6865 4.62891H49.7275C50.238 3.82682 51.0537 3.42578 52.1748 3.42578C53.1774 3.42578 53.9408 3.75618 54.4648 4.41699C54.9935 5.07324 55.2578 6.03027 55.2578 7.28809C55.2578 8.50944 54.9798 9.45736 54.4238 10.1318C53.8724 10.8018 53.1182 11.1367 52.1611 11.1367ZM52.1475 10.5352C52.9085 10.5352 53.4964 10.2526 53.9111 9.6875C54.3304 9.1224 54.54 8.33171 54.54 7.31543C54.54 5.13249 53.7516 4.04102 52.1748 4.04102C51.3089 4.04102 50.6732 4.28027 50.2676 4.75879C49.862 5.23275 49.6592 6.00749 49.6592 7.08301V7.30176C49.6592 8.46387 49.8529 9.29329 50.2402 9.79004C50.6322 10.2868 51.2679 10.5352 52.1475 10.5352ZM68.0137 11H67.3438V3.71973C67.3438 3.05892 67.3711 2.37305 67.4258 1.66211C67.3574 1.73047 67.2868 1.79655 67.2139 1.86035C67.141 1.92415 66.4368 2.47786 65.1016 3.52148L64.7119 3.03613L67.4258 1.00586H68.0137V11ZM77.0303 1.49121C75.777 1.49121 74.7904 1.89225 74.0703 2.69434C73.3503 3.49642 72.9902 4.59473 72.9902 5.98926C72.9902 7.41569 73.3298 8.52311 74.0088 9.31152C74.6878 10.0999 75.6585 10.4941 76.9209 10.4941C77.7594 10.4941 78.5296 10.387 79.2314 10.1729V10.7881C78.5706 11.0205 77.7458 11.1367 76.7568 11.1367C75.3532 11.1367 74.248 10.6833 73.4414 9.77637C72.6348 8.86947 72.2314 7.60254 72.2314 5.97559C72.2314 4.95931 72.4229 4.0638 72.8057 3.28906C73.193 2.51432 73.7467 1.91732 74.4668 1.49805C75.1914 1.07422 76.0322 0.862305 76.9893 0.862305C77.9645 0.862305 78.8372 1.0446 79.6074 1.40918L79.3271 2.03809C78.598 1.6735 77.8324 1.49121 77.0303 1.49121ZM87.7969 5.41504C88.9453 5.41504 89.8066 5.63379 90.3809 6.07129C90.9551 6.50423 91.2422 7.1901 91.2422 8.12891C91.2422 9.04948 90.9574 9.75814 90.3877 10.2549C89.8226 10.7516 89.0114 11 87.9541 11H85.0967V1.00586H90.709V1.66211H85.7939V5.41504H87.7969ZM85.7939 10.3848H87.8379C88.7357 10.3848 89.401 10.2048 89.834 9.84473C90.2669 9.48014 90.4834 8.9082 90.4834 8.12891C90.4834 7.37695 90.2646 6.83919 89.8271 6.51562C89.3896 6.19206 88.681 6.03027 87.7012 6.03027H85.7939V10.3848ZM93.9082 3.56934V8.94238L93.8672 10.3438L98.2764 3.56934H99.1787V11H98.5293V5.66113L98.5566 4.22559L94.1475 11H93.2656V3.56934H93.9082ZM106.391 4.15723H103.916V11H103.246V4.15723H100.71V3.56934H106.391V4.15723ZM111.101 11.1367C109.957 11.1367 109.123 10.7083 108.599 9.85156H108.551L108.571 10.4258C108.59 10.763 108.599 11.1322 108.599 11.5332V14.3633H107.922V3.56934H108.496L108.626 4.62891H108.667C109.177 3.82682 109.993 3.42578 111.114 3.42578C112.117 3.42578 112.88 3.75618 113.404 4.41699C113.933 5.07324 114.197 6.03027 114.197 7.28809C114.197 8.50944 113.919 9.45736 113.363 10.1318C112.812 10.8018 112.058 11.1367 111.101 11.1367ZM111.087 10.5352C111.848 10.5352 112.436 10.2526 112.851 9.6875C113.27 9.1224 113.479 8.33171 113.479 7.31543C113.479 5.13249 112.691 4.04102 111.114 4.04102C110.248 4.04102 109.613 4.28027 109.207 4.75879C108.801 5.23275 108.599 6.00749 108.599 7.08301V7.30176C108.599 8.46387 108.792 9.29329 109.18 9.79004C109.572 10.2868 110.207 10.5352 111.087 10.5352ZM116.904 3.56934V8.94238L116.863 10.3438L121.272 3.56934H122.175V11H121.525V5.66113L121.553 4.22559L117.144 11H116.262V3.56934H116.904ZM128.703 3.56934H129.544L126.215 7.16504L129.783 11H128.874L125.36 7.2334V11H124.67V3.56934H125.36V7.17871L128.703 3.56934ZM134.062 11.1367C133.001 11.1367 132.169 10.8018 131.567 10.1318C130.966 9.46191 130.665 8.52767 130.665 7.3291C130.665 6.09863 130.977 5.1416 131.602 4.45801C132.226 3.76986 133.08 3.42578 134.165 3.42578C134.808 3.42578 135.423 3.53743 136.011 3.76074L135.826 4.3623C135.184 4.14811 134.625 4.04102 134.151 4.04102C133.24 4.04102 132.549 4.32357 132.08 4.88867C131.611 5.44922 131.376 6.25814 131.376 7.31543C131.376 8.31803 131.611 9.10417 132.08 9.67383C132.549 10.2389 133.206 10.5215 134.049 10.5215C134.723 10.5215 135.35 10.4007 135.929 10.1592V10.7881C135.455 11.0205 134.833 11.1367 134.062 11.1367Z" fill="black"/>
</svg>
