<svg width="155" height="43" viewBox="0 0 155 43" fill="none" xmlns="http://www.w3.org/2000/svg">
<path d="M85.8718 8.69351C84.1677 8.84356 82.834 2.91684 82.834 2.91684L81.9449 3.21693C81.9449 3.21693 84.0195 8.76853 82.6858 9.59377C81.3522 10.419 77.6476 6.14278 77.6476 6.14278L76.9807 6.74295C76.9807 6.74295 81.7226 11.1692 84.1676 17.396H84.2417C86.3163 15.7456 88.8354 16.0456 88.8354 16.0456H88.9095C87.2054 9.89386 89.28 3.21693 89.28 3.21693L88.3909 3.06689C88.3909 2.91684 87.5018 8.54347 85.8718 8.69351ZM82.2413 2.24165C82.834 2.0916 83.2045 1.41641 82.9822 0.816236C82.7599 0.216062 82.1672 -0.159046 81.5744 0.0660191C80.9817 0.216062 80.6112 0.891258 80.8335 1.49143C80.9817 2.01658 81.5744 2.39169 82.2413 2.24165ZM88.6872 0.291084C88.0945 0.441128 87.7981 1.0413 87.9463 1.64147C88.0945 2.24165 88.7613 2.54173 89.28 2.39169C89.8727 2.24165 90.1691 1.64147 90.0209 1.0413C89.8727 0.441128 89.28 0.0660191 88.6872 0.291084ZM77.1289 4.71736C76.9807 4.11719 76.3139 3.8171 75.7953 3.96715C75.2025 4.11719 74.9062 4.71736 75.0544 5.31754C75.2025 5.91771 75.7953 6.2178 76.388 6.06775C76.9807 5.84269 77.2771 5.24252 77.1289 4.71736Z" fill="#999999"/>
<path d="M150.48 20.9089H149.665V20.5319H151.666V20.9089H150.851V23.0199H150.406L150.48 20.9089ZM152.11 20.5319H152.555L153.296 21.7382L154.037 20.5319H154.481V23.0199H154.111V21.2104L153.37 22.4168L152.629 21.2858V23.0199H152.185V20.5319H152.11ZM43.9364 42.1702C39.1205 42.1702 36.305 38.0234 36.305 31.5395C36.305 31.1625 36.305 30.7856 36.305 30.4086H54.8279C54.6056 23.9246 50.1601 20.0795 43.8623 20.0795C37.5645 20.0795 32.4522 24.6786 32.4522 31.5395C32.4522 37.7973 36.5272 42.9995 43.9364 42.9995C48.9006 42.9241 53.0497 40.0591 54.6056 35.46L53.272 35.0077C52.2347 39.4559 48.6783 42.1702 43.9364 42.1702ZM43.9364 20.8335C48.6042 20.8335 50.9751 24.0754 51.0492 29.5039H36.3791C36.9718 24.0754 39.565 20.8335 43.9364 20.8335ZM89.2806 41.567V20.5319H81.7973V21.512H85.6501V41.567H81.7973V42.5471H93.3556V41.567H89.2806ZM30.0813 21.7382C30.0813 15.3297 24.6726 12.1631 17.9302 12.1631H0.444551V13.0678H5.77916V41.4916H0V42.4717H16.5966V41.4916H9.78012V13.0678H18.0043C22.3757 13.0678 26.0062 14.9527 26.0062 21.7382C26.0062 27.0912 23.2648 30.861 18.7452 30.861C15.337 30.861 12.892 29.0515 12.8179 29.0515L12.077 30.4086C12.2251 30.484 14.7443 31.6903 18.2266 31.6903C24.5985 31.7657 30.0813 28.2975 30.0813 21.7382ZM73.8695 19.7779C70.9058 19.7779 67.2012 21.9644 65.6453 26.4881H65.4971V20.5319H58.3102V21.512H62.163V41.567H58.3102V42.5471H70.5354V41.567H65.7194V32.0673C65.7935 24.2262 70.239 20.7581 73.6472 20.6073C75.1291 20.5319 76.3886 21.0597 77.1295 22.1906V22.266C75.3513 21.9644 74.24 23.3969 74.24 24.754C74.24 26.3373 75.3513 27.3174 76.7591 27.3174C77.9445 27.3174 79.4264 26.3373 79.4264 24.377C79.2782 21.5874 76.7591 19.7779 73.8695 19.7779ZM122.251 41.567V27.8452C122.251 22.266 119.065 20.0041 114.842 20.0041C109.656 20.0041 105.951 23.6985 104.321 27.3928H104.247V20.5319H97.0602V21.512H100.913V41.567H97.0602V42.5471H108.47V41.567H104.395C104.395 41.567 104.395 32.8966 104.395 31.9919C104.395 27.4682 108.248 21.3612 113.435 21.135C117.287 20.9843 118.695 23.6985 118.695 27.3174V41.4916H114.694V42.4717H126.178V41.4916L122.251 41.567ZM153.889 36.9679C153.889 36.9679 151.592 40.5115 149.814 40.6623C148.332 40.7377 148.258 39.5313 148.258 36.1386L148.332 27.0912C148.332 21.512 144.405 19.6272 140.108 19.6272C134.551 19.6272 131.068 22.266 130.92 24.754C130.846 26.1111 131.883 27.242 133.291 27.3174C134.402 27.3928 136.107 26.7142 136.107 24.6786C136.107 23.6231 135.44 22.5675 134.254 22.266V22.1906C134.254 22.1906 136.181 20.5319 139.515 20.5319C143.442 20.5319 144.849 23.1707 144.849 26.6389V29.4285C132.032 28.2221 129.364 33.8767 129.364 36.6663C129.364 38.4004 129.809 42.7733 136.551 42.5471C139.589 42.4717 143.071 40.4361 144.775 35.837H144.924C144.924 35.837 144.849 37.4957 144.849 38.0988C144.775 40.6623 146.035 42.1702 148.258 42.1702C150.258 42.1702 152.11 41.4916 155 37.7219L153.889 36.9679ZM136.848 41.4162C134.18 41.4162 133.143 39.079 133.069 36.8171C132.847 31.0871 137.737 29.3531 144.701 30.4086C144.553 36.7417 141.071 41.4162 136.848 41.4162Z" fill="#999999"/>
</svg>
