<svg width="100" height="24" viewBox="0 0 100 24" fill="none" xmlns="http://www.w3.org/2000/svg">
<path d="M13.1406 18H11.1484V2.63672H2.34766V18H0.355469V0.867188H13.1406V18ZM28.6562 11.5664C28.6562 13.6602 28.1289 15.2969 27.0742 16.4766C26.0195 17.6484 24.5625 18.2344 22.7031 18.2344C21.5547 18.2344 20.5352 17.9648 19.6445 17.4258C18.7539 16.8867 18.0664 16.1133 17.582 15.1055C17.0977 14.0977 16.8555 12.918 16.8555 11.5664C16.8555 9.47266 17.3789 7.84375 18.4258 6.67969C19.4727 5.50781 20.9258 4.92188 22.7852 4.92188C24.582 4.92188 26.0078 5.51953 27.0625 6.71484C28.125 7.91016 28.6562 9.52734 28.6562 11.5664ZM18.8711 11.5664C18.8711 13.207 19.1992 14.457 19.8555 15.3164C20.5117 16.1758 21.4766 16.6055 22.75 16.6055C24.0234 16.6055 24.9883 16.1797 25.6445 15.3281C26.3086 14.4688 26.6406 13.2148 26.6406 11.5664C26.6406 9.93359 26.3086 8.69531 25.6445 7.85156C24.9883 7 24.0156 6.57422 22.7266 6.57422C21.4531 6.57422 20.4922 6.99219 19.8438 7.82812C19.1953 8.66406 18.8711 9.91016 18.8711 11.5664ZM38.0547 18.2344C37.2188 18.2344 36.4531 18.082 35.7578 17.7773C35.0703 17.4648 34.4922 16.9883 34.0234 16.3477H33.8828C33.9766 17.0977 34.0234 17.8086 34.0234 18.4805V23.7656H32.0781V5.15625H33.6602L33.9297 6.91406H34.0234C34.5234 6.21094 35.1055 5.70312 35.7695 5.39062C36.4336 5.07812 37.1953 4.92188 38.0547 4.92188C39.7578 4.92188 41.0703 5.50391 41.9922 6.66797C42.9219 7.83203 43.3867 9.46484 43.3867 11.5664C43.3867 13.6758 42.9141 15.3164 41.9688 16.4883C41.0312 17.6523 39.7266 18.2344 38.0547 18.2344ZM37.7734 6.57422C36.4609 6.57422 35.5117 6.9375 34.9258 7.66406C34.3398 8.39062 34.0391 9.54688 34.0234 11.1328V11.5664C34.0234 13.3711 34.3242 14.6641 34.9258 15.4453C35.5273 16.2188 36.4922 16.6055 37.8203 16.6055C38.9297 16.6055 39.7969 16.1562 40.4219 15.2578C41.0547 14.3594 41.3711 13.1211 41.3711 11.543C41.3711 9.94141 41.0547 8.71484 40.4219 7.86328C39.7969 7.00391 38.9141 6.57422 37.7734 6.57422ZM55.457 6.82031H51.2852V18H49.3398V6.82031H45.2148V5.15625H55.457V6.82031ZM65.8984 18L65.5117 16.1719H65.418C64.7773 16.9766 64.1367 17.5234 63.4961 17.8125C62.8633 18.0938 62.0703 18.2344 61.1172 18.2344C59.8438 18.2344 58.8438 17.9062 58.1172 17.25C57.3984 16.5938 57.0391 15.6602 57.0391 14.4492C57.0391 11.8555 59.1133 10.4961 63.2617 10.3711L65.4414 10.3008V9.50391C65.4414 8.49609 65.2227 7.75391 64.7852 7.27734C64.3555 6.79297 63.6641 6.55078 62.7109 6.55078C61.6406 6.55078 60.4297 6.87891 59.0781 7.53516L58.4805 6.04688C59.1133 5.70312 59.8047 5.43359 60.5547 5.23828C61.3125 5.04297 62.0703 4.94531 62.8281 4.94531C64.3594 4.94531 65.4922 5.28516 66.2266 5.96484C66.9688 6.64453 67.3398 7.73438 67.3398 9.23438V18H65.8984ZM61.5039 16.6289C62.7148 16.6289 63.6641 16.2969 64.3516 15.6328C65.0469 14.9688 65.3945 14.0391 65.3945 12.8438V11.6836L63.4492 11.7656C61.9023 11.8203 60.7852 12.0625 60.0977 12.4922C59.418 12.9141 59.0781 13.5742 59.0781 14.4727C59.0781 15.1758 59.2891 15.7109 59.7109 16.0781C60.1406 16.4453 60.7383 16.6289 61.5039 16.6289ZM80.9336 18H78.9648V6.82031H75.1094C74.8984 9.60156 74.6055 11.8086 74.2305 13.4414C73.8555 15.0742 73.3672 16.2695 72.7656 17.0273C72.1719 17.7852 71.4141 18.1641 70.4922 18.1641C70.0703 18.1641 69.7344 18.1172 69.4844 18.0234V16.582C69.6562 16.6289 69.8516 16.6523 70.0703 16.6523C70.9688 16.6523 71.6836 15.7031 72.2148 13.8047C72.7461 11.9062 73.1484 9.02344 73.4219 5.15625H80.9336V18ZM87.0156 10.4648H90.5195C92.1523 10.4648 93.3594 10.7695 94.1406 11.3789C94.9297 11.9805 95.3242 12.8828 95.3242 14.0859C95.3242 15.375 94.9062 16.3516 94.0703 17.0156C93.2422 17.6719 92.0195 18 90.4023 18H85.0703V5.15625H87.0156V10.4648ZM99.4258 18H97.4805V5.15625H99.4258V18ZM87.0156 12.1406V16.3711H90.3086C92.3711 16.3711 93.4023 15.6484 93.4023 14.2031C93.4023 13.4844 93.1641 12.9609 92.6875 12.6328C92.2109 12.3047 91.3984 12.1406 90.25 12.1406H87.0156Z" fill="#188BFA"/>
</svg>
