<svg width="162" height="15" viewBox="0 0 162 15" fill="none" xmlns="http://www.w3.org/2000/svg">
<path d="M8.53125 11H6.41895V2.76953H2.74121V11H0.62207V1.00586H8.53125V11ZM14.0547 4.69727C13.6126 4.69727 13.2663 4.83854 13.0156 5.12109C12.765 5.39909 12.6214 5.79557 12.585 6.31055H15.5107C15.5016 5.79557 15.3672 5.39909 15.1074 5.12109C14.8477 4.83854 14.4967 4.69727 14.0547 4.69727ZM14.3486 11.1367C13.1182 11.1367 12.1566 10.7972 11.4639 10.1182C10.7712 9.43913 10.4248 8.47754 10.4248 7.2334C10.4248 5.9528 10.7438 4.96387 11.3818 4.2666C12.0244 3.56478 12.9108 3.21387 14.041 3.21387C15.1211 3.21387 15.9619 3.52148 16.5635 4.13672C17.165 4.75195 17.4658 5.60189 17.4658 6.68652V7.69824H12.5371C12.5599 8.29069 12.7354 8.75326 13.0635 9.08594C13.3916 9.41862 13.8519 9.58496 14.4443 9.58496C14.9046 9.58496 15.3398 9.53711 15.75 9.44141C16.1602 9.3457 16.5885 9.19303 17.0352 8.9834V10.5967C16.6706 10.779 16.2809 10.9134 15.8662 11C15.4515 11.0911 14.9456 11.1367 14.3486 11.1367ZM23.3584 11.1367C22.4606 11.1367 21.7565 10.8109 21.2461 10.1592H21.1367C21.2096 10.7972 21.2461 11.1663 21.2461 11.2666V14.3633H19.1611V3.35742H20.8564L21.1504 4.34863H21.2461C21.7337 3.59212 22.4561 3.21387 23.4131 3.21387C24.3154 3.21387 25.0218 3.5625 25.5322 4.25977C26.0426 4.95703 26.2979 5.92546 26.2979 7.16504C26.2979 7.98079 26.1771 8.68945 25.9355 9.29102C25.6986 9.89258 25.359 10.3506 24.917 10.665C24.4749 10.9795 23.9554 11.1367 23.3584 11.1367ZM22.7432 4.88184C22.2282 4.88184 21.8522 5.04134 21.6152 5.36035C21.3783 5.6748 21.2552 6.19661 21.2461 6.92578V7.15137C21.2461 7.97168 21.3669 8.55957 21.6084 8.91504C21.8545 9.27051 22.2419 9.44824 22.7705 9.44824C23.7048 9.44824 24.1719 8.67806 24.1719 7.1377C24.1719 6.38574 24.0557 5.82292 23.8232 5.44922C23.5954 5.07096 23.2354 4.88184 22.7432 4.88184ZM31.1855 4.69727C30.7435 4.69727 30.3971 4.83854 30.1465 5.12109C29.8958 5.39909 29.7523 5.79557 29.7158 6.31055H32.6416C32.6325 5.79557 32.498 5.39909 32.2383 5.12109C31.9785 4.83854 31.6276 4.69727 31.1855 4.69727ZM31.4795 11.1367C30.249 11.1367 29.2874 10.7972 28.5947 10.1182C27.902 9.43913 27.5557 8.47754 27.5557 7.2334C27.5557 5.9528 27.8747 4.96387 28.5127 4.2666C29.1553 3.56478 30.0417 3.21387 31.1719 3.21387C32.252 3.21387 33.0928 3.52148 33.6943 4.13672C34.2959 4.75195 34.5967 5.60189 34.5967 6.68652V7.69824H29.668C29.6908 8.29069 29.8662 8.75326 30.1943 9.08594C30.5225 9.41862 30.9827 9.58496 31.5752 9.58496C32.0355 9.58496 32.4707 9.53711 32.8809 9.44141C33.291 9.3457 33.7194 9.19303 34.166 8.9834V10.5967C33.8014 10.779 33.4118 10.9134 32.9971 11C32.5824 11.0911 32.0765 11.1367 31.4795 11.1367ZM38.3086 3.35742V6.37891C38.3086 6.69792 38.2562 7.47721 38.1514 8.7168L41.6787 3.35742H44.1875V11H42.1709V7.95117C42.1709 7.40885 42.2165 6.64323 42.3076 5.6543L38.7939 11H36.292V3.35742H38.3086ZM43.5723 0.0693359C43.4857 0.921549 43.1644 1.54362 42.6084 1.93555C42.0524 2.32292 41.2503 2.5166 40.2021 2.5166C39.1221 2.5166 38.3223 2.32975 37.8027 1.95605C37.2878 1.58236 36.9984 0.953451 36.9346 0.0693359H38.8008C38.8327 0.538737 38.9489 0.869141 39.1494 1.06055C39.3545 1.2474 39.7191 1.34082 40.2432 1.34082C40.7035 1.34082 41.0452 1.23828 41.2686 1.0332C41.4964 0.823568 41.6354 0.502279 41.6855 0.0693359H43.5723ZM52.7051 3.35742V4.92285H50.2031V11H48.1182V4.92285H45.6094V3.35742H52.7051ZM56.1504 3.35742V6.37891C56.1504 6.69792 56.098 7.47721 55.9932 8.7168L59.5205 3.35742H62.0293V11H60.0127V7.95117C60.0127 7.40885 60.0583 6.64323 60.1494 5.6543L56.6357 11H54.1338V3.35742H56.1504ZM74.915 5.36035C74.915 5.77051 74.7852 6.12142 74.5254 6.41309C74.2702 6.7002 73.8919 6.88477 73.3906 6.9668V7.02148C73.9329 7.08529 74.3613 7.27214 74.6758 7.58203C74.9948 7.88737 75.1543 8.26562 75.1543 8.7168C75.1543 9.45964 74.8626 10.027 74.2793 10.4189C73.696 10.8063 72.862 11 71.7773 11H67.8604V3.35742H71.7773C72.8255 3.35742 73.6094 3.52832 74.1289 3.87012C74.653 4.20736 74.915 4.7041 74.915 5.36035ZM72.9941 8.60742C72.9941 8.30664 72.8779 8.09017 72.6455 7.95801C72.4131 7.82129 72.0645 7.75293 71.5996 7.75293H69.9453V9.55762H71.6406C72.0827 9.55762 72.4176 9.47559 72.6455 9.31152C72.8779 9.1429 72.9941 8.9082 72.9941 8.60742ZM72.8027 5.52441C72.8027 5.05957 72.4336 4.82715 71.6953 4.82715H69.9453V6.33789H71.4561C71.8981 6.33789 72.2331 6.27409 72.4609 6.14648C72.6888 6.01888 72.8027 5.81152 72.8027 5.52441ZM87.3975 3.35742V11H85.3057V4.92285H82.5371V11H80.4521V3.35742H87.3975ZM91.2461 7.16504C91.2461 7.92155 91.3691 8.49349 91.6152 8.88086C91.8659 9.26823 92.2715 9.46191 92.832 9.46191C93.388 9.46191 93.7868 9.27051 94.0283 8.8877C94.2744 8.50033 94.3975 7.92611 94.3975 7.16504C94.3975 6.40853 94.2744 5.84115 94.0283 5.46289C93.7822 5.08464 93.3789 4.89551 92.8184 4.89551C92.2624 4.89551 91.8613 5.08464 91.6152 5.46289C91.3691 5.83659 91.2461 6.40397 91.2461 7.16504ZM96.5303 7.16504C96.5303 8.40918 96.2021 9.38216 95.5459 10.084C94.8896 10.7858 93.9759 11.1367 92.8047 11.1367C92.071 11.1367 91.4238 10.9772 90.8633 10.6582C90.3027 10.3346 89.8721 9.87207 89.5713 9.27051C89.2705 8.66895 89.1201 7.96712 89.1201 7.16504C89.1201 5.91634 89.446 4.94564 90.0977 4.25293C90.7493 3.56022 91.6654 3.21387 92.8457 3.21387C93.5794 3.21387 94.2266 3.37337 94.7871 3.69238C95.3477 4.01139 95.7783 4.4694 96.0791 5.06641C96.3799 5.66341 96.5303 6.36296 96.5303 7.16504ZM102.45 11.1367C101.552 11.1367 100.848 10.8109 100.338 10.1592H100.229C100.301 10.7972 100.338 11.1663 100.338 11.2666V14.3633H98.2529V3.35742H99.9482L100.242 4.34863H100.338C100.826 3.59212 101.548 3.21387 102.505 3.21387C103.407 3.21387 104.114 3.5625 104.624 4.25977C105.134 4.95703 105.39 5.92546 105.39 7.16504C105.39 7.98079 105.269 8.68945 105.027 9.29102C104.79 9.89258 104.451 10.3506 104.009 10.665C103.567 10.9795 103.047 11.1367 102.45 11.1367ZM101.835 4.88184C101.32 4.88184 100.944 5.04134 100.707 5.36035C100.47 5.6748 100.347 6.19661 100.338 6.92578V7.15137C100.338 7.97168 100.459 8.55957 100.7 8.91504C100.946 9.27051 101.334 9.44824 101.862 9.44824C102.797 9.44824 103.264 8.67806 103.264 7.1377C103.264 6.38574 103.147 5.82292 102.915 5.44922C102.687 5.07096 102.327 4.88184 101.835 4.88184ZM113.436 3.35742V4.92285H110.934V11H108.849V4.92285H106.34V3.35742H113.436ZM120.449 3.31641C121.725 3.42122 122.726 3.81543 123.45 4.49902C124.175 5.18262 124.537 6.07585 124.537 7.17871C124.537 8.30436 124.179 9.20671 123.464 9.88574C122.748 10.5602 121.743 10.9499 120.449 11.0547V14.3633H118.515V11.0547C117.225 10.9362 116.215 10.5329 115.486 9.84473C114.762 9.15202 114.399 8.26335 114.399 7.17871C114.399 6.02572 114.75 5.11654 115.452 4.45117C116.154 3.78125 117.175 3.40299 118.515 3.31641V0.363281H120.449V3.31641ZM116.546 7.17871C116.546 7.82129 116.721 8.34538 117.072 8.75098C117.423 9.15202 117.904 9.39355 118.515 9.47559V4.88184C117.927 4.95931 117.451 5.20768 117.086 5.62695C116.726 6.04622 116.546 6.56348 116.546 7.17871ZM122.397 7.17871C122.397 6.57715 122.227 6.07129 121.885 5.66113C121.543 5.24642 121.064 4.99577 120.449 4.90918V9.47559C121.055 9.39355 121.532 9.14974 121.878 8.74414C122.224 8.33854 122.397 7.81673 122.397 7.17871ZM127.928 7.16504C127.928 7.92155 128.051 8.49349 128.297 8.88086C128.548 9.26823 128.953 9.46191 129.514 9.46191C130.07 9.46191 130.468 9.27051 130.71 8.8877C130.956 8.50033 131.079 7.92611 131.079 7.16504C131.079 6.40853 130.956 5.84115 130.71 5.46289C130.464 5.08464 130.061 4.89551 129.5 4.89551C128.944 4.89551 128.543 5.08464 128.297 5.46289C128.051 5.83659 127.928 6.40397 127.928 7.16504ZM133.212 7.16504C133.212 8.40918 132.884 9.38216 132.228 10.084C131.571 10.7858 130.658 11.1367 129.486 11.1367C128.753 11.1367 128.105 10.9772 127.545 10.6582C126.984 10.3346 126.554 9.87207 126.253 9.27051C125.952 8.66895 125.802 7.96712 125.802 7.16504C125.802 5.91634 126.128 4.94564 126.779 4.25293C127.431 3.56022 128.347 3.21387 129.527 3.21387C130.261 3.21387 130.908 3.37337 131.469 3.69238C132.029 4.01139 132.46 4.4694 132.761 5.06641C133.062 5.66341 133.212 6.36296 133.212 7.16504ZM141.777 11H139.692V4.92285H137.771C137.626 6.63184 137.448 7.90788 137.238 8.75098C137.029 9.58952 136.748 10.1979 136.397 10.5762C136.051 10.9499 135.595 11.1367 135.03 11.1367C134.547 11.1367 134.151 11.0638 133.841 10.918V9.25C134.064 9.34115 134.287 9.38672 134.511 9.38672C134.771 9.38672 134.987 9.19987 135.16 8.82617C135.338 8.45247 135.495 7.8304 135.632 6.95996C135.773 6.08496 135.894 4.88411 135.994 3.35742H141.777V11ZM145.988 3.35742V6.37891C145.988 6.69792 145.936 7.47721 145.831 8.7168L149.358 3.35742H151.867V11H149.851V7.95117C149.851 7.40885 149.896 6.64323 149.987 5.6543L146.474 11H143.972V3.35742H145.988ZM155.723 7.16504C155.723 7.92155 155.846 8.49349 156.092 8.88086C156.342 9.26823 156.748 9.46191 157.309 9.46191C157.865 9.46191 158.263 9.27051 158.505 8.8877C158.751 8.50033 158.874 7.92611 158.874 7.16504C158.874 6.40853 158.751 5.84115 158.505 5.46289C158.259 5.08464 157.855 4.89551 157.295 4.89551C156.739 4.89551 156.338 5.08464 156.092 5.46289C155.846 5.83659 155.723 6.40397 155.723 7.16504ZM161.007 7.16504C161.007 8.40918 160.679 9.38216 160.022 10.084C159.366 10.7858 158.452 11.1367 157.281 11.1367C156.548 11.1367 155.9 10.9772 155.34 10.6582C154.779 10.3346 154.349 9.87207 154.048 9.27051C153.747 8.66895 153.597 7.96712 153.597 7.16504C153.597 5.91634 153.923 4.94564 154.574 4.25293C155.226 3.56022 156.142 3.21387 157.322 3.21387C158.056 3.21387 158.703 3.37337 159.264 3.69238C159.824 4.01139 160.255 4.4694 160.556 5.06641C160.856 5.66341 161.007 6.36296 161.007 7.16504Z" fill="#188BFA"/>
</svg>
