<svg width="63" height="15" viewBox="0 0 63 15" fill="none" xmlns="http://www.w3.org/2000/svg">
<path d="M8.46289 11H7.21777V1.39795H1.71729V11H0.472168V0.291992H8.46289V11ZM18.1602 6.979C18.1602 8.2876 17.8306 9.31055 17.1714 10.0479C16.5122 10.7803 15.6016 11.1465 14.4395 11.1465C13.7217 11.1465 13.0845 10.978 12.5278 10.6411C11.9712 10.3042 11.5415 9.8208 11.2388 9.19092C10.936 8.56104 10.7847 7.82373 10.7847 6.979C10.7847 5.67041 11.1118 4.65234 11.7661 3.9248C12.4204 3.19238 13.3286 2.82617 14.4907 2.82617C15.6138 2.82617 16.5049 3.19971 17.1641 3.94678C17.8281 4.69385 18.1602 5.70459 18.1602 6.979ZM12.0444 6.979C12.0444 8.00439 12.2495 8.78564 12.6597 9.32275C13.0698 9.85986 13.6729 10.1284 14.4688 10.1284C15.2646 10.1284 15.8677 9.8623 16.2778 9.33008C16.6929 8.79297 16.9004 8.00928 16.9004 6.979C16.9004 5.9585 16.6929 5.18457 16.2778 4.65723C15.8677 4.125 15.2598 3.85889 14.4541 3.85889C13.6582 3.85889 13.0576 4.12012 12.6523 4.64258C12.2471 5.16504 12.0444 5.94385 12.0444 6.979ZM24.0342 11.1465C23.5117 11.1465 23.0332 11.0513 22.5986 10.8608C22.1689 10.6655 21.8076 10.3677 21.5146 9.96729H21.4268C21.4854 10.436 21.5146 10.8804 21.5146 11.3003V14.6035H20.2988V2.97266H21.2876L21.4561 4.07129H21.5146C21.8271 3.63184 22.1909 3.31445 22.606 3.11914C23.021 2.92383 23.4971 2.82617 24.0342 2.82617C25.0986 2.82617 25.9189 3.18994 26.4951 3.91748C27.0762 4.64502 27.3667 5.66553 27.3667 6.979C27.3667 8.29736 27.0713 9.32275 26.4805 10.0552C25.8945 10.7827 25.0791 11.1465 24.0342 11.1465ZM23.8584 3.85889C23.0381 3.85889 22.4448 4.08594 22.0786 4.54004C21.7124 4.99414 21.5244 5.7168 21.5146 6.70801V6.979C21.5146 8.10693 21.7026 8.91504 22.0786 9.40332C22.4546 9.88672 23.0576 10.1284 23.8877 10.1284C24.5811 10.1284 25.123 9.84766 25.5137 9.28613C25.9092 8.72461 26.1069 7.95068 26.1069 6.96436C26.1069 5.96338 25.9092 5.19678 25.5137 4.66455C25.123 4.12744 24.5713 3.85889 23.8584 3.85889ZM34.9106 4.0127H32.3032V11H31.0874V4.0127H28.5093V2.97266H34.9106V4.0127ZM41.4365 11L41.1948 9.85742H41.1362C40.7358 10.3604 40.3354 10.7021 39.9351 10.8828C39.5396 11.0586 39.0439 11.1465 38.4482 11.1465C37.6523 11.1465 37.0273 10.9414 36.5732 10.5312C36.124 10.1211 35.8994 9.5376 35.8994 8.78076C35.8994 7.15967 37.1958 6.31006 39.7886 6.23193L41.1509 6.18799V5.68994C41.1509 5.06006 41.0142 4.59619 40.7407 4.29834C40.4722 3.99561 40.04 3.84424 39.4443 3.84424C38.7754 3.84424 38.0186 4.04932 37.1738 4.45947L36.8003 3.5293C37.1958 3.31445 37.6279 3.146 38.0967 3.02393C38.5703 2.90186 39.0439 2.84082 39.5176 2.84082C40.4746 2.84082 41.1826 3.05322 41.6416 3.47803C42.1055 3.90283 42.3374 4.58398 42.3374 5.52148V11H41.4365ZM38.6899 10.1431C39.4468 10.1431 40.04 9.93555 40.4697 9.52051C40.9043 9.10547 41.1216 8.52441 41.1216 7.77734V7.05225L39.9058 7.10352C38.939 7.1377 38.2407 7.28906 37.811 7.55762C37.3862 7.82129 37.1738 8.23389 37.1738 8.79541C37.1738 9.23486 37.3057 9.56934 37.5693 9.79883C37.8379 10.0283 38.2114 10.1431 38.6899 10.1431ZM50.8335 11H49.603V4.0127H47.1934C47.0615 5.75098 46.8784 7.13037 46.644 8.15088C46.4097 9.17139 46.1045 9.91846 45.7285 10.3921C45.3574 10.8657 44.8838 11.1025 44.3076 11.1025C44.0439 11.1025 43.834 11.0732 43.6777 11.0146V10.1138C43.7852 10.1431 43.9072 10.1577 44.0439 10.1577C44.6055 10.1577 45.0522 9.56445 45.3843 8.37793C45.7163 7.19141 45.9678 5.38965 46.1387 2.97266H50.8335V11ZM54.6348 6.29053H56.8247C57.8452 6.29053 58.5996 6.48096 59.0879 6.86182C59.5811 7.23779 59.8276 7.80176 59.8276 8.55371C59.8276 9.35938 59.5664 9.96973 59.0439 10.3848C58.5264 10.7949 57.7622 11 56.7515 11H53.4189V2.97266H54.6348V6.29053ZM62.3911 11H61.1753V2.97266H62.3911V11ZM54.6348 7.33789V9.98193H56.6929C57.9819 9.98193 58.6265 9.53027 58.6265 8.62695C58.6265 8.17773 58.4775 7.85059 58.1797 7.64551C57.8818 7.44043 57.374 7.33789 56.6562 7.33789H54.6348Z" fill="#188BFA"/>
</svg>
