<svg width="298" height="83" viewBox="0 0 298 83" fill="none" xmlns="http://www.w3.org/2000/svg">
<path d="M9.31941 10L5.59383 0.771484H5.53914C5.5756 1.33659 5.59383 1.91536 5.59383 2.50781V10H4.9239V0.00585938H6.00398L9.545 8.79688H9.58601L13.127 0.00585938H14.1798V10H13.4757V2.42578C13.4757 1.89714 13.503 1.35026 13.5577 0.785156H13.503L9.76375 10H9.31941ZM17.5157 2.56934V5.83008H22.2325V2.56934H22.9024V10H22.2325V6.41797H17.5157V10H16.8389V2.56934H17.5157ZM31.543 6.27441C31.543 7.48665 31.2491 8.43457 30.6612 9.11816C30.0733 9.7972 29.2621 10.1367 28.2276 10.1367C27.5759 10.1367 27.0017 9.97949 26.505 9.66504C26.0082 9.35059 25.6277 8.89941 25.3634 8.31152C25.099 7.72363 24.9669 7.0446 24.9669 6.27441C24.9669 5.06217 25.2608 4.11882 25.8487 3.44434C26.4366 2.7653 27.2432 2.42578 28.2686 2.42578C29.2895 2.42578 30.0893 2.76986 30.668 3.45801C31.2514 4.1416 31.543 5.0804 31.543 6.27441ZM25.6778 6.27441C25.6778 7.29525 25.9011 8.09277 26.3477 8.66699C26.7989 9.23665 27.4346 9.52148 28.255 9.52148C29.0753 9.52148 29.7087 9.23665 30.1553 8.66699C30.6065 8.09277 30.8321 7.29525 30.8321 6.27441C30.8321 5.24902 30.6042 4.45378 30.1485 3.88867C29.6973 3.32357 29.0616 3.04102 28.2413 3.04102C27.421 3.04102 26.7875 3.32357 26.3409 3.88867C25.8988 4.44922 25.6778 5.24447 25.6778 6.27441ZM37.9688 3.15723H34.2774V10H33.6007V2.56934H37.9688V3.15723ZM45.6387 6.27441C45.6387 7.48665 45.3448 8.43457 44.7569 9.11816C44.169 9.7972 43.3578 10.1367 42.3233 10.1367C41.6716 10.1367 41.0974 9.97949 40.6007 9.66504C40.1039 9.35059 39.7234 8.89941 39.4591 8.31152C39.1947 7.72363 39.0626 7.0446 39.0626 6.27441C39.0626 5.06217 39.3565 4.11882 39.9444 3.44434C40.5323 2.7653 41.3389 2.42578 42.3643 2.42578C43.3852 2.42578 44.185 2.76986 44.7637 3.45801C45.3471 4.1416 45.6387 5.0804 45.6387 6.27441ZM39.7735 6.27441C39.7735 7.29525 39.9968 8.09277 40.4434 8.66699C40.8946 9.23665 41.5303 9.52148 42.3507 9.52148C43.171 9.52148 43.8044 9.23665 44.2511 8.66699C44.7022 8.09277 44.9278 7.29525 44.9278 6.27441C44.9278 5.24902 44.6999 4.45378 44.2442 3.88867C43.793 3.32357 43.1573 3.04102 42.337 3.04102C41.5167 3.04102 40.8832 3.32357 40.4366 3.88867C39.9945 4.44922 39.7735 5.24447 39.7735 6.27441ZM50.6632 10.1367C49.6013 10.1367 48.7696 9.80176 48.168 9.13184C47.5665 8.46191 47.2657 7.52767 47.2657 6.3291C47.2657 5.09863 47.5779 4.1416 48.2022 3.45801C48.8266 2.76986 49.6811 2.42578 50.7657 2.42578C51.4083 2.42578 52.0235 2.53743 52.6114 2.76074L52.4268 3.3623C51.7843 3.14811 51.226 3.04102 50.752 3.04102C49.8406 3.04102 49.1501 3.32357 48.6807 3.88867C48.2113 4.44922 47.9766 5.25814 47.9766 6.31543C47.9766 7.31803 48.2113 8.10417 48.6807 8.67383C49.1501 9.23893 49.8064 9.52148 50.6495 9.52148C51.324 9.52148 51.9506 9.40072 52.5294 9.15918V9.78809C52.0554 10.0205 51.4333 10.1367 50.6632 10.1367ZM59.0714 3.15723H56.5968V10H55.9268V3.15723H53.3907V2.56934H59.0714V3.15723ZM63.7813 10.1367C62.6374 10.1367 61.8035 9.70833 61.2794 8.85156H61.2315L61.252 9.42578C61.2703 9.76302 61.2794 10.1322 61.2794 10.5332V13.3633H60.6026V2.56934H61.1768L61.3067 3.62891H61.3477C61.8581 2.82682 62.6739 2.42578 63.795 2.42578C64.7976 2.42578 65.5609 2.75618 66.085 3.41699C66.6137 4.07324 66.878 5.03027 66.878 6.28809C66.878 7.50944 66.6 8.45736 66.044 9.13184C65.4926 9.80176 64.7384 10.1367 63.7813 10.1367ZM63.7677 9.53516C64.5287 9.53516 65.1166 9.2526 65.5313 8.6875C65.9506 8.1224 66.1602 7.33171 66.1602 6.31543C66.1602 4.13249 65.3718 3.04102 63.795 3.04102C62.9291 3.04102 62.2934 3.28027 61.8878 3.75879C61.4822 4.23275 61.2794 5.00749 61.2794 6.08301V6.30176C61.2794 7.46387 61.4731 8.29329 61.8604 8.79004C62.2524 9.28678 62.8881 9.53516 63.7677 9.53516ZM73.4542 10L73.2833 8.82422H73.2286C72.8549 9.30273 72.4698 9.64225 72.0733 9.84277C71.6814 10.0387 71.2165 10.1367 70.6788 10.1367C69.9496 10.1367 69.3822 9.94987 68.9766 9.57617C68.571 9.20247 68.3682 8.68522 68.3682 8.02441C68.3682 7.2998 68.669 6.73698 69.2706 6.33594C69.8767 5.9349 70.7517 5.72298 71.8956 5.7002L73.3106 5.65918V5.16699C73.3106 4.46061 73.1671 3.92741 72.88 3.56738C72.5928 3.20736 72.1303 3.02734 71.4923 3.02734C70.8041 3.02734 70.0909 3.21875 69.3526 3.60156L69.0997 3.01367C69.9154 2.63086 70.7221 2.43945 71.5196 2.43945C72.3354 2.43945 72.9438 2.65137 73.3448 3.0752C73.7504 3.49902 73.9532 4.15983 73.9532 5.05762V10H73.4542ZM70.7198 9.52148C71.5128 9.52148 72.1371 9.2959 72.5928 8.84473C73.0531 8.389 73.2833 7.75781 73.2833 6.95117V6.21973L71.9845 6.27441C70.9408 6.32454 70.1957 6.48861 69.7491 6.7666C69.307 7.04004 69.086 7.46842 69.086 8.05176C69.086 8.5166 69.2273 8.87891 69.5098 9.13867C69.797 9.39388 70.2003 9.52148 70.7198 9.52148ZM77.043 2.56934V5.83008H81.7598V2.56934H82.4298V10H81.7598V6.41797H77.043V10H76.3663V2.56934H77.043ZM85.5675 2.56934V7.94238L85.5264 9.34375L89.9356 2.56934H90.838V10H90.1886V4.66113L90.2159 3.22559L85.8067 10H84.9249V2.56934H85.5675ZM93.88 2.56934V5.05762C93.88 5.68652 94.0326 6.13997 94.338 6.41797C94.6433 6.69596 95.1127 6.83496 95.7462 6.83496C96.1928 6.83496 96.6189 6.75521 97.0245 6.5957C97.4301 6.4362 97.8516 6.18099 98.2891 5.83008V2.56934H98.9659V10H98.2891V6.47266C97.8334 6.82357 97.3845 7.07422 96.9425 7.22461C96.505 7.375 96.031 7.4502 95.5206 7.4502C94.7595 7.4502 94.183 7.25195 93.7911 6.85547C93.4037 6.45898 93.21 5.88704 93.21 5.13965V2.56934H93.88ZM102.131 2.56934V5.83008H106.848V2.56934H107.518V10H106.848V6.41797H102.131V10H101.454V2.56934H102.131ZM110.69 5.7002H113.055C114.8 5.7002 115.673 6.38607 115.673 7.75781C115.673 8.46419 115.429 9.01562 114.941 9.41211C114.454 9.80404 113.754 10 112.843 10H110.013V2.56934H110.69V5.7002ZM110.69 6.34277V9.35742H112.952C113.595 9.35742 114.089 9.22298 114.436 8.9541C114.782 8.68522 114.955 8.2819 114.955 7.74414C114.955 7.25195 114.802 6.89648 114.497 6.67773C114.192 6.45443 113.663 6.34277 112.911 6.34277H110.69ZM117.642 10H116.972V2.56934H117.642V10ZM123.145 10.1367C122.065 10.1367 121.221 9.80404 120.615 9.13867C120.014 8.47331 119.713 7.54134 119.713 6.34277C119.713 5.15788 120.005 4.20996 120.588 3.49902C121.171 2.78353 121.957 2.42578 122.946 2.42578C123.821 2.42578 124.512 2.73112 125.018 3.3418C125.524 3.95247 125.776 4.7819 125.776 5.83008V6.37695H120.424C120.433 7.39779 120.67 8.17708 121.135 8.71484C121.604 9.2526 122.274 9.52148 123.145 9.52148C123.568 9.52148 123.94 9.49186 124.259 9.43262C124.582 9.37337 124.99 9.24577 125.482 9.0498V9.66504C125.063 9.84733 124.676 9.97038 124.32 10.0342C123.965 10.1025 123.573 10.1367 123.145 10.1367ZM122.946 3.02734C122.231 3.02734 121.657 3.26432 121.224 3.73828C120.791 4.20768 120.538 4.88672 120.465 5.77539H125.059C125.059 4.91406 124.872 4.24186 124.498 3.75879C124.124 3.27116 123.607 3.02734 122.946 3.02734ZM134.643 10.1367C133.499 10.1367 132.665 9.70833 132.141 8.85156H132.093L132.113 9.42578C132.132 9.76302 132.141 10.1322 132.141 10.5332V13.3633H131.464V2.56934H132.038L132.168 3.62891H132.209C132.719 2.82682 133.535 2.42578 134.656 2.42578C135.659 2.42578 136.422 2.75618 136.946 3.41699C137.475 4.07324 137.739 5.03027 137.739 6.28809C137.739 7.50944 137.461 8.45736 136.905 9.13184C136.354 9.80176 135.6 10.1367 134.643 10.1367ZM134.629 9.53516C135.39 9.53516 135.978 9.2526 136.393 8.6875C136.812 8.1224 137.022 7.33171 137.022 6.31543C137.022 4.13249 136.233 3.04102 134.656 3.04102C133.79 3.04102 133.155 3.28027 132.749 3.75879C132.344 4.23275 132.141 5.00749 132.141 6.08301V6.30176C132.141 7.46387 132.334 8.29329 132.722 8.79004C133.114 9.28678 133.749 9.53516 134.629 9.53516ZM142.805 10.1367C141.725 10.1367 140.882 9.80404 140.275 9.13867C139.674 8.47331 139.373 7.54134 139.373 6.34277C139.373 5.15788 139.665 4.20996 140.248 3.49902C140.831 2.78353 141.618 2.42578 142.607 2.42578C143.482 2.42578 144.172 2.73112 144.678 3.3418C145.184 3.95247 145.437 4.7819 145.437 5.83008V6.37695H140.084C140.093 7.39779 140.33 8.17708 140.795 8.71484C141.264 9.2526 141.934 9.52148 142.805 9.52148C143.229 9.52148 143.6 9.49186 143.919 9.43262C144.243 9.37337 144.65 9.24577 145.143 9.0498V9.66504C144.723 9.84733 144.336 9.97038 143.981 10.0342C143.625 10.1025 143.233 10.1367 142.805 10.1367ZM142.607 3.02734C141.891 3.02734 141.317 3.26432 140.884 3.73828C140.451 4.20768 140.198 4.88672 140.125 5.77539H144.719C144.719 4.91406 144.532 4.24186 144.158 3.75879C143.785 3.27116 143.267 3.02734 142.607 3.02734ZM150.454 10.1367C149.392 10.1367 148.561 9.80176 147.959 9.13184C147.357 8.46191 147.057 7.52767 147.057 6.3291C147.057 5.09863 147.369 4.1416 147.993 3.45801C148.618 2.76986 149.472 2.42578 150.557 2.42578C151.199 2.42578 151.815 2.53743 152.402 2.76074L152.218 3.3623C151.575 3.14811 151.017 3.04102 150.543 3.04102C149.632 3.04102 148.941 3.32357 148.472 3.88867C148.002 4.44922 147.768 5.25814 147.768 6.31543C147.768 7.31803 148.002 8.10417 148.472 8.67383C148.941 9.23893 149.597 9.52148 150.441 9.52148C151.115 9.52148 151.742 9.40072 152.32 9.15918V9.78809C151.846 10.0205 151.224 10.1367 150.454 10.1367ZM152.901 2.56934H153.599L155.171 6.73926C155.649 8.01986 155.953 8.88346 156.08 9.33008H156.121C156.313 8.74219 156.625 7.86491 157.058 6.69824L158.63 2.56934H159.327L155.998 11.2031C155.729 11.9049 155.504 12.3789 155.321 12.625C155.139 12.8711 154.925 13.0557 154.679 13.1787C154.437 13.3018 154.143 13.3633 153.797 13.3633C153.537 13.3633 153.248 13.3154 152.929 13.2197V12.6318C153.193 12.7048 153.478 12.7412 153.783 12.7412C154.016 12.7412 154.221 12.6865 154.399 12.5771C154.576 12.4678 154.736 12.2969 154.877 12.0645C155.023 11.8366 155.189 11.472 155.376 10.9707C155.567 10.474 155.691 10.1504 155.745 10L152.901 2.56934ZM163.75 10.1367C162.606 10.1367 161.772 9.70833 161.248 8.85156H161.2L161.221 9.42578C161.239 9.76302 161.248 10.1322 161.248 10.5332V13.3633H160.571V2.56934H161.146L161.275 3.62891H161.316C161.827 2.82682 162.643 2.42578 163.764 2.42578C164.766 2.42578 165.53 2.75618 166.054 3.41699C166.582 4.07324 166.847 5.03027 166.847 6.28809C166.847 7.50944 166.569 8.45736 166.013 9.13184C165.461 9.80176 164.707 10.1367 163.75 10.1367ZM163.736 9.53516C164.497 9.53516 165.085 9.2526 165.5 8.6875C165.919 8.1224 166.129 7.33171 166.129 6.31543C166.129 4.13249 165.341 3.04102 163.764 3.04102C162.898 3.04102 162.262 3.28027 161.857 3.75879C161.451 4.23275 161.248 5.00749 161.248 6.08301V6.30176C161.248 7.46387 161.442 8.29329 161.829 8.79004C162.221 9.28678 162.857 9.53516 163.736 9.53516ZM171.878 10.1367C170.816 10.1367 169.984 9.80176 169.383 9.13184C168.781 8.46191 168.481 7.52767 168.481 6.3291C168.481 5.09863 168.793 4.1416 169.417 3.45801C170.041 2.76986 170.896 2.42578 171.981 2.42578C172.623 2.42578 173.238 2.53743 173.826 2.76074L173.642 3.3623C172.999 3.14811 172.441 3.04102 171.967 3.04102C171.055 3.04102 170.365 3.32357 169.896 3.88867C169.426 4.44922 169.191 5.25814 169.191 6.31543C169.191 7.31803 169.426 8.10417 169.896 8.67383C170.365 9.23893 171.021 9.52148 171.864 9.52148C172.539 9.52148 173.165 9.40072 173.744 9.15918V9.78809C173.27 10.0205 172.648 10.1367 171.878 10.1367ZM176.246 5.7002H178.611C180.357 5.7002 181.23 6.38607 181.23 7.75781C181.23 8.46419 180.986 9.01562 180.498 9.41211C180.01 9.80404 179.311 10 178.399 10H175.569V2.56934H176.246V5.7002ZM176.246 6.34277V9.35742H178.509C179.151 9.35742 179.646 9.22298 179.992 8.9541C180.339 8.68522 180.512 8.2819 180.512 7.74414C180.512 7.25195 180.359 6.89648 180.054 6.67773C179.748 6.45443 179.22 6.34277 178.468 6.34277H176.246ZM183.198 10H182.528V2.56934H183.198V10ZM186.473 8.37305L186.555 8.5166C186.213 9.72428 185.816 10.8203 185.365 11.8047H184.921C185.272 10.5514 185.523 9.40755 185.673 8.37305H186.473ZM196.378 2.56934H197.219L193.89 6.16504L197.458 10H196.549L193.035 6.2334V10H192.345V2.56934H193.035V6.17871L196.378 2.56934ZM204.916 6.27441C204.916 7.48665 204.622 8.43457 204.034 9.11816C203.446 9.7972 202.635 10.1367 201.601 10.1367C200.949 10.1367 200.375 9.97949 199.878 9.66504C199.381 9.35059 199.001 8.89941 198.736 8.31152C198.472 7.72363 198.34 7.0446 198.34 6.27441C198.34 5.06217 198.634 4.11882 199.222 3.44434C199.81 2.7653 200.616 2.42578 201.642 2.42578C202.663 2.42578 203.462 2.76986 204.041 3.45801C204.624 4.1416 204.916 5.0804 204.916 6.27441ZM199.051 6.27441C199.051 7.29525 199.274 8.09277 199.721 8.66699C200.172 9.23665 200.808 9.52148 201.628 9.52148C202.448 9.52148 203.082 9.23665 203.528 8.66699C203.98 8.09277 204.205 7.29525 204.205 6.27441C204.205 5.24902 203.977 4.45378 203.522 3.88867C203.07 3.32357 202.435 3.04102 201.614 3.04102C200.794 3.04102 200.161 3.32357 199.714 3.88867C199.272 4.44922 199.051 5.24447 199.051 6.27441ZM211.691 3.15723H209.216V10H208.546V3.15723H206.01V2.56934H211.691V3.15723ZM219.367 6.27441C219.367 7.48665 219.073 8.43457 218.485 9.11816C217.898 9.7972 217.086 10.1367 216.052 10.1367C215.4 10.1367 214.826 9.97949 214.329 9.66504C213.832 9.35059 213.452 8.89941 213.188 8.31152C212.923 7.72363 212.791 7.0446 212.791 6.27441C212.791 5.06217 213.085 4.11882 213.673 3.44434C214.261 2.7653 215.067 2.42578 216.093 2.42578C217.114 2.42578 217.913 2.76986 218.492 3.45801C219.076 4.1416 219.367 5.0804 219.367 6.27441ZM213.502 6.27441C213.502 7.29525 213.725 8.09277 214.172 8.66699C214.623 9.23665 215.259 9.52148 216.079 9.52148C216.899 9.52148 217.533 9.23665 217.98 8.66699C218.431 8.09277 218.656 7.29525 218.656 6.27441C218.656 5.24902 218.428 4.45378 217.973 3.88867C217.522 3.32357 216.886 3.04102 216.066 3.04102C215.245 3.04102 214.612 3.32357 214.165 3.88867C213.723 4.44922 213.502 5.24447 213.502 6.27441ZM224.604 10.1367C223.46 10.1367 222.626 9.70833 222.102 8.85156H222.054L222.074 9.42578C222.093 9.76302 222.102 10.1322 222.102 10.5332V13.3633H221.425V2.56934H221.999L222.129 3.62891H222.17C222.68 2.82682 223.496 2.42578 224.617 2.42578C225.62 2.42578 226.383 2.75618 226.907 3.41699C227.436 4.07324 227.7 5.03027 227.7 6.28809C227.7 7.50944 227.422 8.45736 226.866 9.13184C226.315 9.80176 225.561 10.1367 224.604 10.1367ZM224.59 9.53516C225.351 9.53516 225.939 9.2526 226.354 8.6875C226.773 8.1224 226.982 7.33171 226.982 6.31543C226.982 4.13249 226.194 3.04102 224.617 3.04102C223.751 3.04102 223.116 3.28027 222.71 3.75879C222.304 4.23275 222.102 5.00749 222.102 6.08301V6.30176C222.102 7.46387 222.295 8.29329 222.683 8.79004C223.075 9.28678 223.71 9.53516 224.59 9.53516ZM230.441 5.7002H232.807C234.552 5.7002 235.425 6.38607 235.425 7.75781C235.425 8.46419 235.181 9.01562 234.693 9.41211C234.206 9.80404 233.506 10 232.595 10H229.765V2.56934H230.441V5.7002ZM230.441 6.34277V9.35742H232.704C233.347 9.35742 233.841 9.22298 234.188 8.9541C234.534 8.68522 234.707 8.2819 234.707 7.74414C234.707 7.25195 234.554 6.89648 234.249 6.67773C233.944 6.45443 233.415 6.34277 232.663 6.34277H230.441ZM237.394 10H236.724V2.56934H237.394V10ZM242.897 10.1367C241.816 10.1367 240.973 9.80404 240.367 9.13867C239.766 8.47331 239.465 7.54134 239.465 6.34277C239.465 5.15788 239.757 4.20996 240.34 3.49902C240.923 2.78353 241.709 2.42578 242.698 2.42578C243.573 2.42578 244.264 2.73112 244.77 3.3418C245.275 3.95247 245.528 4.7819 245.528 5.83008V6.37695H240.176C240.185 7.39779 240.422 8.17708 240.887 8.71484C241.356 9.2526 242.026 9.52148 242.897 9.52148C243.32 9.52148 243.692 9.49186 244.011 9.43262C244.334 9.37337 244.742 9.24577 245.234 9.0498V9.66504C244.815 9.84733 244.428 9.97038 244.072 10.0342C243.717 10.1025 243.325 10.1367 242.897 10.1367ZM242.698 3.02734C241.983 3.02734 241.409 3.26432 240.976 3.73828C240.543 4.20768 240.29 4.88672 240.217 5.77539H244.811C244.811 4.91406 244.624 4.24186 244.25 3.75879C243.876 3.27116 243.359 3.02734 242.698 3.02734ZM251.858 2.56934V7.94238L251.817 9.34375L256.227 2.56934H257.129V10H256.48V4.66113L256.507 3.22559L252.098 10H251.216V2.56934H251.858ZM269.324 12.5225H268.654V10H262.967V12.5225H262.297V9.35742H262.789C263.409 8.48698 263.887 7.47754 264.225 6.3291C264.562 5.18066 264.74 3.92741 264.758 2.56934H268.333V9.35742H269.324V12.5225ZM267.656 9.35742V3.19824H265.346C265.236 5.66374 264.639 7.7168 263.555 9.35742H267.656ZM275.415 10L275.244 8.82422H275.19C274.816 9.30273 274.431 9.64225 274.034 9.84277C273.642 10.0387 273.177 10.1367 272.64 10.1367C271.911 10.1367 271.343 9.94987 270.938 9.57617C270.532 9.20247 270.329 8.68522 270.329 8.02441C270.329 7.2998 270.63 6.73698 271.232 6.33594C271.838 5.9349 272.713 5.72298 273.857 5.7002L275.272 5.65918V5.16699C275.272 4.46061 275.128 3.92741 274.841 3.56738C274.554 3.20736 274.091 3.02734 273.453 3.02734C272.765 3.02734 272.052 3.21875 271.314 3.60156L271.061 3.01367C271.876 2.63086 272.683 2.43945 273.481 2.43945C274.296 2.43945 274.905 2.65137 275.306 3.0752C275.711 3.49902 275.914 4.15983 275.914 5.05762V10H275.415ZM272.681 9.52148C273.474 9.52148 274.098 9.2959 274.554 8.84473C275.014 8.389 275.244 7.75781 275.244 6.95117V6.21973L273.945 6.27441C272.902 6.32454 272.157 6.48861 271.71 6.7666C271.268 7.04004 271.047 7.46842 271.047 8.05176C271.047 8.5166 271.188 8.87891 271.471 9.13867C271.758 9.39388 272.161 9.52148 272.681 9.52148ZM287.446 6.27441C287.446 7.48665 287.173 8.43457 286.626 9.11816C286.084 9.7972 285.339 10.1367 284.391 10.1367C283.497 10.1367 282.777 9.80176 282.231 9.13184C281.688 8.46191 281.41 7.55729 281.397 6.41797H279.004V10H278.327V2.56934H279.004V5.83008H281.41C281.474 4.75911 281.77 3.92513 282.299 3.32812C282.832 2.72656 283.543 2.42578 284.432 2.42578C285.361 2.42578 286.095 2.76986 286.633 3.45801C287.175 4.1416 287.446 5.0804 287.446 6.27441ZM282.107 6.27441C282.107 7.29525 282.308 8.09277 282.709 8.66699C283.115 9.23665 283.684 9.52148 284.418 9.52148C285.152 9.52148 285.719 9.23438 286.12 8.66016C286.526 8.08594 286.729 7.29069 286.729 6.27441C286.729 5.25358 286.526 4.46061 286.12 3.89551C285.715 3.32585 285.143 3.04102 284.404 3.04102C283.671 3.04102 283.103 3.32357 282.702 3.88867C282.306 4.44922 282.107 5.24447 282.107 6.27441ZM294.214 3.15723H291.739V10H291.069V3.15723H288.533V2.56934H294.214V3.15723ZM25.9034 33H25.2266V25.5693H31.1534V33H30.4766V26.2119H25.9034V33ZM39.794 29.2744C39.794 30.4867 39.5001 31.4346 38.9122 32.1182C38.3243 32.7972 37.5131 33.1367 36.4786 33.1367C35.8269 33.1367 35.2527 32.9795 34.7559 32.665C34.2592 32.3506 33.8787 31.8994 33.6143 31.3115C33.35 30.7236 33.2178 30.0446 33.2178 29.2744C33.2178 28.0622 33.5118 27.1188 34.0997 26.4443C34.6876 25.7653 35.4942 25.4258 36.5196 25.4258C37.5404 25.4258 38.3402 25.7699 38.919 26.458C39.5024 27.1416 39.794 28.0804 39.794 29.2744ZM33.9288 29.2744C33.9288 30.2952 34.1521 31.0928 34.5987 31.667C35.0499 32.2367 35.6856 32.5215 36.5059 32.5215C37.3262 32.5215 37.9597 32.2367 38.4063 31.667C38.8575 31.0928 39.0831 30.2952 39.0831 29.2744C39.0831 28.249 38.8552 27.4538 38.3995 26.8887C37.9483 26.3236 37.3126 26.041 36.4923 26.041C35.672 26.041 35.0385 26.3236 34.5919 26.8887C34.1498 27.4492 33.9288 28.2445 33.9288 29.2744ZM46.5684 26.1572H44.0938V33H43.4239V26.1572H40.8878V25.5693H46.5684V26.1572ZM51.1007 33.1367C50.0206 33.1367 49.1775 32.804 48.5714 32.1387C47.9698 31.4733 47.669 30.5413 47.669 29.3428C47.669 28.1579 47.9607 27.21 48.544 26.499C49.1274 25.7835 49.9135 25.4258 50.9024 25.4258C51.7774 25.4258 52.4678 25.7311 52.9737 26.3418C53.4796 26.9525 53.7325 27.7819 53.7325 28.8301V29.377H48.38C48.3891 30.3978 48.6261 31.1771 49.0909 31.7148C49.5603 32.2526 50.2302 32.5215 51.1007 32.5215C51.5245 32.5215 51.8959 32.4919 52.2149 32.4326C52.5385 32.3734 52.9464 32.2458 53.4386 32.0498V32.665C53.0193 32.8473 52.6319 32.9704 52.2764 33.0342C51.921 33.1025 51.529 33.1367 51.1007 33.1367ZM50.9024 26.0273C50.1869 26.0273 49.6127 26.2643 49.1798 26.7383C48.7468 27.2077 48.4939 27.8867 48.421 28.7754H53.0147C53.0147 27.9141 52.8279 27.2419 52.4542 26.7588C52.0805 26.2712 51.5632 26.0273 50.9024 26.0273ZM56.46 25.5693V28.8301H61.1768V25.5693H61.8468V33H61.1768V29.418H56.46V33H55.7833V25.5693H56.46ZM71.1231 35.5225H70.4464V33H64.3419V25.5693H65.0186V32.3574H69.4552V25.5693H70.1251V32.3574H71.1231V35.5225ZM73.3516 25.5693V30.9424L73.3106 32.3438L77.7198 25.5693H78.6221V33H77.9727V27.6611L78.0001 26.2256L73.5909 33H72.7091V25.5693H73.3516ZM85.629 33L85.4581 31.8242H85.4034C85.0297 32.3027 84.6446 32.6423 84.2481 32.8428C83.8562 33.0387 83.3914 33.1367 82.8536 33.1367C82.1244 33.1367 81.557 32.9499 81.1514 32.5762C80.7458 32.2025 80.543 31.6852 80.543 31.0244C80.543 30.2998 80.8438 29.737 81.4454 29.3359C82.0515 28.9349 82.9265 28.723 84.0704 28.7002L85.4854 28.6592V28.167C85.4854 27.4606 85.3419 26.9274 85.0548 26.5674C84.7677 26.2074 84.3051 26.0273 83.6671 26.0273C82.9789 26.0273 82.2657 26.2188 81.5274 26.6016L81.2745 26.0137C82.0902 25.6309 82.8969 25.4395 83.6944 25.4395C84.5102 25.4395 85.1186 25.6514 85.5196 26.0752C85.9252 26.499 86.128 27.1598 86.128 28.0576V33H85.629ZM82.8946 32.5215C83.6876 32.5215 84.3119 32.2959 84.7677 31.8447C85.2279 31.389 85.4581 30.7578 85.4581 29.9512V29.2197L84.1593 29.2744C83.1156 29.3245 82.3705 29.4886 81.9239 29.7666C81.4818 30.04 81.2608 30.4684 81.2608 31.0518C81.2608 31.5166 81.4021 31.8789 81.6846 32.1387C81.9718 32.3939 82.3751 32.5215 82.8946 32.5215ZM93.6817 33H93.0118V26.1982H90.38C90.2432 27.9984 90.0746 29.3724 89.8741 30.3203C89.6781 31.2637 89.4229 31.9587 89.1085 32.4053C88.7986 32.8473 88.3953 33.0684 87.8985 33.0684C87.7208 33.0684 87.5658 33.0501 87.4337 33.0137V32.3984C87.5203 32.4258 87.6433 32.4395 87.8028 32.4395C88.3178 32.4395 88.7325 31.8971 89.047 30.8125C89.366 29.7233 89.6075 27.9756 89.7716 25.5693H93.6817V33ZM96.8468 28.7002H99.4649C101.21 28.7002 102.083 29.3861 102.083 30.7578C102.083 31.4642 101.839 32.0156 101.352 32.4121C100.864 32.804 100.164 33 99.253 33H96.17V25.5693H96.8468V28.7002ZM96.8468 29.3428V32.3574H99.3624C100.01 32.3574 100.504 32.2207 100.846 31.9473C101.192 31.6738 101.365 31.2728 101.365 30.7441C101.365 30.252 101.213 29.8965 100.907 29.6777C100.602 29.4544 100.073 29.3428 99.3214 29.3428H96.8468ZM104.817 25.5693V28.8301H109.534V25.5693H110.204V33H109.534V29.418H104.817V33H104.141V25.5693H104.817ZM118.845 29.2744C118.845 30.4867 118.551 31.4346 117.963 32.1182C117.375 32.7972 116.564 33.1367 115.529 33.1367C114.878 33.1367 114.303 32.9795 113.807 32.665C113.31 32.3506 112.929 31.8994 112.665 31.3115C112.401 30.7236 112.269 30.0446 112.269 29.2744C112.269 28.0622 112.563 27.1188 113.15 26.4443C113.738 25.7653 114.545 25.4258 115.57 25.4258C116.591 25.4258 117.391 25.7699 117.97 26.458C118.553 27.1416 118.845 28.0804 118.845 29.2744ZM112.98 29.2744C112.98 30.2952 113.203 31.0928 113.649 31.667C114.101 32.2367 114.736 32.5215 115.557 32.5215C116.377 32.5215 117.01 32.2367 117.457 31.667C117.908 31.0928 118.134 30.2952 118.134 29.2744C118.134 28.249 117.906 27.4538 117.45 26.8887C116.999 26.3236 116.363 26.041 115.543 26.041C114.723 26.041 114.089 26.3236 113.643 26.8887C113.201 27.4492 112.98 28.2445 112.98 29.2744ZM124.361 32.2754L124.785 31.0791L126.925 25.5693H127.861V33H127.219V26.3896C127.119 26.6768 127.011 26.9707 126.898 27.2715C126.788 27.5723 126.045 29.4818 124.669 33H124.067L122.01 27.7773C121.923 27.5677 121.841 27.3467 121.764 27.1143C121.691 26.8818 121.609 26.6312 121.518 26.3623V33H120.902V25.5693H121.798L123.944 31.0381C124.113 31.4801 124.252 31.8926 124.361 32.2754ZM129.106 25.5693H129.803L131.375 29.7393C131.854 31.0199 132.157 31.8835 132.284 32.3301H132.325C132.517 31.7422 132.829 30.8649 133.262 29.6982L134.834 25.5693H135.531L132.202 34.2031C131.933 34.9049 131.708 35.3789 131.525 35.625C131.343 35.8711 131.129 36.0557 130.883 36.1787C130.641 36.3018 130.347 36.3633 130.001 36.3633C129.741 36.3633 129.452 36.3154 129.133 36.2197V35.6318C129.397 35.7048 129.682 35.7412 129.987 35.7412C130.22 35.7412 130.425 35.6865 130.603 35.5771C130.78 35.4678 130.94 35.2969 131.081 35.0645C131.227 34.8366 131.393 34.472 131.58 33.9707C131.772 33.474 131.895 33.1504 131.949 33L129.106 25.5693ZM144.445 25.5693H145.286L141.957 29.165L145.525 33H144.616L141.103 29.2334V33H140.412V25.5693H141.103V29.1787L144.445 25.5693ZM151.979 33H151.309V26.1982H148.677C148.54 27.9984 148.371 29.3724 148.171 30.3203C147.975 31.2637 147.72 31.9587 147.405 32.4053C147.095 32.8473 146.692 33.0684 146.195 33.0684C146.018 33.0684 145.863 33.0501 145.731 33.0137V32.3984C145.817 32.4258 145.94 32.4395 146.1 32.4395C146.615 32.4395 147.029 31.8971 147.344 30.8125C147.663 29.7233 147.904 27.9756 148.068 25.5693H151.979V33ZM155.109 25.5693V30.9424L155.068 32.3438L159.478 25.5693H160.38V33H159.731V27.6611L159.758 26.2256L155.349 33H154.467V25.5693H155.109ZM165.876 33.1367C164.796 33.1367 163.953 32.804 163.347 32.1387C162.745 31.4733 162.444 30.5413 162.444 29.3428C162.444 28.1579 162.736 27.21 163.319 26.499C163.903 25.7835 164.689 25.4258 165.678 25.4258C166.553 25.4258 167.243 25.7311 167.749 26.3418C168.255 26.9525 168.508 27.7819 168.508 28.8301V29.377H163.155C163.164 30.3978 163.401 31.1771 163.866 31.7148C164.336 32.2526 165.006 32.5215 165.876 32.5215C166.3 32.5215 166.671 32.4919 166.99 32.4326C167.314 32.3734 167.722 32.2458 168.214 32.0498V32.665C167.795 32.8473 167.407 32.9704 167.052 33.0342C166.696 33.1025 166.304 33.1367 165.876 33.1367ZM165.678 26.0273C164.962 26.0273 164.388 26.2643 163.955 26.7383C163.522 27.2077 163.269 27.8867 163.196 28.7754H167.79C167.79 27.9141 167.603 27.2419 167.23 26.7588C166.856 26.2712 166.339 26.0273 165.678 26.0273ZM171.235 25.5693V28.8301H175.952V25.5693H176.622V33H175.952V29.418H171.235V33H170.559V25.5693H171.235ZM183.834 26.1572H181.359V33H180.69V26.1572H178.153V25.5693H183.834V26.1572ZM184.121 25.5693H184.818L186.391 29.7393C186.869 31.0199 187.172 31.8835 187.3 32.3301H187.341C187.532 31.7422 187.844 30.8649 188.277 29.6982L189.85 25.5693H190.547L187.218 34.2031C186.949 34.9049 186.723 35.3789 186.541 35.625C186.359 35.8711 186.145 36.0557 185.899 36.1787C185.657 36.3018 185.363 36.3633 185.017 36.3633C184.757 36.3633 184.468 36.3154 184.149 36.2197V35.6318C184.413 35.7048 184.698 35.7412 185.003 35.7412C185.235 35.7412 185.441 35.6865 185.618 35.5771C185.796 35.4678 185.955 35.2969 186.097 35.0645C186.243 34.8366 186.409 34.472 186.596 33.9707C186.787 33.474 186.91 33.1504 186.965 33L184.121 25.5693ZM201.129 27.3604C201.129 27.8298 201.013 28.1989 200.78 28.4678C200.548 28.7321 200.17 28.9167 199.646 29.0215V29.0693C200.243 29.1377 200.673 29.3109 200.938 29.5889C201.206 29.8623 201.341 30.2565 201.341 30.7715C201.341 31.487 201.104 32.0384 200.63 32.4258C200.161 32.8086 199.472 33 198.566 33H195.428V25.5693H198.579C199.427 25.5693 200.063 25.722 200.486 26.0273C200.915 26.3327 201.129 26.777 201.129 27.3604ZM200.623 30.7578C200.623 29.8464 199.924 29.3906 198.524 29.3906H196.105V32.3574H198.62C199.955 32.3574 200.623 31.8242 200.623 30.7578ZM200.411 27.415C200.411 26.9821 200.256 26.6745 199.946 26.4922C199.636 26.3053 199.172 26.2119 198.552 26.2119H196.105V28.7549H198.47C199.163 28.7549 199.659 28.6478 199.96 28.4336C200.261 28.2194 200.411 27.8799 200.411 27.415ZM206.324 33.1367C205.262 33.1367 204.431 32.8018 203.829 32.1318C203.228 31.4619 202.927 30.5277 202.927 29.3291C202.927 28.0986 203.239 27.1416 203.863 26.458C204.488 25.7699 205.342 25.4258 206.427 25.4258C207.069 25.4258 207.685 25.5374 208.273 25.7607L208.088 26.3623C207.445 26.1481 206.887 26.041 206.413 26.041C205.502 26.041 204.811 26.3236 204.342 26.8887C203.872 27.4492 203.638 28.2581 203.638 29.3154C203.638 30.318 203.872 31.1042 204.342 31.6738C204.811 32.2389 205.468 32.5215 206.311 32.5215C206.985 32.5215 207.612 32.4007 208.191 32.1592V32.7881C207.717 33.0205 207.094 33.1367 206.324 33.1367ZM219.135 29.2744C219.135 30.4867 218.861 31.4346 218.315 32.1182C217.772 32.7972 217.027 33.1367 216.079 33.1367C215.186 33.1367 214.466 32.8018 213.919 32.1318C213.377 31.4619 213.099 30.5573 213.085 29.418H210.692V33H210.016V25.5693H210.692V28.8301H213.099C213.163 27.7591 213.459 26.9251 213.987 26.3281C214.521 25.7266 215.232 25.4258 216.12 25.4258C217.05 25.4258 217.784 25.7699 218.321 26.458C218.864 27.1416 219.135 28.0804 219.135 29.2744ZM213.796 29.2744C213.796 30.2952 213.996 31.0928 214.398 31.667C214.803 32.2367 215.373 32.5215 216.107 32.5215C216.84 32.5215 217.408 32.2344 217.809 31.6602C218.214 31.0859 218.417 30.2907 218.417 29.2744C218.417 28.2536 218.214 27.4606 217.809 26.8955C217.403 26.3258 216.831 26.041 216.093 26.041C215.359 26.041 214.792 26.3236 214.391 26.8887C213.994 27.4492 213.796 28.2445 213.796 29.2744ZM225.499 25.5693V28.8301H230.216V25.5693H230.886V33H230.216V29.418H225.499V33H224.822V25.5693H225.499ZM232.137 25.5693H232.834L234.406 29.7393C234.885 31.0199 235.188 31.8835 235.316 32.3301H235.357C235.548 31.7422 235.86 30.8649 236.293 29.6982L237.865 25.5693H238.563L235.233 34.2031C234.965 34.9049 234.739 35.3789 234.557 35.625C234.374 35.8711 234.16 36.0557 233.914 36.1787C233.673 36.3018 233.379 36.3633 233.032 36.3633C232.773 36.3633 232.483 36.3154 232.164 36.2197V35.6318C232.428 35.7048 232.713 35.7412 233.019 35.7412C233.251 35.7412 233.456 35.6865 233.634 35.5771C233.812 35.4678 233.971 35.2969 234.112 35.0645C234.258 34.8366 234.425 34.472 234.611 33.9707C234.803 33.474 234.926 33.1504 234.981 33L232.137 25.5693ZM242.876 25.5693H243.56V29.1787L246.752 25.5693H247.579L244.359 29.1787L247.832 33H246.964L243.56 29.2334V33H242.876V29.2334L239.472 33H238.604L242.063 29.2061L238.857 25.5693H239.684L242.876 29.1787V25.5693ZM249.794 25.5693V28.8301H254.511V25.5693H255.181V33H254.511V29.418H249.794V33H249.117V25.5693H249.794ZM256.432 25.5693H257.129L258.701 29.7393C259.18 31.0199 259.483 31.8835 259.61 32.3301H259.651C259.843 31.7422 260.155 30.8649 260.588 29.6982L262.16 25.5693H262.857L259.528 34.2031C259.26 34.9049 259.034 35.3789 258.852 35.625C258.669 35.8711 258.455 36.0557 258.209 36.1787C257.968 36.3018 257.674 36.3633 257.327 36.3633C257.067 36.3633 256.778 36.3154 256.459 36.2197V35.6318C256.723 35.7048 257.008 35.7412 257.314 35.7412C257.546 35.7412 257.751 35.6865 257.929 35.5771C258.107 35.4678 258.266 35.2969 258.407 35.0645C258.553 34.8366 258.719 34.472 258.906 33.9707C259.098 33.474 259.221 33.1504 259.275 33L256.432 25.5693ZM273.221 29.2744C273.221 30.4867 272.947 31.4346 272.4 32.1182C271.858 32.7972 271.113 33.1367 270.165 33.1367C269.272 33.1367 268.552 32.8018 268.005 32.1318C267.463 31.4619 267.185 30.5573 267.171 29.418H264.778V33H264.102V25.5693H264.778V28.8301H267.185C267.248 27.7591 267.545 26.9251 268.073 26.3281C268.607 25.7266 269.317 25.4258 270.206 25.4258C271.136 25.4258 271.87 25.7699 272.407 26.458C272.95 27.1416 273.221 28.0804 273.221 29.2744ZM267.882 29.2744C267.882 30.2952 268.082 31.0928 268.483 31.667C268.889 32.2367 269.459 32.5215 270.192 32.5215C270.926 32.5215 271.494 32.2344 271.895 31.6602C272.3 31.0859 272.503 30.2907 272.503 29.2744C272.503 28.2536 272.3 27.4606 271.895 26.8955C271.489 26.3258 270.917 26.041 270.179 26.041C269.445 26.041 268.878 26.3236 268.477 26.8887C268.08 27.4492 267.882 28.2445 267.882 29.2744ZM10.8096 48.5693V53.9424L10.7686 55.3438L15.1778 48.5693H16.0802V56H15.4307V50.6611L15.4581 49.2256L11.0489 56H10.1671V48.5693H10.8096ZM19.252 48.5693V51.8301H23.9688V48.5693H24.6387V56H23.9688V52.418H19.252V56H18.5753V48.5693H19.252ZM34.4552 52.2744C34.4552 53.4183 34.1453 54.3275 33.5255 55.002C32.9102 55.6764 32.0443 56.0547 30.9278 56.1367V59.3633H30.2579V56.1367C29.1459 56.0729 28.2755 55.7038 27.6466 55.0293C27.0177 54.3548 26.7032 53.4365 26.7032 52.2744C26.7032 51.1305 27.0131 50.2236 27.6329 49.5537C28.2527 48.8838 29.1277 48.5078 30.2579 48.4258V45.3633H30.9278V48.4258C32.0489 48.5078 32.9171 48.8838 33.5323 49.5537C34.1475 50.2236 34.4552 51.1305 34.4552 52.2744ZM27.4141 52.2744C27.4141 53.2451 27.6602 54.0107 28.1524 54.5713C28.6492 55.1273 29.351 55.4395 30.2579 55.5078V49.0547C29.3236 49.1322 28.615 49.4489 28.1319 50.0049C27.6534 50.5563 27.4141 51.3128 27.4141 52.2744ZM33.7442 52.2744C33.7442 51.3219 33.5004 50.5677 33.0128 50.0117C32.5251 49.4512 31.8302 49.1322 30.9278 49.0547V55.5078C31.8393 55.4303 32.5365 55.1068 33.0196 54.5371C33.5027 53.9674 33.7442 53.2132 33.7442 52.2744ZM42.6583 52.2744C42.6583 53.4867 42.3643 54.4346 41.7764 55.1182C41.1886 55.7972 40.3774 56.1367 39.3428 56.1367C38.6912 56.1367 38.1169 55.9795 37.6202 55.665C37.1234 55.3506 36.7429 54.8994 36.4786 54.3115C36.2143 53.7236 36.0821 53.0446 36.0821 52.2744C36.0821 51.0622 36.3761 50.1188 36.9639 49.4443C37.5518 48.7653 38.3585 48.4258 39.3839 48.4258C40.4047 48.4258 41.2045 48.7699 41.7833 49.458C42.3666 50.1416 42.6583 51.0804 42.6583 52.2744ZM36.793 52.2744C36.793 53.2952 37.0164 54.0928 37.463 54.667C37.9141 55.2367 38.5499 55.5215 39.3702 55.5215C40.1905 55.5215 40.824 55.2367 41.2706 54.667C41.7218 54.0928 41.9473 53.2952 41.9473 52.2744C41.9473 51.249 41.7195 50.4538 41.2637 49.8887C40.8126 49.3236 40.1768 49.041 39.3565 49.041C38.5362 49.041 37.9027 49.3236 37.4561 49.8887C37.0141 50.4492 36.793 51.2445 36.793 52.2744ZM47.8946 56.1367C46.7507 56.1367 45.9167 55.7083 45.3927 54.8516H45.3448L45.3653 55.4258C45.3835 55.763 45.3927 56.1322 45.3927 56.5332V59.3633H44.7159V48.5693H45.2901L45.42 49.6289H45.461C45.9714 48.8268 46.7872 48.4258 47.9083 48.4258C48.9109 48.4258 49.6742 48.7562 50.1983 49.417C50.727 50.0732 50.9913 51.0303 50.9913 52.2881C50.9913 53.5094 50.7133 54.4574 50.1573 55.1318C49.6059 55.8018 48.8516 56.1367 47.8946 56.1367ZM47.8809 55.5352C48.642 55.5352 49.2299 55.2526 49.6446 54.6875C50.0639 54.1224 50.2735 53.3317 50.2735 52.3154C50.2735 50.1325 49.4851 49.041 47.9083 49.041C47.0424 49.041 46.4067 49.2803 46.0011 49.7588C45.5955 50.2327 45.3927 51.0075 45.3927 52.083V52.3018C45.3927 53.4639 45.5863 54.2933 45.9737 54.79C46.3656 55.2868 47.0014 55.5352 47.8809 55.5352ZM56.5147 55.2754L56.9386 54.0791L59.0782 48.5693H60.0147V56H59.3721V49.3896C59.2719 49.6768 59.1648 49.9707 59.0509 50.2715C58.9415 50.5723 58.1986 52.4818 56.8223 56H56.2208L54.1632 50.7773C54.0766 50.5677 53.9945 50.3467 53.9171 50.1143C53.8442 49.8818 53.7621 49.6312 53.671 49.3623V56H53.0557V48.5693H53.9512L56.0977 54.0381C56.2664 54.4801 56.4053 54.8926 56.5147 55.2754ZM67.0147 56L66.8438 54.8242H66.7891C66.4154 55.3027 66.0303 55.6423 65.6339 55.8428C65.2419 56.0387 64.7771 56.1367 64.2393 56.1367C63.5102 56.1367 62.9428 55.9499 62.5372 55.5762C62.1316 55.2025 61.9288 54.6852 61.9288 54.0244C61.9288 53.2998 62.2296 52.737 62.8311 52.3359C63.4373 51.9349 64.3123 51.723 65.4561 51.7002L66.8712 51.6592V51.167C66.8712 50.4606 66.7276 49.9274 66.4405 49.5674C66.1534 49.2074 65.6908 49.0273 65.0528 49.0273C64.3647 49.0273 63.6514 49.2188 62.9132 49.6016L62.6602 49.0137C63.476 48.6309 64.2826 48.4395 65.0802 48.4395C65.8959 48.4395 66.5043 48.6514 66.9053 49.0752C67.3109 49.499 67.5137 50.1598 67.5137 51.0576V56H67.0147ZM64.2803 55.5215C65.0733 55.5215 65.6977 55.2959 66.1534 54.8447C66.6137 54.389 66.8438 53.7578 66.8438 52.9512V52.2197L65.545 52.2744C64.5014 52.3245 63.7563 52.4886 63.3096 52.7666C62.8676 53.04 62.6466 53.4684 62.6466 54.0518C62.6466 54.5166 62.7878 54.8789 63.0704 55.1387C63.3575 55.3939 63.7608 55.5215 64.2803 55.5215ZM76.7081 58.5225H76.0313V56H69.9268V48.5693H70.6036V55.3574H75.0401V48.5693H75.71V55.3574H76.7081V58.5225ZM78.9366 48.5693V53.9424L78.8956 55.3438L83.3048 48.5693H84.2071V56H83.5577V50.6611L83.585 49.2256L79.1759 56H78.294V48.5693H78.9366ZM95.8214 52.2744C95.8214 53.4867 95.5479 54.4346 95.0011 55.1182C94.4587 55.7972 93.7136 56.1367 92.7657 56.1367C91.8725 56.1367 91.1524 55.8018 90.6055 55.1318C90.0632 54.4619 89.7852 53.5573 89.7716 52.418H87.379V56H86.7022V48.5693H87.379V51.8301H89.7852C89.849 50.7591 90.1453 49.9251 90.6739 49.3281C91.2071 48.7266 91.918 48.4258 92.8067 48.4258C93.7364 48.4258 94.4701 48.7699 95.0079 49.458C95.5502 50.1416 95.8214 51.0804 95.8214 52.2744ZM90.4825 52.2744C90.4825 53.2952 90.683 54.0928 91.0841 54.667C91.4897 55.2367 92.0593 55.5215 92.793 55.5215C93.5268 55.5215 94.0942 55.2344 94.4952 54.6602C94.9008 54.0859 95.1036 53.2907 95.1036 52.2744C95.1036 51.2536 94.9008 50.4606 94.4952 49.8955C94.0896 49.3258 93.5177 49.041 92.7794 49.041C92.0456 49.041 91.4783 49.3236 91.0772 49.8887C90.6807 50.4492 90.4825 51.2445 90.4825 52.2744ZM107.654 52.2744C107.654 53.4867 107.36 54.4346 106.773 55.1182C106.185 55.7972 105.373 56.1367 104.339 56.1367C103.687 56.1367 103.113 55.9795 102.616 55.665C102.12 55.3506 101.739 54.8994 101.475 54.3115C101.21 53.7236 101.078 53.0446 101.078 52.2744C101.078 51.0622 101.372 50.1188 101.96 49.4443C102.548 48.7653 103.355 48.4258 104.38 48.4258C105.401 48.4258 106.201 48.7699 106.779 49.458C107.363 50.1416 107.654 51.0804 107.654 52.2744ZM101.789 52.2744C101.789 53.2952 102.012 54.0928 102.459 54.667C102.91 55.2367 103.546 55.5215 104.366 55.5215C105.187 55.5215 105.82 55.2367 106.267 54.667C106.718 54.0928 106.943 53.2952 106.943 52.2744C106.943 51.249 106.716 50.4538 106.26 49.8887C105.809 49.3236 105.173 49.041 104.353 49.041C103.532 49.041 102.899 49.3236 102.452 49.8887C102.01 50.4492 101.789 51.2445 101.789 52.2744ZM109.309 51.5361C109.309 48.3096 110.218 46.4707 112.036 46.0195C112.674 45.86 113.285 45.7256 113.868 45.6162C114.456 45.5023 114.976 45.402 115.427 45.3154L115.55 45.9033L114.73 46.0605C113.376 46.3158 112.483 46.5117 112.05 46.6484C111.435 46.8262 110.952 47.2523 110.601 47.9268C110.254 48.6012 110.056 49.5241 110.006 50.6953H110.047C110.535 50.1165 111.009 49.7041 111.469 49.458C111.929 49.2074 112.403 49.082 112.891 49.082C113.802 49.082 114.499 49.376 114.982 49.9639C115.466 50.5518 115.707 51.388 115.707 52.4727C115.707 53.6257 115.429 54.5257 114.873 55.1729C114.317 55.8154 113.536 56.1367 112.528 56.1367C111.508 56.1367 110.715 55.738 110.149 54.9404C109.589 54.1429 109.309 53.0081 109.309 51.5361ZM112.583 55.5215C113.362 55.5215 113.957 55.2617 114.367 54.7422C114.782 54.2227 114.989 53.4753 114.989 52.5C114.989 51.5749 114.805 50.8776 114.436 50.4082C114.071 49.9342 113.533 49.6973 112.822 49.6973C112.294 49.6973 111.781 49.8636 111.284 50.1963C110.792 50.5244 110.361 50.9801 109.992 51.5635C109.992 52.3792 110.093 53.0947 110.293 53.71C110.498 54.3252 110.794 54.7809 111.182 55.0771C111.569 55.3734 112.036 55.5215 112.583 55.5215ZM120.144 48.5693H120.841L122.413 52.7393C122.892 54.0199 123.195 54.8835 123.322 55.3301H123.363C123.555 54.7422 123.867 53.8649 124.3 52.6982L125.872 48.5693H126.569L123.24 57.2031C122.971 57.9049 122.746 58.3789 122.564 58.625C122.381 58.8711 122.167 59.0557 121.921 59.1787C121.679 59.3018 121.385 59.3633 121.039 59.3633C120.779 59.3633 120.49 59.3154 120.171 59.2197V58.6318C120.435 58.7048 120.72 58.7412 121.025 58.7412C121.258 58.7412 121.463 58.6865 121.641 58.5771C121.818 58.4678 121.978 58.2969 122.119 58.0645C122.265 57.8366 122.431 57.472 122.618 56.9707C122.81 56.474 122.933 56.1504 122.987 56L120.144 48.5693ZM130.78 56.1367C129.719 56.1367 128.887 55.8018 128.285 55.1318C127.684 54.4619 127.383 53.5277 127.383 52.3291C127.383 51.0986 127.695 50.1416 128.319 49.458C128.944 48.7699 129.798 48.4258 130.883 48.4258C131.525 48.4258 132.141 48.5374 132.729 48.7607L132.544 49.3623C131.901 49.1481 131.343 49.041 130.869 49.041C129.958 49.041 129.267 49.3236 128.798 49.8887C128.329 50.4492 128.094 51.2581 128.094 52.3154C128.094 53.318 128.329 54.1042 128.798 54.6738C129.267 55.2389 129.924 55.5215 130.767 55.5215C131.441 55.5215 132.068 55.4007 132.647 55.1592V55.7881C132.173 56.0205 131.551 56.1367 130.78 56.1367ZM139.612 56H138.942V49.1982H136.311C136.174 50.9984 136.005 52.3724 135.805 53.3203C135.609 54.2637 135.354 54.9587 135.039 55.4053C134.729 55.8473 134.326 56.0684 133.829 56.0684C133.651 56.0684 133.496 56.0501 133.364 56.0137V55.3984C133.451 55.4258 133.574 55.4395 133.733 55.4395C134.248 55.4395 134.663 54.8971 134.978 53.8125C135.297 52.7233 135.538 50.9756 135.702 48.5693H139.612V56ZM140.857 48.5693H141.554L143.126 52.7393C143.605 54.0199 143.908 54.8835 144.035 55.3301H144.076C144.268 54.7422 144.58 53.8649 145.013 52.6982L146.585 48.5693H147.282L143.953 57.2031C143.684 57.9049 143.459 58.3789 143.276 58.625C143.094 58.8711 142.88 59.0557 142.634 59.1787C142.392 59.3018 142.098 59.3633 141.752 59.3633C141.492 59.3633 141.203 59.3154 140.884 59.2197V58.6318C141.148 58.7048 141.433 58.7412 141.738 58.7412C141.971 58.7412 142.176 58.6865 142.354 58.5771C142.531 58.4678 142.691 58.2969 142.832 58.0645C142.978 57.8366 143.144 57.472 143.331 56.9707C143.523 56.474 143.646 56.1504 143.7 56L140.857 48.5693ZM152.895 49.1572H149.203V56H148.526V48.5693H152.895V49.1572ZM158.931 56L158.76 54.8242H158.705C158.331 55.3027 157.946 55.6423 157.55 55.8428C157.158 56.0387 156.693 56.1367 156.155 56.1367C155.426 56.1367 154.859 55.9499 154.453 55.5762C154.048 55.2025 153.845 54.6852 153.845 54.0244C153.845 53.2998 154.146 52.737 154.747 52.3359C155.353 51.9349 156.228 51.723 157.372 51.7002L158.787 51.6592V51.167C158.787 50.4606 158.644 49.9274 158.357 49.5674C158.069 49.2074 157.607 49.0273 156.969 49.0273C156.281 49.0273 155.567 49.2188 154.829 49.6016L154.576 49.0137C155.392 48.6309 156.199 48.4395 156.996 48.4395C157.812 48.4395 158.42 48.6514 158.821 49.0752C159.227 49.499 159.43 50.1598 159.43 51.0576V56H158.931ZM156.196 55.5215C156.989 55.5215 157.614 55.2959 158.069 54.8447C158.53 54.389 158.76 53.7578 158.76 52.9512V52.2197L157.461 52.2744C156.417 52.3245 155.672 52.4886 155.226 52.7666C154.784 53.04 154.563 53.4684 154.563 54.0518C154.563 54.5166 154.704 54.8789 154.986 55.1387C155.274 55.3939 155.677 55.5215 156.196 55.5215ZM163.668 52.1787L161.077 48.5693H161.857L164.071 51.7002L166.266 48.5693H167.011L164.461 52.1787L167.195 56H166.409L164.071 52.6846L161.72 56H160.975L163.668 52.1787ZM169.588 54.373L169.67 54.5166C169.328 55.7243 168.932 56.8203 168.481 57.8047H168.036C168.387 56.5514 168.638 55.4076 168.788 54.373H169.588ZM182.241 58.5225H181.565V56H175.46V48.5693H176.137V55.3574H180.573V48.5693H181.243V55.3574H182.241V58.5225ZM186.828 56.1367C185.748 56.1367 184.905 55.804 184.299 55.1387C183.697 54.4733 183.397 53.5413 183.397 52.3428C183.397 51.1579 183.688 50.21 184.272 49.499C184.855 48.7835 185.641 48.4258 186.63 48.4258C187.505 48.4258 188.195 48.7311 188.701 49.3418C189.207 49.9525 189.46 50.7819 189.46 51.8301V52.377H184.107C184.117 53.3978 184.354 54.1771 184.818 54.7148C185.288 55.2526 185.958 55.5215 186.828 55.5215C187.252 55.5215 187.623 55.4919 187.942 55.4326C188.266 55.3734 188.674 55.2458 189.166 55.0498V55.665C188.747 55.8473 188.359 55.9704 188.004 56.0342C187.649 56.1025 187.257 56.1367 186.828 56.1367ZM186.63 49.0273C185.914 49.0273 185.34 49.2643 184.907 49.7383C184.474 50.2077 184.221 50.8867 184.149 51.7754H188.742C188.742 50.9141 188.555 50.2419 188.182 49.7588C187.808 49.2712 187.291 49.0273 186.63 49.0273ZM192.188 48.5693V51.8301H196.904V48.5693H197.574V56H196.904V52.418H192.188V56H191.511V48.5693H192.188ZM204.581 56L204.41 54.8242H204.356C203.982 55.3027 203.597 55.6423 203.2 55.8428C202.808 56.0387 202.344 56.1367 201.806 56.1367C201.077 56.1367 200.509 55.9499 200.104 55.5762C199.698 55.2025 199.495 54.6852 199.495 54.0244C199.495 53.2998 199.796 52.737 200.398 52.3359C201.004 51.9349 201.879 51.723 203.023 51.7002L204.438 51.6592V51.167C204.438 50.4606 204.294 49.9274 204.007 49.5674C203.72 49.2074 203.257 49.0273 202.619 49.0273C201.931 49.0273 201.218 49.2188 200.48 49.6016L200.227 49.0137C201.042 48.6309 201.849 48.4395 202.647 48.4395C203.462 48.4395 204.071 48.6514 204.472 49.0752C204.877 49.499 205.08 50.1598 205.08 51.0576V56H204.581ZM201.847 55.5215C202.64 55.5215 203.264 55.2959 203.72 54.8447C204.18 54.389 204.41 53.7578 204.41 52.9512V52.2197L203.111 52.2744C202.068 52.3245 201.323 52.4886 200.876 52.7666C200.434 53.04 200.213 53.4684 200.213 54.0518C200.213 54.5166 200.354 54.8789 200.637 55.1387C200.924 55.3939 201.327 55.5215 201.847 55.5215ZM209.318 52.1787L206.728 48.5693H207.507L209.722 51.7002L211.916 48.5693H212.661L210.111 52.1787L212.846 56H212.06L209.722 52.6846L207.37 56H206.625L209.318 52.1787ZM218.745 48.5693V53.9424L218.704 55.3438L223.113 48.5693H224.016V56H223.366V50.6611L223.394 49.2256L218.984 56H218.103V48.5693H218.745ZM230.824 48.5693V51.8301H235.541V48.5693H236.211V56H235.541V52.418H230.824V56H230.148V48.5693H230.824ZM244.852 52.2744C244.852 53.4867 244.558 54.4346 243.97 55.1182C243.382 55.7972 242.571 56.1367 241.536 56.1367C240.885 56.1367 240.31 55.9795 239.814 55.665C239.317 55.3506 238.936 54.8994 238.672 54.3115C238.408 53.7236 238.275 53.0446 238.275 52.2744C238.275 51.0622 238.569 50.1188 239.157 49.4443C239.745 48.7653 240.552 48.4258 241.577 48.4258C242.598 48.4258 243.398 48.7699 243.977 49.458C244.56 50.1416 244.852 51.0804 244.852 52.2744ZM238.986 52.2744C238.986 53.2952 239.21 54.0928 239.656 54.667C240.107 55.2367 240.743 55.5215 241.564 55.5215C242.384 55.5215 243.017 55.2367 243.464 54.667C243.915 54.0928 244.141 53.2952 244.141 52.2744C244.141 51.249 243.913 50.4538 243.457 49.8887C243.006 49.3236 242.37 49.041 241.55 49.041C240.73 49.041 240.096 49.3236 239.649 49.8887C239.207 50.4492 238.986 51.2445 238.986 52.2744ZM252.61 50.3604C252.61 50.8298 252.494 51.1989 252.262 51.4678C252.029 51.7321 251.651 51.9167 251.127 52.0215V52.0693C251.724 52.1377 252.155 52.3109 252.419 52.5889C252.688 52.8623 252.822 53.2565 252.822 53.7715C252.822 54.487 252.585 55.0384 252.111 55.4258C251.642 55.8086 250.954 56 250.047 56H246.909V48.5693H250.061C250.908 48.5693 251.544 48.722 251.968 49.0273C252.396 49.3327 252.61 49.777 252.61 50.3604ZM252.105 53.7578C252.105 52.8464 251.405 52.3906 250.006 52.3906H247.586V55.3574H250.102C251.437 55.3574 252.105 54.8242 252.105 53.7578ZM251.893 50.415C251.893 49.9821 251.738 49.6745 251.428 49.4922C251.118 49.3053 250.653 49.2119 250.033 49.2119H247.586V51.7549H249.951C250.644 51.7549 251.141 51.6478 251.441 51.4336C251.742 51.2194 251.893 50.8799 251.893 50.415ZM260.984 52.2744C260.984 53.4867 260.69 54.4346 260.103 55.1182C259.515 55.7972 258.704 56.1367 257.669 56.1367C257.017 56.1367 256.443 55.9795 255.946 55.665C255.45 55.3506 255.069 54.8994 254.805 54.3115C254.54 53.7236 254.408 53.0446 254.408 52.2744C254.408 51.0622 254.702 50.1188 255.29 49.4443C255.878 48.7653 256.685 48.4258 257.71 48.4258C258.731 48.4258 259.531 48.7699 260.109 49.458C260.693 50.1416 260.984 51.0804 260.984 52.2744ZM255.119 52.2744C255.119 53.2952 255.343 54.0928 255.789 54.667C256.24 55.2367 256.876 55.5215 257.696 55.5215C258.517 55.5215 259.15 55.2367 259.597 54.667C260.048 54.0928 260.273 53.2952 260.273 52.2744C260.273 51.249 260.046 50.4538 259.59 49.8887C259.139 49.3236 258.503 49.041 257.683 49.041C256.862 49.041 256.229 49.3236 255.782 49.8887C255.34 50.4492 255.119 51.2445 255.119 52.2744ZM266.009 56.1367C264.947 56.1367 264.115 55.8018 263.514 55.1318C262.912 54.4619 262.611 53.5277 262.611 52.3291C262.611 51.0986 262.924 50.1416 263.548 49.458C264.172 48.7699 265.027 48.4258 266.111 48.4258C266.754 48.4258 267.369 48.5374 267.957 48.7607L267.773 49.3623C267.13 49.1481 266.572 49.041 266.098 49.041C265.186 49.041 264.496 49.3236 264.026 49.8887C263.557 50.4492 263.322 51.2581 263.322 52.3154C263.322 53.318 263.557 54.1042 264.026 54.6738C264.496 55.2389 265.152 55.5215 265.995 55.5215C266.67 55.5215 267.296 55.4007 267.875 55.1592V55.7881C267.401 56.0205 266.779 56.1367 266.009 56.1367ZM274.417 49.1572H271.942V56H271.273V49.1572H268.736V48.5693H274.417V49.1572ZM275.839 56H274.984L277.227 52.7939C276.543 52.6663 276.049 52.4294 275.743 52.083C275.442 51.7367 275.292 51.2923 275.292 50.75C275.292 50.0755 275.518 49.5446 275.969 49.1572C276.425 48.7653 277.035 48.5693 277.801 48.5693H280.863V56H280.193V52.876H277.924L275.839 56ZM276.003 50.7227C276.003 51.2331 276.167 51.6136 276.495 51.8643C276.828 52.1104 277.327 52.2334 277.992 52.2334H280.193V49.2119H277.787C277.222 49.2119 276.782 49.3418 276.468 49.6016C276.158 49.8568 276.003 50.2305 276.003 50.7227ZM285.184 52.1787L282.593 48.5693H283.372L285.587 51.7002L287.781 48.5693H288.526L285.977 52.1787L288.711 56H287.925L285.587 52.6846L283.235 56H282.49L285.184 52.1787ZM4.32918 71.5693H5.17L1.8409 75.165L5.40926 79H4.50008L0.986404 75.2334V79H0.295975V71.5693H0.986404V75.1787L4.32918 71.5693ZM12.8673 75.2744C12.8673 76.4867 12.5733 77.4346 11.9854 78.1182C11.3975 78.7972 10.5863 79.1367 9.55183 79.1367C8.90014 79.1367 8.32592 78.9795 7.82918 78.665C7.33243 78.3506 6.9519 77.8994 6.68758 77.3115C6.42325 76.7236 6.29109 76.0446 6.29109 75.2744C6.29109 74.0622 6.58504 73.1188 7.17293 72.4443C7.76082 71.7653 8.56746 71.4258 9.59285 71.4258C10.6137 71.4258 11.4135 71.7699 11.9923 72.458C12.5756 73.1416 12.8673 74.0804 12.8673 75.2744ZM7.00203 75.2744C7.00203 76.2952 7.22534 77.0928 7.67195 77.667C8.12312 78.2367 8.75887 78.5215 9.57918 78.5215C10.3995 78.5215 11.033 78.2367 11.4796 77.667C11.9307 77.0928 12.1563 76.2952 12.1563 75.2744C12.1563 74.249 11.9285 73.4538 11.4727 72.8887C11.0216 72.3236 10.3858 72.041 9.56551 72.041C8.74519 72.041 8.11173 72.3236 7.66512 72.8887C7.22306 73.4492 7.00203 74.2445 7.00203 75.2744ZM18.3839 78.2754L18.8077 77.0791L20.9473 71.5693H21.8839V79H21.2413V72.3896C21.141 72.6768 21.0339 72.9707 20.92 73.2715C20.8106 73.5723 20.0678 75.4818 18.6915 79H18.0899L16.0323 73.7773C15.9457 73.5677 15.8637 73.3467 15.7862 73.1143C15.7133 72.8818 15.6313 72.6312 15.5401 72.3623V79H14.9249V71.5693H15.8204L17.9669 77.0381C18.1355 77.4801 18.2745 77.8926 18.3839 78.2754ZM25.0489 79H24.3721V71.5693H30.2989V79H29.6221V72.2119H25.0489V79ZM37.3057 79L37.1348 77.8242H37.0802C36.7065 78.3027 36.3214 78.6423 35.9249 78.8428C35.533 79.0387 35.0681 79.1367 34.5303 79.1367C33.8012 79.1367 33.2338 78.9499 32.8282 78.5762C32.4226 78.2025 32.2198 77.6852 32.2198 77.0244C32.2198 76.2998 32.5206 75.737 33.1221 75.3359C33.7283 74.9349 34.6033 74.723 35.7471 74.7002L37.1622 74.6592V74.167C37.1622 73.4606 37.0186 72.9274 36.7315 72.5674C36.4444 72.2074 35.9818 72.0273 35.3438 72.0273C34.6557 72.0273 33.9425 72.2188 33.2042 72.6016L32.9512 72.0137C33.767 71.6309 34.5736 71.4395 35.3712 71.4395C36.1869 71.4395 36.7953 71.6514 37.1964 72.0752C37.602 72.499 37.8048 73.1598 37.8048 74.0576V79H37.3057ZM34.5714 78.5215C35.3643 78.5215 35.9887 78.2959 36.4444 77.8447C36.9047 77.389 37.1348 76.7578 37.1348 75.9512V75.2197L35.836 75.2744C34.7924 75.3245 34.0473 75.4886 33.6007 75.7666C33.1586 76.04 32.9376 76.4684 32.9376 77.0518C32.9376 77.5166 33.0789 77.8789 33.3614 78.1387C33.6485 78.3939 34.0518 78.5215 34.5714 78.5215ZM40.8946 71.5693V74.8301H45.6114V71.5693H46.2813V79H45.6114V75.418H40.8946V79H40.2178V71.5693H40.8946ZM49.419 71.5693V76.9424L49.378 78.3438L53.7872 71.5693H54.6895V79H54.0401V73.6611L54.0675 72.2256L49.6583 79H48.7764V71.5693H49.419ZM57.8272 71.5693V76.9424L57.7862 78.3438L62.1954 71.5693H63.0977V79H62.4483V73.6611L62.4757 72.2256L58.0665 79H57.1846V71.5693H57.8272ZM66.3653 77.373L66.4473 77.5166C66.1055 78.7243 65.7091 79.8203 65.2579 80.8047H64.8136C65.1645 79.5514 65.4151 78.4076 65.5655 77.373H66.3653ZM72.88 71.5693V76.9424L72.8389 78.3438L77.2481 71.5693H78.1505V79H77.5011V73.6611L77.5284 72.2256L73.1192 79H72.2374V71.5693H72.88ZM84.9591 79H84.2823V71.5693H90.2091V79H89.5323V72.2119H84.9591V79ZM98.8497 75.2744C98.8497 76.4867 98.5557 77.4346 97.9678 78.1182C97.38 78.7972 96.5688 79.1367 95.5343 79.1367C94.8826 79.1367 94.3083 78.9795 93.8116 78.665C93.3149 78.3506 92.9343 77.8994 92.67 77.3115C92.4057 76.7236 92.2735 76.0446 92.2735 75.2744C92.2735 74.0622 92.5675 73.1188 93.1553 72.4443C93.7432 71.7653 94.5499 71.4258 95.5753 71.4258C96.5961 71.4258 97.3959 71.7699 97.9747 72.458C98.558 73.1416 98.8497 74.0804 98.8497 75.2744ZM92.9845 75.2744C92.9845 76.2952 93.2078 77.0928 93.6544 77.667C94.1055 78.2367 94.7413 78.5215 95.5616 78.5215C96.3819 78.5215 97.0154 78.2367 97.462 77.667C97.9132 77.0928 98.1387 76.2952 98.1387 75.2744C98.1387 74.249 97.9109 73.4538 97.4552 72.8887C97.004 72.3236 96.3682 72.041 95.5479 72.041C94.7276 72.041 94.0942 72.3236 93.6475 72.8887C93.2055 73.4492 92.9845 74.2445 92.9845 75.2744ZM106.971 81.5225H106.301V79H100.613V81.5225H99.9434V78.3574H100.436C101.055 77.487 101.534 76.4775 101.871 75.3291C102.208 74.1807 102.386 72.9274 102.404 71.5693H105.98V78.3574H106.971V81.5225ZM105.303 78.3574V72.1982H102.992C102.883 74.6637 102.286 76.7168 101.201 78.3574H105.303ZM110.375 75.1787L107.784 71.5693H108.564L110.778 74.7002L112.973 71.5693H113.718L111.168 75.1787L113.902 79H113.116L110.778 75.6846L108.427 79H107.682L110.375 75.1787ZM121.668 75.2744C121.668 76.4867 121.374 77.4346 120.786 78.1182C120.198 78.7972 119.387 79.1367 118.353 79.1367C117.701 79.1367 117.127 78.9795 116.63 78.665C116.133 78.3506 115.753 77.8994 115.488 77.3115C115.224 76.7236 115.092 76.0446 115.092 75.2744C115.092 74.0622 115.386 73.1188 115.974 72.4443C116.562 71.7653 117.368 71.4258 118.394 71.4258C119.414 71.4258 120.214 71.7699 120.793 72.458C121.376 73.1416 121.668 74.0804 121.668 75.2744ZM115.803 75.2744C115.803 76.2952 116.026 77.0928 116.473 77.667C116.924 78.2367 117.56 78.5215 118.38 78.5215C119.2 78.5215 119.834 78.2367 120.28 77.667C120.732 77.0928 120.957 76.2952 120.957 75.2744C120.957 74.249 120.729 73.4538 120.274 72.8887C119.822 72.3236 119.187 72.041 118.366 72.041C117.546 72.041 116.913 72.3236 116.466 72.8887C116.024 73.4492 115.803 74.2445 115.803 75.2744ZM129.789 81.5225H129.119V79H123.432V81.5225H122.762V78.3574H123.254C123.874 77.487 124.352 76.4775 124.69 75.3291C125.027 74.1807 125.205 72.9274 125.223 71.5693H128.798V78.3574H129.789V81.5225ZM128.121 78.3574V72.1982H125.811C125.701 74.6637 125.104 76.7168 124.02 78.3574H128.121ZM132.011 71.5693V76.9424L131.97 78.3438L136.379 71.5693H137.281V79H136.632V73.6611L136.659 72.2256L132.25 79H131.368V71.5693H132.011ZM144.493 72.1572H142.019V79H141.349V72.1572H138.813V71.5693H144.493V72.1572ZM155.725 81.5225H155.055V79H149.367V81.5225H148.697V78.3574H149.19C149.809 77.487 150.288 76.4775 150.625 75.3291C150.962 74.1807 151.14 72.9274 151.158 71.5693H154.733V78.3574H155.725V81.5225ZM154.057 78.3574V72.1982H151.746C151.637 74.6637 151.04 76.7168 149.955 78.3574H154.057ZM162.444 79H161.774V72.1982H159.143C159.006 73.9984 158.837 75.3724 158.637 76.3203C158.441 77.2637 158.186 77.9587 157.871 78.4053C157.561 78.8473 157.158 79.0684 156.661 79.0684C156.483 79.0684 156.329 79.0501 156.196 79.0137V78.3984C156.283 78.4258 156.406 78.4395 156.566 78.4395C157.08 78.4395 157.495 77.8971 157.81 76.8125C158.129 75.7233 158.37 73.9756 158.534 71.5693H162.444V79ZM164.823 79H163.969L166.211 75.7939C165.527 75.6663 165.033 75.4294 164.728 75.083C164.427 74.7367 164.276 74.2923 164.276 73.75C164.276 73.0755 164.502 72.5446 164.953 72.1572C165.409 71.7653 166.02 71.5693 166.785 71.5693H169.848V79H169.178V75.876H166.908L164.823 79ZM164.987 73.7227C164.987 74.2331 165.151 74.6136 165.48 74.8643C165.812 75.1104 166.311 75.2334 166.977 75.2334H169.178V72.2119H166.772C166.206 72.2119 165.767 72.3418 165.452 72.6016C165.142 72.8568 164.987 73.2305 164.987 73.7227ZM181.667 76.4229C181.667 77.2568 181.359 77.9176 180.744 78.4053C180.134 78.8929 179.32 79.1367 178.304 79.1367C177.082 79.1367 176.146 79.0023 175.494 78.7334V78.0361C176.214 78.3415 177.133 78.4941 178.249 78.4941C179.069 78.4941 179.719 78.3073 180.197 77.9336C180.68 77.5553 180.922 77.0609 180.922 76.4502C180.922 76.0719 180.842 75.7598 180.683 75.5137C180.523 75.263 180.263 75.0352 179.903 74.8301C179.543 74.625 179.015 74.404 178.317 74.167C177.297 73.8161 176.59 73.4378 176.198 73.0322C175.811 72.6221 175.617 72.0775 175.617 71.3984C175.617 70.651 175.909 70.0426 176.492 69.5732C177.08 69.0993 177.834 68.8623 178.755 68.8623C179.694 68.8623 180.576 69.04 181.4 69.3955L181.148 69.9971C180.318 69.6507 179.525 69.4775 178.769 69.4775C178.03 69.4775 177.442 69.6484 177.005 69.9902C176.567 70.332 176.349 70.7969 176.349 71.3848C176.349 71.7539 176.415 72.057 176.547 72.2939C176.684 72.5309 176.905 72.7451 177.21 72.9365C177.515 73.1234 178.039 73.349 178.782 73.6133C179.562 73.8822 180.147 74.1442 180.539 74.3994C180.931 74.6501 181.216 74.9372 181.394 75.2607C181.576 75.5798 181.667 75.9671 181.667 76.4229ZM189.241 79H183.779V69.0059H189.241V69.6484H184.477V73.4287H188.975V74.0713H184.477V78.3574H189.241V79ZM199.905 73.9893C199.905 75.5752 199.509 76.8307 198.716 77.7559C197.923 78.6764 196.829 79.1367 195.435 79.1367C194.045 79.1367 192.953 78.6764 192.16 77.7559C191.367 76.8307 190.971 75.5706 190.971 73.9756C190.971 72.3851 191.37 71.1341 192.167 70.2227C192.969 69.3066 194.063 68.8486 195.448 68.8486C196.843 68.8486 197.934 69.3089 198.723 70.2295C199.511 71.1455 199.905 72.3988 199.905 73.9893ZM191.73 73.9893C191.73 75.4202 192.049 76.5277 192.687 77.3115C193.325 78.0908 194.241 78.4805 195.435 78.4805C196.638 78.4805 197.556 78.0931 198.19 77.3184C198.828 76.5436 199.147 75.4339 199.147 73.9893C199.147 72.5492 198.828 71.4463 198.19 70.6807C197.556 69.9105 196.642 69.5254 195.448 69.5254C194.259 69.5254 193.341 69.9128 192.693 70.6875C192.051 71.4622 191.73 72.5628 191.73 73.9893ZM201.423 75.5V74.9395H204.67V75.5H201.423ZM207.227 79H206.55V71.5693H212.477V79H211.8V72.2119H207.227V79ZM218.15 79.1367C217.007 79.1367 216.173 78.7083 215.649 77.8516H215.601L215.621 78.4258C215.639 78.763 215.649 79.1322 215.649 79.5332V82.3633H214.972V71.5693H215.546L215.676 72.6289H215.717C216.227 71.8268 217.043 71.4258 218.164 71.4258C219.167 71.4258 219.93 71.7562 220.454 72.417C220.983 73.0732 221.247 74.0303 221.247 75.2881C221.247 76.5094 220.969 77.4574 220.413 78.1318C219.862 78.8018 219.107 79.1367 218.15 79.1367ZM218.137 78.5352C218.898 78.5352 219.486 78.2526 219.9 77.6875C220.32 77.1224 220.529 76.3317 220.529 75.3154C220.529 73.1325 219.741 72.041 218.164 72.041C217.298 72.041 216.663 72.2803 216.257 72.7588C215.851 73.2327 215.649 74.0075 215.649 75.083V75.3018C215.649 76.4639 215.842 77.2933 216.23 77.79C216.621 78.2868 217.257 78.5352 218.137 78.5352ZM229.457 75.2744C229.457 76.4867 229.163 77.4346 228.575 78.1182C227.987 78.7972 227.176 79.1367 226.142 79.1367C225.49 79.1367 224.916 78.9795 224.419 78.665C223.922 78.3506 223.542 77.8994 223.277 77.3115C223.013 76.7236 222.881 76.0446 222.881 75.2744C222.881 74.0622 223.175 73.1188 223.763 72.4443C224.351 71.7653 225.157 71.4258 226.183 71.4258C227.204 71.4258 228.003 71.7699 228.582 72.458C229.165 73.1416 229.457 74.0804 229.457 75.2744ZM223.592 75.2744C223.592 76.2952 223.815 77.0928 224.262 77.667C224.713 78.2367 225.349 78.5215 226.169 78.5215C226.989 78.5215 227.623 78.2367 228.069 77.667C228.521 77.0928 228.746 76.2952 228.746 75.2744C228.746 74.249 228.518 73.4538 228.063 72.8887C227.611 72.3236 226.976 72.041 226.155 72.041C225.335 72.041 224.702 72.3236 224.255 72.8887C223.813 73.4492 223.592 74.2445 223.592 75.2744ZM237.578 81.5225H236.908V79H231.221V81.5225H230.551V78.3574H231.043C231.663 77.487 232.141 76.4775 232.479 75.3291C232.816 74.1807 232.994 72.9274 233.012 71.5693H236.587V78.3574H237.578V81.5225ZM235.91 78.3574V72.1982H233.6C233.49 74.6637 232.893 76.7168 231.809 78.3574H235.91ZM244.858 73.3604C244.858 73.8298 244.742 74.1989 244.51 74.4678C244.277 74.7321 243.899 74.9167 243.375 75.0215V75.0693C243.972 75.1377 244.403 75.3109 244.667 75.5889C244.936 75.8623 245.07 76.2565 245.07 76.7715C245.07 77.487 244.833 78.0384 244.359 78.4258C243.89 78.8086 243.202 79 242.295 79H239.157V71.5693H242.309C243.156 71.5693 243.792 71.722 244.216 72.0273C244.644 72.3327 244.858 72.777 244.858 73.3604ZM244.353 76.7578C244.353 75.8464 243.653 75.3906 242.254 75.3906H239.834V78.3574H242.35C243.685 78.3574 244.353 77.8242 244.353 76.7578ZM244.141 73.415C244.141 72.9821 243.986 72.6745 243.676 72.4922C243.366 72.3053 242.901 72.2119 242.281 72.2119H239.834V74.7549H242.199C242.892 74.7549 243.389 74.6478 243.69 74.4336C243.99 74.2194 244.141 73.8799 244.141 73.415ZM247.73 71.5693V76.9424L247.689 78.3438L252.098 71.5693H253V79H252.351V73.6611L252.378 72.2256L247.969 79H247.087V71.5693H247.73ZM258.565 71.5693H259.248V75.1787L262.44 71.5693H263.268L260.048 75.1787L263.521 79H262.652L259.248 75.2334V79H258.565V75.2334L255.16 79H254.292L257.751 75.2061L254.545 71.5693H255.372L258.565 75.1787V71.5693ZM267.807 79.1367C266.727 79.1367 265.884 78.804 265.277 78.1387C264.676 77.4733 264.375 76.5413 264.375 75.3428C264.375 74.1579 264.667 73.21 265.25 72.499C265.833 71.7835 266.62 71.4258 267.608 71.4258C268.483 71.4258 269.174 71.7311 269.68 72.3418C270.186 72.9525 270.439 73.7819 270.439 74.8301V75.377H265.086C265.095 76.3978 265.332 77.1771 265.797 77.7148C266.266 78.2526 266.936 78.5215 267.807 78.5215C268.231 78.5215 268.602 78.4919 268.921 78.4326C269.245 78.3734 269.652 78.2458 270.145 78.0498V78.665C269.725 78.8473 269.338 78.9704 268.982 79.0342C268.627 79.1025 268.235 79.1367 267.807 79.1367ZM267.608 72.0273C266.893 72.0273 266.319 72.2643 265.886 72.7383C265.453 73.2077 265.2 73.8867 265.127 74.7754H269.721C269.721 73.9141 269.534 73.2419 269.16 72.7588C268.787 72.2712 268.269 72.0273 267.608 72.0273ZM273.166 71.5693V74.8301H277.883V71.5693H278.553V79H277.883V75.418H273.166V79H272.489V71.5693H273.166ZM281.69 71.5693V76.9424L281.649 78.3438L286.059 71.5693H286.961V79H286.312V73.6611L286.339 72.2256L281.93 79H281.048V71.5693H281.69ZM289.347 79H288.492L290.734 75.7939C290.051 75.6663 289.556 75.4294 289.251 75.083C288.95 74.7367 288.8 74.2923 288.8 73.75C288.8 73.0755 289.025 72.5446 289.477 72.1572C289.932 71.7653 290.543 71.5693 291.309 71.5693H294.371V79H293.701V75.876H291.432L289.347 79ZM289.511 73.7227C289.511 74.2331 289.675 74.6136 290.003 74.8643C290.336 75.1104 290.835 75.2334 291.5 75.2334H293.701V72.2119H291.295C290.73 72.2119 290.29 72.3418 289.976 72.6016C289.666 72.8568 289.511 73.2305 289.511 73.7227ZM296.73 78.4668C296.73 78.0202 296.912 77.7969 297.276 77.7969C297.65 77.7969 297.837 78.0202 297.837 78.4668C297.837 78.9134 297.65 79.1367 297.276 79.1367C296.912 79.1367 296.73 78.9134 296.73 78.4668Z" fill="black"/>
</svg>
