<svg width="155" height="40" viewBox="0 0 155 40" fill="none" xmlns="http://www.w3.org/2000/svg">
<path d="M42.8953 11.0914C42.8953 10.2655 42.655 9.43953 42.1744 8.61357C42.0543 8.37758 41.9341 8.14159 42.0543 7.9056C42.1744 7.31563 42.0543 6.72566 41.9341 6.13569C41.6938 4.83776 40.9729 3.89381 40.0116 2.94985C39.0504 2.12389 37.969 1.53392 36.7674 1.06195C35.686 0.707965 34.4845 0.353982 33.2829 0.235988C32.4419 0.117994 31.6008 0 30.7597 0H30.6395C29.3178 0 27.9961 0 26.7946 0H26.6744C25.8333 0 24.9922 0.117994 24.2713 0.117994C21.9884 0.353982 19.8256 0.825959 17.6628 1.53392C15.7403 2.12389 13.938 2.83186 12.2558 3.77581C10.4535 4.71976 8.65116 5.78171 7.32946 7.43363C6.36822 8.25959 5.76744 9.08555 5.40698 10.0295C4.56589 11.9174 4.68605 13.8053 5.28682 15.6932C5.76744 17.2271 6.48837 18.5251 7.32946 19.823C7.56977 20.295 7.93023 20.649 8.2907 21.1209C8.41085 21.2389 8.41085 21.3569 8.17054 21.3569H8.05039C5.8876 22.1829 3.84496 23.1268 2.04264 24.6608C0.96124 25.6047 0.120155 26.6667 0 28.0826C0 28.5546 0 29.0265 0 29.4985C0 30.0885 0.120155 30.5605 0.48062 31.0324C0.841085 31.5044 0.841085 32.0944 0.841085 32.6844C0.841085 33.7463 1.0814 34.6903 1.68217 35.6342C2.4031 36.8142 3.4845 37.6401 4.68605 38.2301C6.60853 39.174 8.65116 39.646 10.814 39.882C11.2946 39.882 11.7752 39.882 12.2558 40C13.6977 40 15.1395 40 16.5814 40C16.5814 40 16.5814 40 16.7016 40C17.1822 40 17.6628 39.882 18.1434 39.882C18.7442 39.882 19.4651 39.764 20.0659 39.646C21.3876 39.41 22.7093 39.174 24.031 38.8201C26.0736 38.2301 27.9961 37.5221 29.9186 36.6962C30.7597 36.3422 31.6008 35.8702 32.3217 35.3982C33.5233 34.6903 34.7248 33.8643 35.686 32.8024C36.407 31.9764 37.0078 31.1504 37.4884 30.2065C37.8488 29.3805 38.0891 28.5546 38.0891 27.6106C38.0891 27.0206 38.0891 26.4307 37.969 25.8407C37.8488 24.7788 37.4884 23.7168 37.0078 22.7729C36.2868 21.3569 35.4457 20.059 34.4845 18.7611C34.4845 18.7611 34.6047 18.7611 34.6047 18.6431C35.8062 18.2891 37.0078 17.8171 38.0891 17.2271C39.4109 16.5192 40.7326 15.6932 41.6938 14.5133C42.2946 13.4513 42.8953 12.3894 42.8953 11.0914ZM41.3333 8.61357C41.093 9.55752 40.6124 10.2655 40.0116 10.9735C39.6512 11.4454 39.1705 11.9174 38.8101 12.2714C37.8488 13.0973 36.8876 13.8053 35.8062 14.5133C34.845 15.1032 33.7636 15.6932 32.6822 16.1652C32.562 16.2832 32.3217 16.2832 32.2015 16.4012C32.0814 16.4012 32.0814 16.4012 31.9612 16.4012C31.2403 15.5752 30.3992 14.9852 29.5581 14.2773C28.3566 13.3333 27.0349 12.3894 25.7132 11.5634C25.2326 11.2094 24.6318 10.9735 24.1512 10.6195C23.7907 10.3835 23.9109 10.3835 23.5504 10.7375C23.4302 10.8555 23.4302 10.8555 23.5504 10.9735C24.3915 11.5634 25.1124 12.2714 25.8333 12.8614C26.314 13.3333 26.9147 13.8053 27.3953 14.2773C28.2364 15.1032 29.0775 16.0472 29.7985 16.9911C30.7597 18.1711 31.6008 19.351 32.3217 20.531C32.9225 21.4749 33.4031 22.4189 33.7636 23.4808C34.0039 24.1888 34.3643 24.7788 34.4845 25.4867C34.6047 26.0767 34.7248 26.7847 34.845 27.3746C34.845 28.3186 34.7248 29.1445 34.4845 30.0885C34.2442 30.9145 33.7636 31.5044 33.1628 32.2124C32.2015 33.2743 31 34.1003 29.6783 34.6903C28.2364 35.3982 26.7946 35.8702 25.3527 36.1062C24.5116 36.3422 23.5504 36.4602 22.7093 36.5782C22.3488 36.6962 21.8682 36.6962 21.5078 36.6962C20.6667 36.8142 19.7054 36.8142 18.8643 36.9322C18.0233 36.9322 17.062 36.9322 16.2209 36.9322C15.6202 36.9322 15.1395 36.9322 14.5388 36.8142C13.8178 36.6962 13.2171 36.6962 12.4961 36.5782C11.655 36.4602 10.814 36.2242 9.97287 36.1062C8.89147 35.8702 7.81008 35.5162 6.72868 35.0442C5.76744 34.5723 4.8062 34.1003 3.96512 33.5103C3.24419 33.0383 2.52326 32.4484 1.92248 31.8584C1.56202 31.5044 1.56202 31.0324 1.80233 30.6785C2.16279 29.8525 2.64341 29.1445 3.24419 28.4366C4.32558 27.1386 5.64729 26.1947 7.08915 25.2507C8.17054 24.5428 9.37209 23.9528 10.5736 23.3628C10.6938 23.3628 10.6938 23.3628 10.814 23.3628C12.1357 24.6608 13.5775 25.8407 15.1395 26.9027C16.3411 27.7286 17.6628 28.5546 18.8643 29.2625H18.9845C19.345 28.7906 19.2248 28.7906 18.8643 28.5546C18.5039 28.2006 18.0233 27.9646 17.6628 27.6106C16.9419 27.0206 16.2209 26.4307 15.6202 25.7227C14.6589 24.7788 13.8178 23.7168 12.9767 22.7729C11.8953 21.3569 10.9341 19.941 10.093 18.4071C9.25194 16.9911 8.65116 15.4572 8.17054 13.8053C7.93023 12.9794 7.81008 12.1534 7.93023 11.3274C7.93023 10.1475 8.53101 8.84956 9.49225 7.66962C10.3333 6.72566 11.2946 6.0177 12.376 5.42773C14.1783 4.48378 16.1008 3.89381 18.0233 3.53982C18.8643 3.30383 19.7054 3.18584 20.5465 3.18584C21.3876 3.06785 22.2287 2.94985 23.0698 2.94985C23.9109 2.94985 24.7519 2.83186 25.7132 2.83186C26.7946 2.83186 27.7558 2.94985 28.8372 2.94985C30.8798 3.18584 32.9225 3.53982 34.9651 4.24779C36.6473 4.83776 38.3295 5.66372 39.7713 6.72566C40.3721 7.19764 40.8527 7.66962 41.3333 8.25959C41.3333 8.37758 41.3333 8.49557 41.3333 8.61357Z" fill="#188BFA"/>
<path d="M155.001 15.4573C154.881 15.3393 155.001 15.1033 155.001 14.8673C155.001 15.1033 155.001 15.2213 155.001 15.4573Z" fill="#ACACAE"/>
<path d="M49.023 29.2625C48.5424 29.2625 47.8215 29.1445 47.1006 28.9085C46.6199 28.6725 46.2595 28.4366 46.1393 27.8466C46.1393 27.4926 46.1393 27.4926 46.3796 27.6106C47.3409 27.8466 48.3021 28.2006 49.3835 28.2006C49.8641 28.2006 50.3447 28.0826 50.8254 27.8466C52.1471 27.2566 52.1471 25.4867 51.306 24.6608C50.9455 24.3068 50.3447 23.9528 49.8641 23.5988C49.023 23.0088 48.0618 22.5369 47.2207 21.9469C46.4998 21.3569 46.0192 20.7669 45.899 19.823C45.7788 18.6431 46.2595 17.6991 47.2207 16.9911C48.5424 16.1652 49.8641 16.0472 51.306 16.4012C51.5463 16.5192 51.7866 16.6372 52.0269 16.7551C52.2672 16.8731 52.3874 17.1091 52.5075 17.3451C52.6277 17.5811 52.6277 17.6991 52.5075 17.8171C52.3874 17.9351 52.2672 17.8171 52.1471 17.6991C51.0657 17.3451 49.8641 17.2271 48.6626 17.5811C48.3021 17.6991 47.9416 17.8171 47.5812 18.1711C46.9804 18.761 46.9804 19.469 47.3409 20.059C47.5812 20.531 48.0618 20.8849 48.5424 21.1209C49.3835 21.7109 50.3447 22.1829 51.1858 22.7728C51.5463 23.0088 51.9068 23.3628 52.2672 23.7168C53.8292 25.3687 53.1083 27.9646 51.0657 28.7905C50.7052 29.1445 49.9843 29.2625 49.023 29.2625Z" fill="#555559"/>
<path d="M58.7559 22.7727C58.7559 21.1208 58.7559 19.4688 58.7559 17.8169C58.7559 16.991 59.3566 16.401 60.1977 16.401C61.3993 16.401 62.6008 16.401 63.6822 16.401C64.0427 16.401 64.4031 16.519 64.7636 16.637C65.0039 16.755 65.1241 16.873 65.2442 16.991C65.3644 17.109 65.4845 17.345 65.4845 17.4629C65.4845 17.5809 65.2442 17.4629 65.0039 17.4629C63.4419 17.4629 62 17.4629 60.438 17.4629C60.0776 17.4629 59.9574 17.5809 59.9574 17.9349C59.9574 19.1149 59.9574 20.4128 59.9574 21.5927C59.9574 21.8287 60.0776 21.8287 60.1977 21.8287C61.2791 21.8287 62.2404 21.8287 63.3217 21.8287C63.5621 21.8287 63.6822 21.9467 63.5621 22.0647C63.5621 22.3007 63.5621 22.4187 63.5621 22.6547C63.5621 22.8907 63.4419 23.0087 63.2016 23.0087C62.2404 23.0087 61.159 23.0087 60.1977 23.0087C59.9574 23.0087 59.9574 23.1267 59.9574 23.2447C59.9574 24.6606 59.9574 25.9585 59.9574 27.3745C59.9574 27.8464 60.0776 27.9644 60.5582 27.9644C62.1202 27.9644 63.6822 27.9644 65.2442 27.9644C65.4845 27.9644 65.6047 27.9644 65.4845 28.2004C65.3644 28.5544 65.1241 28.6724 64.7636 28.7904C64.4031 28.9084 64.0427 29.0264 63.6822 29.0264C62.4807 29.0264 61.2791 29.0264 60.1977 29.0264C59.3566 29.0264 58.7559 28.4364 58.7559 27.6104C58.7559 26.0765 58.7559 24.4246 58.7559 22.7727Z" fill="#555559"/>
<path d="M130.609 22.7727C130.609 21.1208 130.609 19.4688 130.609 17.8169C130.609 17.5809 130.609 17.4629 130.248 17.4629C128.927 17.4629 127.605 17.4629 126.163 17.4629C125.923 17.4629 125.923 17.345 126.043 17.227C126.283 16.637 126.884 16.401 127.485 16.401C127.605 16.401 127.845 16.401 127.965 16.401C130.128 16.401 132.291 16.401 134.454 16.401C134.934 16.401 135.295 16.519 135.655 16.637C135.896 16.755 136.136 16.991 136.256 17.227C136.376 17.4629 136.376 17.4629 136.136 17.4629C135.054 17.4629 133.853 17.4629 132.771 17.4629C132.531 17.4629 132.411 17.4629 132.171 17.4629C132.051 17.4629 131.93 17.4629 132.051 17.5809C132.051 17.6989 132.051 17.6989 132.051 17.8169C132.051 21.4747 132.051 25.1326 132.051 28.6724C132.051 29.0264 132.051 29.0264 131.69 28.9084C131.089 28.6724 130.729 28.2004 130.729 27.4924C130.609 26.0765 130.609 24.4246 130.609 22.7727Z" fill="#555559"/>
<path d="M144.426 21.9469C145.147 20.885 145.868 19.941 146.589 18.8791C147.19 18.0531 147.79 17.3451 148.271 16.5192C148.391 16.2832 148.511 16.4012 148.631 16.5192C148.992 16.9912 149.112 17.6991 148.752 18.1711C147.67 19.823 146.469 21.3569 145.267 23.0089C145.147 23.2448 145.027 23.3628 145.027 23.5988C145.027 25.3687 145.027 27.1387 145.027 28.7906C145.027 29.1446 145.027 29.1445 144.666 29.0266C144.066 28.7906 143.705 28.3186 143.705 27.7286C143.705 26.3127 143.705 24.8968 143.705 23.5988C143.705 23.3628 143.705 23.2448 143.585 23.1269C142.383 21.4749 141.302 19.941 140.1 18.2891C139.74 17.6991 139.74 17.1092 140.1 16.5192C140.221 16.4012 140.341 16.4012 140.461 16.5192C141.662 18.1711 142.744 19.705 143.945 21.3569C144.066 21.5929 144.186 21.7109 144.426 21.9469Z" fill="#555559"/>
<path d="M115.469 27.9644C115.469 28.4364 115.229 28.6724 114.868 28.7904C114.508 29.0264 114.147 29.0264 113.787 29.0264C112.585 29.0264 111.384 29.0264 110.182 29.0264C109.461 29.0264 108.86 28.4364 108.86 27.7284C108.86 24.4246 108.86 21.0028 108.86 17.6989C108.86 17.109 109.341 16.519 109.942 16.401C110.062 16.401 110.182 16.401 110.182 16.519C110.182 16.637 110.182 16.637 110.182 16.755C110.182 20.2948 110.182 23.9526 110.182 27.4924C110.182 27.9644 110.302 27.9644 110.663 27.9644C112.225 27.9644 113.667 27.9644 115.229 27.9644C115.349 27.9644 115.349 27.9644 115.469 27.9644Z" fill="#555559"/>
<path d="M102.011 22.7728C102.011 24.7787 102.011 26.7846 102.011 28.9084C102.011 29.1444 101.891 29.1444 101.771 29.1444C101.17 28.9084 100.689 28.4365 100.689 27.7285C100.689 24.4247 100.689 21.1208 100.689 17.935C100.689 17.227 101.05 16.7551 101.771 16.5191C102.011 16.4011 102.011 16.5191 102.011 16.7551C102.011 18.643 102.011 20.7669 102.011 22.7728Z" fill="#555559"/>
<path d="M121.237 22.7728C121.237 24.7787 121.237 26.7846 121.237 28.9085C121.237 29.1445 121.117 29.1445 120.996 29.1445C120.396 28.9085 119.915 28.4365 119.915 27.8465C119.915 24.5427 119.915 21.2389 119.915 17.935C119.915 17.2271 120.276 16.7551 120.996 16.6371C121.237 16.5191 121.237 16.6371 121.237 16.8731C121.237 18.643 121.237 20.7669 121.237 22.7728Z" fill="#555559"/>
<path d="M154.88 14.8672C154.76 13.9232 153.919 13.3332 152.837 13.4512C151.876 13.5692 151.155 14.2772 151.155 15.2212C151.155 16.1651 151.756 16.7551 152.717 16.8731C153.679 16.9911 154.52 16.5191 154.76 15.6931C154.88 15.5751 155 15.1032 154.88 14.8672ZM153.078 16.6371C152.117 16.6371 151.516 15.9291 151.516 15.1032C151.516 14.2772 152.237 13.5692 153.198 13.5692C154.159 13.5692 154.76 14.1592 154.76 15.1032C154.64 16.0471 154.039 16.6371 153.078 16.6371Z" fill="#555559"/>
<path d="M94.3217 23.7168C93.9613 23.1268 93.6008 22.7729 93 22.4189C93.1202 22.4189 93.1202 22.3009 93.1202 22.3009C94.2016 21.3569 94.562 19.941 94.0814 18.6431C93.6008 17.3451 92.2791 16.5192 90.9574 16.5192C89.9961 16.5192 89.1551 16.5192 88.1938 16.5192C87.3527 16.5192 86.752 17.1091 86.752 17.9351C86.752 21.2389 86.752 24.5428 86.752 27.8466C86.752 28.6726 87.3527 29.2625 88.1938 29.2625C89.1551 29.2625 90.2365 29.2625 91.1977 29.2625C93.8411 29.1445 95.6434 26.0767 94.3217 23.7168ZM87.8334 19.823C87.8334 19.233 87.8334 18.6431 87.8334 18.0531C87.8334 17.6991 87.9535 17.5811 88.314 17.5811C89.1551 17.5811 89.9961 17.5811 90.7171 17.5811C91.6783 17.5811 92.5194 18.1711 92.8799 19.115C93.1202 19.941 92.8799 21.0029 92.0388 21.5929C91.6783 21.8289 91.3178 21.9469 90.9574 21.9469C89.9961 21.9469 89.0349 21.9469 88.0737 21.9469C87.9535 21.9469 87.8334 21.9469 87.8334 21.7109C87.8334 21.0029 87.8334 20.413 87.8334 19.823ZM93.6008 25.6047C93.4806 26.9026 92.3992 27.9646 91.0775 27.9646C90.2364 27.9646 89.2752 27.9646 88.4341 27.9646C88.0737 27.9646 87.9535 27.8466 87.9535 27.4926C87.9535 26.7847 87.9535 26.0767 87.9535 25.3687C87.9535 24.6608 87.9535 23.9528 87.9535 23.2448C87.9535 23.1268 87.9535 23.0088 88.0737 23.0088C89.1551 23.0088 90.2365 22.8908 91.3178 23.0088C92.6396 23.2448 93.6008 24.3068 93.6008 25.6047Z" fill="#555559"/>
<path d="M79.9028 18.171C77.9803 16.0472 74.9764 15.5752 72.5733 16.8731C70.2904 18.171 69.3291 20.1769 69.209 22.0648C69.209 23.9528 69.5694 25.1327 70.1702 26.3126C72.0927 29.3805 76.178 30.2064 78.9415 27.9646C82.0656 25.7227 82.426 21.0029 79.9028 18.171ZM78.1005 27.2566C76.178 28.6725 73.5346 28.3185 71.9725 26.5486C69.9299 24.3067 70.0501 20.7669 72.333 18.643C74.3756 16.7551 77.4997 16.9911 79.302 19.233C80.0229 20.1769 80.5036 21.4749 80.5036 23.2448C80.2632 24.5427 79.6625 26.1946 78.1005 27.2566Z" fill="#555559"/>
<path d="M153.198 15.2211C153.318 15.2211 153.318 15.2211 153.318 15.2211C153.678 15.2211 153.798 14.9851 153.798 14.6311C153.798 14.2771 153.558 14.0411 153.198 14.0411C152.957 14.0411 152.837 14.0411 152.597 14.0411C152.477 14.0411 152.356 14.0411 152.356 14.1591C152.356 14.7491 152.356 15.2211 152.356 15.811C152.356 15.929 152.356 15.929 152.477 15.929C152.597 15.929 152.597 15.811 152.597 15.811C152.597 15.5751 152.597 15.3391 152.597 15.1031C152.837 15.3391 153.077 15.5751 153.318 15.811C153.438 15.929 153.558 16.047 153.798 15.929C153.678 15.811 153.438 15.5751 153.198 15.2211ZM152.837 14.9851C152.597 14.9851 152.717 14.7491 152.717 14.6311C152.717 14.6311 152.597 14.2771 152.837 14.2771C153.198 14.1591 153.438 14.2771 153.558 14.5131C153.558 14.7491 153.558 14.8671 153.318 14.8671C153.198 14.9851 153.077 14.9851 152.837 14.9851Z" fill="#56565A"/>
</svg>
