<svg width="53" height="15" viewBox="0 0 53 15" fill="none" xmlns="http://www.w3.org/2000/svg">
<path d="M9.79248 0.291992L6.48193 7.86523C6.06689 8.81738 5.67627 9.50098 5.31006 9.91602C4.94873 10.3311 4.51904 10.6411 4.021 10.8462C3.52295 11.0464 2.91748 11.1465 2.20459 11.1465C1.59424 11.1465 1.02539 11.0732 0.498047 10.9268V8.97852C0.927734 9.1543 1.4624 9.24219 2.10205 9.24219C2.50732 9.24219 2.83447 9.14941 3.0835 8.96387C3.33252 8.77344 3.54004 8.44629 3.70605 7.98242L0 0.291992H2.40234L5.03906 6.26123H5.1123L5.24414 5.89502L7.45605 0.291992H9.79248ZM14.2969 11.1465C11.748 11.1465 10.4736 9.74756 10.4736 6.94971C10.4736 5.55811 10.8203 4.49609 11.5137 3.76367C12.207 3.02637 13.2007 2.65771 14.4946 2.65771C15.4419 2.65771 16.2915 2.84326 17.0435 3.21436L16.3843 4.94287C16.0327 4.80127 15.7056 4.68652 15.4028 4.59863C15.1001 4.50586 14.7974 4.45947 14.4946 4.45947C13.3325 4.45947 12.7515 5.28467 12.7515 6.93506C12.7515 8.53662 13.3325 9.3374 14.4946 9.3374C14.9243 9.3374 15.3223 9.28125 15.6885 9.16895C16.0547 9.05176 16.4209 8.87109 16.7871 8.62695V10.5386C16.4258 10.7681 16.0596 10.9268 15.6885 11.0146C15.3223 11.1025 14.8584 11.1465 14.2969 11.1465ZM26.0229 11H23.7891V4.48877H21.731C21.5747 6.31982 21.3843 7.68701 21.1597 8.59033C20.9351 9.48877 20.6348 10.1406 20.2588 10.5459C19.8877 10.9463 19.3994 11.1465 18.7939 11.1465C18.2764 11.1465 17.8516 11.0684 17.5195 10.9121V9.125C17.7588 9.22266 17.998 9.27148 18.2373 9.27148C18.5156 9.27148 18.7476 9.07129 18.9331 8.6709C19.1235 8.27051 19.292 7.604 19.4385 6.67139C19.5898 5.73389 19.7192 4.44727 19.8267 2.81152H26.0229V11ZM27.2021 2.81152H29.6484L31.1938 7.41846C31.3257 7.81885 31.416 8.29248 31.4648 8.83936H31.5088C31.5625 8.33643 31.6675 7.86279 31.8237 7.41846L33.3398 2.81152H35.7349L32.2705 12.0474C31.9531 12.9019 31.499 13.5415 30.9082 13.9663C30.3223 14.3911 29.6362 14.6035 28.8501 14.6035C28.4644 14.6035 28.0859 14.562 27.7148 14.479V12.7065C27.9834 12.77 28.2764 12.8018 28.5938 12.8018C28.9893 12.8018 29.3335 12.6797 29.6265 12.4355C29.9243 12.1963 30.1562 11.8325 30.3223 11.3442L30.4541 10.9414L27.2021 2.81152ZM42.5684 2.81152V4.48877H39.1479V11H36.9141V2.81152H42.5684ZM46.2524 2.81152V6.04883C46.2524 6.39062 46.1963 7.22559 46.084 8.55371L49.8633 2.81152H52.5513V11H50.3906V7.7334C50.3906 7.15234 50.4395 6.33203 50.5371 5.27246L46.7725 11H44.0918V2.81152H46.2524Z" fill="black"/>
</svg>
