<svg width="145" height="15" viewBox="0 0 145 15" fill="none" xmlns="http://www.w3.org/2000/svg">
<path d="M0.486816 0.291992H1.65137V6.24658C1.65137 7.34521 1.61719 8.33887 1.54883 9.22754H1.60742L7.61328 0.291992H8.97559V11H7.80371V5.104C7.80371 4.12256 7.84521 3.09229 7.92822 2.01318H7.8623L1.84912 11H0.486816V0.291992ZM12.9453 2.97266V6.33447H17.4424V2.97266H18.6582V11H17.4424V7.38184H12.9453V11H11.7295V2.97266H12.9453ZM26.6489 4.0127H24.0415V11H22.8257V4.0127H20.2476V2.97266H26.6489V4.0127ZM31.6294 11.1465C30.4429 11.1465 29.5054 10.7852 28.8169 10.0625C28.1333 9.33984 27.7915 8.33643 27.7915 7.05225C27.7915 5.7583 28.1089 4.73047 28.7437 3.96875C29.3833 3.20703 30.2402 2.82617 31.3145 2.82617C32.3203 2.82617 33.1162 3.1582 33.7021 3.82227C34.2881 4.48145 34.5811 5.35303 34.5811 6.43701V7.20605H29.0513C29.0757 8.14844 29.3125 8.86377 29.7617 9.35205C30.2158 9.84033 30.853 10.0845 31.6733 10.0845C32.5376 10.0845 33.3921 9.90381 34.2368 9.54248V10.6265C33.8071 10.812 33.3994 10.9438 33.0137 11.022C32.6328 11.105 32.1714 11.1465 31.6294 11.1465ZM31.2998 3.84424C30.6553 3.84424 30.1401 4.0542 29.7544 4.47412C29.3735 4.89404 29.1489 5.4751 29.0806 6.21729H33.2773C33.2773 5.45068 33.1064 4.86475 32.7646 4.45947C32.4229 4.04932 31.9346 3.84424 31.2998 3.84424ZM40.3965 11.1465C39.874 11.1465 39.3955 11.0513 38.9609 10.8608C38.5312 10.6655 38.1699 10.3677 37.877 9.96729H37.7891C37.8477 10.436 37.877 10.8804 37.877 11.3003V14.6035H36.6611V2.97266H37.6499L37.8184 4.07129H37.877C38.1895 3.63184 38.5532 3.31445 38.9683 3.11914C39.3833 2.92383 39.8594 2.82617 40.3965 2.82617C41.4609 2.82617 42.2812 3.18994 42.8574 3.91748C43.4385 4.64502 43.729 5.66553 43.729 6.979C43.729 8.29736 43.4336 9.32275 42.8428 10.0552C42.2568 10.7827 41.4414 11.1465 40.3965 11.1465ZM40.2207 3.85889C39.4004 3.85889 38.8071 4.08594 38.4409 4.54004C38.0747 4.99414 37.8867 5.7168 37.877 6.70801V6.979C37.877 8.10693 38.0649 8.91504 38.4409 9.40332C38.8169 9.88672 39.4199 10.1284 40.25 10.1284C40.9434 10.1284 41.4854 9.84766 41.876 9.28613C42.2715 8.72461 42.4692 7.95068 42.4692 6.96436C42.4692 5.96338 42.2715 5.19678 41.876 4.66455C41.4854 4.12744 40.9336 3.85889 40.2207 3.85889ZM47.0762 2.97266V6.33447H51.5732V2.97266H52.7891V11H51.5732V7.38184H47.0762V11H45.8604V2.97266H47.0762ZM58.7583 11.1465C57.5718 11.1465 56.6343 10.7852 55.9458 10.0625C55.2622 9.33984 54.9204 8.33643 54.9204 7.05225C54.9204 5.7583 55.2378 4.73047 55.8726 3.96875C56.5122 3.20703 57.3691 2.82617 58.4434 2.82617C59.4492 2.82617 60.2451 3.1582 60.8311 3.82227C61.417 4.48145 61.71 5.35303 61.71 6.43701V7.20605H56.1802C56.2046 8.14844 56.4414 8.86377 56.8906 9.35205C57.3447 9.84033 57.9819 10.0845 58.8022 10.0845C59.6665 10.0845 60.521 9.90381 61.3657 9.54248V10.6265C60.936 10.812 60.5283 10.9438 60.1426 11.022C59.7617 11.105 59.3003 11.1465 58.7583 11.1465ZM58.4287 3.84424C57.7842 3.84424 57.269 4.0542 56.8833 4.47412C56.5024 4.89404 56.2778 5.4751 56.2095 6.21729H60.4062C60.4062 5.45068 60.2354 4.86475 59.8936 4.45947C59.5518 4.04932 59.0635 3.84424 58.4287 3.84424ZM69.2026 4.0127H66.5952V11H65.3794V4.0127H62.8013V2.97266H69.2026V4.0127ZM78.856 9.82812L79.083 9.14697L79.3979 8.28271L81.5732 2.9873H83.1187V11H82.042V4.37158L81.8955 4.79639L81.4707 5.91699L79.3979 11H78.3799L76.3071 5.90234C76.0483 5.24805 75.8701 4.73779 75.7725 4.37158V11H74.6885V2.9873H76.1753L78.2773 8.07764C78.4873 8.61475 78.6802 9.19824 78.856 9.82812ZM90.6553 11L90.4136 9.85742H90.355C89.9546 10.3604 89.5542 10.7021 89.1538 10.8828C88.7583 11.0586 88.2627 11.1465 87.667 11.1465C86.8711 11.1465 86.2461 10.9414 85.792 10.5312C85.3428 10.1211 85.1182 9.5376 85.1182 8.78076C85.1182 7.15967 86.4146 6.31006 89.0073 6.23193L90.3696 6.18799V5.68994C90.3696 5.06006 90.2329 4.59619 89.9595 4.29834C89.6909 3.99561 89.2588 3.84424 88.6631 3.84424C87.9941 3.84424 87.2373 4.04932 86.3926 4.45947L86.019 3.5293C86.4146 3.31445 86.8467 3.146 87.3154 3.02393C87.7891 2.90186 88.2627 2.84082 88.7363 2.84082C89.6934 2.84082 90.4014 3.05322 90.8604 3.47803C91.3242 3.90283 91.5562 4.58398 91.5562 5.52148V11H90.6553ZM87.9087 10.1431C88.6655 10.1431 89.2588 9.93555 89.6885 9.52051C90.123 9.10547 90.3403 8.52441 90.3403 7.77734V7.05225L89.1245 7.10352C88.1577 7.1377 87.4595 7.28906 87.0298 7.55762C86.605 7.82129 86.3926 8.23389 86.3926 8.79541C86.3926 9.23486 86.5244 9.56934 86.7881 9.79883C87.0566 10.0283 87.4302 10.1431 87.9087 10.1431ZM98.9023 4.0127H95.2842V11H94.0684V2.97266H98.9023V4.0127ZM105.436 11L105.194 9.85742H105.135C104.735 10.3604 104.334 10.7021 103.934 10.8828C103.539 11.0586 103.043 11.1465 102.447 11.1465C101.651 11.1465 101.026 10.9414 100.572 10.5312C100.123 10.1211 99.8984 9.5376 99.8984 8.78076C99.8984 7.15967 101.195 6.31006 103.788 6.23193L105.15 6.18799V5.68994C105.15 5.06006 105.013 4.59619 104.74 4.29834C104.471 3.99561 104.039 3.84424 103.443 3.84424C102.774 3.84424 102.018 4.04932 101.173 4.45947L100.799 3.5293C101.195 3.31445 101.627 3.146 102.096 3.02393C102.569 2.90186 103.043 2.84082 103.517 2.84082C104.474 2.84082 105.182 3.05322 105.641 3.47803C106.104 3.90283 106.336 4.58398 106.336 5.52148V11H105.436ZM102.689 10.1431C103.446 10.1431 104.039 9.93555 104.469 9.52051C104.903 9.10547 105.121 8.52441 105.121 7.77734V7.05225L103.905 7.10352C102.938 7.1377 102.24 7.28906 101.81 7.55762C101.385 7.82129 101.173 8.23389 101.173 8.79541C101.173 9.23486 101.305 9.56934 101.568 9.79883C101.837 10.0283 102.21 10.1431 102.689 10.1431ZM110.379 6.30518C111.898 6.30518 112.657 5.88525 112.657 5.04541C112.657 4.25439 112.042 3.85889 110.812 3.85889C110.436 3.85889 110.094 3.89307 109.786 3.96143C109.479 4.02979 109.076 4.1665 108.578 4.37158L108.146 3.38281C108.976 3.01172 109.881 2.82617 110.863 2.82617C111.786 2.82617 112.513 3.0166 113.045 3.39746C113.578 3.77344 113.844 4.28857 113.844 4.94287C113.844 5.84131 113.343 6.42969 112.342 6.70801V6.7666C112.958 6.94727 113.407 7.20605 113.69 7.54297C113.973 7.875 114.115 8.29248 114.115 8.79541C114.115 9.5376 113.814 10.1162 113.214 10.5312C112.618 10.9414 111.793 11.1465 110.738 11.1465C109.581 11.1465 108.688 10.9731 108.058 10.6265V9.51318C108.951 9.93311 109.854 10.1431 110.768 10.1431C111.471 10.1431 112 10.0234 112.357 9.78418C112.718 9.54004 112.899 9.19092 112.899 8.73682C112.899 7.8042 112.14 7.33789 110.621 7.33789H109.508V6.30518H110.379ZM117.242 2.97266V8.06299L117.191 9.396L117.169 9.81348L121.512 2.97266H123.028V11H121.893V6.09277L121.915 5.12598L121.952 4.17383L117.616 11H116.1V2.97266H117.242ZM126.822 2.97266V6.33447H131.319V2.97266H132.535V11H131.319V7.38184H126.822V11H125.606V2.97266H126.822ZM136.329 6.29053H138.519C139.54 6.29053 140.294 6.48096 140.782 6.86182C141.275 7.23779 141.522 7.80176 141.522 8.55371C141.522 9.35938 141.261 9.96973 140.738 10.3848C140.221 10.7949 139.457 11 138.446 11H135.113V2.97266H136.329V6.29053ZM144.085 11H142.87V2.97266H144.085V11ZM136.329 7.33789V9.98193H138.387C139.676 9.98193 140.321 9.53027 140.321 8.62695C140.321 8.17773 140.172 7.85059 139.874 7.64551C139.576 7.44043 139.068 7.33789 138.351 7.33789H136.329Z" fill="#188BFA"/>
</svg>
