<svg width="362" height="15" viewBox="0 0 362 15" fill="none" xmlns="http://www.w3.org/2000/svg">
<path d="M8.04395 11H7.34668V1.66211H1.57715V11H0.879883V1.00586H8.04395V11ZM16.8486 7.27441C16.8486 8.48665 16.5547 9.43457 15.9668 10.1182C15.3789 10.7972 14.5677 11.1367 13.5332 11.1367C12.8815 11.1367 12.3073 10.9795 11.8105 10.665C11.3138 10.3506 10.9333 9.89941 10.6689 9.31152C10.4046 8.72363 10.2725 8.0446 10.2725 7.27441C10.2725 6.06217 10.5664 5.11882 11.1543 4.44434C11.7422 3.7653 12.5488 3.42578 13.5742 3.42578C14.5951 3.42578 15.3949 3.76986 15.9736 4.45801C16.557 5.1416 16.8486 6.0804 16.8486 7.27441ZM10.9834 7.27441C10.9834 8.29525 11.2067 9.09277 11.6533 9.66699C12.1045 10.2367 12.7402 10.5215 13.5605 10.5215C14.3809 10.5215 15.0143 10.2367 15.4609 9.66699C15.9121 9.09277 16.1377 8.29525 16.1377 7.27441C16.1377 6.24902 15.9098 5.45378 15.4541 4.88867C15.0029 4.32357 14.3672 4.04102 13.5469 4.04102C12.7266 4.04102 12.0931 4.32357 11.6465 4.88867C11.2044 5.44922 10.9834 6.24447 10.9834 7.27441ZM19.4531 3.56934V6.05762C19.4531 6.68652 19.6058 7.13997 19.9111 7.41797C20.2165 7.69596 20.6859 7.83496 21.3193 7.83496C21.766 7.83496 22.1921 7.75521 22.5977 7.5957C23.0033 7.4362 23.4248 7.18099 23.8623 6.83008V3.56934H24.5391V11H23.8623V7.47266C23.4066 7.82357 22.9577 8.07422 22.5156 8.22461C22.0781 8.375 21.6042 8.4502 21.0938 8.4502C20.3327 8.4502 19.7562 8.25195 19.3643 7.85547C18.9769 7.45898 18.7832 6.88704 18.7832 6.13965V3.56934H19.4531ZM30.0283 11.1367C28.9482 11.1367 28.1051 10.804 27.499 10.1387C26.8975 9.47331 26.5967 8.54134 26.5967 7.34277C26.5967 6.15788 26.8883 5.20996 27.4717 4.49902C28.055 3.78353 28.8411 3.42578 29.8301 3.42578C30.7051 3.42578 31.3955 3.73112 31.9014 4.3418C32.4072 4.95247 32.6602 5.7819 32.6602 6.83008V7.37695H27.3076C27.3167 8.39779 27.5537 9.17708 28.0186 9.71484C28.488 10.2526 29.1579 10.5215 30.0283 10.5215C30.4521 10.5215 30.8236 10.4919 31.1426 10.4326C31.4661 10.3734 31.874 10.2458 32.3662 10.0498V10.665C31.9469 10.8473 31.5596 10.9704 31.2041 11.0342C30.8486 11.1025 30.4567 11.1367 30.0283 11.1367ZM29.8301 4.02734C29.1146 4.02734 28.5404 4.26432 28.1074 4.73828C27.6745 5.20768 27.4215 5.88672 27.3486 6.77539H31.9424C31.9424 5.91406 31.7555 5.24186 31.3818 4.75879C31.0081 4.27116 30.4909 4.02734 29.8301 4.02734ZM38.1699 10.2754L38.5938 9.0791L40.7334 3.56934H41.6699V11H41.0273V4.38965C40.9271 4.67676 40.82 4.9707 40.7061 5.27148C40.5967 5.57227 39.8538 7.48177 38.4775 11H37.876L35.8184 5.77734C35.7318 5.56771 35.6497 5.34668 35.5723 5.11426C35.4993 4.88184 35.4173 4.63118 35.3262 4.3623V11H34.7109V3.56934H35.6064L37.7529 9.03809C37.9215 9.48014 38.0605 9.89258 38.1699 10.2754ZM42.9141 3.56934H43.6113L45.1836 7.73926C45.6621 9.01986 45.9652 9.88346 46.0928 10.3301H46.1338C46.3252 9.74219 46.6374 8.86491 47.0703 7.69824L48.6426 3.56934H49.3398L46.0107 12.2031C45.7419 12.9049 45.5163 13.3789 45.334 13.625C45.1517 13.8711 44.9375 14.0557 44.6914 14.1787C44.4499 14.3018 44.1559 14.3633 43.8096 14.3633C43.5498 14.3633 43.2604 14.3154 42.9414 14.2197V13.6318C43.2057 13.7048 43.4906 13.7412 43.7959 13.7412C44.0283 13.7412 44.2334 13.6865 44.4111 13.5771C44.5889 13.4678 44.7484 13.2969 44.8896 13.0645C45.0355 12.8366 45.2018 12.472 45.3887 11.9707C45.5801 11.474 45.7031 11.1504 45.7578 11L42.9141 3.56934ZM57.1875 11.1367C56.1257 11.1367 55.2939 10.8018 54.6924 10.1318C54.0908 9.46191 53.79 8.52767 53.79 7.3291C53.79 6.09863 54.1022 5.1416 54.7266 4.45801C55.3509 3.76986 56.2054 3.42578 57.29 3.42578C57.9326 3.42578 58.5479 3.53743 59.1357 3.76074L58.9512 4.3623C58.3086 4.14811 57.7503 4.04102 57.2764 4.04102C56.3649 4.04102 55.6745 4.32357 55.2051 4.88867C54.7357 5.44922 54.501 6.25814 54.501 7.31543C54.501 8.31803 54.7357 9.10417 55.2051 9.67383C55.6745 10.2389 56.3307 10.5215 57.1738 10.5215C57.8483 10.5215 58.4749 10.4007 59.0537 10.1592V10.7881C58.5798 11.0205 57.9577 11.1367 57.1875 11.1367ZM67.0244 7.27441C67.0244 8.48665 66.7305 9.43457 66.1426 10.1182C65.5547 10.7972 64.7435 11.1367 63.709 11.1367C63.0573 11.1367 62.4831 10.9795 61.9863 10.665C61.4896 10.3506 61.109 9.89941 60.8447 9.31152C60.5804 8.72363 60.4482 8.0446 60.4482 7.27441C60.4482 6.06217 60.7422 5.11882 61.3301 4.44434C61.918 3.7653 62.7246 3.42578 63.75 3.42578C64.7708 3.42578 65.5706 3.76986 66.1494 4.45801C66.7327 5.1416 67.0244 6.0804 67.0244 7.27441ZM61.1592 7.27441C61.1592 8.29525 61.3825 9.09277 61.8291 9.66699C62.2803 10.2367 62.916 10.5215 63.7363 10.5215C64.5566 10.5215 65.1901 10.2367 65.6367 9.66699C66.0879 9.09277 66.3135 8.29525 66.3135 7.27441C66.3135 6.24902 66.0856 5.45378 65.6299 4.88867C65.1787 4.32357 64.543 4.04102 63.7227 4.04102C62.9023 4.04102 62.2689 4.32357 61.8223 4.88867C61.3802 5.44922 61.1592 6.24447 61.1592 7.27441ZM70.4834 6.77539C71.8278 6.77539 72.5 6.31283 72.5 5.3877C72.5 4.94564 72.3451 4.6084 72.0352 4.37598C71.7253 4.14355 71.2832 4.02734 70.709 4.02734C70.3444 4.02734 70.0049 4.07064 69.6904 4.15723C69.376 4.23926 69.0387 4.36003 68.6787 4.51953L68.4258 3.95898C69.2188 3.60352 69.9889 3.42578 70.7363 3.42578C71.5475 3.42578 72.1628 3.5944 72.582 3.93164C73.0013 4.26888 73.2109 4.736 73.2109 5.33301C73.2109 6.19434 72.7689 6.74349 71.8848 6.98047V7.02148C72.4362 7.1582 72.8372 7.38607 73.0879 7.70508C73.3385 8.01953 73.4639 8.42285 73.4639 8.91504C73.4639 9.60319 73.2109 10.1455 72.7051 10.542C72.2038 10.9385 71.5065 11.1367 70.6133 11.1367C70.1302 11.1367 69.6882 11.0911 69.2871 11C68.8906 10.9043 68.5625 10.779 68.3027 10.624V9.94727C68.7721 10.1706 69.1777 10.3232 69.5195 10.4053C69.8613 10.4827 70.2259 10.5215 70.6133 10.5215C71.2878 10.5215 71.8118 10.3802 72.1855 10.0977C72.5638 9.81055 72.7529 9.40267 72.7529 8.87402C72.7529 8.35905 72.5729 7.97852 72.2129 7.73242C71.8529 7.48633 71.3128 7.36328 70.5928 7.36328H69.5605V6.77539H70.4834ZM81.4756 13.5225H80.8057V11H75.1182V13.5225H74.4482V10.3574H74.9404C75.5602 9.48698 76.0387 8.47754 76.376 7.3291C76.7132 6.18066 76.891 4.92741 76.9092 3.56934H80.4844V10.3574H81.4756V13.5225ZM79.8076 10.3574V4.19824H77.4971C77.3877 6.66374 76.7907 8.7168 75.7061 10.3574H79.8076ZM87.5664 11L87.3955 9.82422H87.3408C86.9671 10.3027 86.582 10.6423 86.1855 10.8428C85.7936 11.0387 85.3288 11.1367 84.791 11.1367C84.0618 11.1367 83.4945 10.9499 83.0889 10.5762C82.6833 10.2025 82.4805 9.68522 82.4805 9.02441C82.4805 8.2998 82.7812 7.73698 83.3828 7.33594C83.9889 6.9349 84.8639 6.72298 86.0078 6.7002L87.4229 6.65918V6.16699C87.4229 5.46061 87.2793 4.92741 86.9922 4.56738C86.7051 4.20736 86.2425 4.02734 85.6045 4.02734C84.9163 4.02734 84.2031 4.21875 83.4648 4.60156L83.2119 4.01367C84.0277 3.63086 84.8343 3.43945 85.6318 3.43945C86.4476 3.43945 87.056 3.65137 87.457 4.0752C87.8626 4.49902 88.0654 5.15983 88.0654 6.05762V11H87.5664ZM84.832 10.5215C85.625 10.5215 86.2493 10.2959 86.7051 9.84473C87.1654 9.389 87.3955 8.75781 87.3955 7.95117V7.21973L86.0967 7.27441C85.0531 7.32454 84.3079 7.48861 83.8613 7.7666C83.4193 8.04004 83.1982 8.46842 83.1982 9.05176C83.1982 9.5166 83.3395 9.87891 83.6221 10.1387C83.9092 10.3939 84.3125 10.5215 84.832 10.5215ZM91.1553 3.56934V6.83008H95.8721V3.56934H96.542V11H95.8721V7.41797H91.1553V11H90.4785V3.56934H91.1553ZM99.6797 3.56934V8.94238L99.6387 10.3438L104.048 3.56934H104.95V11H104.301V5.66113L104.328 4.22559L99.9189 11H99.0371V3.56934H99.6797ZM110.446 11.1367C109.366 11.1367 108.523 10.804 107.917 10.1387C107.315 9.47331 107.015 8.54134 107.015 7.34277C107.015 6.15788 107.306 5.20996 107.89 4.49902C108.473 3.78353 109.259 3.42578 110.248 3.42578C111.123 3.42578 111.813 3.73112 112.319 4.3418C112.825 4.95247 113.078 5.7819 113.078 6.83008V7.37695H107.726C107.735 8.39779 107.972 9.17708 108.437 9.71484C108.906 10.2526 109.576 10.5215 110.446 10.5215C110.87 10.5215 111.242 10.4919 111.561 10.4326C111.884 10.3734 112.292 10.2458 112.784 10.0498V10.665C112.365 10.8473 111.978 10.9704 111.622 11.0342C111.267 11.1025 110.875 11.1367 110.446 11.1367ZM110.248 4.02734C109.533 4.02734 108.958 4.26432 108.525 4.73828C108.092 5.20768 107.84 5.88672 107.767 6.77539H112.36C112.36 5.91406 112.174 5.24186 111.8 4.75879C111.426 4.27116 110.909 4.02734 110.248 4.02734ZM121.732 11.1367C120.671 11.1367 119.839 10.8018 119.237 10.1318C118.636 9.46191 118.335 8.52767 118.335 7.3291C118.335 6.09863 118.647 5.1416 119.271 4.45801C119.896 3.76986 120.75 3.42578 121.835 3.42578C122.478 3.42578 123.093 3.53743 123.681 3.76074L123.496 4.3623C122.854 4.14811 122.295 4.04102 121.821 4.04102C120.91 4.04102 120.219 4.32357 119.75 4.88867C119.281 5.44922 119.046 6.25814 119.046 7.31543C119.046 8.31803 119.281 9.10417 119.75 9.67383C120.219 10.2389 120.876 10.5215 121.719 10.5215C122.393 10.5215 123.02 10.4007 123.599 10.1592V10.7881C123.125 11.0205 122.503 11.1367 121.732 11.1367ZM129.936 11L129.765 9.82422H129.71C129.336 10.3027 128.951 10.6423 128.555 10.8428C128.163 11.0387 127.698 11.1367 127.16 11.1367C126.431 11.1367 125.864 10.9499 125.458 10.5762C125.052 10.2025 124.85 9.68522 124.85 9.02441C124.85 8.2998 125.15 7.73698 125.752 7.33594C126.358 6.9349 127.233 6.72298 128.377 6.7002L129.792 6.65918V6.16699C129.792 5.46061 129.648 4.92741 129.361 4.56738C129.074 4.20736 128.612 4.02734 127.974 4.02734C127.285 4.02734 126.572 4.21875 125.834 4.60156L125.581 4.01367C126.397 3.63086 127.203 3.43945 128.001 3.43945C128.817 3.43945 129.425 3.65137 129.826 4.0752C130.232 4.49902 130.435 5.15983 130.435 6.05762V11H129.936ZM127.201 10.5215C127.994 10.5215 128.618 10.2959 129.074 9.84473C129.535 9.389 129.765 8.75781 129.765 7.95117V7.21973L128.466 7.27441C127.422 7.32454 126.677 7.48861 126.23 7.7666C125.788 8.04004 125.567 8.46842 125.567 9.05176C125.567 9.5166 125.709 9.87891 125.991 10.1387C126.278 10.3939 126.682 10.5215 127.201 10.5215ZM133.49 3.56934V8.94238L133.449 10.3438L137.858 3.56934H138.761V11H138.111V5.66113L138.139 4.22559L133.729 11H132.848V3.56934H133.49ZM135.808 2.5166C135.129 2.5166 134.611 2.36621 134.256 2.06543C133.9 1.76009 133.693 1.27018 133.634 0.595703H134.235C134.304 1.09701 134.459 1.45247 134.7 1.66211C134.942 1.86719 135.315 1.96973 135.821 1.96973C136.323 1.96973 136.694 1.86263 136.936 1.64844C137.182 1.43424 137.332 1.08333 137.387 0.595703H137.988C137.893 1.8763 137.166 2.5166 135.808 2.5166ZM145.973 4.15723H143.498V11H142.828V4.15723H140.292V3.56934H145.973V4.15723ZM153.649 7.27441C153.649 8.48665 153.355 9.43457 152.768 10.1182C152.18 10.7972 151.368 11.1367 150.334 11.1367C149.682 11.1367 149.108 10.9795 148.611 10.665C148.115 10.3506 147.734 9.89941 147.47 9.31152C147.205 8.72363 147.073 8.0446 147.073 7.27441C147.073 6.06217 147.367 5.11882 147.955 4.44434C148.543 3.7653 149.35 3.42578 150.375 3.42578C151.396 3.42578 152.196 3.76986 152.774 4.45801C153.358 5.1416 153.649 6.0804 153.649 7.27441ZM147.784 7.27441C147.784 8.29525 148.007 9.09277 148.454 9.66699C148.905 10.2367 149.541 10.5215 150.361 10.5215C151.182 10.5215 151.815 10.2367 152.262 9.66699C152.713 9.09277 152.938 8.29525 152.938 7.27441C152.938 6.24902 152.711 5.45378 152.255 4.88867C151.804 4.32357 151.168 4.04102 150.348 4.04102C149.527 4.04102 148.894 4.32357 148.447 4.88867C148.005 5.44922 147.784 6.24447 147.784 7.27441ZM161.408 5.36035C161.408 5.82975 161.292 6.19889 161.06 6.46777C160.827 6.7321 160.449 6.91667 159.925 7.02148V7.06934C160.522 7.1377 160.952 7.31087 161.217 7.58887C161.486 7.8623 161.62 8.25651 161.62 8.77148C161.62 9.48698 161.383 10.0384 160.909 10.4258C160.44 10.8086 159.752 11 158.845 11H155.707V3.56934H158.858C159.706 3.56934 160.342 3.72201 160.766 4.02734C161.194 4.33268 161.408 4.77702 161.408 5.36035ZM160.902 8.75781C160.902 7.84635 160.203 7.39062 158.804 7.39062H156.384V10.3574H158.899C160.235 10.3574 160.902 9.82422 160.902 8.75781ZM160.69 5.41504C160.69 4.9821 160.535 4.67448 160.226 4.49219C159.916 4.30534 159.451 4.21191 158.831 4.21191H156.384V6.75488H158.749C159.442 6.75488 159.938 6.64779 160.239 6.43359C160.54 6.2194 160.69 5.87988 160.69 5.41504ZM172.414 11H171.744V4.19824H169.112C168.976 5.99837 168.807 7.3724 168.606 8.32031C168.41 9.26367 168.155 9.95866 167.841 10.4053C167.531 10.8473 167.128 11.0684 166.631 11.0684C166.453 11.0684 166.298 11.0501 166.166 11.0137V10.3984C166.253 10.4258 166.376 10.4395 166.535 10.4395C167.05 10.4395 167.465 9.89714 167.779 8.8125C168.098 7.72331 168.34 5.97559 168.504 3.56934H172.414V11ZM173.658 3.56934H174.355L175.928 7.73926C176.406 9.01986 176.709 9.88346 176.837 10.3301H176.878C177.069 9.74219 177.382 8.86491 177.814 7.69824L179.387 3.56934H180.084L176.755 12.2031C176.486 12.9049 176.26 13.3789 176.078 13.625C175.896 13.8711 175.682 14.0557 175.436 14.1787C175.194 14.3018 174.9 14.3633 174.554 14.3633C174.294 14.3633 174.005 14.3154 173.686 14.2197V13.6318C173.95 13.7048 174.235 13.7412 174.54 13.7412C174.772 13.7412 174.978 13.6865 175.155 13.5771C175.333 13.4678 175.493 13.2969 175.634 13.0645C175.78 12.8366 175.946 12.472 176.133 11.9707C176.324 11.474 176.447 11.1504 176.502 11L173.658 3.56934ZM181.875 3.56934V6.05762C181.875 6.68652 182.028 7.13997 182.333 7.41797C182.638 7.69596 183.108 7.83496 183.741 7.83496C184.188 7.83496 184.614 7.75521 185.02 7.5957C185.425 7.4362 185.847 7.18099 186.284 6.83008V3.56934H186.961V11H186.284V7.47266C185.828 7.82357 185.38 8.07422 184.938 8.22461C184.5 8.375 184.026 8.4502 183.516 8.4502C182.755 8.4502 182.178 8.25195 181.786 7.85547C181.399 7.45898 181.205 6.88704 181.205 6.13965V3.56934H181.875ZM194.508 10.3574H198.213V3.56934H198.89V11H189.449V3.56934H190.126V10.3574H193.831V3.56934H194.508V10.3574ZM204.386 11.1367C203.306 11.1367 202.463 10.804 201.856 10.1387C201.255 9.47331 200.954 8.54134 200.954 7.34277C200.954 6.15788 201.246 5.20996 201.829 4.49902C202.412 3.78353 203.199 3.42578 204.188 3.42578C205.062 3.42578 205.753 3.73112 206.259 4.3418C206.765 4.95247 207.018 5.7819 207.018 6.83008V7.37695H201.665C201.674 8.39779 201.911 9.17708 202.376 9.71484C202.845 10.2526 203.515 10.5215 204.386 10.5215C204.81 10.5215 205.181 10.4919 205.5 10.4326C205.824 10.3734 206.231 10.2458 206.724 10.0498V10.665C206.304 10.8473 205.917 10.9704 205.562 11.0342C205.206 11.1025 204.814 11.1367 204.386 11.1367ZM204.188 4.02734C203.472 4.02734 202.898 4.26432 202.465 4.73828C202.032 5.20768 201.779 5.88672 201.706 6.77539H206.3C206.3 5.91406 206.113 5.24186 205.739 4.75879C205.366 4.27116 204.848 4.02734 204.188 4.02734ZM218.769 13.5225H218.099V11H212.411V13.5225H211.741V10.3574H212.233C212.853 9.48698 213.332 8.47754 213.669 7.3291C214.006 6.18066 214.184 4.92741 214.202 3.56934H217.777V10.3574H218.769V13.5225ZM217.101 10.3574V4.19824H214.79C214.681 6.66374 214.084 8.7168 212.999 10.3574H217.101ZM226.493 7.27441C226.493 8.48665 226.199 9.43457 225.611 10.1182C225.023 10.7972 224.212 11.1367 223.178 11.1367C222.526 11.1367 221.952 10.9795 221.455 10.665C220.958 10.3506 220.578 9.89941 220.313 9.31152C220.049 8.72363 219.917 8.0446 219.917 7.27441C219.917 6.06217 220.211 5.11882 220.799 4.44434C221.387 3.7653 222.193 3.42578 223.219 3.42578C224.24 3.42578 225.039 3.76986 225.618 4.45801C226.201 5.1416 226.493 6.0804 226.493 7.27441ZM220.628 7.27441C220.628 8.29525 220.851 9.09277 221.298 9.66699C221.749 10.2367 222.385 10.5215 223.205 10.5215C224.025 10.5215 224.659 10.2367 225.105 9.66699C225.557 9.09277 225.782 8.29525 225.782 7.27441C225.782 6.24902 225.554 5.45378 225.099 4.88867C224.647 4.32357 224.012 4.04102 223.191 4.04102C222.371 4.04102 221.738 4.32357 221.291 4.88867C220.849 5.44922 220.628 6.24447 220.628 7.27441ZM234.252 5.36035C234.252 5.82975 234.136 6.19889 233.903 6.46777C233.671 6.7321 233.293 6.91667 232.769 7.02148V7.06934C233.366 7.1377 233.796 7.31087 234.061 7.58887C234.329 7.8623 234.464 8.25651 234.464 8.77148C234.464 9.48698 234.227 10.0384 233.753 10.4258C233.284 10.8086 232.595 11 231.688 11H228.551V3.56934H231.702C232.55 3.56934 233.186 3.72201 233.609 4.02734C234.038 4.33268 234.252 4.77702 234.252 5.36035ZM233.746 8.75781C233.746 7.84635 233.047 7.39062 231.647 7.39062H229.228V10.3574H231.743C233.078 10.3574 233.746 9.82422 233.746 8.75781ZM233.534 5.41504C233.534 4.9821 233.379 4.67448 233.069 4.49219C232.759 4.30534 232.295 4.21191 231.675 4.21191H229.228V6.75488H231.593C232.285 6.75488 232.782 6.64779 233.083 6.43359C233.384 6.2194 233.534 5.87988 233.534 5.41504ZM239.481 11.1367C238.401 11.1367 237.558 10.804 236.952 10.1387C236.351 9.47331 236.05 8.54134 236.05 7.34277C236.05 6.15788 236.341 5.20996 236.925 4.49902C237.508 3.78353 238.294 3.42578 239.283 3.42578C240.158 3.42578 240.849 3.73112 241.354 4.3418C241.86 4.95247 242.113 5.7819 242.113 6.83008V7.37695H236.761C236.77 8.39779 237.007 9.17708 237.472 9.71484C237.941 10.2526 238.611 10.5215 239.481 10.5215C239.905 10.5215 240.277 10.4919 240.596 10.4326C240.919 10.3734 241.327 10.2458 241.819 10.0498V10.665C241.4 10.8473 241.013 10.9704 240.657 11.0342C240.302 11.1025 239.91 11.1367 239.481 11.1367ZM239.283 4.02734C238.568 4.02734 237.993 4.26432 237.561 4.73828C237.128 5.20768 236.875 5.88672 236.802 6.77539H241.396C241.396 5.91406 241.209 5.24186 240.835 4.75879C240.461 4.27116 239.944 4.02734 239.283 4.02734ZM247.343 11.1367C246.199 11.1367 245.365 10.7083 244.841 9.85156H244.793L244.813 10.4258C244.832 10.763 244.841 11.1322 244.841 11.5332V14.3633H244.164V3.56934H244.738L244.868 4.62891H244.909C245.42 3.82682 246.235 3.42578 247.356 3.42578C248.359 3.42578 249.122 3.75618 249.646 4.41699C250.175 5.07324 250.439 6.03027 250.439 7.28809C250.439 8.50944 250.161 9.45736 249.605 10.1318C249.054 10.8018 248.3 11.1367 247.343 11.1367ZM247.329 10.5352C248.09 10.5352 248.678 10.2526 249.093 9.6875C249.512 9.1224 249.722 8.33171 249.722 7.31543C249.722 5.13249 248.933 4.04102 247.356 4.04102C246.491 4.04102 245.855 4.28027 245.449 4.75879C245.044 5.23275 244.841 6.00749 244.841 7.08301V7.30176C244.841 8.46387 245.035 9.29329 245.422 9.79004C245.814 10.2868 246.45 10.5352 247.329 10.5352ZM253.146 3.56934V8.94238L253.105 10.3438L257.515 3.56934H258.417V11H257.768V5.66113L257.795 4.22559L253.386 11H252.504V3.56934H253.146ZM265.629 4.15723H263.154V11H262.484V4.15723H259.948V3.56934H265.629V4.15723ZM267.837 6.7002H270.455C272.201 6.7002 273.073 7.38607 273.073 8.75781C273.073 9.46419 272.829 10.0156 272.342 10.4121C271.854 10.804 271.155 11 270.243 11H267.16V3.56934H267.837V6.7002ZM267.837 7.34277V10.3574H270.353C271 10.3574 271.494 10.2207 271.836 9.94727C272.182 9.67383 272.355 9.27279 272.355 8.74414C272.355 8.25195 272.203 7.89648 271.897 7.67773C271.592 7.45443 271.063 7.34277 270.312 7.34277H267.837ZM284.455 8.42285C284.455 9.25684 284.147 9.91764 283.532 10.4053C282.922 10.8929 282.108 11.1367 281.092 11.1367C279.87 11.1367 278.934 11.0023 278.282 10.7334V10.0361C279.002 10.3415 279.921 10.4941 281.037 10.4941C281.857 10.4941 282.507 10.3073 282.985 9.93359C283.468 9.55534 283.71 9.06087 283.71 8.4502C283.71 8.07194 283.63 7.75977 283.471 7.51367C283.311 7.26302 283.051 7.03516 282.691 6.83008C282.331 6.625 281.803 6.40397 281.105 6.16699C280.085 5.81608 279.378 5.43783 278.986 5.03223C278.599 4.62207 278.405 4.07747 278.405 3.39844C278.405 2.65104 278.697 2.04264 279.28 1.57324C279.868 1.09928 280.622 0.862305 281.543 0.862305C282.482 0.862305 283.364 1.04004 284.188 1.39551L283.936 1.99707C283.106 1.65072 282.313 1.47754 281.557 1.47754C280.818 1.47754 280.23 1.64844 279.793 1.99023C279.355 2.33203 279.137 2.79688 279.137 3.38477C279.137 3.75391 279.203 4.05697 279.335 4.29395C279.472 4.53092 279.693 4.74512 279.998 4.93652C280.303 5.12337 280.827 5.34896 281.57 5.61328C282.35 5.88216 282.935 6.14421 283.327 6.39941C283.719 6.65007 284.004 6.93717 284.182 7.26074C284.364 7.57975 284.455 7.96712 284.455 8.42285ZM289.397 11.1367C288.317 11.1367 287.474 10.804 286.868 10.1387C286.267 9.47331 285.966 8.54134 285.966 7.34277C285.966 6.15788 286.257 5.20996 286.841 4.49902C287.424 3.78353 288.21 3.42578 289.199 3.42578C290.074 3.42578 290.765 3.73112 291.271 4.3418C291.776 4.95247 292.029 5.7819 292.029 6.83008V7.37695H286.677C286.686 8.39779 286.923 9.17708 287.388 9.71484C287.857 10.2526 288.527 10.5215 289.397 10.5215C289.821 10.5215 290.193 10.4919 290.512 10.4326C290.835 10.3734 291.243 10.2458 291.735 10.0498V10.665C291.316 10.8473 290.929 10.9704 290.573 11.0342C290.218 11.1025 289.826 11.1367 289.397 11.1367ZM289.199 4.02734C288.484 4.02734 287.91 4.26432 287.477 4.73828C287.044 5.20768 286.791 5.88672 286.718 6.77539H291.312C291.312 5.91406 291.125 5.24186 290.751 4.75879C290.377 4.27116 289.86 4.02734 289.199 4.02734ZM300.226 7.27441C300.226 8.48665 299.932 9.43457 299.344 10.1182C298.756 10.7972 297.945 11.1367 296.91 11.1367C296.258 11.1367 295.684 10.9795 295.188 10.665C294.691 10.3506 294.31 9.89941 294.046 9.31152C293.782 8.72363 293.649 8.0446 293.649 7.27441C293.649 6.06217 293.943 5.11882 294.531 4.44434C295.119 3.7653 295.926 3.42578 296.951 3.42578C297.972 3.42578 298.772 3.76986 299.351 4.45801C299.934 5.1416 300.226 6.0804 300.226 7.27441ZM294.36 7.27441C294.36 8.29525 294.584 9.09277 295.03 9.66699C295.481 10.2367 296.117 10.5215 296.938 10.5215C297.758 10.5215 298.391 10.2367 298.838 9.66699C299.289 9.09277 299.515 8.29525 299.515 7.27441C299.515 6.24902 299.287 5.45378 298.831 4.88867C298.38 4.32357 297.744 4.04102 296.924 4.04102C296.104 4.04102 295.47 4.32357 295.023 4.88867C294.581 5.44922 294.36 6.24447 294.36 7.27441ZM305.421 3.42578C306.46 3.42578 307.242 3.75391 307.766 4.41016C308.294 5.06185 308.559 6.0166 308.559 7.27441C308.559 8.50944 308.281 9.46191 307.725 10.1318C307.173 10.8018 306.396 11.1367 305.394 11.1367C304.865 11.1367 304.389 11.0273 303.965 10.8086C303.541 10.5898 303.206 10.2799 302.96 9.87891H302.898L302.707 11H302.283V0.363281H302.96V3.03613C302.96 3.43717 302.951 3.80632 302.933 4.14355L302.912 4.72461H302.96C303.243 4.27799 303.582 3.94987 303.979 3.74023C304.38 3.5306 304.86 3.42578 305.421 3.42578ZM305.407 4.04102C304.532 4.04102 303.906 4.29167 303.527 4.79297C303.149 5.29427 302.96 6.12142 302.96 7.27441V7.39062C302.96 8.51172 303.156 9.31608 303.548 9.80371C303.944 10.2913 304.56 10.5352 305.394 10.5352C306.205 10.5352 306.815 10.2526 307.226 9.6875C307.636 9.11784 307.841 8.30892 307.841 7.26074C307.841 5.11426 307.03 4.04102 305.407 4.04102ZM311.3 11H310.623V3.56934H311.3V11ZM310.527 1.50488C310.527 1.06738 310.671 0.848633 310.958 0.848633C311.099 0.848633 311.209 0.905599 311.286 1.01953C311.368 1.13346 311.409 1.29525 311.409 1.50488C311.409 1.70996 311.368 1.87174 311.286 1.99023C311.209 2.10872 311.099 2.16797 310.958 2.16797C310.671 2.16797 310.527 1.94694 310.527 1.50488ZM314.472 11H313.795V0.363281H314.472V11ZM317.644 11H316.967V3.56934H317.644V11ZM316.871 1.50488C316.871 1.06738 317.015 0.848633 317.302 0.848633C317.443 0.848633 317.552 0.905599 317.63 1.01953C317.712 1.13346 317.753 1.29525 317.753 1.50488C317.753 1.70996 317.712 1.87174 317.63 1.99023C317.552 2.10872 317.443 2.16797 317.302 2.16797C317.015 2.16797 316.871 1.94694 316.871 1.50488ZM322.101 10.5352C322.529 10.5352 322.903 10.4987 323.222 10.4258V10.9727C322.894 11.082 322.515 11.1367 322.087 11.1367C321.431 11.1367 320.945 10.9613 320.631 10.6104C320.321 10.2594 320.166 9.70801 320.166 8.95605V4.15723H319.065V3.76074L320.166 3.45312L320.508 1.77148H320.856V3.56934H323.037V4.15723H320.856V8.86035C320.856 9.43001 320.957 9.85156 321.157 10.125C321.358 10.3984 321.672 10.5352 322.101 10.5352ZM323.584 3.56934H324.281L325.854 7.73926C326.332 9.01986 326.635 9.88346 326.763 10.3301H326.804C326.995 9.74219 327.307 8.86491 327.74 7.69824L329.312 3.56934H330.01L326.681 12.2031C326.412 12.9049 326.186 13.3789 326.004 13.625C325.822 13.8711 325.607 14.0557 325.361 14.1787C325.12 14.3018 324.826 14.3633 324.479 14.3633C324.22 14.3633 323.93 14.3154 323.611 14.2197V13.6318C323.876 13.7048 324.16 13.7412 324.466 13.7412C324.698 13.7412 324.903 13.6865 325.081 13.5771C325.259 13.4678 325.418 13.2969 325.56 13.0645C325.705 12.8366 325.872 12.472 326.059 11.9707C326.25 11.474 326.373 11.1504 326.428 11L323.584 3.56934ZM331.117 10.4668C331.117 10.0202 331.299 9.79688 331.664 9.79688C332.038 9.79688 332.225 10.0202 332.225 10.4668C332.225 10.9134 332.038 11.1367 331.664 11.1367C331.299 11.1367 331.117 10.9134 331.117 10.4668ZM342.793 11L339.067 1.77148H339.013C339.049 2.33659 339.067 2.91536 339.067 3.50781V11H338.397V1.00586H339.478L343.019 9.79688H343.06L346.601 1.00586H347.653V11H346.949V3.42578C346.949 2.89714 346.977 2.35026 347.031 1.78516H346.977L343.237 11H342.793ZM350.989 6.7002H353.354C355.1 6.7002 355.973 7.38607 355.973 8.75781C355.973 9.46419 355.729 10.0156 355.241 10.4121C354.754 10.804 354.054 11 353.143 11H350.312V3.56934H350.989V6.7002ZM350.989 7.34277V10.3574H353.252C353.895 10.3574 354.389 10.223 354.735 9.9541C355.082 9.68522 355.255 9.2819 355.255 8.74414C355.255 8.25195 355.102 7.89648 354.797 7.67773C354.492 7.45443 353.963 7.34277 353.211 7.34277H350.989ZM357.941 11H357.271V3.56934H357.941V11ZM360.307 10.4668C360.307 10.0202 360.489 9.79688 360.854 9.79688C361.227 9.79688 361.414 10.0202 361.414 10.4668C361.414 10.9134 361.227 11.1367 360.854 11.1367C360.489 11.1367 360.307 10.9134 360.307 10.4668ZM360.307 4.3623C360.307 3.91569 360.489 3.69238 360.854 3.69238C361.227 3.69238 361.414 3.91569 361.414 4.3623C361.414 4.60384 361.359 4.77702 361.25 4.88184C361.145 4.98665 361.013 5.03906 360.854 5.03906C360.699 5.03906 360.569 4.98665 360.464 4.88184C360.359 4.77702 360.307 4.60384 360.307 4.3623Z" fill="black"/>
</svg>
