<svg width="210" height="34" viewBox="0 0 210 34" fill="none" xmlns="http://www.w3.org/2000/svg">
<path d="M0.824219 1.30078H7.87305C11.0488 1.30078 13.3809 1.83984 14.8691 2.91797C16.3574 3.99609 17.1016 5.625 17.1016 7.80469C17.1016 9.29297 16.6445 10.5352 15.7305 11.5312C14.8281 12.5156 13.5039 13.1484 11.7578 13.4297V13.5352C13.8086 13.8398 15.3145 14.4902 16.2754 15.4863C17.248 16.4707 17.7344 17.8477 17.7344 19.6172C17.7344 21.9844 16.9492 23.8066 15.3789 25.084C13.8086 26.3613 11.582 27 8.69922 27H0.824219V1.30078ZM2.61719 12.7441H8.27734C10.6914 12.7441 12.4434 12.3457 13.5332 11.5488C14.6348 10.7402 15.1855 9.48047 15.1855 7.76953C15.1855 6.05859 14.5645 4.81641 13.3223 4.04297C12.0918 3.26953 10.252 2.88281 7.80273 2.88281H2.61719V12.7441ZM2.61719 14.3262V25.418H8.66406C13.4219 25.418 15.8008 23.4844 15.8008 19.6172C15.8008 16.0898 13.293 14.3262 8.27734 14.3262H2.61719ZM24.6074 7.89258V21.709L24.502 25.3125L35.8398 7.89258H38.1602V27H36.4902V13.2715L36.5605 9.58008L25.2227 27H22.9551V7.89258H24.6074ZM60.168 33.4863H58.4453V27H43.8203V33.4863H42.0977V25.3477H43.3633C44.957 23.1094 46.1875 20.5137 47.0547 17.5605C47.9219 14.6074 48.3789 11.3848 48.4258 7.89258H57.6191V25.3477H60.168V33.4863ZM55.8789 25.3477V9.50977H49.9375C49.6562 15.8496 48.1211 21.1289 45.332 25.3477H55.8789ZM65.9688 15.9434H72.0508C76.5391 15.9434 78.7832 17.707 78.7832 21.2344C78.7832 23.0508 78.1562 24.4688 76.9023 25.4883C75.6484 26.4961 73.8496 27 71.5059 27H64.2285V7.89258H65.9688V15.9434ZM65.9688 17.5957V25.3477H71.7871C73.4395 25.3477 74.7109 25.002 75.6016 24.3105C76.4922 23.6191 76.9375 22.582 76.9375 21.1992C76.9375 19.9336 76.5449 19.0195 75.7598 18.457C74.9746 17.8828 73.6152 17.5957 71.6816 17.5957H65.9688ZM83.8457 27H82.123V7.89258H83.8457V27ZM107.26 27.3516C104.529 27.3516 102.391 26.4902 100.844 24.7676C99.2969 23.0449 98.5234 20.6426 98.5234 17.5605C98.5234 14.3965 99.3262 11.9355 100.932 10.1777C102.537 8.4082 104.734 7.52344 107.523 7.52344C109.176 7.52344 110.758 7.81055 112.27 8.38477L111.795 9.93164C110.143 9.38086 108.707 9.10547 107.488 9.10547C105.145 9.10547 103.369 9.83203 102.162 11.2852C100.955 12.7266 100.352 14.8066 100.352 17.5254C100.352 20.1035 100.955 22.125 102.162 23.5898C103.369 25.043 105.057 25.7695 107.225 25.7695C108.959 25.7695 110.57 25.459 112.059 24.8379V26.4551C110.84 27.0527 109.24 27.3516 107.26 27.3516ZM128.354 27L127.914 23.9766H127.773C126.812 25.207 125.822 26.0801 124.803 26.5957C123.795 27.0996 122.6 27.3516 121.217 27.3516C119.342 27.3516 117.883 26.8711 116.84 25.9102C115.797 24.9492 115.275 23.6191 115.275 21.9199C115.275 20.0566 116.049 18.6094 117.596 17.5781C119.154 16.5469 121.404 16.002 124.346 15.9434L127.984 15.8379V14.5723C127.984 12.7559 127.615 11.3848 126.877 10.459C126.139 9.5332 124.949 9.07031 123.309 9.07031C121.539 9.07031 119.705 9.5625 117.807 10.5469L117.156 9.03516C119.254 8.05078 121.328 7.55859 123.379 7.55859C125.477 7.55859 127.041 8.10352 128.072 9.19336C129.115 10.2832 129.637 11.9824 129.637 14.291V27H128.354ZM121.322 25.7695C123.361 25.7695 124.967 25.1895 126.139 24.0293C127.322 22.8574 127.914 21.2344 127.914 19.1602V17.2793L124.574 17.4199C121.891 17.5488 119.975 17.9707 118.826 18.6855C117.689 19.3887 117.121 20.4902 117.121 21.9902C117.121 23.1855 117.484 24.1172 118.211 24.7852C118.949 25.4414 119.986 25.7695 121.322 25.7695ZM137.494 7.89258V21.709L137.389 25.3125L148.727 7.89258H151.047V27H149.377V13.2715L149.447 9.58008L138.109 27H135.842V7.89258H137.494ZM143.453 5.18555C141.707 5.18555 140.377 4.79883 139.463 4.02539C138.549 3.24023 138.016 1.98047 137.863 0.246094H139.41C139.586 1.53516 139.984 2.44922 140.605 2.98828C141.227 3.51562 142.188 3.7793 143.488 3.7793C144.777 3.7793 145.732 3.50391 146.354 2.95312C146.986 2.40234 147.373 1.5 147.514 0.246094H149.061C148.814 3.53906 146.945 5.18555 143.453 5.18555ZM169.592 9.4043H163.229V27H161.506V9.4043H154.984V7.89258H169.592V9.4043ZM189.332 17.4199C189.332 20.5371 188.576 22.9746 187.064 24.7324C185.553 26.4785 183.467 27.3516 180.807 27.3516C179.131 27.3516 177.654 26.9473 176.377 26.1387C175.1 25.3301 174.121 24.1699 173.441 22.6582C172.762 21.1465 172.422 19.4004 172.422 17.4199C172.422 14.3027 173.178 11.877 174.689 10.1426C176.201 8.39648 178.275 7.52344 180.912 7.52344C183.537 7.52344 185.594 8.4082 187.082 10.1777C188.582 11.9355 189.332 14.3496 189.332 17.4199ZM174.25 17.4199C174.25 20.0449 174.824 22.0957 175.973 23.5723C177.133 25.0371 178.768 25.7695 180.877 25.7695C182.986 25.7695 184.615 25.0371 185.764 23.5723C186.924 22.0957 187.504 20.0449 187.504 17.4199C187.504 14.7832 186.918 12.7383 185.746 11.2852C184.586 9.83203 182.951 9.10547 180.842 9.10547C178.732 9.10547 177.104 9.83203 175.955 11.2852C174.818 12.7266 174.25 14.7715 174.25 17.4199ZM209.283 12.498C209.283 13.7051 208.984 14.6543 208.387 15.3457C207.789 16.0254 206.816 16.5 205.469 16.7695V16.8926C207.004 17.0684 208.111 17.5137 208.791 18.2285C209.482 18.9316 209.828 19.9453 209.828 21.2695C209.828 23.1094 209.219 24.5273 208 25.5234C206.793 26.5078 205.023 27 202.691 27H194.623V7.89258H202.727C204.906 7.89258 206.541 8.28516 207.631 9.07031C208.732 9.85547 209.283 10.998 209.283 12.498ZM207.982 21.2344C207.982 18.8906 206.184 17.7188 202.586 17.7188H196.363V25.3477H202.832C206.266 25.3477 207.982 23.9766 207.982 21.2344ZM207.438 12.6387C207.438 11.5254 207.039 10.7344 206.242 10.2656C205.445 9.78516 204.25 9.54492 202.656 9.54492H196.363V16.084H202.445C204.227 16.084 205.504 15.8086 206.277 15.2578C207.051 14.707 207.438 13.834 207.438 12.6387Z" fill="black"/>
</svg>
