<svg width="197" height="75" viewBox="0 0 197 75" fill="none" xmlns="http://www.w3.org/2000/svg">
<path d="M51.1475 30.8467H43.1289V28.3857C43.1289 27.2373 43.0264 26.5059 42.8213 26.1914C42.6162 25.877 42.2744 25.7197 41.7959 25.7197C41.2764 25.7197 40.8799 25.9316 40.6064 26.3555C40.3467 26.7793 40.2168 27.4219 40.2168 28.2832C40.2168 29.3906 40.3672 30.2246 40.668 30.7852C40.9551 31.3457 41.7686 32.0225 43.1084 32.8154C46.9502 35.0986 49.3701 36.9717 50.3682 38.4346C51.3662 39.8975 51.8652 42.2559 51.8652 45.5098C51.8652 47.875 51.585 49.6182 51.0244 50.7393C50.4775 51.8604 49.4111 52.8037 47.8252 53.5693C46.2393 54.3213 44.3936 54.6973 42.2881 54.6973C39.9775 54.6973 38.002 54.2598 36.3613 53.3848C34.7344 52.5098 33.668 51.3955 33.1621 50.042C32.6562 48.6885 32.4033 46.7676 32.4033 44.2793V42.1055H40.4219V46.1455C40.4219 47.3896 40.5312 48.1895 40.75 48.5449C40.9824 48.9004 41.3857 49.0781 41.96 49.0781C42.5342 49.0781 42.958 48.8525 43.2314 48.4014C43.5186 47.9502 43.6621 47.2803 43.6621 46.3916C43.6621 44.4365 43.3955 43.1582 42.8623 42.5566C42.3154 41.9551 40.9688 40.9502 38.8223 39.542C36.6758 38.1201 35.2539 37.0879 34.5566 36.4453C33.8594 35.8027 33.2783 34.9141 32.8135 33.7793C32.3623 32.6445 32.1367 31.1953 32.1367 29.4316C32.1367 26.8887 32.458 25.0293 33.1006 23.8535C33.7568 22.6777 34.8096 21.7617 36.2588 21.1055C37.708 20.4355 39.458 20.1006 41.5088 20.1006C43.751 20.1006 45.6582 20.4629 47.2305 21.1875C48.8164 21.9121 49.8623 22.8281 50.3682 23.9355C50.8877 25.0293 51.1475 26.8955 51.1475 29.5342V30.8467ZM62.7754 26.7861L62.6318 29.1855C63.3701 28.2148 64.1836 27.4902 65.0723 27.0117C65.9609 26.5332 66.9316 26.2939 67.9844 26.2939C69.2695 26.2939 70.377 26.6426 71.3066 27.3398C72.25 28.0234 72.8379 28.8164 73.0703 29.7188C73.3027 30.6211 73.4189 32.1523 73.4189 34.3125V45.7764C73.4189 48.251 73.2686 50.0146 72.9678 51.0674C72.6807 52.1064 72.0791 52.9404 71.1631 53.5693C70.2607 54.1846 69.167 54.4922 67.8818 54.4922C66.8564 54.4922 65.9062 54.2529 65.0312 53.7744C64.1562 53.2959 63.3564 52.585 62.6318 51.6416V57.876H54.3467V26.7861H62.7754ZM65.1338 34.7021C65.1338 33.0205 65.0723 32.002 64.9492 31.6465C64.8262 31.291 64.4844 31.1133 63.9238 31.1133C63.377 31.1133 63.0215 31.3184 62.8574 31.7285C62.707 32.1387 62.6318 33.1299 62.6318 34.7021V45.9814C62.6318 47.6221 62.7139 48.6475 62.8779 49.0576C63.042 49.4678 63.3975 49.6729 63.9443 49.6729C64.4775 49.6729 64.8057 49.4883 64.9287 49.1191C65.0654 48.7363 65.1338 47.8203 65.1338 46.3711V34.7021ZM94.9111 36.3428V43.0078C94.9111 45.4551 94.7881 47.2529 94.542 48.4014C94.2959 49.5361 93.7695 50.6025 92.9629 51.6006C92.1562 52.585 91.1172 53.3164 89.8457 53.7949C88.5879 54.2598 87.1387 54.4922 85.498 54.4922C83.666 54.4922 82.1143 54.2939 80.8428 53.8975C79.5713 53.4873 78.5801 52.8789 77.8691 52.0723C77.1719 51.252 76.6729 50.2676 76.3721 49.1191C76.0713 47.957 75.9209 46.2207 75.9209 43.9102V36.9375C75.9209 34.4082 76.1943 32.4326 76.7412 31.0107C77.2881 29.5889 78.2725 28.4473 79.6943 27.5859C81.1162 26.7246 82.9346 26.2939 85.1494 26.2939C87.0088 26.2939 88.6016 26.5742 89.9277 27.1348C91.2676 27.6816 92.2998 28.3994 93.0244 29.2881C93.749 30.1768 94.2412 31.0928 94.501 32.0361C94.7744 32.9795 94.9111 34.415 94.9111 36.3428ZM86.626 34.292C86.626 32.8975 86.5508 32.0225 86.4004 31.667C86.25 31.2979 85.9287 31.1133 85.4365 31.1133C84.9443 31.1133 84.6162 31.2979 84.4521 31.667C84.2881 32.0225 84.2061 32.8975 84.2061 34.292V46.5762C84.2061 47.8613 84.2881 48.7021 84.4521 49.0986C84.6162 49.4814 84.9375 49.6729 85.416 49.6729C85.9082 49.6729 86.2295 49.4951 86.3799 49.1396C86.5439 48.7842 86.626 48.0186 86.626 46.8428V34.292ZM105.944 26.7861L105.616 30.3545C106.819 27.7979 108.562 26.4443 110.846 26.2939V35.8711C109.328 35.8711 108.214 36.0762 107.503 36.4863C106.792 36.8965 106.354 37.4707 106.19 38.209C106.026 38.9336 105.944 40.6152 105.944 43.2539V54H97.6592V26.7861H105.944ZM122.228 23.1562V27.4424H124.463V31.749H122.228V46.3096C122.228 48.1006 122.316 49.0986 122.494 49.3037C122.686 49.5088 123.458 49.6113 124.812 49.6113V54H121.469C119.582 54 118.235 53.9248 117.429 53.7744C116.622 53.6104 115.911 53.248 115.296 52.6875C114.681 52.1133 114.298 51.4639 114.147 50.7393C113.997 50.001 113.922 48.2783 113.922 45.5713V31.749H112.138V27.4424H113.922V23.1562H122.228ZM126.534 20.7979H141.156V27.4424H135.168V33.7383H140.5V40.0547H135.168V54H126.534V20.7979ZM151.554 20.7979V25.125H143.022V20.7979H151.554ZM151.554 26.7861V54H143.022V26.7861H151.554ZM163.284 23.1562V27.4424H165.52V31.749H163.284V46.3096C163.284 48.1006 163.373 49.0986 163.551 49.3037C163.742 49.5088 164.515 49.6113 165.868 49.6113V54H162.525C160.639 54 159.292 53.9248 158.485 53.7744C157.679 53.6104 156.968 53.248 156.353 52.6875C155.737 52.1133 155.354 51.4639 155.204 50.7393C155.054 50.001 154.979 48.2783 154.979 45.5713V31.749H153.194V27.4424H154.979V23.1562H163.284Z" fill="#999999"/>
</svg>
