<svg width="176" height="15" viewBox="0 0 176 15" fill="none" xmlns="http://www.w3.org/2000/svg">
<path d="M4.76807 11H3.52295V1.39795H0.131836V0.291992H8.15918V1.39795H4.76807V11ZM12.9858 11.1465C11.7993 11.1465 10.8618 10.7852 10.1733 10.0625C9.48975 9.33984 9.14795 8.33643 9.14795 7.05225C9.14795 5.7583 9.46533 4.73047 10.1001 3.96875C10.7397 3.20703 11.5967 2.82617 12.6709 2.82617C13.6768 2.82617 14.4727 3.1582 15.0586 3.82227C15.6445 4.48145 15.9375 5.35303 15.9375 6.43701V7.20605H10.4077C10.4321 8.14844 10.6689 8.86377 11.1182 9.35205C11.5723 9.84033 12.2095 10.0845 13.0298 10.0845C13.894 10.0845 14.7485 9.90381 15.5933 9.54248V10.6265C15.1636 10.812 14.7559 10.9438 14.3701 11.022C13.9893 11.105 13.5278 11.1465 12.9858 11.1465ZM12.6562 3.84424C12.0117 3.84424 11.4966 4.0542 11.1108 4.47412C10.73 4.89404 10.5054 5.4751 10.437 6.21729H14.6338C14.6338 5.45068 14.4629 4.86475 14.1211 4.45947C13.7793 4.04932 13.291 3.84424 12.6562 3.84424ZM19.9512 6.89111L17.1606 2.97266H18.5449L20.6616 6.04883L22.771 2.97266H24.1406L21.3501 6.89111L24.2871 11H22.9102L20.6616 7.74805L18.3911 11H17.0142L19.9512 6.89111ZM27.0996 2.97266V6.33447H31.5967V2.97266H32.8125V11H31.5967V7.38184H27.0996V11H25.8838V2.97266H27.0996ZM36.5332 2.97266V8.06299L36.4819 9.396L36.46 9.81348L40.8032 2.97266H42.3193V11H41.1841V6.09277L41.2061 5.12598L41.2427 4.17383L36.9067 11H35.3906V2.97266H36.5332ZM45.9668 2.97266V5.90234C45.9668 6.83984 46.5015 7.30859 47.5708 7.30859C48.0151 7.30859 48.4399 7.24023 48.8452 7.10352C49.2505 6.9668 49.7095 6.73486 50.2222 6.40771V2.97266H51.438V11H50.2222V7.36719C49.7095 7.71875 49.2334 7.96777 48.7939 8.11426C48.3594 8.25586 47.8662 8.32666 47.3145 8.32666C46.5137 8.32666 45.8862 8.1167 45.4321 7.69678C44.978 7.27686 44.751 6.70801 44.751 5.99023V2.97266H45.9668ZM57.4146 11.1465C56.228 11.1465 55.2905 10.7852 54.6021 10.0625C53.9185 9.33984 53.5767 8.33643 53.5767 7.05225C53.5767 5.7583 53.894 4.73047 54.5288 3.96875C55.1685 3.20703 56.0254 2.82617 57.0996 2.82617C58.1055 2.82617 58.9014 3.1582 59.4873 3.82227C60.0732 4.48145 60.3662 5.35303 60.3662 6.43701V7.20605H54.8364C54.8608 8.14844 55.0977 8.86377 55.5469 9.35205C56.001 9.84033 56.6382 10.0845 57.4585 10.0845C58.3228 10.0845 59.1772 9.90381 60.022 9.54248V10.6265C59.5923 10.812 59.1846 10.9438 58.7988 11.022C58.418 11.105 57.9565 11.1465 57.4146 11.1465ZM57.085 3.84424C56.4404 3.84424 55.9253 4.0542 55.5396 4.47412C55.1587 4.89404 54.9341 5.4751 54.8657 6.21729H59.0625C59.0625 5.45068 58.8916 4.86475 58.5498 4.45947C58.208 4.04932 57.7197 3.84424 57.085 3.84424ZM65.6543 11.1465C64.4922 11.1465 63.5913 10.79 62.9517 10.0771C62.3169 9.35938 61.9995 8.34619 61.9995 7.0376C61.9995 5.69482 62.3218 4.65723 62.9663 3.9248C63.6157 3.19238 64.5386 2.82617 65.7349 2.82617C66.1206 2.82617 66.5063 2.86768 66.8921 2.95068C67.2778 3.03369 67.5806 3.13135 67.8003 3.24365L67.4268 4.27637C67.1582 4.16895 66.8652 4.08105 66.5479 4.0127C66.2305 3.93945 65.9497 3.90283 65.7056 3.90283C64.0747 3.90283 63.2593 4.94287 63.2593 7.02295C63.2593 8.00928 63.457 8.76611 63.8525 9.29346C64.2529 9.8208 64.8438 10.0845 65.625 10.0845C66.2939 10.0845 66.98 9.94043 67.6831 9.65234V10.729C67.146 11.0073 66.4697 11.1465 65.6543 11.1465ZM74.2749 2.97266H75.6079L72.1436 6.84717L75.8936 11H74.4727L70.8105 6.93506V11H69.5947V2.97266H70.8105V6.87646L74.2749 2.97266ZM82.3242 11L82.0825 9.85742H82.0239C81.6235 10.3604 81.2231 10.7021 80.8228 10.8828C80.4272 11.0586 79.9316 11.1465 79.3359 11.1465C78.54 11.1465 77.915 10.9414 77.4609 10.5312C77.0117 10.1211 76.7871 9.5376 76.7871 8.78076C76.7871 7.15967 78.0835 6.31006 80.6763 6.23193L82.0386 6.18799V5.68994C82.0386 5.06006 81.9019 4.59619 81.6284 4.29834C81.3599 3.99561 80.9277 3.84424 80.332 3.84424C79.6631 3.84424 78.9062 4.04932 78.0615 4.45947L77.688 3.5293C78.0835 3.31445 78.5156 3.146 78.9844 3.02393C79.458 2.90186 79.9316 2.84082 80.4053 2.84082C81.3623 2.84082 82.0703 3.05322 82.5293 3.47803C82.9932 3.90283 83.2251 4.58398 83.2251 5.52148V11H82.3242ZM79.5776 10.1431C80.3345 10.1431 80.9277 9.93555 81.3574 9.52051C81.792 9.10547 82.0093 8.52441 82.0093 7.77734V7.05225L80.7935 7.10352C79.8267 7.1377 79.1284 7.28906 78.6987 7.55762C78.2739 7.82129 78.0615 8.23389 78.0615 8.79541C78.0615 9.23486 78.1934 9.56934 78.457 9.79883C78.7256 10.0283 79.0991 10.1431 79.5776 10.1431ZM86.1401 11H84.7192L87.0264 7.60889C86.4062 7.47217 85.9302 7.2085 85.5981 6.81787C85.271 6.42236 85.1074 5.92676 85.1074 5.33105C85.1074 4.59863 85.354 4.02246 85.8472 3.60254C86.3403 3.18262 87.0288 2.97266 87.9126 2.97266H91.4868V11H90.271V7.79199H88.2422L86.1401 11ZM86.2939 5.3457C86.2939 6.27344 86.9678 6.7373 88.3154 6.7373H90.271V4.02734H88.0664C86.8848 4.02734 86.2939 4.4668 86.2939 5.3457ZM99.1846 11H97.9688V2.97266H104.707V11H103.477V4.02734H99.1846V11ZM114.214 6.979C114.214 8.2876 113.884 9.31055 113.225 10.0479C112.566 10.7803 111.655 11.1465 110.493 11.1465C109.775 11.1465 109.138 10.978 108.582 10.6411C108.025 10.3042 107.595 9.8208 107.292 9.19092C106.99 8.56104 106.838 7.82373 106.838 6.979C106.838 5.67041 107.166 4.65234 107.82 3.9248C108.474 3.19238 109.382 2.82617 110.544 2.82617C111.667 2.82617 112.559 3.19971 113.218 3.94678C113.882 4.69385 114.214 5.70459 114.214 6.979ZM108.098 6.979C108.098 8.00439 108.303 8.78564 108.713 9.32275C109.124 9.85986 109.727 10.1284 110.522 10.1284C111.318 10.1284 111.921 9.8623 112.332 9.33008C112.747 8.79297 112.954 8.00928 112.954 6.979C112.954 5.9585 112.747 5.18457 112.332 4.65723C111.921 4.125 111.313 3.85889 110.508 3.85889C109.712 3.85889 109.111 4.12012 108.706 4.64258C108.301 5.16504 108.098 5.94385 108.098 6.979ZM123.325 13.7759H122.146V11H116.536V13.7759H115.364V9.95264H115.994C116.648 9.06396 117.161 8.02148 117.532 6.8252C117.903 5.62891 118.096 4.34473 118.11 2.97266H122.175V9.95264H123.325V13.7759ZM121.003 9.95264V3.93213H119.202C119.138 5.01611 118.928 6.11475 118.572 7.22803C118.22 8.33643 117.781 9.24463 117.253 9.95264H121.003ZM131.909 13.7759H130.73V11H125.12V13.7759H123.948V9.95264H124.578C125.232 9.06396 125.745 8.02148 126.116 6.8252C126.487 5.62891 126.68 4.34473 126.694 2.97266H130.759V9.95264H131.909V13.7759ZM129.587 9.95264V3.93213H127.786C127.722 5.01611 127.512 6.11475 127.156 7.22803C126.804 8.33643 126.365 9.24463 125.837 9.95264H129.587ZM136.912 11.1465C135.725 11.1465 134.788 10.7852 134.099 10.0625C133.416 9.33984 133.074 8.33643 133.074 7.05225C133.074 5.7583 133.391 4.73047 134.026 3.96875C134.666 3.20703 135.522 2.82617 136.597 2.82617C137.603 2.82617 138.398 3.1582 138.984 3.82227C139.57 4.48145 139.863 5.35303 139.863 6.43701V7.20605H134.333C134.358 8.14844 134.595 8.86377 135.044 9.35205C135.498 9.84033 136.135 10.0845 136.956 10.0845C137.82 10.0845 138.674 9.90381 139.519 9.54248V10.6265C139.089 10.812 138.682 10.9438 138.296 11.022C137.915 11.105 137.454 11.1465 136.912 11.1465ZM136.582 3.84424C135.938 3.84424 135.422 4.0542 135.037 4.47412C134.656 4.89404 134.431 5.4751 134.363 6.21729H138.56C138.56 5.45068 138.389 4.86475 138.047 4.45947C137.705 4.04932 137.217 3.84424 136.582 3.84424ZM145.679 11.1465C145.156 11.1465 144.678 11.0513 144.243 10.8608C143.813 10.6655 143.452 10.3677 143.159 9.96729H143.071C143.13 10.436 143.159 10.8804 143.159 11.3003V14.6035H141.943V2.97266H142.932L143.101 4.07129H143.159C143.472 3.63184 143.835 3.31445 144.25 3.11914C144.666 2.92383 145.142 2.82617 145.679 2.82617C146.743 2.82617 147.563 3.18994 148.14 3.91748C148.721 4.64502 149.011 5.66553 149.011 6.979C149.011 8.29736 148.716 9.32275 148.125 10.0552C147.539 10.7827 146.724 11.1465 145.679 11.1465ZM145.503 3.85889C144.683 3.85889 144.089 4.08594 143.723 4.54004C143.357 4.99414 143.169 5.7168 143.159 6.70801V6.979C143.159 8.10693 143.347 8.91504 143.723 9.40332C144.099 9.88672 144.702 10.1284 145.532 10.1284C146.226 10.1284 146.768 9.84766 147.158 9.28613C147.554 8.72461 147.751 7.95068 147.751 6.96436C147.751 5.96338 147.554 5.19678 147.158 4.66455C146.768 4.12744 146.216 3.85889 145.503 3.85889ZM154.805 2.9873H155.925V6.87646L159.243 2.9873H160.576L157.222 6.87646L160.862 11H159.456L155.925 6.93506V11H154.805V6.93506L151.282 11H149.883L153.516 6.87646L150.168 2.9873H151.501L154.805 6.87646V2.9873ZM166.868 2.97266H168.201L164.736 6.84717L168.486 11H167.065L163.403 6.93506V11H162.188V2.97266H163.403V6.87646L166.868 2.97266ZM174.917 11L174.675 9.85742H174.617C174.216 10.3604 173.816 10.7021 173.416 10.8828C173.02 11.0586 172.524 11.1465 171.929 11.1465C171.133 11.1465 170.508 10.9414 170.054 10.5312C169.604 10.1211 169.38 9.5376 169.38 8.78076C169.38 7.15967 170.676 6.31006 173.269 6.23193L174.631 6.18799V5.68994C174.631 5.06006 174.495 4.59619 174.221 4.29834C173.953 3.99561 173.521 3.84424 172.925 3.84424C172.256 3.84424 171.499 4.04932 170.654 4.45947L170.281 3.5293C170.676 3.31445 171.108 3.146 171.577 3.02393C172.051 2.90186 172.524 2.84082 172.998 2.84082C173.955 2.84082 174.663 3.05322 175.122 3.47803C175.586 3.90283 175.818 4.58398 175.818 5.52148V11H174.917ZM172.17 10.1431C172.927 10.1431 173.521 9.93555 173.95 9.52051C174.385 9.10547 174.602 8.52441 174.602 7.77734V7.05225L173.386 7.10352C172.419 7.1377 171.721 7.28906 171.292 7.55762C170.867 7.82129 170.654 8.23389 170.654 8.79541C170.654 9.23486 170.786 9.56934 171.05 9.79883C171.318 10.0283 171.692 10.1431 172.17 10.1431Z" fill="#188BFA"/>
</svg>
