<svg width="328" height="88" viewBox="0 0 328 88" fill="none" xmlns="http://www.w3.org/2000/svg">
<path d="M72.8105 39L69.085 29.7715H69.0303C69.0667 30.3366 69.085 30.9154 69.085 31.5078V39H68.415V29.0059H69.4951L73.0361 37.7969H73.0771L76.6182 29.0059H77.6709V39H76.9668V31.4258C76.9668 30.8971 76.9941 30.3503 77.0488 29.7852H76.9941L73.2549 39H72.8105ZM83.3311 39.1367C82.251 39.1367 81.4079 38.804 80.8018 38.1387C80.2002 37.4733 79.8994 36.5413 79.8994 35.3428C79.8994 34.1579 80.1911 33.21 80.7744 32.499C81.3577 31.7835 82.1439 31.4258 83.1328 31.4258C84.0078 31.4258 84.6982 31.7311 85.2041 32.3418C85.71 32.9525 85.9629 33.7819 85.9629 34.8301V35.377H80.6104C80.6195 36.3978 80.8564 37.1771 81.3213 37.7148C81.7907 38.2526 82.4606 38.5215 83.3311 38.5215C83.7549 38.5215 84.1263 38.4919 84.4453 38.4326C84.7689 38.3734 85.1768 38.2458 85.6689 38.0498V38.665C85.2497 38.8473 84.8623 38.9704 84.5068 39.0342C84.1514 39.1025 83.7594 39.1367 83.3311 39.1367ZM83.1328 32.0273C82.4173 32.0273 81.8431 32.2643 81.4102 32.7383C80.9772 33.2077 80.7243 33.8867 80.6514 34.7754H85.2451C85.2451 33.9141 85.0583 33.2419 84.6846 32.7588C84.3109 32.2712 83.7936 32.0273 83.1328 32.0273ZM90.9805 39.1367C89.9186 39.1367 89.0869 38.8018 88.4854 38.1318C87.8838 37.4619 87.583 36.5277 87.583 35.3291C87.583 34.0986 87.8952 33.1416 88.5195 32.458C89.1439 31.7699 89.9984 31.4258 91.083 31.4258C91.7256 31.4258 92.3408 31.5374 92.9287 31.7607L92.7441 32.3623C92.1016 32.1481 91.5433 32.041 91.0693 32.041C90.1579 32.041 89.4674 32.3236 88.998 32.8887C88.5286 33.4492 88.2939 34.2581 88.2939 35.3154C88.2939 36.318 88.5286 37.1042 88.998 37.6738C89.4674 38.2389 90.1237 38.5215 90.9668 38.5215C91.6413 38.5215 92.2679 38.4007 92.8467 38.1592V38.7881C92.3727 39.0205 91.7507 39.1367 90.9805 39.1367ZM99.3887 32.1572H96.9141V39H96.2441V32.1572H93.708V31.5693H99.3887V32.1572ZM107.065 35.2744C107.065 36.4867 106.771 37.4346 106.184 38.1182C105.596 38.7972 104.785 39.1367 103.75 39.1367C103.098 39.1367 102.524 38.9795 102.027 38.665C101.531 38.3506 101.15 37.8994 100.886 37.3115C100.621 36.7236 100.489 36.0446 100.489 35.2744C100.489 34.0622 100.783 33.1188 101.371 32.4443C101.959 31.7653 102.766 31.4258 103.791 31.4258C104.812 31.4258 105.612 31.7699 106.19 32.458C106.774 33.1416 107.065 34.0804 107.065 35.2744ZM101.2 35.2744C101.2 36.2952 101.424 37.0928 101.87 37.667C102.321 38.2367 102.957 38.5215 103.777 38.5215C104.598 38.5215 105.231 38.2367 105.678 37.667C106.129 37.0928 106.354 36.2952 106.354 35.2744C106.354 34.249 106.127 33.4538 105.671 32.8887C105.22 32.3236 104.584 32.041 103.764 32.041C102.943 32.041 102.31 32.3236 101.863 32.8887C101.421 33.4492 101.2 34.2445 101.2 35.2744ZM113.437 39H112.76V31.5693H118.687V39H118.01V32.2119H113.437V39ZM127.327 35.2744C127.327 36.4867 127.033 37.4346 126.445 38.1182C125.857 38.7972 125.046 39.1367 124.012 39.1367C123.36 39.1367 122.786 38.9795 122.289 38.665C121.792 38.3506 121.412 37.8994 121.147 37.3115C120.883 36.7236 120.751 36.0446 120.751 35.2744C120.751 34.0622 121.045 33.1188 121.633 32.4443C122.221 31.7653 123.027 31.4258 124.053 31.4258C125.074 31.4258 125.873 31.7699 126.452 32.458C127.035 33.1416 127.327 34.0804 127.327 35.2744ZM121.462 35.2744C121.462 36.2952 121.685 37.0928 122.132 37.667C122.583 38.2367 123.219 38.5215 124.039 38.5215C124.859 38.5215 125.493 38.2367 125.939 37.667C126.391 37.0928 126.616 36.2952 126.616 35.2744C126.616 34.249 126.388 33.4538 125.933 32.8887C125.481 32.3236 124.846 32.041 124.025 32.041C123.205 32.041 122.572 32.3236 122.125 32.8887C121.683 33.4492 121.462 34.2445 121.462 35.2744ZM131.777 31.5693H132.475L134.047 35.7393C134.525 37.0199 134.828 37.8835 134.956 38.3301H134.997C135.188 37.7422 135.501 36.8649 135.934 35.6982L137.506 31.5693H138.203L134.874 40.2031C134.605 40.9049 134.38 41.3789 134.197 41.625C134.015 41.8711 133.801 42.0557 133.555 42.1787C133.313 42.3018 133.019 42.3633 132.673 42.3633C132.413 42.3633 132.124 42.3154 131.805 42.2197V41.6318C132.069 41.7048 132.354 41.7412 132.659 41.7412C132.892 41.7412 133.097 41.6865 133.274 41.5771C133.452 41.4678 133.612 41.2969 133.753 41.0645C133.899 40.8366 134.065 40.472 134.252 39.9707C134.443 39.474 134.566 39.1504 134.621 39L131.777 31.5693ZM145.511 41.5225H144.841V39H139.153V41.5225H138.483V38.3574H138.976C139.595 37.487 140.074 36.4775 140.411 35.3291C140.748 34.1807 140.926 32.9274 140.944 31.5693H144.52V38.3574H145.511V41.5225ZM143.843 38.3574V32.1982H141.532C141.423 34.6637 140.826 36.7168 139.741 38.3574H143.843ZM153.235 35.2744C153.235 36.4867 152.941 37.4346 152.354 38.1182C151.766 38.7972 150.954 39.1367 149.92 39.1367C149.268 39.1367 148.694 38.9795 148.197 38.665C147.701 38.3506 147.32 37.8994 147.056 37.3115C146.791 36.7236 146.659 36.0446 146.659 35.2744C146.659 34.0622 146.953 33.1188 147.541 32.4443C148.129 31.7653 148.936 31.4258 149.961 31.4258C150.982 31.4258 151.782 31.7699 152.36 32.458C152.944 33.1416 153.235 34.0804 153.235 35.2744ZM147.37 35.2744C147.37 36.2952 147.593 37.0928 148.04 37.667C148.491 38.2367 149.127 38.5215 149.947 38.5215C150.768 38.5215 151.401 38.2367 151.848 37.667C152.299 37.0928 152.524 36.2952 152.524 35.2744C152.524 34.249 152.297 33.4538 151.841 32.8887C151.39 32.3236 150.754 32.041 149.934 32.041C149.113 32.041 148.48 32.3236 148.033 32.8887C147.591 33.4492 147.37 34.2445 147.37 35.2744ZM160.994 33.3604C160.994 33.8298 160.878 34.1989 160.646 34.4678C160.413 34.7321 160.035 34.9167 159.511 35.0215V35.0693C160.108 35.1377 160.538 35.3109 160.803 35.5889C161.072 35.8623 161.206 36.2565 161.206 36.7715C161.206 37.487 160.969 38.0384 160.495 38.4258C160.026 38.8086 159.338 39 158.431 39H155.293V31.5693H158.444C159.292 31.5693 159.928 31.722 160.352 32.0273C160.78 32.3327 160.994 32.777 160.994 33.3604ZM160.488 36.7578C160.488 35.8464 159.789 35.3906 158.39 35.3906H155.97V38.3574H158.485C159.821 38.3574 160.488 37.8242 160.488 36.7578ZM160.276 33.415C160.276 32.9821 160.121 32.6745 159.812 32.4922C159.502 32.3053 159.037 32.2119 158.417 32.2119H155.97V34.7549H158.335C159.028 34.7549 159.524 34.6478 159.825 34.4336C160.126 34.2194 160.276 33.8799 160.276 33.415ZM168.363 39H167.693V32.1982H165.062C164.925 33.9984 164.756 35.3724 164.556 36.3203C164.36 37.2637 164.104 37.9587 163.79 38.4053C163.48 38.8473 163.077 39.0684 162.58 39.0684C162.402 39.0684 162.247 39.0501 162.115 39.0137V38.3984C162.202 38.4258 162.325 38.4395 162.484 38.4395C162.999 38.4395 163.414 37.8971 163.729 36.8125C164.048 35.7233 164.289 33.9756 164.453 31.5693H168.363V39ZM173.853 39.1367C172.772 39.1367 171.929 38.804 171.323 38.1387C170.722 37.4733 170.421 36.5413 170.421 35.3428C170.421 34.1579 170.713 33.21 171.296 32.499C171.879 31.7835 172.665 31.4258 173.654 31.4258C174.529 31.4258 175.22 31.7311 175.726 32.3418C176.231 32.9525 176.484 33.7819 176.484 34.8301V35.377H171.132C171.141 36.3978 171.378 37.1771 171.843 37.7148C172.312 38.2526 172.982 38.5215 173.853 38.5215C174.276 38.5215 174.648 38.4919 174.967 38.4326C175.29 38.3734 175.698 38.2458 176.19 38.0498V38.665C175.771 38.8473 175.384 38.9704 175.028 39.0342C174.673 39.1025 174.281 39.1367 173.853 39.1367ZM173.654 32.0273C172.939 32.0273 172.365 32.2643 171.932 32.7383C171.499 33.2077 171.246 33.8867 171.173 34.7754H175.767C175.767 33.9141 175.58 33.2419 175.206 32.7588C174.832 32.2712 174.315 32.0273 173.654 32.0273ZM183.252 32.1572H180.777V39H180.107V32.1572H177.571V31.5693H183.252V32.1572ZM190.484 33.3604C190.484 33.8298 190.368 34.1989 190.136 34.4678C189.903 34.7321 189.525 34.9167 189.001 35.0215V35.0693C189.598 35.1377 190.029 35.3109 190.293 35.5889C190.562 35.8623 190.696 36.2565 190.696 36.7715C190.696 37.487 190.459 38.0384 189.985 38.4258C189.516 38.8086 188.828 39 187.921 39H184.783V31.5693H187.935C188.782 31.5693 189.418 31.722 189.842 32.0273C190.27 32.3327 190.484 32.777 190.484 33.3604ZM189.979 36.7578C189.979 35.8464 189.279 35.3906 187.88 35.3906H185.46V38.3574H187.976C189.311 38.3574 189.979 37.8242 189.979 36.7578ZM189.767 33.415C189.767 32.9821 189.612 32.6745 189.302 32.4922C188.992 32.3053 188.527 32.2119 187.907 32.2119H185.46V34.7549H187.825C188.518 34.7549 189.015 34.6478 189.315 34.4336C189.616 34.2194 189.767 33.8799 189.767 33.415ZM198.858 35.2744C198.858 36.4867 198.564 37.4346 197.977 38.1182C197.389 38.7972 196.577 39.1367 195.543 39.1367C194.891 39.1367 194.317 38.9795 193.82 38.665C193.324 38.3506 192.943 37.8994 192.679 37.3115C192.414 36.7236 192.282 36.0446 192.282 35.2744C192.282 34.0622 192.576 33.1188 193.164 32.4443C193.752 31.7653 194.559 31.4258 195.584 31.4258C196.605 31.4258 197.405 31.7699 197.983 32.458C198.567 33.1416 198.858 34.0804 198.858 35.2744ZM192.993 35.2744C192.993 36.2952 193.216 37.0928 193.663 37.667C194.114 38.2367 194.75 38.5215 195.57 38.5215C196.391 38.5215 197.024 38.2367 197.471 37.667C197.922 37.0928 198.147 36.2952 198.147 35.2744C198.147 34.249 197.92 33.4538 197.464 32.8887C197.013 32.3236 196.377 32.041 195.557 32.041C194.736 32.041 194.103 32.3236 193.656 32.8887C193.214 33.4492 192.993 34.2445 192.993 35.2744ZM204.095 39.1367C202.951 39.1367 202.117 38.7083 201.593 37.8516H201.545L201.565 38.4258C201.584 38.763 201.593 39.1322 201.593 39.5332V42.3633H200.916V31.5693H201.49L201.62 32.6289H201.661C202.172 31.8268 202.987 31.4258 204.108 31.4258C205.111 31.4258 205.874 31.7562 206.398 32.417C206.927 33.0732 207.191 34.0303 207.191 35.2881C207.191 36.5094 206.913 37.4574 206.357 38.1318C205.806 38.8018 205.052 39.1367 204.095 39.1367ZM204.081 38.5352C204.842 38.5352 205.43 38.2526 205.845 37.6875C206.264 37.1224 206.474 36.3317 206.474 35.3154C206.474 33.1325 205.685 32.041 204.108 32.041C203.243 32.041 202.607 32.2803 202.201 32.7588C201.796 33.2327 201.593 34.0075 201.593 35.083V35.3018C201.593 36.4639 201.786 37.2933 202.174 37.79C202.566 38.2868 203.201 38.5352 204.081 38.5352ZM212.257 39.1367C211.177 39.1367 210.334 38.804 209.728 38.1387C209.126 37.4733 208.825 36.5413 208.825 35.3428C208.825 34.1579 209.117 33.21 209.7 32.499C210.284 31.7835 211.07 31.4258 212.059 31.4258C212.934 31.4258 213.624 31.7311 214.13 32.3418C214.636 32.9525 214.889 33.7819 214.889 34.8301V35.377H209.536C209.545 36.3978 209.782 37.1771 210.247 37.7148C210.716 38.2526 211.386 38.5215 212.257 38.5215C212.681 38.5215 213.052 38.4919 213.371 38.4326C213.695 38.3734 214.103 38.2458 214.595 38.0498V38.665C214.175 38.8473 213.788 38.9704 213.433 39.0342C213.077 39.1025 212.685 39.1367 212.257 39.1367ZM212.059 32.0273C211.343 32.0273 210.769 32.2643 210.336 32.7383C209.903 33.2077 209.65 33.8867 209.577 34.7754H214.171C214.171 33.9141 213.984 33.2419 213.61 32.7588C213.237 32.2712 212.719 32.0273 212.059 32.0273ZM217.616 31.5693V34.8301H222.333V31.5693H223.003V39H222.333V35.418H217.616V39H216.939V31.5693H217.616ZM226.175 31.5693V34.8301H230.892V31.5693H231.562V39H230.892V35.418H226.175V39H225.498V31.5693H226.175ZM240.202 35.2744C240.202 36.4867 239.908 37.4346 239.32 38.1182C238.732 38.7972 237.921 39.1367 236.887 39.1367C236.235 39.1367 235.661 38.9795 235.164 38.665C234.667 38.3506 234.287 37.8994 234.022 37.3115C233.758 36.7236 233.626 36.0446 233.626 35.2744C233.626 34.0622 233.92 33.1188 234.508 32.4443C235.096 31.7653 235.902 31.4258 236.928 31.4258C237.949 31.4258 238.748 31.7699 239.327 32.458C239.91 33.1416 240.202 34.0804 240.202 35.2744ZM234.337 35.2744C234.337 36.2952 234.56 37.0928 235.007 37.667C235.458 38.2367 236.094 38.5215 236.914 38.5215C237.734 38.5215 238.368 38.2367 238.814 37.667C239.266 37.0928 239.491 36.2952 239.491 35.2744C239.491 34.249 239.263 33.4538 238.808 32.8887C238.356 32.3236 237.721 32.041 236.9 32.041C236.08 32.041 235.447 32.3236 235 32.8887C234.558 33.4492 234.337 34.2445 234.337 35.2744ZM245.227 39.1367C244.165 39.1367 243.333 38.8018 242.731 38.1318C242.13 37.4619 241.829 36.5277 241.829 35.3291C241.829 34.0986 242.141 33.1416 242.766 32.458C243.39 31.7699 244.244 31.4258 245.329 31.4258C245.972 31.4258 246.587 31.5374 247.175 31.7607L246.99 32.3623C246.348 32.1481 245.789 32.041 245.315 32.041C244.404 32.041 243.714 32.3236 243.244 32.8887C242.775 33.4492 242.54 34.2581 242.54 35.3154C242.54 36.318 242.775 37.1042 243.244 37.6738C243.714 38.2389 244.37 38.5215 245.213 38.5215C245.887 38.5215 246.514 38.4007 247.093 38.1592V38.7881C246.619 39.0205 245.997 39.1367 245.227 39.1367ZM253.635 32.1572H251.16V39H250.49V32.1572H247.954V31.5693H253.635V32.1572ZM255.809 31.5693V36.9424L255.768 38.3438L260.177 31.5693H261.079V39H260.43V33.6611L260.457 32.2256L256.048 39H255.166V31.5693H255.809ZM271.244 31.5693H272.085L268.756 35.165L272.324 39H271.415L267.901 35.2334V39H267.211V31.5693H267.901V35.1787L271.244 31.5693ZM278.777 39H278.107V32.1982H275.476C275.339 33.9984 275.17 35.3724 274.97 36.3203C274.774 37.2637 274.519 37.9587 274.204 38.4053C273.894 38.8473 273.491 39.0684 272.994 39.0684C272.816 39.0684 272.661 39.0501 272.529 39.0137V38.3984C272.616 38.4258 272.739 38.4395 272.898 38.4395C273.413 38.4395 273.828 37.8971 274.143 36.8125C274.462 35.7233 274.703 33.9756 274.867 31.5693H278.777V39ZM281.908 31.5693V36.9424L281.867 38.3438L286.276 31.5693H287.179V39H286.529V33.6611L286.557 32.2256L282.147 39H281.266V31.5693H281.908ZM292.675 39.1367C291.595 39.1367 290.752 38.804 290.146 38.1387C289.544 37.4733 289.243 36.5413 289.243 35.3428C289.243 34.1579 289.535 33.21 290.118 32.499C290.701 31.7835 291.488 31.4258 292.477 31.4258C293.352 31.4258 294.042 31.7311 294.548 32.3418C295.054 32.9525 295.307 33.7819 295.307 34.8301V35.377H289.954C289.963 36.3978 290.2 37.1771 290.665 37.7148C291.134 38.2526 291.804 38.5215 292.675 38.5215C293.099 38.5215 293.47 38.4919 293.789 38.4326C294.113 38.3734 294.521 38.2458 295.013 38.0498V38.665C294.593 38.8473 294.206 38.9704 293.851 39.0342C293.495 39.1025 293.103 39.1367 292.675 39.1367ZM292.477 32.0273C291.761 32.0273 291.187 32.2643 290.754 32.7383C290.321 33.2077 290.068 33.8867 289.995 34.7754H294.589C294.589 33.9141 294.402 33.2419 294.028 32.7588C293.655 32.2712 293.137 32.0273 292.477 32.0273ZM298.034 31.5693V34.8301H302.751V31.5693H303.421V39H302.751V35.418H298.034V39H297.357V31.5693H298.034ZM310.633 32.1572H308.158V39H307.488V32.1572H304.952V31.5693H310.633V32.1572ZM318.31 35.2744C318.31 36.4867 318.016 37.4346 317.428 38.1182C316.84 38.7972 316.029 39.1367 314.994 39.1367C314.342 39.1367 313.768 38.9795 313.271 38.665C312.775 38.3506 312.394 37.8994 312.13 37.3115C311.866 36.7236 311.733 36.0446 311.733 35.2744C311.733 34.0622 312.027 33.1188 312.615 32.4443C313.203 31.7653 314.01 31.4258 315.035 31.4258C316.056 31.4258 316.856 31.7699 317.435 32.458C318.018 33.1416 318.31 34.0804 318.31 35.2744ZM312.444 35.2744C312.444 36.2952 312.668 37.0928 313.114 37.667C313.565 38.2367 314.201 38.5215 315.021 38.5215C315.842 38.5215 316.475 38.2367 316.922 37.667C317.373 37.0928 317.599 36.2952 317.599 35.2744C317.599 34.249 317.371 33.4538 316.915 32.8887C316.464 32.3236 315.828 32.041 315.008 32.041C314.188 32.041 313.554 32.3236 313.107 32.8887C312.665 33.4492 312.444 34.2445 312.444 35.2744ZM326.068 33.3604C326.068 33.8298 325.952 34.1989 325.72 34.4678C325.487 34.7321 325.109 34.9167 324.585 35.0215V35.0693C325.182 35.1377 325.613 35.3109 325.877 35.5889C326.146 35.8623 326.28 36.2565 326.28 36.7715C326.28 37.487 326.043 38.0384 325.569 38.4258C325.1 38.8086 324.412 39 323.505 39H320.367V31.5693H323.519C324.366 31.5693 325.002 31.722 325.426 32.0273C325.854 32.3327 326.068 32.777 326.068 33.3604ZM325.562 36.7578C325.562 35.8464 324.863 35.3906 323.464 35.3906H321.044V38.3574H323.56C324.895 38.3574 325.562 37.8242 325.562 36.7578ZM325.351 33.415C325.351 32.9821 325.196 32.6745 324.886 32.4922C324.576 32.3053 324.111 32.2119 323.491 32.2119H321.044V34.7549H323.409C324.102 34.7549 324.599 34.6478 324.899 34.4336C325.2 34.2194 325.351 33.8799 325.351 33.415ZM71.2109 58.1367C70.1491 58.1367 69.3174 57.8018 68.7158 57.1318C68.1143 56.4619 67.8135 55.5277 67.8135 54.3291C67.8135 53.0986 68.1257 52.1416 68.75 51.458C69.3743 50.7699 70.2288 50.4258 71.3135 50.4258C71.9561 50.4258 72.5713 50.5374 73.1592 50.7607L72.9746 51.3623C72.332 51.1481 71.7738 51.041 71.2998 51.041C70.3883 51.041 69.6979 51.3236 69.2285 51.8887C68.7591 52.4492 68.5244 53.2581 68.5244 54.3154C68.5244 55.318 68.7591 56.1042 69.2285 56.6738C69.6979 57.2389 70.3542 57.5215 71.1973 57.5215C71.8717 57.5215 72.4984 57.4007 73.0771 57.1592V57.7881C72.6032 58.0205 71.9811 58.1367 71.2109 58.1367ZM78.0811 58.1367C76.9372 58.1367 76.1032 57.7083 75.5791 56.8516H75.5312L75.5518 57.4258C75.57 57.763 75.5791 58.1322 75.5791 58.5332V61.3633H74.9023V50.5693H75.4766L75.6064 51.6289H75.6475C76.1579 50.8268 76.9736 50.4258 78.0947 50.4258C79.0973 50.4258 79.8607 50.7562 80.3848 51.417C80.9134 52.0732 81.1777 53.0303 81.1777 54.2881C81.1777 55.5094 80.8997 56.4574 80.3438 57.1318C79.7923 57.8018 79.0381 58.1367 78.0811 58.1367ZM78.0674 57.5352C78.8285 57.5352 79.4163 57.2526 79.8311 56.6875C80.2503 56.1224 80.46 55.3317 80.46 54.3154C80.46 52.1325 79.6715 51.041 78.0947 51.041C77.2288 51.041 76.5931 51.2803 76.1875 51.7588C75.7819 52.2327 75.5791 53.0075 75.5791 54.083V54.3018C75.5791 55.4639 75.7728 56.2933 76.1602 56.79C76.5521 57.2868 77.1878 57.5352 78.0674 57.5352ZM86.2432 58.1367C85.1631 58.1367 84.32 57.804 83.7139 57.1387C83.1123 56.4733 82.8115 55.5413 82.8115 54.3428C82.8115 53.1579 83.1032 52.21 83.6865 51.499C84.2699 50.7835 85.056 50.4258 86.0449 50.4258C86.9199 50.4258 87.6104 50.7311 88.1162 51.3418C88.6221 51.9525 88.875 52.7819 88.875 53.8301V54.377H83.5225C83.5316 55.3978 83.7686 56.1771 84.2334 56.7148C84.7028 57.2526 85.3727 57.5215 86.2432 57.5215C86.667 57.5215 87.0384 57.4919 87.3574 57.4326C87.681 57.3734 88.0889 57.2458 88.5811 57.0498V57.665C88.1618 57.8473 87.7744 57.9704 87.4189 58.0342C87.0635 58.1025 86.6715 58.1367 86.2432 58.1367ZM86.0449 51.0273C85.3294 51.0273 84.7552 51.2643 84.3223 51.7383C83.8893 52.2077 83.6364 52.8867 83.5635 53.7754H88.1572C88.1572 52.9141 87.9704 52.2419 87.5967 51.7588C87.223 51.2712 86.7057 51.0273 86.0449 51.0273ZM96.9893 60.5225H96.3193V58H90.6318V60.5225H89.9619V57.3574H90.4541C91.0739 56.487 91.5524 55.4775 91.8896 54.3291C92.2269 53.1807 92.4046 51.9274 92.4229 50.5693H95.998V57.3574H96.9893V60.5225ZM95.3213 57.3574V51.1982H93.0107C92.9014 53.6637 92.3044 55.7168 91.2197 57.3574H95.3213ZM99.2109 50.5693V55.9424L99.1699 57.3438L103.579 50.5693H104.481V58H103.832V52.6611L103.859 51.2256L99.4502 58H98.5684V50.5693H99.2109ZM113.58 58.1367C112.518 58.1367 111.687 57.8018 111.085 57.1318C110.483 56.4619 110.183 55.5277 110.183 54.3291C110.183 53.0986 110.495 52.1416 111.119 51.458C111.743 50.7699 112.598 50.4258 113.683 50.4258C114.325 50.4258 114.94 50.5374 115.528 50.7607L115.344 51.3623C114.701 51.1481 114.143 51.041 113.669 51.041C112.757 51.041 112.067 51.3236 111.598 51.8887C111.128 52.4492 110.894 53.2581 110.894 54.3154C110.894 55.318 111.128 56.1042 111.598 56.6738C112.067 57.2389 112.723 57.5215 113.566 57.5215C114.241 57.5215 114.868 57.4007 115.446 57.1592V57.7881C114.972 58.0205 114.35 58.1367 113.58 58.1367ZM121.988 51.1572H119.514V58H118.844V51.1572H116.308V50.5693H121.988V51.1572ZM122.275 50.5693H122.973L124.545 54.7393C125.023 56.0199 125.326 56.8835 125.454 57.3301H125.495C125.687 56.7422 125.999 55.8649 126.432 54.6982L128.004 50.5693H128.701L125.372 59.2031C125.103 59.9049 124.878 60.3789 124.695 60.625C124.513 60.8711 124.299 61.0557 124.053 61.1787C123.811 61.3018 123.517 61.3633 123.171 61.3633C122.911 61.3633 122.622 61.3154 122.303 61.2197V60.6318C122.567 60.7048 122.852 60.7412 123.157 60.7412C123.39 60.7412 123.595 60.6865 123.772 60.5771C123.95 60.4678 124.11 60.2969 124.251 60.0645C124.397 59.8366 124.563 59.472 124.75 58.9707C124.941 58.474 125.064 58.1504 125.119 58L122.275 50.5693ZM136.009 60.5225H135.339V58H129.651V60.5225H128.981V57.3574H129.474C130.093 56.487 130.572 55.4775 130.909 54.3291C131.246 53.1807 131.424 51.9274 131.442 50.5693H135.018V57.3574H136.009V60.5225ZM134.341 57.3574V51.1982H132.03C131.921 53.6637 131.324 55.7168 130.239 57.3574H134.341ZM138.23 50.5693V55.9424L138.189 57.3438L142.599 50.5693H143.501V58H142.852V52.6611L142.879 51.2256L138.47 58H137.588V50.5693H138.23ZM146.639 50.5693V55.9424L146.598 57.3438L151.007 50.5693H151.909V58H151.26V52.6611L151.287 51.2256L146.878 58H145.996V50.5693H146.639ZM148.956 49.5166C148.277 49.5166 147.76 49.3662 147.404 49.0654C147.049 48.7601 146.841 48.2702 146.782 47.5957H147.384C147.452 48.097 147.607 48.4525 147.849 48.6621C148.09 48.8672 148.464 48.9697 148.97 48.9697C149.471 48.9697 149.842 48.8626 150.084 48.6484C150.33 48.4342 150.48 48.0833 150.535 47.5957H151.137C151.041 48.8763 150.314 49.5166 148.956 49.5166ZM158.718 58H158.041V50.5693H163.968V58H163.291V51.2119H158.718V58ZM172.608 54.2744C172.608 55.4867 172.314 56.4346 171.727 57.1182C171.139 57.7972 170.327 58.1367 169.293 58.1367C168.641 58.1367 168.067 57.9795 167.57 57.665C167.074 57.3506 166.693 56.8994 166.429 56.3115C166.164 55.7236 166.032 55.0446 166.032 54.2744C166.032 53.0622 166.326 52.1188 166.914 51.4443C167.502 50.7653 168.309 50.4258 169.334 50.4258C170.355 50.4258 171.155 50.7699 171.733 51.458C172.317 52.1416 172.608 53.0804 172.608 54.2744ZM166.743 54.2744C166.743 55.2952 166.966 56.0928 167.413 56.667C167.864 57.2367 168.5 57.5215 169.32 57.5215C170.141 57.5215 170.774 57.2367 171.221 56.667C171.672 56.0928 171.897 55.2952 171.897 54.2744C171.897 53.249 171.67 52.4538 171.214 51.8887C170.763 51.3236 170.127 51.041 169.307 51.041C168.486 51.041 167.853 51.3236 167.406 51.8887C166.964 52.4492 166.743 53.2445 166.743 54.2744ZM184.243 58L182.616 53.0303C182.511 52.693 182.377 52.1986 182.213 51.5469H182.172L182.028 52.0527L181.721 53.0439L180.066 58H179.396L177.271 50.5693H177.995L179.185 54.876C179.463 55.9424 179.645 56.7262 179.731 57.2275H179.772C180.041 56.1611 180.237 55.4525 180.36 55.1016L181.892 50.5693H182.507L183.963 55.0879C184.291 56.1589 184.492 56.8675 184.564 57.2139H184.605C184.642 56.9176 184.824 56.1247 185.152 54.835L186.287 50.5693H186.971L184.954 58H184.243ZM191.435 58.1367C190.354 58.1367 189.511 57.804 188.905 57.1387C188.304 56.4733 188.003 55.5413 188.003 54.3428C188.003 53.1579 188.295 52.21 188.878 51.499C189.461 50.7835 190.247 50.4258 191.236 50.4258C192.111 50.4258 192.802 50.7311 193.308 51.3418C193.813 51.9525 194.066 52.7819 194.066 53.8301V54.377H188.714C188.723 55.3978 188.96 56.1771 189.425 56.7148C189.894 57.2526 190.564 57.5215 191.435 57.5215C191.858 57.5215 192.23 57.4919 192.549 57.4326C192.872 57.3734 193.28 57.2458 193.772 57.0498V57.665C193.353 57.8473 192.966 57.9704 192.61 58.0342C192.255 58.1025 191.863 58.1367 191.435 58.1367ZM191.236 51.0273C190.521 51.0273 189.947 51.2643 189.514 51.7383C189.081 52.2077 188.828 52.8867 188.755 53.7754H193.349C193.349 52.9141 193.162 52.2419 192.788 51.7588C192.414 51.2712 191.897 51.0273 191.236 51.0273ZM199.255 50.4258C200.294 50.4258 201.076 50.7539 201.6 51.4102C202.128 52.0618 202.393 53.0166 202.393 54.2744C202.393 55.5094 202.115 56.4619 201.559 57.1318C201.007 57.8018 200.23 58.1367 199.228 58.1367C198.699 58.1367 198.223 58.0273 197.799 57.8086C197.375 57.5898 197.04 57.2799 196.794 56.8789H196.732L196.541 58H196.117V47.3633H196.794V50.0361C196.794 50.4372 196.785 50.8063 196.767 51.1436L196.746 51.7246H196.794C197.076 51.278 197.416 50.9499 197.812 50.7402C198.214 50.5306 198.694 50.4258 199.255 50.4258ZM199.241 51.041C198.366 51.041 197.74 51.2917 197.361 51.793C196.983 52.2943 196.794 53.1214 196.794 54.2744V54.3906C196.794 55.5117 196.99 56.3161 197.382 56.8037C197.778 57.2913 198.394 57.5352 199.228 57.5352C200.039 57.5352 200.649 57.2526 201.06 56.6875C201.47 56.1178 201.675 55.3089 201.675 54.2607C201.675 52.1143 200.864 51.041 199.241 51.041ZM211.272 58.1367C210.129 58.1367 209.295 57.7083 208.771 56.8516H208.723L208.743 57.4258C208.761 57.763 208.771 58.1322 208.771 58.5332V61.3633H208.094V50.5693H208.668L208.798 51.6289H208.839C209.349 50.8268 210.165 50.4258 211.286 50.4258C212.289 50.4258 213.052 50.7562 213.576 51.417C214.105 52.0732 214.369 53.0303 214.369 54.2881C214.369 55.5094 214.091 56.4574 213.535 57.1318C212.984 57.8018 212.229 58.1367 211.272 58.1367ZM211.259 57.5352C212.02 57.5352 212.608 57.2526 213.022 56.6875C213.442 56.1224 213.651 55.3317 213.651 54.3154C213.651 52.1325 212.863 51.041 211.286 51.041C210.42 51.041 209.785 51.2803 209.379 51.7588C208.973 52.2327 208.771 53.0075 208.771 54.083V54.3018C208.771 55.4639 208.964 56.2933 209.352 56.79C209.743 57.2868 210.379 57.5352 211.259 57.5352ZM220.945 58L220.774 56.8242H220.72C220.346 57.3027 219.961 57.6423 219.564 57.8428C219.173 58.0387 218.708 58.1367 218.17 58.1367C217.441 58.1367 216.873 57.9499 216.468 57.5762C216.062 57.2025 215.859 56.6852 215.859 56.0244C215.859 55.2998 216.16 54.737 216.762 54.3359C217.368 53.9349 218.243 53.723 219.387 53.7002L220.802 53.6592V53.167C220.802 52.4606 220.658 51.9274 220.371 51.5674C220.084 51.2074 219.621 51.0273 218.983 51.0273C218.295 51.0273 217.582 51.2188 216.844 51.6016L216.591 51.0137C217.407 50.6309 218.213 50.4395 219.011 50.4395C219.826 50.4395 220.435 50.6514 220.836 51.0752C221.242 51.499 221.444 52.1598 221.444 53.0576V58H220.945ZM218.211 57.5215C219.004 57.5215 219.628 57.2959 220.084 56.8447C220.544 56.389 220.774 55.7578 220.774 54.9512V54.2197L219.476 54.2744C218.432 54.3245 217.687 54.4886 217.24 54.7666C216.798 55.04 216.577 55.4684 216.577 56.0518C216.577 56.5166 216.718 56.8789 217.001 57.1387C217.288 57.3939 217.691 57.5215 218.211 57.5215ZM225.259 53.7754C226.603 53.7754 227.275 53.3128 227.275 52.3877C227.275 51.9456 227.12 51.6084 226.811 51.376C226.501 51.1436 226.059 51.0273 225.484 51.0273C225.12 51.0273 224.78 51.0706 224.466 51.1572C224.151 51.2393 223.814 51.36 223.454 51.5195L223.201 50.959C223.994 50.6035 224.764 50.4258 225.512 50.4258C226.323 50.4258 226.938 50.5944 227.357 50.9316C227.777 51.2689 227.986 51.736 227.986 52.333C227.986 53.1943 227.544 53.7435 226.66 53.9805V54.0215C227.212 54.1582 227.613 54.3861 227.863 54.7051C228.114 55.0195 228.239 55.4229 228.239 55.915C228.239 56.6032 227.986 57.1455 227.48 57.542C226.979 57.9385 226.282 58.1367 225.389 58.1367C224.906 58.1367 224.464 58.0911 224.062 58C223.666 57.9043 223.338 57.779 223.078 57.624V56.9473C223.548 57.1706 223.953 57.3232 224.295 57.4053C224.637 57.4827 225.001 57.5215 225.389 57.5215C226.063 57.5215 226.587 57.3802 226.961 57.0977C227.339 56.8105 227.528 56.4027 227.528 55.874C227.528 55.359 227.348 54.9785 226.988 54.7324C226.628 54.4863 226.088 54.3633 225.368 54.3633H224.336V53.7754H225.259ZM233.366 58.1367C232.222 58.1367 231.388 57.7083 230.864 56.8516H230.816L230.837 57.4258C230.855 57.763 230.864 58.1322 230.864 58.5332V61.3633H230.188V50.5693H230.762L230.892 51.6289H230.933C231.443 50.8268 232.259 50.4258 233.38 50.4258C234.382 50.4258 235.146 50.7562 235.67 51.417C236.199 52.0732 236.463 53.0303 236.463 54.2881C236.463 55.5094 236.185 56.4574 235.629 57.1318C235.077 57.8018 234.323 58.1367 233.366 58.1367ZM233.353 57.5352C234.114 57.5352 234.701 57.2526 235.116 56.6875C235.535 56.1224 235.745 55.3317 235.745 54.3154C235.745 52.1325 234.957 51.041 233.38 51.041C232.514 51.041 231.878 51.2803 231.473 51.7588C231.067 52.2327 230.864 53.0075 230.864 54.083V54.3018C230.864 55.4639 231.058 56.2933 231.445 56.79C231.837 57.2868 232.473 57.5352 233.353 57.5352ZM243.039 58L242.868 56.8242H242.813C242.44 57.3027 242.055 57.6423 241.658 57.8428C241.266 58.0387 240.801 58.1367 240.264 58.1367C239.535 58.1367 238.967 57.9499 238.562 57.5762C238.156 57.2025 237.953 56.6852 237.953 56.0244C237.953 55.2998 238.254 54.737 238.855 54.3359C239.462 53.9349 240.337 53.723 241.48 53.7002L242.896 53.6592V53.167C242.896 52.4606 242.752 51.9274 242.465 51.5674C242.178 51.2074 241.715 51.0273 241.077 51.0273C240.389 51.0273 239.676 51.2188 238.938 51.6016L238.685 51.0137C239.5 50.6309 240.307 50.4395 241.104 50.4395C241.92 50.4395 242.529 50.6514 242.93 51.0752C243.335 51.499 243.538 52.1598 243.538 53.0576V58H243.039ZM240.305 57.5215C241.098 57.5215 241.722 57.2959 242.178 56.8447C242.638 56.389 242.868 55.7578 242.868 54.9512V54.2197L241.569 54.2744C240.526 54.3245 239.781 54.4886 239.334 54.7666C238.892 55.04 238.671 55.4684 238.671 56.0518C238.671 56.5166 238.812 56.8789 239.095 57.1387C239.382 57.3939 239.785 57.5215 240.305 57.5215ZM245.548 53.5361C245.548 50.3096 246.457 48.4707 248.275 48.0195C248.913 47.86 249.524 47.7256 250.107 47.6162C250.695 47.5023 251.215 47.402 251.666 47.3154L251.789 47.9033L250.969 48.0605C249.615 48.3158 248.722 48.5117 248.289 48.6484C247.674 48.8262 247.191 49.2523 246.84 49.9268C246.493 50.6012 246.295 51.5241 246.245 52.6953H246.286C246.774 52.1165 247.248 51.7041 247.708 51.458C248.168 51.2074 248.642 51.082 249.13 51.082C250.041 51.082 250.739 51.376 251.222 51.9639C251.705 52.5518 251.946 53.388 251.946 54.4727C251.946 55.6257 251.668 56.5257 251.112 57.1729C250.556 57.8154 249.775 58.1367 248.768 58.1367C247.747 58.1367 246.954 57.738 246.389 56.9404C245.828 56.1429 245.548 55.0081 245.548 53.5361ZM248.822 57.5215C249.602 57.5215 250.196 57.2617 250.606 56.7422C251.021 56.2227 251.229 55.4753 251.229 54.5C251.229 53.5749 251.044 52.8776 250.675 52.4082C250.31 51.9342 249.772 51.6973 249.062 51.6973C248.533 51.6973 248.02 51.8636 247.523 52.1963C247.031 52.5244 246.601 52.9801 246.231 53.5635C246.231 54.3792 246.332 55.0947 246.532 55.71C246.737 56.3252 247.034 56.7809 247.421 57.0771C247.808 57.3734 248.275 57.5215 248.822 57.5215ZM260.136 54.2744C260.136 55.4867 259.842 56.4346 259.254 57.1182C258.666 57.7972 257.855 58.1367 256.82 58.1367C256.169 58.1367 255.594 57.9795 255.098 57.665C254.601 57.3506 254.22 56.8994 253.956 56.3115C253.692 55.7236 253.56 55.0446 253.56 54.2744C253.56 53.0622 253.854 52.1188 254.441 51.4443C255.029 50.7653 255.836 50.4258 256.861 50.4258C257.882 50.4258 258.682 50.7699 259.261 51.458C259.844 52.1416 260.136 53.0804 260.136 54.2744ZM254.271 54.2744C254.271 55.2952 254.494 56.0928 254.94 56.667C255.392 57.2367 256.027 57.5215 256.848 57.5215C257.668 57.5215 258.301 57.2367 258.748 56.667C259.199 56.0928 259.425 55.2952 259.425 54.2744C259.425 53.249 259.197 52.4538 258.741 51.8887C258.29 51.3236 257.654 51.041 256.834 51.041C256.014 51.041 255.38 51.3236 254.934 51.8887C254.492 52.4492 254.271 53.2445 254.271 54.2744ZM266.91 51.1572H264.436V58H263.766V51.1572H261.229V50.5693H266.91V51.1572ZM272.475 50.5693H273.315L269.986 54.165L273.555 58H272.646L269.132 54.2334V58H268.441V50.5693H269.132V54.1787L272.475 50.5693ZM277.868 58.1367C276.788 58.1367 275.945 57.804 275.339 57.1387C274.737 56.4733 274.437 55.5413 274.437 54.3428C274.437 53.1579 274.728 52.21 275.312 51.499C275.895 50.7835 276.681 50.4258 277.67 50.4258C278.545 50.4258 279.235 50.7311 279.741 51.3418C280.247 51.9525 280.5 52.7819 280.5 53.8301V54.377H275.147C275.157 55.3978 275.394 56.1771 275.858 56.7148C276.328 57.2526 276.998 57.5215 277.868 57.5215C278.292 57.5215 278.663 57.4919 278.982 57.4326C279.306 57.3734 279.714 57.2458 280.206 57.0498V57.665C279.787 57.8473 279.399 57.9704 279.044 58.0342C278.688 58.1025 278.297 58.1367 277.868 58.1367ZM277.67 51.0273C276.954 51.0273 276.38 51.2643 275.947 51.7383C275.514 52.2077 275.261 52.8867 275.188 53.7754H279.782C279.782 52.9141 279.595 52.2419 279.222 51.7588C278.848 51.2712 278.331 51.0273 277.67 51.0273Z" fill="black"/>
<path d="M32.9375 32.5312C32.9375 35.3854 32.0729 37.8125 30.3438 39.8125C28.6146 41.8125 26.1875 43.1875 23.0625 43.9375V44.125C26.75 44.5833 29.5417 45.7083 31.4375 47.5C33.3333 49.2708 34.2812 51.6667 34.2812 54.6875C34.2812 59.0833 32.6875 62.5104 29.5 64.9688C26.3125 67.4062 21.7604 68.625 15.8438 68.625C10.8854 68.625 6.48958 67.8021 2.65625 66.1562V57.9375C4.42708 58.8333 6.375 59.5625 8.5 60.125C10.625 60.6875 12.7292 60.9688 14.8125 60.9688C18 60.9688 20.3542 60.4271 21.875 59.3438C23.3958 58.2604 24.1562 56.5208 24.1562 54.125C24.1562 51.9792 23.2812 50.4583 21.5312 49.5625C19.7812 48.6667 16.9896 48.2188 13.1562 48.2188H9.6875V40.8125H13.2188C16.7604 40.8125 19.3438 40.3542 20.9688 39.4375C22.6146 38.5 23.4375 36.9062 23.4375 34.6562C23.4375 31.1979 21.2708 29.4688 16.9375 29.4688C15.4375 29.4688 13.9062 29.7188 12.3438 30.2188C10.8021 30.7188 9.08333 31.5833 7.1875 32.8125L2.71875 26.1562C6.88542 23.1562 11.8542 21.6562 17.625 21.6562C22.3542 21.6562 26.0833 22.6146 28.8125 24.5312C31.5625 26.4479 32.9375 29.1146 32.9375 32.5312Z" fill="url(#paint0_linear)"/>
<defs>
<linearGradient id="paint0_linear" x1="18.5" y1="0" x2="18.5" y2="88" gradientUnits="userSpaceOnUse">
<stop stop-color="#42B669"/>
<stop offset="1" stop-color="#86A615"/>
</linearGradient>
</defs>
</svg>
