<svg width="33" height="48" viewBox="0 0 33 48" fill="none" xmlns="http://www.w3.org/2000/svg">
<path d="M30.9375 11.5312C30.9375 14.3854 30.0729 16.8125 28.3438 18.8125C26.6146 20.8125 24.1875 22.1875 21.0625 22.9375V23.125C24.75 23.5833 27.5417 24.7083 29.4375 26.5C31.3333 28.2708 32.2812 30.6667 32.2812 33.6875C32.2812 38.0833 30.6875 41.5104 27.5 43.9688C24.3125 46.4062 19.7604 47.625 13.8438 47.625C8.88542 47.625 4.48958 46.8021 0.65625 45.1562V36.9375C2.42708 37.8333 4.375 38.5625 6.5 39.125C8.625 39.6875 10.7292 39.9688 12.8125 39.9688C16 39.9688 18.3542 39.4271 19.875 38.3438C21.3958 37.2604 22.1562 35.5208 22.1562 33.125C22.1562 30.9792 21.2812 29.4583 19.5312 28.5625C17.7812 27.6667 14.9896 27.2188 11.1562 27.2188H7.6875V19.8125H11.2188C14.7604 19.8125 17.3438 19.3542 18.9688 18.4375C20.6146 17.5 21.4375 15.9062 21.4375 13.6562C21.4375 10.1979 19.2708 8.46875 14.9375 8.46875C13.4375 8.46875 11.9062 8.71875 10.3438 9.21875C8.80208 9.71875 7.08333 10.5833 5.1875 11.8125L0.71875 5.15625C4.88542 2.15625 9.85417 0.65625 15.625 0.65625C20.3542 0.65625 24.0833 1.61458 26.8125 3.53125C29.5625 5.44792 30.9375 8.11458 30.9375 11.5312Z" fill="url(#paint0_linear)"/>
<defs>
<linearGradient id="paint0_linear" x1="16.5" y1="-21" x2="16.5" y2="67" gradientUnits="userSpaceOnUse">
<stop stop-color="#42B669"/>
<stop offset="1" stop-color="#86A615"/>
</linearGradient>
</defs>
</svg>
