<svg width="260" height="33" viewBox="0 0 260 33" fill="none" xmlns="http://www.w3.org/2000/svg">
<path d="M5.81055 10L2.08496 0.771484H2.03027C2.06673 1.33659 2.08496 1.91536 2.08496 2.50781V10H1.41504V0.00585938H2.49512L6.03613 8.79688H6.07715L9.61816 0.00585938H10.6709V10H9.9668V2.42578C9.9668 1.89714 9.99414 1.35026 10.0488 0.785156H9.99414L6.25488 10H5.81055ZM16.3311 10.1367C15.251 10.1367 14.4079 9.80404 13.8018 9.13867C13.2002 8.47331 12.8994 7.54134 12.8994 6.34277C12.8994 5.15788 13.1911 4.20996 13.7744 3.49902C14.3577 2.78353 15.1439 2.42578 16.1328 2.42578C17.0078 2.42578 17.6982 2.73112 18.2041 3.3418C18.71 3.95247 18.9629 4.7819 18.9629 5.83008V6.37695H13.6104C13.6195 7.39779 13.8564 8.17708 14.3213 8.71484C14.7907 9.2526 15.4606 9.52148 16.3311 9.52148C16.7549 9.52148 17.1263 9.49186 17.4453 9.43262C17.7689 9.37337 18.1768 9.24577 18.6689 9.0498V9.66504C18.2497 9.84733 17.8623 9.97038 17.5068 10.0342C17.1514 10.1025 16.7594 10.1367 16.3311 10.1367ZM16.1328 3.02734C15.4173 3.02734 14.8431 3.26432 14.4102 3.73828C13.9772 4.20768 13.7243 4.88672 13.6514 5.77539H18.2451C18.2451 4.91406 18.0583 4.24186 17.6846 3.75879C17.3109 3.27116 16.7936 3.02734 16.1328 3.02734ZM23.9805 10.1367C22.9186 10.1367 22.0869 9.80176 21.4854 9.13184C20.8838 8.46191 20.583 7.52767 20.583 6.3291C20.583 5.09863 20.8952 4.1416 21.5195 3.45801C22.1439 2.76986 22.9984 2.42578 24.083 2.42578C24.7256 2.42578 25.3408 2.53743 25.9287 2.76074L25.7441 3.3623C25.1016 3.14811 24.5433 3.04102 24.0693 3.04102C23.1579 3.04102 22.4674 3.32357 21.998 3.88867C21.5286 4.44922 21.2939 5.25814 21.2939 6.31543C21.2939 7.31803 21.5286 8.10417 21.998 8.67383C22.4674 9.23893 23.1237 9.52148 23.9668 9.52148C24.6413 9.52148 25.2679 9.40072 25.8467 9.15918V9.78809C25.3727 10.0205 24.7507 10.1367 23.9805 10.1367ZM32.3887 3.15723H29.9141V10H29.2441V3.15723H26.708V2.56934H32.3887V3.15723ZM40.0654 6.27441C40.0654 7.48665 39.7715 8.43457 39.1836 9.11816C38.5957 9.7972 37.7845 10.1367 36.75 10.1367C36.0983 10.1367 35.5241 9.97949 35.0273 9.66504C34.5306 9.35059 34.1501 8.89941 33.8857 8.31152C33.6214 7.72363 33.4893 7.0446 33.4893 6.27441C33.4893 5.06217 33.7832 4.11882 34.3711 3.44434C34.959 2.7653 35.7656 2.42578 36.791 2.42578C37.8118 2.42578 38.6117 2.76986 39.1904 3.45801C39.7738 4.1416 40.0654 5.0804 40.0654 6.27441ZM34.2002 6.27441C34.2002 7.29525 34.4235 8.09277 34.8701 8.66699C35.3213 9.23665 35.957 9.52148 36.7773 9.52148C37.5977 9.52148 38.2311 9.23665 38.6777 8.66699C39.1289 8.09277 39.3545 7.29525 39.3545 6.27441C39.3545 5.24902 39.1266 4.45378 38.6709 3.88867C38.2197 3.32357 37.584 3.04102 36.7637 3.04102C35.9434 3.04102 35.3099 3.32357 34.8633 3.88867C34.4212 4.44922 34.2002 5.24447 34.2002 6.27441ZM46.4365 10H45.7598V2.56934H51.6865V10H51.0098V3.21191H46.4365V10ZM60.3271 6.27441C60.3271 7.48665 60.0332 8.43457 59.4453 9.11816C58.8574 9.7972 58.0462 10.1367 57.0117 10.1367C56.36 10.1367 55.7858 9.97949 55.2891 9.66504C54.7923 9.35059 54.4118 8.89941 54.1475 8.31152C53.8831 7.72363 53.751 7.0446 53.751 6.27441C53.751 5.06217 54.0449 4.11882 54.6328 3.44434C55.2207 2.7653 56.0273 2.42578 57.0527 2.42578C58.0736 2.42578 58.8734 2.76986 59.4521 3.45801C60.0355 4.1416 60.3271 5.0804 60.3271 6.27441ZM54.4619 6.27441C54.4619 7.29525 54.6852 8.09277 55.1318 8.66699C55.583 9.23665 56.2188 9.52148 57.0391 9.52148C57.8594 9.52148 58.4928 9.23665 58.9395 8.66699C59.3906 8.09277 59.6162 7.29525 59.6162 6.27441C59.6162 5.24902 59.3883 4.45378 58.9326 3.88867C58.4814 3.32357 57.8457 3.04102 57.0254 3.04102C56.2051 3.04102 55.5716 3.32357 55.125 3.88867C54.6829 4.44922 54.4619 5.24447 54.4619 6.27441ZM64.7773 2.56934H65.4746L67.0469 6.73926C67.5254 8.01986 67.8285 8.88346 67.9561 9.33008H67.9971C68.1885 8.74219 68.5007 7.86491 68.9336 6.69824L70.5059 2.56934H71.2031L67.874 11.2031C67.6051 11.9049 67.3796 12.3789 67.1973 12.625C67.015 12.8711 66.8008 13.0557 66.5547 13.1787C66.3132 13.3018 66.0192 13.3633 65.6729 13.3633C65.4131 13.3633 65.1237 13.3154 64.8047 13.2197V12.6318C65.069 12.7048 65.3538 12.7412 65.6592 12.7412C65.8916 12.7412 66.0967 12.6865 66.2744 12.5771C66.4521 12.4678 66.6117 12.2969 66.7529 12.0645C66.8988 11.8366 67.0651 11.472 67.252 10.9707C67.4434 10.474 67.5664 10.1504 67.6211 10L64.7773 2.56934ZM78.5107 12.5225H77.8408V10H72.1533V12.5225H71.4834V9.35742H71.9756C72.5954 8.48698 73.0739 7.47754 73.4111 6.3291C73.7484 5.18066 73.9261 3.92741 73.9443 2.56934H77.5195V9.35742H78.5107V12.5225ZM76.8428 9.35742V3.19824H74.5322C74.4229 5.66374 73.8258 7.7168 72.7412 9.35742H76.8428ZM86.2354 6.27441C86.2354 7.48665 85.9414 8.43457 85.3535 9.11816C84.7656 9.7972 83.9544 10.1367 82.9199 10.1367C82.2682 10.1367 81.694 9.97949 81.1973 9.66504C80.7005 9.35059 80.32 8.89941 80.0557 8.31152C79.7913 7.72363 79.6592 7.0446 79.6592 6.27441C79.6592 5.06217 79.9531 4.11882 80.541 3.44434C81.1289 2.7653 81.9355 2.42578 82.9609 2.42578C83.9818 2.42578 84.7816 2.76986 85.3604 3.45801C85.9437 4.1416 86.2354 5.0804 86.2354 6.27441ZM80.3701 6.27441C80.3701 7.29525 80.5934 8.09277 81.04 8.66699C81.4912 9.23665 82.127 9.52148 82.9473 9.52148C83.7676 9.52148 84.401 9.23665 84.8477 8.66699C85.2988 8.09277 85.5244 7.29525 85.5244 6.27441C85.5244 5.24902 85.2965 4.45378 84.8408 3.88867C84.3896 3.32357 83.7539 3.04102 82.9336 3.04102C82.1133 3.04102 81.4798 3.32357 81.0332 3.88867C80.5911 4.44922 80.3701 5.24447 80.3701 6.27441ZM93.9941 4.36035C93.9941 4.82975 93.8779 5.19889 93.6455 5.46777C93.4131 5.7321 93.0348 5.91667 92.5107 6.02148V6.06934C93.1077 6.1377 93.5384 6.31087 93.8027 6.58887C94.0716 6.8623 94.2061 7.25651 94.2061 7.77148C94.2061 8.48698 93.9691 9.03841 93.4951 9.42578C93.0257 9.80859 92.3376 10 91.4307 10H88.293V2.56934H91.4443C92.292 2.56934 92.9277 2.72201 93.3516 3.02734C93.7799 3.33268 93.9941 3.77702 93.9941 4.36035ZM93.4883 7.75781C93.4883 6.84635 92.7887 6.39062 91.3896 6.39062H88.9697V9.35742H91.4854C92.8206 9.35742 93.4883 8.82422 93.4883 7.75781ZM93.2764 4.41504C93.2764 3.9821 93.1214 3.67448 92.8115 3.49219C92.5016 3.30534 92.0368 3.21191 91.417 3.21191H88.9697V5.75488H91.335C92.0277 5.75488 92.5244 5.64779 92.8252 5.43359C93.126 5.2194 93.2764 4.87988 93.2764 4.41504ZM101.363 10H100.693V3.19824H98.0615C97.9248 4.99837 97.7562 6.3724 97.5557 7.32031C97.3597 8.26367 97.1045 8.95866 96.79 9.40527C96.4801 9.84733 96.0768 10.0684 95.5801 10.0684C95.4023 10.0684 95.2474 10.0501 95.1152 10.0137V9.39844C95.2018 9.42578 95.3249 9.43945 95.4844 9.43945C95.9993 9.43945 96.4141 8.89714 96.7285 7.8125C97.0475 6.72331 97.2891 4.97559 97.4531 2.56934H101.363V10ZM106.853 10.1367C105.772 10.1367 104.929 9.80404 104.323 9.13867C103.722 8.47331 103.421 7.54134 103.421 6.34277C103.421 5.15788 103.713 4.20996 104.296 3.49902C104.879 2.78353 105.665 2.42578 106.654 2.42578C107.529 2.42578 108.22 2.73112 108.726 3.3418C109.231 3.95247 109.484 4.7819 109.484 5.83008V6.37695H104.132C104.141 7.39779 104.378 8.17708 104.843 8.71484C105.312 9.2526 105.982 9.52148 106.853 9.52148C107.276 9.52148 107.648 9.49186 107.967 9.43262C108.29 9.37337 108.698 9.24577 109.19 9.0498V9.66504C108.771 9.84733 108.384 9.97038 108.028 10.0342C107.673 10.1025 107.281 10.1367 106.853 10.1367ZM106.654 3.02734C105.939 3.02734 105.365 3.26432 104.932 3.73828C104.499 4.20768 104.246 4.88672 104.173 5.77539H108.767C108.767 4.91406 108.58 4.24186 108.206 3.75879C107.832 3.27116 107.315 3.02734 106.654 3.02734ZM116.252 3.15723H113.777V10H113.107V3.15723H110.571V2.56934H116.252V3.15723ZM123.484 4.36035C123.484 4.82975 123.368 5.19889 123.136 5.46777C122.903 5.7321 122.525 5.91667 122.001 6.02148V6.06934C122.598 6.1377 123.029 6.31087 123.293 6.58887C123.562 6.8623 123.696 7.25651 123.696 7.77148C123.696 8.48698 123.459 9.03841 122.985 9.42578C122.516 9.80859 121.828 10 120.921 10H117.783V2.56934H120.935C121.782 2.56934 122.418 2.72201 122.842 3.02734C123.27 3.33268 123.484 3.77702 123.484 4.36035ZM122.979 7.75781C122.979 6.84635 122.279 6.39062 120.88 6.39062H118.46V9.35742H120.976C122.311 9.35742 122.979 8.82422 122.979 7.75781ZM122.767 4.41504C122.767 3.9821 122.612 3.67448 122.302 3.49219C121.992 3.30534 121.527 3.21191 120.907 3.21191H118.46V5.75488H120.825C121.518 5.75488 122.015 5.64779 122.315 5.43359C122.616 5.2194 122.767 4.87988 122.767 4.41504ZM131.858 6.27441C131.858 7.48665 131.564 8.43457 130.977 9.11816C130.389 9.7972 129.577 10.1367 128.543 10.1367C127.891 10.1367 127.317 9.97949 126.82 9.66504C126.324 9.35059 125.943 8.89941 125.679 8.31152C125.414 7.72363 125.282 7.0446 125.282 6.27441C125.282 5.06217 125.576 4.11882 126.164 3.44434C126.752 2.7653 127.559 2.42578 128.584 2.42578C129.605 2.42578 130.405 2.76986 130.983 3.45801C131.567 4.1416 131.858 5.0804 131.858 6.27441ZM125.993 6.27441C125.993 7.29525 126.216 8.09277 126.663 8.66699C127.114 9.23665 127.75 9.52148 128.57 9.52148C129.391 9.52148 130.024 9.23665 130.471 8.66699C130.922 8.09277 131.147 7.29525 131.147 6.27441C131.147 5.24902 130.92 4.45378 130.464 3.88867C130.013 3.32357 129.377 3.04102 128.557 3.04102C127.736 3.04102 127.103 3.32357 126.656 3.88867C126.214 4.44922 125.993 5.24447 125.993 6.27441ZM137.095 10.1367C135.951 10.1367 135.117 9.70833 134.593 8.85156H134.545L134.565 9.42578C134.584 9.76302 134.593 10.1322 134.593 10.5332V13.3633H133.916V2.56934H134.49L134.62 3.62891H134.661C135.172 2.82682 135.987 2.42578 137.108 2.42578C138.111 2.42578 138.874 2.75618 139.398 3.41699C139.927 4.07324 140.191 5.03027 140.191 6.28809C140.191 7.50944 139.913 8.45736 139.357 9.13184C138.806 9.80176 138.052 10.1367 137.095 10.1367ZM137.081 9.53516C137.842 9.53516 138.43 9.2526 138.845 8.6875C139.264 8.1224 139.474 7.33171 139.474 6.31543C139.474 4.13249 138.685 3.04102 137.108 3.04102C136.243 3.04102 135.607 3.28027 135.201 3.75879C134.796 4.23275 134.593 5.00749 134.593 6.08301V6.30176C134.593 7.46387 134.786 8.29329 135.174 8.79004C135.566 9.28678 136.201 9.53516 137.081 9.53516ZM145.257 10.1367C144.177 10.1367 143.334 9.80404 142.728 9.13867C142.126 8.47331 141.825 7.54134 141.825 6.34277C141.825 5.15788 142.117 4.20996 142.7 3.49902C143.284 2.78353 144.07 2.42578 145.059 2.42578C145.934 2.42578 146.624 2.73112 147.13 3.3418C147.636 3.95247 147.889 4.7819 147.889 5.83008V6.37695H142.536C142.545 7.39779 142.782 8.17708 143.247 8.71484C143.716 9.2526 144.386 9.52148 145.257 9.52148C145.681 9.52148 146.052 9.49186 146.371 9.43262C146.695 9.37337 147.103 9.24577 147.595 9.0498V9.66504C147.175 9.84733 146.788 9.97038 146.433 10.0342C146.077 10.1025 145.685 10.1367 145.257 10.1367ZM145.059 3.02734C144.343 3.02734 143.769 3.26432 143.336 3.73828C142.903 4.20768 142.65 4.88672 142.577 5.77539H147.171C147.171 4.91406 146.984 4.24186 146.61 3.75879C146.237 3.27116 145.719 3.02734 145.059 3.02734ZM150.616 2.56934V5.83008H155.333V2.56934H156.003V10H155.333V6.41797H150.616V10H149.939V2.56934H150.616ZM159.175 2.56934V5.83008H163.892V2.56934H164.562V10H163.892V6.41797H159.175V10H158.498V2.56934H159.175ZM173.202 6.27441C173.202 7.48665 172.908 8.43457 172.32 9.11816C171.732 9.7972 170.921 10.1367 169.887 10.1367C169.235 10.1367 168.661 9.97949 168.164 9.66504C167.667 9.35059 167.287 8.89941 167.022 8.31152C166.758 7.72363 166.626 7.0446 166.626 6.27441C166.626 5.06217 166.92 4.11882 167.508 3.44434C168.096 2.7653 168.902 2.42578 169.928 2.42578C170.949 2.42578 171.748 2.76986 172.327 3.45801C172.91 4.1416 173.202 5.0804 173.202 6.27441ZM167.337 6.27441C167.337 7.29525 167.56 8.09277 168.007 8.66699C168.458 9.23665 169.094 9.52148 169.914 9.52148C170.734 9.52148 171.368 9.23665 171.814 8.66699C172.266 8.09277 172.491 7.29525 172.491 6.27441C172.491 5.24902 172.263 4.45378 171.808 3.88867C171.356 3.32357 170.721 3.04102 169.9 3.04102C169.08 3.04102 168.447 3.32357 168 3.88867C167.558 4.44922 167.337 5.24447 167.337 6.27441ZM178.227 10.1367C177.165 10.1367 176.333 9.80176 175.731 9.13184C175.13 8.46191 174.829 7.52767 174.829 6.3291C174.829 5.09863 175.141 4.1416 175.766 3.45801C176.39 2.76986 177.244 2.42578 178.329 2.42578C178.972 2.42578 179.587 2.53743 180.175 2.76074L179.99 3.3623C179.348 3.14811 178.789 3.04102 178.315 3.04102C177.404 3.04102 176.714 3.32357 176.244 3.88867C175.775 4.44922 175.54 5.25814 175.54 6.31543C175.54 7.31803 175.775 8.10417 176.244 8.67383C176.714 9.23893 177.37 9.52148 178.213 9.52148C178.887 9.52148 179.514 9.40072 180.093 9.15918V9.78809C179.619 10.0205 178.997 10.1367 178.227 10.1367ZM186.635 3.15723H184.16V10H183.49V3.15723H180.954V2.56934H186.635V3.15723ZM188.809 2.56934V7.94238L188.768 9.34375L193.177 2.56934H194.079V10H193.43V4.66113L193.457 3.22559L189.048 10H188.166V2.56934H188.809ZM204.244 2.56934H205.085L201.756 6.16504L205.324 10H204.415L200.901 6.2334V10H200.211V2.56934H200.901V6.17871L204.244 2.56934ZM211.777 10H211.107V3.19824H208.476C208.339 4.99837 208.17 6.3724 207.97 7.32031C207.774 8.26367 207.519 8.95866 207.204 9.40527C206.894 9.84733 206.491 10.0684 205.994 10.0684C205.816 10.0684 205.661 10.0501 205.529 10.0137V9.39844C205.616 9.42578 205.739 9.43945 205.898 9.43945C206.413 9.43945 206.828 8.89714 207.143 7.8125C207.462 6.72331 207.703 4.97559 207.867 2.56934H211.777V10ZM214.908 2.56934V7.94238L214.867 9.34375L219.276 2.56934H220.179V10H219.529V4.66113L219.557 3.22559L215.147 10H214.266V2.56934H214.908ZM225.675 10.1367C224.595 10.1367 223.752 9.80404 223.146 9.13867C222.544 8.47331 222.243 7.54134 222.243 6.34277C222.243 5.15788 222.535 4.20996 223.118 3.49902C223.701 2.78353 224.488 2.42578 225.477 2.42578C226.352 2.42578 227.042 2.73112 227.548 3.3418C228.054 3.95247 228.307 4.7819 228.307 5.83008V6.37695H222.954C222.963 7.39779 223.2 8.17708 223.665 8.71484C224.134 9.2526 224.804 9.52148 225.675 9.52148C226.099 9.52148 226.47 9.49186 226.789 9.43262C227.113 9.37337 227.521 9.24577 228.013 9.0498V9.66504C227.593 9.84733 227.206 9.97038 226.851 10.0342C226.495 10.1025 226.103 10.1367 225.675 10.1367ZM225.477 3.02734C224.761 3.02734 224.187 3.26432 223.754 3.73828C223.321 4.20768 223.068 4.88672 222.995 5.77539H227.589C227.589 4.91406 227.402 4.24186 227.028 3.75879C226.655 3.27116 226.137 3.02734 225.477 3.02734ZM231.034 2.56934V5.83008H235.751V2.56934H236.421V10H235.751V6.41797H231.034V10H230.357V2.56934H231.034ZM243.633 3.15723H241.158V10H240.488V3.15723H237.952V2.56934H243.633V3.15723ZM251.31 6.27441C251.31 7.48665 251.016 8.43457 250.428 9.11816C249.84 9.7972 249.029 10.1367 247.994 10.1367C247.342 10.1367 246.768 9.97949 246.271 9.66504C245.775 9.35059 245.394 8.89941 245.13 8.31152C244.866 7.72363 244.733 7.0446 244.733 6.27441C244.733 5.06217 245.027 4.11882 245.615 3.44434C246.203 2.7653 247.01 2.42578 248.035 2.42578C249.056 2.42578 249.856 2.76986 250.435 3.45801C251.018 4.1416 251.31 5.0804 251.31 6.27441ZM245.444 6.27441C245.444 7.29525 245.668 8.09277 246.114 8.66699C246.565 9.23665 247.201 9.52148 248.021 9.52148C248.842 9.52148 249.475 9.23665 249.922 8.66699C250.373 8.09277 250.599 7.29525 250.599 6.27441C250.599 5.24902 250.371 4.45378 249.915 3.88867C249.464 3.32357 248.828 3.04102 248.008 3.04102C247.188 3.04102 246.554 3.32357 246.107 3.88867C245.665 4.44922 245.444 5.24447 245.444 6.27441ZM259.068 4.36035C259.068 4.82975 258.952 5.19889 258.72 5.46777C258.487 5.7321 258.109 5.91667 257.585 6.02148V6.06934C258.182 6.1377 258.613 6.31087 258.877 6.58887C259.146 6.8623 259.28 7.25651 259.28 7.77148C259.28 8.48698 259.043 9.03841 258.569 9.42578C258.1 9.80859 257.412 10 256.505 10H253.367V2.56934H256.519C257.366 2.56934 258.002 2.72201 258.426 3.02734C258.854 3.33268 259.068 3.77702 259.068 4.36035ZM258.562 7.75781C258.562 6.84635 257.863 6.39062 256.464 6.39062H254.044V9.35742H256.56C257.895 9.35742 258.562 8.82422 258.562 7.75781ZM258.351 4.41504C258.351 3.9821 258.196 3.67448 257.886 3.49219C257.576 3.30534 257.111 3.21191 256.491 3.21191H254.044V5.75488H256.409C257.102 5.75488 257.599 5.64779 257.899 5.43359C258.2 5.2194 258.351 4.87988 258.351 4.41504ZM4.21094 29.1367C3.14909 29.1367 2.31738 28.8018 1.71582 28.1318C1.11426 27.4619 0.813477 26.5277 0.813477 25.3291C0.813477 24.0986 1.12565 23.1416 1.75 22.458C2.37435 21.7699 3.22884 21.4258 4.31348 21.4258C4.95605 21.4258 5.57129 21.5374 6.15918 21.7607L5.97461 22.3623C5.33203 22.1481 4.77376 22.041 4.2998 22.041C3.38835 22.041 2.69792 22.3236 2.22852 22.8887C1.75911 23.4492 1.52441 24.2581 1.52441 25.3154C1.52441 26.318 1.75911 27.1042 2.22852 27.6738C2.69792 28.2389 3.35417 28.5215 4.19727 28.5215C4.87174 28.5215 5.49837 28.4007 6.07715 28.1592V28.7881C5.60319 29.0205 4.98112 29.1367 4.21094 29.1367ZM11.0811 29.1367C9.93717 29.1367 9.10319 28.7083 8.5791 27.8516H8.53125L8.55176 28.4258C8.56999 28.763 8.5791 29.1322 8.5791 29.5332V32.3633H7.90234V21.5693H8.47656L8.60645 22.6289H8.64746C9.15788 21.8268 9.97363 21.4258 11.0947 21.4258C12.0973 21.4258 12.8607 21.7562 13.3848 22.417C13.9134 23.0732 14.1777 24.0303 14.1777 25.2881C14.1777 26.5094 13.8997 27.4574 13.3438 28.1318C12.7923 28.8018 12.0381 29.1367 11.0811 29.1367ZM11.0674 28.5352C11.8285 28.5352 12.4163 28.2526 12.8311 27.6875C13.2503 27.1224 13.46 26.3317 13.46 25.3154C13.46 23.1325 12.6715 22.041 11.0947 22.041C10.2288 22.041 9.5931 22.2803 9.1875 22.7588C8.7819 23.2327 8.5791 24.0075 8.5791 25.083V25.3018C8.5791 26.4639 8.77279 27.2933 9.16016 27.79C9.55208 28.2868 10.1878 28.5352 11.0674 28.5352ZM19.2432 29.1367C18.1631 29.1367 17.32 28.804 16.7139 28.1387C16.1123 27.4733 15.8115 26.5413 15.8115 25.3428C15.8115 24.1579 16.1032 23.21 16.6865 22.499C17.2699 21.7835 18.056 21.4258 19.0449 21.4258C19.9199 21.4258 20.6104 21.7311 21.1162 22.3418C21.6221 22.9525 21.875 23.7819 21.875 24.8301V25.377H16.5225C16.5316 26.3978 16.7686 27.1771 17.2334 27.7148C17.7028 28.2526 18.3727 28.5215 19.2432 28.5215C19.667 28.5215 20.0384 28.4919 20.3574 28.4326C20.681 28.3734 21.0889 28.2458 21.5811 28.0498V28.665C21.1618 28.8473 20.7744 28.9704 20.4189 29.0342C20.0635 29.1025 19.6715 29.1367 19.2432 29.1367ZM19.0449 22.0273C18.3294 22.0273 17.7552 22.2643 17.3223 22.7383C16.8893 23.2077 16.6364 23.8867 16.5635 24.7754H21.1572C21.1572 23.9141 20.9704 23.2419 20.5967 22.7588C20.223 22.2712 19.7057 22.0273 19.0449 22.0273ZM29.9893 31.5225H29.3193V29H23.6318V31.5225H22.9619V28.3574H23.4541C24.0739 27.487 24.5524 26.4775 24.8896 25.3291C25.2269 24.1807 25.4046 22.9274 25.4229 21.5693H28.998V28.3574H29.9893V31.5225ZM28.3213 28.3574V22.1982H26.0107C25.9014 24.6637 25.3044 26.7168 24.2197 28.3574H28.3213ZM32.2109 21.5693V26.9424L32.1699 28.3438L36.5791 21.5693H37.4814V29H36.832V23.6611L36.8594 22.2256L32.4502 29H31.5684V21.5693H32.2109ZM46.5801 29.1367C45.5182 29.1367 44.6865 28.8018 44.085 28.1318C43.4834 27.4619 43.1826 26.5277 43.1826 25.3291C43.1826 24.0986 43.4948 23.1416 44.1191 22.458C44.7435 21.7699 45.598 21.4258 46.6826 21.4258C47.3252 21.4258 47.9404 21.5374 48.5283 21.7607L48.3438 22.3623C47.7012 22.1481 47.1429 22.041 46.6689 22.041C45.7575 22.041 45.0671 22.3236 44.5977 22.8887C44.1283 23.4492 43.8936 24.2581 43.8936 25.3154C43.8936 26.318 44.1283 27.1042 44.5977 27.6738C45.0671 28.2389 45.7233 28.5215 46.5664 28.5215C47.2409 28.5215 47.8675 28.4007 48.4463 28.1592V28.7881C47.9723 29.0205 47.3503 29.1367 46.5801 29.1367ZM54.9883 22.1572H52.5137V29H51.8438V22.1572H49.3076V21.5693H54.9883V22.1572ZM55.2754 21.5693H55.9727L57.5449 25.7393C58.0234 27.0199 58.3265 27.8835 58.4541 28.3301H58.4951C58.6865 27.7422 58.9987 26.8649 59.4316 25.6982L61.0039 21.5693H61.7012L58.3721 30.2031C58.1032 30.9049 57.8776 31.3789 57.6953 31.625C57.513 31.8711 57.2988 32.0557 57.0527 32.1787C56.8112 32.3018 56.5173 32.3633 56.1709 32.3633C55.9111 32.3633 55.6217 32.3154 55.3027 32.2197V31.6318C55.5671 31.7048 55.8519 31.7412 56.1572 31.7412C56.3896 31.7412 56.5947 31.6865 56.7725 31.5771C56.9502 31.4678 57.1097 31.2969 57.251 31.0645C57.3968 30.8366 57.5632 30.472 57.75 29.9707C57.9414 29.474 58.0645 29.1504 58.1191 29L55.2754 21.5693ZM69.0088 31.5225H68.3389V29H62.6514V31.5225H61.9814V28.3574H62.4736C63.0934 27.487 63.5719 26.4775 63.9092 25.3291C64.2464 24.1807 64.4242 22.9274 64.4424 21.5693H68.0176V28.3574H69.0088V31.5225ZM67.3408 28.3574V22.1982H65.0303C64.9209 24.6637 64.3239 26.7168 63.2393 28.3574H67.3408ZM71.2305 21.5693V26.9424L71.1895 28.3438L75.5986 21.5693H76.501V29H75.8516V23.6611L75.8789 22.2256L71.4697 29H70.5879V21.5693H71.2305ZM79.6387 21.5693V26.9424L79.5977 28.3438L84.0068 21.5693H84.9092V29H84.2598V23.6611L84.2871 22.2256L79.8779 29H78.9961V21.5693H79.6387ZM81.9561 20.5166C81.277 20.5166 80.7598 20.3662 80.4043 20.0654C80.0488 19.7601 79.8415 19.2702 79.7822 18.5957H80.3838C80.4521 19.097 80.6071 19.4525 80.8486 19.6621C81.0902 19.8672 81.4639 19.9697 81.9697 19.9697C82.471 19.9697 82.8424 19.8626 83.084 19.6484C83.3301 19.4342 83.4805 19.0833 83.5352 18.5957H84.1367C84.041 19.8763 83.3141 20.5166 81.9561 20.5166ZM91.7178 29H91.041V21.5693H96.9678V29H96.291V22.2119H91.7178V29ZM105.608 25.2744C105.608 26.4867 105.314 27.4346 104.727 28.1182C104.139 28.7972 103.327 29.1367 102.293 29.1367C101.641 29.1367 101.067 28.9795 100.57 28.665C100.074 28.3506 99.693 27.8994 99.4287 27.3115C99.1644 26.7236 99.0322 26.0446 99.0322 25.2744C99.0322 24.0622 99.3262 23.1188 99.9141 22.4443C100.502 21.7653 101.309 21.4258 102.334 21.4258C103.355 21.4258 104.155 21.7699 104.733 22.458C105.317 23.1416 105.608 24.0804 105.608 25.2744ZM99.7432 25.2744C99.7432 26.2952 99.9665 27.0928 100.413 27.667C100.864 28.2367 101.5 28.5215 102.32 28.5215C103.141 28.5215 103.774 28.2367 104.221 27.667C104.672 27.0928 104.897 26.2952 104.897 25.2744C104.897 24.249 104.67 23.4538 104.214 22.8887C103.763 22.3236 103.127 22.041 102.307 22.041C101.486 22.041 100.853 22.3236 100.406 22.8887C99.9642 23.4492 99.7432 24.2445 99.7432 25.2744ZM117.243 29L115.616 24.0303C115.511 23.693 115.377 23.1986 115.213 22.5469H115.172L115.028 23.0527L114.721 24.0439L113.066 29H112.396L110.271 21.5693H110.995L112.185 25.876C112.463 26.9424 112.645 27.7262 112.731 28.2275H112.772C113.041 27.1611 113.237 26.4525 113.36 26.1016L114.892 21.5693H115.507L116.963 26.0879C117.291 27.1589 117.492 27.8675 117.564 28.2139H117.605C117.642 27.9176 117.824 27.1247 118.152 25.835L119.287 21.5693H119.971L117.954 29H117.243ZM124.435 29.1367C123.354 29.1367 122.511 28.804 121.905 28.1387C121.304 27.4733 121.003 26.5413 121.003 25.3428C121.003 24.1579 121.295 23.21 121.878 22.499C122.461 21.7835 123.247 21.4258 124.236 21.4258C125.111 21.4258 125.802 21.7311 126.308 22.3418C126.813 22.9525 127.066 23.7819 127.066 24.8301V25.377H121.714C121.723 26.3978 121.96 27.1771 122.425 27.7148C122.894 28.2526 123.564 28.5215 124.435 28.5215C124.858 28.5215 125.23 28.4919 125.549 28.4326C125.872 28.3734 126.28 28.2458 126.772 28.0498V28.665C126.353 28.8473 125.966 28.9704 125.61 29.0342C125.255 29.1025 124.863 29.1367 124.435 29.1367ZM124.236 22.0273C123.521 22.0273 122.947 22.2643 122.514 22.7383C122.081 23.2077 121.828 23.8867 121.755 24.7754H126.349C126.349 23.9141 126.162 23.2419 125.788 22.7588C125.414 22.2712 124.897 22.0273 124.236 22.0273ZM132.255 21.4258C133.294 21.4258 134.076 21.7539 134.6 22.4102C135.128 23.0618 135.393 24.0166 135.393 25.2744C135.393 26.5094 135.115 27.4619 134.559 28.1318C134.007 28.8018 133.23 29.1367 132.228 29.1367C131.699 29.1367 131.223 29.0273 130.799 28.8086C130.375 28.5898 130.04 28.2799 129.794 27.8789H129.732L129.541 29H129.117V18.3633H129.794V21.0361C129.794 21.4372 129.785 21.8063 129.767 22.1436L129.746 22.7246H129.794C130.076 22.278 130.416 21.9499 130.812 21.7402C131.214 21.5306 131.694 21.4258 132.255 21.4258ZM132.241 22.041C131.366 22.041 130.74 22.2917 130.361 22.793C129.983 23.2943 129.794 24.1214 129.794 25.2744V25.3906C129.794 26.5117 129.99 27.3161 130.382 27.8037C130.778 28.2913 131.394 28.5352 132.228 28.5352C133.039 28.5352 133.649 28.2526 134.06 27.6875C134.47 27.1178 134.675 26.3089 134.675 25.2607C134.675 23.1143 133.864 22.041 132.241 22.041ZM144.272 29.1367C143.129 29.1367 142.295 28.7083 141.771 27.8516H141.723L141.743 28.4258C141.761 28.763 141.771 29.1322 141.771 29.5332V32.3633H141.094V21.5693H141.668L141.798 22.6289H141.839C142.349 21.8268 143.165 21.4258 144.286 21.4258C145.289 21.4258 146.052 21.7562 146.576 22.417C147.105 23.0732 147.369 24.0303 147.369 25.2881C147.369 26.5094 147.091 27.4574 146.535 28.1318C145.984 28.8018 145.229 29.1367 144.272 29.1367ZM144.259 28.5352C145.02 28.5352 145.608 28.2526 146.022 27.6875C146.442 27.1224 146.651 26.3317 146.651 25.3154C146.651 23.1325 145.863 22.041 144.286 22.041C143.42 22.041 142.785 22.2803 142.379 22.7588C141.973 23.2327 141.771 24.0075 141.771 25.083V25.3018C141.771 26.4639 141.964 27.2933 142.352 27.79C142.743 28.2868 143.379 28.5352 144.259 28.5352ZM153.945 29L153.774 27.8242H153.72C153.346 28.3027 152.961 28.6423 152.564 28.8428C152.173 29.0387 151.708 29.1367 151.17 29.1367C150.441 29.1367 149.873 28.9499 149.468 28.5762C149.062 28.2025 148.859 27.6852 148.859 27.0244C148.859 26.2998 149.16 25.737 149.762 25.3359C150.368 24.9349 151.243 24.723 152.387 24.7002L153.802 24.6592V24.167C153.802 23.4606 153.658 22.9274 153.371 22.5674C153.084 22.2074 152.621 22.0273 151.983 22.0273C151.295 22.0273 150.582 22.2188 149.844 22.6016L149.591 22.0137C150.407 21.6309 151.213 21.4395 152.011 21.4395C152.826 21.4395 153.435 21.6514 153.836 22.0752C154.242 22.499 154.444 23.1598 154.444 24.0576V29H153.945ZM151.211 28.5215C152.004 28.5215 152.628 28.2959 153.084 27.8447C153.544 27.389 153.774 26.7578 153.774 25.9512V25.2197L152.476 25.2744C151.432 25.3245 150.687 25.4886 150.24 25.7666C149.798 26.04 149.577 26.4684 149.577 27.0518C149.577 27.5166 149.718 27.8789 150.001 28.1387C150.288 28.3939 150.691 28.5215 151.211 28.5215ZM158.259 24.7754C159.603 24.7754 160.275 24.3128 160.275 23.3877C160.275 22.9456 160.12 22.6084 159.811 22.376C159.501 22.1436 159.059 22.0273 158.484 22.0273C158.12 22.0273 157.78 22.0706 157.466 22.1572C157.151 22.2393 156.814 22.36 156.454 22.5195L156.201 21.959C156.994 21.6035 157.764 21.4258 158.512 21.4258C159.323 21.4258 159.938 21.5944 160.357 21.9316C160.777 22.2689 160.986 22.736 160.986 23.333C160.986 24.1943 160.544 24.7435 159.66 24.9805V25.0215C160.212 25.1582 160.613 25.3861 160.863 25.7051C161.114 26.0195 161.239 26.4229 161.239 26.915C161.239 27.6032 160.986 28.1455 160.48 28.542C159.979 28.9385 159.282 29.1367 158.389 29.1367C157.906 29.1367 157.464 29.0911 157.062 29C156.666 28.9043 156.338 28.779 156.078 28.624V27.9473C156.548 28.1706 156.953 28.3232 157.295 28.4053C157.637 28.4827 158.001 28.5215 158.389 28.5215C159.063 28.5215 159.587 28.3802 159.961 28.0977C160.339 27.8105 160.528 27.4027 160.528 26.874C160.528 26.359 160.348 25.9785 159.988 25.7324C159.628 25.4863 159.088 25.3633 158.368 25.3633H157.336V24.7754H158.259ZM166.366 29.1367C165.222 29.1367 164.388 28.7083 163.864 27.8516H163.816L163.837 28.4258C163.855 28.763 163.864 29.1322 163.864 29.5332V32.3633H163.188V21.5693H163.762L163.892 22.6289H163.933C164.443 21.8268 165.259 21.4258 166.38 21.4258C167.382 21.4258 168.146 21.7562 168.67 22.417C169.199 23.0732 169.463 24.0303 169.463 25.2881C169.463 26.5094 169.185 27.4574 168.629 28.1318C168.077 28.8018 167.323 29.1367 166.366 29.1367ZM166.353 28.5352C167.114 28.5352 167.701 28.2526 168.116 27.6875C168.535 27.1224 168.745 26.3317 168.745 25.3154C168.745 23.1325 167.957 22.041 166.38 22.041C165.514 22.041 164.878 22.2803 164.473 22.7588C164.067 23.2327 163.864 24.0075 163.864 25.083V25.3018C163.864 26.4639 164.058 27.2933 164.445 27.79C164.837 28.2868 165.473 28.5352 166.353 28.5352ZM176.039 29L175.868 27.8242H175.813C175.44 28.3027 175.055 28.6423 174.658 28.8428C174.266 29.0387 173.801 29.1367 173.264 29.1367C172.535 29.1367 171.967 28.9499 171.562 28.5762C171.156 28.2025 170.953 27.6852 170.953 27.0244C170.953 26.2998 171.254 25.737 171.855 25.3359C172.462 24.9349 173.337 24.723 174.48 24.7002L175.896 24.6592V24.167C175.896 23.4606 175.752 22.9274 175.465 22.5674C175.178 22.2074 174.715 22.0273 174.077 22.0273C173.389 22.0273 172.676 22.2188 171.938 22.6016L171.685 22.0137C172.5 21.6309 173.307 21.4395 174.104 21.4395C174.92 21.4395 175.529 21.6514 175.93 22.0752C176.335 22.499 176.538 23.1598 176.538 24.0576V29H176.039ZM173.305 28.5215C174.098 28.5215 174.722 28.2959 175.178 27.8447C175.638 27.389 175.868 26.7578 175.868 25.9512V25.2197L174.569 25.2744C173.526 25.3245 172.781 25.4886 172.334 25.7666C171.892 26.04 171.671 26.4684 171.671 27.0518C171.671 27.5166 171.812 27.8789 172.095 28.1387C172.382 28.3939 172.785 28.5215 173.305 28.5215ZM178.548 24.5361C178.548 21.3096 179.457 19.4707 181.275 19.0195C181.913 18.86 182.524 18.7256 183.107 18.6162C183.695 18.5023 184.215 18.402 184.666 18.3154L184.789 18.9033L183.969 19.0605C182.615 19.3158 181.722 19.5117 181.289 19.6484C180.674 19.8262 180.191 20.2523 179.84 20.9268C179.493 21.6012 179.295 22.5241 179.245 23.6953H179.286C179.774 23.1165 180.248 22.7041 180.708 22.458C181.168 22.2074 181.642 22.082 182.13 22.082C183.041 22.082 183.739 22.376 184.222 22.9639C184.705 23.5518 184.946 24.388 184.946 25.4727C184.946 26.6257 184.668 27.5257 184.112 28.1729C183.556 28.8154 182.775 29.1367 181.768 29.1367C180.747 29.1367 179.954 28.738 179.389 27.9404C178.828 27.1429 178.548 26.0081 178.548 24.5361ZM181.822 28.5215C182.602 28.5215 183.196 28.2617 183.606 27.7422C184.021 27.2227 184.229 26.4753 184.229 25.5C184.229 24.5749 184.044 23.8776 183.675 23.4082C183.31 22.9342 182.772 22.6973 182.062 22.6973C181.533 22.6973 181.02 22.8636 180.523 23.1963C180.031 23.5244 179.601 23.9801 179.231 24.5635C179.231 25.3792 179.332 26.0947 179.532 26.71C179.737 27.3252 180.034 27.7809 180.421 28.0771C180.808 28.3734 181.275 28.5215 181.822 28.5215ZM193.136 25.2744C193.136 26.4867 192.842 27.4346 192.254 28.1182C191.666 28.7972 190.855 29.1367 189.82 29.1367C189.169 29.1367 188.594 28.9795 188.098 28.665C187.601 28.3506 187.22 27.8994 186.956 27.3115C186.692 26.7236 186.56 26.0446 186.56 25.2744C186.56 24.0622 186.854 23.1188 187.441 22.4443C188.029 21.7653 188.836 21.4258 189.861 21.4258C190.882 21.4258 191.682 21.7699 192.261 22.458C192.844 23.1416 193.136 24.0804 193.136 25.2744ZM187.271 25.2744C187.271 26.2952 187.494 27.0928 187.94 27.667C188.392 28.2367 189.027 28.5215 189.848 28.5215C190.668 28.5215 191.301 28.2367 191.748 27.667C192.199 27.0928 192.425 26.2952 192.425 25.2744C192.425 24.249 192.197 23.4538 191.741 22.8887C191.29 22.3236 190.654 22.041 189.834 22.041C189.014 22.041 188.38 22.3236 187.934 22.8887C187.492 23.4492 187.271 24.2445 187.271 25.2744ZM199.91 22.1572H197.436V29H196.766V22.1572H194.229V21.5693H199.91V22.1572ZM205.475 21.5693H206.315L202.986 25.165L206.555 29H205.646L202.132 25.2334V29H201.441V21.5693H202.132V25.1787L205.475 21.5693ZM210.868 29.1367C209.788 29.1367 208.945 28.804 208.339 28.1387C207.737 27.4733 207.437 26.5413 207.437 25.3428C207.437 24.1579 207.728 23.21 208.312 22.499C208.895 21.7835 209.681 21.4258 210.67 21.4258C211.545 21.4258 212.235 21.7311 212.741 22.3418C213.247 22.9525 213.5 23.7819 213.5 24.8301V25.377H208.147C208.157 26.3978 208.394 27.1771 208.858 27.7148C209.328 28.2526 209.998 28.5215 210.868 28.5215C211.292 28.5215 211.663 28.4919 211.982 28.4326C212.306 28.3734 212.714 28.2458 213.206 28.0498V28.665C212.787 28.8473 212.399 28.9704 212.044 29.0342C211.688 29.1025 211.297 29.1367 210.868 29.1367ZM210.67 22.0273C209.954 22.0273 209.38 22.2643 208.947 22.7383C208.514 23.2077 208.261 23.8867 208.188 24.7754H212.782C212.782 23.9141 212.595 23.2419 212.222 22.7588C211.848 22.2712 211.331 22.0273 210.67 22.0273Z" fill="black"/>
</svg>
