<svg width="605" height="86" viewBox="0 0 605 86" fill="none" xmlns="http://www.w3.org/2000/svg">
<path d="M0.863281 5.03516H17.3105C24.7207 5.03516 30.1621 6.29297 33.6348 8.80859C37.1074 11.3242 38.8438 15.125 38.8438 20.2109C38.8438 23.6836 37.7773 26.582 35.6445 28.9062C33.5391 31.2031 30.4492 32.6797 26.375 33.3359V33.582C31.1602 34.293 34.6738 35.8105 36.916 38.1348C39.1855 40.4316 40.3203 43.6445 40.3203 47.7734C40.3203 53.2969 38.4883 57.5488 34.8242 60.5293C31.1602 63.5098 25.9648 65 19.2383 65H0.863281V5.03516ZM5.04688 31.7363H18.2539C23.8867 31.7363 27.9746 30.8066 30.5176 28.9473C33.0879 27.0605 34.373 24.1211 34.373 20.1289C34.373 16.1367 32.9238 13.2383 30.0254 11.4336C27.1543 9.62891 22.8613 8.72656 17.1465 8.72656H5.04688V31.7363ZM5.04688 35.4277V61.3086H19.1562C30.2578 61.3086 35.8086 56.7969 35.8086 47.7734C35.8086 39.543 29.957 35.4277 18.2539 35.4277H5.04688ZM70.5078 65.8203C64.0273 65.8203 58.9688 63.8242 55.332 59.832C51.7227 55.8398 49.918 50.248 49.918 43.0566C49.918 35.9473 51.668 30.2598 55.168 25.9941C58.668 21.7012 63.3848 19.5547 69.3184 19.5547C74.5684 19.5547 78.7109 21.3867 81.7461 25.0508C84.7812 28.7148 86.2988 33.6914 86.2988 39.9805V43.2617H54.1836C54.2383 49.3867 55.6602 54.0625 58.4492 57.2891C61.2656 60.5156 65.2852 62.1289 70.5078 62.1289C73.0508 62.1289 75.2793 61.9512 77.1934 61.5957C79.1348 61.2402 81.582 60.4746 84.5352 59.2988V62.9902C82.0195 64.084 79.6953 64.8223 77.5625 65.2051C75.4297 65.6152 73.0781 65.8203 70.5078 65.8203ZM69.3184 23.1641C65.0254 23.1641 61.5801 24.5859 58.9824 27.4297C56.3848 30.2461 54.8672 34.3203 54.4297 39.6523H81.9922C81.9922 34.4844 80.8711 30.4512 78.6289 27.5527C76.3867 24.627 73.2832 23.1641 69.3184 23.1641ZM96.1836 38.2168C96.1836 18.8574 101.639 7.82422 112.549 5.11719C116.377 4.16016 120.041 3.35352 123.541 2.69727C127.068 2.01367 130.186 1.41211 132.893 0.892578L133.631 4.41992L128.709 5.36328C120.588 6.89453 115.229 8.07031 112.631 8.89062C108.939 9.95703 106.041 12.5137 103.936 16.5605C101.857 20.6074 100.668 26.1445 100.367 33.1719H100.613C103.539 29.6992 106.383 27.2246 109.145 25.748C111.906 24.2441 114.75 23.4922 117.676 23.4922C123.145 23.4922 127.328 25.2559 130.227 28.7832C133.125 32.3105 134.574 37.3281 134.574 43.8359C134.574 50.7539 132.906 56.1543 129.57 60.0371C126.234 63.8926 121.545 65.8203 115.502 65.8203C109.377 65.8203 104.619 63.4277 101.229 58.6426C97.8652 53.8574 96.1836 47.0488 96.1836 38.2168ZM115.83 62.1289C120.506 62.1289 124.074 60.5703 126.535 57.4531C129.023 54.3359 130.268 49.8516 130.268 44C130.268 38.4492 129.16 34.2656 126.945 31.4492C124.758 28.6055 121.531 27.1836 117.266 27.1836C114.094 27.1836 111.018 28.1816 108.037 30.1777C105.084 32.1465 102.5 34.8809 100.285 38.3809C100.285 43.2754 100.887 47.5684 102.09 51.2598C103.32 54.9512 105.098 57.6855 107.422 59.4629C109.746 61.2402 112.549 62.1289 115.83 62.1289ZM143.146 44V40.6367H162.629V44H143.146ZM192.98 65.8203C186.117 65.8203 181.113 63.25 177.969 58.1094H177.682L177.805 61.5547C177.914 63.5781 177.969 65.793 177.969 68.1992V85.1797H173.908V20.416H177.354L178.133 26.7734H178.379C181.441 21.9609 186.336 19.5547 193.062 19.5547C199.078 19.5547 203.658 21.5371 206.803 25.502C209.975 29.4395 211.561 35.1816 211.561 42.7285C211.561 50.0566 209.893 55.7441 206.557 59.791C203.248 63.8105 198.723 65.8203 192.98 65.8203ZM192.898 62.2109C197.465 62.2109 200.992 60.5156 203.48 57.125C205.996 53.7344 207.254 48.9902 207.254 42.8926C207.254 29.7949 202.523 23.2461 193.062 23.2461C187.867 23.2461 184.053 24.6816 181.619 27.5527C179.186 30.3965 177.969 35.0449 177.969 41.498V42.8105C177.969 49.7832 179.131 54.7598 181.455 57.7402C183.807 60.7207 187.621 62.2109 192.898 62.2109ZM251.018 65L249.992 57.9453H249.664C247.422 60.8164 245.111 62.8535 242.732 64.0566C240.381 65.2324 237.592 65.8203 234.365 65.8203C229.99 65.8203 226.586 64.6992 224.152 62.457C221.719 60.2148 220.502 57.1113 220.502 53.1465C220.502 48.7988 222.307 45.4219 225.916 43.0156C229.553 40.6094 234.803 39.3379 241.666 39.2012L250.156 38.9551V36.002C250.156 31.7637 249.295 28.5645 247.572 26.4043C245.85 24.2441 243.074 23.1641 239.246 23.1641C235.117 23.1641 230.838 24.3125 226.408 26.6094L224.891 23.082C229.785 20.7852 234.625 19.6367 239.41 19.6367C244.305 19.6367 247.955 20.9082 250.361 23.4512C252.795 25.9941 254.012 29.959 254.012 35.3457V65H251.018ZM234.611 62.1289C239.369 62.1289 243.115 60.7754 245.85 58.0684C248.611 55.334 249.992 51.5469 249.992 46.707V42.3184L242.199 42.6465C235.938 42.9473 231.467 43.9316 228.787 45.5996C226.135 47.2402 224.809 49.8105 224.809 53.3105C224.809 56.0996 225.656 58.2734 227.352 59.832C229.074 61.3633 231.494 62.1289 234.611 62.1289ZM276.898 39.6523C284.965 39.6523 288.998 36.877 288.998 31.3262C288.998 28.6738 288.068 26.6504 286.209 25.2559C284.35 23.8613 281.697 23.1641 278.252 23.1641C276.064 23.1641 274.027 23.4238 272.141 23.9434C270.254 24.4355 268.23 25.1602 266.07 26.1172L264.553 22.7539C269.311 20.6211 273.932 19.5547 278.416 19.5547C283.283 19.5547 286.975 20.5664 289.49 22.5898C292.006 24.6133 293.264 27.416 293.264 30.998C293.264 36.166 290.611 39.4609 285.307 40.8828V41.1289C288.615 41.9492 291.021 43.3164 292.525 45.2305C294.029 47.1172 294.781 49.5371 294.781 52.4902C294.781 56.6191 293.264 59.873 290.229 62.252C287.221 64.6309 283.037 65.8203 277.678 65.8203C274.779 65.8203 272.127 65.5469 269.721 65C267.342 64.4258 265.373 63.6738 263.814 62.7441V58.6836C266.631 60.0234 269.064 60.9395 271.115 61.4316C273.166 61.8965 275.354 62.1289 277.678 62.1289C281.725 62.1289 284.869 61.2812 287.111 59.5859C289.381 57.8633 290.516 55.416 290.516 52.2441C290.516 49.1543 289.436 46.8711 287.275 45.3945C285.115 43.918 281.875 43.1797 277.555 43.1797H271.361V39.6523H276.898ZM325.543 65.8203C318.68 65.8203 313.676 63.25 310.531 58.1094H310.244L310.367 61.5547C310.477 63.5781 310.531 65.793 310.531 68.1992V85.1797H306.471V20.416H309.916L310.695 26.7734H310.941C314.004 21.9609 318.898 19.5547 325.625 19.5547C331.641 19.5547 336.221 21.5371 339.365 25.502C342.537 29.4395 344.123 35.1816 344.123 42.7285C344.123 50.0566 342.455 55.7441 339.119 59.791C335.811 63.8105 331.285 65.8203 325.543 65.8203ZM325.461 62.2109C330.027 62.2109 333.555 60.5156 336.043 57.125C338.559 53.7344 339.816 48.9902 339.816 42.8926C339.816 29.7949 335.086 23.2461 325.625 23.2461C320.43 23.2461 316.615 24.6816 314.182 27.5527C311.748 30.3965 310.531 35.0449 310.531 41.498V42.8105C310.531 49.7832 311.693 54.7598 314.018 57.7402C316.369 60.7207 320.184 62.2109 325.461 62.2109ZM383.58 65L382.555 57.9453H382.227C379.984 60.8164 377.674 62.8535 375.295 64.0566C372.943 65.2324 370.154 65.8203 366.928 65.8203C362.553 65.8203 359.148 64.6992 356.715 62.457C354.281 60.2148 353.064 57.1113 353.064 53.1465C353.064 48.7988 354.869 45.4219 358.479 43.0156C362.115 40.6094 367.365 39.3379 374.229 39.2012L382.719 38.9551V36.002C382.719 31.7637 381.857 28.5645 380.135 26.4043C378.412 24.2441 375.637 23.1641 371.809 23.1641C367.68 23.1641 363.4 24.3125 358.971 26.6094L357.453 23.082C362.348 20.7852 367.188 19.6367 371.973 19.6367C376.867 19.6367 380.518 20.9082 382.924 23.4512C385.357 25.9941 386.574 29.959 386.574 35.3457V65H383.58ZM367.174 62.1289C371.932 62.1289 375.678 60.7754 378.412 58.0684C381.174 55.334 382.555 51.5469 382.555 46.707V42.3184L374.762 42.6465C368.5 42.9473 364.029 43.9316 361.35 45.5996C358.697 47.2402 357.371 49.8105 357.371 53.3105C357.371 56.0996 358.219 58.2734 359.914 59.832C361.637 61.3633 364.057 62.1289 367.174 62.1289ZM398.633 38.2168C398.633 18.8574 404.088 7.82422 414.998 5.11719C418.826 4.16016 422.49 3.35352 425.99 2.69727C429.518 2.01367 432.635 1.41211 435.342 0.892578L436.08 4.41992L431.158 5.36328C423.037 6.89453 417.678 8.07031 415.08 8.89062C411.389 9.95703 408.49 12.5137 406.385 16.5605C404.307 20.6074 403.117 26.1445 402.816 33.1719H403.062C405.988 29.6992 408.832 27.2246 411.594 25.748C414.355 24.2441 417.199 23.4922 420.125 23.4922C425.594 23.4922 429.777 25.2559 432.676 28.7832C435.574 32.3105 437.023 37.3281 437.023 43.8359C437.023 50.7539 435.355 56.1543 432.02 60.0371C428.684 63.8926 423.994 65.8203 417.951 65.8203C411.826 65.8203 407.068 63.4277 403.678 58.6426C400.314 53.8574 398.633 47.0488 398.633 38.2168ZM418.279 62.1289C422.955 62.1289 426.523 60.5703 428.984 57.4531C431.473 54.3359 432.717 49.8516 432.717 44C432.717 38.4492 431.609 34.2656 429.395 31.4492C427.207 28.6055 423.98 27.1836 419.715 27.1836C416.543 27.1836 413.467 28.1816 410.486 30.1777C407.533 32.1465 404.949 34.8809 402.734 38.3809C402.734 43.2754 403.336 47.5684 404.539 51.2598C405.77 54.9512 407.547 57.6855 409.871 59.4629C412.195 61.2402 414.998 62.1289 418.279 62.1289ZM486.16 42.6465C486.16 49.9199 484.396 55.6074 480.869 59.709C477.342 63.7832 472.475 65.8203 466.268 65.8203C462.357 65.8203 458.912 64.877 455.932 62.9902C452.951 61.1035 450.668 58.3965 449.082 54.8691C447.496 51.3418 446.703 47.2676 446.703 42.6465C446.703 35.373 448.467 29.7129 451.994 25.666C455.521 21.5918 460.361 19.5547 466.514 19.5547C472.639 19.5547 477.438 21.6191 480.91 25.748C484.41 29.8496 486.16 35.4824 486.16 42.6465ZM450.969 42.6465C450.969 48.7715 452.309 53.5566 454.988 57.002C457.695 60.4199 461.51 62.1289 466.432 62.1289C471.354 62.1289 475.154 60.4199 477.834 57.002C480.541 53.5566 481.895 48.7715 481.895 42.6465C481.895 36.4941 480.527 31.7227 477.793 28.332C475.086 24.9414 471.271 23.2461 466.35 23.2461C461.428 23.2461 457.627 24.9414 454.947 28.332C452.295 31.6953 450.969 36.4668 450.969 42.6465ZM526.807 23.9434H511.959V65H507.939V23.9434H492.723V20.416H526.807V23.9434ZM560.193 20.416H565.238L545.264 41.9902L566.674 65H561.219L540.137 42.4004V65H535.994V20.416H540.137V42.0723L560.193 20.416ZM601.619 65L600.594 57.9453H600.266C598.023 60.8164 595.713 62.8535 593.334 64.0566C590.982 65.2324 588.193 65.8203 584.967 65.8203C580.592 65.8203 577.188 64.6992 574.754 62.457C572.32 60.2148 571.104 57.1113 571.104 53.1465C571.104 48.7988 572.908 45.4219 576.518 43.0156C580.154 40.6094 585.404 39.3379 592.268 39.2012L600.758 38.9551V36.002C600.758 31.7637 599.896 28.5645 598.174 26.4043C596.451 24.2441 593.676 23.1641 589.848 23.1641C585.719 23.1641 581.439 24.3125 577.01 26.6094L575.492 23.082C580.387 20.7852 585.227 19.6367 590.012 19.6367C594.906 19.6367 598.557 20.9082 600.963 23.4512C603.396 25.9941 604.613 29.959 604.613 35.3457V65H601.619ZM585.213 62.1289C589.971 62.1289 593.717 60.7754 596.451 58.0684C599.213 55.334 600.594 51.5469 600.594 46.707V42.3184L592.801 42.6465C586.539 42.9473 582.068 43.9316 579.389 45.5996C576.736 47.2402 575.41 49.8105 575.41 53.3105C575.41 56.0996 576.258 58.2734 577.953 59.832C579.676 61.3633 582.096 62.1289 585.213 62.1289Z" fill="black"/>
</svg>
