<svg width="450" height="21" viewBox="0 0 450 21" fill="none" xmlns="http://www.w3.org/2000/svg">
<path d="M7.11523 2.41602C5.32487 2.41602 3.91536 2.98893 2.88672 4.13477C1.85807 5.2806 1.34375 6.84961 1.34375 8.8418C1.34375 10.8796 1.82878 12.4616 2.79883 13.5879C3.76888 14.7142 5.1556 15.2773 6.95898 15.2773C8.1569 15.2773 9.25716 15.1243 10.2598 14.8184V15.6973C9.31576 16.0293 8.13737 16.1953 6.72461 16.1953C4.7194 16.1953 3.14062 15.5475 1.98828 14.252C0.835938 12.9564 0.259766 11.1465 0.259766 8.82227C0.259766 7.37044 0.533203 6.09115 1.08008 4.98438C1.63346 3.8776 2.42448 3.02474 3.45312 2.42578C4.48828 1.82031 5.68945 1.51758 7.05664 1.51758C8.44987 1.51758 9.69661 1.77799 10.7969 2.29883L10.3965 3.19727C9.35482 2.67643 8.26107 2.41602 7.11523 2.41602ZM21.9785 10.6777C21.9785 12.4095 21.5586 13.7637 20.7188 14.7402C19.8789 15.7103 18.7201 16.1953 17.2422 16.1953C16.3112 16.1953 15.4909 15.9707 14.7812 15.5215C14.0716 15.0723 13.528 14.4277 13.1504 13.5879C12.7728 12.748 12.584 11.778 12.584 10.6777C12.584 8.94596 13.0039 7.59831 13.8438 6.63477C14.6836 5.66471 15.8359 5.17969 17.3008 5.17969C18.7591 5.17969 19.9017 5.67122 20.7285 6.6543C21.5618 7.63086 21.9785 8.97201 21.9785 10.6777ZM13.5996 10.6777C13.5996 12.1361 13.9186 13.2754 14.5566 14.0957C15.2012 14.9095 16.1094 15.3164 17.2812 15.3164C18.4531 15.3164 19.3581 14.9095 19.9961 14.0957C20.6406 13.2754 20.9629 12.1361 20.9629 10.6777C20.9629 9.21289 20.6374 8.07682 19.9863 7.26953C19.3418 6.46224 18.4336 6.05859 17.2617 6.05859C16.0898 6.05859 15.1849 6.46224 14.5469 7.26953C13.9154 8.07031 13.5996 9.20638 13.5996 10.6777ZM26.9199 9.96484C28.8405 9.96484 29.8008 9.30404 29.8008 7.98242C29.8008 7.35091 29.5794 6.86914 29.1367 6.53711C28.694 6.20508 28.0625 6.03906 27.2422 6.03906C26.7214 6.03906 26.2363 6.10091 25.7871 6.22461C25.3379 6.3418 24.8561 6.51432 24.3418 6.74219L23.9805 5.94141C25.1133 5.43359 26.2135 5.17969 27.2812 5.17969C28.4401 5.17969 29.319 5.42057 29.918 5.90234C30.5169 6.38411 30.8164 7.05143 30.8164 7.9043C30.8164 9.13477 30.1849 9.91927 28.9219 10.2578V10.3164C29.7096 10.5117 30.2826 10.8372 30.6406 11.293C30.9987 11.7422 31.1777 12.3184 31.1777 13.0215C31.1777 14.0046 30.8164 14.7793 30.0938 15.3457C29.3776 15.9121 28.3815 16.1953 27.1055 16.1953C26.4154 16.1953 25.7839 16.1302 25.2109 16C24.6445 15.8633 24.1758 15.6842 23.8047 15.4629V14.4961C24.4753 14.8151 25.0547 15.0332 25.543 15.1504C26.0312 15.2611 26.5521 15.3164 27.1055 15.3164C28.069 15.3164 28.8177 15.1146 29.3516 14.7109C29.8919 14.3008 30.1621 13.7181 30.1621 12.9629C30.1621 12.2272 29.9049 11.6836 29.3906 11.332C28.8763 10.9805 28.1048 10.8047 27.0762 10.8047H25.6016V9.96484H26.9199ZM42.623 19.6035H41.666V16H33.541V19.6035H32.584V15.082H33.2871C34.1725 13.8385 34.8561 12.3965 35.3379 10.7559C35.8197 9.11523 36.0736 7.32487 36.0996 5.38477H41.207V15.082H42.623V19.6035ZM40.2402 15.082V6.2832H36.9395C36.7832 9.80534 35.9303 12.7383 34.3809 15.082H40.2402ZM51.3242 16L51.0801 14.3203H51.002C50.4681 15.0039 49.918 15.4889 49.3516 15.7754C48.7917 16.0553 48.1276 16.1953 47.3594 16.1953C46.3177 16.1953 45.5072 15.9284 44.9277 15.3945C44.3483 14.8607 44.0586 14.1217 44.0586 13.1777C44.0586 12.1426 44.4883 11.3385 45.3477 10.7656C46.2135 10.1927 47.4635 9.88997 49.0977 9.85742L51.1191 9.79883V9.0957C51.1191 8.08659 50.9141 7.32487 50.5039 6.81055C50.0938 6.29622 49.4329 6.03906 48.5215 6.03906C47.5384 6.03906 46.5195 6.3125 45.4648 6.85938L45.1035 6.01953C46.2689 5.47266 47.4212 5.19922 48.5605 5.19922C49.7259 5.19922 50.5951 5.50195 51.168 6.10742C51.7474 6.71289 52.0371 7.6569 52.0371 8.93945V16H51.3242ZM47.418 15.3164C48.5508 15.3164 49.4427 14.9941 50.0938 14.3496C50.7513 13.6986 51.0801 12.7969 51.0801 11.6445V10.5996L49.2246 10.6777C47.7337 10.7493 46.6693 10.9837 46.0312 11.3809C45.3997 11.7715 45.084 12.3835 45.084 13.2168C45.084 13.8809 45.2858 14.3984 45.6895 14.7695C46.0996 15.1341 46.6758 15.3164 47.418 15.3164ZM59.7715 16.1953C58.2285 16.1953 57.0241 15.7201 56.1582 14.7695C55.2988 13.819 54.8691 12.4876 54.8691 10.7754C54.8691 9.08268 55.2858 7.72852 56.1191 6.71289C56.9525 5.69076 58.0755 5.17969 59.4883 5.17969C60.7383 5.17969 61.7246 5.61589 62.4473 6.48828C63.1699 7.36068 63.5312 8.54557 63.5312 10.043V10.8242H55.8848C55.8978 12.2826 56.2363 13.3958 56.9004 14.1641C57.571 14.9323 58.528 15.3164 59.7715 15.3164C60.377 15.3164 60.9076 15.2741 61.3633 15.1895C61.8255 15.1048 62.4082 14.9225 63.1113 14.6426V15.5215C62.5124 15.7819 61.959 15.9577 61.4512 16.0488C60.9434 16.1465 60.3835 16.1953 59.7715 16.1953ZM59.4883 6.03906C58.4661 6.03906 57.6458 6.3776 57.0273 7.05469C56.4089 7.72526 56.0475 8.69531 55.9434 9.96484H62.5059C62.5059 8.73438 62.2389 7.77409 61.7051 7.08398C61.1712 6.38737 60.4323 6.03906 59.4883 6.03906ZM71.4023 14.9648L72.0078 13.2559L75.0645 5.38477H76.4023V16H75.4844V6.55664C75.3411 6.9668 75.1882 7.38672 75.0254 7.81641C74.8691 8.24609 73.8079 10.974 71.8418 16H70.9824L68.043 8.53906C67.9193 8.23958 67.8021 7.92383 67.6914 7.5918C67.5872 7.25977 67.4701 6.90169 67.3398 6.51758V16H66.4609V5.38477H67.7402L70.8066 13.1973C71.0475 13.8288 71.2461 14.418 71.4023 14.9648ZM89.3906 16.1953C87.8737 16.1953 86.6855 15.7168 85.8262 14.7598C84.9668 13.8027 84.5371 12.4681 84.5371 10.7559C84.5371 8.99805 84.9831 7.63086 85.875 6.6543C86.7669 5.67122 87.9876 5.17969 89.5371 5.17969C90.4551 5.17969 91.334 5.33919 92.1738 5.6582L91.9102 6.51758C90.9922 6.21159 90.1947 6.05859 89.5176 6.05859C88.2155 6.05859 87.2292 6.46224 86.5586 7.26953C85.888 8.07031 85.5527 9.22591 85.5527 10.7363C85.5527 12.1686 85.888 13.2917 86.5586 14.1055C87.2292 14.9128 88.1667 15.3164 89.3711 15.3164C90.3346 15.3164 91.2298 15.1439 92.0566 14.7988V15.6973C91.3796 16.0293 90.4909 16.1953 89.3906 16.1953ZM103.443 10.6777C103.443 12.4095 103.023 13.7637 102.184 14.7402C101.344 15.7103 100.185 16.1953 98.707 16.1953C97.776 16.1953 96.9557 15.9707 96.2461 15.5215C95.5365 15.0723 94.9928 14.4277 94.6152 13.5879C94.2376 12.748 94.0488 11.778 94.0488 10.6777C94.0488 8.94596 94.4688 7.59831 95.3086 6.63477C96.1484 5.66471 97.3008 5.17969 98.7656 5.17969C100.224 5.17969 101.367 5.67122 102.193 6.6543C103.027 7.63086 103.443 8.97201 103.443 10.6777ZM95.0645 10.6777C95.0645 12.1361 95.3835 13.2754 96.0215 14.0957C96.666 14.9095 97.5742 15.3164 98.7461 15.3164C99.918 15.3164 100.823 14.9095 101.461 14.0957C102.105 13.2754 102.428 12.1361 102.428 10.6777C102.428 9.21289 102.102 8.07682 101.451 7.26953C100.807 6.46224 99.8984 6.05859 98.7266 6.05859C97.5547 6.05859 96.6497 6.46224 96.0117 7.26953C95.3802 8.07031 95.0645 9.20638 95.0645 10.6777ZM114.527 7.94336C114.527 8.61393 114.361 9.14128 114.029 9.52539C113.697 9.90299 113.157 10.1667 112.408 10.3164V10.3848C113.261 10.4824 113.876 10.7298 114.254 11.127C114.638 11.5176 114.83 12.0807 114.83 12.8164C114.83 13.8385 114.492 14.6263 113.814 15.1797C113.144 15.7266 112.161 16 110.865 16H106.383V5.38477H110.885C112.096 5.38477 113.004 5.60286 113.609 6.03906C114.221 6.47526 114.527 7.11003 114.527 7.94336ZM113.805 12.7969C113.805 11.4948 112.805 10.8438 110.807 10.8438H107.35V15.082H110.943C112.851 15.082 113.805 14.3203 113.805 12.7969ZM113.502 8.02148C113.502 7.40299 113.281 6.96354 112.838 6.70312C112.395 6.4362 111.731 6.30273 110.846 6.30273H107.35V9.93555H110.729C111.718 9.93555 112.428 9.78255 112.857 9.47656C113.287 9.17057 113.502 8.68555 113.502 8.02148ZM122.252 16.1953C120.618 16.1953 119.426 15.5833 118.678 14.3594H118.609L118.639 15.1797C118.665 15.6615 118.678 16.1888 118.678 16.7617V20.8047H117.711V5.38477H118.531L118.717 6.89844H118.775C119.505 5.7526 120.67 5.17969 122.271 5.17969C123.704 5.17969 124.794 5.65169 125.543 6.5957C126.298 7.5332 126.676 8.90039 126.676 10.6973C126.676 12.4421 126.279 13.7962 125.484 14.7598C124.697 15.7168 123.619 16.1953 122.252 16.1953ZM122.232 15.3359C123.32 15.3359 124.16 14.9323 124.752 14.125C125.351 13.3177 125.65 12.1882 125.65 10.7363C125.65 7.61784 124.524 6.05859 122.271 6.05859C121.035 6.05859 120.126 6.40039 119.547 7.08398C118.967 7.76107 118.678 8.86784 118.678 10.4043V10.7168C118.678 12.377 118.954 13.5618 119.508 14.2715C120.068 14.9811 120.976 15.3359 122.232 15.3359ZM133.912 16.1953C132.369 16.1953 131.165 15.7201 130.299 14.7695C129.439 13.819 129.01 12.4876 129.01 10.7754C129.01 9.08268 129.426 7.72852 130.26 6.71289C131.093 5.69076 132.216 5.17969 133.629 5.17969C134.879 5.17969 135.865 5.61589 136.588 6.48828C137.311 7.36068 137.672 8.54557 137.672 10.043V10.8242H130.025C130.038 12.2826 130.377 13.3958 131.041 14.1641C131.712 14.9323 132.669 15.3164 133.912 15.3164C134.518 15.3164 135.048 15.2741 135.504 15.1895C135.966 15.1048 136.549 14.9225 137.252 14.6426V15.5215C136.653 15.7819 136.1 15.9577 135.592 16.0488C135.084 16.1465 134.524 16.1953 133.912 16.1953ZM133.629 6.03906C132.607 6.03906 131.786 6.3776 131.168 7.05469C130.549 7.72526 130.188 8.69531 130.084 9.96484H136.646C136.646 8.73438 136.38 7.77409 135.846 7.08398C135.312 6.38737 134.573 6.03906 133.629 6.03906ZM145.543 14.9648L146.148 13.2559L149.205 5.38477H150.543V16H149.625V6.55664C149.482 6.9668 149.329 7.38672 149.166 7.81641C149.01 8.24609 147.949 10.974 145.982 16H145.123L142.184 8.53906C142.06 8.23958 141.943 7.92383 141.832 7.5918C141.728 7.25977 141.611 6.90169 141.48 6.51758V16H140.602V5.38477H141.881L144.947 13.1973C145.188 13.8288 145.387 14.418 145.543 14.9648ZM158.385 16.1953C156.842 16.1953 155.637 15.7201 154.771 14.7695C153.912 13.819 153.482 12.4876 153.482 10.7754C153.482 9.08268 153.899 7.72852 154.732 6.71289C155.566 5.69076 156.689 5.17969 158.102 5.17969C159.352 5.17969 160.338 5.61589 161.061 6.48828C161.783 7.36068 162.145 8.54557 162.145 10.043V10.8242H154.498C154.511 12.2826 154.85 13.3958 155.514 14.1641C156.184 14.9323 157.141 15.3164 158.385 15.3164C158.99 15.3164 159.521 15.2741 159.977 15.1895C160.439 15.1048 161.021 14.9225 161.725 14.6426V15.5215C161.126 15.7819 160.572 15.9577 160.064 16.0488C159.557 16.1465 158.997 16.1953 158.385 16.1953ZM158.102 6.03906C157.079 6.03906 156.259 6.3776 155.641 7.05469C155.022 7.72526 154.661 8.69531 154.557 9.96484H161.119C161.119 8.73438 160.852 7.77409 160.318 7.08398C159.785 6.38737 159.046 6.03906 158.102 6.03906ZM166.041 5.38477V10.043H172.779V5.38477H173.736V16H172.779V10.8828H166.041V16H165.074V5.38477H166.041ZM178.268 5.38477V10.043H185.006V5.38477H185.963V16H185.006V10.8828H178.268V16H177.301V5.38477H178.268ZM190.494 9.85742H193.873C196.367 9.85742 197.613 10.8372 197.613 12.7969C197.613 13.806 197.265 14.5938 196.568 15.1602C195.872 15.7201 194.872 16 193.57 16H189.527V5.38477H190.494V9.85742ZM190.494 10.7754V15.082H193.727C194.645 15.082 195.351 14.89 195.846 14.5059C196.34 14.1217 196.588 13.5456 196.588 12.7773C196.588 12.0742 196.37 11.5664 195.934 11.2539C195.497 10.9349 194.742 10.7754 193.668 10.7754H190.494ZM200.426 16H199.469V5.38477H200.426V16ZM208.287 16.1953C206.744 16.1953 205.54 15.7201 204.674 14.7695C203.814 13.819 203.385 12.4876 203.385 10.7754C203.385 9.08268 203.801 7.72852 204.635 6.71289C205.468 5.69076 206.591 5.17969 208.004 5.17969C209.254 5.17969 210.24 5.61589 210.963 6.48828C211.686 7.36068 212.047 8.54557 212.047 10.043V10.8242H204.4C204.413 12.2826 204.752 13.3958 205.416 14.1641C206.087 14.9323 207.044 15.3164 208.287 15.3164C208.893 15.3164 209.423 15.2741 209.879 15.1895C210.341 15.1048 210.924 14.9225 211.627 14.6426V15.5215C211.028 15.7819 210.475 15.9577 209.967 16.0488C209.459 16.1465 208.899 16.1953 208.287 16.1953ZM208.004 6.03906C206.982 6.03906 206.161 6.3776 205.543 7.05469C204.924 7.72526 204.563 8.69531 204.459 9.96484H211.021C211.021 8.73438 210.755 7.77409 210.221 7.08398C209.687 6.38737 208.948 6.03906 208.004 6.03906ZM224.41 16.1953C222.893 16.1953 221.705 15.7168 220.846 14.7598C219.986 13.8027 219.557 12.4681 219.557 10.7559C219.557 8.99805 220.003 7.63086 220.895 6.6543C221.786 5.67122 223.007 5.17969 224.557 5.17969C225.475 5.17969 226.354 5.33919 227.193 5.6582L226.93 6.51758C226.012 6.21159 225.214 6.05859 224.537 6.05859C223.235 6.05859 222.249 6.46224 221.578 7.26953C220.908 8.07031 220.572 9.22591 220.572 10.7363C220.572 12.1686 220.908 13.2917 221.578 14.1055C222.249 14.9128 223.186 15.3164 224.391 15.3164C225.354 15.3164 226.249 15.1439 227.076 14.7988V15.6973C226.399 16.0293 225.51 16.1953 224.41 16.1953ZM236.129 16L235.885 14.3203H235.807C235.273 15.0039 234.723 15.4889 234.156 15.7754C233.596 16.0553 232.932 16.1953 232.164 16.1953C231.122 16.1953 230.312 15.9284 229.732 15.3945C229.153 14.8607 228.863 14.1217 228.863 13.1777C228.863 12.1426 229.293 11.3385 230.152 10.7656C231.018 10.1927 232.268 9.88997 233.902 9.85742L235.924 9.79883V9.0957C235.924 8.08659 235.719 7.32487 235.309 6.81055C234.898 6.29622 234.238 6.03906 233.326 6.03906C232.343 6.03906 231.324 6.3125 230.27 6.85938L229.908 6.01953C231.074 5.47266 232.226 5.19922 233.365 5.19922C234.531 5.19922 235.4 5.50195 235.973 6.10742C236.552 6.71289 236.842 7.6569 236.842 8.93945V16H236.129ZM232.223 15.3164C233.355 15.3164 234.247 14.9941 234.898 14.3496C235.556 13.6986 235.885 12.7969 235.885 11.6445V10.5996L234.029 10.6777C232.538 10.7493 231.474 10.9837 230.836 11.3809C230.204 11.7715 229.889 12.3835 229.889 13.2168C229.889 13.8809 230.09 14.3984 230.494 14.7695C230.904 15.1341 231.48 15.3164 232.223 15.3164ZM241.207 5.38477V13.0605L241.148 15.0625L247.447 5.38477H248.736V16H247.809V8.37305L247.848 6.32227L241.549 16H240.289V5.38477H241.207ZM244.518 3.88086C243.548 3.88086 242.809 3.66602 242.301 3.23633C241.793 2.80013 241.497 2.10026 241.412 1.13672H242.271C242.369 1.85286 242.59 2.36068 242.936 2.66016C243.281 2.95312 243.814 3.09961 244.537 3.09961C245.253 3.09961 245.784 2.94661 246.129 2.64062C246.48 2.33464 246.695 1.83333 246.773 1.13672H247.633C247.496 2.96615 246.458 3.88086 244.518 3.88086ZM259.039 6.22461H255.504V16H254.547V6.22461H250.924V5.38477H259.039V6.22461ZM262.193 9.85742H265.572C268.066 9.85742 269.312 10.8372 269.312 12.7969C269.312 13.806 268.964 14.5938 268.268 15.1602C267.571 15.7201 266.572 16 265.27 16H261.227V5.38477H262.193V9.85742ZM262.193 10.7754V15.082H265.426C266.344 15.082 267.05 14.89 267.545 14.5059C268.04 14.1217 268.287 13.5456 268.287 12.7773C268.287 12.0742 268.069 11.5664 267.633 11.2539C267.197 10.9349 266.441 10.7754 265.367 10.7754H262.193ZM272.125 16H271.168V5.38477H272.125V16ZM288.238 16H287.281V6.2832H283.521C283.326 8.85482 283.085 10.8177 282.799 12.1719C282.519 13.5195 282.154 14.5124 281.705 15.1504C281.262 15.7819 280.686 16.0977 279.977 16.0977C279.723 16.0977 279.501 16.0716 279.312 16.0195V15.1406C279.436 15.1797 279.612 15.1992 279.84 15.1992C280.576 15.1992 281.168 14.4245 281.617 12.875C282.073 11.319 282.418 8.82227 282.652 5.38477H288.238V16ZM304.82 10.6777C304.82 12.4095 304.43 13.7637 303.648 14.7402C302.874 15.7103 301.809 16.1953 300.455 16.1953C299.179 16.1953 298.15 15.7168 297.369 14.7598C296.594 13.8027 296.197 12.5104 296.178 10.8828H292.76V16H291.793V5.38477H292.76V10.043H296.197C296.288 8.51302 296.712 7.32161 297.467 6.46875C298.229 5.60938 299.244 5.17969 300.514 5.17969C301.842 5.17969 302.89 5.67122 303.658 6.6543C304.433 7.63086 304.82 8.97201 304.82 10.6777ZM297.193 10.6777C297.193 12.1361 297.48 13.2754 298.053 14.0957C298.632 14.9095 299.446 15.3164 300.494 15.3164C301.542 15.3164 302.353 14.9062 302.926 14.0859C303.505 13.2656 303.795 12.1296 303.795 10.6777C303.795 9.2194 303.505 8.08659 302.926 7.2793C302.346 6.46549 301.529 6.05859 300.475 6.05859C299.426 6.05859 298.616 6.46224 298.043 7.26953C297.477 8.07031 297.193 9.20638 297.193 10.6777ZM307.174 9.62305C307.174 5.01367 308.473 2.38672 311.07 1.74219C311.982 1.51432 312.854 1.32227 313.688 1.16602C314.527 1.00326 315.27 0.860026 315.914 0.736328L316.09 1.57617L314.918 1.80078C312.984 2.16536 311.708 2.44531 311.09 2.64062C310.211 2.89453 309.521 3.50326 309.02 4.4668C308.525 5.43034 308.242 6.7487 308.17 8.42188H308.229C308.925 7.59505 309.602 7.00586 310.26 6.6543C310.917 6.29622 311.594 6.11719 312.291 6.11719C313.593 6.11719 314.589 6.53711 315.279 7.37695C315.969 8.2168 316.314 9.41146 316.314 10.9609C316.314 12.6081 315.917 13.8939 315.123 14.8184C314.329 15.7363 313.212 16.1953 311.773 16.1953C310.315 16.1953 309.182 15.6257 308.375 14.4863C307.574 13.347 307.174 11.7259 307.174 9.62305ZM311.852 15.3164C312.965 15.3164 313.814 14.9453 314.4 14.2031C314.993 13.4609 315.289 12.3932 315.289 11C315.289 9.67839 315.025 8.68229 314.498 8.01172C313.977 7.33464 313.209 6.99609 312.193 6.99609C311.438 6.99609 310.706 7.23372 309.996 7.70898C309.293 8.17773 308.678 8.82878 308.15 9.66211C308.15 10.8275 308.294 11.8496 308.58 12.7285C308.873 13.6074 309.296 14.2585 309.85 14.6816C310.403 15.1048 311.07 15.3164 311.852 15.3164ZM328.014 10.6777C328.014 12.4095 327.594 13.7637 326.754 14.7402C325.914 15.7103 324.755 16.1953 323.277 16.1953C322.346 16.1953 321.526 15.9707 320.816 15.5215C320.107 15.0723 319.563 14.4277 319.186 13.5879C318.808 12.748 318.619 11.778 318.619 10.6777C318.619 8.94596 319.039 7.59831 319.879 6.63477C320.719 5.66471 321.871 5.17969 323.336 5.17969C324.794 5.17969 325.937 5.67122 326.764 6.6543C327.597 7.63086 328.014 8.97201 328.014 10.6777ZM319.635 10.6777C319.635 12.1361 319.954 13.2754 320.592 14.0957C321.236 14.9095 322.145 15.3164 323.316 15.3164C324.488 15.3164 325.393 14.9095 326.031 14.0957C326.676 13.2754 326.998 12.1361 326.998 10.6777C326.998 9.21289 326.673 8.07682 326.021 7.26953C325.377 6.46224 324.469 6.05859 323.297 6.05859C322.125 6.05859 321.22 6.46224 320.582 7.26953C319.951 8.07031 319.635 9.20638 319.635 10.6777ZM331.871 5.38477V13.0605L331.812 15.0625L338.111 5.38477H339.4V16H338.473V8.37305L338.512 6.32227L332.213 16H330.953V5.38477H331.871ZM335.182 3.88086C334.212 3.88086 333.473 3.66602 332.965 3.23633C332.457 2.80013 332.161 2.10026 332.076 1.13672H332.936C333.033 1.85286 333.255 2.36068 333.6 2.66016C333.945 2.95312 334.479 3.09961 335.201 3.09961C335.917 3.09961 336.448 2.94661 336.793 2.64062C337.145 2.33464 337.359 1.83333 337.438 1.13672H338.297C338.16 2.96615 337.122 3.88086 335.182 3.88086ZM352.398 16.1953C350.882 16.1953 349.693 15.7168 348.834 14.7598C347.975 13.8027 347.545 12.4681 347.545 10.7559C347.545 8.99805 347.991 7.63086 348.883 6.6543C349.775 5.67122 350.995 5.17969 352.545 5.17969C353.463 5.17969 354.342 5.33919 355.182 5.6582L354.918 6.51758C354 6.21159 353.202 6.05859 352.525 6.05859C351.223 6.05859 350.237 6.46224 349.566 7.26953C348.896 8.07031 348.561 9.22591 348.561 10.7363C348.561 12.1686 348.896 13.2917 349.566 14.1055C350.237 14.9128 351.174 15.3164 352.379 15.3164C353.342 15.3164 354.238 15.1439 355.064 14.7988V15.6973C354.387 16.0293 353.499 16.1953 352.398 16.1953ZM365.016 16H364.059V6.2832H360.299C360.104 8.85482 359.863 10.8177 359.576 12.1719C359.296 13.5195 358.932 14.5124 358.482 15.1504C358.04 15.7819 357.464 16.0977 356.754 16.0977C356.5 16.0977 356.279 16.0716 356.09 16.0195V15.1406C356.214 15.1797 356.389 15.1992 356.617 15.1992C357.353 15.1992 357.945 14.4245 358.395 12.875C358.85 11.319 359.195 8.82227 359.43 5.38477H365.016V16ZM377.35 10.6777C377.35 12.4095 376.93 13.7637 376.09 14.7402C375.25 15.7103 374.091 16.1953 372.613 16.1953C371.682 16.1953 370.862 15.9707 370.152 15.5215C369.443 15.0723 368.899 14.4277 368.521 13.5879C368.144 12.748 367.955 11.778 367.955 10.6777C367.955 8.94596 368.375 7.59831 369.215 6.63477C370.055 5.66471 371.207 5.17969 372.672 5.17969C374.13 5.17969 375.273 5.67122 376.1 6.6543C376.933 7.63086 377.35 8.97201 377.35 10.6777ZM368.971 10.6777C368.971 12.1361 369.29 13.2754 369.928 14.0957C370.572 14.9095 371.48 15.3164 372.652 15.3164C373.824 15.3164 374.729 14.9095 375.367 14.0957C376.012 13.2754 376.334 12.1361 376.334 10.6777C376.334 9.21289 376.008 8.07682 375.357 7.26953C374.713 6.46224 373.805 6.05859 372.633 6.05859C371.461 6.05859 370.556 6.46224 369.918 7.26953C369.286 8.07031 368.971 9.20638 368.971 10.6777ZM384.674 5.38477H385.65V10.541L390.211 5.38477H391.393L386.793 10.541L391.754 16H390.514L385.65 10.6191V16H384.674V10.6191L379.811 16H378.57L383.512 10.5801L378.932 5.38477H380.113L384.674 10.541V5.38477ZM394.557 5.38477V10.043H401.295V5.38477H402.252V16H401.295V10.8828H394.557V16H393.59V5.38477H394.557ZM414.596 10.6777C414.596 12.4095 414.176 13.7637 413.336 14.7402C412.496 15.7103 411.337 16.1953 409.859 16.1953C408.928 16.1953 408.108 15.9707 407.398 15.5215C406.689 15.0723 406.145 14.4277 405.768 13.5879C405.39 12.748 405.201 11.778 405.201 10.6777C405.201 8.94596 405.621 7.59831 406.461 6.63477C407.301 5.66471 408.453 5.17969 409.918 5.17969C411.376 5.17969 412.519 5.67122 413.346 6.6543C414.179 7.63086 414.596 8.97201 414.596 10.6777ZM406.217 10.6777C406.217 12.1361 406.536 13.2754 407.174 14.0957C407.818 14.9095 408.727 15.3164 409.898 15.3164C411.07 15.3164 411.975 14.9095 412.613 14.0957C413.258 13.2754 413.58 12.1361 413.58 10.6777C413.58 9.21289 413.255 8.07682 412.604 7.26953C411.959 6.46224 411.051 6.05859 409.879 6.05859C408.707 6.05859 407.802 6.46224 407.164 7.26953C406.533 8.07031 406.217 9.20638 406.217 10.6777ZM421.773 16.1953C420.257 16.1953 419.068 15.7168 418.209 14.7598C417.35 13.8027 416.92 12.4681 416.92 10.7559C416.92 8.99805 417.366 7.63086 418.258 6.6543C419.15 5.67122 420.37 5.17969 421.92 5.17969C422.838 5.17969 423.717 5.33919 424.557 5.6582L424.293 6.51758C423.375 6.21159 422.577 6.05859 421.9 6.05859C420.598 6.05859 419.612 6.46224 418.941 7.26953C418.271 8.07031 417.936 9.22591 417.936 10.7363C417.936 12.1686 418.271 13.2917 418.941 14.1055C419.612 14.9128 420.549 15.3164 421.754 15.3164C422.717 15.3164 423.613 15.1439 424.439 14.7988V15.6973C423.762 16.0293 422.874 16.1953 421.773 16.1953ZM433.785 6.22461H430.25V16H429.293V6.22461H425.67V5.38477H433.785V6.22461ZM436.891 5.38477V13.0605L436.832 15.0625L443.131 5.38477H444.42V16H443.492V8.37305L443.531 6.32227L437.232 16H435.973V5.38477H436.891ZM447.789 15.2383C447.789 14.6003 448.049 14.2812 448.57 14.2812C449.104 14.2812 449.371 14.6003 449.371 15.2383C449.371 15.8763 449.104 16.1953 448.57 16.1953C448.049 16.1953 447.789 15.8763 447.789 15.2383Z" fill="black"/>
</svg>
