<svg width="199" height="36" viewBox="0 0 199 36" fill="none" xmlns="http://www.w3.org/2000/svg">
<path d="M18.5117 27H16.7188V2.98828H1.88281V27H0.0898438V1.30078H18.5117V27ZM41.1523 17.4199C41.1523 20.5371 40.3965 22.9746 38.8848 24.7324C37.373 26.4785 35.2871 27.3516 32.627 27.3516C30.9512 27.3516 29.4746 26.9473 28.1973 26.1387C26.9199 25.3301 25.9414 24.1699 25.2617 22.6582C24.582 21.1465 24.2422 19.4004 24.2422 17.4199C24.2422 14.3027 24.998 11.877 26.5098 10.1426C28.0215 8.39648 30.0957 7.52344 32.7324 7.52344C35.3574 7.52344 37.4141 8.4082 38.9023 10.1777C40.4023 11.9355 41.1523 14.3496 41.1523 17.4199ZM26.0703 17.4199C26.0703 20.0449 26.6445 22.0957 27.793 23.5723C28.9531 25.0371 30.5879 25.7695 32.6973 25.7695C34.8066 25.7695 36.4355 25.0371 37.584 23.5723C38.7441 22.0957 39.3242 20.0449 39.3242 17.4199C39.3242 14.7832 38.7383 12.7383 37.5664 11.2852C36.4062 9.83203 34.7715 9.10547 32.6621 9.10547C30.5527 9.10547 28.9238 9.83203 27.7754 11.2852C26.6387 12.7266 26.0703 14.7715 26.0703 17.4199ZM47.8496 7.89258V14.291C47.8496 15.9082 48.2422 17.0742 49.0273 17.7891C49.8125 18.5039 51.0195 18.8613 52.6484 18.8613C53.7969 18.8613 54.8926 18.6562 55.9355 18.2461C56.9785 17.8359 58.0625 17.1797 59.1875 16.2773V7.89258H60.9277V27H59.1875V17.9297C58.0156 18.832 56.8613 19.4766 55.7246 19.8633C54.5996 20.25 53.3809 20.4434 52.0684 20.4434C50.1113 20.4434 48.6289 19.9336 47.6211 18.9141C46.625 17.8945 46.127 16.4238 46.127 14.502V7.89258H47.8496ZM75.043 27.3516C72.2656 27.3516 70.0977 26.4961 68.5391 24.7852C66.9922 23.0742 66.2188 20.6777 66.2188 17.5957C66.2188 14.5488 66.9688 12.1113 68.4688 10.2832C69.9688 8.44336 71.9902 7.52344 74.5332 7.52344C76.7832 7.52344 78.5586 8.30859 79.8594 9.87891C81.1602 11.4492 81.8105 13.582 81.8105 16.2773V17.6836H68.0469C68.0703 20.3086 68.6797 22.3125 69.875 23.6953C71.082 25.0781 72.8047 25.7695 75.043 25.7695C76.1328 25.7695 77.0879 25.6934 77.9082 25.541C78.7402 25.3887 79.7891 25.0605 81.0547 24.5566V26.1387C79.9766 26.6074 78.9805 26.9238 78.0664 27.0879C77.1523 27.2637 76.1445 27.3516 75.043 27.3516ZM74.5332 9.07031C72.6934 9.07031 71.2168 9.67969 70.1035 10.8984C68.9902 12.1055 68.3398 13.8516 68.1523 16.1367H79.9648C79.9648 13.9219 79.4844 12.1934 78.5234 10.9512C77.5625 9.69727 76.2324 9.07031 74.5332 9.07031ZM95.9785 25.1367L97.0684 22.0605L102.57 7.89258H104.979V27H103.326V10.002C103.068 10.7402 102.793 11.4961 102.5 12.2695C102.219 13.043 100.309 17.9531 96.7695 27H95.2227L89.9316 13.5703C89.709 13.0312 89.498 12.4629 89.2988 11.8652C89.1113 11.2676 88.9004 10.623 88.666 9.93164V27H87.084V7.89258H89.3867L94.9062 21.9551C95.3398 23.0918 95.6973 24.1523 95.9785 25.1367ZM108.178 7.89258H109.971L114.014 18.6152C115.244 21.9082 116.023 24.1289 116.352 25.2773H116.457C116.949 23.7656 117.752 21.5098 118.865 18.5098L122.908 7.89258H124.701L116.141 30.0938C115.449 31.8984 114.869 33.1172 114.4 33.75C113.932 34.3828 113.381 34.8574 112.748 35.1738C112.127 35.4902 111.371 35.6484 110.48 35.6484C109.812 35.6484 109.068 35.5254 108.248 35.2793V33.7676C108.928 33.9551 109.66 34.0488 110.445 34.0488C111.043 34.0488 111.57 33.9082 112.027 33.627C112.484 33.3457 112.895 32.9062 113.258 32.3086C113.633 31.7227 114.061 30.7852 114.541 29.4961C115.033 28.2188 115.35 27.3867 115.49 27L108.178 7.89258ZM146.146 25.1367L147.236 22.0605L152.738 7.89258H155.146V27H153.494V10.002C153.236 10.7402 152.961 11.4961 152.668 12.2695C152.387 13.043 150.477 17.9531 146.938 27H145.391L140.1 13.5703C139.877 13.0312 139.666 12.4629 139.467 11.8652C139.279 11.2676 139.068 10.623 138.834 9.93164V27H137.252V7.89258H139.555L145.074 21.9551C145.508 23.0918 145.865 24.1523 146.146 25.1367ZM163.285 15.9434H169.367C173.855 15.9434 176.1 17.707 176.1 21.2344C176.1 23.0508 175.473 24.4688 174.219 25.4883C172.965 26.4961 171.166 27 168.822 27H161.545V7.89258H163.285V15.9434ZM163.285 17.5957V25.3477H169.104C170.756 25.3477 172.027 25.002 172.918 24.3105C173.809 23.6191 174.254 22.582 174.254 21.1992C174.254 19.9336 173.861 19.0195 173.076 18.457C172.291 17.8828 170.932 17.5957 168.998 17.5957H163.285ZM181.162 27H179.439V7.89258H181.162V27ZM189.547 20.373V19.7227C189.547 18.2812 189.764 17.1035 190.197 16.1895C190.643 15.2754 191.457 14.2969 192.641 13.2539L194.24 11.8652C195.084 11.1504 195.688 10.4414 196.051 9.73828C196.414 9.03516 196.596 8.22656 196.596 7.3125C196.596 5.82422 196.104 4.64062 195.119 3.76172C194.146 2.88281 192.863 2.44336 191.27 2.44336C190.344 2.44336 189.477 2.54883 188.668 2.75977C187.859 2.95898 186.986 3.28711 186.049 3.74414L185.398 2.33789C186.688 1.77539 187.766 1.40039 188.633 1.21289C189.512 1.02539 190.414 0.931641 191.34 0.931641C193.484 0.931641 195.172 1.51172 196.402 2.67188C197.633 3.82031 198.248 5.40234 198.248 7.41797C198.248 8.21484 198.143 8.91211 197.932 9.50977C197.721 10.1074 197.422 10.6641 197.035 11.1797C196.66 11.6836 196.203 12.1758 195.664 12.6562C195.125 13.125 194.527 13.6348 193.871 14.1855C193.121 14.8184 192.541 15.3984 192.131 15.9258C191.732 16.4414 191.439 16.9863 191.252 17.5605C191.076 18.1348 190.988 18.9902 190.988 20.127V20.373H189.547ZM188.967 25.6289C188.967 24.4805 189.436 23.9062 190.373 23.9062C191.334 23.9062 191.814 24.4805 191.814 25.6289C191.814 26.7773 191.334 27.3516 190.373 27.3516C189.436 27.3516 188.967 26.7773 188.967 25.6289Z" fill="black"/>
</svg>
