<svg width="278" height="90" viewBox="0 0 278 90" fill="none" xmlns="http://www.w3.org/2000/svg">
<path d="M8.6543 10H7.9502V5.08496H2.1123V10H1.41504V0.00585938H2.1123V4.44238H7.9502V0.00585938H8.6543V10ZM14.3213 10.1367C13.2412 10.1367 12.3981 9.80404 11.792 9.13867C11.1904 8.47331 10.8896 7.54134 10.8896 6.34277C10.8896 5.15788 11.1813 4.20996 11.7646 3.49902C12.348 2.78353 13.1341 2.42578 14.123 2.42578C14.998 2.42578 15.6885 2.73112 16.1943 3.3418C16.7002 3.95247 16.9531 4.7819 16.9531 5.83008V6.37695H11.6006C11.6097 7.39779 11.8467 8.17708 12.3115 8.71484C12.7809 9.2526 13.4508 9.52148 14.3213 9.52148C14.7451 9.52148 15.1165 9.49186 15.4355 9.43262C15.7591 9.37337 16.167 9.24577 16.6592 9.0498V9.66504C16.2399 9.84733 15.8525 9.97038 15.4971 10.0342C15.1416 10.1025 14.7497 10.1367 14.3213 10.1367ZM14.123 3.02734C13.4076 3.02734 12.8333 3.26432 12.4004 3.73828C11.9674 4.20768 11.7145 4.88672 11.6416 5.77539H16.2354C16.2354 4.91406 16.0485 4.24186 15.6748 3.75879C15.3011 3.27116 14.7839 3.02734 14.123 3.02734ZM28.7041 12.5225H28.0342V10H22.3467V12.5225H21.6768V9.35742H22.1689C22.7887 8.48698 23.2673 7.47754 23.6045 6.3291C23.9417 5.18066 24.1195 3.92741 24.1377 2.56934H27.7129V9.35742H28.7041V12.5225ZM27.0361 9.35742V3.19824H24.7256C24.6162 5.66374 24.0192 7.7168 22.9346 9.35742H27.0361ZM33.2842 10.1367C32.2041 10.1367 31.361 9.80404 30.7549 9.13867C30.1533 8.47331 29.8525 7.54134 29.8525 6.34277C29.8525 5.15788 30.1442 4.20996 30.7275 3.49902C31.3109 2.78353 32.097 2.42578 33.0859 2.42578C33.9609 2.42578 34.6514 2.73112 35.1572 3.3418C35.6631 3.95247 35.916 4.7819 35.916 5.83008V6.37695H30.5635C30.5726 7.39779 30.8096 8.17708 31.2744 8.71484C31.7438 9.2526 32.4137 9.52148 33.2842 9.52148C33.708 9.52148 34.0794 9.49186 34.3984 9.43262C34.722 9.37337 35.1299 9.24577 35.6221 9.0498V9.66504C35.2028 9.84733 34.8154 9.97038 34.46 10.0342C34.1045 10.1025 33.7126 10.1367 33.2842 10.1367ZM33.0859 3.02734C32.3704 3.02734 31.7962 3.26432 31.3633 3.73828C30.9303 4.20768 30.6774 4.88672 30.6045 5.77539H35.1982C35.1982 4.91406 35.0114 4.24186 34.6377 3.75879C34.264 3.27116 33.7467 3.02734 33.0859 3.02734ZM43.1074 10H42.4375V3.19824H39.8057C39.6689 4.99837 39.5003 6.3724 39.2998 7.32031C39.1038 8.26367 38.8486 8.95866 38.5342 9.40527C38.2243 9.84733 37.821 10.0684 37.3242 10.0684C37.1465 10.0684 36.9915 10.0501 36.8594 10.0137V9.39844C36.946 9.42578 37.069 9.43945 37.2285 9.43945C37.7435 9.43945 38.1582 8.89714 38.4727 7.8125C38.7917 6.72331 39.0332 4.97559 39.1973 2.56934H43.1074V10ZM48.5967 10.1367C47.5166 10.1367 46.6735 9.80404 46.0674 9.13867C45.4658 8.47331 45.165 7.54134 45.165 6.34277C45.165 5.15788 45.4567 4.20996 46.04 3.49902C46.6234 2.78353 47.4095 2.42578 48.3984 2.42578C49.2734 2.42578 49.9639 2.73112 50.4697 3.3418C50.9756 3.95247 51.2285 4.7819 51.2285 5.83008V6.37695H45.876C45.8851 7.39779 46.1221 8.17708 46.5869 8.71484C47.0563 9.2526 47.7262 9.52148 48.5967 9.52148C49.0205 9.52148 49.3919 9.49186 49.7109 9.43262C50.0345 9.37337 50.4424 9.24577 50.9346 9.0498V9.66504C50.5153 9.84733 50.1279 9.97038 49.7725 10.0342C49.417 10.1025 49.0251 10.1367 48.5967 10.1367ZM48.3984 3.02734C47.6829 3.02734 47.1087 3.26432 46.6758 3.73828C46.2428 4.20768 45.9899 4.88672 45.917 5.77539H50.5107C50.5107 4.91406 50.3239 4.24186 49.9502 3.75879C49.5765 3.27116 49.0592 3.02734 48.3984 3.02734ZM57.6475 3.15723H53.9561V10H53.2793V2.56934H57.6475V3.15723ZM59.8145 2.56934V7.94238L59.7734 9.34375L64.1826 2.56934H65.085V10H64.4355V4.66113L64.4629 3.22559L60.0537 10H59.1719V2.56934H59.8145ZM70.7588 10.1367C69.6149 10.1367 68.7809 9.70833 68.2568 8.85156H68.209L68.2295 9.42578C68.2477 9.76302 68.2568 10.1322 68.2568 10.5332V13.3633H67.5801V2.56934H68.1543L68.2842 3.62891H68.3252C68.8356 2.82682 69.6514 2.42578 70.7725 2.42578C71.7751 2.42578 72.5384 2.75618 73.0625 3.41699C73.5911 4.07324 73.8555 5.03027 73.8555 6.28809C73.8555 7.50944 73.5775 8.45736 73.0215 9.13184C72.4701 9.80176 71.7158 10.1367 70.7588 10.1367ZM70.7451 9.53516C71.5062 9.53516 72.0941 9.2526 72.5088 8.6875C72.9281 8.1224 73.1377 7.33171 73.1377 6.31543C73.1377 4.13249 72.3493 3.04102 70.7725 3.04102C69.9066 3.04102 69.2708 3.28027 68.8652 3.75879C68.4596 4.23275 68.2568 5.00749 68.2568 6.08301V6.30176C68.2568 7.46387 68.4505 8.29329 68.8379 8.79004C69.2298 9.28678 69.8656 9.53516 70.7451 9.53516ZM74.6758 2.56934H75.373L76.9453 6.73926C77.4238 8.01986 77.7269 8.88346 77.8545 9.33008H77.8955C78.0869 8.74219 78.3991 7.86491 78.832 6.69824L80.4043 2.56934H81.1016L77.7725 11.2031C77.5036 11.9049 77.278 12.3789 77.0957 12.625C76.9134 12.8711 76.6992 13.0557 76.4531 13.1787C76.2116 13.3018 75.9176 13.3633 75.5713 13.3633C75.3115 13.3633 75.0221 13.3154 74.7031 13.2197V12.6318C74.9674 12.7048 75.2523 12.7412 75.5576 12.7412C75.79 12.7412 75.9951 12.6865 76.1729 12.5771C76.3506 12.4678 76.5101 12.2969 76.6514 12.0645C76.7972 11.8366 76.9635 11.472 77.1504 10.9707C77.3418 10.474 77.4648 10.1504 77.5195 10L74.6758 2.56934ZM85.3467 10.1367C84.2666 10.1367 83.4235 9.80404 82.8174 9.13867C82.2158 8.47331 81.915 7.54134 81.915 6.34277C81.915 5.15788 82.2067 4.20996 82.79 3.49902C83.3734 2.78353 84.1595 2.42578 85.1484 2.42578C86.0234 2.42578 86.7139 2.73112 87.2197 3.3418C87.7256 3.95247 87.9785 4.7819 87.9785 5.83008V6.37695H82.626C82.6351 7.39779 82.8721 8.17708 83.3369 8.71484C83.8063 9.2526 84.4762 9.52148 85.3467 9.52148C85.7705 9.52148 86.1419 9.49186 86.4609 9.43262C86.7845 9.37337 87.1924 9.24577 87.6846 9.0498V9.66504C87.2653 9.84733 86.8779 9.97038 86.5225 10.0342C86.167 10.1025 85.7751 10.1367 85.3467 10.1367ZM85.1484 3.02734C84.4329 3.02734 83.8587 3.26432 83.4258 3.73828C82.9928 4.20768 82.7399 4.88672 82.667 5.77539H87.2607C87.2607 4.91406 87.0739 4.24186 86.7002 3.75879C86.3265 3.27116 85.8092 3.02734 85.1484 3.02734ZM93.4883 9.27539L93.9121 8.0791L96.0518 2.56934H96.9883V10H96.3457V3.38965C96.2454 3.67676 96.1383 3.9707 96.0244 4.27148C95.915 4.57227 95.1722 6.48177 93.7959 10H93.1943L91.1367 4.77734C91.0501 4.56771 90.9681 4.34668 90.8906 4.11426C90.8177 3.88184 90.7357 3.63118 90.6445 3.3623V10H90.0293V2.56934H90.9248L93.0713 8.03809C93.2399 8.48014 93.3789 8.89258 93.4883 9.27539ZM103.79 10H103.113V2.56934H109.04V10H108.363V3.21191H103.79V10ZM114.714 10.1367C113.57 10.1367 112.736 9.70833 112.212 8.85156H112.164L112.185 9.42578C112.203 9.76302 112.212 10.1322 112.212 10.5332V13.3633H111.535V2.56934H112.109L112.239 3.62891H112.28C112.791 2.82682 113.606 2.42578 114.728 2.42578C115.73 2.42578 116.493 2.75618 117.018 3.41699C117.546 4.07324 117.811 5.03027 117.811 6.28809C117.811 7.50944 117.533 8.45736 116.977 9.13184C116.425 9.80176 115.671 10.1367 114.714 10.1367ZM114.7 9.53516C115.461 9.53516 116.049 9.2526 116.464 8.6875C116.883 8.1224 117.093 7.33171 117.093 6.31543C117.093 4.13249 116.304 3.04102 114.728 3.04102C113.862 3.04102 113.226 3.28027 112.82 3.75879C112.415 4.23275 112.212 5.00749 112.212 6.08301V6.30176C112.212 7.46387 112.406 8.29329 112.793 8.79004C113.185 9.28678 113.821 9.53516 114.7 9.53516ZM126.021 6.27441C126.021 7.48665 125.727 8.43457 125.139 9.11816C124.551 9.7972 123.74 10.1367 122.705 10.1367C122.053 10.1367 121.479 9.97949 120.982 9.66504C120.486 9.35059 120.105 8.89941 119.841 8.31152C119.576 7.72363 119.444 7.0446 119.444 6.27441C119.444 5.06217 119.738 4.11882 120.326 3.44434C120.914 2.7653 121.721 2.42578 122.746 2.42578C123.767 2.42578 124.567 2.76986 125.146 3.45801C125.729 4.1416 126.021 5.0804 126.021 6.27441ZM120.155 6.27441C120.155 7.29525 120.379 8.09277 120.825 8.66699C121.276 9.23665 121.912 9.52148 122.732 9.52148C123.553 9.52148 124.186 9.23665 124.633 8.66699C125.084 8.09277 125.31 7.29525 125.31 6.27441C125.31 5.24902 125.082 4.45378 124.626 3.88867C124.175 3.32357 123.539 3.04102 122.719 3.04102C121.898 3.04102 121.265 3.32357 120.818 3.88867C120.376 4.44922 120.155 5.24447 120.155 6.27441ZM131.079 10.1367C129.999 10.1367 129.156 9.80404 128.55 9.13867C127.948 8.47331 127.647 7.54134 127.647 6.34277C127.647 5.15788 127.939 4.20996 128.522 3.49902C129.106 2.78353 129.892 2.42578 130.881 2.42578C131.756 2.42578 132.446 2.73112 132.952 3.3418C133.458 3.95247 133.711 4.7819 133.711 5.83008V6.37695H128.358C128.368 7.39779 128.604 8.17708 129.069 8.71484C129.539 9.2526 130.209 9.52148 131.079 9.52148C131.503 9.52148 131.874 9.49186 132.193 9.43262C132.517 9.37337 132.925 9.24577 133.417 9.0498V9.66504C132.998 9.84733 132.61 9.97038 132.255 10.0342C131.899 10.1025 131.507 10.1367 131.079 10.1367ZM130.881 3.02734C130.165 3.02734 129.591 3.26432 129.158 3.73828C128.725 4.20768 128.472 4.88672 128.399 5.77539H132.993C132.993 4.91406 132.806 4.24186 132.433 3.75879C132.059 3.27116 131.542 3.02734 130.881 3.02734ZM139.795 2.56934H140.636L137.307 6.16504L140.875 10H139.966L136.452 6.2334V10H135.762V2.56934H136.452V6.17871L139.795 2.56934ZM146.904 3.15723H144.43V10H143.76V3.15723H141.224V2.56934H146.904V3.15723ZM149.112 5.7002H151.478C153.223 5.7002 154.096 6.38607 154.096 7.75781C154.096 8.46419 153.852 9.01562 153.364 9.41211C152.877 9.80404 152.177 10 151.266 10H148.436V2.56934H149.112V5.7002ZM149.112 6.34277V9.35742H151.375C152.018 9.35742 152.512 9.22298 152.858 8.9541C153.205 8.68522 153.378 8.2819 153.378 7.74414C153.378 7.25195 153.225 6.89648 152.92 6.67773C152.615 6.45443 152.086 6.34277 151.334 6.34277H149.112ZM156.064 10H155.395V2.56934H156.064V10ZM165.17 10.1367C164.108 10.1367 163.276 9.80176 162.675 9.13184C162.073 8.46191 161.772 7.52767 161.772 6.3291C161.772 5.09863 162.085 4.1416 162.709 3.45801C163.333 2.76986 164.188 2.42578 165.272 2.42578C165.915 2.42578 166.53 2.53743 167.118 2.76074L166.934 3.3623C166.291 3.14811 165.733 3.04102 165.259 3.04102C164.347 3.04102 163.657 3.32357 163.188 3.88867C162.718 4.44922 162.483 5.25814 162.483 6.31543C162.483 7.31803 162.718 8.10417 163.188 8.67383C163.657 9.23893 164.313 9.52148 165.156 9.52148C165.831 9.52148 166.457 9.40072 167.036 9.15918V9.78809C166.562 10.0205 165.94 10.1367 165.17 10.1367ZM173.578 3.15723H171.104V10H170.434V3.15723H167.897V2.56934H173.578V3.15723ZM181.255 6.27441C181.255 7.48665 180.961 8.43457 180.373 9.11816C179.785 9.7972 178.974 10.1367 177.939 10.1367C177.288 10.1367 176.714 9.97949 176.217 9.66504C175.72 9.35059 175.34 8.89941 175.075 8.31152C174.811 7.72363 174.679 7.0446 174.679 6.27441C174.679 5.06217 174.973 4.11882 175.561 3.44434C176.148 2.7653 176.955 2.42578 177.98 2.42578C179.001 2.42578 179.801 2.76986 180.38 3.45801C180.963 4.1416 181.255 5.0804 181.255 6.27441ZM175.39 6.27441C175.39 7.29525 175.613 8.09277 176.06 8.66699C176.511 9.23665 177.146 9.52148 177.967 9.52148C178.787 9.52148 179.421 9.23665 179.867 8.66699C180.318 8.09277 180.544 7.29525 180.544 6.27441C180.544 5.24902 180.316 4.45378 179.86 3.88867C179.409 3.32357 178.773 3.04102 177.953 3.04102C177.133 3.04102 176.499 3.32357 176.053 3.88867C175.611 4.44922 175.39 5.24447 175.39 6.27441ZM186.491 10.1367C185.347 10.1367 184.513 9.70833 183.989 8.85156H183.941L183.962 9.42578C183.98 9.76302 183.989 10.1322 183.989 10.5332V13.3633H183.312V2.56934H183.887L184.017 3.62891H184.058C184.568 2.82682 185.384 2.42578 186.505 2.42578C187.507 2.42578 188.271 2.75618 188.795 3.41699C189.324 4.07324 189.588 5.03027 189.588 6.28809C189.588 7.50944 189.31 8.45736 188.754 9.13184C188.202 9.80176 187.448 10.1367 186.491 10.1367ZM186.478 9.53516C187.239 9.53516 187.826 9.2526 188.241 8.6875C188.66 8.1224 188.87 7.33171 188.87 6.31543C188.87 4.13249 188.082 3.04102 186.505 3.04102C185.639 3.04102 185.003 3.28027 184.598 3.75879C184.192 4.23275 183.989 5.00749 183.989 6.08301V6.30176C183.989 7.46387 184.183 8.29329 184.57 8.79004C184.962 9.28678 185.598 9.53516 186.478 9.53516ZM197.798 6.27441C197.798 7.48665 197.504 8.43457 196.916 9.11816C196.328 9.7972 195.517 10.1367 194.482 10.1367C193.831 10.1367 193.257 9.97949 192.76 9.66504C192.263 9.35059 191.882 8.89941 191.618 8.31152C191.354 7.72363 191.222 7.0446 191.222 6.27441C191.222 5.06217 191.516 4.11882 192.104 3.44434C192.691 2.7653 193.498 2.42578 194.523 2.42578C195.544 2.42578 196.344 2.76986 196.923 3.45801C197.506 4.1416 197.798 5.0804 197.798 6.27441ZM191.933 6.27441C191.933 7.29525 192.156 8.09277 192.603 8.66699C193.054 9.23665 193.689 9.52148 194.51 9.52148C195.33 9.52148 195.964 9.23665 196.41 8.66699C196.861 8.09277 197.087 7.29525 197.087 6.27441C197.087 5.24902 196.859 4.45378 196.403 3.88867C195.952 3.32357 195.316 3.04102 194.496 3.04102C193.676 3.04102 193.042 3.32357 192.596 3.88867C192.154 4.44922 191.933 5.24447 191.933 6.27441ZM200.532 2.56934V5.83008H205.249V2.56934H205.919V10H205.249V6.41797H200.532V10H199.855V2.56934H200.532ZM209.091 2.56934V5.83008H213.808V2.56934H214.478V10H213.808V6.41797H209.091V10H208.414V2.56934H209.091ZM217.615 2.56934V7.94238L217.574 9.34375L221.983 2.56934H222.886V10H222.236V4.66113L222.264 3.22559L217.854 10H216.973V2.56934H217.615ZM228.84 9.27539L229.264 8.0791L231.403 2.56934H232.34V10H231.697V3.38965C231.597 3.67676 231.49 3.9707 231.376 4.27148C231.267 4.57227 230.524 6.48177 229.147 10H228.546L226.488 4.77734C226.402 4.56771 226.32 4.34668 226.242 4.11426C226.169 3.88184 226.087 3.63118 225.996 3.3623V10H225.381V2.56934H226.276L228.423 8.03809C228.591 8.48014 228.73 8.89258 228.84 9.27539ZM8.56543 25.2744C8.56543 26.4183 8.25553 27.3275 7.63574 28.002C7.02051 28.6764 6.15462 29.0547 5.03809 29.1367V32.3633H4.36816V29.1367C3.25618 29.0729 2.38574 28.7038 1.75684 28.0293C1.12793 27.3548 0.813477 26.4365 0.813477 25.2744C0.813477 24.1305 1.12337 23.2236 1.74316 22.5537C2.36296 21.8838 3.23796 21.5078 4.36816 21.4258V18.3633H5.03809V21.4258C6.15918 21.5078 7.02734 21.8838 7.64258 22.5537C8.25781 23.2236 8.56543 24.1305 8.56543 25.2744ZM1.52441 25.2744C1.52441 26.2451 1.77051 27.0107 2.2627 27.5713C2.75944 28.1273 3.46126 28.4395 4.36816 28.5078V22.0547C3.43392 22.1322 2.72526 22.4489 2.24219 23.0049C1.76367 23.5563 1.52441 24.3128 1.52441 25.2744ZM7.85449 25.2744C7.85449 24.3219 7.61068 23.5677 7.12305 23.0117C6.63542 22.4512 5.94043 22.1322 5.03809 22.0547V28.5078C5.94954 28.4303 6.64681 28.1068 7.12988 27.5371C7.61296 26.9674 7.85449 26.2132 7.85449 25.2744ZM13.8018 29.1367C12.6579 29.1367 11.8239 28.7083 11.2998 27.8516H11.252L11.2725 28.4258C11.2907 28.763 11.2998 29.1322 11.2998 29.5332V32.3633H10.623V21.5693H11.1973L11.3271 22.6289H11.3682C11.8786 21.8268 12.6943 21.4258 13.8154 21.4258C14.818 21.4258 15.5814 21.7562 16.1055 22.417C16.6341 23.0732 16.8984 24.0303 16.8984 25.2881C16.8984 26.5094 16.6204 27.4574 16.0645 28.1318C15.513 28.8018 14.7588 29.1367 13.8018 29.1367ZM13.7881 28.5352C14.5492 28.5352 15.137 28.2526 15.5518 27.6875C15.971 27.1224 16.1807 26.3317 16.1807 25.3154C16.1807 23.1325 15.3923 22.041 13.8154 22.041C12.9495 22.041 12.3138 22.2803 11.9082 22.7588C11.5026 23.2327 11.2998 24.0075 11.2998 25.083V25.3018C11.2998 26.4639 11.4935 27.2933 11.8809 27.79C12.2728 28.2868 12.9085 28.5352 13.7881 28.5352ZM19.6055 21.5693V26.9424L19.5645 28.3438L23.9736 21.5693H24.876V29H24.2266V23.6611L24.2539 22.2256L19.8447 29H18.9629V21.5693H19.6055ZM32.5117 29H31.8418V22.1982H29.21C29.0732 23.9984 28.9046 25.3724 28.7041 26.3203C28.5081 27.2637 28.2529 27.9587 27.9385 28.4053C27.6286 28.8473 27.2253 29.0684 26.7285 29.0684C26.5508 29.0684 26.3958 29.0501 26.2637 29.0137V28.3984C26.3503 28.4258 26.4733 28.4395 26.6328 28.4395C27.1478 28.4395 27.5625 27.8971 27.877 26.8125C28.196 25.7233 28.4375 23.9756 28.6016 21.5693H32.5117V29ZM39.5117 29L39.3408 27.8242H39.2861C38.9124 28.3027 38.5273 28.6423 38.1309 28.8428C37.7389 29.0387 37.2741 29.1367 36.7363 29.1367C36.0072 29.1367 35.4398 28.9499 35.0342 28.5762C34.6286 28.2025 34.4258 27.6852 34.4258 27.0244C34.4258 26.2998 34.7266 25.737 35.3281 25.3359C35.9342 24.9349 36.8092 24.723 37.9531 24.7002L39.3682 24.6592V24.167C39.3682 23.4606 39.2246 22.9274 38.9375 22.5674C38.6504 22.2074 38.1878 22.0273 37.5498 22.0273C36.8617 22.0273 36.1484 22.2188 35.4102 22.6016L35.1572 22.0137C35.973 21.6309 36.7796 21.4395 37.5771 21.4395C38.3929 21.4395 39.0013 21.6514 39.4023 22.0752C39.8079 22.499 40.0107 23.1598 40.0107 24.0576V29H39.5117ZM36.7773 28.5215C37.5703 28.5215 38.1947 28.2959 38.6504 27.8447C39.1107 27.389 39.3408 26.7578 39.3408 25.9512V25.2197L38.042 25.2744C36.9984 25.3245 36.2533 25.4886 35.8066 25.7666C35.3646 26.04 35.1436 26.4684 35.1436 27.0518C35.1436 27.5166 35.2848 27.8789 35.5674 28.1387C35.8545 28.3939 36.2578 28.5215 36.7773 28.5215ZM43.1006 21.5693V24.8301H47.8174V21.5693H48.4873V29H47.8174V25.418H43.1006V29H42.4238V21.5693H43.1006ZM53.9492 29.1367C52.8874 29.1367 52.0557 28.8018 51.4541 28.1318C50.8525 27.4619 50.5518 26.5277 50.5518 25.3291C50.5518 24.0986 50.8639 23.1416 51.4883 22.458C52.1126 21.7699 52.9671 21.4258 54.0518 21.4258C54.6943 21.4258 55.3096 21.5374 55.8975 21.7607L55.7129 22.3623C55.0703 22.1481 54.512 22.041 54.0381 22.041C53.1266 22.041 52.4362 22.3236 51.9668 22.8887C51.4974 23.4492 51.2627 24.2581 51.2627 25.3154C51.2627 26.318 51.4974 27.1042 51.9668 27.6738C52.4362 28.2389 53.0924 28.5215 53.9355 28.5215C54.61 28.5215 55.2367 28.4007 55.8154 28.1592V28.7881C55.3415 29.0205 54.7194 29.1367 53.9492 29.1367ZM60.6416 29.1367C59.5615 29.1367 58.7184 28.804 58.1123 28.1387C57.5107 27.4733 57.21 26.5413 57.21 25.3428C57.21 24.1579 57.5016 23.21 58.085 22.499C58.6683 21.7835 59.4544 21.4258 60.4434 21.4258C61.3184 21.4258 62.0088 21.7311 62.5146 22.3418C63.0205 22.9525 63.2734 23.7819 63.2734 24.8301V25.377H57.9209C57.93 26.3978 58.167 27.1771 58.6318 27.7148C59.1012 28.2526 59.7712 28.5215 60.6416 28.5215C61.0654 28.5215 61.4368 28.4919 61.7559 28.4326C62.0794 28.3734 62.4873 28.2458 62.9795 28.0498V28.665C62.5602 28.8473 62.1729 28.9704 61.8174 29.0342C61.4619 29.1025 61.07 29.1367 60.6416 29.1367ZM60.4434 22.0273C59.7279 22.0273 59.1536 22.2643 58.7207 22.7383C58.2878 23.2077 58.0348 23.8867 57.9619 24.7754H62.5557C62.5557 23.9141 62.3688 23.2419 61.9951 22.7588C61.6214 22.2712 61.1042 22.0273 60.4434 22.0273ZM68.5029 29.1367C67.359 29.1367 66.5251 28.7083 66.001 27.8516H65.9531L65.9736 28.4258C65.9919 28.763 66.001 29.1322 66.001 29.5332V32.3633H65.3242V21.5693H65.8984L66.0283 22.6289H66.0693C66.5798 21.8268 67.3955 21.4258 68.5166 21.4258C69.5192 21.4258 70.2826 21.7562 70.8066 22.417C71.3353 23.0732 71.5996 24.0303 71.5996 25.2881C71.5996 26.5094 71.3216 27.4574 70.7656 28.1318C70.2142 28.8018 69.46 29.1367 68.5029 29.1367ZM68.4893 28.5352C69.2503 28.5352 69.8382 28.2526 70.2529 27.6875C70.6722 27.1224 70.8818 26.3317 70.8818 25.3154C70.8818 23.1325 70.0934 22.041 68.5166 22.041C67.6507 22.041 67.015 22.2803 66.6094 22.7588C66.2038 23.2327 66.001 24.0075 66.001 25.083V25.3018C66.001 26.4639 66.1947 27.2933 66.582 27.79C66.974 28.2868 67.6097 28.5352 68.4893 28.5352ZM78.1758 29L78.0049 27.8242H77.9502C77.5765 28.3027 77.1914 28.6423 76.7949 28.8428C76.403 29.0387 75.9382 29.1367 75.4004 29.1367C74.6712 29.1367 74.1038 28.9499 73.6982 28.5762C73.2926 28.2025 73.0898 27.6852 73.0898 27.0244C73.0898 26.2998 73.3906 25.737 73.9922 25.3359C74.5983 24.9349 75.4733 24.723 76.6172 24.7002L78.0322 24.6592V24.167C78.0322 23.4606 77.8887 22.9274 77.6016 22.5674C77.3145 22.2074 76.8519 22.0273 76.2139 22.0273C75.5257 22.0273 74.8125 22.2188 74.0742 22.6016L73.8213 22.0137C74.637 21.6309 75.4437 21.4395 76.2412 21.4395C77.057 21.4395 77.6654 21.6514 78.0664 22.0752C78.472 22.499 78.6748 23.1598 78.6748 24.0576V29H78.1758ZM75.4414 28.5215C76.2344 28.5215 76.8587 28.2959 77.3145 27.8447C77.7747 27.389 78.0049 26.7578 78.0049 25.9512V25.2197L76.7061 25.2744C75.6624 25.3245 74.9173 25.4886 74.4707 25.7666C74.0286 26.04 73.8076 26.4684 73.8076 27.0518C73.8076 27.5166 73.9489 27.8789 74.2314 28.1387C74.5186 28.3939 74.9219 28.5215 75.4414 28.5215ZM84.5469 28.2754L84.9707 27.0791L87.1104 21.5693H88.0469V29H87.4043V22.3896C87.304 22.6768 87.1969 22.9707 87.083 23.2715C86.9736 23.5723 86.2308 25.4818 84.8545 29H84.2529L82.1953 23.7773C82.1087 23.5677 82.0267 23.3467 81.9492 23.1143C81.8763 22.8818 81.7943 22.6312 81.7031 22.3623V29H81.0879V21.5693H81.9834L84.1299 27.0381C84.2985 27.4801 84.4375 27.8926 84.5469 28.2754ZM94.8145 21.5693V26.9424L94.7734 28.3438L99.1826 21.5693H100.085V29H99.4355V23.6611L99.4629 22.2256L95.0537 29H94.1719V21.5693H94.8145ZM107.721 29H107.051V22.1982H104.419C104.282 23.9984 104.114 25.3724 103.913 26.3203C103.717 27.2637 103.462 27.9587 103.147 28.4053C102.838 28.8473 102.434 29.0684 101.938 29.0684C101.76 29.0684 101.605 29.0501 101.473 29.0137V28.3984C101.559 28.4258 101.682 28.4395 101.842 28.4395C102.357 28.4395 102.771 27.8971 103.086 26.8125C103.405 25.7233 103.646 23.9756 103.811 21.5693H107.721V29ZM110.852 21.5693V26.9424L110.811 28.3438L115.22 21.5693H116.122V29H115.473V23.6611L115.5 22.2256L111.091 29H110.209V21.5693H110.852ZM126.287 21.5693H127.128L123.799 25.165L127.367 29H126.458L122.944 25.2334V29H122.254V21.5693H122.944V25.1787L126.287 21.5693ZM134.825 25.2744C134.825 26.4867 134.531 27.4346 133.943 28.1182C133.355 28.7972 132.544 29.1367 131.51 29.1367C130.858 29.1367 130.284 28.9795 129.787 28.665C129.29 28.3506 128.91 27.8994 128.646 27.3115C128.381 26.7236 128.249 26.0446 128.249 25.2744C128.249 24.0622 128.543 23.1188 129.131 22.4443C129.719 21.7653 130.525 21.4258 131.551 21.4258C132.572 21.4258 133.371 21.7699 133.95 22.458C134.534 23.1416 134.825 24.0804 134.825 25.2744ZM128.96 25.2744C128.96 26.2952 129.183 27.0928 129.63 27.667C130.081 28.2367 130.717 28.5215 131.537 28.5215C132.357 28.5215 132.991 28.2367 133.438 27.667C133.889 27.0928 134.114 26.2952 134.114 25.2744C134.114 24.249 133.886 23.4538 133.431 22.8887C132.979 22.3236 132.344 22.041 131.523 22.041C130.703 22.041 130.07 22.3236 129.623 22.8887C129.181 23.4492 128.96 24.2445 128.96 25.2744ZM140.342 28.2754L140.766 27.0791L142.905 21.5693H143.842V29H143.199V22.3896C143.099 22.6768 142.992 22.9707 142.878 23.2715C142.769 23.5723 142.026 25.4818 140.649 29H140.048L137.99 23.7773C137.904 23.5677 137.822 23.3467 137.744 23.1143C137.671 22.8818 137.589 22.6312 137.498 22.3623V29H136.883V21.5693H137.778L139.925 27.0381C140.093 27.4801 140.232 27.8926 140.342 28.2754ZM147.007 29H146.33V21.5693H152.257V29H151.58V22.2119H147.007V29ZM159.264 29L159.093 27.8242H159.038C158.664 28.3027 158.279 28.6423 157.883 28.8428C157.491 29.0387 157.026 29.1367 156.488 29.1367C155.759 29.1367 155.192 28.9499 154.786 28.5762C154.381 28.2025 154.178 27.6852 154.178 27.0244C154.178 26.2998 154.479 25.737 155.08 25.3359C155.686 24.9349 156.561 24.723 157.705 24.7002L159.12 24.6592V24.167C159.12 23.4606 158.977 22.9274 158.689 22.5674C158.402 22.2074 157.94 22.0273 157.302 22.0273C156.614 22.0273 155.9 22.2188 155.162 22.6016L154.909 22.0137C155.725 21.6309 156.532 21.4395 157.329 21.4395C158.145 21.4395 158.753 21.6514 159.154 22.0752C159.56 22.499 159.763 23.1598 159.763 24.0576V29H159.264ZM156.529 28.5215C157.322 28.5215 157.947 28.2959 158.402 27.8447C158.863 27.389 159.093 26.7578 159.093 25.9512V25.2197L157.794 25.2744C156.75 25.3245 156.005 25.4886 155.559 25.7666C155.117 26.04 154.896 26.4684 154.896 27.0518C154.896 27.5166 155.037 27.8789 155.319 28.1387C155.606 28.3939 156.01 28.5215 156.529 28.5215ZM162.853 21.5693V24.8301H167.569V21.5693H168.239V29H167.569V25.418H162.853V29H162.176V21.5693H162.853ZM171.377 21.5693V26.9424L171.336 28.3438L175.745 21.5693H176.647V29H175.998V23.6611L176.025 22.2256L171.616 29H170.734V21.5693H171.377ZM179.033 29H178.179L180.421 25.7939C179.737 25.6663 179.243 25.4294 178.938 25.083C178.637 24.7367 178.486 24.2923 178.486 23.75C178.486 23.0755 178.712 22.5446 179.163 22.1572C179.619 21.7653 180.229 21.5693 180.995 21.5693H184.058V29H183.388V25.876H181.118L179.033 29ZM179.197 23.7227C179.197 24.2331 179.361 24.6136 179.689 24.8643C180.022 25.1104 180.521 25.2334 181.187 25.2334H183.388V22.2119H180.981C180.416 22.2119 179.977 22.3418 179.662 22.6016C179.352 22.8568 179.197 23.2305 179.197 23.7227ZM190.012 28.2754L190.436 27.0791L192.575 21.5693H193.512V29H192.869V22.3896C192.769 22.6768 192.662 22.9707 192.548 23.2715C192.438 23.5723 191.696 25.4818 190.319 29H189.718L187.66 23.7773C187.574 23.5677 187.492 23.3467 187.414 23.1143C187.341 22.8818 187.259 22.6312 187.168 22.3623V29H186.553V21.5693H187.448L189.595 27.0381C189.763 27.4801 189.902 27.8926 190.012 28.2754ZM196.772 27.373L196.854 27.5166C196.513 28.7243 196.116 29.8203 195.665 30.8047H195.221C195.572 29.5514 195.822 28.4076 195.973 27.373H196.772ZM207.156 29L206.985 27.8242H206.931C206.557 28.3027 206.172 28.6423 205.775 28.8428C205.383 29.0387 204.919 29.1367 204.381 29.1367C203.652 29.1367 203.084 28.9499 202.679 28.5762C202.273 28.2025 202.07 27.6852 202.07 27.0244C202.07 26.2998 202.371 25.737 202.973 25.3359C203.579 24.9349 204.454 24.723 205.598 24.7002L207.013 24.6592V24.167C207.013 23.4606 206.869 22.9274 206.582 22.5674C206.295 22.2074 205.832 22.0273 205.194 22.0273C204.506 22.0273 203.793 22.2188 203.055 22.6016L202.802 22.0137C203.618 21.6309 204.424 21.4395 205.222 21.4395C206.037 21.4395 206.646 21.6514 207.047 22.0752C207.452 22.499 207.655 23.1598 207.655 24.0576V29H207.156ZM204.422 28.5215C205.215 28.5215 205.839 28.2959 206.295 27.8447C206.755 27.389 206.985 26.7578 206.985 25.9512V25.2197L205.687 25.2744C204.643 25.3245 203.898 25.4886 203.451 25.7666C203.009 26.04 202.788 26.4684 202.788 27.0518C202.788 27.5166 202.929 27.8789 203.212 28.1387C203.499 28.3939 203.902 28.5215 204.422 28.5215ZM219.406 23.3604C219.406 23.8298 219.29 24.1989 219.058 24.4678C218.825 24.7321 218.447 24.9167 217.923 25.0215V25.0693C218.52 25.1377 218.951 25.3109 219.215 25.5889C219.484 25.8623 219.618 26.2565 219.618 26.7715C219.618 27.487 219.381 28.0384 218.907 28.4258C218.438 28.8086 217.75 29 216.843 29H213.705V21.5693H216.856C217.704 21.5693 218.34 21.722 218.764 22.0273C219.192 22.3327 219.406 22.777 219.406 23.3604ZM218.9 26.7578C218.9 25.8464 218.201 25.3906 216.802 25.3906H214.382V28.3574H216.897C218.233 28.3574 218.9 27.8242 218.9 26.7578ZM218.688 23.415C218.688 22.9821 218.534 22.6745 218.224 22.4922C217.914 22.3053 217.449 22.2119 216.829 22.2119H214.382V24.7549H216.747C217.44 24.7549 217.937 24.6478 218.237 24.4336C218.538 24.2194 218.688 23.8799 218.688 23.415ZM222.312 24.7002H224.677C226.422 24.7002 227.295 25.3861 227.295 26.7578C227.295 27.4642 227.051 28.0156 226.563 28.4121C226.076 28.804 225.376 29 224.465 29H221.635V21.5693H222.312V24.7002ZM222.312 25.3428V28.3574H224.574C225.217 28.3574 225.711 28.223 226.058 27.9541C226.404 27.6852 226.577 27.2819 226.577 26.7441C226.577 26.252 226.424 25.8965 226.119 25.6777C225.814 25.4544 225.285 25.3428 224.533 25.3428H222.312ZM229.264 29H228.594V21.5693H229.264V29ZM237.829 31.5225H237.159V29H231.472V31.5225H230.802V28.3574H231.294C231.914 27.487 232.392 26.4775 232.729 25.3291C233.067 24.1807 233.244 22.9274 233.263 21.5693H236.838V28.3574H237.829V31.5225ZM236.161 28.3574V22.1982H233.851C233.741 24.6637 233.144 26.7168 232.06 28.3574H236.161ZM242.409 29.1367C241.329 29.1367 240.486 28.804 239.88 28.1387C239.278 27.4733 238.978 26.5413 238.978 25.3428C238.978 24.1579 239.269 23.21 239.853 22.499C240.436 21.7835 241.222 21.4258 242.211 21.4258C243.086 21.4258 243.776 21.7311 244.282 22.3418C244.788 22.9525 245.041 23.7819 245.041 24.8301V25.377H239.688C239.698 26.3978 239.935 27.1771 240.399 27.7148C240.869 28.2526 241.539 28.5215 242.409 28.5215C242.833 28.5215 243.204 28.4919 243.523 28.4326C243.847 28.3734 244.255 28.2458 244.747 28.0498V28.665C244.328 28.8473 243.94 28.9704 243.585 29.0342C243.229 29.1025 242.838 29.1367 242.409 29.1367ZM242.211 22.0273C241.495 22.0273 240.921 22.2643 240.488 22.7383C240.055 23.2077 239.802 23.8867 239.729 24.7754H244.323C244.323 23.9141 244.136 23.2419 243.763 22.7588C243.389 22.2712 242.872 22.0273 242.211 22.0273ZM252.232 29H251.562V22.1982H248.931C248.794 23.9984 248.625 25.3724 248.425 26.3203C248.229 27.2637 247.974 27.9587 247.659 28.4053C247.349 28.8473 246.946 29.0684 246.449 29.0684C246.271 29.0684 246.117 29.0501 245.984 29.0137V28.3984C246.071 28.4258 246.194 28.4395 246.354 28.4395C246.868 28.4395 247.283 27.8971 247.598 26.8125C247.917 25.7233 248.158 23.9756 248.322 21.5693H252.232V29ZM254.611 29H253.757L255.999 25.7939C255.315 25.6663 254.821 25.4294 254.516 25.083C254.215 24.7367 254.064 24.2923 254.064 23.75C254.064 23.0755 254.29 22.5446 254.741 22.1572C255.197 21.7653 255.808 21.5693 256.573 21.5693H259.636V29H258.966V25.876H256.696L254.611 29ZM254.775 23.7227C254.775 24.2331 254.939 24.6136 255.268 24.8643C255.6 25.1104 256.099 25.2334 256.765 25.2334H258.966V22.2119H256.56C255.994 22.2119 255.555 22.3418 255.24 22.6016C254.93 22.8568 254.775 23.2305 254.775 23.7227ZM265.132 29.1367C264.052 29.1367 263.209 28.804 262.603 28.1387C262.001 27.4733 261.7 26.5413 261.7 25.3428C261.7 24.1579 261.992 23.21 262.575 22.499C263.159 21.7835 263.945 21.4258 264.934 21.4258C265.809 21.4258 266.499 21.7311 267.005 22.3418C267.511 22.9525 267.764 23.7819 267.764 24.8301V25.377H262.411C262.42 26.3978 262.657 27.1771 263.122 27.7148C263.591 28.2526 264.261 28.5215 265.132 28.5215C265.556 28.5215 265.927 28.4919 266.246 28.4326C266.57 28.3734 266.978 28.2458 267.47 28.0498V28.665C267.05 28.8473 266.663 28.9704 266.308 29.0342C265.952 29.1025 265.56 29.1367 265.132 29.1367ZM264.934 22.0273C264.218 22.0273 263.644 22.2643 263.211 22.7383C262.778 23.2077 262.525 23.8867 262.452 24.7754H267.046C267.046 23.9141 266.859 23.2419 266.485 22.7588C266.112 22.2712 265.594 22.0273 264.934 22.0273ZM273.273 28.2754L273.697 27.0791L275.837 21.5693H276.773V29H276.131V22.3896C276.031 22.6768 275.924 22.9707 275.81 23.2715C275.7 23.5723 274.957 25.4818 273.581 29H272.979L270.922 23.7773C270.835 23.5677 270.753 23.3467 270.676 23.1143C270.603 22.8818 270.521 22.6312 270.43 22.3623V29H269.814V21.5693H270.71L272.856 27.0381C273.025 27.4801 273.164 27.8926 273.273 28.2754ZM4.21094 48.1367C3.14909 48.1367 2.31738 47.8018 1.71582 47.1318C1.11426 46.4619 0.813477 45.5277 0.813477 44.3291C0.813477 43.0986 1.12565 42.1416 1.75 41.458C2.37435 40.7699 3.22884 40.4258 4.31348 40.4258C4.95605 40.4258 5.57129 40.5374 6.15918 40.7607L5.97461 41.3623C5.33203 41.1481 4.77376 41.041 4.2998 41.041C3.38835 41.041 2.69792 41.3236 2.22852 41.8887C1.75911 42.4492 1.52441 43.2581 1.52441 44.3154C1.52441 45.318 1.75911 46.1042 2.22852 46.6738C2.69792 47.2389 3.35417 47.5215 4.19727 47.5215C4.87174 47.5215 5.49837 47.4007 6.07715 47.1592V47.7881C5.60319 48.0205 4.98112 48.1367 4.21094 48.1367ZM14.0479 44.2744C14.0479 45.4867 13.7539 46.4346 13.166 47.1182C12.5781 47.7972 11.7669 48.1367 10.7324 48.1367C10.0807 48.1367 9.50651 47.9795 9.00977 47.665C8.51302 47.3506 8.13249 46.8994 7.86816 46.3115C7.60384 45.7236 7.47168 45.0446 7.47168 44.2744C7.47168 43.0622 7.76562 42.1188 8.35352 41.4443C8.94141 40.7653 9.74805 40.4258 10.7734 40.4258C11.7943 40.4258 12.5941 40.7699 13.1729 41.458C13.7562 42.1416 14.0479 43.0804 14.0479 44.2744ZM8.18262 44.2744C8.18262 45.2952 8.40592 46.0928 8.85254 46.667C9.30371 47.2367 9.93945 47.5215 10.7598 47.5215C11.5801 47.5215 12.2135 47.2367 12.6602 46.667C13.1113 46.0928 13.3369 45.2952 13.3369 44.2744C13.3369 43.249 13.109 42.4538 12.6533 41.8887C12.2021 41.3236 11.5664 41.041 10.7461 41.041C9.92578 41.041 9.29232 41.3236 8.8457 41.8887C8.40365 42.4492 8.18262 43.2445 8.18262 44.2744ZM15.7021 43.5361C15.7021 40.3096 16.6113 38.4707 18.4297 38.0195C19.0677 37.86 19.6784 37.7256 20.2617 37.6162C20.8496 37.5023 21.3691 37.402 21.8203 37.3154L21.9434 37.9033L21.123 38.0605C19.7695 38.3158 18.8763 38.5117 18.4434 38.6484C17.8281 38.8262 17.3451 39.2523 16.9941 39.9268C16.6478 40.6012 16.4495 41.5241 16.3994 42.6953H16.4404C16.9281 42.1165 17.402 41.7041 17.8623 41.458C18.3226 41.2074 18.7965 41.082 19.2842 41.082C20.1956 41.082 20.8929 41.376 21.376 41.9639C21.859 42.5518 22.1006 43.388 22.1006 44.4727C22.1006 45.6257 21.8226 46.5257 21.2666 47.1729C20.7106 47.8154 19.929 48.1367 18.9219 48.1367C17.901 48.1367 17.1081 47.738 16.543 46.9404C15.9824 46.1429 15.7021 45.0081 15.7021 43.5361ZM18.9766 47.5215C19.7559 47.5215 20.3506 47.2617 20.7607 46.7422C21.1755 46.2227 21.3828 45.4753 21.3828 44.5C21.3828 43.5749 21.1982 42.8776 20.8291 42.4082C20.4645 41.9342 19.9268 41.6973 19.2158 41.6973C18.6872 41.6973 18.1745 41.8636 17.6777 42.1963C17.1855 42.5244 16.7549 42.9801 16.3857 43.5635C16.3857 44.3792 16.486 45.0947 16.6865 45.71C16.8916 46.3252 17.1878 46.7809 17.5752 47.0771C17.9626 47.3734 18.4297 47.5215 18.9766 47.5215ZM27.1113 48.1367C26.0495 48.1367 25.2178 47.8018 24.6162 47.1318C24.0146 46.4619 23.7139 45.5277 23.7139 44.3291C23.7139 43.0986 24.026 42.1416 24.6504 41.458C25.2747 40.7699 26.1292 40.4258 27.2139 40.4258C27.8564 40.4258 28.4717 40.5374 29.0596 40.7607L28.875 41.3623C28.2324 41.1481 27.6742 41.041 27.2002 41.041C26.2887 41.041 25.5983 41.3236 25.1289 41.8887C24.6595 42.4492 24.4248 43.2581 24.4248 44.3154C24.4248 45.318 24.6595 46.1042 25.1289 46.6738C25.5983 47.2389 26.2546 47.5215 27.0977 47.5215C27.7721 47.5215 28.3988 47.4007 28.9775 47.1592V47.7881C28.5036 48.0205 27.8815 48.1367 27.1113 48.1367ZM35.5195 41.1572H33.0449V48H32.375V41.1572H29.8389V40.5693H35.5195V41.1572ZM42.752 42.3604C42.752 42.8298 42.6357 43.1989 42.4033 43.4678C42.1709 43.7321 41.7926 43.9167 41.2686 44.0215V44.0693C41.8656 44.1377 42.2962 44.3109 42.5605 44.5889C42.8294 44.8623 42.9639 45.2565 42.9639 45.7715C42.9639 46.487 42.7269 47.0384 42.2529 47.4258C41.7835 47.8086 41.0954 48 40.1885 48H37.0508V40.5693H40.2021C41.0498 40.5693 41.6855 40.722 42.1094 41.0273C42.5378 41.3327 42.752 41.777 42.752 42.3604ZM42.2461 45.7578C42.2461 44.8464 41.5465 44.3906 40.1475 44.3906H37.7275V47.3574H40.2432C41.5785 47.3574 42.2461 46.8242 42.2461 45.7578ZM42.0342 42.415C42.0342 41.9821 41.8792 41.6745 41.5693 41.4922C41.2594 41.3053 40.7946 41.2119 40.1748 41.2119H37.7275V43.7549H40.0928C40.7855 43.7549 41.2822 43.6478 41.583 43.4336C41.8838 43.2194 42.0342 42.8799 42.0342 42.415ZM47.9814 48.1367C46.9014 48.1367 46.0583 47.804 45.4521 47.1387C44.8506 46.4733 44.5498 45.5413 44.5498 44.3428C44.5498 43.1579 44.8415 42.21 45.4248 41.499C46.0081 40.7835 46.7943 40.4258 47.7832 40.4258C48.6582 40.4258 49.3486 40.7311 49.8545 41.3418C50.3604 41.9525 50.6133 42.7819 50.6133 43.8301V44.377H45.2607C45.2699 45.3978 45.5068 46.1771 45.9717 46.7148C46.4411 47.2526 47.111 47.5215 47.9814 47.5215C48.4053 47.5215 48.7767 47.4919 49.0957 47.4326C49.4193 47.3734 49.8271 47.2458 50.3193 47.0498V47.665C49.9001 47.8473 49.5127 47.9704 49.1572 48.0342C48.8018 48.1025 48.4098 48.1367 47.9814 48.1367ZM47.7832 41.0273C47.0677 41.0273 46.4935 41.2643 46.0605 41.7383C45.6276 42.2077 45.3747 42.8867 45.3018 43.7754H49.8955C49.8955 42.9141 49.7087 42.2419 49.335 41.7588C48.9613 41.2712 48.444 41.0273 47.7832 41.0273ZM53.3408 40.5693V43.8301H58.0576V40.5693H58.7275V48H58.0576V44.418H53.3408V48H52.6641V40.5693H53.3408ZM61.8994 40.5693V43.8301H66.6162V40.5693H67.2861V48H66.6162V44.418H61.8994V48H61.2227V40.5693H61.8994ZM68.5371 40.5693H69.2344L70.8066 44.7393C71.2852 46.0199 71.5882 46.8835 71.7158 47.3301H71.7568C71.9482 46.7422 72.2604 45.8649 72.6934 44.6982L74.2656 40.5693H74.9629L71.6338 49.2031C71.3649 49.9049 71.1393 50.3789 70.957 50.625C70.7747 50.8711 70.5605 51.0557 70.3145 51.1787C70.0729 51.3018 69.779 51.3633 69.4326 51.3633C69.1729 51.3633 68.8835 51.3154 68.5645 51.2197V50.6318C68.8288 50.7048 69.1136 50.7412 69.4189 50.7412C69.6514 50.7412 69.8564 50.6865 70.0342 50.5771C70.2119 50.4678 70.3714 50.2969 70.5127 50.0645C70.6585 49.8366 70.8249 49.472 71.0117 48.9707C71.2031 48.474 71.3262 48.1504 71.3809 48L68.5371 40.5693ZM85.3262 44.2744C85.3262 45.4867 85.0527 46.4346 84.5059 47.1182C83.9635 47.7972 83.2184 48.1367 82.2705 48.1367C81.3773 48.1367 80.6572 47.8018 80.1104 47.1318C79.568 46.4619 79.29 45.5573 79.2764 44.418H76.8838V48H76.207V40.5693H76.8838V43.8301H79.29C79.3538 42.7591 79.6501 41.9251 80.1787 41.3281C80.7119 40.7266 81.4229 40.4258 82.3115 40.4258C83.2412 40.4258 83.9749 40.7699 84.5127 41.458C85.055 42.1416 85.3262 43.0804 85.3262 44.2744ZM79.9873 44.2744C79.9873 45.2952 80.1878 46.0928 80.5889 46.667C80.9945 47.2367 81.5641 47.5215 82.2979 47.5215C83.0316 47.5215 83.599 47.2344 84 46.6602C84.4056 46.0859 84.6084 45.2907 84.6084 44.2744C84.6084 43.2536 84.4056 42.4606 84 41.8955C83.5944 41.3258 83.0225 41.041 82.2842 41.041C81.5505 41.041 80.9831 41.3236 80.582 41.8887C80.1855 42.4492 79.9873 43.2445 79.9873 44.2744ZM95.0469 40.5693H95.8877L92.5586 44.165L96.127 48H95.2178L91.7041 44.2334V48H91.0137V40.5693H91.7041V44.1787L95.0469 40.5693ZM103.585 44.2744C103.585 45.4867 103.291 46.4346 102.703 47.1182C102.115 47.7972 101.304 48.1367 100.27 48.1367C99.6178 48.1367 99.0436 47.9795 98.5469 47.665C98.0501 47.3506 97.6696 46.8994 97.4053 46.3115C97.141 45.7236 97.0088 45.0446 97.0088 44.2744C97.0088 43.0622 97.3027 42.1188 97.8906 41.4443C98.4785 40.7653 99.2852 40.4258 100.311 40.4258C101.331 40.4258 102.131 40.7699 102.71 41.458C103.293 42.1416 103.585 43.0804 103.585 44.2744ZM97.7197 44.2744C97.7197 45.2952 97.943 46.0928 98.3896 46.667C98.8408 47.2367 99.4766 47.5215 100.297 47.5215C101.117 47.5215 101.751 47.2367 102.197 46.667C102.648 46.0928 102.874 45.2952 102.874 44.2744C102.874 43.249 102.646 42.4538 102.19 41.8887C101.739 41.3236 101.104 41.041 100.283 41.041C99.4629 41.041 98.8294 41.3236 98.3828 41.8887C97.9408 42.4492 97.7197 43.2445 97.7197 44.2744ZM109.102 47.2754L109.525 46.0791L111.665 40.5693H112.602V48H111.959V41.3896C111.859 41.6768 111.752 41.9707 111.638 42.2715C111.528 42.5723 110.785 44.4818 109.409 48H108.808L106.75 42.7773C106.663 42.5677 106.581 42.3467 106.504 42.1143C106.431 41.8818 106.349 41.6312 106.258 41.3623V48H105.643V40.5693H106.538L108.685 46.0381C108.853 46.4801 108.992 46.8926 109.102 47.2754ZM119.602 48L119.431 46.8242H119.376C119.002 47.3027 118.617 47.6423 118.221 47.8428C117.829 48.0387 117.364 48.1367 116.826 48.1367C116.097 48.1367 115.53 47.9499 115.124 47.5762C114.718 47.2025 114.516 46.6852 114.516 46.0244C114.516 45.2998 114.816 44.737 115.418 44.3359C116.024 43.9349 116.899 43.723 118.043 43.7002L119.458 43.6592V43.167C119.458 42.4606 119.314 41.9274 119.027 41.5674C118.74 41.2074 118.278 41.0273 117.64 41.0273C116.951 41.0273 116.238 41.2188 115.5 41.6016L115.247 41.0137C116.063 40.6309 116.869 40.4395 117.667 40.4395C118.483 40.4395 119.091 40.6514 119.492 41.0752C119.898 41.499 120.101 42.1598 120.101 43.0576V48H119.602ZM116.867 47.5215C117.66 47.5215 118.285 47.2959 118.74 46.8447C119.201 46.389 119.431 45.7578 119.431 44.9512V44.2197L118.132 44.2744C117.088 44.3245 116.343 44.4886 115.896 44.7666C115.454 45.04 115.233 45.4684 115.233 46.0518C115.233 46.5166 115.375 46.8789 115.657 47.1387C115.944 47.3939 116.348 47.5215 116.867 47.5215ZM123.19 40.5693V43.8301H127.907V40.5693H128.577V48H127.907V44.418H123.19V48H122.514V40.5693H123.19ZM137.136 50.5225H136.466V48H130.778V50.5225H130.108V47.3574H130.601C131.22 46.487 131.699 45.4775 132.036 44.3291C132.373 43.1807 132.551 41.9274 132.569 40.5693H136.145V47.3574H137.136V50.5225ZM135.468 47.3574V41.1982H133.157C133.048 43.6637 132.451 45.7168 131.366 47.3574H135.468ZM137.471 40.5693H138.168L139.74 44.7393C140.219 46.0199 140.522 46.8835 140.649 47.3301H140.69C140.882 46.7422 141.194 45.8649 141.627 44.6982L143.199 40.5693H143.896L140.567 49.2031C140.299 49.9049 140.073 50.3789 139.891 50.625C139.708 50.8711 139.494 51.0557 139.248 51.1787C139.007 51.3018 138.713 51.3633 138.366 51.3633C138.106 51.3633 137.817 51.3154 137.498 51.2197V50.6318C137.762 50.7048 138.047 50.7412 138.353 50.7412C138.585 50.7412 138.79 50.6865 138.968 50.5771C139.146 50.4678 139.305 50.2969 139.446 50.0645C139.592 49.8366 139.758 49.472 139.945 48.9707C140.137 48.474 140.26 48.1504 140.314 48L137.471 40.5693ZM151.956 48.1367C150.812 48.1367 149.978 47.7083 149.454 46.8516H149.406L149.427 47.4258C149.445 47.763 149.454 48.1322 149.454 48.5332V51.3633H148.777V40.5693H149.352L149.481 41.6289H149.522C150.033 40.8268 150.849 40.4258 151.97 40.4258C152.972 40.4258 153.736 40.7562 154.26 41.417C154.788 42.0732 155.053 43.0303 155.053 44.2881C155.053 45.5094 154.775 46.4574 154.219 47.1318C153.667 47.8018 152.913 48.1367 151.956 48.1367ZM151.942 47.5352C152.703 47.5352 153.291 47.2526 153.706 46.6875C154.125 46.1224 154.335 45.3317 154.335 44.3154C154.335 42.1325 153.547 41.041 151.97 41.041C151.104 41.041 150.468 41.2803 150.062 41.7588C149.657 42.2327 149.454 43.0075 149.454 44.083V44.3018C149.454 45.4639 149.648 46.2933 150.035 46.79C150.427 47.2868 151.063 47.5352 151.942 47.5352ZM161.629 48L161.458 46.8242H161.403C161.03 47.3027 160.645 47.6423 160.248 47.8428C159.856 48.0387 159.391 48.1367 158.854 48.1367C158.124 48.1367 157.557 47.9499 157.151 47.5762C156.746 47.2025 156.543 46.6852 156.543 46.0244C156.543 45.2998 156.844 44.737 157.445 44.3359C158.051 43.9349 158.926 43.723 160.07 43.7002L161.485 43.6592V43.167C161.485 42.4606 161.342 41.9274 161.055 41.5674C160.768 41.2074 160.305 41.0273 159.667 41.0273C158.979 41.0273 158.266 41.2188 157.527 41.6016L157.274 41.0137C158.09 40.6309 158.897 40.4395 159.694 40.4395C160.51 40.4395 161.118 40.6514 161.52 41.0752C161.925 41.499 162.128 42.1598 162.128 43.0576V48H161.629ZM158.895 47.5215C159.688 47.5215 160.312 47.2959 160.768 46.8447C161.228 46.389 161.458 45.7578 161.458 44.9512V44.2197L160.159 44.2744C159.116 44.3245 158.37 44.4886 157.924 44.7666C157.482 45.04 157.261 45.4684 157.261 46.0518C157.261 46.5166 157.402 46.8789 157.685 47.1387C157.972 47.3939 158.375 47.5215 158.895 47.5215ZM165.942 43.7754C167.287 43.7754 167.959 43.3128 167.959 42.3877C167.959 41.9456 167.804 41.6084 167.494 41.376C167.184 41.1436 166.742 41.0273 166.168 41.0273C165.803 41.0273 165.464 41.0706 165.149 41.1572C164.835 41.2393 164.498 41.36 164.138 41.5195L163.885 40.959C164.678 40.6035 165.448 40.4258 166.195 40.4258C167.007 40.4258 167.622 40.5944 168.041 40.9316C168.46 41.2689 168.67 41.736 168.67 42.333C168.67 43.1943 168.228 43.7435 167.344 43.9805V44.0215C167.895 44.1582 168.296 44.3861 168.547 44.7051C168.798 45.0195 168.923 45.4229 168.923 45.915C168.923 46.6032 168.67 47.1455 168.164 47.542C167.663 47.9385 166.965 48.1367 166.072 48.1367C165.589 48.1367 165.147 48.0911 164.746 48C164.35 47.9043 164.021 47.779 163.762 47.624V46.9473C164.231 47.1706 164.637 47.3232 164.979 47.4053C165.32 47.4827 165.685 47.5215 166.072 47.5215C166.747 47.5215 167.271 47.3802 167.645 47.0977C168.023 46.8105 168.212 46.4027 168.212 45.874C168.212 45.359 168.032 44.9785 167.672 44.7324C167.312 44.4863 166.772 44.3633 166.052 44.3633H165.02V43.7754H165.942ZM174.05 48.1367C172.906 48.1367 172.072 47.7083 171.548 46.8516H171.5L171.521 47.4258C171.539 47.763 171.548 48.1322 171.548 48.5332V51.3633H170.871V40.5693H171.445L171.575 41.6289H171.616C172.127 40.8268 172.942 40.4258 174.063 40.4258C175.066 40.4258 175.829 40.7562 176.354 41.417C176.882 42.0732 177.146 43.0303 177.146 44.2881C177.146 45.5094 176.868 46.4574 176.312 47.1318C175.761 47.8018 175.007 48.1367 174.05 48.1367ZM174.036 47.5352C174.797 47.5352 175.385 47.2526 175.8 46.6875C176.219 46.1224 176.429 45.3317 176.429 44.3154C176.429 42.1325 175.64 41.041 174.063 41.041C173.198 41.041 172.562 41.2803 172.156 41.7588C171.751 42.2327 171.548 43.0075 171.548 44.083V44.3018C171.548 45.4639 171.742 46.2933 172.129 46.79C172.521 47.2868 173.157 47.5352 174.036 47.5352ZM183.723 48L183.552 46.8242H183.497C183.123 47.3027 182.738 47.6423 182.342 47.8428C181.95 48.0387 181.485 48.1367 180.947 48.1367C180.218 48.1367 179.651 47.9499 179.245 47.5762C178.84 47.2025 178.637 46.6852 178.637 46.0244C178.637 45.2998 178.938 44.737 179.539 44.3359C180.145 43.9349 181.02 43.723 182.164 43.7002L183.579 43.6592V43.167C183.579 42.4606 183.436 41.9274 183.148 41.5674C182.861 41.2074 182.399 41.0273 181.761 41.0273C181.073 41.0273 180.359 41.2188 179.621 41.6016L179.368 41.0137C180.184 40.6309 180.991 40.4395 181.788 40.4395C182.604 40.4395 183.212 40.6514 183.613 41.0752C184.019 41.499 184.222 42.1598 184.222 43.0576V48H183.723ZM180.988 47.5215C181.781 47.5215 182.406 47.2959 182.861 46.8447C183.322 46.389 183.552 45.7578 183.552 44.9512V44.2197L182.253 44.2744C181.209 44.3245 180.464 44.4886 180.018 44.7666C179.576 45.04 179.354 45.4684 179.354 46.0518C179.354 46.5166 179.496 46.8789 179.778 47.1387C180.065 47.3939 180.469 47.5215 180.988 47.5215ZM186.231 43.5361C186.231 40.3096 187.141 38.4707 188.959 38.0195C189.597 37.86 190.208 37.7256 190.791 37.6162C191.379 37.5023 191.898 37.402 192.35 37.3154L192.473 37.9033L191.652 38.0605C190.299 38.3158 189.406 38.5117 188.973 38.6484C188.357 38.8262 187.874 39.2523 187.523 39.9268C187.177 40.6012 186.979 41.5241 186.929 42.6953H186.97C187.457 42.1165 187.931 41.7041 188.392 41.458C188.852 41.2074 189.326 41.082 189.813 41.082C190.725 41.082 191.422 41.376 191.905 41.9639C192.388 42.5518 192.63 43.388 192.63 44.4727C192.63 45.6257 192.352 46.5257 191.796 47.1729C191.24 47.8154 190.458 48.1367 189.451 48.1367C188.43 48.1367 187.637 47.738 187.072 46.9404C186.512 46.1429 186.231 45.0081 186.231 43.5361ZM189.506 47.5215C190.285 47.5215 190.88 47.2617 191.29 46.7422C191.705 46.2227 191.912 45.4753 191.912 44.5C191.912 43.5749 191.728 42.8776 191.358 42.4082C190.994 41.9342 190.456 41.6973 189.745 41.6973C189.216 41.6973 188.704 41.8636 188.207 42.1963C187.715 42.5244 187.284 42.9801 186.915 43.5635C186.915 44.3792 187.015 45.0947 187.216 45.71C187.421 46.3252 187.717 46.7809 188.104 47.0771C188.492 47.3734 188.959 47.5215 189.506 47.5215ZM200.819 44.2744C200.819 45.4867 200.525 46.4346 199.938 47.1182C199.35 47.7972 198.538 48.1367 197.504 48.1367C196.852 48.1367 196.278 47.9795 195.781 47.665C195.285 47.3506 194.904 46.8994 194.64 46.3115C194.375 45.7236 194.243 45.0446 194.243 44.2744C194.243 43.0622 194.537 42.1188 195.125 41.4443C195.713 40.7653 196.52 40.4258 197.545 40.4258C198.566 40.4258 199.366 40.7699 199.944 41.458C200.528 42.1416 200.819 43.0804 200.819 44.2744ZM194.954 44.2744C194.954 45.2952 195.177 46.0928 195.624 46.667C196.075 47.2367 196.711 47.5215 197.531 47.5215C198.352 47.5215 198.985 47.2367 199.432 46.667C199.883 46.0928 200.108 45.2952 200.108 44.2744C200.108 43.249 199.881 42.4538 199.425 41.8887C198.974 41.3236 198.338 41.041 197.518 41.041C196.697 41.041 196.064 41.3236 195.617 41.8887C195.175 42.4492 194.954 43.2445 194.954 44.2744ZM207.594 41.1572H205.119V48H204.449V41.1572H201.913V40.5693H207.594V41.1572ZM209.672 40.5693V43.0576C209.672 43.6865 209.825 44.14 210.13 44.418C210.435 44.696 210.905 44.835 211.538 44.835C211.985 44.835 212.411 44.7552 212.816 44.5957C213.222 44.4362 213.644 44.181 214.081 43.8301V40.5693H214.758V48H214.081V44.4727C213.625 44.8236 213.176 45.0742 212.734 45.2246C212.297 45.375 211.823 45.4502 211.312 45.4502C210.551 45.4502 209.975 45.252 209.583 44.8555C209.196 44.459 209.002 43.887 209.002 43.1396V40.5693H209.672ZM217.889 40.5693V45.9424L217.848 47.3438L222.257 40.5693H223.159V48H222.51V42.6611L222.537 41.2256L218.128 48H217.246V40.5693H217.889ZM229.688 40.5693H230.528L227.199 44.165L230.768 48H229.858L226.345 44.2334V48H225.654V40.5693H226.345V44.1787L229.688 40.5693ZM238.226 44.2744C238.226 45.4867 237.932 46.4346 237.344 47.1182C236.756 47.7972 235.945 48.1367 234.91 48.1367C234.258 48.1367 233.684 47.9795 233.188 47.665C232.691 47.3506 232.31 46.8994 232.046 46.3115C231.782 45.7236 231.649 45.0446 231.649 44.2744C231.649 43.0622 231.943 42.1188 232.531 41.4443C233.119 40.7653 233.926 40.4258 234.951 40.4258C235.972 40.4258 236.772 40.7699 237.351 41.458C237.934 42.1416 238.226 43.0804 238.226 44.2744ZM232.36 44.2744C232.36 45.2952 232.584 46.0928 233.03 46.667C233.481 47.2367 234.117 47.5215 234.938 47.5215C235.758 47.5215 236.391 47.2367 236.838 46.667C237.289 46.0928 237.515 45.2952 237.515 44.2744C237.515 43.249 237.287 42.4538 236.831 41.8887C236.38 41.3236 235.744 41.041 234.924 41.041C234.104 41.041 233.47 41.3236 233.023 41.8887C232.581 42.4492 232.36 43.2445 232.36 44.2744ZM245.984 42.3604C245.984 42.8298 245.868 43.1989 245.636 43.4678C245.403 43.7321 245.025 43.9167 244.501 44.0215V44.0693C245.098 44.1377 245.529 44.3109 245.793 44.5889C246.062 44.8623 246.196 45.2565 246.196 45.7715C246.196 46.487 245.959 47.0384 245.485 47.4258C245.016 47.8086 244.328 48 243.421 48H240.283V40.5693H243.435C244.282 40.5693 244.918 40.722 245.342 41.0273C245.77 41.3327 245.984 41.777 245.984 42.3604ZM245.479 45.7578C245.479 44.8464 244.779 44.3906 243.38 44.3906H240.96V47.3574H243.476C244.811 47.3574 245.479 46.8242 245.479 45.7578ZM245.267 42.415C245.267 41.9821 245.112 41.6745 244.802 41.4922C244.492 41.3053 244.027 41.2119 243.407 41.2119H240.96V43.7549H243.325C244.018 43.7549 244.515 43.6478 244.815 43.4336C245.116 43.2194 245.267 42.8799 245.267 42.415ZM248.985 46.373L249.067 46.5166C248.726 47.7243 248.329 48.8203 247.878 49.8047H247.434C247.785 48.5514 248.035 47.4076 248.186 46.373H248.985ZM5.27734 59.5693H6.11816L2.78906 63.165L6.35742 67H5.44824L1.93457 63.2334V67H1.24414V59.5693H1.93457V63.1787L5.27734 59.5693ZM13.8154 63.2744C13.8154 64.4867 13.5215 65.4346 12.9336 66.1182C12.3457 66.7972 11.5345 67.1367 10.5 67.1367C9.84831 67.1367 9.27409 66.9795 8.77734 66.665C8.2806 66.3506 7.90007 65.8994 7.63574 65.3115C7.37142 64.7236 7.23926 64.0446 7.23926 63.2744C7.23926 62.0622 7.5332 61.1188 8.12109 60.4443C8.70898 59.7653 9.51562 59.4258 10.541 59.4258C11.5618 59.4258 12.3617 59.7699 12.9404 60.458C13.5238 61.1416 13.8154 62.0804 13.8154 63.2744ZM7.9502 63.2744C7.9502 64.2952 8.1735 65.0928 8.62012 65.667C9.07129 66.2367 9.70703 66.5215 10.5273 66.5215C11.3477 66.5215 11.9811 66.2367 12.4277 65.667C12.8789 65.0928 13.1045 64.2952 13.1045 63.2744C13.1045 62.249 12.8766 61.4538 12.4209 60.8887C11.9697 60.3236 11.334 60.041 10.5137 60.041C9.69336 60.041 9.0599 60.3236 8.61328 60.8887C8.17122 61.4492 7.9502 62.2445 7.9502 63.2744ZM20.5898 60.1572H18.1152V67H17.4453V60.1572H14.9092V59.5693H20.5898V60.1572ZM28.2666 63.2744C28.2666 64.4867 27.9727 65.4346 27.3848 66.1182C26.7969 66.7972 25.9857 67.1367 24.9512 67.1367C24.2995 67.1367 23.7253 66.9795 23.2285 66.665C22.7318 66.3506 22.3512 65.8994 22.0869 65.3115C21.8226 64.7236 21.6904 64.0446 21.6904 63.2744C21.6904 62.0622 21.9844 61.1188 22.5723 60.4443C23.1602 59.7653 23.9668 59.4258 24.9922 59.4258C26.013 59.4258 26.8128 59.7699 27.3916 60.458C27.9749 61.1416 28.2666 62.0804 28.2666 63.2744ZM22.4014 63.2744C22.4014 64.2952 22.6247 65.0928 23.0713 65.667C23.5225 66.2367 24.1582 66.5215 24.9785 66.5215C25.7988 66.5215 26.4323 66.2367 26.8789 65.667C27.3301 65.0928 27.5557 64.2952 27.5557 63.2744C27.5557 62.249 27.3278 61.4538 26.8721 60.8887C26.4209 60.3236 25.7852 60.041 24.9648 60.041C24.1445 60.041 23.5111 60.3236 23.0645 60.8887C22.6224 61.4492 22.4014 62.2445 22.4014 63.2744ZM33.5029 67.1367C32.359 67.1367 31.5251 66.7083 31.001 65.8516H30.9531L30.9736 66.4258C30.9919 66.763 31.001 67.1322 31.001 67.5332V70.3633H30.3242V59.5693H30.8984L31.0283 60.6289H31.0693C31.5798 59.8268 32.3955 59.4258 33.5166 59.4258C34.5192 59.4258 35.2826 59.7562 35.8066 60.417C36.3353 61.0732 36.5996 62.0303 36.5996 63.2881C36.5996 64.5094 36.3216 65.4574 35.7656 66.1318C35.2142 66.8018 34.46 67.1367 33.5029 67.1367ZM33.4893 66.5352C34.2503 66.5352 34.8382 66.2526 35.2529 65.6875C35.6722 65.1224 35.8818 64.3317 35.8818 63.3154C35.8818 61.1325 35.0934 60.041 33.5166 60.041C32.6507 60.041 32.015 60.2803 31.6094 60.7588C31.2038 61.2327 31.001 62.0075 31.001 63.083V63.3018C31.001 64.4639 31.1947 65.2933 31.582 65.79C31.974 66.2868 32.6097 66.5352 33.4893 66.5352ZM43.1758 67L43.0049 65.8242H42.9502C42.5765 66.3027 42.1914 66.6423 41.7949 66.8428C41.403 67.0387 40.9382 67.1367 40.4004 67.1367C39.6712 67.1367 39.1038 66.9499 38.6982 66.5762C38.2926 66.2025 38.0898 65.6852 38.0898 65.0244C38.0898 64.2998 38.3906 63.737 38.9922 63.3359C39.5983 62.9349 40.4733 62.723 41.6172 62.7002L43.0322 62.6592V62.167C43.0322 61.4606 42.8887 60.9274 42.6016 60.5674C42.3145 60.2074 41.8519 60.0273 41.2139 60.0273C40.5257 60.0273 39.8125 60.2188 39.0742 60.6016L38.8213 60.0137C39.637 59.6309 40.4437 59.4395 41.2412 59.4395C42.057 59.4395 42.6654 59.6514 43.0664 60.0752C43.472 60.499 43.6748 61.1598 43.6748 62.0576V67H43.1758ZM40.4414 66.5215C41.2344 66.5215 41.8587 66.2959 42.3145 65.8447C42.7747 65.389 43.0049 64.7578 43.0049 63.9512V63.2197L41.7061 63.2744C40.6624 63.3245 39.9173 63.4886 39.4707 63.7666C39.0286 64.04 38.8076 64.4684 38.8076 65.0518C38.8076 65.5166 38.9489 65.8789 39.2314 66.1387C39.5186 66.3939 39.9219 66.5215 40.4414 66.5215ZM45.9785 67H45.124L47.3662 63.7939C46.6826 63.6663 46.1882 63.4294 45.8828 63.083C45.582 62.7367 45.4316 62.2923 45.4316 61.75C45.4316 61.0755 45.6572 60.5446 46.1084 60.1572C46.5641 59.7653 47.1748 59.5693 47.9404 59.5693H51.0029V67H50.333V63.876H48.0635L45.9785 67ZM46.1426 61.7227C46.1426 62.2331 46.3066 62.6136 46.6348 62.8643C46.9674 63.1104 47.4665 63.2334 48.1318 63.2334H50.333V60.2119H47.9268C47.3617 60.2119 46.9219 60.3418 46.6074 60.6016C46.2975 60.8568 46.1426 61.2305 46.1426 61.7227ZM56.7314 62.5361C56.7314 59.3096 57.6406 57.4707 59.459 57.0195C60.097 56.86 60.7077 56.7256 61.291 56.6162C61.8789 56.5023 62.3984 56.402 62.8496 56.3154L62.9727 56.9033L62.1523 57.0605C60.7988 57.3158 59.9056 57.5117 59.4727 57.6484C58.8574 57.8262 58.3743 58.2523 58.0234 58.9268C57.6771 59.6012 57.4788 60.5241 57.4287 61.6953H57.4697C57.9574 61.1165 58.4313 60.7041 58.8916 60.458C59.3519 60.2074 59.8258 60.082 60.3135 60.082C61.2249 60.082 61.9222 60.376 62.4053 60.9639C62.8883 61.5518 63.1299 62.388 63.1299 63.4727C63.1299 64.6257 62.8519 65.5257 62.2959 66.1729C61.7399 66.8154 60.9583 67.1367 59.9512 67.1367C58.9303 67.1367 58.1374 66.738 57.5723 65.9404C57.0117 65.1429 56.7314 64.0081 56.7314 62.5361ZM60.0059 66.5215C60.7852 66.5215 61.3799 66.2617 61.79 65.7422C62.2048 65.2227 62.4121 64.4753 62.4121 63.5C62.4121 62.5749 62.2275 61.8776 61.8584 61.4082C61.4938 60.9342 60.9561 60.6973 60.2451 60.6973C59.7165 60.6973 59.2038 60.8636 58.707 61.1963C58.2148 61.5244 57.7842 61.9801 57.415 62.5635C57.415 63.3792 57.5153 64.0947 57.7158 64.71C57.9209 65.3252 58.2171 65.7809 58.6045 66.0771C58.9919 66.3734 59.459 66.5215 60.0059 66.5215ZM63.9297 59.5693H64.627L66.1992 63.7393C66.6777 65.0199 66.9808 65.8835 67.1084 66.3301H67.1494C67.3408 65.7422 67.653 64.8649 68.0859 63.6982L69.6582 59.5693H70.3555L67.0264 68.2031C66.7575 68.9049 66.5319 69.3789 66.3496 69.625C66.1673 69.8711 65.9531 70.0557 65.707 70.1787C65.4655 70.3018 65.1715 70.3633 64.8252 70.3633C64.5654 70.3633 64.276 70.3154 63.957 70.2197V69.6318C64.2214 69.7048 64.5062 69.7412 64.8115 69.7412C65.0439 69.7412 65.249 69.6865 65.4268 69.5771C65.6045 69.4678 65.764 69.2969 65.9053 69.0645C66.0511 68.8366 66.2174 68.472 66.4043 67.9707C66.5957 67.474 66.7188 67.1504 66.7734 67L63.9297 59.5693ZM77.6631 69.5225H76.9932V67H71.3057V69.5225H70.6357V66.3574H71.1279C71.7477 65.487 72.2262 64.4775 72.5635 63.3291C72.9007 62.1807 73.0785 60.9274 73.0967 59.5693H76.6719V66.3574H77.6631V69.5225ZM75.9951 66.3574V60.1982H73.6846C73.5752 62.6637 72.9782 64.7168 71.8936 66.3574H75.9951ZM82.2432 67.1367C81.1631 67.1367 80.32 66.804 79.7139 66.1387C79.1123 65.4733 78.8115 64.5413 78.8115 63.3428C78.8115 62.1579 79.1032 61.21 79.6865 60.499C80.2699 59.7835 81.056 59.4258 82.0449 59.4258C82.9199 59.4258 83.6104 59.7311 84.1162 60.3418C84.6221 60.9525 84.875 61.7819 84.875 62.8301V63.377H79.5225C79.5316 64.3978 79.7686 65.1771 80.2334 65.7148C80.7028 66.2526 81.3727 66.5215 82.2432 66.5215C82.667 66.5215 83.0384 66.4919 83.3574 66.4326C83.681 66.3734 84.0889 66.2458 84.5811 66.0498V66.665C84.1618 66.8473 83.7744 66.9704 83.4189 67.0342C83.0635 67.1025 82.6715 67.1367 82.2432 67.1367ZM82.0449 60.0273C81.3294 60.0273 80.7552 60.2643 80.3223 60.7383C79.8893 61.2077 79.6364 61.8867 79.5635 62.7754H84.1572C84.1572 61.9141 83.9704 61.2419 83.5967 60.7588C83.223 60.2712 82.7057 60.0273 82.0449 60.0273ZM91.6426 60.1572H89.168V67H88.498V60.1572H85.9619V59.5693H91.6426V60.1572ZM101.527 60.1572H99.0527V67H98.3828V60.1572H95.8467V59.5693H101.527V60.1572ZM106.06 67.1367C104.979 67.1367 104.136 66.804 103.53 66.1387C102.929 65.4733 102.628 64.5413 102.628 63.3428C102.628 62.1579 102.92 61.21 103.503 60.499C104.086 59.7835 104.872 59.4258 105.861 59.4258C106.736 59.4258 107.427 59.7311 107.933 60.3418C108.438 60.9525 108.691 61.7819 108.691 62.8301V63.377H103.339C103.348 64.3978 103.585 65.1771 104.05 65.7148C104.519 66.2526 105.189 66.5215 106.06 66.5215C106.483 66.5215 106.855 66.4919 107.174 66.4326C107.497 66.3734 107.905 66.2458 108.397 66.0498V66.665C107.978 66.8473 107.591 66.9704 107.235 67.0342C106.88 67.1025 106.488 67.1367 106.06 67.1367ZM105.861 60.0273C105.146 60.0273 104.572 60.2643 104.139 60.7383C103.706 61.2077 103.453 61.8867 103.38 62.7754H107.974C107.974 61.9141 107.787 61.2419 107.413 60.7588C107.039 60.2712 106.522 60.0273 105.861 60.0273ZM113.709 67.1367C112.647 67.1367 111.815 66.8018 111.214 66.1318C110.612 65.4619 110.312 64.5277 110.312 63.3291C110.312 62.0986 110.624 61.1416 111.248 60.458C111.872 59.7699 112.727 59.4258 113.812 59.4258C114.454 59.4258 115.069 59.5374 115.657 59.7607L115.473 60.3623C114.83 60.1481 114.272 60.041 113.798 60.041C112.886 60.041 112.196 60.3236 111.727 60.8887C111.257 61.4492 111.022 62.2581 111.022 63.3154C111.022 64.318 111.257 65.1042 111.727 65.6738C112.196 66.2389 112.852 66.5215 113.695 66.5215C114.37 66.5215 114.996 66.4007 115.575 66.1592V66.7881C115.101 67.0205 114.479 67.1367 113.709 67.1367ZM118.077 59.5693V62.8301H122.794V59.5693H123.464V67H122.794V63.418H118.077V67H117.4V59.5693H118.077ZM132.104 63.2744C132.104 64.4867 131.811 65.4346 131.223 66.1182C130.635 66.7972 129.824 67.1367 128.789 67.1367C128.137 67.1367 127.563 66.9795 127.066 66.665C126.57 66.3506 126.189 65.8994 125.925 65.3115C125.66 64.7236 125.528 64.0446 125.528 63.2744C125.528 62.0622 125.822 61.1188 126.41 60.4443C126.998 59.7653 127.805 59.4258 128.83 59.4258C129.851 59.4258 130.651 59.7699 131.229 60.458C131.813 61.1416 132.104 62.0804 132.104 63.2744ZM126.239 63.2744C126.239 64.2952 126.463 65.0928 126.909 65.667C127.36 66.2367 127.996 66.5215 128.816 66.5215C129.637 66.5215 130.27 66.2367 130.717 65.667C131.168 65.0928 131.394 64.2952 131.394 63.2744C131.394 62.249 131.166 61.4538 130.71 60.8887C130.259 60.3236 129.623 60.041 128.803 60.041C127.982 60.041 127.349 60.3236 126.902 60.8887C126.46 61.4492 126.239 62.2445 126.239 63.2744ZM143.5 61.3604C143.5 61.8298 143.384 62.1989 143.151 62.4678C142.919 62.7321 142.541 62.9167 142.017 63.0215V63.0693C142.614 63.1377 143.044 63.3109 143.309 63.5889C143.577 63.8623 143.712 64.2565 143.712 64.7715C143.712 65.487 143.475 66.0384 143.001 66.4258C142.532 66.8086 141.843 67 140.937 67H137.799V59.5693H140.95C141.798 59.5693 142.434 59.722 142.857 60.0273C143.286 60.3327 143.5 60.777 143.5 61.3604ZM142.994 64.7578C142.994 63.8464 142.295 63.3906 140.896 63.3906H138.476V66.3574H140.991C142.326 66.3574 142.994 65.8242 142.994 64.7578ZM142.782 61.415C142.782 60.9821 142.627 60.6745 142.317 60.4922C142.007 60.3053 141.543 60.2119 140.923 60.2119H138.476V62.7549H140.841C141.534 62.7549 142.03 62.6478 142.331 62.4336C142.632 62.2194 142.782 61.8799 142.782 61.415ZM147.13 62.7754C148.474 62.7754 149.146 62.3128 149.146 61.3877C149.146 60.9456 148.992 60.6084 148.682 60.376C148.372 60.1436 147.93 60.0273 147.355 60.0273C146.991 60.0273 146.651 60.0706 146.337 60.1572C146.022 60.2393 145.685 60.36 145.325 60.5195L145.072 59.959C145.865 59.6035 146.635 59.4258 147.383 59.4258C148.194 59.4258 148.809 59.5944 149.229 59.9316C149.648 60.2689 149.857 60.736 149.857 61.333C149.857 62.1943 149.415 62.7435 148.531 62.9805V63.0215C149.083 63.1582 149.484 63.3861 149.734 63.7051C149.985 64.0195 150.11 64.4229 150.11 64.915C150.11 65.6032 149.857 66.1455 149.352 66.542C148.85 66.9385 148.153 67.1367 147.26 67.1367C146.777 67.1367 146.335 67.0911 145.934 67C145.537 66.9043 145.209 66.779 144.949 66.624V65.9473C145.419 66.1706 145.824 66.3232 146.166 66.4053C146.508 66.4827 146.872 66.5215 147.26 66.5215C147.934 66.5215 148.458 66.3802 148.832 66.0977C149.21 65.8105 149.399 65.4027 149.399 64.874C149.399 64.359 149.219 63.9785 148.859 63.7324C148.499 63.4863 147.959 63.3633 147.239 63.3633H146.207V62.7754H147.13ZM156.57 67L156.399 65.8242H156.345C155.971 66.3027 155.586 66.6423 155.189 66.8428C154.798 67.0387 154.333 67.1367 153.795 67.1367C153.066 67.1367 152.498 66.9499 152.093 66.5762C151.687 66.2025 151.484 65.6852 151.484 65.0244C151.484 64.2998 151.785 63.737 152.387 63.3359C152.993 62.9349 153.868 62.723 155.012 62.7002L156.427 62.6592V62.167C156.427 61.4606 156.283 60.9274 155.996 60.5674C155.709 60.2074 155.246 60.0273 154.608 60.0273C153.92 60.0273 153.207 60.2188 152.469 60.6016L152.216 60.0137C153.032 59.6309 153.838 59.4395 154.636 59.4395C155.451 59.4395 156.06 59.6514 156.461 60.0752C156.867 60.499 157.069 61.1598 157.069 62.0576V67H156.57ZM153.836 66.5215C154.629 66.5215 155.253 66.2959 155.709 65.8447C156.169 65.389 156.399 64.7578 156.399 63.9512V63.2197L155.101 63.2744C154.057 63.3245 153.312 63.4886 152.865 63.7666C152.423 64.04 152.202 64.4684 152.202 65.0518C152.202 65.5166 152.343 65.8789 152.626 66.1387C152.913 66.3939 153.316 66.5215 153.836 66.5215ZM160.125 59.5693V64.9424L160.084 66.3438L164.493 59.5693H165.396V67H164.746V61.6611L164.773 60.2256L160.364 67H159.482V59.5693H160.125ZM171.35 66.2754L171.773 65.0791L173.913 59.5693H174.85V67H174.207V60.3896C174.107 60.6768 174 60.9707 173.886 61.2715C173.776 61.5723 173.034 63.4818 171.657 67H171.056L168.998 61.7773C168.911 61.5677 168.829 61.3467 168.752 61.1143C168.679 60.8818 168.597 60.6312 168.506 60.3623V67H167.891V59.5693H168.786L170.933 65.0381C171.101 65.4801 171.24 65.8926 171.35 66.2754ZM183.483 63.2744C183.483 64.4867 183.189 65.4346 182.602 66.1182C182.014 66.7972 181.202 67.1367 180.168 67.1367C179.516 67.1367 178.942 66.9795 178.445 66.665C177.949 66.3506 177.568 65.8994 177.304 65.3115C177.039 64.7236 176.907 64.0446 176.907 63.2744C176.907 62.0622 177.201 61.1188 177.789 60.4443C178.377 59.7653 179.184 59.4258 180.209 59.4258C181.23 59.4258 182.03 59.7699 182.608 60.458C183.192 61.1416 183.483 62.0804 183.483 63.2744ZM177.618 63.2744C177.618 64.2952 177.841 65.0928 178.288 65.667C178.739 66.2367 179.375 66.5215 180.195 66.5215C181.016 66.5215 181.649 66.2367 182.096 65.667C182.547 65.0928 182.772 64.2952 182.772 63.2744C182.772 62.249 182.545 61.4538 182.089 60.8887C181.638 60.3236 181.002 60.041 180.182 60.041C179.361 60.041 178.728 60.3236 178.281 60.8887C177.839 61.4492 177.618 62.2445 177.618 63.2744ZM191.604 69.5225H190.935V67H185.247V69.5225H184.577V66.3574H185.069C185.689 65.487 186.168 64.4775 186.505 63.3291C186.842 62.1807 187.02 60.9274 187.038 59.5693H190.613V66.3574H191.604V69.5225ZM189.937 66.3574V60.1982H187.626C187.517 62.6637 186.92 64.7168 185.835 66.3574H189.937ZM196.185 67.1367C195.104 67.1367 194.261 66.804 193.655 66.1387C193.054 65.4733 192.753 64.5413 192.753 63.3428C192.753 62.1579 193.045 61.21 193.628 60.499C194.211 59.7835 194.997 59.4258 195.986 59.4258C196.861 59.4258 197.552 59.7311 198.058 60.3418C198.563 60.9525 198.816 61.7819 198.816 62.8301V63.377H193.464C193.473 64.3978 193.71 65.1771 194.175 65.7148C194.644 66.2526 195.314 66.5215 196.185 66.5215C196.608 66.5215 196.98 66.4919 197.299 66.4326C197.622 66.3734 198.03 66.2458 198.522 66.0498V66.665C198.103 66.8473 197.716 66.9704 197.36 67.0342C197.005 67.1025 196.613 67.1367 196.185 67.1367ZM195.986 60.0273C195.271 60.0273 194.697 60.2643 194.264 60.7383C193.831 61.2077 193.578 61.8867 193.505 62.7754H198.099C198.099 61.9141 197.912 61.2419 197.538 60.7588C197.164 60.2712 196.647 60.0273 195.986 60.0273ZM201.51 59.5693V64.9424L201.469 66.3438L205.878 59.5693H206.78V67H206.131V61.6611L206.158 60.2256L201.749 67H200.867V59.5693H201.51ZM203.827 58.5166C203.148 58.5166 202.631 58.3662 202.275 58.0654C201.92 57.7601 201.713 57.2702 201.653 56.5957H202.255C202.323 57.097 202.478 57.4525 202.72 57.6621C202.961 57.8672 203.335 57.9697 203.841 57.9697C204.342 57.9697 204.714 57.8626 204.955 57.6484C205.201 57.4342 205.352 57.0833 205.406 56.5957H206.008C205.912 57.8763 205.185 58.5166 203.827 58.5166ZM212.242 67.1367C211.18 67.1367 210.349 66.8018 209.747 66.1318C209.146 65.4619 208.845 64.5277 208.845 63.3291C208.845 62.0986 209.157 61.1416 209.781 60.458C210.406 59.7699 211.26 59.4258 212.345 59.4258C212.987 59.4258 213.603 59.5374 214.19 59.7607L214.006 60.3623C213.363 60.1481 212.805 60.041 212.331 60.041C211.42 60.041 210.729 60.3236 210.26 60.8887C209.79 61.4492 209.556 62.2581 209.556 63.3154C209.556 64.318 209.79 65.1042 210.26 65.6738C210.729 66.2389 211.385 66.5215 212.229 66.5215C212.903 66.5215 213.53 66.4007 214.108 66.1592V66.7881C213.634 67.0205 213.012 67.1367 212.242 67.1367ZM220.65 60.1572H218.176V67H217.506V60.1572H214.97V59.5693H220.65V60.1572ZM227.883 61.3604C227.883 61.8298 227.767 62.1989 227.534 62.4678C227.302 62.7321 226.924 62.9167 226.399 63.0215V63.0693C226.996 63.1377 227.427 63.3109 227.691 63.5889C227.96 63.8623 228.095 64.2565 228.095 64.7715C228.095 65.487 227.858 66.0384 227.384 66.4258C226.914 66.8086 226.226 67 225.319 67H222.182V59.5693H225.333C226.181 59.5693 226.816 59.722 227.24 60.0273C227.669 60.3327 227.883 60.777 227.883 61.3604ZM227.377 64.7578C227.377 63.8464 226.677 63.3906 225.278 63.3906H222.858V66.3574H225.374C226.709 66.3574 227.377 65.8242 227.377 64.7578ZM227.165 61.415C227.165 60.9821 227.01 60.6745 226.7 60.4922C226.39 60.3053 225.925 60.2119 225.306 60.2119H222.858V62.7549H225.224C225.916 62.7549 226.413 62.6478 226.714 62.4336C227.015 62.2194 227.165 61.8799 227.165 61.415ZM236.257 63.2744C236.257 64.4867 235.963 65.4346 235.375 66.1182C234.787 66.7972 233.976 67.1367 232.941 67.1367C232.29 67.1367 231.715 66.9795 231.219 66.665C230.722 66.3506 230.341 65.8994 230.077 65.3115C229.813 64.7236 229.681 64.0446 229.681 63.2744C229.681 62.0622 229.975 61.1188 230.562 60.4443C231.15 59.7653 231.957 59.4258 232.982 59.4258C234.003 59.4258 234.803 59.7699 235.382 60.458C235.965 61.1416 236.257 62.0804 236.257 63.2744ZM230.392 63.2744C230.392 64.2952 230.615 65.0928 231.062 65.667C231.513 66.2367 232.148 66.5215 232.969 66.5215C233.789 66.5215 234.423 66.2367 234.869 65.667C235.32 65.0928 235.546 64.2952 235.546 63.2744C235.546 62.249 235.318 61.4538 234.862 60.8887C234.411 60.3236 233.775 60.041 232.955 60.041C232.135 60.041 231.501 60.3236 231.055 60.8887C230.613 61.4492 230.392 62.2445 230.392 63.2744ZM244.016 61.3604C244.016 61.8298 243.899 62.1989 243.667 62.4678C243.435 62.7321 243.056 62.9167 242.532 63.0215V63.0693C243.129 63.1377 243.56 63.3109 243.824 63.5889C244.093 63.8623 244.228 64.2565 244.228 64.7715C244.228 65.487 243.991 66.0384 243.517 66.4258C243.047 66.8086 242.359 67 241.452 67H238.314V59.5693H241.466C242.313 59.5693 242.949 59.722 243.373 60.0273C243.801 60.3327 244.016 60.777 244.016 61.3604ZM243.51 64.7578C243.51 63.8464 242.81 63.3906 241.411 63.3906H238.991V66.3574H241.507C242.842 66.3574 243.51 65.8242 243.51 64.7578ZM243.298 61.415C243.298 60.9821 243.143 60.6745 242.833 60.4922C242.523 60.3053 242.058 60.2119 241.438 60.2119H238.991V62.7549H241.356C242.049 62.7549 242.546 62.6478 242.847 62.4336C243.147 62.2194 243.298 61.8799 243.298 61.415ZM250.756 67L250.585 65.8242H250.53C250.157 66.3027 249.771 66.6423 249.375 66.8428C248.983 67.0387 248.518 67.1367 247.98 67.1367C247.251 67.1367 246.684 66.9499 246.278 66.5762C245.873 66.2025 245.67 65.6852 245.67 65.0244C245.67 64.2998 245.971 63.737 246.572 63.3359C247.178 62.9349 248.053 62.723 249.197 62.7002L250.612 62.6592V62.167C250.612 61.4606 250.469 60.9274 250.182 60.5674C249.895 60.2074 249.432 60.0273 248.794 60.0273C248.106 60.0273 247.393 60.2188 246.654 60.6016L246.401 60.0137C247.217 59.6309 248.024 59.4395 248.821 59.4395C249.637 59.4395 250.245 59.6514 250.646 60.0752C251.052 60.499 251.255 61.1598 251.255 62.0576V67H250.756ZM248.021 66.5215C248.814 66.5215 249.439 66.2959 249.895 65.8447C250.355 65.389 250.585 64.7578 250.585 63.9512V63.2197L249.286 63.2744C248.243 63.3245 247.497 63.4886 247.051 63.7666C246.609 64.04 246.388 64.4684 246.388 65.0518C246.388 65.5166 246.529 65.8789 246.812 66.1387C247.099 66.3939 247.502 66.5215 248.021 66.5215ZM258.385 60.1572H255.91V67H255.24V60.1572H252.704V59.5693H258.385V60.1572ZM260.593 62.7002H263.211C264.956 62.7002 265.829 63.3861 265.829 64.7578C265.829 65.4642 265.585 66.0156 265.098 66.4121C264.61 66.804 263.91 67 262.999 67H259.916V59.5693H260.593V62.7002ZM260.593 63.3428V66.3574H263.108C263.756 66.3574 264.25 66.2207 264.592 65.9473C264.938 65.6738 265.111 65.2728 265.111 64.7441C265.111 64.252 264.959 63.8965 264.653 63.6777C264.348 63.4544 263.819 63.3428 263.067 63.3428H260.593ZM4.21094 86.1367C3.14909 86.1367 2.31738 85.8018 1.71582 85.1318C1.11426 84.4619 0.813477 83.5277 0.813477 82.3291C0.813477 81.0986 1.12565 80.1416 1.75 79.458C2.37435 78.7699 3.22884 78.4258 4.31348 78.4258C4.95605 78.4258 5.57129 78.5374 6.15918 78.7607L5.97461 79.3623C5.33203 79.1481 4.77376 79.041 4.2998 79.041C3.38835 79.041 2.69792 79.3236 2.22852 79.8887C1.75911 80.4492 1.52441 81.2581 1.52441 82.3154C1.52441 83.318 1.75911 84.1042 2.22852 84.6738C2.69792 85.2389 3.35417 85.5215 4.19727 85.5215C4.87174 85.5215 5.49837 85.4007 6.07715 85.1592V85.7881C5.60319 86.0205 4.98112 86.1367 4.21094 86.1367ZM12.9404 81.7754C14.2848 81.7754 14.957 81.3128 14.957 80.3877C14.957 79.9456 14.8021 79.6084 14.4922 79.376C14.1823 79.1436 13.7402 79.0273 13.166 79.0273C12.8014 79.0273 12.4619 79.0706 12.1475 79.1572C11.833 79.2393 11.4958 79.36 11.1357 79.5195L10.8828 78.959C11.6758 78.6035 12.446 78.4258 13.1934 78.4258C14.0046 78.4258 14.6198 78.5944 15.0391 78.9316C15.4583 79.2689 15.668 79.736 15.668 80.333C15.668 81.1943 15.2259 81.7435 14.3418 81.9805V82.0215C14.8932 82.1582 15.2943 82.3861 15.5449 82.7051C15.7956 83.0195 15.9209 83.4229 15.9209 83.915C15.9209 84.6032 15.668 85.1455 15.1621 85.542C14.6608 85.9385 13.9635 86.1367 13.0703 86.1367C12.5872 86.1367 12.1452 86.0911 11.7441 86C11.3477 85.9043 11.0195 85.779 10.7598 85.624V84.9473C11.2292 85.1706 11.6348 85.3232 11.9766 85.4053C12.3184 85.4827 12.6829 85.5215 13.0703 85.5215C13.7448 85.5215 14.2689 85.3802 14.6426 85.0977C15.0208 84.8105 15.21 84.4027 15.21 83.874C15.21 83.359 15.0299 82.9785 14.6699 82.7324C14.3099 82.4863 13.7699 82.3633 13.0498 82.3633H12.0176V81.7754H12.9404ZM22.3809 86L22.21 84.8242H22.1553C21.7816 85.3027 21.3965 85.6423 21 85.8428C20.6081 86.0387 20.1432 86.1367 19.6055 86.1367C18.8763 86.1367 18.3089 85.9499 17.9033 85.5762C17.4977 85.2025 17.2949 84.6852 17.2949 84.0244C17.2949 83.2998 17.5957 82.737 18.1973 82.3359C18.8034 81.9349 19.6784 81.723 20.8223 81.7002L22.2373 81.6592V81.167C22.2373 80.4606 22.0938 79.9274 21.8066 79.5674C21.5195 79.2074 21.057 79.0273 20.4189 79.0273C19.7308 79.0273 19.0176 79.2188 18.2793 79.6016L18.0264 79.0137C18.8421 78.6309 19.6488 78.4395 20.4463 78.4395C21.262 78.4395 21.8704 78.6514 22.2715 79.0752C22.6771 79.499 22.8799 80.1598 22.8799 81.0576V86H22.3809ZM19.6465 85.5215C20.4395 85.5215 21.0638 85.2959 21.5195 84.8447C21.9798 84.389 22.21 83.7578 22.21 82.9512V82.2197L20.9111 82.2744C19.8675 82.3245 19.1224 82.4886 18.6758 82.7666C18.2337 83.04 18.0127 83.4684 18.0127 84.0518C18.0127 84.5166 18.154 84.8789 18.4365 85.1387C18.7236 85.3939 19.127 85.5215 19.6465 85.5215ZM29.3262 78.5693H30.167L26.8379 82.165L30.4062 86H29.4971L25.9834 82.2334V86H25.293V78.5693H25.9834V82.1787L29.3262 78.5693ZM36.2305 86L36.0596 84.8242H36.0049C35.6312 85.3027 35.2461 85.6423 34.8496 85.8428C34.4577 86.0387 33.9928 86.1367 33.4551 86.1367C32.7259 86.1367 32.1585 85.9499 31.7529 85.5762C31.3473 85.2025 31.1445 84.6852 31.1445 84.0244C31.1445 83.2998 31.4453 82.737 32.0469 82.3359C32.653 81.9349 33.528 81.723 34.6719 81.7002L36.0869 81.6592V81.167C36.0869 80.4606 35.9434 79.9274 35.6562 79.5674C35.3691 79.2074 34.9066 79.0273 34.2686 79.0273C33.5804 79.0273 32.8672 79.2188 32.1289 79.6016L31.876 79.0137C32.6917 78.6309 33.4984 78.4395 34.2959 78.4395C35.1117 78.4395 35.7201 78.6514 36.1211 79.0752C36.5267 79.499 36.7295 80.1598 36.7295 81.0576V86H36.2305ZM33.4961 85.5215C34.2891 85.5215 34.9134 85.2959 35.3691 84.8447C35.8294 84.389 36.0596 83.7578 36.0596 82.9512V82.2197L34.7607 82.2744C33.7171 82.3245 32.972 82.4886 32.5254 82.7666C32.0833 83.04 31.8623 83.4684 31.8623 84.0518C31.8623 84.5166 32.0036 84.8789 32.2861 85.1387C32.5732 85.3939 32.9766 85.5215 33.4961 85.5215ZM40.5439 81.7754C41.8883 81.7754 42.5605 81.3128 42.5605 80.3877C42.5605 79.9456 42.4056 79.6084 42.0957 79.376C41.7858 79.1436 41.3438 79.0273 40.7695 79.0273C40.4049 79.0273 40.0654 79.0706 39.751 79.1572C39.4365 79.2393 39.0993 79.36 38.7393 79.5195L38.4863 78.959C39.2793 78.6035 40.0495 78.4258 40.7969 78.4258C41.6081 78.4258 42.2233 78.5944 42.6426 78.9316C43.0618 79.2689 43.2715 79.736 43.2715 80.333C43.2715 81.1943 42.8294 81.7435 41.9453 81.9805V82.0215C42.4967 82.1582 42.8978 82.3861 43.1484 82.7051C43.3991 83.0195 43.5244 83.4229 43.5244 83.915C43.5244 84.6032 43.2715 85.1455 42.7656 85.542C42.2643 85.9385 41.5671 86.1367 40.6738 86.1367C40.1908 86.1367 39.7487 86.0911 39.3477 86C38.9512 85.9043 38.623 85.779 38.3633 85.624V84.9473C38.8327 85.1706 39.2383 85.3232 39.5801 85.4053C39.9219 85.4827 40.2865 85.5215 40.6738 85.5215C41.3483 85.5215 41.8724 85.3802 42.2461 85.0977C42.6243 84.8105 42.8135 84.4027 42.8135 83.874C42.8135 83.359 42.6335 82.9785 42.2734 82.7324C41.9134 82.4863 41.3734 82.3633 40.6533 82.3633H39.6211V81.7754H40.5439ZM46.0195 78.5693V81.0576C46.0195 81.6865 46.1722 82.14 46.4775 82.418C46.7829 82.696 47.2523 82.835 47.8857 82.835C48.3324 82.835 48.7585 82.7552 49.1641 82.5957C49.5697 82.4362 49.9912 82.181 50.4287 81.8301V78.5693H51.1055V86H50.4287V82.4727C49.973 82.8236 49.5241 83.0742 49.082 83.2246C48.6445 83.375 48.1706 83.4502 47.6602 83.4502C46.8991 83.4502 46.3226 83.252 45.9307 82.8555C45.5433 82.459 45.3496 81.887 45.3496 81.1396V78.5693H46.0195ZM54.2363 78.5693V83.9424L54.1953 85.3438L58.6045 78.5693H59.5068V86H58.8574V80.6611L58.8848 79.2256L54.4756 86H53.5938V78.5693H54.2363ZM66.0352 78.5693H66.876L63.5469 82.165L67.1152 86H66.2061L62.6924 82.2334V86H62.002V78.5693H62.6924V82.1787L66.0352 78.5693ZM74.5732 82.2744C74.5732 83.4867 74.2793 84.4346 73.6914 85.1182C73.1035 85.7972 72.2923 86.1367 71.2578 86.1367C70.6061 86.1367 70.0319 85.9795 69.5352 85.665C69.0384 85.3506 68.6579 84.8994 68.3936 84.3115C68.1292 83.7236 67.9971 83.0446 67.9971 82.2744C67.9971 81.0622 68.291 80.1188 68.8789 79.4443C69.4668 78.7653 70.2734 78.4258 71.2988 78.4258C72.3197 78.4258 73.1195 78.7699 73.6982 79.458C74.2816 80.1416 74.5732 81.0804 74.5732 82.2744ZM68.708 82.2744C68.708 83.2952 68.9313 84.0928 69.3779 84.667C69.8291 85.2367 70.4648 85.5215 71.2852 85.5215C72.1055 85.5215 72.7389 85.2367 73.1855 84.667C73.6367 84.0928 73.8623 83.2952 73.8623 82.2744C73.8623 81.249 73.6344 80.4538 73.1787 79.8887C72.7275 79.3236 72.0918 79.041 71.2715 79.041C70.4512 79.041 69.8177 79.3236 69.3711 79.8887C68.929 80.4492 68.708 81.2445 68.708 82.2744ZM80.0898 85.2754L80.5137 84.0791L82.6533 78.5693H83.5898V86H82.9473V79.3896C82.847 79.6768 82.7399 79.9707 82.626 80.2715C82.5166 80.5723 81.7738 82.4818 80.3975 86H79.7959L77.7383 80.7773C77.6517 80.5677 77.5697 80.3467 77.4922 80.1143C77.4193 79.8818 77.3372 79.6312 77.2461 79.3623V86H76.6309V78.5693H77.5264L79.6729 84.0381C79.8415 84.4801 79.9805 84.8926 80.0898 85.2754ZM90.3916 78.5693V81.8301H95.1084V78.5693H95.7783V86H95.1084V82.418H90.3916V86H89.7148V78.5693H90.3916ZM102.785 86L102.614 84.8242H102.56C102.186 85.3027 101.801 85.6423 101.404 85.8428C101.012 86.0387 100.548 86.1367 100.01 86.1367C99.2806 86.1367 98.7132 85.9499 98.3076 85.5762C97.902 85.2025 97.6992 84.6852 97.6992 84.0244C97.6992 83.2998 98 82.737 98.6016 82.3359C99.2077 81.9349 100.083 81.723 101.227 81.7002L102.642 81.6592V81.167C102.642 80.4606 102.498 79.9274 102.211 79.5674C101.924 79.2074 101.461 79.0273 100.823 79.0273C100.135 79.0273 99.4219 79.2188 98.6836 79.6016L98.4307 79.0137C99.2464 78.6309 100.053 78.4395 100.851 78.4395C101.666 78.4395 102.275 78.6514 102.676 79.0752C103.081 79.499 103.284 80.1598 103.284 81.0576V86H102.785ZM100.051 85.5215C100.844 85.5215 101.468 85.2959 101.924 84.8447C102.384 84.389 102.614 83.7578 102.614 82.9512V82.2197L101.315 82.2744C100.272 82.3245 99.5267 82.4886 99.0801 82.7666C98.638 83.04 98.417 83.4684 98.417 84.0518C98.417 84.5166 98.5583 84.8789 98.8408 85.1387C99.1279 85.3939 99.5312 85.5215 100.051 85.5215ZM113.367 78.5693H114.208L110.879 82.165L114.447 86H113.538L110.024 82.2334V86H109.334V78.5693H110.024V82.1787L113.367 78.5693ZM120.271 86L120.101 84.8242H120.046C119.672 85.3027 119.287 85.6423 118.891 85.8428C118.499 86.0387 118.034 86.1367 117.496 86.1367C116.767 86.1367 116.2 85.9499 115.794 85.5762C115.388 85.2025 115.186 84.6852 115.186 84.0244C115.186 83.2998 115.486 82.737 116.088 82.3359C116.694 81.9349 117.569 81.723 118.713 81.7002L120.128 81.6592V81.167C120.128 80.4606 119.984 79.9274 119.697 79.5674C119.41 79.2074 118.948 79.0273 118.31 79.0273C117.621 79.0273 116.908 79.2188 116.17 79.6016L115.917 79.0137C116.733 78.6309 117.539 78.4395 118.337 78.4395C119.153 78.4395 119.761 78.6514 120.162 79.0752C120.568 79.499 120.771 80.1598 120.771 81.0576V86H120.271ZM117.537 85.5215C118.33 85.5215 118.954 85.2959 119.41 84.8447C119.87 84.389 120.101 83.7578 120.101 82.9512V82.2197L118.802 82.2744C117.758 82.3245 117.013 82.4886 116.566 82.7666C116.124 83.04 115.903 83.4684 115.903 84.0518C115.903 84.5166 116.045 84.8789 116.327 85.1387C116.614 85.3939 117.018 85.5215 117.537 85.5215ZM126.253 78.5693H126.937V82.1787L130.129 78.5693H130.956L127.736 82.1787L131.209 86H130.341L126.937 82.2334V86H126.253V82.2334L122.849 86H121.98L125.439 82.2061L122.233 78.5693H123.061L126.253 82.1787V78.5693ZM138.558 88.5225H137.888V86H132.2V88.5225H131.53V85.3574H132.022C132.642 84.487 133.121 83.4775 133.458 82.3291C133.795 81.1807 133.973 79.9274 133.991 78.5693H137.566V85.3574H138.558V88.5225ZM136.89 85.3574V79.1982H134.579C134.47 81.6637 133.873 83.7168 132.788 85.3574H136.89ZM146.282 82.2744C146.282 83.4867 145.988 84.4346 145.4 85.1182C144.812 85.7972 144.001 86.1367 142.967 86.1367C142.315 86.1367 141.741 85.9795 141.244 85.665C140.747 85.3506 140.367 84.8994 140.103 84.3115C139.838 83.7236 139.706 83.0446 139.706 82.2744C139.706 81.0622 140 80.1188 140.588 79.4443C141.176 78.7653 141.982 78.4258 143.008 78.4258C144.029 78.4258 144.828 78.7699 145.407 79.458C145.991 80.1416 146.282 81.0804 146.282 82.2744ZM140.417 82.2744C140.417 83.2952 140.64 84.0928 141.087 84.667C141.538 85.2367 142.174 85.5215 142.994 85.5215C143.814 85.5215 144.448 85.2367 144.895 84.667C145.346 84.0928 145.571 83.2952 145.571 82.2744C145.571 81.249 145.343 80.4538 144.888 79.8887C144.437 79.3236 143.801 79.041 142.98 79.041C142.16 79.041 141.527 79.3236 141.08 79.8887C140.638 80.4492 140.417 81.2445 140.417 82.2744ZM151.799 85.2754L152.223 84.0791L154.362 78.5693H155.299V86H154.656V79.3896C154.556 79.6768 154.449 79.9707 154.335 80.2715C154.226 80.5723 153.483 82.4818 152.106 86H151.505L149.447 80.7773C149.361 80.5677 149.279 80.3467 149.201 80.1143C149.128 79.8818 149.046 79.6312 148.955 79.3623V86H148.34V78.5693H149.235L151.382 84.0381C151.55 84.4801 151.689 84.8926 151.799 85.2754ZM162.627 86.1367C162.208 86.1367 161.818 86.1025 161.458 86.0342C161.098 85.9658 160.827 85.8838 160.645 85.7881V85.1592C161.223 85.4007 161.87 85.5215 162.586 85.5215C163.479 85.5215 164.192 85.2389 164.726 84.6738C165.259 84.1042 165.53 83.3385 165.539 82.377H161.301V81.7754H165.512C165.434 80.8776 165.161 80.1986 164.691 79.7383C164.227 79.2734 163.586 79.041 162.771 79.041C162.287 79.041 161.681 79.1777 160.952 79.4512L160.754 78.8428C161.009 78.738 161.328 78.6423 161.711 78.5557C162.094 78.4691 162.442 78.4258 162.757 78.4258C163.869 78.4258 164.728 78.7539 165.334 79.4102C165.94 80.0664 166.243 80.9938 166.243 82.1924C166.243 83.4183 165.92 84.3822 165.272 85.084C164.63 85.7858 163.748 86.1367 162.627 86.1367ZM173.018 79.1572H170.543V86H169.873V79.1572H167.337V78.5693H173.018V79.1572ZM179.061 86L178.89 84.8242H178.835C178.461 85.3027 178.076 85.6423 177.68 85.8428C177.288 86.0387 176.823 86.1367 176.285 86.1367C175.556 86.1367 174.989 85.9499 174.583 85.5762C174.177 85.2025 173.975 84.6852 173.975 84.0244C173.975 83.2998 174.275 82.737 174.877 82.3359C175.483 81.9349 176.358 81.723 177.502 81.7002L178.917 81.6592V81.167C178.917 80.4606 178.773 79.9274 178.486 79.5674C178.199 79.2074 177.737 79.0273 177.099 79.0273C176.41 79.0273 175.697 79.2188 174.959 79.6016L174.706 79.0137C175.522 78.6309 176.328 78.4395 177.126 78.4395C177.942 78.4395 178.55 78.6514 178.951 79.0752C179.357 79.499 179.56 80.1598 179.56 81.0576V86H179.061ZM176.326 85.5215C177.119 85.5215 177.743 85.2959 178.199 84.8447C178.66 84.389 178.89 83.7578 178.89 82.9512V82.2197L177.591 82.2744C176.547 82.3245 175.802 82.4886 175.355 82.7666C174.913 83.04 174.692 83.4684 174.692 84.0518C174.692 84.5166 174.834 84.8789 175.116 85.1387C175.403 85.3939 175.807 85.5215 176.326 85.5215ZM182.649 86H181.973V78.5693H187.899V86H187.223V79.2119H182.649V86ZM193.396 86.1367C192.315 86.1367 191.472 85.804 190.866 85.1387C190.265 84.4733 189.964 83.5413 189.964 82.3428C189.964 81.1579 190.256 80.21 190.839 79.499C191.422 78.7835 192.208 78.4258 193.197 78.4258C194.072 78.4258 194.763 78.7311 195.269 79.3418C195.774 79.9525 196.027 80.7819 196.027 81.8301V82.377H190.675C190.684 83.3978 190.921 84.1771 191.386 84.7148C191.855 85.2526 192.525 85.5215 193.396 85.5215C193.819 85.5215 194.191 85.4919 194.51 85.4326C194.833 85.3734 195.241 85.2458 195.733 85.0498V85.665C195.314 85.8473 194.927 85.9704 194.571 86.0342C194.216 86.1025 193.824 86.1367 193.396 86.1367ZM193.197 79.0273C192.482 79.0273 191.908 79.2643 191.475 79.7383C191.042 80.2077 190.789 80.8867 190.716 81.7754H195.31C195.31 80.9141 195.123 80.2419 194.749 79.7588C194.375 79.2712 193.858 79.0273 193.197 79.0273ZM204.894 86.1367C203.75 86.1367 202.916 85.7083 202.392 84.8516H202.344L202.364 85.4258C202.382 85.763 202.392 86.1322 202.392 86.5332V89.3633H201.715V78.5693H202.289L202.419 79.6289H202.46C202.97 78.8268 203.786 78.4258 204.907 78.4258C205.91 78.4258 206.673 78.7562 207.197 79.417C207.726 80.0732 207.99 81.0303 207.99 82.2881C207.99 83.5094 207.712 84.4574 207.156 85.1318C206.605 85.8018 205.851 86.1367 204.894 86.1367ZM204.88 85.5352C205.641 85.5352 206.229 85.2526 206.644 84.6875C207.063 84.1224 207.272 83.3317 207.272 82.3154C207.272 80.1325 206.484 79.041 204.907 79.041C204.041 79.041 203.406 79.2803 203 79.7588C202.594 80.2327 202.392 81.0075 202.392 82.083V82.3018C202.392 83.4639 202.585 84.2933 202.973 84.79C203.365 85.2868 204 85.5352 204.88 85.5352ZM214.566 86L214.396 84.8242H214.341C213.967 85.3027 213.582 85.6423 213.186 85.8428C212.794 86.0387 212.329 86.1367 211.791 86.1367C211.062 86.1367 210.494 85.9499 210.089 85.5762C209.683 85.2025 209.48 84.6852 209.48 84.0244C209.48 83.2998 209.781 82.737 210.383 82.3359C210.989 81.9349 211.864 81.723 213.008 81.7002L214.423 81.6592V81.167C214.423 80.4606 214.279 79.9274 213.992 79.5674C213.705 79.2074 213.243 79.0273 212.604 79.0273C211.916 79.0273 211.203 79.2188 210.465 79.6016L210.212 79.0137C211.028 78.6309 211.834 78.4395 212.632 78.4395C213.448 78.4395 214.056 78.6514 214.457 79.0752C214.863 79.499 215.065 80.1598 215.065 81.0576V86H214.566ZM211.832 85.5215C212.625 85.5215 213.249 85.2959 213.705 84.8447C214.165 84.389 214.396 83.7578 214.396 82.9512V82.2197L213.097 82.2744C212.053 82.3245 211.308 82.4886 210.861 82.7666C210.419 83.04 210.198 83.4684 210.198 84.0518C210.198 84.5166 210.34 84.8789 210.622 85.1387C210.909 85.3939 211.312 85.5215 211.832 85.5215ZM218.88 81.7754C220.224 81.7754 220.896 81.3128 220.896 80.3877C220.896 79.9456 220.742 79.6084 220.432 79.376C220.122 79.1436 219.68 79.0273 219.105 79.0273C218.741 79.0273 218.401 79.0706 218.087 79.1572C217.772 79.2393 217.435 79.36 217.075 79.5195L216.822 78.959C217.615 78.6035 218.385 78.4258 219.133 78.4258C219.944 78.4258 220.559 78.5944 220.979 78.9316C221.398 79.2689 221.607 79.736 221.607 80.333C221.607 81.1943 221.165 81.7435 220.281 81.9805V82.0215C220.833 82.1582 221.234 82.3861 221.484 82.7051C221.735 83.0195 221.86 83.4229 221.86 83.915C221.86 84.6032 221.607 85.1455 221.102 85.542C220.6 85.9385 219.903 86.1367 219.01 86.1367C218.527 86.1367 218.085 86.0911 217.684 86C217.287 85.9043 216.959 85.779 216.699 85.624V84.9473C217.169 85.1706 217.574 85.3232 217.916 85.4053C218.258 85.4827 218.622 85.5215 219.01 85.5215C219.684 85.5215 220.208 85.3802 220.582 85.0977C220.96 84.8105 221.149 84.4027 221.149 83.874C221.149 83.359 220.969 82.9785 220.609 82.7324C220.249 82.4863 219.709 82.3633 218.989 82.3633H217.957V81.7754H218.88ZM226.987 86.1367C225.843 86.1367 225.009 85.7083 224.485 84.8516H224.438L224.458 85.4258C224.476 85.763 224.485 86.1322 224.485 86.5332V89.3633H223.809V78.5693H224.383L224.513 79.6289H224.554C225.064 78.8268 225.88 78.4258 227.001 78.4258C228.004 78.4258 228.767 78.7562 229.291 79.417C229.82 80.0732 230.084 81.0303 230.084 82.2881C230.084 83.5094 229.806 84.4574 229.25 85.1318C228.699 85.8018 227.944 86.1367 226.987 86.1367ZM226.974 85.5352C227.735 85.5352 228.323 85.2526 228.737 84.6875C229.157 84.1224 229.366 83.3317 229.366 82.3154C229.366 80.1325 228.578 79.041 227.001 79.041C226.135 79.041 225.499 79.2803 225.094 79.7588C224.688 80.2327 224.485 81.0075 224.485 82.083V82.3018C224.485 83.4639 224.679 84.2933 225.066 84.79C225.458 85.2868 226.094 85.5352 226.974 85.5352ZM236.66 86L236.489 84.8242H236.435C236.061 85.3027 235.676 85.6423 235.279 85.8428C234.887 86.0387 234.423 86.1367 233.885 86.1367C233.156 86.1367 232.588 85.9499 232.183 85.5762C231.777 85.2025 231.574 84.6852 231.574 84.0244C231.574 83.2998 231.875 82.737 232.477 82.3359C233.083 81.9349 233.958 81.723 235.102 81.7002L236.517 81.6592V81.167C236.517 80.4606 236.373 79.9274 236.086 79.5674C235.799 79.2074 235.336 79.0273 234.698 79.0273C234.01 79.0273 233.297 79.2188 232.559 79.6016L232.306 79.0137C233.121 78.6309 233.928 78.4395 234.726 78.4395C235.541 78.4395 236.15 78.6514 236.551 79.0752C236.956 79.499 237.159 80.1598 237.159 81.0576V86H236.66ZM233.926 85.5215C234.719 85.5215 235.343 85.2959 235.799 84.8447C236.259 84.389 236.489 83.7578 236.489 82.9512V82.2197L235.19 82.2744C234.147 82.3245 233.402 82.4886 232.955 82.7666C232.513 83.04 232.292 83.4684 232.292 84.0518C232.292 84.5166 232.433 84.8789 232.716 85.1387C233.003 85.3939 233.406 85.5215 233.926 85.5215ZM239.169 81.5361C239.169 78.3096 240.078 76.4707 241.896 76.0195C242.535 75.86 243.145 75.7256 243.729 75.6162C244.316 75.5023 244.836 75.402 245.287 75.3154L245.41 75.9033L244.59 76.0605C243.236 76.3158 242.343 76.5117 241.91 76.6484C241.295 76.8262 240.812 77.2523 240.461 77.9268C240.115 78.6012 239.916 79.5241 239.866 80.6953H239.907C240.395 80.1165 240.869 79.7041 241.329 79.458C241.789 79.2074 242.263 79.082 242.751 79.082C243.662 79.082 244.36 79.376 244.843 79.9639C245.326 80.5518 245.567 81.388 245.567 82.4727C245.567 83.6257 245.289 84.5257 244.733 85.1729C244.177 85.8154 243.396 86.1367 242.389 86.1367C241.368 86.1367 240.575 85.738 240.01 84.9404C239.449 84.1429 239.169 83.0081 239.169 81.5361ZM242.443 85.5215C243.223 85.5215 243.817 85.2617 244.228 84.7422C244.642 84.2227 244.85 83.4753 244.85 82.5C244.85 81.5749 244.665 80.8776 244.296 80.4082C243.931 79.9342 243.394 79.6973 242.683 79.6973C242.154 79.6973 241.641 79.8636 241.145 80.1963C240.652 80.5244 240.222 80.9801 239.853 81.5635C239.853 82.3792 239.953 83.0947 240.153 83.71C240.358 84.3252 240.655 84.7809 241.042 85.0771C241.429 85.3734 241.896 85.5215 242.443 85.5215ZM253.757 82.2744C253.757 83.4867 253.463 84.4346 252.875 85.1182C252.287 85.7972 251.476 86.1367 250.441 86.1367C249.79 86.1367 249.215 85.9795 248.719 85.665C248.222 85.3506 247.841 84.8994 247.577 84.3115C247.313 83.7236 247.181 83.0446 247.181 82.2744C247.181 81.0622 247.475 80.1188 248.062 79.4443C248.65 78.7653 249.457 78.4258 250.482 78.4258C251.503 78.4258 252.303 78.7699 252.882 79.458C253.465 80.1416 253.757 81.0804 253.757 82.2744ZM247.892 82.2744C247.892 83.2952 248.115 84.0928 248.562 84.667C249.013 85.2367 249.648 85.5215 250.469 85.5215C251.289 85.5215 251.923 85.2367 252.369 84.667C252.82 84.0928 253.046 83.2952 253.046 82.2744C253.046 81.249 252.818 80.4538 252.362 79.8887C251.911 79.3236 251.275 79.041 250.455 79.041C249.635 79.041 249.001 79.3236 248.555 79.8887C248.113 80.4492 247.892 81.2445 247.892 82.2744ZM260.531 79.1572H258.057V86H257.387V79.1572H254.851V78.5693H260.531V79.1572ZM266.096 78.5693H266.937L263.607 82.165L267.176 86H266.267L262.753 82.2334V86H262.062V78.5693H262.753V82.1787L266.096 78.5693ZM269.131 78.5693V83.9424L269.09 85.3438L273.499 78.5693H274.401V86H273.752V80.6611L273.779 79.2256L269.37 86H268.488V78.5693H269.131ZM276.76 85.4668C276.76 85.0202 276.942 84.7969 277.307 84.7969C277.68 84.7969 277.867 85.0202 277.867 85.4668C277.867 85.9134 277.68 86.1367 277.307 86.1367C276.942 86.1367 276.76 85.9134 276.76 85.4668Z" fill="black"/>
</svg>
