<svg width="424" height="47" viewBox="0 0 424 47" fill="none" xmlns="http://www.w3.org/2000/svg">
<g filter="url(#filter0_i)">
<path fill-rule="evenodd" clip-rule="evenodd" d="M1.02773e-10 7.85315C1.02773e-10 7.85317 0 7.8532 0 7.85322C0 20.2983 10.0704 30.387 22.4929 30.387C34.9153 30.387 44.9857 20.2983 44.9857 7.85322C44.9857 7.8532 44.9857 7.85317 44.9857 7.85315H1.02773e-10Z" fill="#FBA021"/>
</g>
<path fill-rule="evenodd" clip-rule="evenodd" d="M3.64941 10.9609C4.74062 20.0324 12.7607 27.0752 22.4925 27.0752C32.2242 27.0752 40.2443 20.0324 41.3355 10.9609H3.64941Z" fill="white"/>
<rect x="20.1738" y="31.5571" width="4.7" height="11.4143" fill="#FF8E16"/>
<mask id="mask0" mask-type="alpha" maskUnits="userSpaceOnUse" x="20" y="31" width="5" height="12">
<rect x="20.1738" y="31.5571" width="4.7" height="11.4143" fill="white"/>
</mask>
<g mask="url(#mask0)">
<g filter="url(#filter1_f)">
<rect x="17.4873" y="36.2572" width="11.4143" height="4.7" fill="#F07D42" style="mix-blend-mode:overlay"/>
</g>
</g>
<g filter="url(#filter2_i)">
<path fill-rule="evenodd" clip-rule="evenodd" d="M7.66797 0.971436V19.1008C7.66797 27.2656 14.2868 33.8845 22.4516 33.8845C30.6164 33.8845 37.2352 27.2656 37.2352 19.1008V0.971436H7.66797Z" fill="#FFB820"/>
<path fill-rule="evenodd" clip-rule="evenodd" d="M7.66797 0.971436V19.1008C7.66797 27.2656 14.2868 33.8845 22.4516 33.8845C30.6164 33.8845 37.2352 27.2656 37.2352 19.1008V0.971436H7.66797Z" fill="url(#paint0_linear)" fill-opacity="0.8" style="mix-blend-mode:overlay"/>
</g>
<mask id="mask1" mask-type="alpha" maskUnits="userSpaceOnUse" x="7" y="0" width="31" height="34">
<path fill-rule="evenodd" clip-rule="evenodd" d="M7.66797 0.971436V19.1008C7.66797 27.2656 14.2868 33.8845 22.4516 33.8845C30.6164 33.8845 37.2352 27.2656 37.2352 19.1008V0.971436H7.66797Z" fill="white"/>
</mask>
<g mask="url(#mask1)">
<g opacity="0.3" filter="url(#filter3_f)">
<rect x="4.73047" y="-2.68567" width="36.9286" height="9.4" fill="#D2691B" style="mix-blend-mode:overlay"/>
</g>
<g opacity="0.2">
<path fill-rule="evenodd" clip-rule="evenodd" d="M36.086 -2.00436L-7.24121 48.8328L-3.43447 -9.40088L36.086 -2.00436Z" fill="url(#paint1_linear)" style="mix-blend-mode:overlay"/>
</g>
</g>
<g filter="url(#filter4_i)">
<rect x="5.40234" width="34.2429" height="4.02857" rx="2.01429" fill="#FFC155"/>
<rect x="5.40234" width="34.2429" height="4.02857" rx="2.01429" fill="url(#paint2_linear)" fill-opacity="0.6" style="mix-blend-mode:overlay"/>
</g>
<rect x="17.6449" y="39.229" width="9.80211" height="1.65705" rx="0.828523" fill="#FFA62F" stroke="#FFA528" stroke-width="1.65705"/>
<g filter="url(#filter5_i)">
<rect x="12.1162" y="40.2856" width="20.8143" height="6.71429" rx="2" fill="#B26025"/>
<rect x="12.1162" y="40.2856" width="20.8143" height="6.71429" rx="2" fill="url(#paint3_linear)" style="mix-blend-mode:overlay"/>
</g>
<rect opacity="0.3" x="17.4873" y="41.6285" width="10.0714" height="4.02857" fill="#FFF3D8"/>
<path fill-rule="evenodd" clip-rule="evenodd" d="M17.1802 24.2765C17.2334 23.9609 17.2815 23.6732 17.3304 23.3857C17.5391 22.1601 17.7481 20.9346 17.9568 19.709C17.9909 19.5089 18.0313 19.3095 18.055 19.1082C18.0616 19.0523 18.0361 18.9731 17.9962 18.9341C17.1207 18.0769 16.2411 17.2238 15.3623 16.3699C15.043 16.0598 14.7233 15.7501 14.4045 15.4393C14.2478 15.2866 14.1671 15.1073 14.24 14.8888C14.3154 14.6632 14.488 14.558 14.7165 14.5253C16.3043 14.2984 17.8913 14.0654 19.4805 13.8484C19.6931 13.8193 19.8041 13.7435 19.8994 13.5493C20.6259 12.0682 21.3678 10.5945 22.1026 9.11737C22.1893 8.94323 22.3003 8.81152 22.5123 8.8076C22.6898 8.8043 22.8266 8.87585 22.9073 9.03536C23.0886 9.39401 23.267 9.75408 23.4456 10.1141C24.0433 11.3192 24.6402 12.5247 25.2405 13.7286C25.2589 13.7656 25.3084 13.8051 25.3482 13.811C26.5193 13.9841 27.691 14.1528 28.8625 14.323C29.3579 14.395 29.8531 14.4695 30.3485 14.5415C30.5717 14.574 30.7264 14.6945 30.7934 14.9069C30.8581 15.1123 30.7888 15.2902 30.6377 15.4372C29.9025 16.153 29.1668 16.8681 28.4309 17.5832C27.9657 18.0353 27.5015 18.4884 27.0327 18.9367C26.9684 18.9981 26.9712 19.0582 26.9834 19.1297C27.1221 19.9426 27.2604 20.7556 27.3991 21.5685C27.5464 22.4315 27.6945 23.2942 27.8412 24.1573C27.8729 24.3443 27.8166 24.4997 27.6628 24.6162C27.4994 24.7398 27.328 24.7439 27.1498 24.6506C26.4928 24.3064 25.8356 23.9626 25.1785 23.6184C24.3262 23.172 23.4734 22.7265 22.6228 22.277C22.5457 22.2363 22.4885 22.2398 22.4138 22.2792C20.9214 23.0653 19.4276 23.849 17.9341 24.6333C17.6548 24.7799 17.3979 24.7291 17.2567 24.4898C17.2154 24.4198 17.2003 24.3343 17.1802 24.2765Z" fill="#FFEEB4"/>
<path d="M81.5791 21H80.8818V11.6621H75.1123V21H74.415V11.0059H81.5791V21ZM90.3838 17.2744C90.3838 18.4867 90.0898 19.4346 89.502 20.1182C88.9141 20.7972 88.1029 21.1367 87.0684 21.1367C86.4167 21.1367 85.8424 20.9795 85.3457 20.665C84.849 20.3506 84.4684 19.8994 84.2041 19.3115C83.9398 18.7236 83.8076 18.0446 83.8076 17.2744C83.8076 16.0622 84.1016 15.1188 84.6895 14.4443C85.2773 13.7653 86.084 13.4258 87.1094 13.4258C88.1302 13.4258 88.93 13.7699 89.5088 14.458C90.0921 15.1416 90.3838 16.0804 90.3838 17.2744ZM84.5186 17.2744C84.5186 18.2952 84.7419 19.0928 85.1885 19.667C85.6396 20.2367 86.2754 20.5215 87.0957 20.5215C87.916 20.5215 88.5495 20.2367 88.9961 19.667C89.4473 19.0928 89.6729 18.2952 89.6729 17.2744C89.6729 16.249 89.445 15.4538 88.9893 14.8887C88.5381 14.3236 87.9023 14.041 87.082 14.041C86.2617 14.041 85.6283 14.3236 85.1816 14.8887C84.7396 15.4492 84.5186 16.2445 84.5186 17.2744ZM92.0381 16.5361C92.0381 13.3096 92.9473 11.4707 94.7656 11.0195C95.4036 10.86 96.0143 10.7256 96.5977 10.6162C97.1855 10.5023 97.7051 10.402 98.1562 10.3154L98.2793 10.9033L97.459 11.0605C96.1055 11.3158 95.2122 11.5117 94.7793 11.6484C94.1641 11.8262 93.681 12.2523 93.3301 12.9268C92.9837 13.6012 92.7855 14.5241 92.7354 15.6953H92.7764C93.264 15.1165 93.738 14.7041 94.1982 14.458C94.6585 14.2074 95.1325 14.082 95.6201 14.082C96.5316 14.082 97.2288 14.376 97.7119 14.9639C98.195 15.5518 98.4365 16.388 98.4365 17.4727C98.4365 18.6257 98.1585 19.5257 97.6025 20.1729C97.0465 20.8154 96.265 21.1367 95.2578 21.1367C94.237 21.1367 93.444 20.738 92.8789 19.9404C92.3184 19.1429 92.0381 18.0081 92.0381 16.5361ZM95.3125 20.5215C96.0918 20.5215 96.6865 20.2617 97.0967 19.7422C97.5114 19.2227 97.7188 18.4753 97.7188 17.5C97.7188 16.5749 97.5342 15.8776 97.165 15.4082C96.8005 14.9342 96.2627 14.6973 95.5518 14.6973C95.0231 14.6973 94.5104 14.8636 94.0137 15.1963C93.5215 15.5244 93.0908 15.9801 92.7217 16.5635C92.7217 17.3792 92.8219 18.0947 93.0225 18.71C93.2275 19.3252 93.5238 19.7809 93.9111 20.0771C94.2985 20.3734 94.7656 20.5215 95.3125 20.5215ZM103.481 21.1367C102.401 21.1367 101.558 20.804 100.952 20.1387C100.351 19.4733 100.05 18.5413 100.05 17.3428C100.05 16.1579 100.341 15.21 100.925 14.499C101.508 13.7835 102.294 13.4258 103.283 13.4258C104.158 13.4258 104.849 13.7311 105.354 14.3418C105.86 14.9525 106.113 15.7819 106.113 16.8301V17.377H100.761C100.77 18.3978 101.007 19.1771 101.472 19.7148C101.941 20.2526 102.611 20.5215 103.481 20.5215C103.905 20.5215 104.277 20.4919 104.596 20.4326C104.919 20.3734 105.327 20.2458 105.819 20.0498V20.665C105.4 20.8473 105.013 20.9704 104.657 21.0342C104.302 21.1025 103.91 21.1367 103.481 21.1367ZM103.283 14.0273C102.568 14.0273 101.993 14.2643 101.561 14.7383C101.128 15.2077 100.875 15.8867 100.802 16.7754H105.396C105.396 15.9141 105.209 15.2419 104.835 14.7588C104.461 14.2712 103.944 14.0273 103.283 14.0273ZM114.228 23.5225H113.558V21H107.87V23.5225H107.2V20.3574H107.692C108.312 19.487 108.791 18.4775 109.128 17.3291C109.465 16.1807 109.643 14.9274 109.661 13.5693H113.236V20.3574H114.228V23.5225ZM112.56 20.3574V14.1982H110.249C110.14 16.6637 109.543 18.7168 108.458 20.3574H112.56ZM116.449 13.5693V18.9424L116.408 20.3438L120.817 13.5693H121.72V21H121.07V15.6611L121.098 14.2256L116.688 21H115.807V13.5693H116.449ZM128.932 14.1572H126.457V21H125.787V14.1572H123.251V13.5693H128.932V14.1572ZM133.464 21.1367C132.384 21.1367 131.541 20.804 130.935 20.1387C130.333 19.4733 130.032 18.5413 130.032 17.3428C130.032 16.1579 130.324 15.21 130.907 14.499C131.491 13.7835 132.277 13.4258 133.266 13.4258C134.141 13.4258 134.831 13.7311 135.337 14.3418C135.843 14.9525 136.096 15.7819 136.096 16.8301V17.377H130.743C130.752 18.3978 130.989 19.1771 131.454 19.7148C131.924 20.2526 132.593 20.5215 133.464 20.5215C133.888 20.5215 134.259 20.4919 134.578 20.4326C134.902 20.3734 135.31 20.2458 135.802 20.0498V20.665C135.382 20.8473 134.995 20.9704 134.64 21.0342C134.284 21.1025 133.892 21.1367 133.464 21.1367ZM133.266 14.0273C132.55 14.0273 131.976 14.2643 131.543 14.7383C131.11 15.2077 130.857 15.8867 130.784 16.7754H135.378C135.378 15.9141 135.191 15.2419 134.817 14.7588C134.444 14.2712 133.926 14.0273 133.266 14.0273ZM143.287 21H142.617V14.1982H139.985C139.849 15.9984 139.68 17.3724 139.479 18.3203C139.284 19.2637 139.028 19.9587 138.714 20.4053C138.404 20.8473 138.001 21.0684 137.504 21.0684C137.326 21.0684 137.171 21.0501 137.039 21.0137V20.3984C137.126 20.4258 137.249 20.4395 137.408 20.4395C137.923 20.4395 138.338 19.8971 138.652 18.8125C138.971 17.7233 139.213 15.9756 139.377 13.5693H143.287V21ZM146.452 16.7002H149.07C150.816 16.7002 151.688 17.3861 151.688 18.7578C151.688 19.4642 151.445 20.0156 150.957 20.4121C150.469 20.804 149.77 21 148.858 21H145.775V13.5693H146.452V16.7002ZM146.452 17.3428V20.3574H148.968C149.615 20.3574 150.109 20.2207 150.451 19.9473C150.798 19.6738 150.971 19.2728 150.971 18.7441C150.971 18.252 150.818 17.8965 150.513 17.6777C150.207 17.4544 149.679 17.3428 148.927 17.3428H146.452ZM163.084 15.3604C163.084 15.8298 162.968 16.1989 162.735 16.4678C162.503 16.7321 162.125 16.9167 161.601 17.0215V17.0693C162.198 17.1377 162.628 17.3109 162.893 17.5889C163.161 17.8623 163.296 18.2565 163.296 18.7715C163.296 19.487 163.059 20.0384 162.585 20.4258C162.116 20.8086 161.427 21 160.521 21H157.383V13.5693H160.534C161.382 13.5693 162.018 13.722 162.441 14.0273C162.87 14.3327 163.084 14.777 163.084 15.3604ZM162.578 18.7578C162.578 17.8464 161.879 17.3906 160.479 17.3906H158.06V20.3574H160.575C161.91 20.3574 162.578 19.8242 162.578 18.7578ZM162.366 15.415C162.366 14.9821 162.211 14.6745 161.901 14.4922C161.591 14.3053 161.127 14.2119 160.507 14.2119H158.06V16.7549H160.425C161.118 16.7549 161.614 16.6478 161.915 16.4336C162.216 16.2194 162.366 15.8799 162.366 15.415ZM172.982 13.5693H173.823L170.494 17.165L174.062 21H173.153L169.64 17.2334V21H168.949V13.5693H169.64V17.1787L172.982 13.5693ZM181.521 17.2744C181.521 18.4867 181.227 19.4346 180.639 20.1182C180.051 20.7972 179.24 21.1367 178.205 21.1367C177.553 21.1367 176.979 20.9795 176.482 20.665C175.986 20.3506 175.605 19.8994 175.341 19.3115C175.076 18.7236 174.944 18.0446 174.944 17.2744C174.944 16.0622 175.238 15.1188 175.826 14.4443C176.414 13.7653 177.221 13.4258 178.246 13.4258C179.267 13.4258 180.067 13.7699 180.646 14.458C181.229 15.1416 181.521 16.0804 181.521 17.2744ZM175.655 17.2744C175.655 18.2952 175.879 19.0928 176.325 19.667C176.776 20.2367 177.412 20.5215 178.232 20.5215C179.053 20.5215 179.686 20.2367 180.133 19.667C180.584 19.0928 180.81 18.2952 180.81 17.2744C180.81 16.249 180.582 15.4538 180.126 14.8887C179.675 14.3236 179.039 14.041 178.219 14.041C177.398 14.041 176.765 14.3236 176.318 14.8887C175.876 15.4492 175.655 16.2445 175.655 17.2744ZM184.255 13.5693V16.8301H188.972V13.5693H189.642V21H188.972V17.418H184.255V21H183.578V13.5693H184.255ZM196.17 13.5693H197.011L193.682 17.165L197.25 21H196.341L192.827 17.2334V21H192.137V13.5693H192.827V17.1787L196.17 13.5693ZM197.318 13.5693H198.016L199.588 17.7393C200.066 19.0199 200.369 19.8835 200.497 20.3301H200.538C200.729 19.7422 201.042 18.8649 201.475 17.6982L203.047 13.5693H203.744L200.415 22.2031C200.146 22.9049 199.921 23.3789 199.738 23.625C199.556 23.8711 199.342 24.0557 199.096 24.1787C198.854 24.3018 198.56 24.3633 198.214 24.3633C197.954 24.3633 197.665 24.3154 197.346 24.2197V23.6318C197.61 23.7048 197.895 23.7412 198.2 23.7412C198.433 23.7412 198.638 23.6865 198.815 23.5771C198.993 23.4678 199.153 23.2969 199.294 23.0645C199.44 22.8366 199.606 22.472 199.793 21.9707C199.984 21.474 200.107 21.1504 200.162 21L197.318 13.5693ZM208.167 21.1367C207.023 21.1367 206.189 20.7083 205.665 19.8516H205.617L205.638 20.4258C205.656 20.763 205.665 21.1322 205.665 21.5332V24.3633H204.988V13.5693H205.562L205.692 14.6289H205.733C206.244 13.8268 207.06 13.4258 208.181 13.4258C209.183 13.4258 209.947 13.7562 210.471 14.417C210.999 15.0732 211.264 16.0303 211.264 17.2881C211.264 18.5094 210.986 19.4574 210.43 20.1318C209.878 20.8018 209.124 21.1367 208.167 21.1367ZM208.153 20.5352C208.914 20.5352 209.502 20.2526 209.917 19.6875C210.336 19.1224 210.546 18.3317 210.546 17.3154C210.546 15.1325 209.757 14.041 208.181 14.041C207.315 14.041 206.679 14.2803 206.273 14.7588C205.868 15.2327 205.665 16.0075 205.665 17.083V17.3018C205.665 18.4639 205.859 19.2933 206.246 19.79C206.638 20.2868 207.274 20.5352 208.153 20.5352ZM216.295 21.1367C215.233 21.1367 214.401 20.8018 213.8 20.1318C213.198 19.4619 212.897 18.5277 212.897 17.3291C212.897 16.0986 213.21 15.1416 213.834 14.458C214.458 13.7699 215.313 13.4258 216.397 13.4258C217.04 13.4258 217.655 13.5374 218.243 13.7607L218.059 14.3623C217.416 14.1481 216.858 14.041 216.384 14.041C215.472 14.041 214.782 14.3236 214.312 14.8887C213.843 15.4492 213.608 16.2581 213.608 17.3154C213.608 18.318 213.843 19.1042 214.312 19.6738C214.782 20.2389 215.438 20.5215 216.281 20.5215C216.956 20.5215 217.582 20.4007 218.161 20.1592V20.7881C217.687 21.0205 217.065 21.1367 216.295 21.1367ZM222.987 21.1367C221.907 21.1367 221.064 20.804 220.458 20.1387C219.856 19.4733 219.556 18.5413 219.556 17.3428C219.556 16.1579 219.847 15.21 220.431 14.499C221.014 13.7835 221.8 13.4258 222.789 13.4258C223.664 13.4258 224.354 13.7311 224.86 14.3418C225.366 14.9525 225.619 15.7819 225.619 16.8301V17.377H220.267C220.276 18.3978 220.513 19.1771 220.978 19.7148C221.447 20.2526 222.117 20.5215 222.987 20.5215C223.411 20.5215 223.783 20.4919 224.102 20.4326C224.425 20.3734 224.833 20.2458 225.325 20.0498V20.665C224.906 20.8473 224.519 20.9704 224.163 21.0342C223.808 21.1025 223.416 21.1367 222.987 21.1367ZM222.789 14.0273C222.074 14.0273 221.499 14.2643 221.066 14.7383C220.633 15.2077 220.381 15.8867 220.308 16.7754H224.901C224.901 15.9141 224.715 15.2419 224.341 14.7588C223.967 14.2712 223.45 14.0273 222.789 14.0273ZM236.447 21H235.777V14.1982H233.146C233.009 15.9984 232.84 17.3724 232.64 18.3203C232.444 19.2637 232.188 19.9587 231.874 20.4053C231.564 20.8473 231.161 21.0684 230.664 21.0684C230.486 21.0684 230.331 21.0501 230.199 21.0137V20.3984C230.286 20.4258 230.409 20.4395 230.568 20.4395C231.083 20.4395 231.498 19.8971 231.812 18.8125C232.132 17.7233 232.373 15.9756 232.537 13.5693H236.447V21ZM237.691 13.5693H238.389L239.961 17.7393C240.439 19.0199 240.743 19.8835 240.87 20.3301H240.911C241.103 19.7422 241.415 18.8649 241.848 17.6982L243.42 13.5693H244.117L240.788 22.2031C240.519 22.9049 240.294 23.3789 240.111 23.625C239.929 23.8711 239.715 24.0557 239.469 24.1787C239.227 24.3018 238.933 24.3633 238.587 24.3633C238.327 24.3633 238.038 24.3154 237.719 24.2197V23.6318C237.983 23.7048 238.268 23.7412 238.573 23.7412C238.806 23.7412 239.011 23.6865 239.188 23.5771C239.366 23.4678 239.526 23.2969 239.667 23.0645C239.813 22.8366 239.979 22.472 240.166 21.9707C240.357 21.474 240.48 21.1504 240.535 21L237.691 13.5693ZM245.908 13.5693V16.0576C245.908 16.6865 246.061 17.14 246.366 17.418C246.672 17.696 247.141 17.835 247.774 17.835C248.221 17.835 248.647 17.7552 249.053 17.5957C249.458 17.4362 249.88 17.181 250.317 16.8301V13.5693H250.994V21H250.317V17.4727C249.862 17.8236 249.413 18.0742 248.971 18.2246C248.533 18.375 248.059 18.4502 247.549 18.4502C246.788 18.4502 246.211 18.252 245.819 17.8555C245.432 17.459 245.238 16.887 245.238 16.1396V13.5693H245.908ZM258.541 20.3574H262.246V13.5693H262.923V21H253.482V13.5693H254.159V20.3574H257.864V13.5693H258.541V20.3574ZM266.061 13.5693V18.9424L266.02 20.3438L270.429 13.5693H271.331V21H270.682V15.6611L270.709 14.2256L266.3 21H265.418V13.5693H266.061ZM274.469 13.5693V18.9424L274.428 20.3438L278.837 13.5693H279.739V21H279.09V15.6611L279.117 14.2256L274.708 21H273.826V13.5693H274.469ZM276.786 12.5166C276.107 12.5166 275.59 12.3662 275.234 12.0654C274.879 11.7601 274.672 11.2702 274.612 10.5957H275.214C275.282 11.097 275.437 11.4525 275.679 11.6621C275.92 11.8672 276.294 11.9697 276.8 11.9697C277.301 11.9697 277.673 11.8626 277.914 11.6484C278.16 11.4342 278.311 11.0833 278.365 10.5957H278.967C278.871 11.8763 278.144 12.5166 276.786 12.5166ZM288.838 21.1367C287.776 21.1367 286.944 20.8018 286.343 20.1318C285.741 19.4619 285.44 18.5277 285.44 17.3291C285.44 16.0986 285.753 15.1416 286.377 14.458C287.001 13.7699 287.856 13.4258 288.94 13.4258C289.583 13.4258 290.198 13.5374 290.786 13.7607L290.602 14.3623C289.959 14.1481 289.401 14.041 288.927 14.041C288.015 14.041 287.325 14.3236 286.855 14.8887C286.386 15.4492 286.151 16.2581 286.151 17.3154C286.151 18.318 286.386 19.1042 286.855 19.6738C287.325 20.2389 287.981 20.5215 288.824 20.5215C289.499 20.5215 290.125 20.4007 290.704 20.1592V20.7881C290.23 21.0205 289.608 21.1367 288.838 21.1367ZM297.041 21L296.87 19.8242H296.815C296.442 20.3027 296.057 20.6423 295.66 20.8428C295.268 21.0387 294.803 21.1367 294.266 21.1367C293.536 21.1367 292.969 20.9499 292.563 20.5762C292.158 20.2025 291.955 19.6852 291.955 19.0244C291.955 18.2998 292.256 17.737 292.857 17.3359C293.464 16.9349 294.339 16.723 295.482 16.7002L296.897 16.6592V16.167C296.897 15.4606 296.754 14.9274 296.467 14.5674C296.18 14.2074 295.717 14.0273 295.079 14.0273C294.391 14.0273 293.678 14.2188 292.939 14.6016L292.687 14.0137C293.502 13.6309 294.309 13.4395 295.106 13.4395C295.922 13.4395 296.531 13.6514 296.932 14.0752C297.337 14.499 297.54 15.1598 297.54 16.0576V21H297.041ZM294.307 20.5215C295.1 20.5215 295.724 20.2959 296.18 19.8447C296.64 19.389 296.87 18.7578 296.87 17.9512V17.2197L295.571 17.2744C294.528 17.3245 293.783 17.4886 293.336 17.7666C292.894 18.04 292.673 18.4684 292.673 19.0518C292.673 19.5166 292.814 19.8789 293.097 20.1387C293.384 20.3939 293.787 20.5215 294.307 20.5215ZM300.596 13.5693V18.9424L300.555 20.3438L304.964 13.5693H305.866V21H305.217V15.6611L305.244 14.2256L300.835 21H299.953V13.5693H300.596ZM302.913 12.5166C302.234 12.5166 301.717 12.3662 301.361 12.0654C301.006 11.7601 300.799 11.2702 300.739 10.5957H301.341C301.409 11.097 301.564 11.4525 301.806 11.6621C302.047 11.8672 302.421 11.9697 302.927 11.9697C303.428 11.9697 303.799 11.8626 304.041 11.6484C304.287 11.4342 304.438 11.0833 304.492 10.5957H305.094C304.998 11.8763 304.271 12.5166 302.913 12.5166ZM313.078 14.1572H310.604V21H309.934V14.1572H307.397V13.5693H313.078V14.1572ZM318.923 21H318.246V13.5693H324.173V21H323.496V14.2119H318.923V21ZM332.813 17.2744C332.813 18.4867 332.52 19.4346 331.932 20.1182C331.344 20.7972 330.533 21.1367 329.498 21.1367C328.846 21.1367 328.272 20.9795 327.775 20.665C327.279 20.3506 326.898 19.8994 326.634 19.3115C326.369 18.7236 326.237 18.0446 326.237 17.2744C326.237 16.0622 326.531 15.1188 327.119 14.4443C327.707 13.7653 328.514 13.4258 329.539 13.4258C330.56 13.4258 331.36 13.7699 331.938 14.458C332.522 15.1416 332.813 16.0804 332.813 17.2744ZM326.948 17.2744C326.948 18.2952 327.172 19.0928 327.618 19.667C328.069 20.2367 328.705 20.5215 329.525 20.5215C330.346 20.5215 330.979 20.2367 331.426 19.667C331.877 19.0928 332.103 18.2952 332.103 17.2744C332.103 16.249 331.875 15.4538 331.419 14.8887C330.968 14.3236 330.332 14.041 329.512 14.041C328.691 14.041 328.058 14.3236 327.611 14.8887C327.169 15.4492 326.948 16.2445 326.948 17.2744ZM344.209 15.3604C344.209 15.8298 344.093 16.1989 343.86 16.4678C343.628 16.7321 343.25 16.9167 342.726 17.0215V17.0693C343.323 17.1377 343.753 17.3109 344.018 17.5889C344.286 17.8623 344.421 18.2565 344.421 18.7715C344.421 19.487 344.184 20.0384 343.71 20.4258C343.241 20.8086 342.552 21 341.646 21H338.508V13.5693H341.659C342.507 13.5693 343.143 13.722 343.566 14.0273C343.995 14.3327 344.209 14.777 344.209 15.3604ZM343.703 18.7578C343.703 17.8464 343.004 17.3906 341.604 17.3906H339.185V20.3574H341.7C343.035 20.3574 343.703 19.8242 343.703 18.7578ZM343.491 15.415C343.491 14.9821 343.336 14.6745 343.026 14.4922C342.716 14.3053 342.252 14.2119 341.632 14.2119H339.185V16.7549H341.55C342.243 16.7549 342.739 16.6478 343.04 16.4336C343.341 16.2194 343.491 15.8799 343.491 15.415ZM349.438 21.1367C348.358 21.1367 347.515 20.804 346.909 20.1387C346.308 19.4733 346.007 18.5413 346.007 17.3428C346.007 16.1579 346.299 15.21 346.882 14.499C347.465 13.7835 348.251 13.4258 349.24 13.4258C350.115 13.4258 350.806 13.7311 351.312 14.3418C351.817 14.9525 352.07 15.7819 352.07 16.8301V17.377H346.718C346.727 18.3978 346.964 19.1771 347.429 19.7148C347.898 20.2526 348.568 20.5215 349.438 20.5215C349.862 20.5215 350.234 20.4919 350.553 20.4326C350.876 20.3734 351.284 20.2458 351.776 20.0498V20.665C351.357 20.8473 350.97 20.9704 350.614 21.0342C350.259 21.1025 349.867 21.1367 349.438 21.1367ZM349.24 14.0273C348.525 14.0273 347.951 14.2643 347.518 14.7383C347.085 15.2077 346.832 15.8867 346.759 16.7754H351.353C351.353 15.9141 351.166 15.2419 350.792 14.7588C350.418 14.2712 349.901 14.0273 349.24 14.0273ZM357.3 21.1367C356.156 21.1367 355.322 20.7083 354.798 19.8516H354.75L354.771 20.4258C354.789 20.763 354.798 21.1322 354.798 21.5332V24.3633H354.121V13.5693H354.695L354.825 14.6289H354.866C355.377 13.8268 356.192 13.4258 357.313 13.4258C358.316 13.4258 359.079 13.7562 359.604 14.417C360.132 15.0732 360.396 16.0303 360.396 17.2881C360.396 18.5094 360.118 19.4574 359.562 20.1318C359.011 20.8018 358.257 21.1367 357.3 21.1367ZM357.286 20.5352C358.047 20.5352 358.635 20.2526 359.05 19.6875C359.469 19.1224 359.679 18.3317 359.679 17.3154C359.679 15.1325 358.89 14.041 357.313 14.041C356.448 14.041 355.812 14.2803 355.406 14.7588C355.001 15.2327 354.798 16.0075 354.798 17.083V17.3018C354.798 18.4639 354.992 19.2933 355.379 19.79C355.771 20.2868 356.407 20.5352 357.286 20.5352ZM365.428 21.1367C364.366 21.1367 363.534 20.8018 362.933 20.1318C362.331 19.4619 362.03 18.5277 362.03 17.3291C362.03 16.0986 362.342 15.1416 362.967 14.458C363.591 13.7699 364.446 13.4258 365.53 13.4258C366.173 13.4258 366.788 13.5374 367.376 13.7607L367.191 14.3623C366.549 14.1481 365.991 14.041 365.517 14.041C364.605 14.041 363.915 14.3236 363.445 14.8887C362.976 15.4492 362.741 16.2581 362.741 17.3154C362.741 18.318 362.976 19.1042 363.445 19.6738C363.915 20.2389 364.571 20.5215 365.414 20.5215C366.089 20.5215 366.715 20.4007 367.294 20.1592V20.7881C366.82 21.0205 366.198 21.1367 365.428 21.1367ZM369.762 13.5693V18.9424L369.721 20.3438L374.13 13.5693H375.032V21H374.383V15.6611L374.41 14.2256L370.001 21H369.119V13.5693H369.762ZM378.17 13.5693V18.9424L378.129 20.3438L382.538 13.5693H383.44V21H382.791V15.6611L382.818 14.2256L378.409 21H377.527V13.5693H378.17ZM78.6123 33.1572H74.9209V40H74.2441V32.5693H78.6123V33.1572ZM86.2822 36.2744C86.2822 37.4867 85.9883 38.4346 85.4004 39.1182C84.8125 39.7972 84.0013 40.1367 82.9668 40.1367C82.3151 40.1367 81.7409 39.9795 81.2441 39.665C80.7474 39.3506 80.3669 38.8994 80.1025 38.3115C79.8382 37.7236 79.7061 37.0446 79.7061 36.2744C79.7061 35.0622 80 34.1188 80.5879 33.4443C81.1758 32.7653 81.9824 32.4258 83.0078 32.4258C84.0286 32.4258 84.8285 32.7699 85.4072 33.458C85.9906 34.1416 86.2822 35.0804 86.2822 36.2744ZM80.417 36.2744C80.417 37.2952 80.6403 38.0928 81.0869 38.667C81.5381 39.2367 82.1738 39.5215 82.9941 39.5215C83.8145 39.5215 84.4479 39.2367 84.8945 38.667C85.3457 38.0928 85.5713 37.2952 85.5713 36.2744C85.5713 35.249 85.3434 34.4538 84.8877 33.8887C84.4365 33.3236 83.8008 33.041 82.9805 33.041C82.1602 33.041 81.5267 33.3236 81.0801 33.8887C80.638 34.4492 80.417 35.2445 80.417 36.2744ZM91.3066 40.1367C90.2448 40.1367 89.4131 39.8018 88.8115 39.1318C88.21 38.4619 87.9092 37.5277 87.9092 36.3291C87.9092 35.0986 88.2214 34.1416 88.8457 33.458C89.4701 32.7699 90.3245 32.4258 91.4092 32.4258C92.0518 32.4258 92.667 32.5374 93.2549 32.7607L93.0703 33.3623C92.4277 33.1481 91.8695 33.041 91.3955 33.041C90.484 33.041 89.7936 33.3236 89.3242 33.8887C88.8548 34.4492 88.6201 35.2581 88.6201 36.3154C88.6201 37.318 88.8548 38.1042 89.3242 38.6738C89.7936 39.2389 90.4499 39.5215 91.293 39.5215C91.9674 39.5215 92.5941 39.4007 93.1729 39.1592V39.7881C92.6989 40.0205 92.0768 40.1367 91.3066 40.1367ZM93.7539 32.5693H94.4512L96.0234 36.7393C96.502 38.0199 96.805 38.8835 96.9326 39.3301H96.9736C97.165 38.7422 97.4772 37.8649 97.9102 36.6982L99.4824 32.5693H100.18L96.8506 41.2031C96.5817 41.9049 96.3561 42.3789 96.1738 42.625C95.9915 42.8711 95.7773 43.0557 95.5312 43.1787C95.2897 43.3018 94.9958 43.3633 94.6494 43.3633C94.3896 43.3633 94.1003 43.3154 93.7812 43.2197V42.6318C94.0456 42.7048 94.3304 42.7412 94.6357 42.7412C94.8682 42.7412 95.0732 42.6865 95.251 42.5771C95.4287 42.4678 95.5882 42.2969 95.7295 42.0645C95.8753 41.8366 96.0417 41.472 96.2285 40.9707C96.4199 40.474 96.543 40.1504 96.5977 40L93.7539 32.5693ZM107.487 42.5225H106.817V40H101.13V42.5225H100.46V39.3574H100.952C101.572 38.487 102.05 37.4775 102.388 36.3291C102.725 35.1807 102.903 33.9274 102.921 32.5693H106.496V39.3574H107.487V42.5225ZM105.819 39.3574V33.1982H103.509C103.399 35.6637 102.802 37.7168 101.718 39.3574H105.819ZM113.578 40L113.407 38.8242H113.353C112.979 39.3027 112.594 39.6423 112.197 39.8428C111.805 40.0387 111.34 40.1367 110.803 40.1367C110.074 40.1367 109.506 39.9499 109.101 39.5762C108.695 39.2025 108.492 38.6852 108.492 38.0244C108.492 37.2998 108.793 36.737 109.395 36.3359C110.001 35.9349 110.876 35.723 112.02 35.7002L113.435 35.6592V35.167C113.435 34.4606 113.291 33.9274 113.004 33.5674C112.717 33.2074 112.254 33.0273 111.616 33.0273C110.928 33.0273 110.215 33.2188 109.477 33.6016L109.224 33.0137C110.039 32.6309 110.846 32.4395 111.644 32.4395C112.459 32.4395 113.068 32.6514 113.469 33.0752C113.874 33.499 114.077 34.1598 114.077 35.0576V40H113.578ZM110.844 39.5215C111.637 39.5215 112.261 39.2959 112.717 38.8447C113.177 38.389 113.407 37.7578 113.407 36.9512V36.2197L112.108 36.2744C111.065 36.3245 110.32 36.4886 109.873 36.7666C109.431 37.04 109.21 37.4684 109.21 38.0518C109.21 38.5166 109.351 38.8789 109.634 39.1387C109.921 39.3939 110.324 39.5215 110.844 39.5215ZM119.669 40.1367C118.525 40.1367 117.691 39.7083 117.167 38.8516H117.119L117.14 39.4258C117.158 39.763 117.167 40.1322 117.167 40.5332V43.3633H116.49V32.5693H117.064L117.194 33.6289H117.235C117.746 32.8268 118.562 32.4258 119.683 32.4258C120.685 32.4258 121.449 32.7562 121.973 33.417C122.501 34.0732 122.766 35.0303 122.766 36.2881C122.766 37.5094 122.488 38.4574 121.932 39.1318C121.38 39.8018 120.626 40.1367 119.669 40.1367ZM119.655 39.5352C120.416 39.5352 121.004 39.2526 121.419 38.6875C121.838 38.1224 122.048 37.3317 122.048 36.3154C122.048 34.1325 121.259 33.041 119.683 33.041C118.817 33.041 118.181 33.2803 117.775 33.7588C117.37 34.2327 117.167 35.0075 117.167 36.083V36.3018C117.167 37.4639 117.361 38.2933 117.748 38.79C118.14 39.2868 118.776 39.5352 119.655 39.5352ZM127.797 40.1367C126.735 40.1367 125.903 39.8018 125.302 39.1318C124.7 38.4619 124.399 37.5277 124.399 36.3291C124.399 35.0986 124.712 34.1416 125.336 33.458C125.96 32.7699 126.815 32.4258 127.899 32.4258C128.542 32.4258 129.157 32.5374 129.745 32.7607L129.561 33.3623C128.918 33.1481 128.36 33.041 127.886 33.041C126.974 33.041 126.284 33.3236 125.814 33.8887C125.345 34.4492 125.11 35.2581 125.11 36.3154C125.11 37.318 125.345 38.1042 125.814 38.6738C126.284 39.2389 126.94 39.5215 127.783 39.5215C128.458 39.5215 129.084 39.4007 129.663 39.1592V39.7881C129.189 40.0205 128.567 40.1367 127.797 40.1367ZM136.205 33.1572H133.73V40H133.061V33.1572H130.524V32.5693H136.205V33.1572ZM143.438 34.3604C143.438 34.8298 143.321 35.1989 143.089 35.4678C142.856 35.7321 142.478 35.9167 141.954 36.0215V36.0693C142.551 36.1377 142.982 36.3109 143.246 36.5889C143.515 36.8623 143.649 37.2565 143.649 37.7715C143.649 38.487 143.412 39.0384 142.938 39.4258C142.469 39.8086 141.781 40 140.874 40H137.736V32.5693H140.888C141.735 32.5693 142.371 32.722 142.795 33.0273C143.223 33.3327 143.438 33.777 143.438 34.3604ZM142.932 37.7578C142.932 36.8464 142.232 36.3906 140.833 36.3906H138.413V39.3574H140.929C142.264 39.3574 142.932 38.8242 142.932 37.7578ZM142.72 34.415C142.72 33.9821 142.565 33.6745 142.255 33.4922C141.945 33.3053 141.48 33.2119 140.86 33.2119H138.413V35.7549H140.778C141.471 35.7549 141.968 35.6478 142.269 35.4336C142.569 35.2194 142.72 34.8799 142.72 34.415ZM148.667 40.1367C147.587 40.1367 146.744 39.804 146.138 39.1387C145.536 38.4733 145.235 37.5413 145.235 36.3428C145.235 35.1579 145.527 34.21 146.11 33.499C146.694 32.7835 147.48 32.4258 148.469 32.4258C149.344 32.4258 150.034 32.7311 150.54 33.3418C151.046 33.9525 151.299 34.7819 151.299 35.8301V36.377H145.946C145.955 37.3978 146.192 38.1771 146.657 38.7148C147.127 39.2526 147.797 39.5215 148.667 39.5215C149.091 39.5215 149.462 39.4919 149.781 39.4326C150.105 39.3734 150.513 39.2458 151.005 39.0498V39.665C150.586 39.8473 150.198 39.9704 149.843 40.0342C149.487 40.1025 149.095 40.1367 148.667 40.1367ZM148.469 33.0273C147.753 33.0273 147.179 33.2643 146.746 33.7383C146.313 34.2077 146.06 34.8867 145.987 35.7754H150.581C150.581 34.9141 150.394 34.2419 150.021 33.7588C149.647 33.2712 149.13 33.0273 148.469 33.0273ZM154.026 32.5693V35.8301H158.743V32.5693H159.413V40H158.743V36.418H154.026V40H153.35V32.5693H154.026ZM162.585 32.5693V35.8301H167.302V32.5693H167.972V40H167.302V36.418H162.585V40H161.908V32.5693H162.585ZM176.612 36.2744C176.612 37.4867 176.318 38.4346 175.73 39.1182C175.143 39.7972 174.331 40.1367 173.297 40.1367C172.645 40.1367 172.071 39.9795 171.574 39.665C171.077 39.3506 170.697 38.8994 170.433 38.3115C170.168 37.7236 170.036 37.0446 170.036 36.2744C170.036 35.0622 170.33 34.1188 170.918 33.4443C171.506 32.7653 172.312 32.4258 173.338 32.4258C174.359 32.4258 175.159 32.7699 175.737 33.458C176.321 34.1416 176.612 35.0804 176.612 36.2744ZM170.747 36.2744C170.747 37.2952 170.97 38.0928 171.417 38.667C171.868 39.2367 172.504 39.5215 173.324 39.5215C174.145 39.5215 174.778 39.2367 175.225 38.667C175.676 38.0928 175.901 37.2952 175.901 36.2744C175.901 35.249 175.674 34.4538 175.218 33.8887C174.767 33.3236 174.131 33.041 173.311 33.041C172.49 33.041 171.857 33.3236 171.41 33.8887C170.968 34.4492 170.747 35.2445 170.747 36.2744ZM183.038 33.1572H179.347V40H178.67V32.5693H183.038V33.1572ZM190.708 36.2744C190.708 37.4867 190.414 38.4346 189.826 39.1182C189.238 39.7972 188.427 40.1367 187.393 40.1367C186.741 40.1367 186.167 39.9795 185.67 39.665C185.173 39.3506 184.793 38.8994 184.528 38.3115C184.264 37.7236 184.132 37.0446 184.132 36.2744C184.132 35.0622 184.426 34.1188 185.014 33.4443C185.602 32.7653 186.408 32.4258 187.434 32.4258C188.454 32.4258 189.254 32.7699 189.833 33.458C190.416 34.1416 190.708 35.0804 190.708 36.2744ZM184.843 36.2744C184.843 37.2952 185.066 38.0928 185.513 38.667C185.964 39.2367 186.6 39.5215 187.42 39.5215C188.24 39.5215 188.874 39.2367 189.32 38.667C189.771 38.0928 189.997 37.2952 189.997 36.2744C189.997 35.249 189.769 34.4538 189.313 33.8887C188.862 33.3236 188.227 33.041 187.406 33.041C186.586 33.041 185.952 33.3236 185.506 33.8887C185.064 34.4492 184.843 35.2445 184.843 36.2744ZM202.104 34.3604C202.104 34.8298 201.987 35.1989 201.755 35.4678C201.522 35.7321 201.144 35.9167 200.62 36.0215V36.0693C201.217 36.1377 201.648 36.3109 201.912 36.5889C202.181 36.8623 202.315 37.2565 202.315 37.7715C202.315 38.487 202.078 39.0384 201.604 39.4258C201.135 39.8086 200.447 40 199.54 40H196.402V32.5693H199.554C200.401 32.5693 201.037 32.722 201.461 33.0273C201.889 33.3327 202.104 33.777 202.104 34.3604ZM201.598 37.7578C201.598 36.8464 200.898 36.3906 199.499 36.3906H197.079V39.3574H199.595C200.93 39.3574 201.598 38.8242 201.598 37.7578ZM201.386 34.415C201.386 33.9821 201.231 33.6745 200.921 33.4922C200.611 33.3053 200.146 33.2119 199.526 33.2119H197.079V35.7549H199.444C200.137 35.7549 200.634 35.6478 200.935 35.4336C201.235 35.2194 201.386 34.8799 201.386 34.415ZM210.478 36.2744C210.478 37.4867 210.184 38.4346 209.596 39.1182C209.008 39.7972 208.197 40.1367 207.162 40.1367C206.51 40.1367 205.936 39.9795 205.439 39.665C204.943 39.3506 204.562 38.8994 204.298 38.3115C204.034 37.7236 203.901 37.0446 203.901 36.2744C203.901 35.0622 204.195 34.1188 204.783 33.4443C205.371 32.7653 206.178 32.4258 207.203 32.4258C208.224 32.4258 209.024 32.7699 209.603 33.458C210.186 34.1416 210.478 35.0804 210.478 36.2744ZM204.612 36.2744C204.612 37.2952 204.836 38.0928 205.282 38.667C205.733 39.2367 206.369 39.5215 207.189 39.5215C208.01 39.5215 208.643 39.2367 209.09 38.667C209.541 38.0928 209.767 37.2952 209.767 36.2744C209.767 35.249 209.539 34.4538 209.083 33.8887C208.632 33.3236 207.996 33.041 207.176 33.041C206.355 33.041 205.722 33.3236 205.275 33.8887C204.833 34.4492 204.612 35.2445 204.612 36.2744ZM215.536 40.1367C214.456 40.1367 213.613 39.804 213.007 39.1387C212.405 38.4733 212.104 37.5413 212.104 36.3428C212.104 35.1579 212.396 34.21 212.979 33.499C213.563 32.7835 214.349 32.4258 215.338 32.4258C216.213 32.4258 216.903 32.7311 217.409 33.3418C217.915 33.9525 218.168 34.7819 218.168 35.8301V36.377H212.815C212.825 37.3978 213.062 38.1771 213.526 38.7148C213.996 39.2526 214.666 39.5215 215.536 39.5215C215.96 39.5215 216.331 39.4919 216.65 39.4326C216.974 39.3734 217.382 39.2458 217.874 39.0498V39.665C217.455 39.8473 217.067 39.9704 216.712 40.0342C216.356 40.1025 215.965 40.1367 215.536 40.1367ZM215.338 33.0273C214.622 33.0273 214.048 33.2643 213.615 33.7383C213.182 34.2077 212.929 34.8867 212.856 35.7754H217.45C217.45 34.9141 217.263 34.2419 216.89 33.7588C216.516 33.2712 215.999 33.0273 215.338 33.0273ZM220.896 32.5693V35.8301H225.612V32.5693H226.282V40H225.612V36.418H220.896V40H220.219V32.5693H220.896ZM229.454 32.5693V35.8301H234.171V32.5693H234.841V40H234.171V36.418H229.454V40H228.777V32.5693H229.454ZM243.481 36.2744C243.481 37.4867 243.188 38.4346 242.6 39.1182C242.012 39.7972 241.201 40.1367 240.166 40.1367C239.514 40.1367 238.94 39.9795 238.443 39.665C237.947 39.3506 237.566 38.8994 237.302 38.3115C237.037 37.7236 236.905 37.0446 236.905 36.2744C236.905 35.0622 237.199 34.1188 237.787 33.4443C238.375 32.7653 239.182 32.4258 240.207 32.4258C241.228 32.4258 242.028 32.7699 242.606 33.458C243.19 34.1416 243.481 35.0804 243.481 36.2744ZM237.616 36.2744C237.616 37.2952 237.84 38.0928 238.286 38.667C238.737 39.2367 239.373 39.5215 240.193 39.5215C241.014 39.5215 241.647 39.2367 242.094 38.667C242.545 38.0928 242.771 37.2952 242.771 36.2744C242.771 35.249 242.543 34.4538 242.087 33.8887C241.636 33.3236 241 33.041 240.18 33.041C239.359 33.041 238.726 33.3236 238.279 33.8887C237.837 34.4492 237.616 35.2445 237.616 36.2744ZM244.924 36.5V35.9395H248.171V36.5H244.924ZM250.728 40H250.051V32.5693H255.978V40H255.301V33.2119H250.728V40ZM261.651 40.1367C260.507 40.1367 259.674 39.7083 259.149 38.8516H259.102L259.122 39.4258C259.14 39.763 259.149 40.1322 259.149 40.5332V43.3633H258.473V32.5693H259.047L259.177 33.6289H259.218C259.728 32.8268 260.544 32.4258 261.665 32.4258C262.668 32.4258 263.431 32.7562 263.955 33.417C264.484 34.0732 264.748 35.0303 264.748 36.2881C264.748 37.5094 264.47 38.4574 263.914 39.1318C263.363 39.8018 262.608 40.1367 261.651 40.1367ZM261.638 39.5352C262.399 39.5352 262.987 39.2526 263.401 38.6875C263.821 38.1224 264.03 37.3317 264.03 36.3154C264.03 34.1325 263.242 33.041 261.665 33.041C260.799 33.041 260.163 33.2803 259.758 33.7588C259.352 34.2327 259.149 35.0075 259.149 36.083V36.3018C259.149 37.4639 259.343 38.2933 259.73 38.79C260.122 39.2868 260.758 39.5352 261.638 39.5352ZM272.958 36.2744C272.958 37.4867 272.664 38.4346 272.076 39.1182C271.488 39.7972 270.677 40.1367 269.643 40.1367C268.991 40.1367 268.417 39.9795 267.92 39.665C267.423 39.3506 267.043 38.8994 266.778 38.3115C266.514 37.7236 266.382 37.0446 266.382 36.2744C266.382 35.0622 266.676 34.1188 267.264 33.4443C267.852 32.7653 268.658 32.4258 269.684 32.4258C270.704 32.4258 271.504 32.7699 272.083 33.458C272.666 34.1416 272.958 35.0804 272.958 36.2744ZM267.093 36.2744C267.093 37.2952 267.316 38.0928 267.763 38.667C268.214 39.2367 268.85 39.5215 269.67 39.5215C270.49 39.5215 271.124 39.2367 271.57 38.667C272.021 38.0928 272.247 37.2952 272.247 36.2744C272.247 35.249 272.019 34.4538 271.563 33.8887C271.112 33.3236 270.477 33.041 269.656 33.041C268.836 33.041 268.202 33.3236 267.756 33.8887C267.314 34.4492 267.093 35.2445 267.093 36.2744ZM278.475 39.2754L278.898 38.0791L281.038 32.5693H281.975V40H281.332V33.3896C281.232 33.6768 281.125 33.9707 281.011 34.2715C280.901 34.5723 280.159 36.4818 278.782 40H278.181L276.123 34.7773C276.036 34.5677 275.954 34.3467 275.877 34.1143C275.804 33.8818 275.722 33.6312 275.631 33.3623V40H275.016V32.5693H275.911L278.058 38.0381C278.226 38.4801 278.365 38.8926 278.475 39.2754ZM285.14 35.7002H287.505C289.25 35.7002 290.123 36.3861 290.123 37.7578C290.123 38.4642 289.879 39.0156 289.392 39.4121C288.904 39.804 288.204 40 287.293 40H284.463V32.5693H285.14V35.7002ZM285.14 36.3428V39.3574H287.402C288.045 39.3574 288.539 39.223 288.886 38.9541C289.232 38.6852 289.405 38.2819 289.405 37.7441C289.405 37.252 289.253 36.8965 288.947 36.6777C288.642 36.4544 288.113 36.3428 287.361 36.3428H285.14ZM292.092 40H291.422V32.5693H292.092V40ZM299.652 39.3574H303.357V32.5693H304.034V40H294.594V32.5693H295.271V39.3574H298.976V32.5693H299.652V39.3574ZM311.67 40H311V33.1982H308.368C308.231 34.9984 308.063 36.3724 307.862 37.3203C307.666 38.2637 307.411 38.9587 307.097 39.4053C306.787 39.8473 306.383 40.0684 305.887 40.0684C305.709 40.0684 305.554 40.0501 305.422 40.0137V39.3984C305.508 39.4258 305.632 39.4395 305.791 39.4395C306.306 39.4395 306.721 38.8971 307.035 37.8125C307.354 36.7233 307.596 34.9756 307.76 32.5693H311.67V40ZM317.159 40.1367C316.079 40.1367 315.236 39.804 314.63 39.1387C314.028 38.4733 313.728 37.5413 313.728 36.3428C313.728 35.1579 314.019 34.21 314.603 33.499C315.186 32.7835 315.972 32.4258 316.961 32.4258C317.836 32.4258 318.526 32.7311 319.032 33.3418C319.538 33.9525 319.791 34.7819 319.791 35.8301V36.377H314.438C314.448 37.3978 314.685 38.1771 315.149 38.7148C315.619 39.2526 316.289 39.5215 317.159 39.5215C317.583 39.5215 317.954 39.4919 318.273 39.4326C318.597 39.3734 319.005 39.2458 319.497 39.0498V39.665C319.078 39.8473 318.69 39.9704 318.335 40.0342C317.979 40.1025 317.588 40.1367 317.159 40.1367ZM316.961 33.0273C316.245 33.0273 315.671 33.2643 315.238 33.7383C314.805 34.2077 314.552 34.8867 314.479 35.7754H319.073C319.073 34.9141 318.886 34.2419 318.513 33.7588C318.139 33.2712 317.622 33.0273 316.961 33.0273ZM322.519 32.5693V35.8301H327.235V32.5693H327.905V40H327.235V36.418H322.519V40H321.842V32.5693H322.519ZM331.077 32.5693V35.8301H335.794V32.5693H336.464V40H335.794V36.418H331.077V40H330.4V32.5693H331.077ZM345.104 36.2744C345.104 37.4867 344.811 38.4346 344.223 39.1182C343.635 39.7972 342.824 40.1367 341.789 40.1367C341.137 40.1367 340.563 39.9795 340.066 39.665C339.57 39.3506 339.189 38.8994 338.925 38.3115C338.66 37.7236 338.528 37.0446 338.528 36.2744C338.528 35.0622 338.822 34.1188 339.41 33.4443C339.998 32.7653 340.805 32.4258 341.83 32.4258C342.851 32.4258 343.651 32.7699 344.229 33.458C344.813 34.1416 345.104 35.0804 345.104 36.2744ZM339.239 36.2744C339.239 37.2952 339.463 38.0928 339.909 38.667C340.36 39.2367 340.996 39.5215 341.816 39.5215C342.637 39.5215 343.27 39.2367 343.717 38.667C344.168 38.0928 344.394 37.2952 344.394 36.2744C344.394 35.249 344.166 34.4538 343.71 33.8887C343.259 33.3236 342.623 33.041 341.803 33.041C340.982 33.041 340.349 33.3236 339.902 33.8887C339.46 34.4492 339.239 35.2445 339.239 36.2744ZM351.53 33.1572H347.839V40H347.162V32.5693H351.53V33.1572ZM359.2 36.2744C359.2 37.4867 358.906 38.4346 358.318 39.1182C357.73 39.7972 356.919 40.1367 355.885 40.1367C355.233 40.1367 354.659 39.9795 354.162 39.665C353.665 39.3506 353.285 38.8994 353.021 38.3115C352.756 37.7236 352.624 37.0446 352.624 36.2744C352.624 35.0622 352.918 34.1188 353.506 33.4443C354.094 32.7653 354.9 32.4258 355.926 32.4258C356.947 32.4258 357.746 32.7699 358.325 33.458C358.909 34.1416 359.2 35.0804 359.2 36.2744ZM353.335 36.2744C353.335 37.2952 353.558 38.0928 354.005 38.667C354.456 39.2367 355.092 39.5215 355.912 39.5215C356.732 39.5215 357.366 39.2367 357.812 38.667C358.264 38.0928 358.489 37.2952 358.489 36.2744C358.489 35.249 358.261 34.4538 357.806 33.8887C357.354 33.3236 356.719 33.041 355.898 33.041C355.078 33.041 354.445 33.3236 353.998 33.8887C353.556 34.4492 353.335 35.2445 353.335 36.2744ZM368.928 32.5693H369.769L366.439 36.165L370.008 40H369.099L365.585 36.2334V40H364.895V32.5693H365.585V36.1787L368.928 32.5693ZM377.466 36.2744C377.466 37.4867 377.172 38.4346 376.584 39.1182C375.996 39.7972 375.185 40.1367 374.15 40.1367C373.499 40.1367 372.924 39.9795 372.428 39.665C371.931 39.3506 371.55 38.8994 371.286 38.3115C371.022 37.7236 370.89 37.0446 370.89 36.2744C370.89 35.0622 371.184 34.1188 371.771 33.4443C372.359 32.7653 373.166 32.4258 374.191 32.4258C375.212 32.4258 376.012 32.7699 376.591 33.458C377.174 34.1416 377.466 35.0804 377.466 36.2744ZM371.601 36.2744C371.601 37.2952 371.824 38.0928 372.271 38.667C372.722 39.2367 373.357 39.5215 374.178 39.5215C374.998 39.5215 375.632 39.2367 376.078 38.667C376.529 38.0928 376.755 37.2952 376.755 36.2744C376.755 35.249 376.527 34.4538 376.071 33.8887C375.62 33.3236 374.984 33.041 374.164 33.041C373.344 33.041 372.71 33.3236 372.264 33.8887C371.822 34.4492 371.601 35.2445 371.601 36.2744ZM382.982 39.2754L383.406 38.0791L385.546 32.5693H386.482V40H385.84V33.3896C385.74 33.6768 385.632 33.9707 385.519 34.2715C385.409 34.5723 384.666 36.4818 383.29 40H382.688L380.631 34.7773C380.544 34.5677 380.462 34.3467 380.385 34.1143C380.312 33.8818 380.23 33.6312 380.139 33.3623V40H379.523V32.5693H380.419L382.565 38.0381C382.734 38.4801 382.873 38.8926 382.982 39.2754ZM389.613 32.5693V37.9424L389.572 39.3438L393.981 32.5693H394.884V40H394.234V34.6611L394.262 33.2256L389.853 40H388.971V32.5693H389.613ZM402.096 33.1572H399.621V40H398.951V33.1572H396.415V32.5693H402.096V33.1572ZM406.628 40.1367C405.548 40.1367 404.705 39.804 404.099 39.1387C403.497 38.4733 403.196 37.5413 403.196 36.3428C403.196 35.1579 403.488 34.21 404.071 33.499C404.655 32.7835 405.441 32.4258 406.43 32.4258C407.305 32.4258 407.995 32.7311 408.501 33.3418C409.007 33.9525 409.26 34.7819 409.26 35.8301V36.377H403.907C403.916 37.3978 404.153 38.1771 404.618 38.7148C405.088 39.2526 405.757 39.5215 406.628 39.5215C407.052 39.5215 407.423 39.4919 407.742 39.4326C408.066 39.3734 408.474 39.2458 408.966 39.0498V39.665C408.547 39.8473 408.159 39.9704 407.804 40.0342C407.448 40.1025 407.056 40.1367 406.628 40.1367ZM406.43 33.0273C405.714 33.0273 405.14 33.2643 404.707 33.7383C404.274 34.2077 404.021 34.8867 403.948 35.7754H408.542C408.542 34.9141 408.355 34.2419 407.981 33.7588C407.608 33.2712 407.09 33.0273 406.43 33.0273ZM416.027 33.1572H413.553V40H412.883V33.1572H410.347V32.5693H416.027V33.1572ZM422.07 40L421.899 38.8242H421.845C421.471 39.3027 421.086 39.6423 420.689 39.8428C420.298 40.0387 419.833 40.1367 419.295 40.1367C418.566 40.1367 417.998 39.9499 417.593 39.5762C417.187 39.2025 416.984 38.6852 416.984 38.0244C416.984 37.2998 417.285 36.737 417.887 36.3359C418.493 35.9349 419.368 35.723 420.512 35.7002L421.927 35.6592V35.167C421.927 34.4606 421.783 33.9274 421.496 33.5674C421.209 33.2074 420.746 33.0273 420.108 33.0273C419.42 33.0273 418.707 33.2188 417.969 33.6016L417.716 33.0137C418.532 32.6309 419.338 32.4395 420.136 32.4395C420.951 32.4395 421.56 32.6514 421.961 33.0752C422.367 33.499 422.569 34.1598 422.569 35.0576V40H422.07ZM419.336 39.5215C420.129 39.5215 420.753 39.2959 421.209 38.8447C421.669 38.389 421.899 37.7578 421.899 36.9512V36.2197L420.601 36.2744C419.557 36.3245 418.812 36.4886 418.365 36.7666C417.923 37.04 417.702 37.4684 417.702 38.0518C417.702 38.5166 417.843 38.8789 418.126 39.1387C418.413 39.3939 418.816 39.5215 419.336 39.5215Z" fill="black"/>
<defs>
<filter id="filter0_i" x="0" y="7.85315" width="44.9857" height="22.5338" filterUnits="userSpaceOnUse" color-interpolation-filters="sRGB">
<feFlood flood-opacity="0" result="BackgroundImageFix"/>
<feBlend mode="normal" in="SourceGraphic" in2="BackgroundImageFix" result="shape"/>
<feColorMatrix in="SourceAlpha" type="matrix" values="0 0 0 0 0 0 0 0 0 0 0 0 0 0 0 0 0 0 127 0" result="hardAlpha"/>
<feOffset/>
<feGaussianBlur stdDeviation="3"/>
<feComposite in2="hardAlpha" operator="arithmetic" k2="-1" k3="1"/>
<feColorMatrix type="matrix" values="0 0 0 0 1 0 0 0 0 1 0 0 0 0 1 0 0 0 0.674847 0"/>
<feBlend mode="normal" in2="shape" result="effect1_innerShadow"/>
</filter>
<filter id="filter1_f" x="6.61418" y="25.3841" width="33.1605" height="26.4463" filterUnits="userSpaceOnUse" color-interpolation-filters="sRGB">
<feFlood flood-opacity="0" result="BackgroundImageFix"/>
<feBlend mode="normal" in="SourceGraphic" in2="BackgroundImageFix" result="shape"/>
<feGaussianBlur stdDeviation="5.43656" result="effect1_foregroundBlur"/>
</filter>
<filter id="filter2_i" x="7.66797" y="0.971436" width="29.5673" height="32.913" filterUnits="userSpaceOnUse" color-interpolation-filters="sRGB">
<feFlood flood-opacity="0" result="BackgroundImageFix"/>
<feBlend mode="normal" in="SourceGraphic" in2="BackgroundImageFix" result="shape"/>
<feColorMatrix in="SourceAlpha" type="matrix" values="0 0 0 0 0 0 0 0 0 0 0 0 0 0 0 0 0 0 127 0" result="hardAlpha"/>
<feOffset/>
<feGaussianBlur stdDeviation="6"/>
<feComposite in2="hardAlpha" operator="arithmetic" k2="-1" k3="1"/>
<feColorMatrix type="matrix" values="0 0 0 0 1 0 0 0 0 1 0 0 0 0 1 0 0 0 0.876585 0"/>
<feBlend mode="normal" in2="shape" result="effect1_innerShadow"/>
</filter>
<filter id="filter3_f" x="-17.0158" y="-24.4319" width="80.4211" height="52.8925" filterUnits="userSpaceOnUse" color-interpolation-filters="sRGB">
<feFlood flood-opacity="0" result="BackgroundImageFix"/>
<feBlend mode="normal" in="SourceGraphic" in2="BackgroundImageFix" result="shape"/>
<feGaussianBlur stdDeviation="10.8731" result="effect1_foregroundBlur"/>
</filter>
<filter id="filter4_i" x="5.40234" y="0" width="34.2429" height="6.02857" filterUnits="userSpaceOnUse" color-interpolation-filters="sRGB">
<feFlood flood-opacity="0" result="BackgroundImageFix"/>
<feBlend mode="normal" in="SourceGraphic" in2="BackgroundImageFix" result="shape"/>
<feColorMatrix in="SourceAlpha" type="matrix" values="0 0 0 0 0 0 0 0 0 0 0 0 0 0 0 0 0 0 127 0" result="hardAlpha"/>
<feOffset dy="2"/>
<feGaussianBlur stdDeviation="2"/>
<feComposite in2="hardAlpha" operator="arithmetic" k2="-1" k3="1"/>
<feColorMatrix type="matrix" values="0 0 0 0 1 0 0 0 0 1 0 0 0 0 1 0 0 0 0.791752 0"/>
<feBlend mode="normal" in2="shape" result="effect1_innerShadow"/>
</filter>
<filter id="filter5_i" x="12.1162" y="40.2856" width="20.8143" height="6.71429" filterUnits="userSpaceOnUse" color-interpolation-filters="sRGB">
<feFlood flood-opacity="0" result="BackgroundImageFix"/>
<feBlend mode="normal" in="SourceGraphic" in2="BackgroundImageFix" result="shape"/>
<feColorMatrix in="SourceAlpha" type="matrix" values="0 0 0 0 0 0 0 0 0 0 0 0 0 0 0 0 0 0 127 0" result="hardAlpha"/>
<feOffset/>
<feGaussianBlur stdDeviation="1"/>
<feComposite in2="hardAlpha" operator="arithmetic" k2="-1" k3="1"/>
<feColorMatrix type="matrix" values="0 0 0 0 1 0 0 0 0 1 0 0 0 0 1 0 0 0 0.1967 0"/>
<feBlend mode="normal" in2="shape" result="effect1_innerShadow"/>
</filter>
<linearGradient id="paint0_linear" x1="-2.42619" y1="19.5706" x2="25.2217" y2="39.1557" gradientUnits="userSpaceOnUse">
<stop stop-color="white" stop-opacity="0.894418"/>
<stop offset="1" stop-opacity="0.5"/>
</linearGradient>
<linearGradient id="paint1_linear" x1="8.37465" y1="-3.24653" x2="-6.08969" y2="17.66" gradientUnits="userSpaceOnUse">
<stop stop-color="white"/>
<stop offset="1" stop-color="white" stop-opacity="0.01"/>
</linearGradient>
<linearGradient id="paint2_linear" x1="-3.15837" y1="2.01429" x2="-0.912937" y2="11.5574" gradientUnits="userSpaceOnUse">
<stop stop-color="#CCCCCC" stop-opacity="0.5"/>
<stop offset="0.610565" stop-color="white" stop-opacity="0.5"/>
<stop offset="1" stop-opacity="0.5"/>
</linearGradient>
<linearGradient id="paint3_linear" x1="12.1162" y1="40.2856" x2="12.1162" y2="46.9999" gradientUnits="userSpaceOnUse">
<stop stop-color="white" stop-opacity="0.0275702"/>
<stop offset="1" stop-opacity="0.5"/>
</linearGradient>
</defs>
</svg>
