<svg width="288" height="91" viewBox="0 0 288 91" fill="none" xmlns="http://www.w3.org/2000/svg">
<path d="M7.6543 11H6.9502V6.08496H1.1123V11H0.415039V1.00586H1.1123V5.44238H6.9502V1.00586H7.6543V11ZM13.3213 11.1367C12.2412 11.1367 11.3981 10.804 10.792 10.1387C10.1904 9.47331 9.88965 8.54134 9.88965 7.34277C9.88965 6.15788 10.1813 5.20996 10.7646 4.49902C11.348 3.78353 12.1341 3.42578 13.123 3.42578C13.998 3.42578 14.6885 3.73112 15.1943 4.3418C15.7002 4.95247 15.9531 5.7819 15.9531 6.83008V7.37695H10.6006C10.6097 8.39779 10.8467 9.17708 11.3115 9.71484C11.7809 10.2526 12.4508 10.5215 13.3213 10.5215C13.7451 10.5215 14.1165 10.4919 14.4355 10.4326C14.7591 10.3734 15.167 10.2458 15.6592 10.0498V10.665C15.2399 10.8473 14.8525 10.9704 14.4971 11.0342C14.1416 11.1025 13.7497 11.1367 13.3213 11.1367ZM13.123 4.02734C12.4076 4.02734 11.8333 4.26432 11.4004 4.73828C10.9674 5.20768 10.7145 5.88672 10.6416 6.77539H15.2354C15.2354 5.91406 15.0485 5.24186 14.6748 4.75879C14.3011 4.27116 13.7839 4.02734 13.123 4.02734ZM26.3574 4.15723H23.8828V11H23.2129V4.15723H20.6768V3.56934H26.3574V4.15723ZM31.0674 11.1367C29.9235 11.1367 29.0895 10.7083 28.5654 9.85156H28.5176L28.5381 10.4258C28.5563 10.763 28.5654 11.1322 28.5654 11.5332V14.3633H27.8887V3.56934H28.4629L28.5928 4.62891H28.6338C29.1442 3.82682 29.96 3.42578 31.0811 3.42578C32.0837 3.42578 32.847 3.75618 33.3711 4.41699C33.8997 5.07324 34.1641 6.03027 34.1641 7.28809C34.1641 8.50944 33.8861 9.45736 33.3301 10.1318C32.7786 10.8018 32.0244 11.1367 31.0674 11.1367ZM31.0537 10.5352C31.8148 10.5352 32.4027 10.2526 32.8174 9.6875C33.2367 9.1224 33.4463 8.33171 33.4463 7.31543C33.4463 5.13249 32.6579 4.04102 31.0811 4.04102C30.2152 4.04102 29.5794 4.28027 29.1738 4.75879C28.7682 5.23275 28.5654 6.00749 28.5654 7.08301V7.30176C28.5654 8.46387 28.7591 9.29329 29.1465 9.79004C29.5384 10.2868 30.1742 10.5352 31.0537 10.5352ZM39.2295 11.1367C38.1494 11.1367 37.3063 10.804 36.7002 10.1387C36.0986 9.47331 35.7979 8.54134 35.7979 7.34277C35.7979 6.15788 36.0895 5.20996 36.6729 4.49902C37.2562 3.78353 38.0423 3.42578 39.0312 3.42578C39.9062 3.42578 40.5967 3.73112 41.1025 4.3418C41.6084 4.95247 41.8613 5.7819 41.8613 6.83008V7.37695H36.5088C36.5179 8.39779 36.7549 9.17708 37.2197 9.71484C37.6891 10.2526 38.359 10.5215 39.2295 10.5215C39.6533 10.5215 40.0247 10.4919 40.3438 10.4326C40.6673 10.3734 41.0752 10.2458 41.5674 10.0498V10.665C41.1481 10.8473 40.7607 10.9704 40.4053 11.0342C40.0498 11.1025 39.6579 11.1367 39.2295 11.1367ZM39.0312 4.02734C38.3158 4.02734 37.7415 4.26432 37.3086 4.73828C36.8757 5.20768 36.6227 5.88672 36.5498 6.77539H41.1436C41.1436 5.91406 40.9567 5.24186 40.583 4.75879C40.2093 4.27116 39.6921 4.02734 39.0312 4.02734ZM43.5088 6.53613C43.5088 3.30957 44.418 1.4707 46.2363 1.01953C46.8743 0.860026 47.485 0.725586 48.0684 0.616211C48.6562 0.502279 49.1758 0.402018 49.627 0.31543L49.75 0.90332L48.9297 1.06055C47.5762 1.31576 46.6829 1.51172 46.25 1.64844C45.6348 1.82617 45.1517 2.25228 44.8008 2.92676C44.4544 3.60124 44.2562 4.52409 44.2061 5.69531H44.2471C44.7347 5.11654 45.2087 4.7041 45.6689 4.45801C46.1292 4.20736 46.6032 4.08203 47.0908 4.08203C48.0023 4.08203 48.6995 4.37598 49.1826 4.96387C49.6657 5.55176 49.9072 6.38802 49.9072 7.47266C49.9072 8.62565 49.6292 9.52572 49.0732 10.1729C48.5173 10.8154 47.7357 11.1367 46.7285 11.1367C45.7077 11.1367 44.9147 10.738 44.3496 9.94043C43.7891 9.1429 43.5088 8.00814 43.5088 6.53613ZM46.7832 10.5215C47.5625 10.5215 48.1572 10.2617 48.5674 9.74219C48.9821 9.22266 49.1895 8.47526 49.1895 7.5C49.1895 6.57487 49.0049 5.8776 48.6357 5.4082C48.2712 4.93424 47.7334 4.69727 47.0225 4.69727C46.4938 4.69727 45.9811 4.86361 45.4844 5.19629C44.9922 5.52441 44.5615 5.98014 44.1924 6.56348C44.1924 7.37923 44.2926 8.09473 44.4932 8.70996C44.6982 9.3252 44.9945 9.78092 45.3818 10.0771C45.7692 10.3734 46.2363 10.5215 46.7832 10.5215ZM50.707 3.56934H51.4043L52.9766 7.73926C53.4551 9.01986 53.7581 9.88346 53.8857 10.3301H53.9268C54.1182 9.74219 54.4303 8.86491 54.8633 7.69824L56.4355 3.56934H57.1328L53.8037 12.2031C53.5348 12.9049 53.3092 13.3789 53.127 13.625C52.9447 13.8711 52.7305 14.0557 52.4844 14.1787C52.2428 14.3018 51.9489 14.3633 51.6025 14.3633C51.3428 14.3633 51.0534 14.3154 50.7344 14.2197V13.6318C50.9987 13.7048 51.2835 13.7412 51.5889 13.7412C51.8213 13.7412 52.0264 13.6865 52.2041 13.5771C52.3818 13.4678 52.5413 13.2969 52.6826 13.0645C52.8285 12.8366 52.9948 12.472 53.1816 11.9707C53.373 11.474 53.4961 11.1504 53.5508 11L50.707 3.56934ZM61.3779 11.1367C60.2979 11.1367 59.4548 10.804 58.8486 10.1387C58.2471 9.47331 57.9463 8.54134 57.9463 7.34277C57.9463 6.15788 58.238 5.20996 58.8213 4.49902C59.4046 3.78353 60.1908 3.42578 61.1797 3.42578C62.0547 3.42578 62.7451 3.73112 63.251 4.3418C63.7568 4.95247 64.0098 5.7819 64.0098 6.83008V7.37695H58.6572C58.6663 8.39779 58.9033 9.17708 59.3682 9.71484C59.8376 10.2526 60.5075 10.5215 61.3779 10.5215C61.8018 10.5215 62.1732 10.4919 62.4922 10.4326C62.8158 10.3734 63.2236 10.2458 63.7158 10.0498V10.665C63.2965 10.8473 62.9092 10.9704 62.5537 11.0342C62.1982 11.1025 61.8063 11.1367 61.3779 11.1367ZM61.1797 4.02734C60.4642 4.02734 59.89 4.26432 59.457 4.73828C59.0241 5.20768 58.7712 5.88672 58.6982 6.77539H63.292C63.292 5.91406 63.1051 5.24186 62.7314 4.75879C62.3577 4.27116 61.8405 4.02734 61.1797 4.02734ZM69.5195 10.2754L69.9434 9.0791L72.083 3.56934H73.0195V11H72.377V4.38965C72.2767 4.67676 72.1696 4.9707 72.0557 5.27148C71.9463 5.57227 71.2035 7.48177 69.8271 11H69.2256L67.168 5.77734C67.0814 5.56771 66.9993 5.34668 66.9219 5.11426C66.849 4.88184 66.7669 4.63118 66.6758 4.3623V11H66.0605V3.56934H66.9561L69.1025 9.03809C69.2712 9.48014 69.4102 9.89258 69.5195 10.2754ZM85.29 7.27441C85.29 8.48665 84.9961 9.43457 84.4082 10.1182C83.8203 10.7972 83.0091 11.1367 81.9746 11.1367C81.3229 11.1367 80.7487 10.9795 80.252 10.665C79.7552 10.3506 79.3747 9.89941 79.1104 9.31152C78.846 8.72363 78.7139 8.0446 78.7139 7.27441C78.7139 6.06217 79.0078 5.11882 79.5957 4.44434C80.1836 3.7653 80.9902 3.42578 82.0156 3.42578C83.0365 3.42578 83.8363 3.76986 84.415 4.45801C84.9984 5.1416 85.29 6.0804 85.29 7.27441ZM79.4248 7.27441C79.4248 8.29525 79.6481 9.09277 80.0947 9.66699C80.5459 10.2367 81.1816 10.5215 82.002 10.5215C82.8223 10.5215 83.4557 10.2367 83.9023 9.66699C84.3535 9.09277 84.5791 8.29525 84.5791 7.27441C84.5791 6.24902 84.3512 5.45378 83.8955 4.88867C83.4443 4.32357 82.8086 4.04102 81.9883 4.04102C81.168 4.04102 80.5345 4.32357 80.0879 4.88867C79.6458 5.44922 79.4248 6.24447 79.4248 7.27441ZM92.0645 4.15723H89.5898V11H88.9199V4.15723H86.3838V3.56934H92.0645V4.15723ZM98.6338 6.77539C99.9782 6.77539 100.65 6.31283 100.65 5.3877C100.65 4.94564 100.495 4.6084 100.186 4.37598C99.8757 4.14355 99.4336 4.02734 98.8594 4.02734C98.4948 4.02734 98.1553 4.07064 97.8408 4.15723C97.5264 4.23926 97.1891 4.36003 96.8291 4.51953L96.5762 3.95898C97.3691 3.60352 98.1393 3.42578 98.8867 3.42578C99.6979 3.42578 100.313 3.5944 100.732 3.93164C101.152 4.26888 101.361 4.736 101.361 5.33301C101.361 6.19434 100.919 6.74349 100.035 6.98047V7.02148C100.587 7.1582 100.988 7.38607 101.238 7.70508C101.489 8.01953 101.614 8.42285 101.614 8.91504C101.614 9.60319 101.361 10.1455 100.855 10.542C100.354 10.9385 99.6569 11.1367 98.7637 11.1367C98.2806 11.1367 97.8385 11.0911 97.4375 11C97.041 10.9043 96.7129 10.779 96.4531 10.624V9.94727C96.9225 10.1706 97.3281 10.3232 97.6699 10.4053C98.0117 10.4827 98.3763 10.5215 98.7637 10.5215C99.4382 10.5215 99.9622 10.3802 100.336 10.0977C100.714 9.81055 100.903 9.40267 100.903 8.87402C100.903 8.35905 100.723 7.97852 100.363 7.73242C100.003 7.48633 99.4632 7.36328 98.7432 7.36328H97.7109V6.77539H98.6338ZM108.074 11L107.903 9.82422H107.849C107.475 10.3027 107.09 10.6423 106.693 10.8428C106.301 11.0387 105.837 11.1367 105.299 11.1367C104.57 11.1367 104.002 10.9499 103.597 10.5762C103.191 10.2025 102.988 9.68522 102.988 9.02441C102.988 8.2998 103.289 7.73698 103.891 7.33594C104.497 6.9349 105.372 6.72298 106.516 6.7002L107.931 6.65918V6.16699C107.931 5.46061 107.787 4.92741 107.5 4.56738C107.213 4.20736 106.75 4.02734 106.112 4.02734C105.424 4.02734 104.711 4.21875 103.973 4.60156L103.72 4.01367C104.535 3.63086 105.342 3.43945 106.14 3.43945C106.955 3.43945 107.564 3.65137 107.965 4.0752C108.37 4.49902 108.573 5.15983 108.573 6.05762V11H108.074ZM105.34 10.5215C106.133 10.5215 106.757 10.2959 107.213 9.84473C107.673 9.389 107.903 8.75781 107.903 7.95117V7.21973L106.604 7.27441C105.561 7.32454 104.816 7.48861 104.369 7.7666C103.927 8.04004 103.706 8.46842 103.706 9.05176C103.706 9.5166 103.847 9.87891 104.13 10.1387C104.417 10.3939 104.82 10.5215 105.34 10.5215ZM115.02 3.56934H115.86L112.531 7.16504L116.1 11H115.19L111.677 7.2334V11H110.986V3.56934H111.677V7.17871L115.02 3.56934ZM121.924 11L121.753 9.82422H121.698C121.325 10.3027 120.939 10.6423 120.543 10.8428C120.151 11.0387 119.686 11.1367 119.148 11.1367C118.419 11.1367 117.852 10.9499 117.446 10.5762C117.041 10.2025 116.838 9.68522 116.838 9.02441C116.838 8.2998 117.139 7.73698 117.74 7.33594C118.346 6.9349 119.221 6.72298 120.365 6.7002L121.78 6.65918V6.16699C121.78 5.46061 121.637 4.92741 121.35 4.56738C121.062 4.20736 120.6 4.02734 119.962 4.02734C119.274 4.02734 118.561 4.21875 117.822 4.60156L117.569 4.01367C118.385 3.63086 119.192 3.43945 119.989 3.43945C120.805 3.43945 121.413 3.65137 121.814 4.0752C122.22 4.49902 122.423 5.15983 122.423 6.05762V11H121.924ZM119.189 10.5215C119.982 10.5215 120.607 10.2959 121.062 9.84473C121.523 9.389 121.753 8.75781 121.753 7.95117V7.21973L120.454 7.27441C119.41 7.32454 118.665 7.48861 118.219 7.7666C117.777 8.04004 117.556 8.46842 117.556 9.05176C117.556 9.5166 117.697 9.87891 117.979 10.1387C118.267 10.3939 118.67 10.5215 119.189 10.5215ZM126.237 6.77539C127.582 6.77539 128.254 6.31283 128.254 5.3877C128.254 4.94564 128.099 4.6084 127.789 4.37598C127.479 4.14355 127.037 4.02734 126.463 4.02734C126.098 4.02734 125.759 4.07064 125.444 4.15723C125.13 4.23926 124.793 4.36003 124.433 4.51953L124.18 3.95898C124.973 3.60352 125.743 3.42578 126.49 3.42578C127.301 3.42578 127.917 3.5944 128.336 3.93164C128.755 4.26888 128.965 4.736 128.965 5.33301C128.965 6.19434 128.523 6.74349 127.639 6.98047V7.02148C128.19 7.1582 128.591 7.38607 128.842 7.70508C129.092 8.01953 129.218 8.42285 129.218 8.91504C129.218 9.60319 128.965 10.1455 128.459 10.542C127.958 10.9385 127.26 11.1367 126.367 11.1367C125.884 11.1367 125.442 11.0911 125.041 11C124.645 10.9043 124.316 10.779 124.057 10.624V9.94727C124.526 10.1706 124.932 10.3232 125.273 10.4053C125.615 10.4827 125.98 10.5215 126.367 10.5215C127.042 10.5215 127.566 10.3802 127.939 10.0977C128.318 9.81055 128.507 9.40267 128.507 8.87402C128.507 8.35905 128.327 7.97852 127.967 7.73242C127.607 7.48633 127.067 7.36328 126.347 7.36328H125.314V6.77539H126.237ZM131.713 3.56934V6.05762C131.713 6.68652 131.866 7.13997 132.171 7.41797C132.476 7.69596 132.946 7.83496 133.579 7.83496C134.026 7.83496 134.452 7.75521 134.857 7.5957C135.263 7.4362 135.685 7.18099 136.122 6.83008V3.56934H136.799V11H136.122V7.47266C135.666 7.82357 135.217 8.07422 134.775 8.22461C134.338 8.375 133.864 8.4502 133.354 8.4502C132.592 8.4502 132.016 8.25195 131.624 7.85547C131.237 7.45898 131.043 6.88704 131.043 6.13965V3.56934H131.713ZM139.93 3.56934V8.94238L139.889 10.3438L144.298 3.56934H145.2V11H144.551V5.66113L144.578 4.22559L140.169 11H139.287V3.56934H139.93ZM151.729 3.56934H152.569L149.24 7.16504L152.809 11H151.899L148.386 7.2334V11H147.695V3.56934H148.386V7.17871L151.729 3.56934ZM158.633 11L158.462 9.82422H158.407C158.034 10.3027 157.648 10.6423 157.252 10.8428C156.86 11.0387 156.395 11.1367 155.857 11.1367C155.128 11.1367 154.561 10.9499 154.155 10.5762C153.75 10.2025 153.547 9.68522 153.547 9.02441C153.547 8.2998 153.848 7.73698 154.449 7.33594C155.055 6.9349 155.93 6.72298 157.074 6.7002L158.489 6.65918V6.16699C158.489 5.46061 158.346 4.92741 158.059 4.56738C157.771 4.20736 157.309 4.02734 156.671 4.02734C155.983 4.02734 155.27 4.21875 154.531 4.60156L154.278 4.01367C155.094 3.63086 155.901 3.43945 156.698 3.43945C157.514 3.43945 158.122 3.65137 158.523 4.0752C158.929 4.49902 159.132 5.15983 159.132 6.05762V11H158.633ZM155.898 10.5215C156.691 10.5215 157.316 10.2959 157.771 9.84473C158.232 9.389 158.462 8.75781 158.462 7.95117V7.21973L157.163 7.27441C156.119 7.32454 155.374 7.48861 154.928 7.7666C154.486 8.04004 154.265 8.46842 154.265 9.05176C154.265 9.5166 154.406 9.87891 154.688 10.1387C154.976 10.3939 155.379 10.5215 155.898 10.5215ZM165.858 11H165.182V3.56934H171.108V11H170.432V4.21191H165.858V11ZM179.749 7.27441C179.749 8.48665 179.455 9.43457 178.867 10.1182C178.279 10.7972 177.468 11.1367 176.434 11.1367C175.782 11.1367 175.208 10.9795 174.711 10.665C174.214 10.3506 173.834 9.89941 173.569 9.31152C173.305 8.72363 173.173 8.0446 173.173 7.27441C173.173 6.06217 173.467 5.11882 174.055 4.44434C174.643 3.7653 175.449 3.42578 176.475 3.42578C177.495 3.42578 178.295 3.76986 178.874 4.45801C179.457 5.1416 179.749 6.0804 179.749 7.27441ZM173.884 7.27441C173.884 8.29525 174.107 9.09277 174.554 9.66699C175.005 10.2367 175.641 10.5215 176.461 10.5215C177.281 10.5215 177.915 10.2367 178.361 9.66699C178.812 9.09277 179.038 8.29525 179.038 7.27441C179.038 6.24902 178.81 5.45378 178.354 4.88867C177.903 4.32357 177.268 4.04102 176.447 4.04102C175.627 4.04102 174.993 4.32357 174.547 4.88867C174.105 5.44922 173.884 6.24447 173.884 7.27441ZM182.483 3.56934V6.83008H187.2V3.56934H187.87V11H187.2V7.41797H182.483V11H181.807V3.56934H182.483ZM191.008 3.56934V8.94238L190.967 10.3438L195.376 3.56934H196.278V11H195.629V5.66113L195.656 4.22559L191.247 11H190.365V3.56934H191.008ZM202.232 10.2754L202.656 9.0791L204.796 3.56934H205.732V11H205.09V4.38965C204.99 4.67676 204.882 4.9707 204.769 5.27148C204.659 5.57227 203.916 7.48177 202.54 11H201.938L199.881 5.77734C199.794 5.56771 199.712 5.34668 199.635 5.11426C199.562 4.88184 199.48 4.63118 199.389 4.3623V11H198.773V3.56934H199.669L201.815 9.03809C201.984 9.48014 202.123 9.89258 202.232 10.2754ZM212.732 11L212.562 9.82422H212.507C212.133 10.3027 211.748 10.6423 211.352 10.8428C210.96 11.0387 210.495 11.1367 209.957 11.1367C209.228 11.1367 208.66 10.9499 208.255 10.5762C207.849 10.2025 207.646 9.68522 207.646 9.02441C207.646 8.2998 207.947 7.73698 208.549 7.33594C209.155 6.9349 210.03 6.72298 211.174 6.7002L212.589 6.65918V6.16699C212.589 5.46061 212.445 4.92741 212.158 4.56738C211.871 4.20736 211.409 4.02734 210.771 4.02734C210.082 4.02734 209.369 4.21875 208.631 4.60156L208.378 4.01367C209.194 3.63086 210 3.43945 210.798 3.43945C211.614 3.43945 212.222 3.65137 212.623 4.0752C213.029 4.49902 213.231 5.15983 213.231 6.05762V11H212.732ZM209.998 10.5215C210.791 10.5215 211.415 10.2959 211.871 9.84473C212.331 9.389 212.562 8.75781 212.562 7.95117V7.21973L211.263 7.27441C210.219 7.32454 209.474 7.48861 209.027 7.7666C208.585 8.04004 208.364 8.46842 208.364 9.05176C208.364 9.5166 208.506 9.87891 208.788 10.1387C209.075 10.3939 209.479 10.5215 209.998 10.5215ZM216.321 3.56934V6.83008H221.038V3.56934H221.708V11H221.038V7.41797H216.321V11H215.645V3.56934H216.321ZM224.846 3.56934V8.94238L224.805 10.3438L229.214 3.56934H230.116V11H229.467V5.66113L229.494 4.22559L225.085 11H224.203V3.56934H224.846ZM232.502 11H231.647L233.89 7.79395C233.206 7.66634 232.712 7.42936 232.406 7.08301C232.105 6.73665 231.955 6.29232 231.955 5.75C231.955 5.07552 232.181 4.5446 232.632 4.15723C233.088 3.7653 233.698 3.56934 234.464 3.56934H237.526V11H236.856V7.87598H234.587L232.502 11ZM232.666 5.72266C232.666 6.23307 232.83 6.61361 233.158 6.86426C233.491 7.11035 233.99 7.2334 234.655 7.2334H236.856V4.21191H234.45C233.885 4.21191 233.445 4.3418 233.131 4.60156C232.821 4.85677 232.666 5.23047 232.666 5.72266ZM0.920898 30H0.244141V22.5693H6.1709V30H5.49414V23.2119H0.920898V30ZM11.8447 30.1367C10.7008 30.1367 9.86686 29.7083 9.34277 28.8516H9.29492L9.31543 29.4258C9.33366 29.763 9.34277 30.1322 9.34277 30.5332V33.3633H8.66602V22.5693H9.24023L9.37012 23.6289H9.41113C9.92155 22.8268 10.7373 22.4258 11.8584 22.4258C12.861 22.4258 13.6243 22.7562 14.1484 23.417C14.6771 24.0732 14.9414 25.0303 14.9414 26.2881C14.9414 27.5094 14.6634 28.4574 14.1074 29.1318C13.556 29.8018 12.8018 30.1367 11.8447 30.1367ZM11.8311 29.5352C12.5921 29.5352 13.18 29.2526 13.5947 28.6875C14.014 28.1224 14.2236 27.3317 14.2236 26.3154C14.2236 24.1325 13.4352 23.041 11.8584 23.041C10.9925 23.041 10.3568 23.2803 9.95117 23.7588C9.54557 24.2327 9.34277 25.0075 9.34277 26.083V26.3018C9.34277 27.4639 9.53646 28.2933 9.92383 28.79C10.3158 29.2868 10.9515 29.5352 11.8311 29.5352ZM23.1514 26.2744C23.1514 27.4867 22.8574 28.4346 22.2695 29.1182C21.6816 29.7972 20.8704 30.1367 19.8359 30.1367C19.1842 30.1367 18.61 29.9795 18.1133 29.665C17.6165 29.3506 17.236 28.8994 16.9717 28.3115C16.7074 27.7236 16.5752 27.0446 16.5752 26.2744C16.5752 25.0622 16.8691 24.1188 17.457 23.4443C18.0449 22.7653 18.8516 22.4258 19.877 22.4258C20.8978 22.4258 21.6976 22.7699 22.2764 23.458C22.8597 24.1416 23.1514 25.0804 23.1514 26.2744ZM17.2861 26.2744C17.2861 27.2952 17.5094 28.0928 17.9561 28.667C18.4072 29.2367 19.043 29.5215 19.8633 29.5215C20.6836 29.5215 21.3171 29.2367 21.7637 28.667C22.2148 28.0928 22.4404 27.2952 22.4404 26.2744C22.4404 25.249 22.2126 24.4538 21.7568 23.8887C21.3057 23.3236 20.6699 23.041 19.8496 23.041C19.0293 23.041 18.3958 23.3236 17.9492 23.8887C17.5072 24.4492 17.2861 25.2445 17.2861 26.2744ZM31.9902 32.5225H31.3135V30H25.209V22.5693H25.8857V29.3574H30.3223V22.5693H30.9922V29.3574H31.9902V32.5225ZM36.5771 30.1367C35.4971 30.1367 34.654 29.804 34.0479 29.1387C33.4463 28.4733 33.1455 27.5413 33.1455 26.3428C33.1455 25.1579 33.4372 24.21 34.0205 23.499C34.6038 22.7835 35.39 22.4258 36.3789 22.4258C37.2539 22.4258 37.9443 22.7311 38.4502 23.3418C38.9561 23.9525 39.209 24.7819 39.209 25.8301V26.377H33.8564C33.8656 27.3978 34.1025 28.1771 34.5674 28.7148C35.0368 29.2526 35.7067 29.5215 36.5771 29.5215C37.001 29.5215 37.3724 29.4919 37.6914 29.4326C38.015 29.3734 38.4229 29.2458 38.915 29.0498V29.665C38.4958 29.8473 38.1084 29.9704 37.7529 30.0342C37.3975 30.1025 37.0055 30.1367 36.5771 30.1367ZM36.3789 23.0273C35.6634 23.0273 35.0892 23.2643 34.6562 23.7383C34.2233 24.2077 33.9704 24.8867 33.8975 25.7754H38.4912C38.4912 24.9141 38.3044 24.2419 37.9307 23.7588C37.557 23.2712 37.0397 23.0273 36.3789 23.0273ZM44.2266 30.1367C43.1647 30.1367 42.333 29.8018 41.7314 29.1318C41.1299 28.4619 40.8291 27.5277 40.8291 26.3291C40.8291 25.0986 41.1413 24.1416 41.7656 23.458C42.39 22.7699 43.2445 22.4258 44.3291 22.4258C44.9717 22.4258 45.5869 22.5374 46.1748 22.7607L45.9902 23.3623C45.3477 23.1481 44.7894 23.041 44.3154 23.041C43.404 23.041 42.7135 23.3236 42.2441 23.8887C41.7747 24.4492 41.54 25.2581 41.54 26.3154C41.54 27.318 41.7747 28.1042 42.2441 28.6738C42.7135 29.2389 43.3698 29.5215 44.2129 29.5215C44.8874 29.5215 45.514 29.4007 46.0928 29.1592V29.7881C45.6188 30.0205 44.9967 30.1367 44.2266 30.1367ZM50.8848 30.1367C49.8229 30.1367 48.9912 29.8018 48.3896 29.1318C47.7881 28.4619 47.4873 27.5277 47.4873 26.3291C47.4873 25.0986 47.7995 24.1416 48.4238 23.458C49.0482 22.7699 49.9027 22.4258 50.9873 22.4258C51.6299 22.4258 52.2451 22.5374 52.833 22.7607L52.6484 23.3623C52.0059 23.1481 51.4476 23.041 50.9736 23.041C50.0622 23.041 49.3717 23.3236 48.9023 23.8887C48.4329 24.4492 48.1982 25.2581 48.1982 26.3154C48.1982 27.318 48.4329 28.1042 48.9023 28.6738C49.3717 29.2389 50.028 29.5215 50.8711 29.5215C51.5456 29.5215 52.1722 29.4007 52.751 29.1592V29.7881C52.277 30.0205 51.6549 30.1367 50.8848 30.1367ZM59.0879 30L58.917 28.8242H58.8623C58.4886 29.3027 58.1035 29.6423 57.707 29.8428C57.3151 30.0387 56.8503 30.1367 56.3125 30.1367C55.5833 30.1367 55.016 29.9499 54.6104 29.5762C54.2048 29.2025 54.002 28.6852 54.002 28.0244C54.002 27.2998 54.3027 26.737 54.9043 26.3359C55.5104 25.9349 56.3854 25.723 57.5293 25.7002L58.9443 25.6592V25.167C58.9443 24.4606 58.8008 23.9274 58.5137 23.5674C58.2266 23.2074 57.764 23.0273 57.126 23.0273C56.4378 23.0273 55.7246 23.2188 54.9863 23.6016L54.7334 23.0137C55.5492 22.6309 56.3558 22.4395 57.1533 22.4395C57.9691 22.4395 58.5775 22.6514 58.9785 23.0752C59.3841 23.499 59.5869 24.1598 59.5869 25.0576V30H59.0879ZM56.3535 29.5215C57.1465 29.5215 57.7708 29.2959 58.2266 28.8447C58.6868 28.389 58.917 27.7578 58.917 26.9512V26.2197L57.6182 26.2744C56.5745 26.3245 55.8294 26.4886 55.3828 26.7666C54.9408 27.04 54.7197 27.4684 54.7197 28.0518C54.7197 28.5166 54.861 28.8789 55.1436 29.1387C55.4307 29.3939 55.834 29.5215 56.3535 29.5215ZM68.6035 30.1367C67.5417 30.1367 66.71 29.8018 66.1084 29.1318C65.5068 28.4619 65.2061 27.5277 65.2061 26.3291C65.2061 25.0986 65.5182 24.1416 66.1426 23.458C66.7669 22.7699 67.6214 22.4258 68.7061 22.4258C69.3486 22.4258 69.9639 22.5374 70.5518 22.7607L70.3672 23.3623C69.7246 23.1481 69.1663 23.041 68.6924 23.041C67.7809 23.041 67.0905 23.3236 66.6211 23.8887C66.1517 24.4492 65.917 25.2581 65.917 26.3154C65.917 27.318 66.1517 28.1042 66.6211 28.6738C67.0905 29.2389 67.7467 29.5215 68.5898 29.5215C69.2643 29.5215 69.891 29.4007 70.4697 29.1592V29.7881C69.9958 30.0205 69.3737 30.1367 68.6035 30.1367ZM78.4404 26.2744C78.4404 27.4867 78.1465 28.4346 77.5586 29.1182C76.9707 29.7972 76.1595 30.1367 75.125 30.1367C74.4733 30.1367 73.8991 29.9795 73.4023 29.665C72.9056 29.3506 72.5251 28.8994 72.2607 28.3115C71.9964 27.7236 71.8643 27.0446 71.8643 26.2744C71.8643 25.0622 72.1582 24.1188 72.7461 23.4443C73.334 22.7653 74.1406 22.4258 75.166 22.4258C76.1868 22.4258 76.9867 22.7699 77.5654 23.458C78.1488 24.1416 78.4404 25.0804 78.4404 26.2744ZM72.5752 26.2744C72.5752 27.2952 72.7985 28.0928 73.2451 28.667C73.6963 29.2367 74.332 29.5215 75.1523 29.5215C75.9727 29.5215 76.6061 29.2367 77.0527 28.667C77.5039 28.0928 77.7295 27.2952 77.7295 26.2744C77.7295 25.249 77.5016 24.4538 77.0459 23.8887C76.5947 23.3236 75.959 23.041 75.1387 23.041C74.3184 23.041 73.6849 23.3236 73.2383 23.8887C72.7962 24.4492 72.5752 25.2445 72.5752 26.2744ZM81.8994 25.7754C83.2438 25.7754 83.916 25.3128 83.916 24.3877C83.916 23.9456 83.7611 23.6084 83.4512 23.376C83.1413 23.1436 82.6992 23.0273 82.125 23.0273C81.7604 23.0273 81.4209 23.0706 81.1064 23.1572C80.792 23.2393 80.4548 23.36 80.0947 23.5195L79.8418 22.959C80.6348 22.6035 81.4049 22.4258 82.1523 22.4258C82.9635 22.4258 83.5788 22.5944 83.998 22.9316C84.4173 23.2689 84.627 23.736 84.627 24.333C84.627 25.1943 84.1849 25.7435 83.3008 25.9805V26.0215C83.8522 26.1582 84.2533 26.3861 84.5039 26.7051C84.7546 27.0195 84.8799 27.4229 84.8799 27.915C84.8799 28.6032 84.627 29.1455 84.1211 29.542C83.6198 29.9385 82.9225 30.1367 82.0293 30.1367C81.5462 30.1367 81.1042 30.0911 80.7031 30C80.3066 29.9043 79.9785 29.779 79.7188 29.624V28.9473C80.1882 29.1706 80.5938 29.3232 80.9355 29.4053C81.2773 29.4827 81.6419 29.5215 82.0293 29.5215C82.7038 29.5215 83.2279 29.3802 83.6016 29.0977C83.9798 28.8105 84.1689 28.4027 84.1689 27.874C84.1689 27.359 83.9889 26.9785 83.6289 26.7324C83.2689 26.4863 82.7288 26.3633 82.0088 26.3633H80.9766V25.7754H81.8994ZM92.8916 32.5225H92.2217V30H86.5342V32.5225H85.8643V29.3574H86.3564C86.9762 28.487 87.4548 27.4775 87.792 26.3291C88.1292 25.1807 88.307 23.9274 88.3252 22.5693H91.9004V29.3574H92.8916V32.5225ZM91.2236 29.3574V23.1982H88.9131C88.8037 25.6637 88.2067 27.7168 87.1221 29.3574H91.2236ZM98.9824 30L98.8115 28.8242H98.7568C98.3831 29.3027 97.998 29.6423 97.6016 29.8428C97.2096 30.0387 96.7448 30.1367 96.207 30.1367C95.4779 30.1367 94.9105 29.9499 94.5049 29.5762C94.0993 29.2025 93.8965 28.6852 93.8965 28.0244C93.8965 27.2998 94.1973 26.737 94.7988 26.3359C95.4049 25.9349 96.2799 25.723 97.4238 25.7002L98.8389 25.6592V25.167C98.8389 24.4606 98.6953 23.9274 98.4082 23.5674C98.1211 23.2074 97.6585 23.0273 97.0205 23.0273C96.3324 23.0273 95.6191 23.2188 94.8809 23.6016L94.6279 23.0137C95.4437 22.6309 96.2503 22.4395 97.0479 22.4395C97.8636 22.4395 98.472 22.6514 98.873 23.0752C99.2786 23.499 99.4814 24.1598 99.4814 25.0576V30H98.9824ZM96.248 29.5215C97.041 29.5215 97.6654 29.2959 98.1211 28.8447C98.5814 28.389 98.8115 27.7578 98.8115 26.9512V26.2197L97.5127 26.2744C96.4691 26.3245 95.724 26.4886 95.2773 26.7666C94.8353 27.04 94.6143 27.4684 94.6143 28.0518C94.6143 28.5166 94.7555 28.8789 95.0381 29.1387C95.3252 29.3939 95.7285 29.5215 96.248 29.5215ZM102.571 22.5693V25.8301H107.288V22.5693H107.958V30H107.288V26.418H102.571V30H101.895V22.5693H102.571ZM111.096 22.5693V27.9424L111.055 29.3438L115.464 22.5693H116.366V30H115.717V24.6611L115.744 23.2256L111.335 30H110.453V22.5693H111.096ZM118.752 30H117.897L120.14 26.7939C119.456 26.6663 118.962 26.4294 118.656 26.083C118.355 25.7367 118.205 25.2923 118.205 24.75C118.205 24.0755 118.431 23.5446 118.882 23.1572C119.338 22.7653 119.948 22.5693 120.714 22.5693H123.776V30H123.106V26.876H120.837L118.752 30ZM118.916 24.7227C118.916 25.2331 119.08 25.6136 119.408 25.8643C119.741 26.1104 120.24 26.2334 120.905 26.2334H123.106V23.2119H120.7C120.135 23.2119 119.695 23.3418 119.381 23.6016C119.071 23.8568 118.916 24.2305 118.916 24.7227ZM132.875 30.1367C131.813 30.1367 130.981 29.8018 130.38 29.1318C129.778 28.4619 129.478 27.5277 129.478 26.3291C129.478 25.0986 129.79 24.1416 130.414 23.458C131.038 22.7699 131.893 22.4258 132.978 22.4258C133.62 22.4258 134.235 22.5374 134.823 22.7607L134.639 23.3623C133.996 23.1481 133.438 23.041 132.964 23.041C132.052 23.041 131.362 23.3236 130.893 23.8887C130.423 24.4492 130.188 25.2581 130.188 26.3154C130.188 27.318 130.423 28.1042 130.893 28.6738C131.362 29.2389 132.018 29.5215 132.861 29.5215C133.536 29.5215 134.162 29.4007 134.741 29.1592V29.7881C134.267 30.0205 133.645 30.1367 132.875 30.1367ZM141.078 30L140.907 28.8242H140.853C140.479 29.3027 140.094 29.6423 139.697 29.8428C139.305 30.0387 138.84 30.1367 138.303 30.1367C137.574 30.1367 137.006 29.9499 136.601 29.5762C136.195 29.2025 135.992 28.6852 135.992 28.0244C135.992 27.2998 136.293 26.737 136.895 26.3359C137.501 25.9349 138.376 25.723 139.52 25.7002L140.935 25.6592V25.167C140.935 24.4606 140.791 23.9274 140.504 23.5674C140.217 23.2074 139.754 23.0273 139.116 23.0273C138.428 23.0273 137.715 23.2188 136.977 23.6016L136.724 23.0137C137.539 22.6309 138.346 22.4395 139.144 22.4395C139.959 22.4395 140.568 22.6514 140.969 23.0752C141.374 23.499 141.577 24.1598 141.577 25.0576V30H141.078ZM138.344 29.5215C139.137 29.5215 139.761 29.2959 140.217 28.8447C140.677 28.389 140.907 27.7578 140.907 26.9512V26.2197L139.608 26.2744C138.565 26.3245 137.82 26.4886 137.373 26.7666C136.931 27.04 136.71 27.4684 136.71 28.0518C136.71 28.5166 136.851 28.8789 137.134 29.1387C137.421 29.3939 137.824 29.5215 138.344 29.5215ZM144.633 22.5693V27.9424L144.592 29.3438L149.001 22.5693H149.903V30H149.254V24.6611L149.281 23.2256L144.872 30H143.99V22.5693H144.633ZM146.95 21.5166C146.271 21.5166 145.754 21.3662 145.398 21.0654C145.043 20.7601 144.836 20.2702 144.776 19.5957H145.378C145.446 20.097 145.601 20.4525 145.843 20.6621C146.084 20.8672 146.458 20.9697 146.964 20.9697C147.465 20.9697 147.837 20.8626 148.078 20.6484C148.324 20.4342 148.475 20.0833 148.529 19.5957H149.131C149.035 20.8763 148.308 21.5166 146.95 21.5166ZM157.115 23.1572H154.641V30H153.971V23.1572H151.435V22.5693H157.115V23.1572ZM164.792 26.2744C164.792 27.4867 164.498 28.4346 163.91 29.1182C163.322 29.7972 162.511 30.1367 161.477 30.1367C160.825 30.1367 160.251 29.9795 159.754 29.665C159.257 29.3506 158.877 28.8994 158.612 28.3115C158.348 27.7236 158.216 27.0446 158.216 26.2744C158.216 25.0622 158.51 24.1188 159.098 23.4443C159.686 22.7653 160.492 22.4258 161.518 22.4258C162.538 22.4258 163.338 22.7699 163.917 23.458C164.5 24.1416 164.792 25.0804 164.792 26.2744ZM158.927 26.2744C158.927 27.2952 159.15 28.0928 159.597 28.667C160.048 29.2367 160.684 29.5215 161.504 29.5215C162.324 29.5215 162.958 29.2367 163.404 28.667C163.855 28.0928 164.081 27.2952 164.081 26.2744C164.081 25.249 163.853 24.4538 163.397 23.8887C162.946 23.3236 162.311 23.041 161.49 23.041C160.67 23.041 160.036 23.3236 159.59 23.8887C159.148 24.4492 158.927 25.2445 158.927 26.2744ZM172.551 24.3604C172.551 24.8298 172.435 25.1989 172.202 25.4678C171.97 25.7321 171.591 25.9167 171.067 26.0215V26.0693C171.664 26.1377 172.095 26.3109 172.359 26.5889C172.628 26.8623 172.763 27.2565 172.763 27.7715C172.763 28.487 172.526 29.0384 172.052 29.4258C171.582 29.8086 170.894 30 169.987 30H166.85V22.5693H170.001C170.849 22.5693 171.484 22.722 171.908 23.0273C172.337 23.3327 172.551 23.777 172.551 24.3604ZM172.045 27.7578C172.045 26.8464 171.345 26.3906 169.946 26.3906H167.526V29.3574H170.042C171.377 29.3574 172.045 28.8242 172.045 27.7578ZM171.833 24.415C171.833 23.9821 171.678 23.6745 171.368 23.4922C171.058 23.3053 170.593 23.2119 169.974 23.2119H167.526V25.7549H169.892C170.584 25.7549 171.081 25.6478 171.382 25.4336C171.683 25.2194 171.833 24.8799 171.833 24.415ZM177.732 26.5V25.9395H190.611V26.5H177.732ZM200.77 23.1572H198.295V30H197.625V23.1572H195.089V22.5693H200.77V23.1572ZM208.446 26.2744C208.446 27.4867 208.152 28.4346 207.564 29.1182C206.977 29.7972 206.165 30.1367 205.131 30.1367C204.479 30.1367 203.905 29.9795 203.408 29.665C202.911 29.3506 202.531 28.8994 202.267 28.3115C202.002 27.7236 201.87 27.0446 201.87 26.2744C201.87 25.0622 202.164 24.1188 202.752 23.4443C203.34 22.7653 204.146 22.4258 205.172 22.4258C206.193 22.4258 206.993 22.7699 207.571 23.458C208.155 24.1416 208.446 25.0804 208.446 26.2744ZM202.581 26.2744C202.581 27.2952 202.804 28.0928 203.251 28.667C203.702 29.2367 204.338 29.5215 205.158 29.5215C205.979 29.5215 206.612 29.2367 207.059 28.667C207.51 28.0928 207.735 27.2952 207.735 26.2744C207.735 25.249 207.507 24.4538 207.052 23.8887C206.601 23.3236 205.965 23.041 205.145 23.041C204.324 23.041 203.691 23.3236 203.244 23.8887C202.802 24.4492 202.581 25.2445 202.581 26.2744ZM215.645 30H214.975V23.1982H212.343C212.206 24.9984 212.037 26.3724 211.837 27.3203C211.641 28.2637 211.386 28.9587 211.071 29.4053C210.761 29.8473 210.358 30.0684 209.861 30.0684C209.684 30.0684 209.529 30.0501 209.396 30.0137V29.3984C209.483 29.4258 209.606 29.4395 209.766 29.4395C210.281 29.4395 210.695 28.8971 211.01 27.8125C211.329 26.7233 211.57 24.9756 211.734 22.5693H215.645V30ZM218.81 25.7002H221.428C223.173 25.7002 224.046 26.3861 224.046 27.7578C224.046 28.4642 223.802 29.0156 223.314 29.4121C222.827 29.804 222.127 30 221.216 30H218.133V22.5693H218.81V25.7002ZM218.81 26.3428V29.3574H221.325C221.972 29.3574 222.467 29.2207 222.809 28.9473C223.155 28.6738 223.328 28.2728 223.328 27.7441C223.328 27.252 223.175 26.8965 222.87 26.6777C222.565 26.4544 222.036 26.3428 221.284 26.3428H218.81ZM230.137 22.5693H230.978L227.648 26.165L231.217 30H230.308L226.794 26.2334V30H226.104V22.5693H226.794V26.1787L230.137 22.5693ZM238.675 26.2744C238.675 27.4867 238.381 28.4346 237.793 29.1182C237.205 29.7972 236.394 30.1367 235.359 30.1367C234.708 30.1367 234.133 29.9795 233.637 29.665C233.14 29.3506 232.759 28.8994 232.495 28.3115C232.231 27.7236 232.099 27.0446 232.099 26.2744C232.099 25.0622 232.393 24.1188 232.98 23.4443C233.568 22.7653 234.375 22.4258 235.4 22.4258C236.421 22.4258 237.221 22.7699 237.8 23.458C238.383 24.1416 238.675 25.0804 238.675 26.2744ZM232.81 26.2744C232.81 27.2952 233.033 28.0928 233.479 28.667C233.931 29.2367 234.566 29.5215 235.387 29.5215C236.207 29.5215 236.84 29.2367 237.287 28.667C237.738 28.0928 237.964 27.2952 237.964 26.2744C237.964 25.249 237.736 24.4538 237.28 23.8887C236.829 23.3236 236.193 23.041 235.373 23.041C234.553 23.041 233.919 23.3236 233.473 23.8887C233.031 24.4492 232.81 25.2445 232.81 26.2744ZM4.6123 42.1572H0.920898V49H0.244141V41.5693H4.6123V42.1572ZM12.2822 45.2744C12.2822 46.4867 11.9883 47.4346 11.4004 48.1182C10.8125 48.7972 10.0013 49.1367 8.9668 49.1367C8.3151 49.1367 7.74089 48.9795 7.24414 48.665C6.7474 48.3506 6.36686 47.8994 6.10254 47.3115C5.83822 46.7236 5.70605 46.0446 5.70605 45.2744C5.70605 44.0622 6 43.1188 6.58789 42.4443C7.17578 41.7653 7.98242 41.4258 9.00781 41.4258C10.0286 41.4258 10.8285 41.7699 11.4072 42.458C11.9906 43.1416 12.2822 44.0804 12.2822 45.2744ZM6.41699 45.2744C6.41699 46.2952 6.6403 47.0928 7.08691 47.667C7.53809 48.2367 8.17383 48.5215 8.99414 48.5215C9.81445 48.5215 10.4479 48.2367 10.8945 47.667C11.3457 47.0928 11.5713 46.2952 11.5713 45.2744C11.5713 44.249 11.3434 43.4538 10.8877 42.8887C10.4365 42.3236 9.80078 42.041 8.98047 42.041C8.16016 42.041 7.52669 42.3236 7.08008 42.8887C6.63802 43.4492 6.41699 44.2445 6.41699 45.2744ZM19.0566 42.1572H16.582V49H15.9121V42.1572H13.376V41.5693H19.0566V42.1572ZM26.7334 45.2744C26.7334 46.4867 26.4395 47.4346 25.8516 48.1182C25.2637 48.7972 24.4525 49.1367 23.418 49.1367C22.7663 49.1367 22.1921 48.9795 21.6953 48.665C21.1986 48.3506 20.818 47.8994 20.5537 47.3115C20.2894 46.7236 20.1572 46.0446 20.1572 45.2744C20.1572 44.0622 20.4512 43.1188 21.0391 42.4443C21.627 41.7653 22.4336 41.4258 23.459 41.4258C24.4798 41.4258 25.2796 41.7699 25.8584 42.458C26.4417 43.1416 26.7334 44.0804 26.7334 45.2744ZM20.8682 45.2744C20.8682 46.2952 21.0915 47.0928 21.5381 47.667C21.9893 48.2367 22.625 48.5215 23.4453 48.5215C24.2656 48.5215 24.8991 48.2367 25.3457 47.667C25.7969 47.0928 26.0225 46.2952 26.0225 45.2744C26.0225 44.249 25.7946 43.4538 25.3389 42.8887C24.8877 42.3236 24.252 42.041 23.4316 42.041C22.6113 42.041 21.9779 42.3236 21.5312 42.8887C21.0892 43.4492 20.8682 44.2445 20.8682 45.2744ZM34.4922 43.3604C34.4922 43.8298 34.376 44.1989 34.1436 44.4678C33.9111 44.7321 33.5329 44.9167 33.0088 45.0215V45.0693C33.6058 45.1377 34.0365 45.3109 34.3008 45.5889C34.5697 45.8623 34.7041 46.2565 34.7041 46.7715C34.7041 47.487 34.4671 48.0384 33.9932 48.4258C33.5238 48.8086 32.8356 49 31.9287 49H28.791V41.5693H31.9424C32.79 41.5693 33.4258 41.722 33.8496 42.0273C34.278 42.3327 34.4922 42.777 34.4922 43.3604ZM33.9863 46.7578C33.9863 45.8464 33.2868 45.3906 31.8877 45.3906H29.4678V48.3574H31.9834C33.3187 48.3574 33.9863 47.8242 33.9863 46.7578ZM33.7744 43.415C33.7744 42.9821 33.6195 42.6745 33.3096 42.4922C32.9997 42.3053 32.5348 42.2119 31.915 42.2119H29.4678V44.7549H31.833C32.5257 44.7549 33.0225 44.6478 33.3232 44.4336C33.624 44.2194 33.7744 43.8799 33.7744 43.415ZM37.3975 41.5693V44.8301H42.1143V41.5693H42.7842V49H42.1143V45.418H37.3975V49H36.7207V41.5693H37.3975ZM51.4248 45.2744C51.4248 46.4867 51.1309 47.4346 50.543 48.1182C49.9551 48.7972 49.1439 49.1367 48.1094 49.1367C47.4577 49.1367 46.8835 48.9795 46.3867 48.665C45.89 48.3506 45.5094 47.8994 45.2451 47.3115C44.9808 46.7236 44.8486 46.0446 44.8486 45.2744C44.8486 44.0622 45.1426 43.1188 45.7305 42.4443C46.3184 41.7653 47.125 41.4258 48.1504 41.4258C49.1712 41.4258 49.971 41.7699 50.5498 42.458C51.1331 43.1416 51.4248 44.0804 51.4248 45.2744ZM45.5596 45.2744C45.5596 46.2952 45.7829 47.0928 46.2295 47.667C46.6807 48.2367 47.3164 48.5215 48.1367 48.5215C48.957 48.5215 49.5905 48.2367 50.0371 47.667C50.4883 47.0928 50.7139 46.2952 50.7139 45.2744C50.7139 44.249 50.486 43.4538 50.0303 42.8887C49.5791 42.3236 48.9434 42.041 48.123 42.041C47.3027 42.041 46.6693 42.3236 46.2227 42.8887C45.7806 43.4492 45.5596 44.2445 45.5596 45.2744ZM56.4492 49.1367C55.3874 49.1367 54.5557 48.8018 53.9541 48.1318C53.3525 47.4619 53.0518 46.5277 53.0518 45.3291C53.0518 44.0986 53.3639 43.1416 53.9883 42.458C54.6126 41.7699 55.4671 41.4258 56.5518 41.4258C57.1943 41.4258 57.8096 41.5374 58.3975 41.7607L58.2129 42.3623C57.5703 42.1481 57.012 42.041 56.5381 42.041C55.6266 42.041 54.9362 42.3236 54.4668 42.8887C53.9974 43.4492 53.7627 44.2581 53.7627 45.3154C53.7627 46.318 53.9974 47.1042 54.4668 47.6738C54.9362 48.2389 55.5924 48.5215 56.4355 48.5215C57.11 48.5215 57.7367 48.4007 58.3154 48.1592V48.7881C57.8415 49.0205 57.2194 49.1367 56.4492 49.1367ZM64.8574 42.1572H62.3828V49H61.7129V42.1572H59.1768V41.5693H64.8574V42.1572ZM67.0654 44.7002H69.6836C71.429 44.7002 72.3018 45.3861 72.3018 46.7578C72.3018 47.4642 72.0579 48.0156 71.5703 48.4121C71.0827 48.804 70.3831 49 69.4717 49H66.3887V41.5693H67.0654V44.7002ZM67.0654 45.3428V48.3574H69.5811C70.2282 48.3574 70.7227 48.2207 71.0645 47.9473C71.4108 47.6738 71.584 47.2728 71.584 46.7441C71.584 46.252 71.4313 45.8965 71.126 45.6777C70.8206 45.4544 70.292 45.3428 69.54 45.3428H67.0654ZM78.6387 41.5693V46.9424L78.5977 48.3438L83.0068 41.5693H83.9092V49H83.2598V43.6611L83.2871 42.2256L78.8779 49H77.9961V41.5693H78.6387ZM92.4678 51.5225H91.7979V49H86.1104V51.5225H85.4404V48.3574H85.9326C86.5524 47.487 87.0309 46.4775 87.3682 45.3291C87.7054 44.1807 87.8831 42.9274 87.9014 41.5693H91.4766V48.3574H92.4678V51.5225ZM90.7998 48.3574V42.1982H88.4893C88.3799 44.6637 87.7829 46.7168 86.6982 48.3574H90.7998ZM98.7637 42.1572H96.2891V49H95.6191V42.1572H93.083V41.5693H98.7637V42.1572ZM100.938 41.5693V46.9424L100.896 48.3438L105.306 41.5693H106.208V49H105.559V43.6611L105.586 42.2256L101.177 49H100.295V41.5693H100.938ZM113.017 41.5693V44.8301H117.733V41.5693H118.403V49H117.733V45.418H113.017V49H112.34V41.5693H113.017ZM125.41 49L125.239 47.8242H125.185C124.811 48.3027 124.426 48.6423 124.029 48.8428C123.637 49.0387 123.173 49.1367 122.635 49.1367C121.906 49.1367 121.338 48.9499 120.933 48.5762C120.527 48.2025 120.324 47.6852 120.324 47.0244C120.324 46.2998 120.625 45.737 121.227 45.3359C121.833 44.9349 122.708 44.723 123.852 44.7002L125.267 44.6592V44.167C125.267 43.4606 125.123 42.9274 124.836 42.5674C124.549 42.2074 124.086 42.0273 123.448 42.0273C122.76 42.0273 122.047 42.2188 121.309 42.6016L121.056 42.0137C121.871 41.6309 122.678 41.4395 123.476 41.4395C124.291 41.4395 124.9 41.6514 125.301 42.0752C125.706 42.499 125.909 43.1598 125.909 44.0576V49H125.41ZM122.676 48.5215C123.469 48.5215 124.093 48.2959 124.549 47.8447C125.009 47.389 125.239 46.7578 125.239 45.9512V45.2197L123.94 45.2744C122.897 45.3245 122.152 45.4886 121.705 45.7666C121.263 46.04 121.042 46.4684 121.042 47.0518C121.042 47.5166 121.183 47.8789 121.466 48.1387C121.753 48.3939 122.156 48.5215 122.676 48.5215ZM138.022 51.5225H137.353V49H131.665V51.5225H130.995V48.3574H131.487C132.107 47.487 132.586 46.4775 132.923 45.3291C133.26 44.1807 133.438 42.9274 133.456 41.5693H137.031V48.3574H138.022V51.5225ZM136.354 48.3574V42.1982H134.044C133.935 44.6637 133.338 46.7168 132.253 48.3574H136.354ZM140.244 41.5693V46.9424L140.203 48.3438L144.612 41.5693H145.515V49H144.865V43.6611L144.893 42.2256L140.483 49H139.602V41.5693H140.244ZM152.521 49L152.351 47.8242H152.296C151.922 48.3027 151.537 48.6423 151.141 48.8428C150.749 49.0387 150.284 49.1367 149.746 49.1367C149.017 49.1367 148.45 48.9499 148.044 48.5762C147.638 48.2025 147.436 47.6852 147.436 47.0244C147.436 46.2998 147.736 45.737 148.338 45.3359C148.944 44.9349 149.819 44.723 150.963 44.7002L152.378 44.6592V44.167C152.378 43.4606 152.234 42.9274 151.947 42.5674C151.66 42.2074 151.198 42.0273 150.56 42.0273C149.871 42.0273 149.158 42.2188 148.42 42.6016L148.167 42.0137C148.983 41.6309 149.789 41.4395 150.587 41.4395C151.403 41.4395 152.011 41.6514 152.412 42.0752C152.818 42.499 153.021 43.1598 153.021 44.0576V49H152.521ZM149.787 48.5215C150.58 48.5215 151.204 48.2959 151.66 47.8447C152.12 47.389 152.351 46.7578 152.351 45.9512V45.2197L151.052 45.2744C150.008 45.3245 149.263 45.4886 148.816 45.7666C148.374 46.04 148.153 46.4684 148.153 47.0518C148.153 47.5166 148.295 47.8789 148.577 48.1387C148.864 48.3939 149.268 48.5215 149.787 48.5215ZM160.574 49H159.904V42.1982H157.272C157.136 43.9984 156.967 45.3724 156.767 46.3203C156.571 47.2637 156.315 47.9587 156.001 48.4053C155.691 48.8473 155.288 49.0684 154.791 49.0684C154.613 49.0684 154.458 49.0501 154.326 49.0137V48.3984C154.413 48.4258 154.536 48.4395 154.695 48.4395C155.21 48.4395 155.625 47.8971 155.939 46.8125C156.258 45.7233 156.5 43.9756 156.664 41.5693H160.574V49ZM169.208 45.2744C169.208 46.4867 168.914 47.4346 168.326 48.1182C167.738 48.7972 166.927 49.1367 165.893 49.1367C165.241 49.1367 164.667 48.9795 164.17 48.665C163.673 48.3506 163.293 47.8994 163.028 47.3115C162.764 46.7236 162.632 46.0446 162.632 45.2744C162.632 44.0622 162.926 43.1188 163.514 42.4443C164.102 41.7653 164.908 41.4258 165.934 41.4258C166.954 41.4258 167.754 41.7699 168.333 42.458C168.916 43.1416 169.208 44.0804 169.208 45.2744ZM163.343 45.2744C163.343 46.2952 163.566 47.0928 164.013 47.667C164.464 48.2367 165.1 48.5215 165.92 48.5215C166.74 48.5215 167.374 48.2367 167.82 47.667C168.271 47.0928 168.497 46.2952 168.497 45.2744C168.497 44.249 168.269 43.4538 167.813 42.8887C167.362 42.3236 166.727 42.041 165.906 42.041C165.086 42.041 164.452 42.3236 164.006 42.8887C163.564 43.4492 163.343 44.2445 163.343 45.2744ZM175.634 42.1572H171.942V49H171.266V41.5693H175.634V42.1572ZM177.931 47.373L178.013 47.5166C177.671 48.7243 177.274 49.8203 176.823 50.8047H176.379C176.73 49.5514 176.98 48.4076 177.131 47.373H177.931ZM189.504 43.3604C189.504 43.8298 189.388 44.1989 189.155 44.4678C188.923 44.7321 188.545 44.9167 188.021 45.0215V45.0693C188.618 45.1377 189.048 45.3109 189.312 45.5889C189.581 45.8623 189.716 46.2565 189.716 46.7715C189.716 47.487 189.479 48.0384 189.005 48.4258C188.535 48.8086 187.847 49 186.94 49H183.803V41.5693H186.954C187.802 41.5693 188.438 41.722 188.861 42.0273C189.29 42.3327 189.504 42.777 189.504 43.3604ZM188.998 46.7578C188.998 45.8464 188.299 45.3906 186.899 45.3906H184.479V48.3574H186.995C188.33 48.3574 188.998 47.8242 188.998 46.7578ZM188.786 43.415C188.786 42.9821 188.631 42.6745 188.321 42.4922C188.011 42.3053 187.547 42.2119 186.927 42.2119H184.479V44.7549H186.845C187.537 44.7549 188.034 44.6478 188.335 44.4336C188.636 44.2194 188.786 43.8799 188.786 43.415ZM192.409 44.7002H194.774C196.52 44.7002 197.393 45.3861 197.393 46.7578C197.393 47.4642 197.149 48.0156 196.661 48.4121C196.174 48.804 195.474 49 194.562 49H191.732V41.5693H192.409V44.7002ZM192.409 45.3428V48.3574H194.672C195.314 48.3574 195.809 48.223 196.155 47.9541C196.502 47.6852 196.675 47.2819 196.675 46.7441C196.675 46.252 196.522 45.8965 196.217 45.6777C195.911 45.4544 195.383 45.3428 194.631 45.3428H192.409ZM199.361 49H198.691V41.5693H199.361V49ZM204.83 49.1367C203.768 49.1367 202.937 48.8018 202.335 48.1318C201.733 47.4619 201.433 46.5277 201.433 45.3291C201.433 44.0986 201.745 43.1416 202.369 42.458C202.993 41.7699 203.848 41.4258 204.933 41.4258C205.575 41.4258 206.19 41.5374 206.778 41.7607L206.594 42.3623C205.951 42.1481 205.393 42.041 204.919 42.041C204.007 42.041 203.317 42.3236 202.848 42.8887C202.378 43.4492 202.144 44.2581 202.144 45.3154C202.144 46.318 202.378 47.1042 202.848 47.6738C203.317 48.2389 203.973 48.5215 204.816 48.5215C205.491 48.5215 206.118 48.4007 206.696 48.1592V48.7881C206.222 49.0205 205.6 49.1367 204.83 49.1367ZM212.555 41.5693H213.396L210.066 45.165L213.635 49H212.726L209.212 45.2334V49H208.521V41.5693H209.212V45.1787L212.555 41.5693ZM219.459 49L219.288 47.8242H219.233C218.86 48.3027 218.475 48.6423 218.078 48.8428C217.686 49.0387 217.221 49.1367 216.684 49.1367C215.954 49.1367 215.387 48.9499 214.981 48.5762C214.576 48.2025 214.373 47.6852 214.373 47.0244C214.373 46.2998 214.674 45.737 215.275 45.3359C215.882 44.9349 216.757 44.723 217.9 44.7002L219.315 44.6592V44.167C219.315 43.4606 219.172 42.9274 218.885 42.5674C218.598 42.2074 218.135 42.0273 217.497 42.0273C216.809 42.0273 216.096 42.2188 215.357 42.6016L215.104 42.0137C215.92 41.6309 216.727 41.4395 217.524 41.4395C218.34 41.4395 218.949 41.6514 219.35 42.0752C219.755 42.499 219.958 43.1598 219.958 44.0576V49H219.459ZM216.725 48.5215C217.518 48.5215 218.142 48.2959 218.598 47.8447C219.058 47.389 219.288 46.7578 219.288 45.9512V45.2197L217.989 45.2744C216.946 45.3245 216.201 45.4886 215.754 45.7666C215.312 46.04 215.091 46.4684 215.091 47.0518C215.091 47.5166 215.232 47.8789 215.515 48.1387C215.802 48.3939 216.205 48.5215 216.725 48.5215ZM223.772 44.7754C225.117 44.7754 225.789 44.3128 225.789 43.3877C225.789 42.9456 225.634 42.6084 225.324 42.376C225.014 42.1436 224.572 42.0273 223.998 42.0273C223.633 42.0273 223.294 42.0706 222.979 42.1572C222.665 42.2393 222.328 42.36 221.968 42.5195L221.715 41.959C222.508 41.6035 223.278 41.4258 224.025 41.4258C224.837 41.4258 225.452 41.5944 225.871 41.9316C226.29 42.2689 226.5 42.736 226.5 43.333C226.5 44.1943 226.058 44.7435 225.174 44.9805V45.0215C225.725 45.1582 226.126 45.3861 226.377 45.7051C226.628 46.0195 226.753 46.4229 226.753 46.915C226.753 47.6032 226.5 48.1455 225.994 48.542C225.493 48.9385 224.796 49.1367 223.902 49.1367C223.419 49.1367 222.977 49.0911 222.576 49C222.18 48.9043 221.852 48.779 221.592 48.624V47.9473C222.061 48.1706 222.467 48.3232 222.809 48.4053C223.15 48.4827 223.515 48.5215 223.902 48.5215C224.577 48.5215 225.101 48.3802 225.475 48.0977C225.853 47.8105 226.042 47.4027 226.042 46.874C226.042 46.359 225.862 45.9785 225.502 45.7324C225.142 45.4863 224.602 45.3633 223.882 45.3633H222.85V44.7754H223.772ZM229.378 44.7002H231.743C233.489 44.7002 234.361 45.3861 234.361 46.7578C234.361 47.4642 234.118 48.0156 233.63 48.4121C233.142 48.804 232.443 49 231.531 49H228.701V41.5693H229.378V44.7002ZM229.378 45.3428V48.3574H231.641C232.283 48.3574 232.778 48.223 233.124 47.9541C233.47 47.6852 233.644 47.2819 233.644 46.7441C233.644 46.252 233.491 45.8965 233.186 45.6777C232.88 45.4544 232.352 45.3428 231.6 45.3428H229.378ZM236.33 49H235.66V41.5693H236.33V49ZM244.533 43.3604C244.533 43.8298 244.417 44.1989 244.185 44.4678C243.952 44.7321 243.574 44.9167 243.05 45.0215V45.0693C243.647 45.1377 244.077 45.3109 244.342 45.5889C244.611 45.8623 244.745 46.2565 244.745 46.7715C244.745 47.487 244.508 48.0384 244.034 48.4258C243.565 48.8086 242.877 49 241.97 49H238.832V41.5693H241.983C242.831 41.5693 243.467 41.722 243.891 42.0273C244.319 42.3327 244.533 42.777 244.533 43.3604ZM244.027 46.7578C244.027 45.8464 243.328 45.3906 241.929 45.3906H239.509V48.3574H242.024C243.36 48.3574 244.027 47.8242 244.027 46.7578ZM243.815 43.415C243.815 42.9821 243.66 42.6745 243.351 42.4922C243.041 42.3053 242.576 42.2119 241.956 42.2119H239.509V44.7549H241.874C242.567 44.7549 243.063 44.6478 243.364 44.4336C243.665 44.2194 243.815 43.8799 243.815 43.415ZM251.273 49L251.103 47.8242H251.048C250.674 48.3027 250.289 48.6423 249.893 48.8428C249.501 49.0387 249.036 49.1367 248.498 49.1367C247.769 49.1367 247.201 48.9499 246.796 48.5762C246.39 48.2025 246.188 47.6852 246.188 47.0244C246.188 46.2998 246.488 45.737 247.09 45.3359C247.696 44.9349 248.571 44.723 249.715 44.7002L251.13 44.6592V44.167C251.13 43.4606 250.986 42.9274 250.699 42.5674C250.412 42.2074 249.95 42.0273 249.312 42.0273C248.623 42.0273 247.91 42.2188 247.172 42.6016L246.919 42.0137C247.735 41.6309 248.541 41.4395 249.339 41.4395C250.155 41.4395 250.763 41.6514 251.164 42.0752C251.57 42.499 251.772 43.1598 251.772 44.0576V49H251.273ZM248.539 48.5215C249.332 48.5215 249.956 48.2959 250.412 47.8447C250.872 47.389 251.103 46.7578 251.103 45.9512V45.2197L249.804 45.2744C248.76 45.3245 248.015 45.4886 247.568 45.7666C247.126 46.04 246.905 46.4684 246.905 47.0518C246.905 47.5166 247.047 47.8789 247.329 48.1387C247.616 48.3939 248.02 48.5215 248.539 48.5215ZM258.902 42.1572H256.428V49H255.758V42.1572H253.222V41.5693H258.902V42.1572ZM261.11 44.7002H263.729C265.474 44.7002 266.347 45.3861 266.347 46.7578C266.347 47.4642 266.103 48.0156 265.615 48.4121C265.128 48.804 264.428 49 263.517 49H260.434V41.5693H261.11V44.7002ZM261.11 45.3428V48.3574H263.626C264.273 48.3574 264.768 48.2207 265.109 47.9473C265.456 47.6738 265.629 47.2728 265.629 46.7441C265.629 46.252 265.476 45.8965 265.171 45.6777C264.866 45.4544 264.337 45.3428 263.585 45.3428H261.11ZM3.42285 68.1367C2.27897 68.1367 1.44499 67.7083 0.920898 66.8516H0.873047L0.893555 67.4258C0.911784 67.763 0.920898 68.1322 0.920898 68.5332V71.3633H0.244141V60.5693H0.818359L0.948242 61.6289H0.989258C1.49967 60.8268 2.31543 60.4258 3.43652 60.4258C4.43913 60.4258 5.20247 60.7562 5.72656 61.417C6.25521 62.0732 6.51953 63.0303 6.51953 64.2881C6.51953 65.5094 6.24154 66.4574 5.68555 67.1318C5.13411 67.8018 4.37988 68.1367 3.42285 68.1367ZM3.40918 67.5352C4.17025 67.5352 4.75814 67.2526 5.17285 66.6875C5.59212 66.1224 5.80176 65.3317 5.80176 64.3154C5.80176 62.1325 5.01335 61.041 3.43652 61.041C2.57064 61.041 1.9349 61.2803 1.5293 61.7588C1.1237 62.2327 0.920898 63.0075 0.920898 64.083V64.3018C0.920898 65.4639 1.11458 66.2933 1.50195 66.79C1.89388 67.2868 2.52962 67.5352 3.40918 67.5352ZM13.0957 68L12.9248 66.8242H12.8701C12.4964 67.3027 12.1113 67.6423 11.7148 67.8428C11.3229 68.0387 10.8581 68.1367 10.3203 68.1367C9.59115 68.1367 9.02376 67.9499 8.61816 67.5762C8.21257 67.2025 8.00977 66.6852 8.00977 66.0244C8.00977 65.2998 8.31055 64.737 8.91211 64.3359C9.51823 63.9349 10.3932 63.723 11.5371 63.7002L12.9521 63.6592V63.167C12.9521 62.4606 12.8086 61.9274 12.5215 61.5674C12.2344 61.2074 11.7718 61.0273 11.1338 61.0273C10.4456 61.0273 9.73242 61.2188 8.99414 61.6016L8.74121 61.0137C9.55697 60.6309 10.3636 60.4395 11.1611 60.4395C11.9769 60.4395 12.5853 60.6514 12.9863 61.0752C13.3919 61.499 13.5947 62.1598 13.5947 63.0576V68H13.0957ZM10.3613 67.5215C11.1543 67.5215 11.7786 67.2959 12.2344 66.8447C12.6947 66.389 12.9248 65.7578 12.9248 64.9512V64.2197L11.626 64.2744C10.5824 64.3245 9.83724 64.4886 9.39062 64.7666C8.94857 65.04 8.72754 65.4684 8.72754 66.0518C8.72754 66.5166 8.86882 66.8789 9.15137 67.1387C9.43848 67.3939 9.8418 67.5215 10.3613 67.5215ZM22.7891 70.5225H22.1123V68H16.0078V60.5693H16.6846V67.3574H21.1211V60.5693H21.791V67.3574H22.7891V70.5225ZM25.0176 60.5693V65.9424L24.9766 67.3438L29.3857 60.5693H30.2881V68H29.6387V62.6611L29.666 61.2256L25.2568 68H24.375V60.5693H25.0176ZM38.9287 64.2744C38.9287 65.4867 38.6348 66.4346 38.0469 67.1182C37.459 67.7972 36.6478 68.1367 35.6133 68.1367C34.9616 68.1367 34.3874 67.9795 33.8906 67.665C33.3939 67.3506 33.0133 66.8994 32.749 66.3115C32.4847 65.7236 32.3525 65.0446 32.3525 64.2744C32.3525 63.0622 32.6465 62.1188 33.2344 61.4443C33.8223 60.7653 34.6289 60.4258 35.6543 60.4258C36.6751 60.4258 37.4749 60.7699 38.0537 61.458C38.637 62.1416 38.9287 63.0804 38.9287 64.2744ZM33.0635 64.2744C33.0635 65.2952 33.2868 66.0928 33.7334 66.667C34.1846 67.2367 34.8203 67.5215 35.6406 67.5215C36.4609 67.5215 37.0944 67.2367 37.541 66.667C37.9922 66.0928 38.2178 65.2952 38.2178 64.2744C38.2178 63.249 37.9899 62.4538 37.5342 61.8887C37.083 61.3236 36.4473 61.041 35.627 61.041C34.8066 61.041 34.1732 61.3236 33.7266 61.8887C33.2845 62.4492 33.0635 63.2445 33.0635 64.2744ZM41.6631 60.5693V63.8301H46.3799V60.5693H47.0498V68H46.3799V64.418H41.6631V68H40.9863V60.5693H41.6631ZM54.0566 68L53.8857 66.8242H53.8311C53.4574 67.3027 53.0723 67.6423 52.6758 67.8428C52.2839 68.0387 51.819 68.1367 51.2812 68.1367C50.5521 68.1367 49.9847 67.9499 49.5791 67.5762C49.1735 67.2025 48.9707 66.6852 48.9707 66.0244C48.9707 65.2998 49.2715 64.737 49.873 64.3359C50.4792 63.9349 51.3542 63.723 52.498 63.7002L53.9131 63.6592V63.167C53.9131 62.4606 53.7695 61.9274 53.4824 61.5674C53.1953 61.2074 52.7327 61.0273 52.0947 61.0273C51.4066 61.0273 50.6934 61.2188 49.9551 61.6016L49.7021 61.0137C50.5179 60.6309 51.3245 60.4395 52.1221 60.4395C52.9378 60.4395 53.5462 60.6514 53.9473 61.0752C54.3529 61.499 54.5557 62.1598 54.5557 63.0576V68H54.0566ZM51.3223 67.5215C52.1152 67.5215 52.7396 67.2959 53.1953 66.8447C53.6556 66.389 53.8857 65.7578 53.8857 64.9512V64.2197L52.5869 64.2744C51.5433 64.3245 50.7982 64.4886 50.3516 64.7666C49.9095 65.04 49.6885 65.4684 49.6885 66.0518C49.6885 66.5166 49.8298 66.8789 50.1123 67.1387C50.3994 67.3939 50.8027 67.5215 51.3223 67.5215ZM62.1094 68H61.4395V61.1982H58.8076C58.6709 62.9984 58.5023 64.3724 58.3018 65.3203C58.1058 66.2637 57.8506 66.9587 57.5361 67.4053C57.2262 67.8473 56.8229 68.0684 56.3262 68.0684C56.1484 68.0684 55.9935 68.0501 55.8613 68.0137V67.3984C55.9479 67.4258 56.071 67.4395 56.2305 67.4395C56.7454 67.4395 57.1602 66.8971 57.4746 65.8125C57.7936 64.7233 58.0352 62.9756 58.1992 60.5693H62.1094V68ZM65.2744 63.7002H67.8926C69.638 63.7002 70.5107 64.3861 70.5107 65.7578C70.5107 66.4642 70.2669 67.0156 69.7793 67.4121C69.2917 67.804 68.5921 68 67.6807 68H64.5977V60.5693H65.2744V63.7002ZM65.2744 64.3428V67.3574H67.79C68.4372 67.3574 68.9316 67.2207 69.2734 66.9473C69.6198 66.6738 69.793 66.2728 69.793 65.7441C69.793 65.252 69.6403 64.8965 69.335 64.6777C69.0296 64.4544 68.501 64.3428 67.749 64.3428H65.2744ZM73.2451 60.5693V63.8301H77.9619V60.5693H78.6318V68H77.9619V64.418H73.2451V68H72.5684V60.5693H73.2451ZM81.8037 63.7002H84.1689C85.9144 63.7002 86.7871 64.3861 86.7871 65.7578C86.7871 66.4642 86.5433 67.0156 86.0557 67.4121C85.568 67.804 84.8685 68 83.957 68H81.127V60.5693H81.8037V63.7002ZM81.8037 64.3428V67.3574H84.0664C84.709 67.3574 85.2035 67.223 85.5498 66.9541C85.8962 66.6852 86.0693 66.2819 86.0693 65.7441C86.0693 65.252 85.9167 64.8965 85.6113 64.6777C85.306 64.4544 84.7773 64.3428 84.0254 64.3428H81.8037ZM88.7559 68H88.0859V60.5693H88.7559V68ZM94.2588 68.1367C93.1787 68.1367 92.3356 67.804 91.7295 67.1387C91.1279 66.4733 90.8271 65.5413 90.8271 64.3428C90.8271 63.1579 91.1188 62.21 91.7021 61.499C92.2855 60.7835 93.0716 60.4258 94.0605 60.4258C94.9355 60.4258 95.626 60.7311 96.1318 61.3418C96.6377 61.9525 96.8906 62.7819 96.8906 63.8301V64.377H91.5381C91.5472 65.3978 91.7842 66.1771 92.249 66.7148C92.7184 67.2526 93.3883 67.5215 94.2588 67.5215C94.6826 67.5215 95.054 67.4919 95.373 67.4326C95.6966 67.3734 96.1045 67.2458 96.5967 67.0498V67.665C96.1774 67.8473 95.79 67.9704 95.4346 68.0342C95.0791 68.1025 94.6872 68.1367 94.2588 68.1367ZM94.0605 61.0273C93.3451 61.0273 92.7708 61.2643 92.3379 61.7383C91.9049 62.2077 91.652 62.8867 91.5791 63.7754H96.1729C96.1729 62.9141 95.986 62.2419 95.6123 61.7588C95.2386 61.2712 94.7214 61.0273 94.0605 61.0273ZM103.255 68H102.578V60.5693H108.505V68H107.828V61.2119H103.255V68ZM117.146 64.2744C117.146 65.4867 116.852 66.4346 116.264 67.1182C115.676 67.7972 114.865 68.1367 113.83 68.1367C113.178 68.1367 112.604 67.9795 112.107 67.665C111.611 67.3506 111.23 66.8994 110.966 66.3115C110.701 65.7236 110.569 65.0446 110.569 64.2744C110.569 63.0622 110.863 62.1188 111.451 61.4443C112.039 60.7653 112.846 60.4258 113.871 60.4258C114.892 60.4258 115.692 60.7699 116.271 61.458C116.854 62.1416 117.146 63.0804 117.146 64.2744ZM111.28 64.2744C111.28 65.2952 111.504 66.0928 111.95 66.667C112.401 67.2367 113.037 67.5215 113.857 67.5215C114.678 67.5215 115.311 67.2367 115.758 66.667C116.209 66.0928 116.435 65.2952 116.435 64.2744C116.435 63.249 116.207 62.4538 115.751 61.8887C115.3 61.3236 114.664 61.041 113.844 61.041C113.023 61.041 112.39 61.3236 111.943 61.8887C111.501 62.4492 111.28 63.2445 111.28 64.2744ZM122.272 60.5693H122.956V64.1787L126.148 60.5693H126.976L123.756 64.1787L127.229 68H126.36L122.956 64.2334V68H122.272V64.2334L118.868 68H118L121.459 64.2061L118.253 60.5693H119.08L122.272 64.1787V60.5693ZM131.515 68.1367C130.435 68.1367 129.591 67.804 128.985 67.1387C128.384 66.4733 128.083 65.5413 128.083 64.3428C128.083 63.1579 128.375 62.21 128.958 61.499C129.541 60.7835 130.327 60.4258 131.316 60.4258C132.191 60.4258 132.882 60.7311 133.388 61.3418C133.894 61.9525 134.146 62.7819 134.146 63.8301V64.377H128.794C128.803 65.3978 129.04 66.1771 129.505 66.7148C129.974 67.2526 130.644 67.5215 131.515 67.5215C131.938 67.5215 132.31 67.4919 132.629 67.4326C132.952 67.3734 133.36 67.2458 133.853 67.0498V67.665C133.433 67.8473 133.046 67.9704 132.69 68.0342C132.335 68.1025 131.943 68.1367 131.515 68.1367ZM131.316 61.0273C130.601 61.0273 130.027 61.2643 129.594 61.7383C129.161 62.2077 128.908 62.8867 128.835 63.7754H133.429C133.429 62.9141 133.242 62.2419 132.868 61.7588C132.494 61.2712 131.977 61.0273 131.316 61.0273ZM141.338 68H140.668V61.1982H138.036C137.899 62.9984 137.731 64.3724 137.53 65.3203C137.334 66.2637 137.079 66.9587 136.765 67.4053C136.455 67.8473 136.051 68.0684 135.555 68.0684C135.377 68.0684 135.222 68.0501 135.09 68.0137V67.3984C135.176 67.4258 135.299 67.4395 135.459 67.4395C135.974 67.4395 136.389 66.8971 136.703 65.8125C137.022 64.7233 137.264 62.9756 137.428 60.5693H141.338V68ZM148.338 68L148.167 66.8242H148.112C147.739 67.3027 147.354 67.6423 146.957 67.8428C146.565 68.0387 146.1 68.1367 145.562 68.1367C144.833 68.1367 144.266 67.9499 143.86 67.5762C143.455 67.2025 143.252 66.6852 143.252 66.0244C143.252 65.2998 143.553 64.737 144.154 64.3359C144.76 63.9349 145.635 63.723 146.779 63.7002L148.194 63.6592V63.167C148.194 62.4606 148.051 61.9274 147.764 61.5674C147.477 61.2074 147.014 61.0273 146.376 61.0273C145.688 61.0273 144.975 61.2188 144.236 61.6016L143.983 61.0137C144.799 60.6309 145.606 60.4395 146.403 60.4395C147.219 60.4395 147.827 60.6514 148.229 61.0752C148.634 61.499 148.837 62.1598 148.837 63.0576V68H148.338ZM145.604 67.5215C146.396 67.5215 147.021 67.2959 147.477 66.8447C147.937 66.389 148.167 65.7578 148.167 64.9512V64.2197L146.868 64.2744C145.825 64.3245 145.079 64.4886 144.633 64.7666C144.191 65.04 143.97 65.4684 143.97 66.0518C143.97 66.5166 144.111 66.8789 144.394 67.1387C144.681 67.3939 145.084 67.5215 145.604 67.5215ZM151.927 60.5693V63.8301H156.644V60.5693H157.313V68H156.644V64.418H151.927V68H151.25V60.5693H151.927ZM160.451 60.5693V65.9424L160.41 67.3438L164.819 60.5693H165.722V68H165.072V62.6611L165.1 61.2256L160.69 68H159.809V60.5693H160.451ZM168.107 68H167.253L169.495 64.7939C168.812 64.6663 168.317 64.4294 168.012 64.083C167.711 63.7367 167.561 63.2923 167.561 62.75C167.561 62.0755 167.786 61.5446 168.237 61.1572C168.693 60.7653 169.304 60.5693 170.069 60.5693H173.132V68H172.462V64.876H170.192L168.107 68ZM168.271 62.7227C168.271 63.2331 168.436 63.6136 168.764 63.8643C169.096 64.1104 169.595 64.2334 170.261 64.2334H172.462V61.2119H170.056C169.491 61.2119 169.051 61.3418 168.736 61.6016C168.426 61.8568 168.271 62.2305 168.271 62.7227ZM179.906 60.5693V65.9424L179.865 67.3438L184.274 60.5693H185.177V68H184.527V62.6611L184.555 61.2256L180.146 68H179.264V60.5693H179.906ZM191.985 68H191.309V60.5693H197.235V68H196.559V61.2119H191.985V68ZM202.909 68.1367C201.765 68.1367 200.931 67.7083 200.407 66.8516H200.359L200.38 67.4258C200.398 67.763 200.407 68.1322 200.407 68.5332V71.3633H199.73V60.5693H200.305L200.435 61.6289H200.476C200.986 60.8268 201.802 60.4258 202.923 60.4258C203.925 60.4258 204.689 60.7562 205.213 61.417C205.742 62.0732 206.006 63.0303 206.006 64.2881C206.006 65.5094 205.728 66.4574 205.172 67.1318C204.62 67.8018 203.866 68.1367 202.909 68.1367ZM202.896 67.5352C203.657 67.5352 204.244 67.2526 204.659 66.6875C205.078 66.1224 205.288 65.3317 205.288 64.3154C205.288 62.1325 204.5 61.041 202.923 61.041C202.057 61.041 201.421 61.2803 201.016 61.7588C200.61 62.2327 200.407 63.0075 200.407 64.083V64.3018C200.407 65.4639 200.601 66.2933 200.988 66.79C201.38 67.2868 202.016 67.5352 202.896 67.5352ZM211.071 68.1367C209.991 68.1367 209.148 67.804 208.542 67.1387C207.94 66.4733 207.64 65.5413 207.64 64.3428C207.64 63.1579 207.931 62.21 208.515 61.499C209.098 60.7835 209.884 60.4258 210.873 60.4258C211.748 60.4258 212.438 60.7311 212.944 61.3418C213.45 61.9525 213.703 62.7819 213.703 63.8301V64.377H208.351C208.36 65.3978 208.597 66.1771 209.062 66.7148C209.531 67.2526 210.201 67.5215 211.071 67.5215C211.495 67.5215 211.867 67.4919 212.186 67.4326C212.509 67.3734 212.917 67.2458 213.409 67.0498V67.665C212.99 67.8473 212.603 67.9704 212.247 68.0342C211.892 68.1025 211.5 68.1367 211.071 68.1367ZM210.873 61.0273C210.158 61.0273 209.583 61.2643 209.15 61.7383C208.717 62.2077 208.465 62.8867 208.392 63.7754H212.985C212.985 62.9141 212.799 62.2419 212.425 61.7588C212.051 61.2712 211.534 61.0273 210.873 61.0273ZM221.817 70.5225H221.147V68H215.46V70.5225H214.79V67.3574H215.282C215.902 66.487 216.381 65.4775 216.718 64.3291C217.055 63.1807 217.233 61.9274 217.251 60.5693H220.826V67.3574H221.817V70.5225ZM220.149 67.3574V61.1982H217.839C217.729 63.6637 217.132 65.7168 216.048 67.3574H220.149ZM229.542 64.2744C229.542 65.4867 229.248 66.4346 228.66 67.1182C228.072 67.7972 227.261 68.1367 226.227 68.1367C225.575 68.1367 225.001 67.9795 224.504 67.665C224.007 67.3506 223.627 66.8994 223.362 66.3115C223.098 65.7236 222.966 65.0446 222.966 64.2744C222.966 63.0622 223.26 62.1188 223.848 61.4443C224.436 60.7653 225.242 60.4258 226.268 60.4258C227.288 60.4258 228.088 60.7699 228.667 61.458C229.25 62.1416 229.542 63.0804 229.542 64.2744ZM223.677 64.2744C223.677 65.2952 223.9 66.0928 224.347 66.667C224.798 67.2367 225.434 67.5215 226.254 67.5215C227.074 67.5215 227.708 67.2367 228.154 66.667C228.605 66.0928 228.831 65.2952 228.831 64.2744C228.831 63.249 228.603 62.4538 228.147 61.8887C227.696 61.3236 227.061 61.041 226.24 61.041C225.42 61.041 224.786 61.3236 224.34 61.8887C223.898 62.4492 223.677 63.2445 223.677 64.2744ZM234.566 68.1367C233.505 68.1367 232.673 67.8018 232.071 67.1318C231.47 66.4619 231.169 65.5277 231.169 64.3291C231.169 63.0986 231.481 62.1416 232.105 61.458C232.73 60.7699 233.584 60.4258 234.669 60.4258C235.312 60.4258 235.927 60.5374 236.515 60.7607L236.33 61.3623C235.688 61.1481 235.129 61.041 234.655 61.041C233.744 61.041 233.053 61.3236 232.584 61.8887C232.115 62.4492 231.88 63.2581 231.88 64.3154C231.88 65.318 232.115 66.1042 232.584 66.6738C233.053 67.2389 233.71 67.5215 234.553 67.5215C235.227 67.5215 235.854 67.4007 236.433 67.1592V67.7881C235.959 68.0205 235.337 68.1367 234.566 68.1367ZM242.975 61.1572H240.5V68H239.83V61.1572H237.294V60.5693H242.975V61.1572ZM249.018 68L248.847 66.8242H248.792C248.418 67.3027 248.033 67.6423 247.637 67.8428C247.245 68.0387 246.78 68.1367 246.242 68.1367C245.513 68.1367 244.946 67.9499 244.54 67.5762C244.134 67.2025 243.932 66.6852 243.932 66.0244C243.932 65.2998 244.232 64.737 244.834 64.3359C245.44 63.9349 246.315 63.723 247.459 63.7002L248.874 63.6592V63.167C248.874 62.4606 248.73 61.9274 248.443 61.5674C248.156 61.2074 247.694 61.0273 247.056 61.0273C246.368 61.0273 245.654 61.2188 244.916 61.6016L244.663 61.0137C245.479 60.6309 246.285 60.4395 247.083 60.4395C247.899 60.4395 248.507 60.6514 248.908 61.0752C249.314 61.499 249.517 62.1598 249.517 63.0576V68H249.018ZM246.283 67.5215C247.076 67.5215 247.701 67.2959 248.156 66.8447C248.617 66.389 248.847 65.7578 248.847 64.9512V64.2197L247.548 64.2744C246.504 64.3245 245.759 64.4886 245.312 64.7666C244.87 65.04 244.649 65.4684 244.649 66.0518C244.649 66.5166 244.791 66.8789 245.073 67.1387C245.36 67.3939 245.764 67.5215 246.283 67.5215ZM257.631 62.3604C257.631 62.8298 257.515 63.1989 257.282 63.4678C257.05 63.7321 256.672 63.9167 256.147 64.0215V64.0693C256.744 64.1377 257.175 64.3109 257.439 64.5889C257.708 64.8623 257.843 65.2565 257.843 65.7715C257.843 66.487 257.606 67.0384 257.132 67.4258C256.662 67.8086 255.974 68 255.067 68H251.93V60.5693H255.081C255.929 60.5693 256.564 60.722 256.988 61.0273C257.417 61.3327 257.631 61.777 257.631 62.3604ZM257.125 65.7578C257.125 64.8464 256.425 64.3906 255.026 64.3906H252.606V67.3574H255.122C256.457 67.3574 257.125 66.8242 257.125 65.7578ZM256.913 62.415C256.913 61.9821 256.758 61.6745 256.448 61.4922C256.138 61.3053 255.674 61.2119 255.054 61.2119H252.606V63.7549H254.972C255.664 63.7549 256.161 63.6478 256.462 63.4336C256.763 63.2194 256.913 62.8799 256.913 62.415ZM265 68H264.33V61.1982H261.698C261.562 62.9984 261.393 64.3724 261.192 65.3203C260.996 66.2637 260.741 66.9587 260.427 67.4053C260.117 67.8473 259.714 68.0684 259.217 68.0684C259.039 68.0684 258.884 68.0501 258.752 68.0137V67.3984C258.839 67.4258 258.962 67.4395 259.121 67.4395C259.636 67.4395 260.051 66.8971 260.365 65.8125C260.684 64.7233 260.926 62.9756 261.09 60.5693H265V68ZM267.379 68H266.524L268.767 64.7939C268.083 64.6663 267.589 64.4294 267.283 64.083C266.982 63.7367 266.832 63.2923 266.832 62.75C266.832 62.0755 267.058 61.5446 267.509 61.1572C267.965 60.7653 268.575 60.5693 269.341 60.5693H272.403V68H271.733V64.876H269.464L267.379 68ZM267.543 62.7227C267.543 63.2331 267.707 63.6136 268.035 63.8643C268.368 64.1104 268.867 64.2334 269.532 64.2334H271.733V61.2119H269.327C268.762 61.2119 268.322 61.3418 268.008 61.6016C267.698 61.8568 267.543 62.2305 267.543 62.7227ZM279.615 61.1572H277.141V68H276.471V61.1572H273.935V60.5693H279.615V61.1572ZM281.823 63.7002H284.441C286.187 63.7002 287.06 64.3861 287.06 65.7578C287.06 66.4642 286.816 67.0156 286.328 67.4121C285.84 67.804 285.141 68 284.229 68H281.146V60.5693H281.823V63.7002ZM281.823 64.3428V67.3574H284.339C284.986 67.3574 285.48 67.2207 285.822 66.9473C286.169 66.6738 286.342 66.2728 286.342 65.7441C286.342 65.252 286.189 64.8965 285.884 64.6777C285.578 64.4544 285.05 64.3428 284.298 64.3428H281.823ZM0.920898 79.5693V82.8301H5.6377V79.5693H6.30762V87H5.6377V83.418H0.920898V87H0.244141V79.5693H0.920898ZM7.55859 79.5693H8.25586L9.82812 83.7393C10.3066 85.0199 10.6097 85.8835 10.7373 86.3301H10.7783C10.9697 85.7422 11.2819 84.8649 11.7148 83.6982L13.2871 79.5693H13.9844L10.6553 88.2031C10.3864 88.9049 10.1608 89.3789 9.97852 89.625C9.79622 89.8711 9.58203 90.0557 9.33594 90.1787C9.0944 90.3018 8.80046 90.3633 8.4541 90.3633C8.19434 90.3633 7.90495 90.3154 7.58594 90.2197V89.6318C7.85026 89.7048 8.13509 89.7412 8.44043 89.7412C8.67285 89.7412 8.87793 89.6865 9.05566 89.5771C9.2334 89.4678 9.3929 89.2969 9.53418 89.0645C9.68001 88.8366 9.84635 88.472 10.0332 87.9707C10.2246 87.474 10.3477 87.1504 10.4023 87L7.55859 79.5693ZM18.2979 79.5693H18.9814V83.1787L22.1738 79.5693H23.001L19.7812 83.1787L23.2539 87H22.3857L18.9814 83.2334V87H18.2979V83.2334L14.8936 87H14.0254L17.4844 83.2061L14.2783 79.5693H15.1055L18.2979 83.1787V79.5693ZM25.2158 79.5693V82.8301H29.9326V79.5693H30.6025V87H29.9326V83.418H25.2158V87H24.5391V79.5693H25.2158ZM31.8535 79.5693H32.5508L34.123 83.7393C34.6016 85.0199 34.9046 85.8835 35.0322 86.3301H35.0732C35.2646 85.7422 35.5768 84.8649 36.0098 83.6982L37.582 79.5693H38.2793L34.9502 88.2031C34.6813 88.9049 34.4557 89.3789 34.2734 89.625C34.0911 89.8711 33.877 90.0557 33.6309 90.1787C33.3893 90.3018 33.0954 90.3633 32.749 90.3633C32.4893 90.3633 32.1999 90.3154 31.8809 90.2197V89.6318C32.1452 89.7048 32.43 89.7412 32.7354 89.7412C32.9678 89.7412 33.1729 89.6865 33.3506 89.5771C33.5283 89.4678 33.6878 89.2969 33.8291 89.0645C33.9749 88.8366 34.1413 88.472 34.3281 87.9707C34.5195 87.474 34.6426 87.1504 34.6973 87L31.8535 79.5693ZM48.6426 83.2744C48.6426 84.4867 48.3691 85.4346 47.8223 86.1182C47.2799 86.7972 46.5348 87.1367 45.5869 87.1367C44.6937 87.1367 43.9736 86.8018 43.4268 86.1318C42.8844 85.4619 42.6064 84.5573 42.5928 83.418H40.2002V87H39.5234V79.5693H40.2002V82.8301H42.6064C42.6702 81.7591 42.9665 80.9251 43.4951 80.3281C44.0283 79.7266 44.7393 79.4258 45.6279 79.4258C46.5576 79.4258 47.2913 79.7699 47.8291 80.458C48.3714 81.1416 48.6426 82.0804 48.6426 83.2744ZM43.3037 83.2744C43.3037 84.2952 43.5042 85.0928 43.9053 85.667C44.3109 86.2367 44.8805 86.5215 45.6143 86.5215C46.348 86.5215 46.9154 86.2344 47.3164 85.6602C47.722 85.0859 47.9248 84.2907 47.9248 83.2744C47.9248 82.2536 47.722 81.4606 47.3164 80.8955C46.9108 80.3258 46.3389 80.041 45.6006 80.041C44.8669 80.041 44.2995 80.3236 43.8984 80.8887C43.502 81.4492 43.3037 82.2445 43.3037 83.2744ZM54.9727 79.5693V84.9424L54.9316 86.3438L59.3408 79.5693H60.2432V87H59.5938V81.6611L59.6211 80.2256L55.2119 87H54.3301V79.5693H54.9727ZM63.415 79.5693V82.8301H68.1318V79.5693H68.8018V87H68.1318V83.418H63.415V87H62.7383V79.5693H63.415ZM78.6182 83.2744C78.6182 84.4183 78.3083 85.3275 77.6885 86.002C77.0732 86.6764 76.2074 87.0547 75.0908 87.1367V90.3633H74.4209V87.1367C73.3089 87.0729 72.4385 86.7038 71.8096 86.0293C71.1807 85.3548 70.8662 84.4365 70.8662 83.2744C70.8662 82.1305 71.1761 81.2236 71.7959 80.5537C72.4157 79.8838 73.2907 79.5078 74.4209 79.4258V76.3633H75.0908V79.4258C76.2119 79.5078 77.0801 79.8838 77.6953 80.5537C78.3105 81.2236 78.6182 82.1305 78.6182 83.2744ZM71.5771 83.2744C71.5771 84.2451 71.8232 85.0107 72.3154 85.5713C72.8122 86.1273 73.514 86.4395 74.4209 86.5078V80.0547C73.4867 80.1322 72.778 80.4489 72.2949 81.0049C71.8164 81.5563 71.5771 82.3128 71.5771 83.2744ZM77.9072 83.2744C77.9072 82.3219 77.6634 81.5677 77.1758 81.0117C76.6882 80.4512 75.9932 80.1322 75.0908 80.0547V86.5078C76.0023 86.4303 76.6995 86.1068 77.1826 85.5371C77.6657 84.9674 77.9072 84.2132 77.9072 83.2744ZM86.8213 83.2744C86.8213 84.4867 86.5273 85.4346 85.9395 86.1182C85.3516 86.7972 84.5404 87.1367 83.5059 87.1367C82.8542 87.1367 82.2799 86.9795 81.7832 86.665C81.2865 86.3506 80.9059 85.8994 80.6416 85.3115C80.3773 84.7236 80.2451 84.0446 80.2451 83.2744C80.2451 82.0622 80.5391 81.1188 81.127 80.4443C81.7148 79.7653 82.5215 79.4258 83.5469 79.4258C84.5677 79.4258 85.3675 79.7699 85.9463 80.458C86.5296 81.1416 86.8213 82.0804 86.8213 83.2744ZM80.9561 83.2744C80.9561 84.2952 81.1794 85.0928 81.626 85.667C82.0771 86.2367 82.7129 86.5215 83.5332 86.5215C84.3535 86.5215 84.987 86.2367 85.4336 85.667C85.8848 85.0928 86.1104 84.2952 86.1104 83.2744C86.1104 82.249 85.8825 81.4538 85.4268 80.8887C84.9756 80.3236 84.3398 80.041 83.5195 80.041C82.6992 80.041 82.0658 80.3236 81.6191 80.8887C81.1771 81.4492 80.9561 82.2445 80.9561 83.2744ZM92.0576 87.1367C90.9137 87.1367 90.0798 86.7083 89.5557 85.8516H89.5078L89.5283 86.4258C89.5465 86.763 89.5557 87.1322 89.5557 87.5332V90.3633H88.8789V79.5693H89.4531L89.583 80.6289H89.624C90.1344 79.8268 90.9502 79.4258 92.0713 79.4258C93.0739 79.4258 93.8372 79.7562 94.3613 80.417C94.89 81.0732 95.1543 82.0303 95.1543 83.2881C95.1543 84.5094 94.8763 85.4574 94.3203 86.1318C93.7689 86.8018 93.0146 87.1367 92.0576 87.1367ZM92.0439 86.5352C92.805 86.5352 93.3929 86.2526 93.8076 85.6875C94.2269 85.1224 94.4365 84.3317 94.4365 83.3154C94.4365 81.1325 93.6481 80.041 92.0713 80.041C91.2054 80.041 90.5697 80.2803 90.1641 80.7588C89.7585 81.2327 89.5557 82.0075 89.5557 83.083V83.3018C89.5557 84.4639 89.7493 85.2933 90.1367 85.79C90.5286 86.2868 91.1644 86.5352 92.0439 86.5352ZM100.678 86.2754L101.102 85.0791L103.241 79.5693H104.178V87H103.535V80.3896C103.435 80.6768 103.328 80.9707 103.214 81.2715C103.104 81.5723 102.362 83.4818 100.985 87H100.384L98.3262 81.7773C98.2396 81.5677 98.1576 81.3467 98.0801 81.1143C98.0072 80.8818 97.9251 80.6312 97.834 80.3623V87H97.2188V79.5693H98.1143L100.261 85.0381C100.429 85.4801 100.568 85.8926 100.678 86.2754ZM111.178 87L111.007 85.8242H110.952C110.578 86.3027 110.193 86.6423 109.797 86.8428C109.405 87.0387 108.94 87.1367 108.402 87.1367C107.673 87.1367 107.106 86.9499 106.7 86.5762C106.295 86.2025 106.092 85.6852 106.092 85.0244C106.092 84.2998 106.393 83.737 106.994 83.3359C107.6 82.9349 108.475 82.723 109.619 82.7002L111.034 82.6592V82.167C111.034 81.4606 110.891 80.9274 110.604 80.5674C110.316 80.2074 109.854 80.0273 109.216 80.0273C108.528 80.0273 107.814 80.2188 107.076 80.6016L106.823 80.0137C107.639 79.6309 108.446 79.4395 109.243 79.4395C110.059 79.4395 110.667 79.6514 111.068 80.0752C111.474 80.499 111.677 81.1598 111.677 82.0576V87H111.178ZM108.443 86.5215C109.236 86.5215 109.861 86.2959 110.316 85.8447C110.777 85.389 111.007 84.7578 111.007 83.9512V83.2197L109.708 83.2744C108.664 83.3245 107.919 83.4886 107.473 83.7666C107.031 84.04 106.81 84.4684 106.81 85.0518C106.81 85.5166 106.951 85.8789 107.233 86.1387C107.521 86.3939 107.924 86.5215 108.443 86.5215ZM120.871 89.5225H120.194V87H114.09V79.5693H114.767V86.3574H119.203V79.5693H119.873V86.3574H120.871V89.5225ZM123.1 79.5693V84.9424L123.059 86.3438L127.468 79.5693H128.37V87H127.721V81.6611L127.748 80.2256L123.339 87H122.457V79.5693H123.1ZM139.984 83.2744C139.984 84.4867 139.711 85.4346 139.164 86.1182C138.622 86.7972 137.877 87.1367 136.929 87.1367C136.035 87.1367 135.315 86.8018 134.769 86.1318C134.226 85.4619 133.948 84.5573 133.935 83.418H131.542V87H130.865V79.5693H131.542V82.8301H133.948C134.012 81.7591 134.308 80.9251 134.837 80.3281C135.37 79.7266 136.081 79.4258 136.97 79.4258C137.899 79.4258 138.633 79.7699 139.171 80.458C139.713 81.1416 139.984 82.0804 139.984 83.2744ZM134.646 83.2744C134.646 84.2952 134.846 85.0928 135.247 85.667C135.653 86.2367 136.222 86.5215 136.956 86.5215C137.69 86.5215 138.257 86.2344 138.658 85.6602C139.064 85.0859 139.267 84.2907 139.267 83.2744C139.267 82.2536 139.064 81.4606 138.658 80.8955C138.253 80.3258 137.681 80.041 136.942 80.041C136.209 80.041 135.641 80.3236 135.24 80.8887C134.844 81.4492 134.646 82.2445 134.646 83.2744ZM141.898 86.4668C141.898 86.0202 142.081 85.7969 142.445 85.7969C142.819 85.7969 143.006 86.0202 143.006 86.4668C143.006 86.9134 142.819 87.1367 142.445 87.1367C142.081 87.1367 141.898 86.9134 141.898 86.4668Z" fill="black"/>
</svg>
